<?xml version="1.0" encoding="utf-8"?>
<!-- Generator: Adobe Illustrator 22.0.1, SVG Export Plug-In . SVG Version: 6.00 Build 0)  -->
<svg version="1.1" id="Layer_1" xmlns="http://www.w3.org/2000/svg" xmlns:xlink="http://www.w3.org/1999/xlink" x="0px" y="0px"
	 viewBox="0 0 420.3 435.3" style="enable-background:new 0 0 420.3 435.3;" xml:space="preserve">
<style type="text/css">
	.st0{clip-path:url(#SVGID_2_);}
	.st1{opacity:0.3;}
	.st2{fill:#FFFFFF;stroke:#80C8D2;stroke-miterlimit:10;}
	.st3{fill:url(#SVGID_3_);}
	.st4{fill:#00A59B;}
	.st5{fill:#0958A3;}
	.st6{fill:url(#SVGID_4_);}
	.st7{fill:url(#SVGID_5_);}
	.st8{opacity:0.73;}
	.st9{fill:url(#SVGID_6_);}
	.st10{fill:url(#SVGID_7_);}
	.st11{fill:url(#SVGID_8_);}
	.st12{opacity:0.83;}
	.st13{fill:url(#SVGID_9_);}
	.st14{fill:none;}
	.st15{opacity:0.88;}
	.st16{fill-rule:evenodd;clip-rule:evenodd;fill:#80B9C7;}
	.st17{fill:#FFFFFF;}
</style>
<g>
	<defs>
		<rect id="SVGID_1_" x="-23.9" y="148.7" width="368.6" height="980.7"/>
	</defs>
	<clipPath id="SVGID_2_">
		<use xlink:href="#SVGID_1_"  style="overflow:visible;"/>
	</clipPath>
	<g class="st0">
		<g id="XMLID_326_" class="st1">
			<line id="XMLID_353_" class="st2" x1="-1060.6" y1="334.5" x2="15" y2="928.1"/>
			<line id="XMLID_351_" class="st2" x1="-1040.1" y1="297.3" x2="35.5" y2="891"/>
			<line id="XMLID_349_" class="st2" x1="-1019.6" y1="260.2" x2="56" y2="853.8"/>
			<line id="XMLID_347_" class="st2" x1="-999.1" y1="223" x2="76.5" y2="816.6"/>
			<line id="XMLID_345_" class="st2" x1="-978.6" y1="185.9" x2="97" y2="779.5"/>
			<line id="XMLID_343_" class="st2" x1="-958.1" y1="148.7" x2="117.5" y2="742.3"/>
			<line id="XMLID_341_" class="st2" x1="-937.6" y1="111.5" x2="138.1" y2="705.1"/>
			<line id="XMLID_339_" class="st2" x1="-917" y1="74.4" x2="158.6" y2="668"/>
			<line id="XMLID_337_" class="st2" x1="-896.5" y1="37.2" x2="179.1" y2="630.8"/>
			<line id="XMLID_334_" class="st2" x1="-876" y1="0" x2="199.6" y2="593.7"/>
			<line id="XMLID_332_" class="st2" x1="-855.5" y1="-37.1" x2="220.1" y2="556.5"/>
			<line id="XMLID_330_" class="st2" x1="-835" y1="-74.3" x2="240.6" y2="519.3"/>
			<line id="XMLID_328_" class="st2" x1="-814.5" y1="-111.4" x2="261.1" y2="482.2"/>
		</g>
		<g id="XMLID_189_" class="st1">
			<line id="XMLID_324_" class="st2" x1="-187.2" y1="196.9" x2="-787.9" y2="1285.5"/>
			<line id="XMLID_322_" class="st2" x1="-150" y1="217.4" x2="-750.8" y2="1306"/>
			<line id="XMLID_320_" class="st2" x1="-112.8" y1="237.9" x2="-713.6" y2="1326.6"/>
			<line id="XMLID_317_" class="st2" x1="-75.7" y1="258.4" x2="-676.5" y2="1347.1"/>
			<line id="XMLID_315_" class="st2" x1="-38.5" y1="279" x2="-639.3" y2="1367.6"/>
			<line id="XMLID_313_" class="st2" x1="-1.4" y1="299.5" x2="-602.1" y2="1388.1"/>
			<line id="XMLID_311_" class="st2" x1="35.8" y1="320" x2="-565" y2="1408.6"/>
			<line id="XMLID_309_" class="st2" x1="73" y1="340.5" x2="-527.8" y2="1429.1"/>
			<line id="XMLID_307_" class="st2" x1="110.1" y1="361" x2="-490.6" y2="1449.6"/>
			<line id="XMLID_305_" class="st2" x1="147.3" y1="381.5" x2="-453.5" y2="1470.1"/>
			<line id="XMLID_303_" class="st2" x1="184.5" y1="402" x2="-416.3" y2="1490.6"/>
			<line id="XMLID_301_" class="st2" x1="221.6" y1="422.5" x2="-379.2" y2="1511.1"/>
			<line id="XMLID_299_" class="st2" x1="258.8" y1="443" x2="-342" y2="1531.7"/>
		</g>
	</g>
</g>
<g>
	
		<radialGradient id="SVGID_3_" cx="-527.5987" cy="316.8849" r="193.9078" gradientTransform="matrix(-0.9833 0.1821 0.1821 0.9833 -358.388 32.9099)" gradientUnits="userSpaceOnUse">
		<stop  offset="0" style="stop-color:#7992F3"/>
		<stop  offset="1" style="stop-color:#84B2F1"/>
	</radialGradient>
	<path class="st3" d="M381.8,119.9c-10.2-12.7-93.2-110.4-276.6-29.4c-29.6,13.1-55.6,38.1-71.9,64.7c-11.7,18.9-37.9,96,3.6,159.4
		C76.4,375,173.5,389,226.1,379.5c3.3-0.6,46.3,48.9,88.6,41.1c-17.9-14.3-31.2-34.3-37.5-56.3c20.6-1.2,40.4-9.4,57.8-20.4
		c36.4-23.1,64.1-60.1,73.7-102.1C418.2,199.9,408.9,153.5,381.8,119.9z"/>
</g>
<g>
	<g>
		<path class="st4" d="M376.1,142.7C367.2,131.1,295,41.5,128.6,110c-26.9,11-50.7,32.9-66.1,56.4c-10.9,16.7-36.2,85.3-0.5,143.2
			c34,55.1,120.8,69.9,168.3,62.6c3-0.5,40.5,45,78.5,39c-15.7-13.3-27.2-31.5-32.4-51.4c18.5-0.6,36.4-7.5,52.3-17
			c33.2-19.9,58.9-52.5,68.5-89.9C406.9,215.3,399.6,173.5,376.1,142.7z"/>
	</g>
</g>
<g>
	<path class="st5" d="M308.8,181.8c-8.2-7.5-74-64.8-189,8.4c-18.6,11.8-33.5,31.3-41.8,50.8C72,255,62.3,309.5,96.6,347.9
		c32.7,36.6,99.4,36.1,133.9,24.4c2.2-0.7,36.2,28.2,63.8,18.6c-13.5-7.8-24.5-19.9-31-34c13.7-2.9,26.2-10.4,36.8-19.6
		c22.1-19.2,37-47,39.2-76.2C341.4,231.9,330.4,201.6,308.8,181.8z"/>
</g>
<g>
	
		<radialGradient id="SVGID_4_" cx="-579.6544" cy="235.4883" r="82.3091" gradientTransform="matrix(-0.9985 5.545572e-02 5.545572e-02 0.9985 -388.0987 83.006)" gradientUnits="userSpaceOnUse">
		<stop  offset="0" style="stop-color:#7992F3"/>
		<stop  offset="1" style="stop-color:#84B2F1"/>
	</radialGradient>
	<path class="st6" d="M269.7,225.5c-5.3-4.8-47.6-41.7-121.6,5.4c-11.9,7.6-21.5,20.1-26.9,32.7c-3.8,9-10.1,44,12,68.7
		c21,23.5,63.9,23.2,86.1,15.7c1.4-0.5,23.3,18.1,41,12c-8.7-5-15.7-12.8-19.9-21.9c8.8-1.9,16.8-6.7,23.7-12.6
		c14.2-12.4,23.8-30.2,25.2-49C290.7,257.7,283.6,238.2,269.7,225.5z"/>
</g>
<g>
	<g>
		<radialGradient id="SVGID_5_" cx="72.3634" cy="110.0129" r="56.9174" gradientUnits="userSpaceOnUse">
			<stop  offset="0" style="stop-color:#7992F3"/>
			<stop  offset="1" style="stop-color:#84B2F1"/>
		</radialGradient>
		<path class="st7" d="M100.6,159.1c-3.5-6.4-27.8-72.4-40.3-104.9c0,0-20.3,23.6-23.1,24.2c-1.7,0.4-17.7-21-18.5-23.3
			c-2.4,3-4.1,5.3-4.5,6.4C14,62.6,31.1,85.4,32.8,85c2.8-0.6,23.1-24.2,23.1-24.2c12.4,32.5,36.8,98.5,40.3,104.9
			c2,1.5,33.1-12.7,34.3-13.8c-0.2-0.6-0.6-1.9-1.2-3.6C119.8,152.6,102.1,160.3,100.6,159.1z"/>
	</g>
	<g class="st8">
		<linearGradient id="SVGID_6_" gradientUnits="userSpaceOnUse" x1="91.3684" y1="187.8685" x2="235.5432" y2="187.8685">
			<stop  offset="0" style="stop-color:#A6EDEE"/>
			<stop  offset="0.1643" style="stop-color:#AEEEEF"/>
			<stop  offset="0.6451" style="stop-color:#BFF1F2"/>
			<stop  offset="1" style="stop-color:#C5F2F3"/>
		</linearGradient>
		<path class="st9" d="M152.7,228.1l47.7,16.4c1.7,3.2-11.9,36.3-13.8,35.3c-4.8-1-94.1-33.6-95.1-35c-0.9-1.1,3.7-25.9,6.4-30.3
			c42.1-22.5,83.2-35.6,90.7-55.7c3.4-9.1,1.6-19-11.1-23.7c-14.3-5.3-24.9,1.8-28.8,4c-3.3-4.3-12.2-29.5-10.5-32.7
			c1.7-3.2,25.3-18.2,60.1-5.3c29.9,11.1,44.7,35.6,33.6,65.7c-9.9,26.7-39.3,41.3-79.2,60.2L152.7,228.1z"/>
	</g>
	<g class="st8">
		<linearGradient id="SVGID_7_" gradientUnits="userSpaceOnUse" x1="18.7932" y1="82.9931" x2="134.8674" y2="82.9931">
			<stop  offset="0" style="stop-color:#A6EDEE"/>
			<stop  offset="0.1643" style="stop-color:#AEEEEF"/>
			<stop  offset="0.6451" style="stop-color:#BFF1F2"/>
			<stop  offset="1" style="stop-color:#C5F2F3"/>
		</linearGradient>
		<path class="st10" d="M100.6,159.1c-3.5-6.4-27.8-72.4-40.3-104.9c0,0-20.3,23.6-23.1,24.2C35.6,78.9,18.5,56,18.8,55
			c2-5.5,36.5-42,40.6-45.3c3.8-1,18.6-4.1,21.8-2.5c0,0,51.5,129.6,53.7,138.1C133.7,146.5,102.6,160.7,100.6,159.1z"/>
	</g>
</g>
<g>
	<radialGradient id="SVGID_8_" cx="147.3639" cy="360.7384" r="46.5308" gradientUnits="userSpaceOnUse">
		<stop  offset="0" style="stop-color:#7992F3"/>
		<stop  offset="1" style="stop-color:#84B2F1"/>
	</radialGradient>
	<path class="st11" d="M116.1,364.6c-9.6-21.2-9.3-39.8-6.7-50.9c-2.3-0.1-4,0-4.5,0.4c-4,9.2-7,31.2,4.7,57
		c12.7,27.9,38.8,45.6,68.4,32.1c6.9-3.2,11.9-7.3,15.4-11.8c-2.5,2-5.4,3.8-8.9,5.3C154.9,410.2,128.8,392.5,116.1,364.6z"/>
	<g class="st12">
		
			<linearGradient id="SVGID_9_" gradientUnits="userSpaceOnUse" x1="95.9029" y1="268.9814" x2="261.8231" y2="268.9814" gradientTransform="matrix(0.9855 0.1694 -0.1694 0.9855 60.2294 33.2958)">
			<stop  offset="0" style="stop-color:#A6EDEE"/>
			<stop  offset="0.1643" style="stop-color:#AEEEEF"/>
			<stop  offset="0.6451" style="stop-color:#BFF1F2"/>
			<stop  offset="1" style="stop-color:#C5F2F3"/>
		</linearGradient>
		<path class="st13" d="M206.8,359.3c1.7,7.1-0.3,27.4-22.3,37.4c-29.6,13.4-55.7-4.3-68.4-32.1c-11.7-25.8-8.7-47.8-4.7-57
			c2.6-1.7,27,1.7,31.9,6.2c-2.1,6.6-3.5,18.7,2.5,32c6.2,13.7,16.9,16.5,25.2,12.8c9.7-4.4,12.4-14.8,6-29
			c-1.5-3.4-7.1-15.1-8.7-18.5c2-4,26-15.1,29.2-13.2c2,4.4,6.4,15.2,9,20.9c3.2,7,10.8,16,22,10.9c10.1-4.6,11.5-15.1,7-25.1
			c-4.4-9.7-13.2-15.7-19.3-17.7c-1.2-3.3,10.2-24.7,12.6-29.4c12.3,3.6,29.1,13,40.4,38c12.7,27.9,6.2,55.3-19.1,66.8
			c-19.2,8.7-35.8,1.5-42-3.3L206.8,359.3z"/>
	</g>
</g>
<path class="st14" d="M55.8,194.8C53,192.9,38,183,38,183c-2.3,2.1-4.8,3.3-7.5,3.8l-1.7,23.5l9.1-0.8l5-6.4L51,203
	c0,0,7.8-3.8,5.9-6.8C56.6,195.7,56.3,195.3,55.8,194.8z"/>
<g class="st15">
	<g>
		<path class="st16" d="M109.5,313.7c0.6-2.4,1.2-4.5,1.9-6.1c0.3-0.2,1-0.3,1.9-0.4L56.8,195.8l-7.5,3.8l57.9,114.1
			C107.8,313.7,108.6,313.7,109.5,313.7z"/>
	</g>
	<path class="st16" d="M30.7,190.3l0.3-6.8c0,0-0.2-2.1,1.6-3c1.8-0.9,6,3.1,6,3.1L30.7,190.3z"/>
	<path class="st16" d="M101.9,343.5c-0.3-2.1-0.4-4.1-0.5-6.6c0-0.7,0-1.5,0-2.2v0L31.2,196.4l-2.4,13.9l75.6,146.5
		C103.2,352.2,102.4,347.7,101.9,343.5z"/>
	<path class="st17" d="M55.8,194.8C53,192.9,38,183,38,183c-2.3,2.1-4.8,3.3-7.5,3.8l-1.7,23.5l9.1-0.8l5-6.4L51,203
		c0,0,7.8-3.8,5.9-6.8C56.6,195.7,56.3,195.3,55.8,194.8z"/>
</g>
</svg>
