<?xml version="1.0" encoding="utf-8"?>
<!-- Generator: Adobe Illustrator 22.0.1, SVG Export Plug-In . SVG Version: 6.00 Build 0)  -->
<svg version="1.1" id="Layer_1" xmlns="http://www.w3.org/2000/svg" xmlns:xlink="http://www.w3.org/1999/xlink" x="0px" y="0px"
	 viewBox="0 0 5061.3 3002.8" style="enable-background:new 0 0 5061.3 3002.8;" xml:space="preserve">
<style type="text/css">
	.st0{clip-path:url(#SVGID_2_);}
	.st1{fill:#80B9C7;}
	.st2{fill:#9CE6FF;}
	.st3{fill:#80E0FF;}
	.st4{fill:none;}
	.st5{fill:#F9F9F9;}
	.st6{fill:#59CDF7;}
	.st7{clip-path:url(#SVGID_4_);}
	.st8{clip-path:url(#SVGID_6_);fill:url(#SVGID_7_);}
	.st9{clip-path:url(#SVGID_9_);}
	.st10{fill:#031872;}
</style>
<g>
	<g>
		<g>
			<defs>
				<rect id="SVGID_1_" x="-4" y="-9.7" width="5062" height="2991.2"/>
			</defs>
			<clipPath id="SVGID_2_">
				<use xlink:href="#SVGID_1_"  style="overflow:visible;"/>
			</clipPath>
			<g class="st0">
				<g>
					<path class="st1" d="M2573.1,81.1l-39.4-69.9c0,0-9.2-23.3-32.7-23.3s-46.9,64.9-46.9,64.9L2573.1,81.1z"/>
					<polygon class="st2" points="2326.7,286.6 2425.6,326.6 2426.4,3593.2 2325.9,3593.2 					"/>
					<polygon class="st2" points="2698.8,285 2599.1,325.7 2599.1,3455.9 2698.8,3455.9 					"/>
					<polygon class="st3" points="2425.6,133.5 2512.7,53.6 2599.1,133.5 2599.1,3592.4 2426.4,3593.2 					"/>
					<polygon class="st4" points="2425.6,133.5 2512.7,53.6 2599.1,133.5 2599.1,3592.4 2426.4,3593.2 					"/>
					<path class="st5" d="M2330.9,267.5c20.1-35,124.9-218.9,124.9-218.9c35.2,10,68.7,10,99.7,0l143.3,237.2l-99.7,40.8l-86.3-40.8
						l-86.3,40.8l-98.9-40.8C2326.7,280,2328.4,274.1,2330.9,267.5z"/>
				</g>
				<g>
					<path class="st1" d="M3417,140.2l52-60.8c0,0,13.4-20.8,36.9-16.6s33.5,72.4,33.5,72.4L3417,140.2z"/>
					<polygon class="st2" points="3619,389 3514.2,409.8 2884,3615.7 2982.9,3634 					"/>
					<polygon class="st2" points="3254.4,316.6 3344.1,375.7 2740.7,3447.6 2642.6,3429.3 					"/>
					<polygon class="st3" points="3551.1,220.1 3481.6,125.2 3381,186.8 2714.7,3582.4 2884,3615.7 					"/>
					<polygon class="st4" points="3551.1,220.1 3481.6,125.2 3381,186.8 2714.7,3582.4 2884,3615.7 					"/>
					<path class="st5" d="M3619,369c-13.4-38.3-80.5-238-80.5-238c-36,2.5-68.7-3.3-98.1-19.1l-186.1,205.6l89.7,59.1l93-23.3
						l77.1,56.6l105.6-20.8C3619.8,382.3,3619.8,376.5,3619,369z"/>
				</g>
				<g>
					<path class="st1" d="M4572.7,959.9l57.8-55.8c0,0,15.1-20,38.6-13.3c22.6,6.7,26,74.9,26,74.9L4572.7,959.9z"/>
					<polygon class="st2" points="4750.4,1226.3 4643.1,1237.1 3705.3,4367.2 3800.9,4395.5 					"/>
					<polygon class="st2" points="4394.2,1119.7 4478,1187.1 3578.8,4187.5 3483.2,4159.2 					"/>
					<polygon class="st3" points="4699.3,1052.3 4638.9,950.8 4532.5,1002.4 3539.4,4318.1 3705.3,4367.2 					"/>
					<polygon class="st4" points="4699.3,1052.3 4638.9,950.8 4532.5,1002.4 3539.4,4318.1 3705.3,4367.2 					"/>
					<path class="st5" d="M4752.1,1207.1c-9.2-39.1-57-244.7-57-244.7c-36-0.8-67.9-10-95.5-28.3l-205.3,187.3l83.8,67.4l94.7-14.2
						l71.2,64.1l106.4-10.8C4752.1,1220.4,4752.1,1214.6,4752.1,1207.1z"/>
				</g>
				<g>
					<path class="st1" d="M4169.6,617.9l52.8-60.8c0,0,13.4-20.8,36.9-16.6c23.5,5,32.7,72.4,32.7,72.4L4169.6,617.9z"/>
					<polygon class="st1" points="4371.6,859.2 4273.5,840.1 3609.8,4094.3 3707.8,4114.2 					"/>
					<polygon class="st1" points="4005.4,789.3 4129.4,679.5 3439.7,4060.1 3341.6,4040.2 					"/>
					<path class="st5" d="M4369.9,844.3c-12.6-38.3-78.8-238.9-78.8-238.9c-36,2.5-68.7-4.2-98.1-20l-188.6,204.7l89.7,59.1l93-23.3
						l77.1,57.4c0,0,99.7,21.6,105.6-19.1C4370.8,857.6,4370.8,850.9,4369.9,844.3z"/>
					<path class="st4" d="M4369.9,844.3c-12.6-38.3-78.8-238.9-78.8-238.9c-36,2.5-68.7-4.2-98.1-20l-188.6,204.7l89.7,59.1l93-23.3
						l77.1,57.4c0,0,99.7,21.6,105.6-19.1C4370.8,857.6,4370.8,850.9,4369.9,844.3z"/>
				</g>
				<g>
					<path class="st1" d="M4780.6,1480.1l63.7-49.1c0,0,17.6-18.3,39.4-9.2c21.8,9.2,17.6,77.4,17.6,77.4L4780.6,1480.1z"/>
					<polygon class="st1" points="4931.4,1755.6 4839.2,1717.3 3553.6,4782.5 3645.8,4820.8 					"/>
					<polygon class="st1" points="4586.1,1616.6 4729.5,1531.7 3393.6,4716 3301.4,4677.7 					"/>
					<path class="st5" d="M4933.1,1739.8c-5-39.9-31-249.7-31-249.7c-36-4.2-67-17.5-92.2-38.3l-224.6,164.8l77.1,74.9l95.5-4.2
						l64.5,70.7c0,0,93.9,40.8,107.3,0.8C4931.4,1753.9,4933.1,1747.3,4933.1,1739.8z"/>
					<path class="st4" d="M4933.1,1739.8c-5-39.9-31-249.7-31-249.7c-36-4.2-67-17.5-92.2-38.3l-224.6,164.8l77.1,74.9l95.5-4.2
						l64.5,70.7c0,0,93.9,40.8,107.3,0.8C4931.4,1753.9,4933.1,1747.3,4933.1,1739.8z"/>
				</g>
				<g>
					<path class="st1" d="M2936.8,151.8l47.8-64.1c0,0,11.7-22.5,35.2-19.1c23.5,2.5,38.6,69.9,38.6,69.9L2936.8,151.8z"/>
					<polygon class="st1" points="3158.1,376.5 3058.3,364.9 2652.7,3660.6 2751.6,3673.1 					"/>
					<polygon class="st1" points="2786.8,335.7 2902.4,215.9 2480.9,3639.8 2382,3627.4 					"/>
					<path class="st5" d="M3154.7,361.5c-15.9-37.5-97.2-232.2-97.2-232.2c-36,5.8-68.7,1.7-98.9-12.5l-171.8,218.9l94.7,51.6
						l91.3-30l81.3,50.8c0,0,101.4,14.2,103.1-27.5C3156.4,374.9,3156.4,368.2,3154.7,361.5z"/>
					<path class="st4" d="M3154.7,361.5c-15.9-37.5-97.2-232.2-97.2-232.2c-36,5.8-68.7,1.7-98.9-12.5l-171.8,218.9l94.7,51.6
						l91.3-30l81.3,50.8c0,0,101.4,14.2,103.1-27.5C3156.4,374.9,3156.4,368.2,3154.7,361.5z"/>
				</g>
				<g>
					<path class="st1" d="M3821.8,350.7l50.3-60.8c0,0,12.6-20.8,36-16.6c22.6,4.2,34.4,69.9,34.4,69.9L3821.8,350.7z"/>
					<polygon class="st6" points="4028,599.6 3923.2,621.2 3323.2,4029.3 3422.1,4046 					"/>
					<polygon class="st6" points="3660.9,534.6 3752.3,592.1 3153,3999.4 3054.1,3981.9 					"/>
					<path class="st5" d="M4027.1,578.8c-13.4-38.3-85.5-236.4-85.5-236.4c-36,3.3-68.7-2.5-98.1-17.5l-182.7,209.7l91.3,56.6
						l92.2-25l77.9,54.9c0,0,100.6,19.1,104.8-22.5C4028.8,592.9,4028.8,586.2,4027.1,578.8z"/>
				</g>
			</g>
		</g>
	</g>
	<g>
		<g>
			<defs>
				<rect id="SVGID_3_" x="-4" y="-9.7" width="5062" height="2991.2"/>
			</defs>
			<clipPath id="SVGID_4_">
				<use xlink:href="#SVGID_3_"  style="overflow:visible;"/>
			</clipPath>
			<g class="st7">
				<g>
					<path class="st1" d="M1606.8,140.2l-52-60.8c0,0-13.4-20.8-36.9-16.6s-33.5,72.4-33.5,72.4L1606.8,140.2z"/>
					<polygon class="st2" points="1404,389 1509.6,409.8 2139,3615.7 2040.9,3634 					"/>
					<polygon class="st2" points="1769.4,316.6 1679.7,375.7 2282.3,3447.6 2381.2,3429.3 					"/>
					<polygon class="st3" points="1471.9,220.1 1542.3,125.2 1642,186.8 2309.1,3582.4 2139,3615.7 					"/>
					<polygon class="st4" points="1471.9,220.1 1542.3,125.2 1642,186.8 2309.1,3582.4 2139,3615.7 					"/>
					<path class="st5" d="M1404,369c13.4-38.3,80.5-238,80.5-238c36,2.5,68.7-3.3,98.1-19.1l186.1,205.6l-89.7,59.1l-93-23.3
						l-77.1,56.6L1403.1,389C1403.1,382.3,1403.1,376.5,1404,369z"/>
				</g>
				<g>
					<path class="st1" d="M451.1,959.9l-57.8-55.8c0,0-15.1-20-38.6-13.3s-26,74.9-26,74.9L451.1,959.9z"/>
					<polygon class="st2" points="273.4,1226.3 379.8,1237.1 1318.5,4367.2 1222.1,4395.5 					"/>
					<polygon class="st2" points="629.6,1119.7 545.8,1187.1 1445,4187.5 1540.6,4159.2 					"/>
					<polygon class="st3" points="324.5,1052.3 384.9,950.8 490.5,1002.4 1483.6,4318.1 1318.5,4367.2 					"/>
					<polygon class="st4" points="324.5,1052.3 384.9,950.8 490.5,1002.4 1483.6,4318.1 1318.5,4367.2 					"/>
					<path class="st5" d="M271.7,1207.1c9.2-39.1,57-244.7,57-244.7c36-0.8,67.9-10,95.5-28.3l205.3,187.3l-83.8,67.4l-94.7-14.2
						l-71.2,64.1l-106.4-10.8C271.7,1220.4,271.7,1214.6,271.7,1207.1z"/>
				</g>
				<g>
					<path class="st1" d="M854.2,617.9l-52.8-60.8c0,0-13.4-20.8-36.9-16.6c-23.5,5-32.7,72.4-32.7,72.4L854.2,617.9z"/>
					<polygon class="st1" points="651.4,859.2 749.4,840.1 1414,4094.3 1316,4114.2 					"/>
					<polygon class="st1" points="1018.5,789.3 893.6,679.5 1583.3,4060.1 1681.4,4040.2 					"/>
					<path class="st5" d="M653.1,844.3c12.6-38.3,78.8-238.9,78.8-238.9c36,2.5,68.7-4.2,98.1-20l188.6,204.7l-89.7,59.1l-93-23.3
						l-77.1,57.4c0,0-99.7,21.6-105.6-19.1C652.2,857.6,652.2,850.9,653.1,844.3z"/>
					<path class="st4" d="M653.1,844.3c12.6-38.3,78.8-238.9,78.8-238.9c36,2.5,68.7-4.2,98.1-20l188.6,204.7l-89.7,59.1l-93-23.3
						l-77.1,57.4c0,0-99.7,21.6-105.6-19.1C652.2,857.6,652.2,850.9,653.1,844.3z"/>
				</g>
				<g>
					<path class="st1" d="M243.2,1480.1l-63.7-49.1c0,0-17.6-18.3-39.4-9.2s-17.6,77.4-17.6,77.4L243.2,1480.1z"/>
					<polygon class="st1" points="91.5,1755.6 183.7,1717.3 1470.2,4782.5 1378,4820.8 					"/>
					<polygon class="st1" points="437.7,1616.6 293.5,1531.7 1629.4,4716 1721.6,4677.7 					"/>
					<path class="st5" d="M89.9,1739.8c5-39.9,31-249.7,31-249.7c36-4.2,67-17.5,92.2-38.3l224.6,164.8l-77.1,74.9l-95.5-4.2
						l-64.5,70.7c0,0-93.9,40.8-107.3,0.8C92.4,1753.9,90.7,1747.3,89.9,1739.8z"/>
					<path class="st4" d="M89.9,1739.8c5-39.9,31-249.7,31-249.7c36-4.2,67-17.5,92.2-38.3l224.6,164.8l-77.1,74.9l-95.5-4.2
						l-64.5,70.7c0,0-93.9,40.8-107.3,0.8C92.4,1753.9,90.7,1747.3,89.9,1739.8z"/>
				</g>
				<g>
					<path class="st1" d="M2086.2,151.8l-47.8-64.1c0,0-11.7-22.5-35.2-19.1c-23.5,2.5-38.6,69.9-38.6,69.9L2086.2,151.8z"/>
					<polygon class="st1" points="1865.7,376.5 1964.6,364.9 2371.1,3660.6 2271.4,3673.1 					"/>
					<polygon class="st1" points="2236.2,335.7 2121.4,215.9 2542.9,3639.8 2641.8,3627.4 					"/>
					<path class="st5" d="M1868.3,361.5c15.9-37.5,97.2-232.2,97.2-232.2c36,5.8,68.7,1.7,98.9-12.5l171.8,218.9l-94.7,51.6
						l-91.3-30l-81.3,50.8c0,0-101.4,14.2-103.1-27.5C1866.6,374.9,1867.4,368.2,1868.3,361.5z"/>
					<path class="st4" d="M1868.3,361.5c15.9-37.5,97.2-232.2,97.2-232.2c36,5.8,68.7,1.7,98.9-12.5l171.8,218.9l-94.7,51.6
						l-91.3-30l-81.3,50.8c0,0-101.4,14.2-103.1-27.5C1866.6,374.9,1867.4,368.2,1868.3,361.5z"/>
				</g>
				<g>
					<path class="st1" d="M1201.2,350.7l-50.3-60.8c0,0-12.6-20.8-36-16.6c-22.6,4.2-34.4,69.9-34.4,69.9L1201.2,350.7z"/>
					<polygon class="st6" points="995.8,599.6 1099.7,621.2 1700.6,4029.3 1601.8,4046 					"/>
					<polygon class="st6" points="1362.1,534.6 1270.7,592.1 1870.8,3999.4 1969.7,3981.9 					"/>
					<path class="st5" d="M995.8,578.8c13.4-38.3,85.5-236.4,85.5-236.4c36,3.3,68.7-2.5,98.1-17.5l182.7,209.7l-91.3,56.6l-92.2-25
						l-77.9,54.9c0,0-100.6,19.1-104.8-22.5C995,592.9,995,586.2,995.8,578.8z"/>
				</g>
			</g>
		</g>
	</g>
	<g>
		<g>
			<defs>
				<rect id="SVGID_5_" x="-4" y="-9.7" width="5062" height="3012.5"/>
			</defs>
			<clipPath id="SVGID_6_">
				<use xlink:href="#SVGID_5_"  style="overflow:visible;"/>
			</clipPath>
			
				<linearGradient id="SVGID_7_" gradientUnits="userSpaceOnUse" x1="641.5429" y1="-1690.2573" x2="641.5429" y2="-4190.7495" gradientTransform="matrix(0.5689 0 0 0.5689 2167.1763 3963.8862)">
				<stop  offset="0.19" style="stop-color:#DBEEF0"/>
				<stop  offset="0.6849" style="stop-color:#FFF6F2"/>
			</linearGradient>
			<path class="st8" d="M5062.5,3008.7c0-1393.9-1132.8-2523.8-2530.3-2523.8S1.8,1614.8,1.8,3008.7c0,71.2,3.4,142.5,9.2,212.9H1.8
				v9905.8h2.5c-1.7,34.4-2.5,68.7-2.5,103.1c0,1393.9,1132.8,2523.8,2530.3,2523.8s2530.3-1129.9,2530.3-2523.8
				c0-34.4-0.8-68.7-2.5-103.1h2.5V3221.6h-9.2C5059.1,3151.2,5062.5,3080.8,5062.5,3008.7z"/>
		</g>
	</g>
	<g>
		<g>
			<defs>
				<rect id="SVGID_8_" x="-4" y="-9.7" width="5062" height="3012.5"/>
			</defs>
			<clipPath id="SVGID_9_">
				<use xlink:href="#SVGID_8_"  style="overflow:visible;"/>
			</clipPath>
			<g class="st9">
				<path class="st10" d="M715.9,266.9h11.7c17.6,0,31,14.3,31,31v10.9c0,5,3.4,9.2,8.4,9.2s9.2-4.2,9.2-9.2v-11.7
					c0-17.6,14.2-31,31-31H819c5,0,9.2-4.2,9.2-9.2l0,0c0-5-4.2-9.2-9.2-9.2h-11.7c-17.6,0-31-14.3-31-31v-10.9c0-5-3.4-9.2-8.4-9.2
					s-9.2,4.2-9.2,9.2v11.7c0,17.6-14.2,31-31,31H716c-5,0-9.2,4.2-9.2,9.2l0,0C707.5,262.8,711.7,266.9,715.9,266.9z"/>
				<path class="st10" d="M416.7,450.5h11.7c17.6,0,31,14.3,31,31v10.9c0,5,3.4,9.2,8.4,9.2s9.2-4.2,9.2-9.2v-11.7
					c0-17.6,14.2-31,31-31h11.7c5,0,9.2-4.2,9.2-9.2l0,0c0-5-4.2-9.2-9.2-9.2H508c-17.6,0-31-14.3-31-31v-10.9c0-5-3.4-9.2-8.4-9.2
					s-9.2,4.2-9.2,9.2v11.7c0,17.6-14.2,31-31,31h-11.7c-5,0-9.2,4.2-9.2,9.2l0,0C407.5,447.2,411.7,450.5,416.7,450.5z"/>
				<path class="st10" d="M3148,163h11.7c17.6,0,31,14.3,31,31v10.9c0,5,3.4,9.2,8.4,9.2s9.2-4.2,9.2-9.2v-11.7
					c0-17.6,14.2-31,31-31h11.7c5,0,9.2-4.2,9.2-9.2l0,0c0-5-4.2-9.2-9.2-9.2h-11.7c-17.6,0-31-14.3-31-31v-10.9
					c0-5-3.4-9.2-8.4-9.2s-9.2,4.2-9.2,9.2v11.7c0,17.6-14.2,31-31,31H3148c-5,0-9.2,4.2-9.2,9.2l0,0
					C3138.8,158.8,3143,163,3148,163z"/>
				<path class="st10" d="M4607.1,546.9h11.7c17.6,0,31,14.3,31,31v10.9c0,5,3.4,9.2,8.4,9.2s9.2-4.2,9.2-9.2v-11.7
					c0-17.6,14.2-31,31-31h11.7c5,0,9.2-4.2,9.2-9.2l0,0c0-5-4.2-9.2-9.2-9.2h-11.7c-17.6,0-31-14.3-31-31v-10.9
					c0-5-3.4-9.2-8.4-9.2s-9.2,4.2-9.2,9.2v11.7c0,17.6-14.2,31-31,31h-11.7c-5,0-9.2,4.2-9.2,9.2l0,0
					C4597.9,542.7,4602.1,546.9,4607.1,546.9z"/>
				<path class="st10" d="M4866.9,582.1h11.7c17.6,0,31,14.3,31,31V624c0,5,3.4,9.2,8.4,9.2s9.2-4.2,9.2-9.2v-11.7
					c0-17.6,14.2-31,31-31h11.7c5,0,9.2-4.2,9.2-9.2l0,0c0-5-4.2-9.2-9.2-9.2h-11.7c-17.6,0-31-14.3-31-31V521c0-5-3.4-9.2-8.4-9.2
					s-9.2,4.2-9.2,9.2v11.7c0,17.6-14.2,31-31,31h-11.7c-5,0-9.2,4.2-9.2,9.2l0,0C4857.7,577.9,4861.9,582.1,4866.9,582.1z"/>
				<path class="st10" d="M4850.1,1180.6h11.7c17.6,0,31,14.3,31,31v10.9c0,5,3.4,9.2,8.4,9.2s9.2-4.2,9.2-9.2v-11.7
					c0-17.6,14.2-31,31-31h11.7c5,0,9.2-4.2,9.2-9.2l0,0c0-5-4.2-9.2-9.2-9.2h-11.7c-17.6,0-31-14.3-31-31v-10.9
					c0-5-3.4-9.2-8.4-9.2s-9.2,4.2-9.2,9.2v11.7c0,17.6-14.2,31-31,31h-11.7c-5,0-9.2,4.2-9.2,9.2l0,0
					C4840.9,1177.2,4845.1,1180.6,4850.1,1180.6z"/>
				<path class="st10" d="M493.8,810.9h11.7c17.6,0,31,14.3,31,31v10.9c0,5,3.4,9.2,8.4,9.2s9.2-4.2,9.2-9.2v-11.7
					c0-17.6,14.2-31,31-31h11.7c5,0,9.2-4.2,9.2-9.2l0,0c0-5-4.2-9.2-9.2-9.2h-11.7c-17.6,0-31-14.3-31-31v-10.9
					c0-5-3.4-9.2-8.4-9.2s-9.2,4.2-9.2,9.2v11.7c0,17.6-14.2,31-31,31h-11.7c-5,0-9.2,4.2-9.2,9.2l0,0
					C484.6,806.7,488.8,810.9,493.8,810.9z"/>
				<path class="st10" d="M162.8,1012.9h6.7c10.1,0,17.6,8.4,17.6,17.6v6.7c0,2.5,2.5,5,5,5.9c3.4,0,5.9-2.5,5.9-5v-6.7
					c0-10.1,8.4-17.6,17.6-17.6h6.7c2.5,0,5-2.5,5-5l0,0c0-2.5-2.5-5-5-5h-6.7c-10.1,0-17.6-8.4-17.6-17.6v-6.7c0-2.5-2.5-5-5-5.9
					c-3.4,0-5.9,2.5-5.9,5v6.7c0,10.1-8.4,17.6-17.6,17.6h-6.7c-2.5,0-5,2.5-5,5l0,0C157.7,1011.3,159.4,1012.9,162.8,1012.9z"/>
				<path class="st10" d="M874.3,508.3h6.7c10.1,0,17.6,8.4,17.6,17.6v6.7c0,2.5,2.5,5,5,5.9c3.4,0,5.9-2.5,5.9-5v-6.7
					c0-10.1,8.4-17.6,17.6-17.6h6.7c2.5,0,5-2.5,5-5l0,0c0-2.5-2.5-5-5-5h-6.7c-10.1,0-17.6-8.4-17.6-17.6v-6.7c0-2.5-2.5-5-5-5.9
					c-3.4,0-5.9,2.5-5.9,5v6.7c0,10.1-8.4,17.6-17.6,17.6h-6.7c-2.5,0-5,2.5-5,5l0,0C869.3,505.8,871.8,508.3,874.3,508.3z"/>
				<path class="st10" d="M4594.5,127h6.7c10.1,0,17.6,8.4,17.6,17.6v6.7c0,2.5,2.5,5,5,5.9c3.4,0,5.9-2.5,5.9-5v-6.7
					c0-10.1,8.4-17.6,17.6-17.6h6.7c2.5,0,5-2.5,5-5l0,0c0-2.5-2.5-5-5-5h-6.7c-10.1,0-17.6-8.4-17.6-17.6v-6.7c0-2.5-2.5-5-5-5.9
					c-3.4,0-5.9,2.5-5.9,5v6.7c0,10.1-8.4,17.6-17.6,17.6h-6.7c-2.5,0-5,2.5-5,5l0,0C4589.5,124.5,4591.2,127,4594.5,127z"/>
				<path class="st10" d="M4261.8,417.8h6.7c10.1,0,17.6,8.4,17.6,17.6v6.7c0,2.5,2.5,5,5,5.9c3.4,0,5.9-2.5,5.9-5v-6.7
					c0-10.1,8.4-17.6,17.6-17.6h6.7c2.5,0,5-2.5,5-5l0,0c0-2.5-2.5-5-5-5h-6.7c-10.1,0-17.6-8.4-17.6-17.6v-6.7c0-2.5-2.5-5-5-5.9
					c-3.4,0-5.9,2.5-5.9,5v6.7c0,10.1-8.4,17.6-17.6,17.6h-6.7c-2.5,0-5,2.5-5,5l0,0C4256.8,415.3,4259.3,417.8,4261.8,417.8z"/>
				<path class="st10" d="M4504,806.7h6.7c10.1,0,17.6,8.4,17.6,17.6v6.7c0,2.5,2.5,5,5,5.9c3.4,0,5.9-2.5,5.9-5v-6.7
					c0-10.1,8.4-17.6,17.6-17.6h6.7c2.5,0,5-2.5,5-5l0,0c0-2.5-2.5-5-5-5h-6.7c-10.1,0-17.6-8.4-17.6-17.6v-6.7c0-2.5-2.5-5-5-5.9
					c-3.4,0-5.9,2.5-5.9,5v6.7c0,10.1-8.4,17.6-17.6,17.6h-6.7c-2.5,0-5,2.5-5,5l0,0C4499,804.2,4501.5,806.7,4504,806.7z"/>
				<path class="st10" d="M91.5,1318h6.7c10.1,0,17.6,8.4,17.6,17.6v6.7c0,2.5,2.5,5,5,5.9c3.4,0,5.9-2.5,5.9-5v-6.7
					c0-10.1,8.4-17.6,17.6-17.6h6.7c2.5,0,5-2.5,5-5l0,0c0-2.5-2.5-5-5-5h-6.7c-10.1,0-17.6-8.4-17.6-17.6v-6.7c0-2.5-2.5-5-5-5.9
					c-3.4,0-5.9,2.5-5.9,5v6.7c0,10.1-8.4,17.6-17.6,17.6h-6.7c-2.5,0-5,2.5-5,5l0,0C86.5,1315.5,89,1318,91.5,1318z"/>
				<path class="st10" d="M1316.8,158h6.7c10.1,0,17.6,8.4,17.6,17.6v6.7c0,2.5,2.5,5,5,5.9c3.4,0,5.9-2.5,5.9-5v-6.7
					c0-10.1,8.4-17.6,17.6-17.6h6.7c2.5,0,5-2.5,5-5l0,0c0-2.5-2.5-5-5-5h-6.7c-10.1,0-17.6-8.4-17.6-17.6v-6.7c0-2.5-2.5-5-5-5.9
					c-3.4,0-5.9,2.5-5.9,5v6.7c0,10.1-8.4,17.6-17.6,17.6h-6.7c-2.5,0-5,2.5-5,5l0,0C1311.8,155.5,1314.3,158,1316.8,158z"/>
				<path class="st10" d="M142.7,710.4h6.7c10.1,0,17.6,8.4,17.6,17.6v6.7c0,2.5,2.5,5,5,5.9c3.4,0,5.9-2.5,5.9-5v-6.7
					c0-10.1,8.4-17.6,17.6-17.6h6.7c2.5,0,5-2.5,5-5l0,0c0-2.5-2.5-5-5-5h-6.7c-10.1,0-17.6-8.4-17.6-17.6V677c0-2.5-2.5-5-5-5.9
					c-3.4,0-5.9,2.5-5.9,5v6.7c0,10.1-8.4,17.6-17.6,17.6h-6.7c-2.5,0-5,2.5-5,5l0,0C137.6,708.7,140.2,710.4,142.7,710.4z"/>
				<path class="st10" d="M198,228.4h6.7c10.1,0,17.6,8.4,17.6,17.6v6.7c0,2.5,2.5,5,5,5.9c3.4,0,5.9-2.5,5.9-5v-6.7
					c0-10.1,8.4-17.6,17.6-17.6h6.7c2.5,0,5-2.5,5-5l0,0c0-2.5-2.5-5-5-5h-6.7c-10.1,0-17.6-8.4-17.6-17.6V195c0-2.5-2.5-5-5-5.9
					c-3.4,0-5.9,2.5-5.9,5v6.7c0,10.1-8.4,17.6-17.6,17.6H198c-2.5,0-5,2.5-5,5l0,0C192.1,225.9,194.6,228.4,198,228.4z"/>
				<path class="st10" d="M2006.5,107.7h6.7c10.1,0,17.6,8.4,17.6,17.6v6.7c0,2.5,2.5,5,5,5.9c3.4,0,5.9-2.5,5.9-5v-6.7
					c0-10.1,8.4-17.6,17.6-17.6h6.7c2.5,0,5-2.5,5-5l0,0c0-2.5-2.5-5-5-5h-6.7c-10.1,0-17.6-8.4-17.6-17.6v-6.7c0-2.5-2.5-5-5-5.9
					c-3.4,0-5.9,2.5-5.9,5V80c0,10.1-8.4,17.6-17.6,17.6h-6.7c-2.5,0-5,2.5-5,5l0,0C2001.5,105.2,2004,107.7,2006.5,107.7z"/>
				<path class="st10" d="M1052,142.9h6.7c10.1,0,17.6,8.4,17.6,17.6v6.7c0,2.5,2.5,5,5,5.9c3.4,0,5.9-2.5,5.9-5v-6.7
					c0-10.1,8.4-17.6,17.6-17.6h6.7c2.5,0,5-2.5,5-5l0,0c0-2.5-2.5-5-5-5h-6.7c-10.1,0-17.6-8.4-17.6-17.6v-6.7c0-2.5-2.5-5-5-5.9
					c-3.4,0-5.9,2.5-5.9,5v6.7c0,10.1-8.4,17.6-17.6,17.6h-6.7c-2.5,0-5,2.5-5,5l0,0C1046.9,140.4,1048.6,142.9,1052,142.9z"/>
				<path class="st10" d="M4139.4,212.5h6.7c10.1,0,17.6,8.4,17.6,17.6v6.7c0,2.5,2.5,5,5,5.9c3.4,0,5.9-2.5,5.9-5V231
					c0-10.1,8.4-17.6,17.6-17.6h6.7c2.5,0,5-2.5,5-5l0,0c0-2.5-2.5-5-5-5h-6.7c-10.1,0-17.6-8.4-17.6-17.6v-6.7c0-2.5-2.5-5-5-5.9
					c-3.4,0-5.9,2.5-5.9,5v6.7c0,10.1-8.4,17.6-17.6,17.6h-6.7c-2.5,0-5,2.5-5,5l0,0C4134.4,210,4136.9,212.5,4139.4,212.5z"/>
				<path class="st10" d="M2619.2,186.5h6.7c10.1,0,17.6,8.4,17.6,17.6v6.7c0,2.5,2.5,5,5,5.9c3.4,0,5.9-2.5,5.9-5V205
					c0-10.1,8.4-17.6,17.6-17.6h6.7c2.5,0,5-2.5,5-5l0,0c0-2.5-2.5-5-5-5h-6.7c-10.1,0-17.6-8.4-17.6-17.6V153c0-2.5-2.5-5-5-5.9
					c-3.4,0-5.9,2.5-5.9,5v6.7c0,10.1-8.4,17.6-17.6,17.6h-6.7c-2.5,0-5,2.5-5,5l0,0C2614.1,184,2615.8,186.5,2619.2,186.5z"/>
				<path class="st10" d="M3634.9,177.3h6.7c10.1,0,17.6,8.4,17.6,17.6v6.7c0,2.5,2.5,5,5,5.9c3.4,0,5.9-2.5,5.9-5v-6.7
					c0-10.1,8.4-17.6,17.6-17.6h6.7c2.5,0,5-2.5,5-5l0,0c0-2.5-2.5-5-5-5h-6.7c-10.1,0-17.6-8.4-17.6-17.6v-6.7c0-2.5-2.5-5-5-5.9
					c-3.4,0-5.9,2.5-5.9,5v6.7c0,10.1-8.4,17.6-17.6,17.6h-6.7c-2.5,0-5,2.5-5,5l0,0C3629.9,175.6,3632.4,177.3,3634.9,177.3z"/>
			</g>
		</g>
	</g>
</g>
</svg>
