<?xml version="1.0" encoding="utf-8"?>
<!-- Generator: Adobe Illustrator 22.0.1, SVG Export Plug-In . SVG Version: 6.00 Build 0)  -->
<svg version="1.1" id="Layer_1" xmlns="http://www.w3.org/2000/svg" xmlns:xlink="http://www.w3.org/1999/xlink" x="0px" y="0px"
	 viewBox="0 0 600 369.2" style="enable-background:new 0 0 600 369.2;" xml:space="preserve">
<style type="text/css">
	.st0{fill-rule:evenodd;clip-rule:evenodd;fill:url(#SVGID_1_);}
	.st1{fill-rule:evenodd;clip-rule:evenodd;fill:#0C1045;}
	.st2{fill:#0C1045;}
</style>
<g>
	<g>
		<linearGradient id="SVGID_1_" gradientUnits="userSpaceOnUse" x1="24.3809" y1="228.9967" x2="374.537" y2="228.9967">
			<stop  offset="0" style="stop-color:#09207C"/>
			<stop  offset="0.3018" style="stop-color:#0A1A67"/>
			<stop  offset="0.7356" style="stop-color:#0B134E"/>
			<stop  offset="1" style="stop-color:#0C1045"/>
		</linearGradient>
		<path class="st0" d="M336.1,288.3c-12.8-32.7-6.4-68.4-0.7-84.4c4.9-13.4,15.3-32.4,25.9-50.7c-0.1-0.3-0.3-0.7-0.4-0.9
			c-6.8-12.6-19.3-26.6-49-39.2c-12.8-5.1-34.1-7.9-49.3-7c-21.8,1.3-50.8,6.9-63.7,26.8c-15.6-21-57-27-81.2-26.5
			c-17.6,0.3-32.3,1.9-45.8,8.6c-21.1,10.4-34.3,23.1-41.5,48.8c-2.3,7.9-6,22.7-5.9,40.9l0.1,147.3l96.9-0.1l-1.2-120.9
			c0.2-22.8,3.7-32.4,17-32.3c7.5,0.1,11.7,3.3,12.2,10.7c0.4,5.6,0.2,17,0.2,24.5l-0.1,116.6l99.3-0.1l0-119.2
			c0.1-13.6-1-24.5,2.8-28.6c2.7-2.9,3.8-3.8,11.3-4c6.9-0.1,10.3,1.2,13.6,6c4.2,6.1,2.4,23.9,2.4,30.6l-0.1,115.3l95.8-0.1
			c-0.1-2.5-0.3-5-0.4-7.5C357.5,328.9,344.7,310.5,336.1,288.3z"/>
	</g>
	<path class="st1" d="M380.3,138.3c-12.8,21.6-30.3,51.1-36.6,68.7c-7,19.2-9.7,51.8,0.6,78.1c17.3,44.7,53.1,73.1,98.3,78
		c21.5,2.3,43.4-1.1,63.2-9.9c20.5-9.1,37.8-23.7,50-42.1c17.6-26.5,22.8-53,17.4-88.3c-2.8-22-15.5-45.9-34-64
		c-10.8-10.6-25.7-17.1-37.6-22.3c-5.2-2.3-9.6-4.2-13.3-6.2c-2.6-1.4-5.4-4.1-4.2-9l0.2-0.8l41.9-69.8L453.5,8.2l-69.5,124
		L380.3,138.3z M454.3,209.9l0.3,0c10.3-0.5,20.4,3.3,27.7,10.5c7.2,7.2,11,17.1,10.5,27.3c-1,19.2-15,33.8-34.1,35.6
		c-0.9,0.1-1.7,0.1-2.6,0.1c-8.4,0-17.2-3.5-24-9.7c-7.9-7.1-12.2-16.7-12.3-27C419.6,226.5,432.8,212.3,454.3,209.9z"/>
	<g>
		<polygon class="st2" points="67.1,40.8 50.9,73.5 34.7,40.8 32.6,40.8 26.7,83.5 32.4,83.5 36.1,55.7 49.8,83.5 51.9,83.5 
			65.6,55.9 69.4,83.5 75,83.5 68.9,40.8 		"/>
		<path class="st2" d="M82.8,39c-1.1,0-2,0.4-2.8,1.2c-0.8,0.8-1.2,1.8-1.2,2.9c0,1.1,0.4,2.1,1.2,2.8c0.8,0.8,1.7,1.2,2.8,1.2
			c1.1,0,2.1-0.4,2.8-1.2c0.8-0.8,1.2-1.7,1.2-2.8c0-1.1-0.4-2.1-1.2-2.9C84.9,39.4,83.9,39,82.8,39z"/>
		<rect x="80.1" y="51.5" class="st2" width="5.5" height="32"/>
		<path class="st2" d="M114.8,52.6c-1.9-1.2-4.1-1.9-6.5-1.9c-2.4,0-4.6,0.6-6.6,1.6c-1.4,0.8-2.8,1.8-4,3.2v-4.1h-5.5v32h5.5V71.6
			c0-3.9,0.2-6.6,0.5-8.1c0.5-2.1,1.7-3.9,3.5-5.4c1.7-1.4,3.7-2.2,5.9-2.2c1.9,0,3.4,0.5,4.5,1.3c1.2,0.9,1.9,2.3,2.4,4.1
			c0.2,0.8,0.4,2.6,0.4,6.8v15.3h5.5V67.1c0-4.3-0.4-7.4-1.3-9.4C118.1,55.5,116.7,53.8,114.8,52.6z"/>
		<path class="st2" d="M129.2,39c-1.1,0-2,0.4-2.8,1.2c-0.8,0.8-1.2,1.8-1.2,2.9c0,1.1,0.4,2.1,1.2,2.8c0.8,0.8,1.7,1.2,2.8,1.2
			c1.1,0,2.1-0.4,2.8-1.2c0.8-0.8,1.2-1.7,1.2-2.8c0-1.1-0.4-2.1-1.2-2.9C131.3,39.4,130.3,39,129.2,39z"/>
		<rect x="126.5" y="51.5" class="st2" width="5.5" height="32"/>
		<path class="st2" d="M177.5,62.2c-0.9-0.8-2.1-1.5-3.7-2.1c1.2-0.9,2.1-1.9,2.8-3.1c1-1.6,1.4-3.4,1.4-5.4c0-2.1-0.6-4-1.7-5.8
			c-1.1-1.7-2.6-3-4.5-3.9c-1.9-0.8-4.4-1.2-7.9-1.2h-8.9v42.8h12.1c4.3,0,7.7-1.2,10.3-3.6c2.6-2.4,3.9-5.4,3.9-9
			c0-1.7-0.3-3.4-1-4.9C179.7,64.6,178.7,63.3,177.5,62.2z M160.8,63.7h1.5c3.4,0,5.8,0.2,7.1,0.5c1.9,0.5,3.4,1.3,4.5,2.5
			c1.1,1.2,1.6,2.6,1.6,4.3c0,1.3-0.4,2.5-1.1,3.6c-0.8,1.1-1.8,2-3,2.5c-1.3,0.5-3.4,0.8-6.3,0.8h-4.3V63.7z M171.2,55
			c-0.7,1-1.6,1.8-2.8,2.2c-1.3,0.5-3.3,0.7-6,0.7h-1.6V46.4h4c2.7,0,4.6,0.5,5.8,1.4c1.1,0.9,1.7,2.2,1.7,3.8
			C172.2,52.9,171.9,54,171.2,55z"/>
		<path class="st2" d="M209.5,66.5c0,4.6-0.3,6.5-0.6,7.2c-0.5,1.5-1.4,2.8-2.8,3.8c-1.4,1-3.1,1.4-5.1,1.4c-2,0-3.8-0.5-5.2-1.5
			c-1.4-1-2.4-2.3-2.9-4c-0.4-1.2-0.5-3.6-0.5-6.9v-15h-5.5v15.4c0,4.5,0.5,7.8,1.5,10c1,2.3,2.6,4.1,4.8,5.4
			c2.1,1.3,4.7,1.9,7.8,1.9c3.1,0,5.7-0.6,7.8-1.9c2.1-1.3,3.7-3.1,4.7-5.3c1-2.2,1.5-5.4,1.5-9.8V51.5h-5.6V66.5z"/>
		<path class="st2" d="M228.8,52.2c-0.9,0.6-1.7,1.3-2.6,2.3v-2.9h-5.6v32h5.6V72.4c0-5.2,0.2-8.7,0.7-10.3c0.6-2.1,1.5-3.7,2.5-4.6
			c1.1-0.9,2.1-1.4,3.3-1.4c0.4,0,1,0.2,1.8,0.5l0.6,0.3l2.8-4.6l-0.7-0.4C234.2,50.2,231.4,50.5,228.8,52.2z"/>
		<path class="st2" d="M256.6,50.7c-2.5,0-4.9,0.5-7,1.6c-1.6,0.8-3,1.8-4.4,3.2V39.7h-5.5v43.8h5.5v-4.2c1.3,1.4,2.7,2.5,4.2,3.2
			c2.1,1.1,4.5,1.7,7.1,1.7c4.5,0,8.4-1.6,11.7-4.9c3.2-3.2,4.8-7.2,4.8-11.8c0-4.6-1.6-8.6-4.8-11.9
			C265,52.4,261.1,50.7,256.6,50.7z M267.5,67.5c0,2-0.5,3.9-1.5,5.7c-1,1.8-2.4,3.2-4.1,4.2c-1.7,1-3.6,1.5-5.6,1.5
			c-3.2,0-5.8-1.1-8-3.3c-2.2-2.2-3.2-4.9-3.2-8.2c0-2.1,0.5-4.1,1.4-5.8c1-1.7,2.3-3.1,4.1-4.1c1.8-1,3.7-1.5,5.7-1.5
			c1.9,0,3.8,0.5,5.5,1.5c1.7,1,3.1,2.4,4.1,4.3C266.9,63.5,267.5,65.5,267.5,67.5z"/>
		<path class="st2" d="M300.7,66.5c0,4.6-0.3,6.5-0.6,7.2c-0.5,1.5-1.4,2.8-2.8,3.8c-1.4,1-3.1,1.4-5.1,1.4c-2,0-3.8-0.5-5.2-1.5
			c-1.4-1-2.4-2.3-2.9-4c-0.4-1.2-0.5-3.6-0.5-6.9v-15H278v15.4c0,4.5,0.5,7.8,1.5,10c1,2.3,2.6,4.1,4.8,5.4
			c2.1,1.3,4.7,1.9,7.8,1.9c3.1,0,5.7-0.6,7.8-1.9c2.1-1.3,3.7-3.1,4.7-5.3c1-2.2,1.5-5.4,1.5-9.8V51.5h-5.6V66.5z"/>
		<path class="st2" d="M312.9,86.2c0,2.2-0.3,2.9-0.4,3.1c-0.7,1.2-2.2,1.2-4.1,0.2l-1.2-0.6v5.3l0.5,0.2c1.7,0.7,3.3,1,4.7,1
			c1.8,0,3.3-0.7,4.4-2.1c1-1.3,1.5-3.3,1.5-6.1V51.5h-5.5V86.2z"/>
		<path class="st2" d="M315.6,39c-1.1,0-2.1,0.4-2.8,1.2c-0.8,0.8-1.2,1.7-1.2,2.9c0,1.1,0.4,2.1,1.2,2.8c0.8,0.8,1.7,1.2,2.8,1.2
			c1.1,0,2.1-0.4,2.8-1.2c0.8-0.8,1.2-1.7,1.2-2.8c0-1.1-0.4-2.1-1.2-2.8C317.7,39.4,316.7,39,315.6,39z"/>
		<path class="st2" d="M351.4,55.6c-1.3-1.4-2.6-2.4-4.2-3.2c-2.1-1.1-4.5-1.7-7.1-1.7c-4.5,0-8.4,1.6-11.7,4.9
			c-3.2,3.2-4.8,7.2-4.8,11.8c0,4.7,1.6,8.7,4.8,11.9c3.2,3.3,7.1,4.9,11.6,4.9c2.5,0,4.9-0.5,7-1.6c1.6-0.8,3-1.8,4.4-3.1v4h5.5
			v-32h-5.5V55.6z M348.4,59.4c2.2,2.2,3.2,4.9,3.2,8.2c0,2.2-0.5,4.1-1.4,5.8c-1,1.7-2.3,3.1-4.1,4.1c-3.5,2-7.8,2-11.2,0
			c-1.7-1-3.1-2.4-4.1-4.2c-1-1.8-1.5-3.7-1.5-5.7c0-2,0.5-3.9,1.5-5.7c1-1.8,2.4-3.2,4.1-4.2c1.7-1,3.6-1.5,5.6-1.5
			C343.6,56.1,346.2,57.2,348.4,59.4z"/>
		<path class="st2" d="M373.2,64.7c-2.3-1.2-3.8-2.2-4.5-3c-0.6-0.7-0.9-1.5-0.9-2.3c0-0.9,0.4-1.7,1.1-2.3c0.8-0.7,1.7-1,2.7-1
			c1.8,0,3.7,0.9,5.6,2.8l0.6,0.6l3.6-3.7l-0.6-0.6c-3-2.8-6-4.3-9-4.3c-2.6,0-4.8,0.8-6.6,2.5c-1.7,1.7-2.6,3.8-2.6,6.3
			c0,1.9,0.6,3.7,1.6,5.2c1.1,1.5,3,2.9,5.9,4.4c3,1.5,4.2,2.5,4.7,3c0.6,0.7,0.9,1.6,0.9,2.5c0,1.1-0.5,2.1-1.4,3
			c-1,0.9-2.1,1.3-3.5,1.3c-2,0-3.9-1-5.8-3.1l-0.6-0.7l-3.5,4l0.4,0.5c1.1,1.4,2.5,2.6,4.2,3.4c1.7,0.8,3.5,1.2,5.4,1.2
			c2.8,0,5.2-1,7.2-2.8c1.9-1.9,2.9-4.2,2.9-6.9c0-1.9-0.6-3.7-1.7-5.3C378.3,67.8,376.2,66.2,373.2,64.7z"/>
	</g>
	<g>
		<path class="st2" d="M560.1,351c-5.3,0-9.7-4.4-9.7-9.7c0-5.3,4.4-9.7,9.7-9.7s9.7,4.4,9.7,9.7C569.8,346.6,565.5,351,560.1,351z
			 M560.1,333.4c-4.3,0-7.8,3.5-7.8,7.8c0,4.3,3.5,7.8,7.8,7.8s7.8-3.5,7.8-7.8C568,337,564.4,333.4,560.1,333.4z"/>
		<path class="st1" d="M555.9,346.8v-11h4.9c1,0,1.7,0.1,2.2,0.3c0.5,0.2,0.9,0.5,1.2,1c0.3,0.5,0.5,1,0.5,1.7c0,0.8-0.3,1.4-0.8,2
			c-0.5,0.5-1.3,0.9-2.3,1c0.4,0.2,0.7,0.4,0.9,0.5c0.4,0.4,0.8,0.9,1.2,1.5l1.9,3h-1.8l-1.4-2.3c-0.4-0.7-0.8-1.2-1-1.5
			c-0.3-0.3-0.5-0.6-0.7-0.7c-0.2-0.1-0.4-0.2-0.7-0.3c-0.2,0-0.4-0.1-0.8-0.1h-1.7v4.9H555.9L555.9,346.8z M557.3,340.6h3.1
			c0.7,0,1.2-0.1,1.6-0.2c0.4-0.1,0.7-0.4,0.8-0.7c0.2-0.3,0.3-0.6,0.3-1c0-0.5-0.2-0.9-0.6-1.3c-0.4-0.3-1-0.5-1.8-0.5h-3.5V340.6z
			"/>
	</g>
</g>
</svg>
