<?xml version="1.0" encoding="utf-8"?>
<!-- Generator: Adobe Illustrator 22.0.1, SVG Export Plug-In . SVG Version: 6.00 Build 0)  -->
<svg version="1.1" id="Layer_1" xmlns="http://www.w3.org/2000/svg" xmlns:xlink="http://www.w3.org/1999/xlink" x="0px" y="0px"
	 viewBox="0 0 414.1 600" style="enable-background:new 0 0 414.1 600;" xml:space="preserve">
<style type="text/css">
	.st0{opacity:0.26;fill-rule:evenodd;clip-rule:evenodd;fill:#0FCCCC;}
	.st1{filter:url(#Adobe_OpacityMaskFilter);}
	.st2{fill:url(#SVGID_2_);}
	.st3{mask:url(#SVGID_1_);}
	.st4{clip-path:url(#SVGID_4_);fill:url(#SVGID_5_);}
	.st5{clip-path:url(#SVGID_7_);}
	.st6{opacity:0.3;}
	.st7{fill:#FFFFFF;stroke:#80C8D2;stroke-miterlimit:10;}
	.st8{opacity:0.61;}
	.st9{fill:#BEF1F2;}
	.st10{fill:url(#SVGID_8_);}
	.st11{fill:url(#SVGID_9_);}
	.st12{opacity:0.56;}
	.st13{fill:#E9EFF2;}
	.st14{fill:#FFFFFF;}
	.st15{opacity:0.34;fill:#E9EFF2;}
</style>
<path class="st0" d="M60.4,162.2c-16.1,27.1-38,64.2-46,86.2c-8.7,24.1-12.2,65.1,0.7,98.1c21.7,56.1,66.8,91.8,123.5,98
	c27,2.9,54.5-1.4,79.3-12.4c25.7-11.5,47.5-29.7,62.8-52.9c22.1-33.3,28.7-66.5,21.9-110.9c-3.5-27.6-19.5-57.6-42.7-80.4
	c-13.5-13.3-32.2-21.5-47.3-28c-6.5-2.8-12.1-5.3-16.7-7.8c-3.2-1.8-6.7-5.2-5.2-11.3l0.2-1.1L243.6,52L152.2-1.2L64.9,154.6
	L60.4,162.2z M153.2,252.1l0.3,0c13-0.7,25.6,4.1,34.7,13.2c9,9,13.8,21.5,13.2,34.3c-1.2,24.1-18.8,42.5-42.8,44.7
	c-1.1,0.1-2.2,0.1-3.3,0.1c-10.5,0-21.6-4.4-30.1-12.2c-9.9-8.9-15.4-21-15.4-33.9C109.7,272.9,126.3,255.2,153.2,252.1z"/>
<g>
	<defs>
		<filter id="Adobe_OpacityMaskFilter" filterUnits="userSpaceOnUse" x="-34.3" y="96.4" width="391.1" height="341.2">
			<feColorMatrix  type="matrix" values="1 0 0 0 0  0 1 0 0 0  0 0 1 0 0  0 0 0 1 0"/>
		</filter>
	</defs>
	<mask maskUnits="userSpaceOnUse" x="-34.3" y="96.4" width="391.1" height="341.2" id="SVGID_1_">
		<g class="st1">
			<radialGradient id="SVGID_2_" cx="154.237" cy="287.8075" r="145.4894" gradientUnits="userSpaceOnUse">
				<stop  offset="0" style="stop-color:#FFFFFF"/>
				<stop  offset="1" style="stop-color:#1D1D1B"/>
			</radialGradient>
			<ellipse class="st2" cx="155" cy="288.2" rx="148.5" ry="149.4"/>
		</g>
	</mask>
	<g class="st3">
		<defs>
			<ellipse id="SVGID_3_" cx="155" cy="288.2" rx="148.5" ry="149.4"/>
		</defs>
		<clipPath id="SVGID_4_">
			<use xlink:href="#SVGID_3_"  style="overflow:visible;"/>
		</clipPath>
		
			<radialGradient id="SVGID_5_" cx="593.154" cy="318.4609" r="170.0899" gradientTransform="matrix(1.4999 0 0 1 -724.9969 0)" gradientUnits="userSpaceOnUse">
			<stop  offset="0" style="stop-color:#FFF5D2"/>
			<stop  offset="1" style="stop-color:#69E9DB"/>
		</radialGradient>
		<polygon class="st4" points="176.7,329.4 356.7,345.6 356.7,313.4 183.5,320 356.8,308 356.8,285 179.2,314.8 356.7,234 
			356.8,225.9 174.6,312.9 356.7,198.9 356.7,153.7 168.2,311.5 311.6,96.4 195.5,96.4 162.1,311.7 84.7,96.4 59.8,96.4 
			154.5,311.9 -34.3,101.2 -34.3,188.4 149.6,315.2 -34.3,208.9 -34.3,224.5 150.7,319.9 -34.3,239.3 -34.3,271.1 148.8,324 
			-34.3,312.4 -34.3,342.8 162.4,328.9 		"/>
	</g>
</g>
<g>
	<defs>
		<rect id="SVGID_6_" x="42.7" y="-187.8" width="212" height="564"/>
	</defs>
	<clipPath id="SVGID_7_">
		<use xlink:href="#SVGID_6_"  style="overflow:visible;"/>
	</clipPath>
	<g class="st5">
		<g id="XMLID_326_" class="st6">
			<line id="XMLID_353_" class="st7" x1="-553.5" y1="-80.9" x2="65.1" y2="260.4"/>
			<line id="XMLID_351_" class="st7" x1="-541.7" y1="-102.3" x2="76.9" y2="239.1"/>
			<line id="XMLID_349_" class="st7" x1="-529.9" y1="-123.7" x2="88.7" y2="217.7"/>
			<line id="XMLID_347_" class="st7" x1="-518.1" y1="-145" x2="100.5" y2="196.3"/>
			<line id="XMLID_345_" class="st7" x1="-506.3" y1="-166.4" x2="112.3" y2="175"/>
			<line id="XMLID_343_" class="st7" x1="-494.5" y1="-187.8" x2="124" y2="153.6"/>
			<line id="XMLID_341_" class="st7" x1="-482.7" y1="-209.2" x2="135.8" y2="132.2"/>
			<line id="XMLID_339_" class="st7" x1="-470.9" y1="-230.5" x2="147.6" y2="110.8"/>
			<line id="XMLID_337_" class="st7" x1="-459.1" y1="-251.9" x2="159.4" y2="89.5"/>
			<line id="XMLID_334_" class="st7" x1="-447.3" y1="-273.3" x2="171.2" y2="68.1"/>
			<line id="XMLID_332_" class="st7" x1="-435.5" y1="-294.6" x2="183" y2="46.7"/>
			<line id="XMLID_330_" class="st7" x1="-423.7" y1="-316" x2="194.8" y2="25.4"/>
			<line id="XMLID_328_" class="st7" x1="-412" y1="-337.4" x2="206.6" y2="4"/>
		</g>
		<g id="XMLID_189_" class="st6">
			<line id="XMLID_324_" class="st7" x1="-51.2" y1="-160.1" x2="-396.7" y2="466"/>
			<line id="XMLID_322_" class="st7" x1="-29.8" y1="-148.3" x2="-375.3" y2="477.8"/>
			<line id="XMLID_320_" class="st7" x1="-8.4" y1="-136.5" x2="-353.9" y2="489.6"/>
			<line id="XMLID_317_" class="st7" x1="12.9" y1="-124.7" x2="-332.6" y2="501.4"/>
			<line id="XMLID_315_" class="st7" x1="34.3" y1="-112.9" x2="-311.2" y2="513.2"/>
			<line id="XMLID_313_" class="st7" x1="55.7" y1="-101.1" x2="-289.8" y2="525"/>
			<line id="XMLID_311_" class="st7" x1="77" y1="-89.3" x2="-268.5" y2="536.8"/>
			<line id="XMLID_309_" class="st7" x1="98.4" y1="-77.5" x2="-247.1" y2="548.5"/>
			<line id="XMLID_307_" class="st7" x1="119.8" y1="-65.7" x2="-225.7" y2="560.3"/>
			<line id="XMLID_305_" class="st7" x1="141.2" y1="-53.9" x2="-204.3" y2="572.1"/>
			<line id="XMLID_303_" class="st7" x1="162.5" y1="-42.1" x2="-183" y2="583.9"/>
			<line id="XMLID_301_" class="st7" x1="183.9" y1="-30.3" x2="-161.6" y2="595.7"/>
			<line id="XMLID_299_" class="st7" x1="205.3" y1="-18.5" x2="-140.2" y2="607.5"/>
		</g>
	</g>
</g>
<g class="st8">
	<path class="st9" d="M338.1,402.1l-81.4,0.9c-2.8-6.8-4-44.7-2.2-47.8c19.9-2.5,133.6-1.9,134.2-1.6c1.2,0.3,5,41.3,5,41.3
		s-72.7,179.9-73,179.9c-0.6,0-46-3.4-55.9-11.8L338.1,402.1z"/>
</g>
<linearGradient id="SVGID_8_" gradientUnits="userSpaceOnUse" x1="95.8228" y1="201.483" x2="124.403" y2="201.483">
	<stop  offset="2.434593e-03" style="stop-color:#61E0E3"/>
	<stop  offset="1" style="stop-color:#ABFFFF"/>
</linearGradient>
<circle class="st10" cx="110.1" cy="201.5" r="14.3"/>
<linearGradient id="SVGID_9_" gradientUnits="userSpaceOnUse" x1="87.7777" y1="327.7161" x2="97.3417" y2="327.7161">
	<stop  offset="2.434593e-03" style="stop-color:#61E0E3"/>
	<stop  offset="1" style="stop-color:#ABFFFF"/>
</linearGradient>
<circle class="st11" cx="92.6" cy="327.7" r="4.8"/>
<g class="st12">
	<g>
		<path class="st13" d="M279.5,225c-0.2-0.1-0.3-0.2-0.4-0.3c-0.2-0.3,0-0.7,0.3-0.9l49.5-23.2c0.3-0.2,0.7,0,0.9,0.3
			c0.2,0.3,0,0.7-0.3,0.9L280.1,225C279.9,225,279.7,225.1,279.5,225z"/>
	</g>
	<g>
		<path class="st14" d="M321.4,233.4L321.4,233.4c0.9-0.7,1.7-1.5,2.4-2.4l0,0C323,231.9,322.2,232.6,321.4,233.4z"/>
		<path class="st14" d="M323.1,205l4.3,1.6c-2.5-5.7-7.2-10.5-13.5-12.8c-10.4-3.8-21.7,0.3-27.5,9.2l13.6,4.9
			c0.8,0.3,1.2,1.2,0.9,1.9c-0.3,0.8-1.2,1.2-1.9,0.9l-6-2.2c-0.4-0.1-0.8-0.1-1.2,0.1c-0.4,0.2-0.6,0.5-0.8,0.9
			c-0.3,0.8,0.1,1.7,0.9,1.9l1.7,0.6c0.4,0.1,0.7,0.4,0.9,0.8c0.2,0.4,0.2,0.8,0.1,1.2c-0.3,0.8-1.2,1.2-1.9,0.9l-9.7-3.5
			c-2.1,11.1,4,22.4,15,26.4c0.3,0.1,0.7,0.2,1,0.3c-0.8-0.3-1.2-1.1-0.9-1.9c0.3-0.8,1.2-1.2,1.9-0.9l3.9,1.4
			c0.8,0.3,1.7-0.1,1.9-0.9c0.3-0.8-0.1-1.7-0.9-1.9l-1.4-0.5c-0.8-0.3-1.2-1.2-0.9-1.9c0.3-0.8,1.2-1.2,1.9-0.9l1.1,0.4
			c0.8,0.3,1.7-0.1,1.9-0.9c0.3-0.8-0.1-1.7-0.9-1.9l-5.1-1.9c-0.8-0.3-1.2-1.2-0.9-1.9c0.3-0.8,1.2-1.2,1.9-0.9l11.7,4.2
			c0.8,0.3,1.2,1.2,0.9,1.9c-0.3,0.8-1.2,1.2-1.9,0.9l-0.8-0.3c-0.8-0.3-1.7,0.1-1.9,0.9c-0.3,0.8,0.1,1.7,0.9,1.9l7,2.5
			c1-0.6,2-1.4,2.9-2.2l-1.7-0.6c-0.8-0.3-1.2-1.2-0.9-1.9c0.3-0.8,1.2-1.2,1.9-0.9l3,1.1c0.7-0.8,1.3-1.6,1.9-2.5l-14.3-5.2
			c-0.8-0.3-1.2-1.2-0.9-1.9c0.3-0.8,1.2-1.2,1.9-0.9l1.8,0.6c0.8,0.3,1.7-0.1,1.9-0.9c0.3-0.8-0.1-1.7-0.9-1.9l-6.1-2.2
			c-0.8-0.3-1.2-1.2-0.9-1.9c0.3-0.8,1.2-1.2,1.9-0.9l8.9,3.2c0.8,0.3,1.7-0.1,1.9-0.9c0.3-0.8-0.1-1.7-0.9-1.9l-3.1-1.1
			c-0.8-0.3-1.2-1.2-0.9-1.9c0.3-0.8,1.2-1.2,1.9-0.9l7.5,2.7c0.8,0.3,1.7-0.1,1.9-0.9c0.3-0.8-0.1-1.7-0.9-1.9l-4.4-1.6
			c-0.8-0.3-1.2-1.2-0.9-1.9C321.5,205.2,322.3,204.8,323.1,205z M295.1,228.7c-0.3,0.8-1.2,1.2-1.9,0.9l-4.1-1.5
			c-0.8-0.3-1.2-1.2-0.9-1.9c0.3-0.8,1.2-1.2,1.9-0.9l4.1,1.5C295,227,295.4,227.9,295.1,228.7z M308.3,205.3
			c-0.3,0.8-1.2,1.2-1.9,0.9l-1.7-0.6c-0.8-0.3-1.2-1.2-0.9-1.9c0.3-0.8,1.2-1.2,1.9-0.9l1.7,0.6
			C308.1,203.7,308.6,204.5,308.3,205.3z"/>
		<path class="st14" d="M327.4,206.6L327.4,206.6c0,0.1,0.1,0.1,0.1,0.2C327.5,206.8,327.5,206.7,327.4,206.6z"/>
		<path class="st14" d="M325.8,228.3c0,0.1-0.1,0.1-0.1,0.2l0,0C325.7,228.4,325.7,228.3,325.8,228.3z"/>
		<path class="st14" d="M327.9,223.8c0,0,0,0.1-0.1,0.1C327.9,223.9,327.9,223.8,327.9,223.8c0.1-0.4,0.3-0.7,0.4-1.1
			C328.2,223.1,328.1,223.4,327.9,223.8z"/>
		<path class="st14" d="M283,211.4L283,211.4C283,211.4,283,211.4,283,211.4C283,211.4,283,211.4,283,211.4z"/>
		<path class="st14" d="M284,207.9C284,207.9,284,207.9,284,207.9C284,207.9,284,207.9,284,207.9C284,207.9,284,207.9,284,207.9
			C284,207.9,284,207.9,284,207.9z"/>
		<path class="st14" d="M286.3,203.2c0-0.1,0.1-0.2,0.1-0.2l0,0C286.3,203.1,286.3,203.2,286.3,203.2z"/>
		<path class="st14" d="M318.5,235.6L318.5,235.6c-0.5,0.3-0.9,0.5-1.4,0.8C317.6,236.1,318.1,235.8,318.5,235.6z"/>
		<path class="st14" d="M313.4,238c-1.1,0.4-2.3,0.7-3.5,0.9C311.2,238.7,312.3,238.4,313.4,238z"/>
		<path class="st14" d="M317,236.4c-1.1,0.6-2.2,1.1-3.3,1.5C314.8,237.5,315.9,237,317,236.4z"/>
		<path class="st14" d="M299.3,238.3c0.1,0,0.3,0.1,0.4,0.1c-0.2-0.1-0.5-0.2-0.7-0.2c0,0,0,0,0,0L299.3,238.3z"/>
	</g>
	<path class="st14" d="M294.2,202.6l-5.9-2.1c2.5-2.8,5.6-5,9-6.4l3.8,1.4c0.4,0.1,0.7,0.4,0.9,0.8c0.2,0.4,0.2,0.8,0.1,1.2
		c-0.3,0.8-1.2,1.2-1.9,0.9l-4.1-1.5c-0.4-0.1-0.8-0.1-1.2,0.1c-0.4,0.2-0.6,0.5-0.8,0.9c-0.3,0.8,0.1,1.7,0.9,1.9l0.3,0.1
		c0.4,0.1,0.7,0.4,0.9,0.8s0.2,0.8,0.1,1.2C295.8,202.5,295,202.9,294.2,202.6z"/>
	<path class="st13" d="M333.1,225.7c3.7-10.3,1.2-22.1-6.5-30c-0.5-0.5-1.4-0.5-1.9,0c-0.5,0.5-0.5,1.4,0,1.9
		c7,7.1,9.3,17.8,5.9,27.2c-4.9,13.6-20,20.6-33.5,15.7c-9.5-3.4-16.1-11.8-17.1-21.9c-0.1-0.7-0.7-1.3-1.5-1.2
		c-0.7,0.1-1.3,0.7-1.2,1.5c1.1,10.7,7.8,19.6,17.6,23.7l-4.5,12.3l-7.4-2.7c-0.7-0.3-1.5,0.1-1.7,0.8c-0.3,0.7,0.1,1.5,0.8,1.7
		l17.3,6.3c0.7,0.3,1.5-0.1,1.7-0.8c0.3-0.7-0.1-1.5-0.8-1.7l-7.4-2.7l4.5-12.3C312,248,327.8,240.2,333.1,225.7z"/>
</g>
<path class="st15" d="M368.3,357.3c-4.1,0-5.9,1.8-7.5,4.2c-1.1-4.4-4.6-6.9-4.7-7.1c-0.8-0.6-2-0.4-2.6,0.4c-0.6,0.8-0.4,2,0.4,2.6
	c0,0,3.2,2.5,3.6,6.3c0.2,3-1.2,6.1-4.4,9.3c-0.1,0.1-0.2,0.2-0.2,0.3c-4.2-3.6-9.6-6.7-14.8-3c-4.6,3.4-5,11.8-3.8,17
	c2,8.5,10.5,12.3,18.5,13.5c8.7,1.2,16.5-6,18.4-14.1c0.9-3.7,0.7-8-2.8-10.3c-3.1-2.1-7.5-2.4-11.4-2.3c2.4-2.9,3.8-5.9,4.1-8.8
	c3.5,1.8,7.2,3.4,11,2.4c3.3-0.9,6.6-3.1,8.4-6C376.9,359.4,372.7,357.3,368.3,357.3z M361.4,377.7c4.2,0.7,6.4,6.2,3.8,9.6
	c-0.9,1.2-2.9,0-2-1.1c1.7-2.2,0.4-5.7-2.4-6.2C359.4,379.6,360,377.4,361.4,377.7z M358.1,393.5c1-0.9,2.1-1.8,3.1-2.7
	c1.1-1,2.8,0.6,1.6,1.6c-1,0.9-2.1,1.8-3.1,2.7C358.6,396.1,357,394.5,358.1,393.5z M372.6,363.9c-4.1-0.1-7.7-0.3-11.4,0.8
	c0-0.4,0-0.8,0-1.3c0-0.4-0.1-0.7-0.1-1c3.7-1,7.3-0.9,11.5-0.8C374,361.7,374,364,372.6,363.9z"/>
</svg>
