<?xml version="1.0" encoding="utf-8"?>
<!-- Generator: Adobe Illustrator 22.0.1, SVG Export Plug-In . SVG Version: 6.00 Build 0)  -->
<svg version="1.1" id="Layer_1" xmlns="http://www.w3.org/2000/svg" xmlns:xlink="http://www.w3.org/1999/xlink" x="0px" y="0px"
	 viewBox="0 0 616.1 913.7" style="enable-background:new 0 0 616.1 913.7;" xml:space="preserve">
<style type="text/css">
	.st0{opacity:0.26;clip-path:url(#SVGID_2_);fill-rule:evenodd;clip-rule:evenodd;fill:#0FCCCC;}
	.st1{clip-path:url(#SVGID_2_);}
	.st2{filter:url(#Adobe_OpacityMaskFilter);}
	.st3{fill:url(#SVGID_4_);}
	.st4{mask:url(#SVGID_3_);}
	.st5{clip-path:url(#SVGID_6_);fill:url(#SVGID_7_);}
	.st6{clip-path:url(#SVGID_9_);}
	.st7{opacity:0.3;}
	.st8{fill:#FFFFFF;stroke:#80C8D2;stroke-miterlimit:10;}
	.st9{clip-path:url(#SVGID_2_);fill:url(#SVGID_10_);}
	.st10{clip-path:url(#SVGID_2_);fill:url(#SVGID_11_);}
	.st11{opacity:0.56;clip-path:url(#SVGID_2_);}
	.st12{fill:#E9EFF2;}
	.st13{fill:#FFFFFF;}
	.st14{opacity:0.34;clip-path:url(#SVGID_2_);fill:#E9EFF2;}
</style>
<g>
	<defs>
		<rect id="SVGID_1_" x="26.6" y="6" width="602" height="913.7"/>
	</defs>
	<clipPath id="SVGID_2_">
		<use xlink:href="#SVGID_1_"  style="overflow:visible;"/>
	</clipPath>
	<path class="st0" d="M106.1,480.2c-23.7,40-56.2,94.9-68,127.4c-12.9,35.6-18.1,96.2,1.1,145c32.1,82.9,98.6,135.6,182.4,144.7
		c39.9,4.3,80.5-2,117.2-18.4c38-16.9,70.1-43.9,92.8-78.1c32.7-49.2,42.3-98.2,32.3-163.8c-5.2-40.8-28.7-85.1-63-118.8
		c-20-19.6-47.6-31.7-69.8-41.4c-9.6-4.2-17.9-7.8-24.7-11.6c-4.7-2.6-9.9-7.7-7.7-16.7l0.4-1.6l77.8-129.6l-135-78.6l-129,230.1
		L106.1,480.2z M243.3,613l0.5,0c19.2-1,37.9,6.1,51.3,19.5c13.3,13.3,20.4,31.8,19.5,50.7c-1.8,35.6-27.8,62.8-63.2,66
		c-1.6,0.1-3.2,0.2-4.9,0.2c-15.5,0-31.8-6.5-44.5-18c-14.6-13.2-22.7-31-22.8-50C178.9,643.7,203.5,617.5,243.3,613z"/>
	<g class="st1">
		<defs>
			<filter id="Adobe_OpacityMaskFilter" filterUnits="userSpaceOnUse" x="-33.7" y="383" width="577.6" height="504">
				<feColorMatrix  type="matrix" values="1 0 0 0 0  0 1 0 0 0  0 0 1 0 0  0 0 0 1 0"/>
			</filter>
		</defs>
		<mask maskUnits="userSpaceOnUse" x="-33.7" y="383" width="577.6" height="504" id="SVGID_3_">
			<g class="st2">
				<radialGradient id="SVGID_4_" cx="244.7468" cy="665.6899" r="214.8806" gradientUnits="userSpaceOnUse">
					<stop  offset="0" style="stop-color:#FFFFFF"/>
					<stop  offset="1" style="stop-color:#1D1D1B"/>
				</radialGradient>
				<ellipse class="st3" cx="245.9" cy="666.3" rx="219.3" ry="220.7"/>
			</g>
		</mask>
		<g class="st4">
			<defs>
				<ellipse id="SVGID_5_" cx="245.9" cy="666.3" rx="219.3" ry="220.7"/>
			</defs>
			<clipPath id="SVGID_6_">
				<use xlink:href="#SVGID_5_"  style="overflow:visible;"/>
			</clipPath>
			
				<radialGradient id="SVGID_7_" cx="656.817" cy="710.9634" r="251.2143" gradientTransform="matrix(1.4999 0 0 1 -724.9969 0)" gradientUnits="userSpaceOnUse">
				<stop  offset="0" style="stop-color:#FFF5D2"/>
				<stop  offset="1" style="stop-color:#69E9DB"/>
			</radialGradient>
			<polygon class="st5" points="277.9,727.1 543.8,751 543.8,703.5 287.9,713.3 543.9,695.6 543.9,661.5 281.6,705.6 543.8,586.3 
				543.9,574.2 274.8,702.7 543.8,534.4 543.8,467.6 265.4,700.6 477.1,383 305.7,383 256.4,701 142.1,383 105.3,383 245.1,701.2 
				-33.7,390.1 -33.7,518.9 237.8,706.1 -33.7,549.2 -33.7,572.2 239.6,713 -33.7,594 -33.7,641 236.8,719.2 -33.7,702 -33.7,746.9 
				256.8,726.4 			"/>
		</g>
	</g>
	<g class="st1">
		<defs>
			<rect id="SVGID_8_" x="80" y="-36.7" width="313.1" height="833"/>
		</defs>
		<clipPath id="SVGID_9_">
			<use xlink:href="#SVGID_8_"  style="overflow:visible;"/>
		</clipPath>
		<g class="st6">
			<g id="XMLID_326_" class="st7">
				<line id="XMLID_353_" class="st8" x1="-800.5" y1="121.1" x2="113.1" y2="625.3"/>
				<line id="XMLID_351_" class="st8" x1="-783.1" y1="89.5" x2="130.5" y2="593.7"/>
				<line id="XMLID_349_" class="st8" x1="-765.7" y1="58" x2="147.9" y2="562.1"/>
				<line id="XMLID_347_" class="st8" x1="-748.3" y1="26.4" x2="165.3" y2="530.6"/>
				<line id="XMLID_345_" class="st8" x1="-730.8" y1="-5.2" x2="182.7" y2="499"/>
				<line id="XMLID_343_" class="st8" x1="-713.4" y1="-36.7" x2="200.2" y2="467.4"/>
				<line id="XMLID_341_" class="st8" x1="-696" y1="-68.3" x2="217.6" y2="435.9"/>
				<line id="XMLID_339_" class="st8" x1="-678.6" y1="-99.9" x2="235" y2="404.3"/>
				<line id="XMLID_337_" class="st8" x1="-661.2" y1="-131.4" x2="252.4" y2="372.8"/>
				<line id="XMLID_334_" class="st8" x1="-643.7" y1="-163" x2="269.8" y2="341.2"/>
				<line id="XMLID_332_" class="st8" x1="-626.3" y1="-194.6" x2="287.3" y2="309.6"/>
				<line id="XMLID_330_" class="st8" x1="-608.9" y1="-226.1" x2="304.7" y2="278.1"/>
				<line id="XMLID_328_" class="st8" x1="-591.5" y1="-257.7" x2="322.1" y2="246.5"/>
			</g>
			<g id="XMLID_189_" class="st7">
				<line id="XMLID_324_" class="st8" x1="-58.7" y1="4.2" x2="-568.9" y2="928.8"/>
				<line id="XMLID_322_" class="st8" x1="-27.1" y1="21.6" x2="-537.4" y2="946.3"/>
				<line id="XMLID_320_" class="st8" x1="4.5" y1="39.1" x2="-505.8" y2="963.7"/>
				<line id="XMLID_317_" class="st8" x1="36" y1="56.5" x2="-474.2" y2="981.1"/>
				<line id="XMLID_315_" class="st8" x1="67.6" y1="73.9" x2="-442.7" y2="998.5"/>
				<line id="XMLID_313_" class="st8" x1="99.2" y1="91.3" x2="-411.1" y2="1015.9"/>
				<line id="XMLID_311_" class="st8" x1="130.7" y1="108.7" x2="-379.5" y2="1033.4"/>
				<line id="XMLID_309_" class="st8" x1="162.3" y1="126.2" x2="-348" y2="1050.8"/>
				<line id="XMLID_307_" class="st8" x1="193.9" y1="143.6" x2="-316.4" y2="1068.2"/>
				<line id="XMLID_305_" class="st8" x1="225.4" y1="161" x2="-284.9" y2="1085.6"/>
				<line id="XMLID_303_" class="st8" x1="257" y1="178.4" x2="-253.3" y2="1103"/>
				<line id="XMLID_301_" class="st8" x1="288.6" y1="195.8" x2="-221.7" y2="1120.5"/>
				<line id="XMLID_299_" class="st8" x1="320.1" y1="213.3" x2="-190.2" y2="1137.9"/>
			</g>
		</g>
	</g>
	<linearGradient id="SVGID_10_" gradientUnits="userSpaceOnUse" x1="158.4721" y1="538.1928" x2="200.6836" y2="538.1928">
		<stop  offset="2.434593e-03" style="stop-color:#61E0E3"/>
		<stop  offset="1" style="stop-color:#ABFFFF"/>
	</linearGradient>
	<circle class="st9" cx="179.6" cy="538.2" r="21.1"/>
	<linearGradient id="SVGID_11_" gradientUnits="userSpaceOnUse" x1="146.5899" y1="724.6329" x2="160.7154" y2="724.6329">
		<stop  offset="2.434593e-03" style="stop-color:#61E0E3"/>
		<stop  offset="1" style="stop-color:#ABFFFF"/>
	</linearGradient>
	<circle class="st10" cx="153.7" cy="724.6" r="7.1"/>
	<g class="st11">
		<g>
			<path class="st12" d="M429.8,572.9c-0.2-0.1-0.4-0.3-0.6-0.5c-0.2-0.5,0-1.1,0.5-1.3l73.1-34.2c0.5-0.2,1.1,0,1.3,0.5
				c0.2,0.5,0,1.1-0.5,1.3l-73.1,34.2C430.3,573,430.1,573,429.8,572.9z"/>
		</g>
		<g>
			<path class="st13" d="M491.6,585.3L491.6,585.3c1.3-1.1,2.5-2.2,3.5-3.5l-0.1,0C494,583.1,492.8,584.2,491.6,585.3z"/>
			<path class="st13" d="M494.2,543.5l6.4,2.3c-3.6-8.5-10.6-15.5-20-18.8c-15.4-5.6-32.1,0.4-40.6,13.5l20.1,7.3
				c1.2,0.4,1.8,1.7,1.3,2.9c-0.4,1.2-1.7,1.8-2.9,1.3l-8.8-3.2c-0.6-0.2-1.2-0.2-1.7,0.1c-0.5,0.2-0.9,0.7-1.2,1.3
				c-0.4,1.2,0.2,2.4,1.3,2.9l2.5,0.9c0.6,0.2,1,0.6,1.3,1.2c0.2,0.5,0.3,1.1,0.1,1.7c-0.4,1.2-1.7,1.8-2.9,1.3l-14.3-5.2
				c-3.2,16.4,6,33.1,22.2,39c0.5,0.2,1,0.3,1.5,0.5c-1.1-0.4-1.7-1.7-1.3-2.8c0.4-1.2,1.7-1.8,2.9-1.3l5.7,2.1
				c1.2,0.4,2.4-0.2,2.9-1.3c0.4-1.2-0.2-2.4-1.3-2.9l-2-0.7c-1.2-0.4-1.8-1.7-1.3-2.9c0.4-1.2,1.7-1.8,2.9-1.3l1.6,0.6
				c1.2,0.4,2.4-0.2,2.9-1.3c0.4-1.2-0.2-2.4-1.3-2.9l-7.5-2.7c-1.2-0.4-1.8-1.7-1.3-2.9c0.4-1.2,1.7-1.8,2.9-1.3l17.3,6.3
				c1.2,0.4,1.8,1.7,1.3,2.9c-0.4,1.2-1.7,1.8-2.9,1.3l-1.2-0.4c-1.2-0.4-2.4,0.2-2.9,1.3c-0.4,1.2,0.2,2.4,1.3,2.9l10.3,3.7
				c1.5-0.9,2.9-2.1,4.2-3.2l-2.5-0.9c-1.2-0.4-1.8-1.7-1.3-2.9c0.4-1.2,1.7-1.8,2.9-1.3l4.4,1.6c1-1.2,2-2.4,2.8-3.7l-21.1-7.6
				c-1.2-0.4-1.8-1.7-1.3-2.9c0.4-1.2,1.7-1.8,2.9-1.3l2.6,1c1.2,0.4,2.4-0.2,2.9-1.3c0.4-1.2-0.2-2.4-1.3-2.9l-8.9-3.2
				c-1.2-0.4-1.8-1.7-1.3-2.9c0.4-1.2,1.7-1.8,2.9-1.3l13.1,4.8c1.2,0.4,2.4-0.2,2.9-1.3c0.4-1.2-0.2-2.4-1.3-2.9l-4.6-1.7
				c-1.2-0.4-1.8-1.7-1.3-2.9c0.4-1.2,1.7-1.8,2.9-1.3l11,4c1.2,0.4,2.4-0.2,2.9-1.3c0.4-1.2-0.2-2.4-1.3-2.9l-6.5-2.3
				c-1.2-0.4-1.8-1.7-1.3-2.9C491.7,543.6,493,543,494.2,543.5z M452.8,578.4c-0.4,1.2-1.7,1.8-2.9,1.3l-6-2.2
				c-1.2-0.4-1.8-1.7-1.3-2.9s1.7-1.8,2.9-1.3l6,2.2C452.6,575.9,453.2,577.2,452.8,578.4z M472.2,543.9c-0.4,1.2-1.7,1.8-2.9,1.3
				l-2.5-0.9c-1.2-0.4-1.8-1.7-1.3-2.9c0.4-1.2,1.7-1.8,2.9-1.3l2.5,0.9C472.1,541.4,472.7,542.7,472.2,543.9z"/>
			<path class="st13" d="M500.6,545.8L500.6,545.8c0,0.1,0.1,0.2,0.1,0.3C500.7,546,500.6,545.9,500.6,545.8z"/>
			<path class="st13" d="M498.1,577.8c-0.1,0.1-0.1,0.2-0.2,0.3l0,0C498,578,498,577.9,498.1,577.8z"/>
			<path class="st13" d="M501.3,571.2c0,0.1-0.1,0.1-0.1,0.2C501.3,571.3,501.3,571.2,501.3,571.2c0.2-0.6,0.4-1.1,0.6-1.7
				C501.7,570.1,501.5,570.6,501.3,571.2z"/>
			<path class="st13" d="M434.9,552.9L434.9,552.9C434.9,552.9,434.9,552.9,434.9,552.9C434.9,552.9,434.9,552.9,434.9,552.9z"/>
			<path class="st13" d="M436.4,547.6C436.4,547.6,436.3,547.6,436.4,547.6C436.3,547.6,436.3,547.6,436.4,547.6
				C436.3,547.6,436.3,547.6,436.4,547.6C436.3,547.6,436.4,547.6,436.4,547.6z"/>
			<path class="st13" d="M439.7,540.8c0.1-0.1,0.1-0.2,0.2-0.3l0,0C439.9,540.6,439.8,540.7,439.7,540.8z"/>
			<path class="st13" d="M487.4,588.5L487.4,588.5c-0.7,0.4-1.3,0.8-2,1.2C486.1,589.3,486.7,588.9,487.4,588.5z"/>
			<path class="st13" d="M479.9,592.1c-1.7,0.6-3.4,1-5.1,1.3C476.5,593.1,478.2,592.7,479.9,592.1z"/>
			<path class="st13" d="M485.2,589.8c-1.6,0.8-3.2,1.6-4.9,2.2C481.9,591.4,483.6,590.7,485.2,589.8z"/>
			<path class="st13" d="M459.1,592.5c0.2,0.1,0.4,0.1,0.6,0.2c-0.4-0.1-0.7-0.2-1.1-0.3c0,0,0,0,0,0L459.1,592.5z"/>
		</g>
		<path class="st13" d="M451.4,539.9l-8.7-3.1c3.7-4.2,8.3-7.4,13.3-9.4l5.6,2c0.6,0.2,1,0.6,1.3,1.2c0.2,0.5,0.3,1.1,0.1,1.7
			c-0.4,1.2-1.7,1.8-2.9,1.3l-6.1-2.2c-0.6-0.2-1.2-0.2-1.7,0.1c-0.5,0.2-0.9,0.7-1.2,1.3c-0.4,1.2,0.2,2.4,1.3,2.9l0.5,0.2
			c0.6,0.2,1,0.6,1.3,1.2c0.2,0.5,0.3,1.1,0.1,1.7C453.9,539.7,452.6,540.3,451.4,539.9z"/>
		<path class="st12" d="M508.9,573.9c5.5-15.3,1.8-32.7-9.5-44.3c-0.8-0.8-2-0.8-2.8,0c-0.8,0.8-0.8,2,0,2.8
			c10.3,10.5,13.7,26.3,8.7,40.2c-7.3,20.1-29.5,30.5-49.5,23.2c-14.1-5.1-23.8-17.5-25.3-32.4c-0.1-1.1-1.1-1.9-2.2-1.8
			c-1.1,0.1-1.9,1.1-1.8,2.2c1.7,15.7,11.6,28.9,26.1,34.9l-6.6,18.2L435,613c-1-0.4-2.2,0.2-2.5,1.2c-0.4,1,0.2,2.2,1.2,2.5
			l25.5,9.2c1,0.4,2.2-0.2,2.5-1.2s-0.2-2.2-1.2-2.5l-10.9-3.9l6.6-18.2C477.8,606.9,501.2,595.4,508.9,573.9z"/>
	</g>
	<path class="st14" d="M560.9,768.3c-6-0.1-8.7,2.6-11.1,6.3c-1.7-6.5-6.7-10.3-7-10.4c-1.2-0.9-2.9-0.6-3.8,0.6
		c-0.9,1.2-0.6,2.9,0.6,3.8c0,0,4.8,3.6,5.3,9.3c0.4,4.4-1.8,9-6.4,13.8c-0.1,0.1-0.3,0.3-0.4,0.4c-6.2-5.4-14.2-9.9-21.8-4.4
		c-6.9,5-7.5,17.4-5.7,25.1c2.9,12.5,15.5,18.2,27.3,19.9c12.8,1.8,24.4-8.8,27.2-20.8c1.3-5.4,1-11.8-4.1-15.2
		c-4.6-3.1-11-3.6-16.8-3.4c3.6-4.3,5.6-8.6,6-13c5.1,2.6,10.6,5,16.3,3.5c4.8-1.3,9.7-4.6,12.3-8.9
		C573.6,771.4,567.4,768.4,560.9,768.3z M550.7,798.4c6.1,1.1,9.4,9.2,5.7,14.2c-1.3,1.7-4.3,0.1-3-1.7c2.5-3.3,0.6-8.5-3.6-9.2
		C547.7,801.3,548.6,798,550.7,798.4z M545.8,821.9c1.5-1.3,3.1-2.7,4.6-4c1.6-1.4,4.1,1,2.4,2.4c-1.5,1.3-3.1,2.7-4.6,4
		C546.6,825.7,544.2,823.3,545.8,821.9z M567.2,778.1c-6.1-0.2-11.4-0.4-16.8,1.2c0-0.6,0-1.2,0-1.9c0-0.5-0.1-1-0.2-1.5
		c5.5-1.4,10.9-1.4,17-1.2C569.3,774.8,569.4,778.2,567.2,778.1z"/>
</g>
</svg>
