<?xml version="1.0" encoding="utf-8"?>
<!-- Generator: Adobe Illustrator 22.0.1, SVG Export Plug-In . SVG Version: 6.00 Build 0)  -->
<svg version="1.1" id="Layer_1" xmlns="http://www.w3.org/2000/svg" xmlns:xlink="http://www.w3.org/1999/xlink" x="0px" y="0px"
	 viewBox="0 0 296.4 273.7" style="enable-background:new 0 0 296.4 273.7;" xml:space="preserve">
<style type="text/css">
	.st0{fill:#2E92BA;}
	.st1{fill:#187199;}
	.st2{fill:#FFFFFF;}
</style>
<path id="XMLID_184_" class="st0" d="M250.9,123.5c-8.7-65.1-68.5-110.9-133.7-102.2C52.1,29.9,6.3,89.8,15,154.9
	c8.7,65.1,68.5,110.9,133.6,102.2C213.8,248.4,259.5,188.6,250.9,123.5z"/>
<path id="XMLID_183_" class="st1" d="M58.7,155.9c-7.9-59,33.6-113.3,92.6-121.2c15.4-2.1,30.4-0.7,44.4,3.4
	c-22.6-14.1-50.1-20.7-78.5-16.9C52.1,29.9,6.3,89.8,15,154.9c8.7,65.1,68.5,110.9,133.6,102.2c10.9-1.5,21.3-4.5,30.9-8.6
	C120.6,256.3,66.5,214.8,58.7,155.9z"/>
<circle class="st0" cx="249.8" cy="75.4" r="29.6"/>
<circle class="st1" cx="249.8" cy="75.4" r="25.1"/>
<path class="st2" d="M234.6,72.9h12.8V60.1c0-1.4,1.1-2.5,2.5-2.5s2.5,1.1,2.5,2.5v12.8h12.8c1.4,0,2.5,1.1,2.5,2.5
	s-1.1,2.5-2.5,2.5h-12.8v12.8c0,1.4-1.1,2.5-2.5,2.5s-2.5-1.1-2.5-2.5V77.9h-12.8c-1.4,0-2.5-1.1-2.5-2.5S233.2,72.9,234.6,72.9z"/>
</svg>
