<?xml version="1.0" encoding="utf-8"?>
<!-- Generator: Adobe Illustrator 22.0.1, SVG Export Plug-In . SVG Version: 6.00 Build 0)  -->
<svg version="1.1" id="Layer_1" xmlns="http://www.w3.org/2000/svg" xmlns:xlink="http://www.w3.org/1999/xlink" x="0px" y="0px"
	 viewBox="0 0 1268.2 1283.9" style="enable-background:new 0 0 1268.2 1283.9;" xml:space="preserve">
<style type="text/css">
	.st0{clip-path:url(#SVGID_2_);fill:url(#SVGID_3_);}
	.st1{opacity:0.82;clip-path:url(#SVGID_5_);fill:#FFFFFF;enable-background:new    ;}
	.st2{opacity:0.5;clip-path:url(#SVGID_7_);fill:#FFFFFF;enable-background:new    ;}
	.st3{opacity:0.61;clip-path:url(#SVGID_9_);}
	.st4{fill:#BEF1F2;}
	.st5{clip-path:url(#SVGID_11_);}
	.st6{opacity:0.4;}
	.st7{fill:#FFFFFF;}
	.st8{clip-path:url(#SVGID_13_);fill:#87B2FF;}
	.st9{opacity:0.44;clip-path:url(#SVGID_15_);fill:#9DDDEF;enable-background:new    ;}
	.st10{opacity:0.44;clip-path:url(#SVGID_17_);fill:#9DDDEF;enable-background:new    ;}
	.st11{clip-path:url(#SVGID_19_);}
	.st12{fill:#E1F5FE;}
	.st13{opacity:0.27;fill:url(#SVGID_20_);enable-background:new    ;}
	.st14{fill:#B3E5FC;}
	.st15{clip-path:url(#SVGID_22_);}
	.st16{fill:#D9E4EB;}
</style>
<g>
	<g>
		<defs>
			<rect id="SVGID_1_" x="-3" y="0" width="1292.7" height="1274.2"/>
		</defs>
		<clipPath id="SVGID_2_">
			<use xlink:href="#SVGID_1_"  style="overflow:visible;"/>
		</clipPath>
		
			<linearGradient id="SVGID_3_" gradientUnits="userSpaceOnUse" x1="1233.6246" y1="-587.5919" x2="1233.6246" y2="6173.3545" gradientTransform="matrix(0.5689 0 0 -0.5689 -68.1662 901.7092)">
			<stop  offset="2.434593e-03" style="stop-color:#004474"/>
			<stop  offset="0.2893" style="stop-color:#599BBE"/>
			<stop  offset="0.4762" style="stop-color:#8FCFEB"/>
			<stop  offset="0.5076" style="stop-color:#99D2EC"/>
			<stop  offset="0.6631" style="stop-color:#C5E2EE"/>
			<stop  offset="0.8026" style="stop-color:#E5EDF0"/>
			<stop  offset="0.9196" style="stop-color:#F8F4F2"/>
			<stop  offset="1" style="stop-color:#FFF6F2"/>
		</linearGradient>
		<path class="st0" d="M1269-1974.5c0-351-284.5-635.7-635.3-635.7S-1.7-2325.6-1.7-1974.5c0,18.1,0.9,35.8,2.3,53.6h-2.3V574.2h0.6
			c-0.4,8.7-0.6,17.3-0.6,26c0,351,284.5,635.7,635.3,635.7S1269,951.3,1269,600.3c0-8.7-0.2-17.5-0.6-26h0.6V-1921h-2.3
			C1268.1-1938.5,1269-1956.4,1269-1974.5z"/>
	</g>
	<g>
		<defs>
			<rect id="SVGID_4_" x="-3" y="0" width="1292.7" height="1274.2"/>
		</defs>
		<clipPath id="SVGID_5_">
			<use xlink:href="#SVGID_4_"  style="overflow:visible;"/>
		</clipPath>
		<ellipse class="st1" cx="615.7" cy="655.1" rx="344" ry="344.2"/>
	</g>
	<g>
		<defs>
			<rect id="SVGID_6_" x="-3" y="0" width="1292.7" height="1274.2"/>
		</defs>
		<clipPath id="SVGID_7_">
			<use xlink:href="#SVGID_6_"  style="overflow:visible;"/>
		</clipPath>
		<ellipse class="st2" cx="894.7" cy="520.3" rx="212.2" ry="212.3"/>
	</g>
	<g>
		<defs>
			<rect id="SVGID_8_" x="-3" y="0" width="1292.7" height="1274.2"/>
		</defs>
		<clipPath id="SVGID_9_">
			<use xlink:href="#SVGID_8_"  style="overflow:visible;"/>
		</clipPath>
		<g class="st3">
			<path class="st4" d="M1035.9,213.6l-287.3,3.2c-9.8-24.1-14.3-157.9-7.7-169c70.2-8.7,471.6-6.6,473.7-5.5
				c4.5,1.1,17.5,146,17.5,146S975.5,823.5,974.4,823.5c-2.1,0-162.3-12.2-197.3-41.6L1035.9,213.6z"/>
		</g>
	</g>
	<g>
		<defs>
			<rect id="SVGID_10_" x="-3" y="0" width="1292.7" height="1274.2"/>
		</defs>
		<clipPath id="SVGID_11_">
			<use xlink:href="#SVGID_10_"  style="overflow:visible;"/>
		</clipPath>
		<g class="st5">
			<g class="st6">
				<path class="st7" d="M861.4,889.4c-45-21.6-91.7-72.1-91.7-139.6c0-125.7,99.4-183.7,222-183.7c129.2,0,226.7,60,226.7,185.7
					c0,64.7-37.5,114.4-80.6,135.1c49.7,23.5,104.9,80.7,104.9,164.1c0,127.4-107.7,195-239.9,195c-147.2,0-251-59.1-251-197.8
					C751.8,967.1,809.8,911.8,861.4,889.4z M997.3,1117.1c62.7,0,91.7-32.9,91.7-76.8c0-47.8-26.2-85.4-88.9-85.4
					c-65.5,0-90.9,37.6-90.9,79.6C909.2,1084.3,936.3,1117.1,997.3,1117.1z M1071.3,761.8c0-40.3-22.4-72.1-75.9-72.1
					c-57.2,0-81.5,31.8-81.5,68.5c0,38.4,24.3,66.6,78.7,66.6C1045.9,824.8,1071.3,802.2,1071.3,761.8z"/>
			</g>
		</g>
	</g>
	<g>
		<defs>
			<rect id="SVGID_12_" x="-3" y="0" width="1292.7" height="1274.2"/>
		</defs>
		<clipPath id="SVGID_13_">
			<use xlink:href="#SVGID_12_"  style="overflow:visible;"/>
		</clipPath>
		<path class="st8" d="M1002.8,1245.6c-143.3,0-245.7-56.1-250.8-187.4c-0.2,2.8-0.2,5.8-0.2,8.5c0,138.7,104.1,197.8,251,197.8
			c132,0,239.9-67.4,239.9-195c0-3.2,0-6.2-0.2-9.4C1237,1181.6,1131.6,1245.6,1002.8,1245.6z"/>
	</g>
	<g>
		<defs>
			<rect id="SVGID_14_" x="-3" y="0" width="1292.7" height="1274.2"/>
		</defs>
		<clipPath id="SVGID_15_">
			<use xlink:href="#SVGID_14_"  style="overflow:visible;"/>
		</clipPath>
		<ellipse class="st9" cx="545.5" cy="655.1" rx="184.9" ry="185"/>
	</g>
	<g>
		<defs>
			<rect id="SVGID_16_" x="-3" y="0" width="1292.7" height="1274.2"/>
		</defs>
		<clipPath id="SVGID_17_">
			<use xlink:href="#SVGID_16_"  style="overflow:visible;"/>
		</clipPath>
		<ellipse class="st10" cx="437.8" cy="618.6" rx="213.3" ry="213.4"/>
	</g>
	<g>
		<defs>
			<rect id="SVGID_18_" x="-3" y="0" width="1292.7" height="1274.2"/>
		</defs>
		<clipPath id="SVGID_19_">
			<use xlink:href="#SVGID_18_"  style="overflow:visible;"/>
		</clipPath>
		<g class="st11">
			<path class="st12" d="M1005.6,622.5c-26,26.9-69.5,27.3-97,0.6c-27.5-26.7-29-70.2-3-97.1c26-26.9,69.5-27.3,97-0.6
				C1030.3,551.8,1031.6,595.4,1005.6,622.5z"/>
			
				<rect x="933.4" y="500.9" transform="matrix(0.6944 -0.7196 0.7196 0.6944 -69.4741 884.0659)" class="st12" width="145.3" height="45.9"/>
			
				<linearGradient id="SVGID_20_" gradientUnits="userSpaceOnUse" x1="1698.2183" y1="571.1883" x2="1899.8215" y2="571.1883" gradientTransform="matrix(0.5689 0 0 -0.5689 -68.1662 901.7092)">
				<stop  offset="2.434593e-03" style="stop-color:#61E0E3"/>
				<stop  offset="1" style="stop-color:#ABFFFF"/>
			</linearGradient>
			<path class="st13" d="M935.4,519.8c-8.1,3-15.4,7.7-21.5,13.9c-22.2,23-21.1,60.2,2.6,83c23.7,22.8,60.8,22.6,83-0.4
				c6.2-6.4,10.7-13.9,13.2-22L935.4,519.8z"/>
			<path class="st12" d="M1081.9,481.4l-36.3-35c-1.5-1.5-3.8-1.5-5.3,0l-1.9,2.1c-1.5,1.5-1.3,3.8,0.2,5.3l36.3,35
				c1.5,1.5,3.8,1.5,5.3,0l1.9-2.1C1083.6,485.3,1083.4,482.9,1081.9,481.4z"/>
			
				<rect x="1052" y="450.4" transform="matrix(0.6944 -0.7196 0.7196 0.6944 -18.3213 903.5344)" class="st14" width="5.1" height="45.9"/>
		</g>
	</g>
	<g>
		<defs>
			<rect id="SVGID_21_" x="-3" y="0" width="1292.7" height="1274.2"/>
		</defs>
		<clipPath id="SVGID_22_">
			<use xlink:href="#SVGID_21_"  style="overflow:visible;"/>
		</clipPath>
		<g class="st15">
			<path class="st16" d="M150.6,375.8c11.3-10.7,27.1-12.6,35.6-3.4c7.5,7.9,7,17.9,3.8,26.9c8.5-3.2,16.6-3.4,24.1,4.3
				c9.6,10.2,4.7,31.6-6.2,41.8c-1.3,1.1-2.3,1.9-3.4,2.8l-13.4,10.7c-9.8-12-21.1-25.2-31.1-35.6c-9-9.6-17.3-17.5-25.8-25.6
				C138.6,389.7,144.6,381.5,150.6,375.8z M179.8,419.7c4.9,5.3,9.8,10.9,14.9,16.6c1.3-0.9,2.6-1.9,4.3-3.4
				c4.7-4.5,7-13.7,3.2-17.7C197.9,410.6,188.7,412.7,179.8,419.7z M155,394.1c5.3,5.3,10.9,10.9,16,16.2c4.5-4.9,9.6-19.2,4.1-25
				c-3.6-3.8-10.2-2.6-15.4,2.1C158,389.2,156.5,391.6,155,394.1z"/>
			<path class="st16" d="M248,382.8l-11.5,11.5l10.9,17.9l-12.2,9.4l-39.7-71.3l16-12.6l61,44.4l-12.4,9.8L248,382.8z M230.3,384.1
				l8.7-8.7l-26.7-20.9L230.3,384.1z"/>
			<path class="st16" d="M279.6,327.8c-6-6.4-15.1-15.6-19.6-11.3c-5.8,5.5,7.7,27.5,16,36.3c8.5,9,16.8,12.8,22.4,7.3
				c4.9-4.7,0.9-12.6-3-19.8l11.9-9.8c10,16,13.2,30.1,1.7,40.8c-13.2,12.6-30.7,7.5-44.1-6.6c-14.5-15.2-31.1-45-15.1-60.2
				c14.1-13.4,30.1,1.5,42,13.4L279.6,327.8z"/>
			<path class="st16" d="M330.4,236.7c2.3,13,5.3,36.3,7,58.3c14.9,5.5,31.1,10.5,45.4,11.3l-1.7,21.1c-17.5-2.1-36.3-8.5-55.2-17.1
				c8.7,11.7,18.3,24.1,27.9,35.2l-17.9,10.7c-10.7-12.8-20.3-25.2-30.1-38c-11.9-15.8-23.5-31.6-31.1-43.7l17.7-10.9
				c7,11.1,16.2,24.1,26.9,38.2c-2.3-23.3-6-46.9-8.7-59.5L330.4,236.7z"/>
			<path class="st16" d="M376.8,282.3c-4.3-4.9-8.7-10.5-12.8-16c-3-4.1-4.7-6.2-8.7-12.4c-3,3-5.3,5.3-5.3,5.3l-5.3-4.9
				c0,0,4.3-4.5,8.5-8.3c4.3-3.8,8.7-7.5,8.7-7.5l5.1,4.7c0,0-2.6,2.1-5.8,5.1c3.4,4.9,6,8.5,9.4,13c4.5,5.8,8.7,11.3,13,16.9
				L376.8,282.3z"/>
			<path class="st16" d="M375.8,227.1c5.8-4.3,14.7-3.4,23.7,8.5c9,11.7,8.7,23.7,3,28.2c-5.8,4.5-14.9,3.6-23.9-8.3
				C369.6,243.5,369.6,231.7,375.8,227.1z M398.2,258c2.6-1.9,1.1-9.2-5.1-17.5c-6-7.9-10.5-9.4-12.8-7.7c-2.8,2.1-1.3,9.2,4.9,17.5
				C390.9,258.2,395.6,259.7,398.2,258z"/>
			<path class="st16" d="M199.8,496.1c-2.1-3-4.3-5.3-6.4-7c-4.9-3.8-9.6-3.2-11.9-0.2c-3.2,4.1-0.6,9.8,3.4,13.2
				c4.5,3.6,10.7,3.6,17.1,1.5c14.5-5.1,23.9-8.3,33.7-0.6c11.9,9.4,10.7,24.3,3.8,32.9c-9.4,12-26.2,8.7-37.1,6l2.8-12.6
				c8.7,2.8,18.8,3.6,23-1.7c2.1-2.6,3.2-7.3-1.1-10.7c-4.7-3.8-11.7-2.1-18.1,0c-11.7,3.6-23.5,6.8-34.1-1.7
				c-11.7-9.4-12.4-24.8-4.7-34.6c9-11.3,25.4-10.5,33.7-3.6c2.3,1.9,6.6,6.2,8.5,10.9L199.8,496.1z"/>
			<path class="st16" d="M259.1,459.4c-5.1-6.8-13-16.9-17.9-13.2c-6.2,4.7,4.5,27.5,11.5,36.9c7.3,9.6,14.9,14.3,20.9,9.6
				c5.1-4.1,2.1-12.2-0.9-19.6l12.8-8.1c7.9,16.6,9.4,30.7-2.8,39.9c-14.3,10.7-30.7,3.8-42-11.3c-12.4-16.4-25.2-47.2-7.9-60.2
				c15.4-11.5,29,4.7,39.2,17.9L259.1,459.4z"/>
			<path class="st16" d="M298.6,382.2c7,10.5,14.9,21.6,22.8,32c10.5,13.9,20.9,26.7,28.8,35.8l-13,8.1
				c-5.3-5.8-12.8-14.9-20.9-25.4l-13.2,11.3c7.3,9,14.3,17.9,21.5,26.9l-13.9,8.5c-10.2-12.2-20.3-24.5-29.6-37.1
				c-7-9.4-14.1-19-20.5-28.6l13.4-8.3c3.8,6,7.9,11.7,12.4,17.5c2.6,3.4,5.8,7.3,8.3,10.9l13.6-11.5c-8.1-10.7-16-21.6-23.2-31.8
				L298.6,382.2z"/>
			<path class="st16" d="M324.4,365.1c9-8.5,24.5-8.7,42.2,10c17.5,18.6,19.6,39.1,10.7,47.6c-9.2,8.7-24.7,9-42.4-9.8
				C316.9,394.6,314.6,374.3,324.4,365.1z M368.5,413.8c3.8-3.6,0.2-15.8-12.2-28.8c-11.5-12.4-19.6-14.1-23.5-10.7
				c-4.3,4.1-0.4,16.2,11.7,29C356.4,415.7,364.7,417.4,368.5,413.8z"/>
			<path class="st16" d="M381.1,332.3c9.2-6,22.8-3.4,35.2,15.8c12.2,19.2,10.7,37.3,1.3,43.3c-9.4,6-23,3.8-35.4-15.6
				C369.8,356.6,371.1,338.7,381.1,332.3z M411.6,382c4.1-2.6,2.8-13.9-5.8-27.3c-8.1-12.6-14.9-15.6-18.6-13
				c-4.5,2.8-3,14.1,5.5,27.3C400.7,381.5,407.6,384.5,411.6,382z"/>
			<path class="st16" d="M447,369.2c-9.8-16.4-19.2-33.1-27.7-49.5c-7.3-13.9-13.9-28-19.8-42l18.6-7.5c6.6,16,13.6,31.4,21.3,46.1
				c5.1,9.8,10.2,19.6,16,29.2c6.8-4.9,14.9-10,22.2-14.9l10.7,14.1c-7.7,5.1-15.4,10.7-26.2,18.6L447,369.2z"/>
			<g>
				<path class="st16" d="M348.9,427.6"/>
			</g>
		</g>
	</g>
</g>
</svg>
