<?xml version="1.0" encoding="utf-8"?>
<!-- Generator: Adobe Illustrator 22.0.1, SVG Export Plug-In . SVG Version: 6.00 Build 0)  -->
<svg version="1.1" id="Layer_1" xmlns="http://www.w3.org/2000/svg" xmlns:xlink="http://www.w3.org/1999/xlink" x="0px" y="0px"
	 viewBox="0 0 14400 14400" style="enable-background:new 0 0 14400 14400;" xml:space="preserve">
<style type="text/css">
	.st0{clip-path:url(#SVGID_2_);fill-rule:evenodd;clip-rule:evenodd;fill:url(#SVGID_3_);}
	.st1{opacity:0.82;clip-path:url(#SVGID_2_);fill-rule:evenodd;clip-rule:evenodd;fill:#FFFFFF;}
	.st2{opacity:0.5;clip-path:url(#SVGID_2_);fill-rule:evenodd;clip-rule:evenodd;fill:#FFFFFF;}
	.st3{opacity:0.61;clip-path:url(#SVGID_2_);}
	.st4{fill:#BEF1F2;}
	.st5{clip-path:url(#SVGID_2_);}
	.st6{opacity:0.4;}
	.st7{fill:#FFFFFF;}
	.st8{clip-path:url(#SVGID_2_);fill:#87B2FF;}
	.st9{opacity:0.44;clip-path:url(#SVGID_2_);fill:#9DDDEF;}
	.st10{fill:#E1F5FE;}
	.st11{opacity:0.27;fill:url(#SVGID_4_);}
	.st12{fill:#B3E5FC;}
	.st13{fill:#D9E4EB;}
</style>
<g>
	<defs>
		<rect id="SVGID_1_" x="6899.5" y="6865" width="606.1" height="597.1"/>
	</defs>
	<clipPath id="SVGID_2_">
		<use xlink:href="#SVGID_1_"  style="overflow:visible;"/>
	</clipPath>
	<linearGradient id="SVGID_3_" gradientUnits="userSpaceOnUse" x1="7197.9741" y1="7444.2158" x2="7197.9741" y2="5641.8174">
		<stop  offset="2.434593e-03" style="stop-color:#004474"/>
		<stop  offset="0.2893" style="stop-color:#599BBE"/>
		<stop  offset="0.4762" style="stop-color:#8FCFEB"/>
		<stop  offset="0.5076" style="stop-color:#99D2EC"/>
		<stop  offset="0.6631" style="stop-color:#C5E2EE"/>
		<stop  offset="0.8026" style="stop-color:#E5EDF0"/>
		<stop  offset="0.9196" style="stop-color:#F8F4F2"/>
		<stop  offset="1" style="stop-color:#FFF6F2"/>
	</linearGradient>
	<path class="st0" d="M7495.9,5939.7c0-164.5-133.4-297.9-297.9-297.9c-164.5,0-297.9,133.4-297.9,297.9c0,8.5,0.4,16.8,1.1,25.1
		h-1.1v1169.3h0.3c-0.2,4.1-0.3,8.1-0.3,12.2c0,164.5,133.4,297.9,297.9,297.9c164.5,0,297.9-133.4,297.9-297.9
		c0-4.1-0.1-8.2-0.3-12.2h0.3V5964.8h-1.1C7495.5,5956.6,7495.9,5948.2,7495.9,5939.7z"/>
	<circle class="st1" cx="7189.6" cy="7172" r="161.3"/>
	<circle class="st2" cx="7320.4" cy="7108.8" r="99.5"/>
	<g class="st3">
		<path class="st4" d="M7386.6,6965.1l-134.7,1.5c-4.6-11.3-6.7-74-3.6-79.2c32.9-4.1,221.1-3.1,222.1-2.6
			c2.1,0.5,8.2,68.4,8.2,68.4s-120.3,297.7-120.8,297.7c-1,0-76.1-5.7-92.5-19.5L7386.6,6965.1z"/>
	</g>
	<g class="st5">
		<g class="st6">
			<path class="st7" d="M7304.8,7281.8c-21.1-10.1-43-33.8-43-65.4c0-58.9,46.6-86.1,104.1-86.1c60.6,0,106.3,28.1,106.3,87
				c0,30.3-17.6,53.6-37.8,63.3c23.3,11,49.2,37.8,49.2,76.9c0,59.7-50.5,91.4-112.5,91.4c-69,0-117.7-27.7-117.7-92.7
				C7253.4,7318.2,7280.6,7292.3,7304.8,7281.8z M7368.5,7388.5c29.4,0,43-15.4,43-36c0-22.4-12.3-40-41.7-40
				c-30.7,0-42.6,17.6-42.6,37.3C7327.2,7373.1,7339.9,7388.5,7368.5,7388.5z M7403.2,7222c0-18.9-10.5-33.8-35.6-33.8
				c-26.8,0-38.2,14.9-38.2,32.1c0,18,11.4,31.2,36.9,31.2C7391.3,7251.5,7403.2,7240.9,7403.2,7222z"/>
		</g>
	</g>
	<path class="st8" d="M7371.1,7448.7c-67.2,0-115.2-26.3-117.6-87.8c-0.1,1.3-0.1,2.7-0.1,4c0,65,48.8,92.7,117.7,92.7
		c61.9,0,112.5-31.6,112.5-91.4c0-1.5,0-2.9-0.1-4.4C7480.9,7418.7,7431.5,7448.7,7371.1,7448.7z"/>
	<circle class="st9" cx="7156.7" cy="7172" r="86.7"/>
	<circle class="st9" cx="7106.2" cy="7154.9" r="100"/>
	<g class="st5">
		<path class="st10" d="M7372.4,7156.7c-12.2,12.6-32.6,12.8-45.5,0.3s-13.6-32.9-1.4-45.5s32.6-12.8,45.5-0.3
			C7384,7123.6,7384.6,7144,7372.4,7156.7z"/>
		
			<rect x="7361.9" y="7076.3" transform="matrix(0.7198 0.6942 -0.6942 0.7198 7001.8091 -3125.6504)" class="st10" width="21.5" height="68.1"/>
		<linearGradient id="SVGID_4_" gradientUnits="userSpaceOnUse" x1="7321.8799" y1="7135.2456" x2="7375.6187" y2="7135.2456">
			<stop  offset="2.434593e-03" style="stop-color:#61E0E3"/>
			<stop  offset="1" style="stop-color:#ABFFFF"/>
		</linearGradient>
		<path class="st11" d="M7339.5,7108.6c-3.8,1.4-7.2,3.6-10.1,6.5c-10.4,10.8-9.9,28.2,1.2,38.9c11.1,10.7,28.5,10.6,38.9-0.2
			c2.9-3,5-6.5,6.2-10.3L7339.5,7108.6z"/>
		<path class="st10" d="M7408.2,7090.6l-17-16.4c-0.7-0.7-1.8-0.7-2.5,0l-0.9,1c-0.7,0.7-0.6,1.8,0.1,2.5l17,16.4
			c0.7,0.7,1.8,0.7,2.5,0l0.9-1C7409,7092.4,7408.9,7091.3,7408.2,7090.6z"/>
		
			<rect x="7384.7" y="7085.5" transform="matrix(0.7198 0.6942 -0.6942 0.7198 6991.7188 -3148.115)" class="st12" width="21.5" height="2.4"/>
	</g>
	<g class="st5">
		<path class="st13" d="M6971.5,7041.1c5.3-5,12.7-5.9,16.7-1.6c3.5,3.7,3.3,8.4,1.8,12.6c4-1.5,7.8-1.6,11.3,2
			c4.5,4.8,2.2,14.8-2.9,19.6c-0.6,0.5-1.1,0.9-1.6,1.3l-6.3,5c-4.6-5.6-9.9-11.8-14.6-16.7c-4.2-4.5-8.1-8.2-12.1-12
			C6965.9,7047.6,6968.7,7043.8,6971.5,7041.1z M6985.2,7061.7c2.3,2.5,4.6,5.1,7,7.8c0.6-0.4,1.2-0.9,2-1.6
			c2.2-2.1,3.3-6.4,1.5-8.3C6993.7,7057.4,6989.4,7058.4,6985.2,7061.7z M6973.6,7049.7c2.5,2.5,5.1,5.1,7.5,7.6
			c2.1-2.3,4.5-9,1.9-11.7c-1.7-1.8-4.8-1.2-7.2,1C6975,7047.4,6974.3,7048.5,6973.6,7049.7z"/>
		<path class="st13" d="M7017.2,7044.4l-5.4,5.4l5.1,8.4l-5.7,4.4l-18.6-33.4l7.5-5.9l28.6,20.8l-5.8,4.6L7017.2,7044.4z
			 M7008.9,7045l4.1-4.1l-12.5-9.8L7008.9,7045z"/>
		<path class="st13" d="M7032,7018.6c-2.8-3-7.1-7.3-9.2-5.3c-2.7,2.6,3.6,12.9,7.5,17c4,4.2,7.9,6,10.5,3.4
			c2.3-2.2,0.4-5.9-1.4-9.3l5.6-4.6c4.7,7.5,6.2,14.1,0.8,19.1c-6.2,5.9-14.4,3.5-20.7-3.1c-6.8-7.1-14.6-21.1-7.1-28.2
			c6.6-6.3,14.1,0.7,19.7,6.3L7032,7018.6z"/>
		<path class="st13" d="M7055.8,6975.9c1.1,6.1,2.5,17,3.3,27.3c7,2.6,14.6,4.9,21.3,5.3l-0.8,9.9c-8.2-1-17-4-25.9-8
			c4.1,5.5,8.6,11.3,13.1,16.5l-8.4,5c-5-6-9.5-11.8-14.1-17.8c-5.6-7.4-11-14.8-14.6-20.5l8.3-5.1c3.3,5.2,7.6,11.3,12.6,17.9
			c-1.1-10.9-2.8-22-4.1-27.9L7055.8,6975.9z"/>
		<path class="st13" d="M7077.6,6997.3c-2-2.3-4.1-4.9-6-7.5c-1.4-1.9-2.2-2.9-4.1-5.8c-1.4,1.4-2.5,2.5-2.5,2.5l-2.5-2.3
			c0,0,2-2.1,4-3.9c2-1.8,4.1-3.5,4.1-3.5l2.4,2.2c0,0-1.2,1-2.7,2.4c1.6,2.3,2.8,4,4.4,6.1c2.1,2.7,4.1,5.3,6.1,7.9L7077.6,6997.3z
			"/>
		<path class="st13" d="M7077.1,6971.4c2.7-2,6.9-1.6,11.1,4c4.2,5.5,4.1,11.1,1.4,13.2c-2.7,2.1-7,1.7-11.2-3.9
			C7074.2,6979.1,7074.2,6973.6,7077.1,6971.4z M7087.6,6985.9c1.2-0.9,0.5-4.3-2.4-8.2c-2.8-3.7-4.9-4.4-6-3.6
			c-1.3,1-0.6,4.3,2.3,8.2C7084.2,6986,7086.4,6986.7,7087.6,6985.9z"/>
		<path class="st13" d="M6994.6,7097.5c-1-1.4-2-2.5-3-3.3c-2.3-1.8-4.5-1.5-5.6-0.1c-1.5,1.9-0.3,4.6,1.6,6.2c2.1,1.7,5,1.7,8,0.7
			c6.8-2.4,11.2-3.9,15.8-0.3c5.6,4.4,5,11.4,1.8,15.4c-4.4,5.6-12.3,4.1-17.4,2.8l1.3-5.9c4.1,1.3,8.8,1.7,10.8-0.8
			c1-1.2,1.5-3.4-0.5-5c-2.2-1.8-5.5-1-8.5,0c-5.5,1.7-11,3.2-16-0.8c-5.5-4.4-5.8-11.6-2.2-16.2c4.2-5.3,11.9-4.9,15.8-1.7
			c1.1,0.9,3.1,2.9,4,5.1L6994.6,7097.5z"/>
		<path class="st13" d="M7022.4,7080.3c-2.4-3.2-6.1-7.9-8.4-6.2c-2.9,2.2,2.1,12.9,5.4,17.3c3.4,4.5,7,6.7,9.8,4.5
			c2.4-1.9,1-5.7-0.4-9.2l6-3.8c3.7,7.8,4.4,14.4-1.3,18.7c-6.7,5-14.4,1.8-19.7-5.3c-5.8-7.7-11.8-22.1-3.7-28.2
			c7.2-5.4,13.6,2.2,18.4,8.4L7022.4,7080.3z"/>
		<path class="st13" d="M7040.9,7044.1c3.3,4.9,7,10.1,10.7,15c4.9,6.5,9.8,12.5,13.5,16.8l-6.1,3.8c-2.5-2.7-6-7-9.8-11.9l-6.2,5.3
			c3.4,4.2,6.7,8.4,10.1,12.6l-6.5,4c-4.8-5.7-9.5-11.5-13.9-17.4c-3.3-4.4-6.6-8.9-9.6-13.4l6.3-3.9c1.8,2.8,3.7,5.5,5.8,8.2
			c1.2,1.6,2.7,3.4,3.9,5.1l6.4-5.4c-3.8-5-7.5-10.1-10.9-14.9L7040.9,7044.1z"/>
		<path class="st13" d="M7053,7036.1c4.2-4,11.5-4.1,19.8,4.7c8.2,8.7,9.2,18.3,5,22.3c-4.3,4.1-11.6,4.2-19.9-4.6
			C7049.5,7049.9,7048.4,7040.4,7053,7036.1z M7073.7,7058.9c1.8-1.7,0.1-7.4-5.7-13.5c-5.4-5.8-9.2-6.6-11-5
			c-2,1.9-0.2,7.6,5.5,13.6C7068,7059.8,7071.9,7060.6,7073.7,7058.9z"/>
		<path class="st13" d="M7079.6,7020.7c4.3-2.8,10.7-1.6,16.5,7.4c5.7,9,5,17.5,0.6,20.3c-4.4,2.8-10.8,1.8-16.6-7.3
			C7074.3,7032.1,7074.9,7023.7,7079.6,7020.7z M7093.9,7044c1.9-1.2,1.3-6.5-2.7-12.8c-3.8-5.9-7-7.3-8.7-6.1
			c-2.1,1.3-1.4,6.6,2.6,12.8C7088.8,7043.8,7092,7045.2,7093.9,7044z"/>
		<path class="st13" d="M7110.5,7038c-4.6-7.7-9-15.5-13-23.2c-3.4-6.5-6.5-13.1-9.3-19.7l8.7-3.5c3.1,7.5,6.4,14.7,10,21.6
			c2.4,4.6,4.8,9.2,7.5,13.7c3.2-2.3,7-4.7,10.4-7l5,6.6c-3.6,2.4-7.2,5-12.3,8.7L7110.5,7038z"/>
		<g>
			<path class="st13" d="M7064.5,7065.4"/>
		</g>
	</g>
</g>
</svg>
