<?xml version="1.0" encoding="utf-8"?>
<!-- Generator: Adobe Illustrator 22.0.1, SVG Export Plug-In . SVG Version: 6.00 Build 0)  -->
<svg version="1.1" id="Layer_1" xmlns="http://www.w3.org/2000/svg" xmlns:xlink="http://www.w3.org/1999/xlink" x="0px" y="0px"
	 viewBox="0 0 913 528" style="enable-background:new 0 0 913 528;" xml:space="preserve">
<style type="text/css">
	.st0{fill-rule:evenodd;clip-rule:evenodd;fill:#CDFFF9;}
	.st1{fill-rule:evenodd;clip-rule:evenodd;fill:#9DFFF9;}
	.st2{fill-rule:evenodd;clip-rule:evenodd;fill:#2DF9F9;}
</style>
<path class="st0" d="M757.1,186.6c0.3-3.9,0.6-7.8,0.6-11.7C757.6,81.8,664,6.3,548.5,6.3c-89.8,0-166.3,45.6-195.9,109.7
	c-55.1,9-102.3,35.6-132.4,72.1c-20.6-13.7-44.9-21.7-71-21.7c-73.8,0-133.6,63.5-133.6,141.8s59.8,141.8,133.6,141.8
	c39.7,0,75.3-18.4,99.8-47.5c27.8,21.7,63,37.3,102.2,43.9c38.2,40.1,98.3,66,165.9,66c29,0,56.6-4.8,81.8-13.4
	c25.1,8.6,52.7,13.4,81.8,13.4c115.5,0,209.1-75.5,209.1-168.7C889.7,272.2,834.7,211.3,757.1,186.6z"/>
<path class="st1" d="M667.4,204.4c0.3-3,0.4-6,0.4-9c0-72.1-72.5-130.5-161.8-130.5c-69.5,0-128.7,35.3-151.6,84.9
	c-42.7,7-79.2,27.5-102.5,55.8c-15.9-10.6-34.8-16.8-55-16.8c-57.1,0-103.4,49.1-103.4,109.7S139.8,408.1,197,408.1
	c30.7,0,58.3-14.2,77.3-36.8c21.5,16.8,48.7,28.8,79.1,34c29.6,31,76.1,51.1,128.4,51.1c22.5,0,43.8-3.7,63.3-10.4
	c19.4,6.7,40.8,10.4,63.3,10.4c89.4,0,161.8-58.4,161.8-130.5C770.1,270.7,727.5,223.5,667.4,204.4z"/>
<path class="st2" d="M637.4,172.3c0.2-2.3,0.3-4.6,0.3-7c0-55.5-49-100.5-109.5-100.5c-47,0-87.1,27.2-102.6,65.4
	c-28.9,5.4-53.6,21.2-69.3,43c-10.8-8.2-23.5-12.9-37.2-12.9c-38.7,0-70,37.8-70,84.5s31.3,84.5,70,84.5c20.8,0,39.5-11,52.3-28.3
	c14.5,12.9,33,22.2,53.5,26.2c20,23.9,51.5,39.3,86.9,39.3c15.2,0,29.7-2.8,42.8-8c13.2,5.1,27.6,8,42.8,8
	c60.5,0,109.5-45,109.5-100.5C706.8,223.4,678,187,637.4,172.3z"/>
</svg>
