<?xml version="1.0" encoding="utf-8"?>
<!-- Generator: Adobe Illustrator 22.0.1, SVG Export Plug-In . SVG Version: 6.00 Build 0)  -->
<svg version="1.1" id="Layer_1" xmlns="http://www.w3.org/2000/svg" xmlns:xlink="http://www.w3.org/1999/xlink" x="0px" y="0px"
	 viewBox="0 0 1013.1 216.9" style="enable-background:new 0 0 1013.1 216.9;" xml:space="preserve">
<style type="text/css">
	.st0{fill:#2580E7;}
	.st1{fill:#FFFFFF;}
</style>
<g>
	<path class="st0" d="M999.3,142.4c-2.4-3.6-6.1-9-10.5-15.1c12.4-12.1,19-28.7,19-48.6c0-47.4-32-74.7-87.9-74.7
		c-18.2,0-43,1.2-55.1,2.6c-9.4,1.2-16.8,8.5-18.2,17.9c-1,7.8-1.7,40-2.2,73.5c-1.4-4.1-2.7-8.2-4.3-12.4
		c-5.4-15.8-11.6-33.2-16.8-47.6c-2.2-6.3-4.3-11.6-5.6-15.3c-3.1-8-5.6-15-15.1-18c-0.9-0.3-1.7-0.5-2.6-0.7
		c-1.7-0.3-6.5-1.4-31.5-0.5c-27.2,0.9-30.1,1.9-35,5.1c-7.5,4.9-7.5,4.9-32.1,81.8c-3.7,11.4-7.5,23.6-11.2,35.2
		c-6.6-0.9-26-0.7-42.5-0.5c0.5-34.7,0.9-95.2,0.3-101.9c-0.2-1.9-0.5-3.6-1-5.3c-2.4-7.3-8.5-12.6-16.5-14.1
		c-1.5-0.3-6-1.2-25.2-0.5c-18,0.7-26.2,0.9-32.8,9c-2.2,2.7-3.7,6-4.4,9.4c-0.5,2.2-0.9,8.8-1,18.2c-17-24-44.6-38.3-78.7-38.3
		c-27.7,0-49.7,9.5-65.6,24.5c-0.9-1.2-1.7-2.6-2.9-3.6C406.9,10,381.3,1.8,354.5,1.8c-32.8,0-60.7,12.8-79.1,33.8
		c-0.2-5.8-2.2-11.7-8.2-16.3c-13.6-10.9-38.6-17.7-65-17.7c-19.7,0-39.5,6-54.2,17.3c-0.2-0.7-0.3-1.4-0.7-2
		c-2-5.1-5.8-9.2-10.7-11.4c-4.8-2.2-6-2.7-54.6-2.4C61.3,3.3,32.9,3.7,21.2,4.5C10.6,5.2,2.3,13.7,1.8,24.3
		C0.4,54.7-0.6,163.9,0.4,182.1c0.7,10.2,8.5,18.4,18.5,19.2c11.6,1.2,43.7,1.4,59,1.4c0.7,0,1.2,0,1.9,0c12.1,0,23.5-0.2,32.1-0.3
		c16-0.3,27-0.5,32.3-12.2c14.1,6.6,33.3,11.9,53.4,11.9c36.7,0,60.5-14.8,72.8-34.4c16.8,24,43.9,37.9,78.2,37.9
		c27.9,0,56.3-10.7,71.6-27c17,16.8,40.6,26.5,68.7,26.5c36.2,0,61.7-15.3,77.5-37.1c0.2,6.6,0.2,11.4,0.3,13.3
		c0.7,9.5,7.7,17.3,17,19c1.9,0.3,7.3,1.4,57,1.4c1.2,0,2.4,0,3.4,0c11.4,0,21.8,0,29.9-0.2c8.3-0.2,15.8-0.3,21.8-2.2
		c4.4,0.9,10.5,1.5,19.2,2.2c21.3,1.7,27.7,2,34.7-3.7c1.7-1.4,3.1-2.9,4.3-4.8c2-3.1,3.1-5.6,8.5-23.6c6.3,0,12.2,0,17.2,0
		c2.9,8.5,6.3,17.7,7.7,20.9c1.5,3.6,4.3,6.6,7.5,8.8c3.9,2.6,6.6,3.6,14.1,3.6c4.3,0,9.9-0.3,18-0.9c14.5-1,21.8-2.2,26.5-3.9
		c0.5,0.3,0.9,0.7,1.4,0.9c10.4,6,51.4,2.2,55.8,0.3c7-2.7,11.7-9,12.8-16.3c0.3-2.4,0.5-6.1,0.7-11.1c3.6,5.3,6.8,10.2,9.4,14.1
		c8.2,12.4,12.2,18.7,23.6,18.7l0,0c10.9-0.2,43.5-11.6,51.2-22.1C1018.4,170.7,1011.3,160,999.3,142.4z M134.4,129.2
		c-0.9-0.3-1.7-0.7-2.6-1c1.2-2.6,1.9-5.3,2-8.2v-1c0.2-3.7,0.3-7.3,0.5-10.5c2.4,3.6,4.9,6.8,8.2,9.9
		C139.9,120.5,137.1,124.4,134.4,129.2z M376.2,118.1l-0.7,0.5c-4.1,3.1-11.7,8.7-22.3,8.7c-11.6,0-17.7-8.2-17.7-23.8
		c0-13.4,8.2-22.8,19.9-22.8c10.9,0,21.9,6,25.2,7.8c3.7,2.2,7.8,3.1,11.9,2.7c-0.3,3.6-0.5,7.1-0.5,10.7c0,4.3,0.2,8.5,0.5,12.8
		C387,113.4,381,114.6,376.2,118.1z M488.7,127.8c-9.7,0-14.1-12.2-14.1-23.8c0-16.5,5.1-24.8,15.1-24.8c3.6,0,13.3,0,13.3,23.3
		C502.8,127.8,493.2,127.8,488.7,127.8z"/>
	<g>
		<path class="st1" d="M126.3,181.6c1.7,1.2-86.7,1.5-104.4-0.2c-1.2-17.5,0-125.7,1.4-155.6c20.7-1.4,103.2-1.7,105.6-0.7
			c1.5,4.1,1.5,26.5,0.5,33.8c-6.3,0.7-50.7,0.9-68.9,0.2l0.5,27c19.6-0.2,50.5,0.2,51.9,1.4c2.4,2,0.7,31.1,0.7,32
			c0,1.2-31.3,1.2-52.5,0.5c0,10,0,20.7-0.2,28.4c20.1-0.5,59.4-0.7,65.6-0.2C127.8,155.5,127.3,177.7,126.3,181.6z"/>
		<path class="st1" d="M143.6,166.1c-0.9-4.4,10-32.8,12.4-31.8c5.1,3.1,21.8,15.1,40.6,15.1c13.1,0,21.6-4.1,21.6-13.6
			c0-7.1-5.3-12.4-28.2-17.2c-29.1-6-45.4-19.6-45.4-48.6c0-25.3,20.7-47.3,58.2-47.3c23.6,0,43.4,6.3,52,13.1
			c2.9,2.2-10.4,31.1-12.8,31c-3.4-1.5-19.6-9.9-38.4-9.9c-13.3,0-19.6,5.3-19.6,12.8c0,7,3.7,10.4,25.3,15.3
			c28.7,6.6,50.8,18.2,50.8,48.6c0,23.6-18.9,48.3-62.2,48.3C173.4,181.9,151.6,172.2,143.6,166.1z"/>
		<path class="st1" d="M353.3,147.9c18,0,30.3-9.5,35.2-13.1c5.1,3.6,15,21.6,18.4,29.1c-9.5,10.9-32,21.6-57.7,21.6
			c-52,0-76.2-37.1-76.2-83.7c0-44.7,31.6-79.1,82-79.1c25.5,0,44,8,50.8,14.6c0,4.4-9.4,28.4-15,33.2c-8-4.6-21.6-10.7-35.5-10.7
			c-23,0-40.6,18.2-40.6,43.5C314.7,135.3,334.2,147.9,353.3,147.9z"/>
		<path class="st1" d="M566,105.5c0,39.3-23.3,79.6-76.5,79.6c-47.3,0-76.9-33.5-76.9-83.2c0-40.3,25.3-79.6,76.2-79.6
			C535.6,22.4,566,53.7,566,105.5z M489.5,58.6c-23,0-35.7,18-35.7,45.6c0,24.8,13.6,44.4,34.9,44.4c23.8,0,34.9-18.2,34.9-46.1
			C523.5,72.7,509.2,58.6,489.5,58.6z"/>
		<path class="st1" d="M689.2,180.9c-0.2,1.2-93.5,1.2-101.2-0.2c-1.2-17.2-0.7-146.9,0.9-154.9c1.2-1.4,38.4-2.4,38.9-1.2
			c0.5,7.3-0.2,107.6-0.9,121.8c19.4-0.7,54.8-1.2,61.4-0.2C690,153.5,690.3,176.8,689.2,180.9z"/>
		<path class="st1" d="M795.3,149.4c-5.3,0.2-39.3,0-47.3,0c-2.7,8.7-9.2,31-10.4,32.8c-1.2,0.9-38.6-1.7-41.3-3.7
			c4.3-16,47.3-151.7,49.3-152.9c2-1.4,45.4-2.7,50.8-1.5c0.7,0.2,47.1,129.6,51.9,154.8c-4.6,2.9-40.5,4.4-41.2,4.1
			C805.1,178.8,797.8,157.8,795.3,149.4z M771.6,60.6c-3.1,11.1-12.8,44-17.9,58.5c7.5-0.2,27.7-0.5,36.9-0.5
			c-5.6-15.3-15-47.6-17.9-58.2C772.5,60.3,772.1,60.6,771.6,60.6z"/>
		<path class="st1" d="M865.5,181.6c-1.2-10.4-0.2-139.1,1.7-154.6c11.4-1.4,35.4-2.4,52.7-2.4c42.7,0,67.2,16.8,67.2,54.1
			c0,23.1-10.9,36.7-28.2,43.9c16.8,20.4,34.2,47.6,33.5,48.5c-2.4,3.4-28.1,13.9-34.7,13.8c-0.7,0-20.1-31.3-38.4-55.6
			c-0.9,0.2-2,0.2-2.9,0.2c-3.7,0-9.2-0.2-11.7-0.5c-0.2,15.3-0.2,45.6-1.2,52C901.2,181.7,865.7,182.8,865.5,181.6z M922.8,98.6
			c14.5,0,24.5-5.8,24.5-19c0-12.4-6.5-20.4-25.8-20.4c-4.3,0-10.2,0.2-14.6,0.7c0.2,6,0,30.4,0,38.3
			C911.1,98.4,917.7,98.6,922.8,98.6z"/>
	</g>
</g>
</svg>
