<?xml version="1.0" encoding="utf-8"?>
<!-- Generator: Adobe Illustrator 22.0.1, SVG Export Plug-In . SVG Version: 6.00 Build 0)  -->
<svg version="1.1" id="Layer_1" xmlns="http://www.w3.org/2000/svg" xmlns:xlink="http://www.w3.org/1999/xlink" x="0px" y="0px"
	 viewBox="0 0 542.9 128.6" style="enable-background:new 0 0 542.9 128.6;" xml:space="preserve">
<style type="text/css">
	.st0{fill:#2F7FEC;}
	.st1{fill:#FFFFFF;}
</style>
<g>
	<path class="st0" d="M473.8,5.5c-18.5,0-35.3,8.2-45.9,21.7c-6.6-10.5-19.8-20.4-46.2-20.4c-10.6,0-25,0.7-32.1,1.5l-7.5,0.9
		c-4.7-3.5-11.3-3.5-15.2-3.5c-17.7,0-22.8,1.9-25.7,3.9l-6,4.2v5.1c0-0.2-0.1-0.3-0.1-0.5l-0.6-1.8c-3.9-9-12.2-9.5-25.6-9.5
		c-6.4,0-17.5,0-22.1,8c-7.4-4.9-19.5-9.3-35-9.3c-15.4,0-29.2,4.8-39.7,13.4c-0.2-1.2-0.5-2.3-0.9-3.2l-2.1-5.3L164,8.3
		c-3.1-1.4-4.8-1.6-23.7-1.6c-15.7,0-36.5,0.3-44.1,0.8L83.7,8.3l-0.2,3.9c-8.4-4-19.9-6.4-31.9-6.4C27.9,5.8,3.9,20,3.9,47.2
		c0,11.5,3.3,20.9,9.7,27.9c-0.2,0.3-0.5,0.5-0.7,0.8c-3,3.6-11.1,21.1-9.4,29.6l1.1,5.2l4.3,3.2c7.7,5.7,23.5,11.9,40,11.9
		c13.5,0,25-3.5,33.7-9.9l0.5,8.3l11.8,1.2c6.9,0.7,26.2,0.8,34.2,0.8c7.2,0,14.2-0.1,19.4-0.2c10.9-0.2,18.8-0.4,21.7-10.6l0.4-1.2
		c10,8.8,23.4,13.6,38.9,13.6c12.2,0,23.6-2.9,32.3-6.6l1.2,0.9l-0.8-1c4.4-1.9,8.1-4.1,10.8-6.2l2.7-2.1c9,9.8,22.7,15,40,15
		c18,0,31.7-5.4,40.6-15.6c0,0.5,0.1,0.9,0.1,1.2l0.1,0.6c2,12.1,13.7,12.1,19.3,12.1c17.4,0,20.5-1.3,21.7-1.7l7.6-3l1.1-8.1
		c0-0.2,0-0.3,0.1-0.5c0.7,1.1,1.4,2.1,2,3.1c5,7.6,7.7,11.7,15.1,11.7l0.5,0c6.7,0,26.2-6.8,31.1-13.6c0.1-0.1,0.2-0.3,0.3-0.4
		c10.1,9.1,23.5,14.2,39,14.2c18.3,0,33.6-6.7,44.2-19.5c9.1-10.8,14-25.3,14-40.6C532.4,30.5,508.8,5.5,473.8,5.5z"/>
	<g>
		<path class="st1" d="M17.3,102.8c-0.5-2.6,5.8-19,7.2-18.4c3,1.8,12.6,8.7,23.5,8.7c7.6,0,12.5-2.3,12.5-7.8
			c0-4.1-3.1-7.2-16.3-9.9C27.4,71.9,18,64.1,18,47.2c0-14.7,12-27.4,33.7-27.4c13.6,0,25.1,3.6,30.1,7.6c1.7,1.3-6,18-7.3,17.9
			c-1.9-0.9-11.3-5.7-22.2-5.7c-7.7,0-11.3,3.1-11.3,7.3c0,4,2.2,6,14.7,8.9C72.1,59.7,85,66.4,85,84c0,13.6-10.9,27.9-36,27.9
			C34.6,111.9,22,106.2,17.3,102.8z"/>
		<path class="st1" d="M156.8,111.6c1,0.6-50.1,0.9-60.4-0.1c-0.6-10.2,0-72.6,0.8-90c12-0.8,59.6-1,61.1-0.4
			c0.9,2.3,0.9,15.3,0.3,19.5c-3.6,0.4-29.3,0.5-39.9,0.1l0.3,15.7c11.3-0.1,29.2,0.1,30,0.8c1.4,1.2,0.4,18,0.4,18.5
			c0,0.6-18.1,0.6-30.3,0.3c0,5.8,0,12-0.1,16.5c11.6-0.3,34.3-0.4,37.9-0.1C157.7,96.6,157.4,109.4,156.8,111.6z"/>
		<path class="st1" d="M211.8,93.4c4.4,0,8.7-1.3,11.6-2.3c-0.1-3.2-0.3-12.2-0.3-12.2s-12.3,0.4-14.9,0.5
			c-0.6-0.8-0.9-15.2-0.1-16.5c4-0.9,35.2-2.1,36.1-1c0.9,1.4,0.5,39.1,0,42c-5.7,4.5-19.9,9.9-34.7,9.9
			c-30.1,0-44.1-21.3-44.1-48.2c0-25.8,17.4-45.8,46.4-45.8c14.9,0,25.5,5,29.6,8.7c0,2.6-7.3,15.9-9.6,18.4
			c-4.8-2.7-11.4-5.5-19.5-5.5c-13.2,0-22.9,10.4-22.9,25.1C189.3,84.9,199,93.4,211.8,93.4z"/>
		<path class="st1" d="M281.6,22.2c0.6,2.3-1.2,36.5-1.2,49.6c0,14,4.9,19.3,14.8,19.3c11.4,0,14.9-8.2,14.9-18.8
			c0-16.3-0.9-44.9-0.9-51.2c1.7-1.2,23.9-2.1,24.2-0.8c0.5,2.3,1,37.8,1,53.3c0,21.1-7.8,40-38.8,40c-24.2,0-38.7-11.4-38.7-39.2
			c0-12.5,0.8-45,1.9-51.9C259.2,20.4,281.2,21.3,281.6,22.2z"/>
		<path class="st1" d="M350.3,111.6c-0.6-6-0.1-80.5,1-89.3c6.6-0.8,20.4-1.4,30.5-1.4c24.7,0,38.8,9.8,38.8,31.2
			c0,13.4-6.3,21.2-16.3,25.3c9.8,11.8,19.8,27.5,19.4,28c-1.4,1.9-16.2,8.1-20.1,8c-0.4,0-11.6-18.1-22.2-32.1
			c-0.5,0.1-1.2,0.1-1.7,0.1c-2.2,0-5.3-0.1-6.8-0.3c-0.1,8.9-0.1,26.4-0.6,30.1C371,111.8,350.4,112.4,350.3,111.6z M383.4,63.7
			c8.4,0,14.1-3.3,14.1-11.1c0-7.2-3.7-11.8-14.9-11.8c-2.4,0-5.9,0.1-8.5,0.4c0.1,3.5,0,17.6,0,22.1
			C376.6,63.6,380.5,63.7,383.4,63.7z"/>
		<path class="st1" d="M518.4,67.7c0,22.8-13.5,46-44.2,46c-27.4,0-44.5-19.4-44.5-48.1c0-23.3,14.7-46,44.1-46
			C500.8,19.6,518.4,37.7,518.4,67.7z M474.2,40.5c-13.2,0-20.7,10.4-20.7,26.4c0,14.4,7.8,25.7,20.2,25.7
			c13.8,0,20.2-10.5,20.2-26.6C493.8,48.8,485.6,40.5,474.2,40.5z"/>
	</g>
</g>
</svg>
