<?xml version="1.0" encoding="utf-8"?>
<!-- Generator: Adobe Illustrator 22.0.1, SVG Export Plug-In . SVG Version: 6.00 Build 0)  -->
<svg version="1.1" id="Layer_1" xmlns="http://www.w3.org/2000/svg" xmlns:xlink="http://www.w3.org/1999/xlink" x="0px" y="0px"
	 viewBox="0 0 738.6 523" style="enable-background:new 0 0 738.6 523;" xml:space="preserve">
<style type="text/css">
	.st0{opacity:0;fill:#FF9900;}
	.st1{opacity:0.1667;fill:#FF9900;}
	.st2{opacity:0.3333;fill:#FF9900;}
	.st3{opacity:0.5;fill:#FF9900;}
	.st4{opacity:0.6667;fill:#FF9900;}
	.st5{opacity:0.8333;fill:#FF9900;}
	.st6{fill:#FF9900;}
	.st7{clip-path:url(#SVGID_2_);}
</style>
<g>
	<path class="st0" d="M-30.2,498.4c-14.6-113.2-1.9-192.2,38.9-254.1S118.4,137.9,216.5,93.5c0,0,2.5-26.6,72.1-81.7l20.2,53.4
		c0,0,94.6-24.5,244.1,50.8c0,0,19.2-80.6,127.4-134.5c0,0,54,185.1-7,225c85.8,3.6,93.7,117.7,122.8,158.2
		c0,0-115.5,25.7-217.3-73.5c0,0-16.8,110.5-188.4,178.1l84.2,65.6c0,0-106.5,92.1-183.1-17.5C291.5,517.4,92.7,617.3-30.2,498.4z"
		/>
	<path class="st1" d="M222.4,94.7c3.4-2.4,9-26.9,71.4-72.8c0.7,0,18.1,44.5,18.8,44.6c3,0.4,91.3-30.8,211.4,45.7
		C525.8,113.3,543.2,48,634.4,5c1.3,2.3,47,159.2-3.8,195.2c71.5,7.5,76.3,106.6,97.6,143.3c-0.9,0.9-98.1,23-184-59
		c-1.2,0.7-14.5,98.7-160.7,150.1c-0.5,0.2,69.1,55,68.6,55.1c-1,0.2-90.9,77.1-155.8-14.3c-4.4,0-174.1,81.4-279.5-20.5
		c-15.1-97.3-6.3-167.1,27.7-223.1C78.5,175.9,145.8,148.6,222.4,94.7z"/>
	<path class="st2" d="M228.2,95.9c6.7-4.8,15.5-27.2,70.8-63.9c1.3,0,16.1,35.7,17.4,35.8c6,0.7,80-22.7,178.7,40.5
		c3.7,2.3,19.1-47.7,93.4-79.8c2.5,4.6,40,133.3-0.7,165.5c57.2,11.3,58.8,95.4,72.4,128.3c-1.7,1.7-80.6,20.3-150.6-44.5
		c-2.3,1.4-14.5,80.5-133.1,122.2c-1,0.4,54,44.4,53,44.6c-2.1,0.4-75.3,62.1-128.5-11c-8.9,0-149.5,63-237.2-22.1
		c-15.5-81.3-10.7-142,16.5-192.1C107.5,169.2,163.7,142.4,228.2,95.9z"/>
	<path class="st3" d="M234.1,97.1c9.9-7.4,22.1-27.4,70.2-55c2,0,14,26.8,16,27.1c8.9,1.1,68.6-14.7,145.9,35.3
		c5.5,3.5,19.1-31.2,76.4-52.4c3.8,6.9,33,107.4,2.5,135.8c42.9,15.2,41.4,84.3,47.2,113.3c-2.6,2.6-63.2,17.7-117.2-30
		c-3.5,2.2-14.5,62.3-105.4,94.2c-1.5,0.5,39,33.7,37.3,34c-3.1,0.6-59.6,47-101.2-7.8c-13.3,0-124.8,44.5-195-23.6
		c-16-65.4-15.1-116.9,5.3-161.2C136.5,162.5,181.5,136.2,234.1,97.1z"/>
	<path class="st4" d="M240,98.4c13-10.1,28.6-27.7,69.6-46.1c2.7,0,12,18,14.6,18.3c11.9,1.4,57.2-6.7,113.2,30.1
		c7.3,4.8,19-14.8,59.3-25.1c5.1,9.2,25.9,81.5,5.6,106c28.6,19,24,73.1,22.1,98.3c-3.4,3.4-45.8,15-83.8-15.4
		c-4.6,2.9-14.5,44.2-77.8,66.2c-2,0.7,23.9,23.1,21.7,23.5c-4.2,0.8-44,32-73.9-4.6c-17.8,0-100.2,26.1-152.8-25.2
		c-16.5-49.4-19.5-91.8-5.9-130.2C165.4,155.8,199.3,130.1,240,98.4z"/>
	<path class="st5" d="M245.9,99.6c15.7-13.3,34.2-41.8,69-37.2c3.3,0.4,9.9,9.1,13.2,9.5c14.9,1.8,45.7,1.3,80.4,24.9
		c9,6.1,19,1.7,42.3,2.3c6.3,11.5,18.9,55.6,8.8,76.3c14.3,22.8,6.6,62-3.1,83.3c-4.3,4.3-28.3,12.4-50.5-0.9
		c-5.8,3.6-14.5,26-50.1,38.3c-2.6,0.9,8.8,12.4,6.1,13c-5.2,1.1-28.3,17-46.6-1.3c-22.2,0-75.5,7.6-110.6-26.7
		c-17-33.4-23.9-66.7-17.1-99.3C194.4,149.1,216.9,124,245.9,99.6z"/>
	<path class="st6" d="M416.7,169.1c0,26.7-10.8,50.8-28.3,68.3s-41.6,28.3-68.3,28.3c-26.7,0-50.8-10.8-68.3-28.3
		s-28.3-41.6-28.3-68.3c0-26.7,10.8-50.8,28.3-68.3s41.6-28.3,68.3-28.3C373.5,72.5,416.7,115.7,416.7,169.1z"/>
</g>
<path class="st6" d="M314.1,403.2c0,45.9-37.2,83.1-83.1,83.1c-45.9,0-83.1-37.2-83.1-83.1c0-45.9,37.2-83.1,83.1-83.1
	C276.9,320.1,314.1,357.3,314.1,403.2"/>
<g>
	<defs>
		<path id="SVGID_1_" d="M153.2,403.2c0,42.9,34.8,77.7,77.7,77.7c42.9,0,77.7-34.8,77.7-77.7c0-42.9-34.8-77.7-77.7-77.7
			C188,325.5,153.2,360.3,153.2,403.2"/>
	</defs>
	<clipPath id="SVGID_2_">
		<use xlink:href="#SVGID_1_"  style="overflow:visible;"/>
	</clipPath>
	<g class="st7">
		<defs>
			
				<rect id="SVGID_3_" x="-105.2" y="51.3" transform="matrix(0.9294 -0.369 0.369 0.9294 -87.8953 94.5893)" width="617.1" height="451.6"/>
		</defs>
		<clipPath id="SVGID_4_">
			<use xlink:href="#SVGID_3_"  style="overflow:visible;"/>
		</clipPath>
	</g>
</g>
</svg>
