<?xml version="1.0" encoding="utf-8"?>
<!-- Generator: Adobe Illustrator 22.0.1, SVG Export Plug-In . SVG Version: 6.00 Build 0)  -->
<svg version="1.1" id="Layer_1" xmlns="http://www.w3.org/2000/svg" xmlns:xlink="http://www.w3.org/1999/xlink" x="0px" y="0px"
	 viewBox="0 0 376.3 305.9" style="enable-background:new 0 0 376.3 305.9;" xml:space="preserve">
<style type="text/css">
	.st0{opacity:0;fill:#FFFFFF;}
	.st1{opacity:0.2;fill:#D6FFE0;}
	.st2{opacity:0.4;fill:#ADFFC2;}
	.st3{opacity:0.6;fill:#85FFA3;}
	.st4{opacity:0.8;fill:#5CFF85;}
	.st5{fill:#33FF66;}
</style>
<g>
	<path class="st0" d="M98.1,313.5c16.3-11.1,25-18.8,29.2-26.7c0,0-24.1-50.9,2-100.4c26.1-49.5,89.2-50.9,160-71.8
		c70.8-21,93.9-39.2,105.6-63.8c11.7-24.6,24.7-14.4,11.2,10.2c-6.7,12.3-13.1,76-35.3,137.5C348.7,260,310.7,319.3,241,322.8
		c-44.9,2.3-92.5-25.5-92.5-25.5s8.1-68.9,73.6-92.1c65.5-23.2,111.6-29,150.2-89.2c19.9-31,5.2-10.6-8.5,4.3
		c-16.7,18.3-37.8,47.8-108.7,55.3c-72.2,7.6-106.8,66.7-115.4,115.7c-4.3,24.7-50.3,43.3-50.3,43.3L98.1,313.5z"/>
	<path class="st1" d="M246,94.5c59.6-16.2,81.2-30.1,92-48.6c10.8-18.7,19.4-11.1,11.2,10.2c-4.6,11.7-8,65.7-25.2,118.3
		c-9.1,27.7-22,54.9-40.8,75.5c-19.2,21-44,35.2-75.8,36.7c-36.3,1.7-74.8-20.4-75.2-20.5c-0.5,0,5.5-55.3,57.4-73.9
		c51.7-18.7,87.7-23.7,118.1-72c15.7-24.9,3.8-8.6-7.3,3.2c-13.8,14.5-31.2,37.8-88.3,43.5c-58.4,5.7-86.6,52.6-94,91.3
		c-3.7,19.6-40.7,34.3-40.9,34.1c-0.3-0.3,6.3-17.5,6-17.9c12.5-9.5,19-16.3,22-23.4c-1-1.8-20-44.2,0.1-86.3
		c12-25.2,33.7-38.6,61.7-48.6C190.1,107.9,217.3,102.2,246,94.5z"/>
	<path class="st2" d="M202.8,74.3c48.4-11.5,68.4-20.7,78.3-33.4c9.9-12.6,17.9-6.1,11.1,10.2c-0.3,11.8-2.8,55.5-15.1,99
		c-7.1,25.1-18.3,49.5-35.3,67.8c-17.2,18.6-39.9,30.9-68,32.1c-27.8,1.2-57.1-15.4-57.8-15.4c-1-0.1,2.9-41.5,41.2-55.7
		c37.9-14.1,63.8-18.3,85.9-54.8c11.4-18.9,2.5-6.5-6.2,2.1c-10.8,10.7-24.5,27.9-67.9,31.7c-44.6,3.9-66.6,38.4-72.7,66.9
		c-3.1,14.4-31,25.3-31.4,24.9c-0.6-0.6,4-14,3.4-14.7c8.8-7.9,13.1-13.8,14.9-20c-1.9-3.6-16.1-37.6-1.8-72.2
		c9.6-23.1,27.1-37.2,50.9-47.6C152.5,86.3,176.9,80.5,202.8,74.3z"/>
	<path class="st3" d="M159.5,54.2c37-7.2,53.8-13,64.7-18.2c7.1-8.1,14.5-1.9,11,10.2c3,11.6,2.7,45.4-5,79.7
		c-5.1,22.5-14.6,44.2-29.7,60.2c-15.3,16.2-35.7,26.7-60.3,27.6c-19.2,0.7-39.4-10.3-40.5-10.4c-1.5-0.1,0.3-27.8,25-37.5
		c24.1-9.5,39.9-13,53.8-37.6c7.2-12.8,1.2-4.5-5,1c-7.8,7-17.9,17.9-47.5,19.9c-30.7,2.1-46.5,24.2-51.3,42.4
		c-2.5,9.3-21.4,16.2-22,15.6c-1-1,1.6-10.4,0.7-11.5c5-6.3,7.2-11.4,7.7-16.7c-2.9-5.3-12.6-31.3-3.7-58.1
		c7-21.1,20.5-35.8,40.2-46.7C114.9,64.7,136.5,58.7,159.5,54.2z"/>
	<path class="st4" d="M116.2,34.1c25.5-3.3,40.4-4.2,51.1-3c5.5-2.6,11.1,2.2,11,10.1c6.2,11.3,8.7,35.4,5.1,60.5
		c-2.9,20-10.8,38.8-24.2,52.6c-13.4,13.9-31.5,22.5-52.6,23.1c-10.6,0.3-21.7-5.2-23.2-5.3c-2-0.2-2.3-14,8.7-19.3
		c10.3-5,16-7.6,21.7-20.4c2.9-6.6-0.2-2.4-3.8,0c-5,3.2-11.3,7.9-27.2,8.2c-16.9,0.2-26.4,10-30,18c-1.9,4.1-11.7,7.2-12.5,6.4
		c-1.3-1.3-0.8-6.9-1.9-8.3c1.3-4.7,1.2-8.9,0.6-13.3c-3.8-7.1-9.6-25.2-5.6-44C37.5,80,47.3,64.8,62.8,53.5
		C77.3,43,96,36.7,116.2,34.1z"/>
	<path class="st5" d="M136.5,77.5c0,17.5-7.1,33.4-18.6,44.9S90.5,141.1,73,141.1c-17.5,0-33.4-7.1-44.9-18.6S9.4,95.1,9.4,77.5
		c0-17.5,7.1-33.4,18.6-44.9S55.4,14,73,14C108.1,14,136.5,42.5,136.5,77.5z"/>
</g>
</svg>
