<?xml version="1.0" encoding="utf-8"?>
<!-- Generator: Adobe Illustrator 22.0.1, SVG Export Plug-In . SVG Version: 6.00 Build 0)  -->
<svg version="1.1" id="Layer_1" xmlns="http://www.w3.org/2000/svg" xmlns:xlink="http://www.w3.org/1999/xlink" x="0px" y="0px"
	 viewBox="0 0 164.6 181.3" style="enable-background:new 0 0 164.6 181.3;" xml:space="preserve">
<style type="text/css">
	.st0{fill:#24FFFF;}
	.st1{fill:#2E4898;stroke:#24FFFF;stroke-width:4;stroke-miterlimit:10;}
	.st2{fill:#FFFFFF;}
</style>
<ellipse class="st0" cx="82.5" cy="97.1" rx="77.1" ry="77.1"/>
<g>
	<ellipse class="st1" cx="128.7" cy="28.8" rx="22.8" ry="22.8"/>
	<g>
		<path class="st2" d="M128,47.5L128,47.5c1.2,0,2.1-0.9,2.1-2.1V12.2c0-1.2-0.9-2.1-2.1-2.1l0,0c-1.2,0-2.1,0.9-2.1,2.1v33.1
			C125.9,46.5,126.8,47.5,128,47.5z"/>
		<path class="st2" d="M146.7,28.8L146.7,28.8c0-1.2-0.9-2.1-2.1-2.1h-33.1c-1.2,0-2.1,0.9-2.1,2.1l0,0c0,1.2,0.9,2.1,2.1,2.1h33.1
			C145.7,30.9,146.7,29.9,146.7,28.8z"/>
	</g>
</g>
</svg>
