<?xml version="1.0" encoding="utf-8"?>
<!-- Generator: Adobe Illustrator 22.0.1, SVG Export Plug-In . SVG Version: 6.00 Build 0)  -->
<svg version="1.1" id="Layer_1" xmlns="http://www.w3.org/2000/svg" xmlns:xlink="http://www.w3.org/1999/xlink" x="0px" y="0px"
	 viewBox="0 0 719.2 646.5" style="enable-background:new 0 0 719.2 646.5;" xml:space="preserve">
<style type="text/css">
	.st0{opacity:0;fill:#FFFF33;}
	.st1{opacity:0.1667;fill:#FFFC2A;}
	.st2{opacity:0.3333;fill:#FFF922;}
	.st3{opacity:0.5;fill:#FFF61A;}
	.st4{opacity:0.6667;fill:#FFF311;}
	.st5{opacity:0.8333;fill:#FFF009;}
	.st6{fill:#FFED00;}
</style>
<g>
	<path class="st0" d="M636.4,555.9l-18.9-51.1c36.6-52.7,57.5-116.6,56.9-184.5l44.4-31.5L669.3,266c-12-66.9-44.4-125.8-90.2-170.8
		l9.1-53.7l-51.1,18.9C484.5,23.9,420.6,2.9,352.6,3.5l-31.5-44.4L298.4,8.6c-66.9,12-125.8,44.5-170.8,90.2l-53.7-9.1l18.9,51.1
		c-36.6,52.7-57.5,116.6-56.9,184.5l-44.4,31.5L41,379.6c12,66.9,44.5,125.8,90.2,170.8l-9.1,53.7l51.1-18.9
		c52.7,36.6,116.6,57.5,184.5,56.9l31.5,44.4l22.7-49.5c66.9-12,125.8-44.5,170.8-90.2L636.4,555.9z"/>
	<path class="st1" d="M327.8,13.5c1,0.1,28.3,37.2,29.3,37.4c60.5,0,117.4,18.2,164.6,49.7c1,0.3,44.5-15.1,45.5-14.8
		c1,0.4-5.7,45.5-4.8,45.9c42.3,39.5,72.3,90.9,83.6,149.2c0.5,1,42,20.9,41.9,21.9c-0.1,1-37.5,28.2-38.1,29.1
		c-1.1,58.9-21.9,114.1-56.8,159.2c-0.9,0.3,13.8,43.1,12.8,43.3c-1,0.2-46.7-7.2-47.8-7.1c-40.9,38.6-93.7,65.8-153.3,75.7
		c-1,0-21,41.2-22,41.1c-1-0.1-28.3-37.2-29.3-37.4c-60.5,0-117.4-18.2-164.6-49.7c-1-0.3-44.5,15.1-45.5,14.8
		c-1-0.4,5.7-45.5,4.8-45.9c-42.3-39.5-72.3-90.9-83.6-149.2c-0.5-1-42-20.9-41.9-21.9c0.1-1,37.5-28.2,38.1-29.1
		c1.1-58.9,21.9-114.1,56.8-159.2c0.9-0.3-13.8-43.1-12.8-43.3c1-0.2,46.7,7.2,47.8,7.1c40.9-38.6,93.7-65.8,153.3-75.7
		C306.8,54.6,326.7,13.4,327.8,13.5z"/>
	<path class="st2" d="M334.4,68c2.1,0.2,25.1,30,27.1,30.3c53.1,0.6,103,16.1,144.6,42.5c2,0.6,38-11.3,39.9-10.6
		c2,0.8-2.2,37.4-0.4,38.2c38.9,33.9,66.4,78,76.9,127.6c0.9,1.9,34.4,19.1,34.2,21.1c-0.2,2-30.5,24.9-31.8,26.7
		c-2.8,49.9-23.4,96.3-56.7,133.9c-1.9,0.5,8.8,35.1,6.7,35.5c-1.9,0.4-39.8-5.3-41.8-5.1c-36.7,31.4-83.5,53.4-135.9,61.1
		c-2-0.1-19.2,32.8-21.3,32.7c-2.1-0.2-25.1-30-27.1-30.3c-53.1-0.6-103-16.1-144.6-42.5c-2-0.6-38,11.3-39.9,10.6
		c-2-0.8,2.2-37.4,0.4-38.2c-38.9-33.9-66.5-78-76.9-127.6c-0.9-1.9-34.4-19.1-34.2-21.1c0.2-2,30.5-24.9,31.8-26.7
		c2.8-49.9,23.4-96.3,56.7-133.9c1.9-0.5-8.8-35.1-6.7-35.5c1.9-0.4,39.8,5.3,41.8,5.1c36.7-31.4,83.5-53.4,135.9-61.1
		C315.2,100.7,332.4,67.8,334.4,68z"/>
	<path class="st3" d="M341.1,122.4c3.1,0.3,21.9,22.8,24.9,23.2c45.7,1.1,88.6,14,124.7,35.3c3,0.9,31.5-7.5,34.2-6.5
		c3,1.1,1.2,29.2,3.9,30.4c35.4,28.4,60.6,65,70.3,106.1c1.4,2.9,26.8,17.3,26.6,20.3c-0.2,3-23.6,21.6-25.4,24.3
		c-4.5,40.9-25,78.5-56.6,108.6c-2.8,0.8,3.7,27.1,0.5,27.7c-2.9,0.6-32.8-3.5-35.9-3c-32.6,24.3-73.2,41.1-118.5,46.6
		c-3-0.1-17.5,24.5-20.6,24.2c-3.1-0.3-21.9-22.8-24.9-23.2c-45.7-1.1-88.6-14-124.7-35.3c-3-0.9-31.5,7.5-34.2,6.5
		c-3-1.1-1.2-29.2-3.9-30.4c-35.4-28.4-60.6-65-70.3-106c-1.4-2.9-26.8-17.3-26.6-20.3c0.2-3,23.6-21.6,25.4-24.3
		c4.5-40.9,25-78.5,56.6-108.6c2.8-0.8-3.7-27.1-0.5-27.7c2.9-0.6,32.8,3.5,35.9,3c32.6-24.3,73.2-41.1,118.5-46.6
		C323.6,146.7,338,122.2,341.1,122.4z"/>
	<path class="st4" d="M347.8,176.9c4.1,0.3,18.7,15.6,22.7,16.1c38.2,1.7,74.1,11.8,104.7,28.1c4,1.2,24.9-3.7,28.6-2.3
		c4,1.5,4.7,21,8.3,22.7c32,22.9,54.7,52.1,63.6,84.5c1.9,3.9,19.2,15.5,18.9,19.4c-0.3,4-16.6,18.3-19.1,21.8
		c-6.3,31.9-26.5,60.7-56.5,83.3c-3.8,1.1-1.4,19.1-5.6,19.9c-3.9,0.8-25.8-1.6-30-1c-28.5,17.1-63,28.7-101,32.1
		c-4-0.2-15.7,16.1-19.8,15.8c-4.1-0.3-18.7-15.6-22.7-16.1c-38.2-1.7-74.1-11.8-104.7-28.1c-4-1.2-24.9,3.7-28.6,2.3
		c-4-1.5-4.7-21-8.3-22.7c-32-22.9-54.7-52.1-63.6-84.5c-1.9-3.9-19.2-15.5-18.9-19.5c0.3-4,16.6-18.3,19.1-21.8
		c6.3-31.9,26.5-60.7,56.5-83.3c3.8-1.1,1.4-19.1,5.6-19.9c3.9-0.8,25.8,1.6,30,1c28.5-17.1,63-28.7,101-32.1
		C332,192.8,343.6,176.5,347.8,176.9z"/>
	<path class="st5" d="M354.4,231.3c5.2,0.4,15.5,8.3,20.5,9c30.8,2.3,59.7,9.7,84.8,20.8c5,1.6,18.4,0.1,23,1.8
		c5,1.9,8.2,12.8,12.6,14.9c28.5,17.3,48.8,39.1,57,62.9c2.4,4.9,11.7,13.6,11.3,18.6c-0.4,5-9.7,15-12.8,19.4
		c-8,22.8-28.1,42.9-56.4,58c-4.7,1.3-6.5,11.1-11.7,12.1c-4.8,1-18.8,0.3-24.1,1.1c-24.4,10-52.8,16.3-83.6,17.6
		c-5.1-0.2-14,7.8-19.1,7.3c-5.2-0.4-15.5-8.3-20.5-9c-30.8-2.3-59.7-9.7-84.7-20.8c-5-1.6-18.4-0.1-23-1.8
		c-5-1.9-8.2-12.8-12.6-14.9c-28.5-17.3-48.8-39.1-57-62.9c-2.4-4.9-11.7-13.6-11.3-18.6c0.4-5,9.6-15,12.8-19.4
		c8-22.8,28.1-42.9,56.4-58c4.7-1.3,6.5-11.1,11.7-12.1c4.8-1,18.8-0.3,24.1-1.1c24.4-10,52.8-16.3,83.6-17.6
		C340.4,238.8,349.3,230.9,354.4,231.3z"/>
	<path class="st6" d="M532.5,373.5c-3.3,40.5-85.3,67-183.3,59.1c-97.9-7.9-174.7-47.2-171.4-87.8c3.3-40.6,85.3-67,183.3-59.1
		C459,293.7,535.8,333,532.5,373.5z"/>
</g>
</svg>
