<?xml version="1.0" encoding="utf-8"?>
<!-- Generator: Adobe Illustrator 22.0.1, SVG Export Plug-In . SVG Version: 6.00 Build 0)  -->
<svg version="1.1" id="Layer_1" xmlns="http://www.w3.org/2000/svg" xmlns:xlink="http://www.w3.org/1999/xlink" x="0px" y="0px"
	 viewBox="0 0 396 196" style="enable-background:new 0 0 396 196;" xml:space="preserve">
<style type="text/css">
	.st0{opacity:0;fill:#D5FFFF;}
	.st1{opacity:0.1667;fill:#B1FFFF;}
	.st2{opacity:0.3333;fill:#8EFFFF;}
	.st3{opacity:0.5;fill:#6BFFFF;}
	.st4{opacity:0.6667;fill:#47FFFF;}
	.st5{opacity:0.8333;fill:#24FFFF;}
	.st6{fill:#00FFFF;}
</style>
<g>
	<path class="st0" d="M4.5,94.8c3.4,0,6.8,0.4,9.9,1.3C24.2,69.2,50,49.9,80.2,49.9c3.9,0,7.8,0.3,11.6,1
		C109.1,17.1,144.3-6,184.9-6c48.6,0,89.5,33.1,101.3,78c2-0.2,3.9-0.3,6-0.3c34.3,0,62.1,27.8,62.1,62.1
		c0,34.3-27.8,62.1-62.1,62.1c-15.9,0-30.4-6-41.4-15.8c-18,14.6-40.9,23.3-65.9,23.3c-25.7,0-49.2-9.3-67.4-24.6
		c-10.8,6.8-23.6,10.8-37.3,10.8c-21.1,0-40-9.4-52.8-24.1c-6.4,4.6-14.3,7.4-22.8,7.4c-21.6,0-39.1-17.5-39.1-39.1
		C-34.6,112.3-17.1,94.8,4.5,94.8z"/>
	<path class="st1" d="M192.9,6.7c43.6,0,80.2,30,90.3,70.5c1.6,0,3.3,0.1,5,0.1c28.6,1.5,51.6,24.8,51.3,54.1
		c-0.3,29.3-23.9,53.2-53.1,53.7c-13.5,0.3-25.9-4.5-35.3-12.5c-15.5,12.5-35.1,20-56.4,20.2c-22,0.2-42.1-7.5-57.9-20.2
		c-9.5,5.7-20.7,8.9-32.6,8.8c-18.3-0.2-34.8-8.3-46-21.1c-5.6,3.7-12.4,5.8-19.7,5.5c-18.5-0.5-33.6-15.8-33.8-34.5
		c-0.3-18.7,14.1-34,32.1-34.8c2.9-0.1,5.6,0.1,8.3,0.7C53.1,73.6,75,56.5,101,55.5c3.4-0.1,6.7,0,10,0.4
		C126.5,26.7,157.4,6.7,192.9,6.7z"/>
	<path class="st2" d="M200.8,19.5c38.7,0,71,26.9,79.3,63c1.3,0.1,2.6,0.4,4,0.6c22.7,3,41.1,21.7,40.5,46
		c-0.6,24.3-20.1,44.2-44.1,45.3c-11.1,0.5-21.3-3-29.3-9.1c-12.9,10.3-29.3,16.7-47,17c-18.2,0.3-35.1-5.6-48.4-15.9
		c-8.2,4.6-17.7,7.1-27.8,6.8c-15.5-0.4-29.5-7.3-39.3-18c-4.8,2.7-10.5,4.2-16.6,3.7c-15.5-1.1-28-14-28.6-29.9
		c-0.6-15.8,10.8-28.9,25.2-30.6c2.3-0.3,4.5-0.3,6.6,0C82,78.1,100.1,63,121.8,61.2c2.8-0.2,5.6-0.3,8.3-0.1
		C143.9,36.3,170.4,19.5,200.8,19.5z"/>
	<path class="st3" d="M208.7,32.2c33.7,0,61.8,23.9,68.3,55.6c1,0.3,2,0.7,3,1c16.8,4.3,30.6,18.7,29.7,37.9
		c-0.9,19.3-16.2,35.2-35,36.9c-8.7,0.8-16.8-1.5-23.2-5.8c-10.4,8.2-23.4,13.4-37.6,13.9c-14.5,0.5-28-3.8-38.9-11.5
		c-6.9,3.4-14.8,5.2-23.1,4.8c-12.8-0.6-24.3-6.2-32.5-14.9c-4,1.8-8.6,2.5-13.5,1.9c-12.4-1.6-22.5-12.3-23.4-25.3
		c-0.9-12.9,7.4-23.8,18.2-26.3c1.7-0.4,3.4-0.6,5-0.6c5.1-17.2,19.4-30.1,36.7-32.9c2.3-0.4,4.5-0.6,6.7-0.6
		C161.2,45.9,183.4,32.2,208.7,32.2z"/>
	<path class="st4" d="M216.7,44.9c28.7,0,52.6,20.8,57.3,48.1c0.7,0.4,1.4,0.9,2,1.4c11.4,3.3,20.1,15.6,18.9,29.9
		c-1.2,14.4-12.3,26.3-26,28.4c-6.3,1-12.3-0.1-17.2-2.5c-7.9,6.1-17.6,10-28.1,10.7c-10.8,0.7-20.9-2-29.4-7.2
		c-5.6,2.3-11.9,3.3-18.3,2.9c-10-0.8-19-5.2-25.7-11.9c-3.1,0.8-6.7,0.9-10.4,0.1c-9.4-2.2-16.9-10.6-18.1-20.7
		c-1.1-10,4.1-18.7,11.2-22c1.2-0.5,2.3-1,3.4-1.2c3.6-13.9,14.1-24.8,27-28.5c1.7-0.5,3.4-0.9,5.1-1.1
		C178.6,55.4,196.4,44.9,216.7,44.9z"/>
	<path class="st5" d="M224.6,57.6c23.8,0,43.4,17.7,46.3,40.6c0.4,0.6,0.7,1.2,1.1,1.8c5.7,4.1,9.5,12.6,8.1,21.8
		c-1.5,9.4-8.4,17.3-16.9,20c-3.9,1.3-7.8,1.4-11.1,0.8c-5.4,4-11.8,6.7-18.7,7.6c-7,0.8-13.9-0.2-19.9-2.8
		c-4.3,1.1-8.9,1.5-13.6,0.9c-7.2-0.9-13.8-4.2-18.9-8.8c-2.3-0.1-4.8-0.7-7.3-1.8c-6.3-2.7-11.4-8.9-12.9-16.1
		c-1.4-7.1,0.8-13.7,4.3-17.8c0.6-0.7,1.2-1.3,1.7-1.8c2-10.7,8.7-19.5,17.4-24.1c1.2-0.6,2.3-1.2,3.5-1.7
		C195.9,65,209.4,57.6,224.6,57.6z"/>
	<circle class="st6" cx="232.5" cy="105.8" r="35.4"/>
</g>
</svg>
