<?xml version="1.0" encoding="utf-8"?>
<!-- Generator: Adobe Illustrator 22.0.1, SVG Export Plug-In . SVG Version: 6.00 Build 0)  -->
<svg version="1.1" id="Layer_1" xmlns="http://www.w3.org/2000/svg" xmlns:xlink="http://www.w3.org/1999/xlink" x="0px" y="0px"
	 viewBox="0 0 645 598" style="enable-background:new 0 0 645 598;" xml:space="preserve">
<style type="text/css">
	.st0{opacity:0;fill:#27A5DC;}
	.st1{opacity:0.1667;fill:#408EBF;stroke:#9680B9;stroke-width:0.2758;stroke-miterlimit:10;}
	.st2{opacity:0.3333;fill:#5978A2;stroke:#9680B9;stroke-width:0.5515;stroke-miterlimit:10;}
	.st3{opacity:0.5;fill:#736285;stroke:#9680B9;stroke-width:0.8273;stroke-miterlimit:10;}
	.st4{opacity:0.6667;fill:#8C4B67;stroke:#9680B9;stroke-width:1.1031;stroke-miterlimit:10;}
	.st5{opacity:0.8333;fill:#A5354A;stroke:#9680B9;stroke-width:1.3788;stroke-miterlimit:10;}
	.st6{fill:#BE1E2D;stroke:#9680B9;stroke-width:1.6546;stroke-miterlimit:10;}
</style>
<g>
	<path class="st0" d="M581.6,256.8c0,184.5-149.5,334-334,334c-184.5,0-334-149.5-334-334c0-184.5,149.5-334,334-334
		C432.1-77.2,581.6,72.3,581.6,256.8z"/>
	<path class="st1" d="M590.7,299.1C590.7,460.3,460,591,298.8,591C137.6,591,7,460.3,7,299.1C7,137.9,137.6,7.3,298.8,7.3
		C460,7.3,590.7,137.9,590.7,299.1z"/>
	
		<ellipse transform="matrix(0.7071 -0.7071 0.7071 0.7071 -138.8942 347.4952)" class="st2" cx="350" cy="341.4" rx="249.7" ry="249.7"/>
	
		<ellipse transform="matrix(0.7071 -0.7071 0.7071 0.7071 -153.814 396.0824)" class="st3" cx="401.2" cy="383.7" rx="207.6" ry="207.6"/>
	
		<ellipse transform="matrix(0.9917 -0.1288 0.1288 0.9917 -51.0909 61.8011)" class="st4" cx="452.4" cy="426" rx="165.4" ry="165.4"/>
	<path class="st5" d="M626.9,468.3c0,68.1-55.2,123.3-123.3,123.3c-68.1,0-123.3-55.2-123.3-123.3c0-68.1,55.2-123.3,123.3-123.3
		C571.7,345,626.9,400.2,626.9,468.3z"/>
	<path class="st6" d="M635.9,510.6c0,44.8-36.3,81.1-81.1,81.1c-44.8,0-81.1-36.3-81.1-81.1c0-44.8,36.3-81.1,81.1-81.1
		C599.6,429.5,635.9,465.8,635.9,510.6z"/>
</g>
</svg>
