<?xml version="1.0" encoding="utf-8"?>
<!-- Generator: Adobe Illustrator 16.0.0, SVG Export Plug-In . SVG Version: 6.00 Build 0)  -->
<!DOCTYPE svg PUBLIC "-//W3C//DTD SVG 1.1//EN" "http://www.w3.org/Graphics/SVG/1.1/DTD/svg11.dtd">
<svg version="1.1" id="Layer_1" xmlns="http://www.w3.org/2000/svg" xmlns:xlink="http://www.w3.org/1999/xlink" x="0px" y="0px"
	 width="451.079px" height="524.461px" viewBox="0 0 451.079 524.461" enable-background="new 0 0 451.079 524.461"
	 xml:space="preserve">
<path fill="#BEEFEF" d="M322.335,228.798c2.814-9.19,4.361-18.934,4.361-29.053c0-54.625-44.053-98.908-98.393-98.908
	c-53.95,0-97.738,43.658-98.364,97.743c-55.09,7.232-97.629,54.329-97.629,111.391c0,62.074,50.318,112.39,112.389,112.39
	c34.33,0,65.048-15.413,85.661-39.674c14.022,9.081,30.727,14.376,48.679,14.376c49.539,0,89.698-40.162,89.698-89.701
	C368.737,273.524,349.996,244.074,322.335,228.798"/>
<g>
	<g>
		<defs>
			<rect id="SVGID_1_" x="198.797" y="208.584" width="246.888" height="246.885"/>
		</defs>
		<clipPath id="SVGID_2_">
			<use xlink:href="#SVGID_1_"  overflow="visible"/>
		</clipPath>
		<path clip-path="url(#SVGID_2_)" fill="#BEEFEF" d="M377.049,221.416c2.967,1.472,5.867,3.047,8.694,4.746
			C383.259,223.906,380.375,222.211,377.049,221.416"/>
		<path clip-path="url(#SVGID_2_)" fill="#BEEFEF" d="M250.694,368.245c-3.035-1.051-6.009-2.322-8.895-3.813
			c-0.962,3.063-2.167,6.062-3.576,8.986c2.979,0.947,5.901,2.119,8.754,3.488C248.007,373.95,249.249,371.06,250.694,368.245"/>
		<path clip-path="url(#SVGID_2_)" fill="#BEEFEF" d="M267.581,324.052c-5.316,1.3-7.394,4.979-6.23,11.038
			c3.221,0.738,6.456,0.957,9.699,0.642c6.164-0.306,12.12-2.12,17.805-4.423c3.803-1.538,7.494-3.334,11.132-5.26
			C289.591,321.438,277.966,319.812,267.581,324.052"/>
		<path clip-path="url(#SVGID_2_)" fill="#BEEFEF" d="M318.916,382.87c1.298,5.313,4.979,7.395,11.037,6.231
			c0.739-3.221,0.955-6.459,0.641-9.702c-0.305-6.161-2.118-12.121-4.423-17.803c-1.539-3.802-3.335-7.493-5.259-11.13
			C316.301,360.861,314.676,372.483,318.916,382.87"/>
		<path clip-path="url(#SVGID_2_)" fill="#BEEFEF" d="M327.636,271.289c-1.299-5.316-4.979-7.393-11.037-6.229
			c-0.739,3.223-0.954,6.455-0.64,9.697c0.303,6.167,2.117,12.125,4.422,17.808c1.539,3.8,3.335,7.494,5.259,11.129
			C330.249,293.298,331.879,281.678,327.636,271.289"/>
		<path clip-path="url(#SVGID_2_)" fill="#BEEFEF" d="M322.347,321.028c-1.993,2.518-4.173,4.91-6.524,7.146
			c2.574,1.92,5.014,4.041,7.312,6.334c1.868-2.505,3.938-4.879,6.166-7.122C326.851,325.44,324.525,323.321,322.347,321.028"/>
		<path clip-path="url(#SVGID_2_)" fill="#BEEFEF" d="M229.836,317.521c-2.976-4.595-7.132-5.346-12.475-2.256
			c0.361,3.283,1.222,6.405,2.585,9.366c2.314,5.727,5.983,10.755,10.026,15.366c2.705,3.083,5.615,5.979,8.627,8.783
			C239.538,337.443,237.258,325.936,229.836,317.521"/>
		<path clip-path="url(#SVGID_2_)" fill="#BEEFEF" d="M213.64,385.196c3.082-2.705,5.982-5.613,8.78-8.627
			c-5.054-0.417-10.143-0.196-14.976,0.839c1.277,3.225,2.675,6.389,4.21,9.473C212.326,386.329,212.986,385.767,213.64,385.196"/>
		<path clip-path="url(#SVGID_2_)" fill="#BEEFEF" d="M299.407,356.891c4.593-2.972,5.348-7.131,2.257-12.471
			c-3.286,0.359-6.411,1.22-9.369,2.583c-5.724,2.314-10.754,5.981-15.36,10.029c-3.086,2.702-5.987,5.613-8.786,8.625
			C279.482,366.595,290.988,364.312,299.407,356.891"/>
		<path clip-path="url(#SVGID_2_)" fill="#BEEFEF" d="M258.277,425.766c2.975,4.594,7.133,5.346,12.473,2.255
			c-0.356-3.285-1.221-6.409-2.584-9.369c-2.314-5.724-5.982-10.752-10.026-15.365c-2.703-3.081-5.615-5.98-8.626-8.78
			C248.574,405.84,250.858,417.347,258.277,425.766"/>
		<path clip-path="url(#SVGID_2_)" fill="#BEEFEF" d="M373.86,240.03c2.313,5.722,5.981,10.753,10.029,15.362
			c2.7,3.083,5.612,5.985,8.623,8.785c0.938-11.336-1.346-22.845-8.765-31.26c-2.972-4.595-7.133-5.346-12.474-2.258
			C371.633,233.946,372.497,237.071,373.86,240.03"/>
		<path clip-path="url(#SVGID_2_)" fill="#BEEFEF" d="M412.192,341.163c2.975,4.591,7.13,5.346,12.47,2.254
			c-0.359-3.283-1.22-6.406-2.58-9.366c-2.314-5.725-5.987-10.754-10.029-15.366c-2.705-3.083-5.612-5.979-8.626-8.781
			C402.49,321.237,404.771,332.747,412.192,341.163"/>
		<path clip-path="url(#SVGID_2_)" fill="#BEEFEF" d="M396.341,244.703c2.337,8.076,2.836,16.363,1.748,24.459
			c3.734,3.227,7.545,6.373,11.296,9.532c1.733,0.5,3.499,0.939,5.286,1.301c3.961-4.518,8.123-8.903,12.632-12.775
			c-10.37-16.778-24.644-30.889-41.56-41.06C391.023,230.956,394.473,238.25,396.341,244.703"/>
		<path clip-path="url(#SVGID_2_)" fill="#BEEFEF" d="M345.074,300.731c-4.593,2.975-5.346,7.134-2.257,12.474
			c3.287-0.358,6.41-1.221,9.372-2.582c5.723-2.313,10.751-5.984,15.361-10.029c3.082-2.703,5.984-5.611,8.784-8.626
			C365,291.029,353.492,293.316,345.074,300.731"/>
		<path clip-path="url(#SVGID_2_)" fill="#BEEFEF" d="M395.711,279.83c-0.961,3.061-2.165,6.065-3.574,8.988
			c2.981,0.944,5.904,2.116,8.752,3.485c1.032-2.953,2.274-5.849,3.722-8.66C401.573,282.593,398.602,281.321,395.711,279.83"/>
		<path clip-path="url(#SVGID_2_)" fill="#BEEFEF" d="M422.061,281.055c4.178,0.348,8.373,0.245,12.433-0.377
			c-1.239-2.701-2.548-5.36-3.975-7.951C427.561,275.347,424.764,278.148,422.061,281.055"/>
		<path clip-path="url(#SVGID_2_)" fill="#BEEFEF" d="M297.839,306.61c2.972,4.594,7.134,5.346,12.474,2.257
			c-0.358-3.283-1.221-6.406-2.586-9.369c-2.314-5.725-5.98-10.753-10.026-15.362c-2.702-3.084-5.614-5.982-8.624-8.785
			C288.137,286.688,290.42,298.195,297.839,306.61"/>
		<path clip-path="url(#SVGID_2_)" fill="#BEEFEF" d="M230.723,266.182c-4.592,2.975-5.346,7.131-2.255,12.471
			c3.284-0.357,6.409-1.218,9.366-2.581c5.724-2.315,10.755-5.986,15.363-10.027c3.08-2.705,5.981-5.615,8.785-8.627
			C250.647,256.479,239.139,258.764,230.723,266.182"/>
		<path clip-path="url(#SVGID_2_)" fill="#BEEFEF" d="M379.163,332.775c5.313-1.302,7.392-4.982,6.229-11.04
			c-3.22-0.739-6.458-0.953-9.699-0.641c-6.164,0.304-12.122,2.118-17.805,4.422c-3.8,1.54-7.495,3.336-11.132,5.259
			C357.154,335.389,368.775,337.016,379.163,332.775"/>
		<path clip-path="url(#SVGID_2_)" fill="#BEEFEF" d="M338.968,237.739c4.595-2.973,5.346-7.132,2.257-12.472
			c-3.287,0.359-6.41,1.221-9.371,2.583c-5.72,2.314-10.751,5.983-15.36,10.027c-3.084,2.704-5.983,5.614-8.782,8.626
			C319.043,247.441,330.55,245.157,338.968,237.739"/>
		<path clip-path="url(#SVGID_2_)" fill="#BEEFEF" d="M281.361,245.279c-0.967,3.062-2.166,6.063-3.58,8.987
			c2.982,0.946,5.906,2.118,8.755,3.485c1.032-2.953,2.273-5.846,3.719-8.658C287.221,248.041,284.246,246.77,281.361,245.279"/>
		<path clip-path="url(#SVGID_2_)" fill="#BEEFEF" d="M269.534,220.843c2.706,3.082,5.614,5.983,8.628,8.781
			c0.353-4.28,0.242-8.583-0.428-12.737c-2.877,1.112-5.709,2.312-8.48,3.627C269.35,220.624,269.441,220.734,269.534,220.843"/>
		<path clip-path="url(#SVGID_2_)" fill="#BEEFEF" d="M309.396,416.679c-4.592,2.973-5.347,7.131-2.255,12.473
			c3.284-0.359,6.407-1.221,9.365-2.584c5.727-2.314,10.754-5.985,15.364-10.029c3.087-2.702,5.982-5.612,8.785-8.624
			C329.319,406.976,317.81,409.258,309.396,416.679"/>
		<path clip-path="url(#SVGID_2_)" fill="#BEEFEF" d="M348.068,348.862c-2.976-4.592-7.131-5.347-12.472-2.256
			c0.359,3.284,1.22,6.409,2.581,9.366c2.313,5.721,5.984,10.755,10.029,15.366c2.705,3.077,5.611,5.979,8.627,8.783
			C357.769,368.786,355.488,357.277,348.068,348.862"/>
		<path clip-path="url(#SVGID_2_)" fill="#BEEFEF" d="M376.371,434.629c-2.703-3.081-5.613-5.98-8.625-8.779
			c-0.568,6.854,0.046,13.773,2.264,20.03c3.796-1.592,7.496-3.368,11.089-5.318C379.63,438.503,378.039,436.527,376.371,434.629"/>
		<path clip-path="url(#SVGID_2_)" fill="#BEEFEF" d="M417.078,286.628c-3.39,3.918-6.679,7.922-9.996,11.85
			c-0.558,0.663-1.232,0.986-1.921,1.078c-0.245,0.979-0.475,1.965-0.675,2.959c10.074,8.821,19.502,18.672,23.996,31.07
			c2.917,8.029,4.601,21.169-7.918,19.413c-11.424-1.6-18.076-13.634-20.967-23.622c-2.336-8.074-2.832-16.359-1.745-24.455
			c-3.919-3.391-7.921-6.682-11.85-9.993c-0.568-0.481-0.894-1.046-1.035-1.63c-0.415-0.093-0.828-0.188-1.243-0.27
			c-8.823,10.071-18.676,19.501-31.071,23.996c-8.033,2.913-21.168,4.601-19.414-7.92c1.603-11.421,13.634-18.072,23.622-20.966
			c8.074-2.335,16.362-2.833,24.459-1.747c3.123-3.608,6.165-7.288,9.217-10.92c0.343-1.287,0.648-2.588,0.918-3.902
			c-10.074-8.825-19.501-18.679-23.999-31.074c-2.913-8.028-4.6-21.169,7.921-19.414c0.572,0.081,1.124,0.205,1.672,0.335
			c-16.515-8.199-35.117-12.833-54.805-12.833c-13.676,0-26.812,2.255-39.103,6.358c1.306,6.542,1.47,13.166,0.594,19.666
			c3.738,3.233,7.546,6.376,11.301,9.535c1.728,0.501,3.493,0.938,5.286,1.302c8.817-10.075,18.672-19.502,31.063-23.996
			c8.033-2.915,21.173-4.602,19.417,7.917c-1.6,11.42-13.631,18.073-23.621,20.967c-8.072,2.335-16.36,2.834-24.457,1.745
			c-3.39,3.917-6.678,7.92-9.992,11.848c-0.561,0.662-1.232,0.988-1.924,1.079c-0.243,0.979-0.473,1.962-0.679,2.957
			c10.077,8.821,19.504,18.678,24.002,31.069c2.912,8.03,4.597,21.173-7.92,19.417c-11.421-1.6-18.075-13.637-20.966-23.622
			c-2.339-8.072-2.837-16.362-1.744-24.459c-3.922-3.386-7.924-6.677-11.852-9.992c-0.567-0.48-0.894-1.043-1.035-1.628
			c-0.412-0.092-0.828-0.187-1.243-0.272c-8.823,10.073-18.674,19.499-31.069,23.998c-8.031,2.913-21.172,4.6-19.416-7.918
			c1.6-11.422,13.634-18.075,23.62-20.965c8.078-2.339,16.363-2.834,24.458-1.748c3.125-3.61,6.166-7.291,9.216-10.919
			c0.346-1.288,0.655-2.589,0.922-3.908c-4.835-4.236-9.511-8.717-13.574-13.597c-38.549,20.885-64.729,61.687-64.729,108.61
			c0,14.024,2.371,27.488,6.681,40.054c7.269-1.755,14.674-2.06,21.926-1.087c3.122-3.609,6.163-7.289,9.217-10.92
			c0.343-1.287,0.652-2.591,0.92-3.905c-10.074-8.824-19.502-18.675-24-31.07c-2.911-8.029-4.597-21.172,7.923-19.417
			c11.419,1.602,18.073,13.636,20.963,23.622c2.339,8.075,2.833,16.363,1.746,24.457c3.734,3.232,7.547,6.374,11.301,9.535
			c1.727,0.5,3.492,0.94,5.283,1.304c8.823-10.074,18.674-19.502,31.071-24c8.03-2.911,21.17-4.599,19.413,7.921
			c-1.598,11.421-13.634,18.074-23.619,20.964c-8.076,2.336-16.367,2.836-24.458,1.746c-3.389,3.918-6.68,7.924-9.995,11.852
			c-0.559,0.66-1.235,0.984-1.921,1.076c-0.246,0.979-0.474,1.962-0.678,2.961c10.075,8.817,19.501,18.673,23.999,31.064
			c2.913,8.029,4.599,21.173-7.921,19.417c-11.42-1.601-18.072-13.635-20.966-23.622c-2.335-8.072-2.834-16.36-1.746-24.458
			c-3.917-3.388-7.918-6.677-11.846-9.99c-0.568-0.483-0.896-1.047-1.037-1.631c-0.413-0.091-0.827-0.188-1.245-0.271
			c-4.69,5.357-9.669,10.535-15.17,14.878c21.161,37.573,61.405,62.966,107.604,62.966c14.939,0,29.264-2.66,42.516-7.521
			c-0.304-0.885-0.591-1.767-0.841-2.629c-2.34-8.073-2.836-16.364-1.747-24.458c-3.914-3.389-7.922-6.679-11.849-9.995
			c-0.568-0.478-0.896-1.042-1.035-1.627c-0.413-0.092-0.828-0.185-1.245-0.271c-8.821,10.076-18.674,19.501-31.069,23.999
			c-8.029,2.913-21.172,4.6-19.417-7.922c1.603-11.419,13.637-18.071,23.621-20.961c8.076-2.342,16.363-2.838,24.46-1.75
			c3.123-3.605,6.165-7.288,9.217-10.92c0.344-1.288,0.655-2.588,0.921-3.905c-10.077-8.823-19.505-18.679-23.998-31.069
			c-1.924-5.307-3.287-12.822-0.396-16.821c-1.499,0.901-2.999,1.798-4.498,2.685c-0.638,0.379-1.276,0.506-1.873,0.445
			c-0.224,0.358-0.451,0.718-0.67,1.087c6.618,11.642,12.279,24.045,12.453,37.23c0.111,8.543-2.614,21.508-13.864,15.733
			c-10.257-5.265-12.586-18.819-12.034-29.201c0.451-8.395,2.702-16.386,6.395-23.671c-2.385-4.138-4.859-8.221-7.285-12.295
			c-1.103-0.749-2.23-1.47-3.388-2.153c-11.646,6.614-24.049,12.276-37.234,12.448c-8.54,0.114-21.505-2.613-15.73-13.861
			c5.264-10.26,18.816-12.588,29.199-12.033c8.396,0.447,16.385,2.702,23.673,6.389c4.28-2.464,8.5-5.034,12.716-7.535
			c1.043-1.471,2.036-2.994,2.972-4.566c-6.618-11.644-12.277-24.045-12.452-37.231c-0.112-8.541,2.613-21.503,13.864-15.729
			c10.258,5.264,12.585,18.816,12.034,29.198c-0.451,8.396-2.703,16.384-6.392,23.672c2.584,4.491,5.286,8.914,7.906,13.336
			c0.438,0.744,0.523,1.491,0.387,2.167c0.843,0.554,1.694,1.096,2.569,1.614c11.643-6.616,24.045-12.277,37.231-12.453
			c8.543-0.11,21.502,2.617,15.732,13.865c-5.263,10.259-18.817,12.588-29.201,12.033c-8.394-0.447-16.384-2.699-23.67-6.394
			c-1.496,0.863-2.988,1.738-4.472,2.616c1.125-0.188,2.426-0.205,3.946,0.007c11.418,1.603,18.073,13.638,20.967,23.626
			c2.335,8.076,2.832,16.36,1.747,24.455c3.735,3.233,7.546,6.376,11.299,9.531c1.728,0.503,3.493,0.942,5.283,1.307
			c8.826-10.078,18.677-19.503,31.068-23.996c8.029-2.917,21.171-4.602,19.42,7.916c-1.604,11.42-13.638,18.075-23.624,20.965
			c-8.074,2.339-16.362,2.836-24.457,1.749c-3.39,3.918-6.68,7.919-9.993,11.847c-0.56,0.659-1.235,0.986-1.923,1.077
			c-0.245,0.979-0.477,1.966-0.681,2.957c6.572,5.752,12.846,11.952,17.676,18.998c35.505-21.682,59.21-60.781,59.21-105.427
			c0-16.269-3.178-31.781-8.896-46.003C430.236,287.34,423.595,287.507,417.078,286.628"/>
		<path clip-path="url(#SVGID_2_)" fill="#BEEFEF" d="M360.035,395.774c-0.969,3.062-2.169,6.062-3.582,8.984
			c2.982,0.948,5.905,2.119,8.756,3.488c1.033-2.956,2.273-5.848,3.719-8.659C365.894,398.536,362.919,397.265,360.035,395.774"/>
		<path clip-path="url(#SVGID_2_)" fill="#BEEFEF" d="M417.641,388.232c4.593-2.972,5.347-7.13,2.258-12.472
			c-3.287,0.359-6.412,1.221-9.372,2.584c-5.722,2.314-10.751,5.982-15.361,10.029c-3.083,2.702-5.984,5.612-8.784,8.624
			C397.716,397.937,409.224,395.653,417.641,388.232"/>
		<path clip-path="url(#SVGID_2_)" fill="#BEEFEF" d="M331.381,339.62c1.451-0.868,2.907-1.737,4.368-2.604
			C333.733,337.358,332.338,338.306,331.381,339.62"/>
	</g>
</g>
<g>
	<g>
		<defs>
			<rect id="SVGID_3_" x="4.695" y="31.809" width="317.896" height="317.899"/>
		</defs>
		<clipPath id="SVGID_4_">
			<use xlink:href="#SVGID_3_"  overflow="visible"/>
		</clipPath>
		<path clip-path="url(#SVGID_4_)" fill="#BEEFEF" d="M234.217,48.338c3.812,1.895,7.554,3.922,11.191,6.108
			C242.21,51.545,238.49,49.362,234.217,48.338"/>
		<path clip-path="url(#SVGID_4_)" fill="#BEEFEF" d="M71.518,237.396c-3.906-1.353-7.734-2.993-11.451-4.909
			c-1.244,3.941-2.793,7.808-4.606,11.571c3.838,1.219,7.602,2.725,11.267,4.487C68.058,244.743,69.655,241.018,71.518,237.396"/>
		<path clip-path="url(#SVGID_4_)" fill="#BEEFEF" d="M93.262,180.494c-6.846,1.671-9.519,6.407-8.024,14.212
			c4.148,0.952,8.313,1.227,12.488,0.82c7.938-0.388,15.607-2.722,22.929-5.691c4.89-1.982,9.649-4.291,14.332-6.77
			C121.598,177.127,106.636,175.033,93.262,180.494"/>
		<path clip-path="url(#SVGID_4_)" fill="#BEEFEF" d="M159.359,256.227c1.673,6.846,6.41,9.519,14.215,8.024
			c0.951-4.15,1.228-8.312,0.821-12.489c-0.39-7.938-2.724-15.607-5.692-22.925c-1.983-4.894-4.292-9.652-6.771-14.334
			C155.994,227.89,153.9,242.853,159.359,256.227"/>
		<path clip-path="url(#SVGID_4_)" fill="#BEEFEF" d="M170.59,112.555c-1.673-6.845-6.41-9.518-14.214-8.024
			c-0.952,4.149-1.227,8.313-0.821,12.489c0.388,7.938,2.723,15.609,5.691,22.929c1.982,4.89,4.292,9.649,6.77,14.331
			C173.956,140.891,176.05,125.929,170.59,112.555"/>
		<path clip-path="url(#SVGID_4_)" fill="#BEEFEF" d="M163.776,176.599c-2.564,3.242-5.368,6.321-8.402,9.201
			c3.315,2.47,6.456,5.205,9.416,8.153c2.411-3.222,5.073-6.281,7.941-9.17C169.579,182.282,166.584,179.546,163.776,176.599"/>
		<path clip-path="url(#SVGID_4_)" fill="#BEEFEF" d="M44.66,172.081c-3.832-5.913-9.183-6.881-16.062-2.906
			c0.464,4.233,1.576,8.255,3.33,12.065c2.979,7.368,7.703,13.845,12.913,19.782c3.48,3.969,7.226,7.704,11.106,11.309
			C57.151,197.736,54.213,182.917,44.66,172.081"/>
		<path clip-path="url(#SVGID_4_)" fill="#BEEFEF" d="M23.805,259.222c3.968-3.479,7.702-7.227,11.306-11.105
			c-6.505-0.539-13.057-0.254-19.282,1.075c1.644,4.156,3.447,8.228,5.422,12.202C22.112,260.679,22.964,259.96,23.805,259.222"/>
		<path clip-path="url(#SVGID_4_)" fill="#BEEFEF" d="M134.242,222.777c5.913-3.831,6.884-9.181,2.906-16.062
			c-4.233,0.464-8.254,1.575-12.065,3.33c-7.368,2.979-13.845,7.706-19.783,12.912c-3.967,3.482-7.703,7.227-11.307,11.108
			C108.588,235.27,123.405,232.333,134.242,222.777"/>
		<path clip-path="url(#SVGID_4_)" fill="#BEEFEF" d="M81.284,311.46c3.83,5.912,9.181,6.879,16.061,2.905
			c-0.465-4.234-1.574-8.255-3.331-12.065c-2.979-7.369-7.703-13.846-12.913-19.783c-3.479-3.967-7.226-7.702-11.106-11.307
			C68.791,285.804,71.729,300.625,81.284,311.46"/>
		<path clip-path="url(#SVGID_4_)" fill="#BEEFEF" d="M230.109,72.305c2.977,7.369,7.703,13.847,12.913,19.784
			c3.478,3.968,7.226,7.702,11.104,11.307c1.207-14.592-1.731-29.413-11.289-40.25c-3.824-5.913-9.181-6.88-16.059-2.904
			C227.243,64.472,228.354,68.494,230.109,72.305"/>
		<path clip-path="url(#SVGID_4_)" fill="#BEEFEF" d="M279.465,202.524c3.831,5.915,9.182,6.883,16.06,2.907
			c-0.463-4.233-1.575-8.254-3.329-12.067c-2.978-7.368-7.705-13.845-12.912-19.782c-3.48-3.967-7.229-7.702-11.107-11.308
			C266.97,176.87,269.908,191.688,279.465,202.524"/>
		<path clip-path="url(#SVGID_4_)" fill="#BEEFEF" d="M259.055,78.321c3.009,10.397,3.65,21.069,2.248,31.49
			c4.812,4.161,9.721,8.209,14.551,12.275c2.228,0.645,4.501,1.21,6.805,1.68c5.095-5.818,10.458-11.465,16.262-16.45
			c-13.354-21.607-31.732-39.777-53.512-52.87C252.206,60.621,256.646,70.013,259.055,78.321"/>
		<path clip-path="url(#SVGID_4_)" fill="#BEEFEF" d="M193.044,150.466c-5.913,3.831-6.881,9.184-2.905,16.062
			c4.233-0.464,8.254-1.576,12.065-3.33c7.368-2.979,13.844-7.704,19.783-12.914c3.967-3.479,7.703-7.227,11.305-11.103
			C218.697,137.975,203.881,140.912,193.044,150.466"/>
		<path clip-path="url(#SVGID_4_)" fill="#BEEFEF" d="M258.245,123.551c-1.239,3.945-2.786,7.808-4.606,11.571
			c3.84,1.219,7.605,2.726,11.271,4.486c1.332-3.798,2.927-7.526,4.787-11.148C265.791,127.106,261.96,125.47,258.245,123.551"/>
		<path clip-path="url(#SVGID_4_)" fill="#BEEFEF" d="M292.172,125.129c5.379,0.445,10.779,0.317,16.006-0.486
			c-1.592-3.48-3.281-6.901-5.113-10.24C299.251,117.777,295.649,121.389,292.172,125.129"/>
		<path clip-path="url(#SVGID_4_)" fill="#BEEFEF" d="M132.222,158.036c3.831,5.913,9.183,6.884,16.062,2.906
			c-0.464-4.234-1.574-8.255-3.33-12.066c-2.979-7.368-7.705-13.844-12.913-19.78c-3.479-3.97-7.225-7.705-11.105-11.309
			C119.73,132.381,122.668,147.199,132.222,158.036"/>
		<path clip-path="url(#SVGID_4_)" fill="#BEEFEF" d="M45.802,105.979c-5.914,3.83-6.885,9.181-2.906,16.061
			c4.233-0.464,8.256-1.574,12.066-3.33c7.369-2.979,13.844-7.704,19.783-12.912c3.966-3.48,7.703-7.227,11.308-11.107
			C71.457,93.486,56.639,96.423,45.802,105.979"/>
		<path clip-path="url(#SVGID_4_)" fill="#BEEFEF" d="M236.933,191.722c6.845-1.671,9.519-6.409,8.025-14.213
			c-4.149-0.951-8.314-1.226-12.489-0.821c-7.938,0.39-15.609,2.724-22.93,5.691c-4.889,1.982-9.647,4.292-14.33,6.771
			C208.597,195.089,223.56,197.183,236.933,191.722"/>
		<path clip-path="url(#SVGID_4_)" fill="#BEEFEF" d="M185.181,69.355c5.913-3.831,6.883-9.183,2.907-16.061
			c-4.235,0.464-8.256,1.574-12.067,3.329c-7.368,2.98-13.844,7.705-19.781,12.913c-3.968,3.479-7.702,7.227-11.308,11.107
			C159.526,81.846,174.344,78.909,185.181,69.355"/>
		<path clip-path="url(#SVGID_4_)" fill="#BEEFEF" d="M111.004,79.063c-1.24,3.944-2.79,7.806-4.606,11.571
			c3.838,1.217,7.602,2.725,11.27,4.486c1.33-3.8,2.927-7.527,4.79-11.149C118.55,82.618,114.72,80.982,111.004,79.063"/>
		<path clip-path="url(#SVGID_4_)" fill="#BEEFEF" d="M95.778,47.599c3.482,3.968,7.226,7.702,11.106,11.307
			c0.456-5.511,0.315-11.051-0.548-16.4c-3.705,1.433-7.354,2.973-10.921,4.673C95.54,47.318,95.656,47.46,95.778,47.599"/>
		<path clip-path="url(#SVGID_4_)" fill="#BEEFEF" d="M147.102,299.757c-5.915,3.833-6.884,9.184-2.907,16.062
			c4.233-0.463,8.256-1.574,12.067-3.329c7.368-2.978,13.843-7.705,19.782-12.912c3.967-3.478,7.703-7.229,11.308-11.104
			C172.756,287.265,157.939,290.204,147.102,299.757"/>
		<path clip-path="url(#SVGID_4_)" fill="#BEEFEF" d="M196.898,212.438c-3.831-5.915-9.184-6.886-16.062-2.907
			c0.464,4.233,1.574,8.256,3.329,12.067c2.979,7.368,7.702,13.842,12.912,19.78c3.48,3.968,7.228,7.706,11.108,11.309
			C209.389,238.092,206.453,223.274,196.898,212.438"/>
		<path clip-path="url(#SVGID_4_)" fill="#BEEFEF" d="M233.342,322.874c-3.48-3.969-7.226-7.701-11.106-11.308
			c-0.729,8.827,0.062,17.737,2.911,25.796c4.892-2.055,9.658-4.335,14.285-6.851C237.536,327.861,235.486,325.321,233.342,322.874"
			/>
		<path clip-path="url(#SVGID_4_)" fill="#BEEFEF" d="M285.756,132.308c-4.365,5.042-8.6,10.2-12.87,15.256
			c-0.716,0.851-1.588,1.269-2.472,1.388c-0.315,1.259-0.613,2.527-0.872,3.806c12.971,11.361,25.108,24.05,30.899,40.006
			c3.752,10.341,5.922,27.259-10.197,25c-14.706-2.061-23.274-17.558-26.995-30.417c-3.011-10.397-3.652-21.066-2.25-31.489
			c-5.041-4.365-10.198-8.602-15.254-12.872c-0.732-0.615-1.153-1.343-1.335-2.094c-0.534-0.12-1.064-0.242-1.604-0.351
			c-11.359,12.974-24.043,25.111-40.004,30.9c-10.339,3.754-27.259,5.922-25.002-10.197c2.062-14.703,17.558-23.272,30.418-26.996
			c10.397-3.009,21.069-3.649,31.495-2.248c4.02-4.647,7.937-9.387,11.865-14.062c0.439-1.656,0.839-3.333,1.184-5.029
			c-12.973-11.36-25.108-24.047-30.9-40.006c-3.749-10.341-5.922-27.26,10.201-25c0.737,0.103,1.446,0.265,2.153,0.435
			c-21.27-10.561-45.219-16.525-70.574-16.525c-17.604,0-34.52,2.903-50.347,8.188c1.684,8.422,1.893,16.951,0.766,25.321
			c4.81,4.162,9.718,8.207,14.551,12.275c2.224,0.645,4.5,1.208,6.803,1.678c11.359-12.972,24.046-25.111,40.005-30.9
			c10.343-3.752,27.26-5.922,25.002,10.197c-2.062,14.704-17.558,23.271-30.417,26.996c-10.397,3.009-21.069,3.65-31.491,2.248
			c-4.365,5.046-8.601,10.2-12.872,15.257c-0.716,0.852-1.586,1.268-2.472,1.388c-0.318,1.261-0.611,2.529-0.873,3.809
			c12.975,11.36,25.112,24.047,30.9,40.005c3.754,10.342,5.922,27.26-10.196,25c-14.704-2.061-23.272-17.556-26.996-30.416
			c-3.01-10.399-3.649-21.069-2.248-31.492c-5.042-4.364-10.2-8.6-15.256-12.87c-0.732-0.615-1.152-1.344-1.333-2.095
			c-0.533-0.12-1.064-0.242-1.602-0.351c-11.36,12.973-24.047,25.112-40.005,30.9c-10.341,3.753-27.259,5.922-25-10.197
			c2.06-14.703,17.557-23.27,30.417-26.995c10.396-3.009,21.066-3.65,31.489-2.247c4.022-4.648,7.939-9.388,11.87-14.064
			c0.441-1.656,0.839-3.333,1.185-5.03c-6.23-5.454-12.247-11.222-17.479-17.506C38.405,77.804,4.695,130.343,4.695,190.761
			c0,18.059,3.055,35.396,8.604,51.574c9.36-2.263,18.893-2.655,28.23-1.396c4.021-4.652,7.938-9.392,11.87-14.063
			c0.441-1.658,0.839-3.335,1.184-5.029c-12.973-11.359-25.112-24.047-30.9-40.009c-3.753-10.338-5.922-27.259,10.197-24.998
			c14.705,2.061,23.274,17.555,26.995,30.417c3.01,10.397,3.65,21.067,2.248,31.49c4.81,4.162,9.718,8.209,14.551,12.275
			c2.225,0.646,4.5,1.21,6.804,1.678c11.359-12.97,24.046-25.109,40.004-30.897c10.342-3.753,27.26-5.926,25.001,10.197
			c-2.062,14.704-17.558,23.271-30.417,26.992c-10.397,3.009-21.068,3.653-31.49,2.25c-4.365,5.042-8.601,10.2-12.872,15.257
			c-0.717,0.851-1.588,1.268-2.472,1.39c-0.318,1.256-0.612,2.525-0.873,3.806c12.974,11.36,25.112,24.043,30.9,40.005
			c3.753,10.339,5.922,27.262-10.197,25.002c-14.704-2.062-23.271-17.56-26.993-30.418c-3.012-10.396-3.653-21.065-2.251-31.492
			c-5.042-4.362-10.2-8.601-15.256-12.867c-0.732-0.617-1.152-1.345-1.333-2.097c-0.534-0.117-1.065-0.24-1.603-0.348
			c-6.039,6.896-12.45,13.56-19.535,19.155c27.252,48.38,79.068,81.073,138.551,81.073c19.24,0,37.683-3.419,54.751-9.684
			c-0.396-1.14-0.766-2.272-1.088-3.384c-3.011-10.398-3.649-21.068-2.248-31.49c-5.047-4.364-10.201-8.603-15.258-12.871
			c-0.73-0.614-1.151-1.342-1.335-2.096c-0.531-0.118-1.063-0.242-1.598-0.349c-11.361,12.974-24.047,25.109-40.009,30.9
			c-10.338,3.752-27.259,5.922-24.998-10.197c2.061-14.706,17.555-23.271,30.417-26.995c10.394-3.01,21.067-3.652,31.49-2.249
			c4.022-4.647,7.939-9.388,11.867-14.063c0.44-1.656,0.841-3.332,1.185-5.028c-12.972-11.361-25.109-24.048-30.898-40.005
			c-2.482-6.835-4.233-16.509-0.51-21.655c-1.932,1.157-3.86,2.314-5.792,3.454c-0.822,0.49-1.648,0.649-2.416,0.57
			c-0.29,0.464-0.579,0.928-0.856,1.401c8.516,14.991,15.81,30.963,16.032,47.94c0.142,10.999-3.368,27.691-17.848,20.259
			c-13.21-6.782-16.209-24.234-15.497-37.602c0.575-10.81,3.479-21.097,8.228-30.481c-3.068-5.328-6.256-10.582-9.38-15.83
			c-1.418-0.964-2.872-1.89-4.361-2.774c-14.993,8.517-30.961,15.809-47.937,16.033c-10.999,0.145-27.694-3.369-20.259-17.85
			c6.779-13.209,24.23-16.207,37.6-15.496c10.808,0.576,21.095,3.48,30.481,8.231c5.509-3.177,10.946-6.482,16.375-9.704
			c1.34-1.892,2.624-3.857,3.82-5.879c-8.516-14.993-15.809-30.964-16.032-47.938c-0.142-11.001,3.368-27.694,17.853-20.259
			c13.207,6.779,16.204,24.231,15.492,37.6c-0.575,10.808-3.477,21.095-8.228,30.481c3.33,5.78,6.807,11.474,10.179,17.167
			c0.57,0.96,0.676,1.919,0.497,2.792c1.085,0.713,2.187,1.412,3.311,2.075c14.992-8.517,30.965-15.811,47.94-16.03
			c11.001-0.145,27.689,3.369,20.259,17.85c-6.78,13.21-24.23,16.205-37.598,15.493c-10.811-0.576-21.1-3.476-30.484-8.227
			c-1.926,1.109-3.845,2.231-5.755,3.365c1.449-0.243,3.126-0.265,5.084,0.012c14.704,2.061,23.271,17.557,26.993,30.417
			c3.009,10.398,3.652,21.067,2.25,31.49c4.81,4.16,9.716,8.207,14.547,12.276c2.229,0.644,4.502,1.209,6.807,1.678
			c11.359-12.973,24.045-25.111,40.007-30.899c10.339-3.752,27.259-5.922,25.002,10.197c-2.064,14.706-17.56,23.272-30.419,26.994
			c-10.399,3.011-21.068,3.651-31.494,2.25c-4.362,5.041-8.6,10.199-12.866,15.255c-0.723,0.852-1.592,1.272-2.474,1.391
			c-0.317,1.26-0.612,2.525-0.873,3.808c8.454,7.405,16.54,15.385,22.759,24.459c45.715-27.912,76.233-78.265,76.233-135.75
			c0-20.945-4.09-40.923-11.451-59.234C302.698,133.222,294.146,133.436,285.756,132.308"/>
		<path clip-path="url(#SVGID_4_)" fill="#BEEFEF" d="M212.303,272.84c-1.239,3.946-2.789,7.812-4.605,11.572
			c3.839,1.223,7.602,2.727,11.271,4.487c1.328-3.798,2.927-7.524,4.787-11.147C219.851,276.398,216.02,274.76,212.303,272.84"/>
		<path clip-path="url(#SVGID_4_)" fill="#BEEFEF" d="M286.479,263.133c5.916-3.829,6.883-9.182,2.906-16.06
			c-4.232,0.464-8.255,1.574-12.065,3.329c-7.367,2.979-13.844,7.705-19.782,12.911c-3.966,3.48-7.703,7.229-11.309,11.106
			C260.826,275.627,275.642,272.688,286.479,263.133"/>
		<path clip-path="url(#SVGID_4_)" fill="#BEEFEF" d="M175.412,200.541c1.869-1.121,3.744-2.238,5.625-3.355
			C178.438,197.625,176.64,198.844,175.412,200.541"/>
	</g>
</g>
<g>
	<g>
		<defs>
			<rect id="SVGID_5_" x="16.092" y="289.627" width="224.762" height="224.762"/>
		</defs>
		<clipPath id="SVGID_6_">
			<use xlink:href="#SVGID_5_"  overflow="visible"/>
		</clipPath>
		<path clip-path="url(#SVGID_6_)" fill="#BEEFEF" d="M178.368,301.313c2.698,1.342,5.341,2.771,7.912,4.318
			C184.021,303.579,181.394,302.036,178.368,301.313"/>
		<path clip-path="url(#SVGID_6_)" fill="#BEEFEF" d="M63.337,434.982c-2.762-0.96-5.469-2.114-8.097-3.472
			c-0.879,2.786-1.975,5.52-3.257,8.182c2.715,0.861,5.373,1.929,7.969,3.172C60.892,440.178,62.019,437.542,63.337,434.982"/>
		<path clip-path="url(#SVGID_6_)" fill="#BEEFEF" d="M78.711,394.749c-4.84,1.183-6.732,4.532-5.675,10.051
			c2.934,0.671,5.877,0.867,8.831,0.582c5.611-0.281,11.034-1.929,16.209-4.026c3.459-1.401,6.822-3.034,10.134-4.785
			C98.746,392.373,88.168,390.89,78.711,394.749"/>
		<path clip-path="url(#SVGID_6_)" fill="#BEEFEF" d="M125.444,448.295c1.182,4.84,4.532,6.73,10.049,5.673
			c0.674-2.931,0.868-5.876,0.582-8.829c-0.278-5.614-1.927-11.037-4.024-16.208c-1.402-3.462-3.036-6.825-4.788-10.133
			C123.065,428.258,121.583,438.839,125.444,448.295"/>
		<path clip-path="url(#SVGID_6_)" fill="#BEEFEF" d="M133.382,346.715c-1.182-4.841-4.53-6.73-10.049-5.67
			c-0.673,2.933-0.867,5.874-0.581,8.827c0.279,5.615,1.928,11.034,4.024,16.211c1.402,3.459,3.037,6.822,4.788,10.132
			C135.761,366.753,137.245,356.175,133.382,346.715"/>
		<path clip-path="url(#SVGID_6_)" fill="#BEEFEF" d="M128.566,391.997c-1.812,2.293-3.796,4.47-5.942,6.504
			c2.346,1.75,4.566,3.678,6.657,5.764c1.708-2.275,3.588-4.438,5.616-6.481C132.669,396.013,130.553,394.084,128.566,391.997"/>
		<path clip-path="url(#SVGID_6_)" fill="#BEEFEF" d="M44.348,388.804c-2.707-4.184-6.492-4.868-11.354-2.057
			c0.328,2.991,1.112,5.835,2.354,8.532c2.105,5.211,5.446,9.787,9.128,13.983c2.459,2.81,5.109,5.447,7.853,7.998
			C53.178,406.941,51.102,396.464,44.348,388.804"/>
		<path clip-path="url(#SVGID_6_)" fill="#BEEFEF" d="M29.603,450.415c2.807-2.465,5.447-5.11,7.995-7.854
			c-4.602-0.381-9.233-0.18-13.633,0.76c1.164,2.938,2.436,5.818,3.834,8.628C28.406,451.443,29.011,450.933,29.603,450.415"/>
		<path clip-path="url(#SVGID_6_)" fill="#BEEFEF" d="M107.685,424.647c4.181-2.709,4.868-6.494,2.055-11.355
			c-2.993,0.328-5.835,1.111-8.531,2.353c-5.21,2.104-9.789,5.446-13.985,9.129c-2.808,2.458-5.447,5.11-7.997,7.853
			C89.545,433.477,100.024,431.398,107.685,424.647"/>
		<path clip-path="url(#SVGID_6_)" fill="#BEEFEF" d="M70.242,487.347c2.707,4.18,6.491,4.867,11.354,2.056
			c-0.328-2.993-1.112-5.834-2.353-8.533c-2.105-5.209-5.447-9.787-9.129-13.984c-2.46-2.809-5.11-5.444-7.853-7.998
			C61.409,469.208,63.487,479.686,70.242,487.347"/>
		<path clip-path="url(#SVGID_6_)" fill="#BEEFEF" d="M175.464,318.258c2.106,5.21,5.446,9.79,9.13,13.985
			c2.462,2.808,5.109,5.449,7.852,7.996c0.855-10.317-1.223-20.797-7.98-28.456c-2.706-4.182-6.492-4.867-11.353-2.053
			C173.439,312.72,174.224,315.564,175.464,318.258"/>
		<path clip-path="url(#SVGID_6_)" fill="#BEEFEF" d="M210.36,410.328c2.707,4.178,6.493,4.867,11.354,2.054
			c-0.329-2.992-1.112-5.834-2.354-8.529c-2.104-5.21-5.446-9.79-9.128-13.988c-2.459-2.805-5.109-5.445-7.853-7.996
			C201.529,392.188,203.606,402.668,210.36,410.328"/>
		<path clip-path="url(#SVGID_6_)" fill="#BEEFEF" d="M195.931,322.513c2.128,7.35,2.582,14.897,1.59,22.267
			c3.4,2.941,6.871,5.801,10.287,8.678c1.574,0.457,3.183,0.853,4.811,1.186c3.604-4.113,7.393-8.105,11.498-11.629
			c-9.444-15.277-22.434-28.124-37.836-37.382C191.088,309.998,194.23,316.637,195.931,322.513"/>
		<path clip-path="url(#SVGID_6_)" fill="#BEEFEF" d="M149.259,373.521c-4.18,2.706-4.868,6.493-2.055,11.355
			c2.992-0.328,5.836-1.114,8.531-2.354c5.21-2.106,9.788-5.449,13.986-9.13c2.807-2.458,5.446-5.11,7.997-7.852
			C167.397,364.69,156.919,366.768,149.259,373.521"/>
		<path clip-path="url(#SVGID_6_)" fill="#BEEFEF" d="M195.358,354.49c-0.878,2.787-1.972,5.519-3.255,8.182
			c2.713,0.864,5.374,1.928,7.967,3.173c0.941-2.687,2.07-5.319,3.386-7.883C200.694,357.005,197.986,355.849,195.358,354.49"/>
		<path clip-path="url(#SVGID_6_)" fill="#BEEFEF" d="M219.346,355.606c3.799,0.314,7.621,0.224,11.317-0.346
			c-1.128-2.457-2.319-4.878-3.615-7.236C224.354,350.41,221.804,352.964,219.346,355.606"/>
		<path clip-path="url(#SVGID_6_)" fill="#BEEFEF" d="M106.256,378.872c2.706,4.181,6.493,4.868,11.355,2.054
			c-0.329-2.99-1.114-5.835-2.354-8.529c-2.105-5.211-5.446-9.79-9.129-13.983c-2.458-2.81-5.11-5.449-7.852-7.998
			C97.425,360.731,99.503,371.209,106.256,378.872"/>
		<path clip-path="url(#SVGID_6_)" fill="#BEEFEF" d="M45.155,342.065c-4.18,2.708-4.868,6.491-2.055,11.354
			c2.992-0.325,5.835-1.109,8.531-2.352c5.21-2.104,9.789-5.446,13.985-9.127c2.808-2.464,5.446-5.112,7.997-7.856
			C63.295,333.233,52.816,335.312,45.155,342.065"/>
		<path clip-path="url(#SVGID_6_)" fill="#BEEFEF" d="M180.29,402.689c4.84-1.185,6.731-4.53,5.671-10.051
			c-2.93-0.673-5.873-0.869-8.828-0.581c-5.614,0.277-11.036,1.929-16.208,4.025c-3.461,1.402-6.824,3.035-10.134,4.786
			C160.253,405.07,170.832,406.55,180.29,402.689"/>
		<path clip-path="url(#SVGID_6_)" fill="#BEEFEF" d="M143.699,316.173c4.182-2.705,4.868-6.493,2.055-11.355
			c-2.992,0.329-5.834,1.114-8.531,2.353c-5.21,2.108-9.789,5.449-13.985,9.131c-2.808,2.463-5.446,5.108-7.997,7.852
			C125.562,325.003,136.039,322.926,143.699,316.173"/>
		<path clip-path="url(#SVGID_6_)" fill="#BEEFEF" d="M91.254,323.036c-0.878,2.788-1.972,5.522-3.253,8.179
			c2.712,0.864,5.374,1.93,7.966,3.176c0.94-2.687,2.069-5.32,3.385-7.882C96.589,325.549,93.884,324.392,91.254,323.036"/>
		<path clip-path="url(#SVGID_6_)" fill="#BEEFEF" d="M80.489,300.791c2.462,2.806,5.109,5.444,7.853,7.992
			c0.322-3.894,0.223-7.812-0.387-11.594c-2.62,1.012-5.202,2.103-7.721,3.305C80.32,300.592,80.403,300.694,80.489,300.791"/>
		<path clip-path="url(#SVGID_6_)" fill="#BEEFEF" d="M116.776,479.074c-4.18,2.707-4.868,6.493-2.055,11.354
			c2.992-0.33,5.835-1.113,8.53-2.354c5.209-2.105,9.788-5.448,13.985-9.131c2.807-2.458,5.447-5.108,7.997-7.85
			C134.915,470.241,124.436,472.319,116.776,479.074"/>
		<path clip-path="url(#SVGID_6_)" fill="#BEEFEF" d="M151.984,417.335c-2.708-4.182-6.493-4.867-11.354-2.055
			c0.329,2.991,1.112,5.835,2.354,8.532c2.106,5.21,5.447,9.788,9.129,13.983c2.458,2.81,5.109,5.447,7.852,7.998
			C160.816,435.474,158.738,424.996,151.984,417.335"/>
		<path clip-path="url(#SVGID_6_)" fill="#BEEFEF" d="M177.75,495.416c-2.461-2.805-5.11-5.446-7.852-7.993
			c-0.519,6.241,0.044,12.539,2.059,18.24c3.456-1.454,6.827-3.069,10.097-4.847C180.717,498.941,179.267,497.145,177.75,495.416"/>
		<path clip-path="url(#SVGID_6_)" fill="#BEEFEF" d="M214.809,360.68c-3.085,3.567-6.082,7.213-9.099,10.789
			c-0.51,0.603-1.122,0.897-1.751,0.982c-0.221,0.891-0.43,1.784-0.616,2.691c9.175,8.033,17.756,17.003,21.85,28.283
			c2.65,7.312,4.188,19.273-7.21,17.675c-10.397-1.455-16.456-12.413-19.088-21.501c-2.126-7.352-2.58-14.897-1.588-22.268
			c-3.564-3.086-7.213-6.082-10.787-9.098c-0.518-0.439-0.814-0.952-0.942-1.481c-0.38-0.086-0.753-0.172-1.133-0.245
			c-8.033,9.171-17,17.749-28.286,21.846c-7.31,2.65-19.275,4.186-17.674-7.21c1.457-10.399,12.411-16.453,21.503-19.086
			c7.352-2.13,14.895-2.581,22.264-1.591c2.846-3.288,5.613-6.637,8.393-9.943c0.313-1.174,0.592-2.357,0.839-3.556
			c-9.173-8.032-17.757-17-21.847-28.286c-2.653-7.31-4.187-19.275,7.209-17.672c0.52,0.07,1.024,0.185,1.521,0.304
			c-15.034-7.464-31.967-11.684-49.896-11.684c-12.445,0-24.405,2.054-35.596,5.789c1.191,5.954,1.338,11.985,0.542,17.9
			c3.402,2.945,6.871,5.808,10.287,8.683c1.574,0.456,3.182,0.855,4.812,1.187c8.029-9.173,17-17.756,28.284-21.849
			c7.312-2.65,19.273-4.186,17.677,7.21c-1.458,10.396-12.414,16.456-21.504,19.085c-7.353,2.13-14.896,2.582-22.267,1.593
			c-3.085,3.563-6.081,7.209-9.098,10.787c-0.51,0.6-1.125,0.894-1.747,0.979c-0.225,0.892-0.434,1.788-0.617,2.694
			c9.17,8.031,17.751,17,21.846,28.283c2.651,7.313,4.185,19.273-7.211,17.677c-10.397-1.459-16.451-12.415-19.086-21.506
			c-2.128-7.351-2.578-14.895-1.588-22.264c-3.566-3.086-7.213-6.082-10.788-9.1c-0.516-0.438-0.815-0.951-0.942-1.483
			c-0.377-0.081-0.754-0.169-1.132-0.245c-8.034,9.171-17.002,17.753-28.286,21.846c-7.311,2.65-19.274,4.188-17.674-7.21
			c1.458-10.398,12.412-16.45,21.505-19.085c7.352-2.13,14.895-2.581,22.263-1.589c2.846-3.29,5.614-6.636,8.393-9.944
			c0.311-1.171,0.595-2.356,0.837-3.553c-4.403-3.861-8.659-7.938-12.358-12.383c-35.093,19.013-58.928,56.16-58.928,98.878
			c0,12.767,2.158,25.026,6.083,36.464c6.618-1.603,13.357-1.876,19.96-0.987c2.843-3.287,5.613-6.64,8.39-9.944
			c0.315-1.172,0.595-2.356,0.84-3.557c-9.175-8.033-17.755-16.999-21.849-28.282c-2.651-7.313-4.188-19.276,7.209-17.677
			c10.396,1.459,16.456,12.412,19.086,21.506c2.128,7.351,2.582,14.895,1.589,22.264c3.403,2.942,6.87,5.803,10.286,8.675
			c1.575,0.464,3.182,0.86,4.812,1.19c8.034-9.169,17.002-17.754,28.286-21.848c7.312-2.654,19.274-4.187,17.674,7.212
			c-1.458,10.396-12.412,16.45-21.504,19.083c-7.351,2.126-14.896,2.584-22.266,1.592c-3.085,3.567-6.081,7.21-9.099,10.787
			c-0.506,0.604-1.124,0.896-1.747,0.982c-0.226,0.89-0.433,1.783-0.618,2.689c9.172,8.033,17.755,17.002,21.846,28.283
			c2.655,7.313,4.188,19.276-7.209,17.68c-10.394-1.457-16.453-12.415-19.083-21.504c-2.129-7.353-2.582-14.896-1.592-22.269
			c-3.565-3.084-7.209-6.079-10.786-9.098c-0.518-0.438-0.816-0.953-0.943-1.483c-0.375-0.085-0.754-0.17-1.132-0.244
			c-4.269,4.875-8.804,9.589-13.81,13.544c19.265,34.205,55.901,57.319,97.956,57.319c13.605,0,26.643-2.419,38.711-6.846
			c-0.278-0.805-0.542-1.608-0.767-2.396c-2.128-7.346-2.583-14.895-1.59-22.264c-3.567-3.084-7.214-6.079-10.788-9.099
			c-0.519-0.437-0.815-0.949-0.944-1.479c-0.374-0.088-0.753-0.172-1.131-0.25c-8.033,9.176-17.002,17.755-28.288,21.851
			c-7.309,2.651-19.27,4.187-17.674-7.215c1.459-10.393,12.412-16.45,21.506-19.083c7.35-2.126,14.896-2.584,22.266-1.588
			c2.843-3.289,5.61-6.64,8.39-9.943c0.311-1.173,0.594-2.357,0.836-3.558c-9.17-8.029-17.751-16.999-21.847-28.284
			c-1.751-4.831-2.991-11.672-0.358-15.31c-1.366,0.815-2.73,1.637-4.096,2.439c-0.582,0.349-1.164,0.463-1.71,0.406
			c-0.204,0.328-0.405,0.653-0.604,0.99c6.024,10.601,11.181,21.89,11.337,33.893c0.1,7.777-2.382,19.579-12.622,14.324
			c-9.34-4.796-11.46-17.133-10.956-26.587c0.409-7.64,2.458-14.914,5.818-21.549c-2.168-3.765-4.422-7.479-6.63-11.19
			c-1.004-0.683-2.031-1.341-3.085-1.962c-10.601,6.021-21.891,11.178-33.894,11.333c-7.777,0.103-19.58-2.38-14.322-12.621
			c4.791-9.335,17.13-11.455,26.582-10.952c7.642,0.408,14.917,2.462,21.549,5.818c3.898-2.246,7.742-4.582,11.581-6.863
			c0.949-1.339,1.852-2.726,2.701-4.153c-6.022-10.601-11.179-21.895-11.335-33.896c-0.101-7.775,2.381-19.577,12.62-14.321
			c9.34,4.793,11.461,17.13,10.957,26.584c-0.41,7.642-2.462,14.918-5.818,21.551c2.353,4.086,4.812,8.111,7.196,12.138
			c0.402,0.679,0.477,1.354,0.352,1.972c0.768,0.507,1.544,1,2.339,1.47c10.601-6.022,21.894-11.179,33.894-11.336
			c7.777-0.099,19.58,2.382,14.325,12.62c-4.795,9.342-17.131,11.461-26.583,10.959c-7.644-0.411-14.918-2.462-21.552-5.819
			c-1.363,0.783-2.718,1.575-4.07,2.379c1.024-0.173,2.213-0.185,3.593,0.006c10.398,1.456,16.454,12.414,19.089,21.509
			c2.128,7.348,2.578,14.895,1.588,22.264c3.402,2.942,6.87,5.805,10.287,8.677c1.574,0.456,3.182,0.857,4.812,1.188
			c8.029-9.171,17-17.753,28.282-21.845c7.312-2.657,19.273-4.192,17.678,7.209c-1.457,10.393-12.412,16.451-21.505,19.083
			c-7.351,2.127-14.896,2.584-22.265,1.591c-3.086,3.568-6.081,7.21-9.1,10.787c-0.505,0.602-1.124,0.897-1.747,0.983
			c-0.225,0.889-0.434,1.784-0.618,2.689c5.978,5.238,11.695,10.878,16.089,17.297c32.322-19.741,53.902-55.337,53.902-95.979
			c0-14.81-2.896-28.936-8.1-41.882C226.786,361.33,220.741,361.479,214.809,360.68"/>
		<path clip-path="url(#SVGID_6_)" fill="#BEEFEF" d="M162.877,460.044c-0.879,2.787-1.973,5.52-3.258,8.183
			c2.714,0.86,5.376,1.925,7.97,3.171c0.939-2.689,2.069-5.321,3.384-7.882C168.211,462.559,165.505,461.401,162.877,460.044"/>
		<path clip-path="url(#SVGID_6_)" fill="#BEEFEF" d="M215.321,453.179c4.18-2.708,4.867-6.491,2.055-11.354
			c-2.993,0.327-5.836,1.111-8.53,2.353c-5.211,2.104-9.79,5.446-13.986,9.13c-2.808,2.461-5.447,5.107-7.998,7.85
			C197.181,462.011,207.657,459.933,215.321,453.179"/>
		<path clip-path="url(#SVGID_6_)" fill="#BEEFEF" d="M136.793,408.924c1.321-0.791,2.647-1.585,3.974-2.372
			C138.933,406.862,137.662,407.727,136.793,408.924"/>
	</g>
</g>
<path fill="#F5C96F" d="M68.622,77.222c-18.9-0.064-38.95-10.108-53.25-26.675c-3.915-4.536-7.499-9.714-9.124-15.53
	c-1.622-5.813-0.916-12.358,2.82-15.797c5.355-4.927,14.167-1.933,21.291,1.908c8.866,4.782,17.394,10.646,25.354,17.44
	c2.681-7.093,6.492-13.497,11.229-18.861c2.928-3.32,6.364-6.323,10.643-7.19c4.28-0.866,9.561,0.897,12.406,5.285
	c3.183,4.904,2.425,11.14,1.143,16.347C87.057,50.722,79.309,65.575,68.7,77.16"/>
<path fill="#F5C96F" d="M386.408,46.468c-0.617-0.384-1.943,0.239-2.497,0.414c-1.825,0.578-3.624,1.244-5.408,1.942
	c-4.313,1.686-8.526,3.61-12.767,5.463c-1.618-2.692-3.345-5.319-5.21-7.844c-2.128-2.882-4.184-5.9-8.174-4.774
	c-1.571,0.445-3.29,3.152-3.347,4.712c-0.176,4.669-0.199,9.341-0.073,14.001c-2.679,0.754-5.382,1.449-8.093,2.124
	c-3.075,0.765-6.164,1.513-9.193,2.442c-2.607,0.799-4.764,2.354-5.714,5.077c-1.323,3.794,8.268,4.751,10.578,5.096
	c4.662,0.699,9.169,1.377,13.61,2.581c0.759,6.77,1.854,13.505,3.319,20.178c0.128,0.583,0.809,0.092,1.345-0.417
	c-0.023,0.178-0.043,0.353-0.066,0.528c-0.133,0.94,0.621,0.501,1.069,0.188c0.954-0.671,1.687-1.873,2.208-2.888
	c2.124-4.126,3.113-8.522,4.366-12.901c4.669,2.103,9.284,4.347,13.924,6.487c1.127,0.523,3.995-3.683,3.589-4.676
	c-2.562-6.208-5.14-12.419-8.045-18.474c0.145-0.165,0.287-0.332,0.43-0.499c3.945-4.509,8.348-8.648,12.15-13.279
	C385.177,51.013,388.09,47.505,386.408,46.468 M353.58,70.962c0.973-0.156,1.938-0.333,2.908-0.536
	c0.018,1.065,0.025,2.127,0.018,3.193c-0.904-0.312-1.817-0.599-2.735-0.87C353.707,72.153,353.641,71.558,353.58,70.962
	 M379.239,52.404c0.052-0.018,0.103-0.037,0.157-0.055c-0.317,0.452-0.648,0.897-0.987,1.334c0.212-0.355,0.384-0.724,0.487-1.091
	c0.006-0.023,0.01-0.047,0.017-0.071C379.021,52.482,379.13,52.442,379.239,52.404 M381.992,51.537
	c-0.069,0.043-0.14,0.096-0.218,0.157c0.027-0.043,0.061-0.09,0.092-0.136C381.901,51.55,381.944,51.545,381.992,51.537
	 M369.428,60.909c-0.111-0.21-0.227-0.422-0.337-0.634c0.641-0.341,1.278-0.689,1.918-1.04
	C370.482,59.794,369.951,60.352,369.428,60.909 M364.605,63.266c0.373,0.677,0.725,1.357,1.084,2.039
	c-0.099,0.194-0.179,0.381-0.233,0.571c-0.478-1.06-0.935-2.1-1.526-2.986c0.125-0.057,0.243-0.119,0.37-0.18
	C364.402,62.896,364.506,63.08,364.605,63.266 M362.664,59.853c-0.213,0.094-0.419,0.193-0.628,0.283
	c-0.058-0.167-0.117-0.332-0.172-0.498c0.177-0.078,0.354-0.155,0.532-0.233C362.486,59.555,362.576,59.706,362.664,59.853
	 M360.104,74.946c0.064-1.826,0.101-3.649,0.111-5.478c0.839,1.953,1.763,3.87,2.773,5.744c-0.136,0.251-0.271,0.499-0.401,0.749
	C361.762,75.613,360.935,75.271,360.104,74.946 M365.964,66.985c0.117-0.064,0.25-0.147,0.411-0.273
	c0.01-0.011,0.021-0.019,0.032-0.027c0.325,0.629,0.635,1.263,0.949,1.897c-0.14,0.184-0.275,0.367-0.406,0.55
	C366.619,68.415,366.293,67.7,365.964,66.985 M372.48,55.016c-1.607,0.871-3.232,1.707-4.87,2.517
	c-0.063-0.112-0.123-0.226-0.188-0.336C369.104,56.46,370.785,55.725,372.48,55.016 M352.58,46.778
	c1.321,0.557,2.377,1.698,3.336,2.961c-0.461,0.688-0.849,1.474-0.761,2.141c0.279,2.118,0.509,4.238,0.7,6.359
	c-1.031,0.353-2.066,0.69-3.104,1.013C352.575,55.099,352.518,50.94,352.58,46.778 M332.979,68.707
	c0.619-0.165,1.242-0.323,1.858-0.479c-0.173,0.33-0.315,0.643-0.399,0.903c-0.177-0.05-0.355-0.088-0.535-0.141
	C333.742,68.94,333.4,68.84,332.979,68.707 M337.574,69.838c1.43-0.022,2.858-0.038,4.287-0.047
	c-0.128,0.236-0.23,0.458-0.307,0.656c-0.317-0.044-0.639-0.085-0.96-0.13C339.591,70.175,338.58,70.02,337.574,69.838
	 M348.561,71.504c0.32-0.019,0.64-0.039,0.961-0.063c0.009,0.084,0.014,0.169,0.019,0.252
	C349.218,71.627,348.892,71.563,348.561,71.504 M354.568,79.109c0.509,0.187,1.017,0.379,1.521,0.581
	c0.092,0.04,0.186,0.082,0.279,0.117c-0.1,2.505-0.254,5.005-0.462,7.506C355.4,84.587,354.959,81.854,354.568,79.109
	 M359.545,84.016c0.078-0.924,0.151-1.849,0.217-2.776c0.19,0.084,0.376,0.165,0.566,0.249
	C360.051,82.326,359.795,83.167,359.545,84.016 M372.851,80.696c-0.968-0.467-1.94-0.934-2.91-1.399
	c0.557-0.827,0.921-1.624,0.736-2.03c-0.981-2.136-1.961-4.273-2.938-6.409c0.142-0.204,0.287-0.403,0.433-0.601
	C369.822,73.695,371.361,77.184,372.851,80.696 M371.019,64.05c-0.118-0.236-0.239-0.473-0.357-0.709
	c0.575-0.451,1.151-0.904,1.727-1.354c0.027,0.158,0.085,0.252,0.183,0.284C372.046,62.86,371.53,63.452,371.019,64.05"/>
</svg>
