<?xml version="1.0" encoding="utf-8"?>
<!-- Generator: Adobe Illustrator 16.0.0, SVG Export Plug-In . SVG Version: 6.00 Build 0)  -->
<!DOCTYPE svg PUBLIC "-//W3C//DTD SVG 1.1//EN" "http://www.w3.org/Graphics/SVG/1.1/DTD/svg11.dtd">
<svg version="1.1" id="Layer_1" xmlns="http://www.w3.org/2000/svg" xmlns:xlink="http://www.w3.org/1999/xlink" x="0px" y="0px"
	 width="495px" height="560px" viewBox="232.5 0 495 560" enable-background="new 232.5 0 495 560" xml:space="preserve">
<ellipse fill="#D5CCBB" cx="480.632" cy="299.873" rx="238.138" ry="238.138"/>
<g>
	
		<ellipse fill="#2E4898" stroke="#D5CCBB" stroke-width="4" stroke-miterlimit="10" cx="623.376" cy="89.004" rx="70.427" ry="70.427"/>
	<g>
		<path fill="#FFFFFF" d="M621.158,146.718L621.158,146.718c3.707,0,6.486-2.78,6.486-6.487V37.684c0-3.707-2.779-6.487-6.486-6.487
			l0,0c-3.706,0-6.486,2.78-6.486,6.487v102.239C614.672,143.629,617.452,146.718,621.158,146.718z"/>
		<path fill="#FFFFFF" d="M678.919,88.958L678.919,88.958c0-3.707-2.78-6.486-6.486-6.486H570.193c-3.707,0-6.486,2.78-6.486,6.486
			l0,0c0,3.707,2.779,6.486,6.486,6.486h102.239C675.83,95.444,678.919,92.355,678.919,88.958z"/>
	</g>
</g>
</svg>
