<?xml version="1.0" encoding="utf-8"?>
<!-- Generator: Adobe Illustrator 22.0.1, SVG Export Plug-In . SVG Version: 6.00 Build 0)  -->
<svg version="1.1" id="Layer_1" xmlns="http://www.w3.org/2000/svg" xmlns:xlink="http://www.w3.org/1999/xlink" x="0px" y="0px"
	 viewBox="0 0 600 249.6" style="enable-background:new 0 0 600 249.6;" xml:space="preserve">
<style type="text/css">
	.st0{fill-rule:evenodd;clip-rule:evenodd;fill:#5B442E;}
	.st1{fill:none;stroke:#5B442E;stroke-width:0.5669;stroke-miterlimit:22.9256;}
</style>
<g>
	<g id="XMLID_143_">
		<path id="XMLID_169_" class="st0" d="M177.5,179c0-3.8,0.5-8,2.3-12.5c6-15.1,19.7-35.3,31.3-49.2c10.4-12.5,24.9-28.4,24.9-39
			c0-5.7-4.3-8.2-9.5-8.2c-25.9,0-77.8,46.5-96.2,65.6c-0.3,0.3-0.3,0.2-0.3,0.2s25.8-32.8,29.6-38.5c3.7-5.5,10.9-14.1,10.9-23.1
			c0-6.7-3.3-8.9-7.9-8.9c-12.2,0-32.3,12-55.5,33.3c-20.2,18.6-31.9,31.8-33.4,32.5c0-2.3,32.8-42.5,32.8-65.2
			C106.4,26.8,3.7,37.3,3.7,9.7c0-2.2,0.8-4.8,3.2-7.7c0.3-0.3,0.5-0.7,0.5-1c0-0.5-0.5-1-1.2-1C5.9,0,5.4,0.2,4.9,0.5
			C4.9,0.5,0,3.8,0,11c0,39.8,101.4,22.6,101.4,60.4c0,10.9-9.9,25.9-20.7,42.3c-11.7,17.7-26.3,37.5-32.3,43.8
			c-0.8,0.8-1.5,1.7-1.5,2.5c0,1,1.2,2,2.2,2c0.8,0,1.8-0.7,3-2.2c1.8-2,36-40.8,49.7-53.2c15.2-13.9,41.8-36.1,55-36.1
			c4.5,0,6.5,2.8,6.5,6.9c0,3.8-1.8,8.7-4.7,13.2c-5.7,9-39,55-50.4,66.1c-1.2,1.2-2.2,2.2-2.2,3.2c0,0.8,1,2,2.2,2
			c1.5,0,2.2-1.7,3.5-3c1.8-2.2,28.6-30.6,32.4-34.1c20.1-17.6,58.2-49.8,75.8-49.8c3.5,0,8.5,1.8,8.5,6.2c0,7.5-10.7,20.9-12,22.9
			c-46.3,55.7-47,68.4-47,78.8c0,9,4.4,16.7,9.2,16.7c1.5,0,2.8-0.5,2.8-2c0-0.5,0-1-0.3-1.7C179.8,192.9,177.5,186.5,177.5,179z"/>
		<path id="XMLID_165_" class="st0" d="M536,155.1c-2,0-3.9-1-5.5-2.1c-0.1-0.1-0.2-0.2-0.3-0.2c-0.6-0.4-1.2-0.9-1.7-1.2
			c-3.4-3,2.1-2.7,5.5-0.4c1.8,1.2,3.8,2.3,5.7,3.3C538.5,154.8,537.2,155.1,536,155.1z M498,141.3c0-4,1.8-7.9,4.4-7.9
			c2.2,0,3,0.8,3,2.3c0,2.5-2.7,6.5-6.5,10.4C498.2,144.7,498,143,498,141.3z M589.8,155.1c-8.3,14.7-32.1,5.9-46.2-1
			c7.8-5,13.1-13.2,13.1-18.5c0-2.8-1.7-4.8-5.4-4.8c-3.7,0-7,1.8-8.5,2.7c-2.2,1.2-15.9,10.5-22.6,13.4c-0.7,0.3-1.4,0.6-2.2,0.9
			c-3.4,1.2-8.3,2.6-12.7,2.6c-2.3,0-4.2-0.8-5.4-2.3c5-5.5,8.4-11.4,8.4-14.9c0-1.8-1-3-3.2-3c-6.4,0-10.4,6.9-10.4,13.2
			c0,2,0.3,4,1.2,5.5c-4.5,4-9.9,7.2-13.9,7.2c-2.2,0-3.7-1.2-3.7-3.7c0-6.7,15.7-22.4,21.2-22.4c0.7,0,1.5-0.2,1.5-0.5
			c0-0.7-1.3-1.7-2.3-1.7c-7.9,0-27.1,19.4-27.1,28.4c0,3.5,2,4.8,5,4.8c7,0,14.7-4.7,20.6-10.4c1.5,1.7,3.7,2.7,6.7,2.7
			c3.1,0,6.1-0.7,9-1.5c0.9-0.3,1.8-0.6,2.7-0.9c1.9-0.7,3.9-1.3,5.7-2.3c2-1.1,4.1-2,6-3.2c1.8-1.1,3.7-2.3,5.5-3.4
			c3.4-2.1,6.7-4.3,10.3-6c1.3-0.6,2.7-1.2,4.2-1.2c2.8,0,4.2,1.7,4.2,4c0,4.4-4.2,11.2-9.6,14.4c-2.8-1.4-5.1-2.7-6.7-3.5
			c-1.6-0.9-3.4-1.4-5.2-1.6c-1.9-0.2-3.8-0.1-5.6,0.1c-1.4,0.2-2.9,0.5-3.3,2c-0.5,1.9,0.6,4.1,1.9,5.4c2.1,2.1,5.2,2.5,8.1,2.7
			c2.9,0.2,5.8-0.8,8.4-2c0.4-0.2,0.8-0.3,1.1-0.5c0.1-0.1,0.9-0.6,1.1-0.6c5.1,2.3,10.5,4.2,15.6,5.9c11.7,4,30.6,9,38.2-4.6
			C595.8,156.3,590.5,154,589.8,155.1z"/>
		<path id="XMLID_159_" class="st0" d="M362.4,134.4c7.7-4.1,8.8-0.8,2.8,5c-2.2,2.2-7.4,4.7-13,7.1
			C352.7,142.2,355.9,137.8,362.4,134.4z M233.2,141.3c0-4,1.8-7.9,4.4-7.9c2.2,0,3,0.8,3,2.3c0,2.5-2.7,6.5-6.5,10.4
			C233.3,144.7,233.2,143,233.2,141.3z M468.1,132.2c1.6-4.3,10.3-19.4,19.3-34.1c2.2-0.1,4.6-0.2,7.2-0.3
			c-8.3,13.6-17.7,25.9-23,32.2C469.3,132.6,467.2,134.8,468.1,132.2z M507.7,66.4c0.8-1,2,0.1,0.7,3.6c-2.7,7.8-6.9,16.1-11.6,24.1
			c-2.4,0-4.7,0-6.9,0C498.1,80.7,505.9,68.5,507.7,66.4z M473.4,198.8c-19.3-11.1-21.8-29.2-6.9-57.9c8.5-6.6,17.6-18.6,25.9-30
			c2.9-4.1,5.9-8.6,8.7-13.4c5.4-0.2,11.8-0.4,19.7-0.6c42.5-0.8,52.2,0.5,52.2,0.5c1.7,0,3.1-0.6,3.1-2.3c0-1.7-1.4-2.1-3.1-2.1
			c0,0-14.8-0.1-64.6,0.9c-1.8,0-3.6,0.1-5.3,0.1c4-7.3,7.8-15.2,10.8-23.3c1.5-4,1.8-9-2.3-10.9c-1-0.5-4.1,0.2-8.8,7.3
			c-6.2,9.3-12,18.4-17.3,27c-12.8-0.2-23.5-0.7-33.3-1.5c-1.7,0-2.8,0.2-3.1,2.1c-0.3,1.7,1.1,2.2,3.1,2.6
			c13.6,1.3,21,1.4,30.8,1.1c-10.4,17.4-18.4,32.5-22,42.4c-4.9,3.6-10.3,6.4-16.6,9.1l0,0c-0.3,0.2-0.7,0.3-1,0.5
			c-1.6,0.7-3.3,1.3-5,2c-3.4,1.2-6.3,1.8-8.5,1.5c-2.5-0.3-3.5-1.2-3.5-3c0-4.4,5.5-12,6.9-13.9c0.5-0.8,1-1.8,1-2.7
			c0-0.5,0-1.5-1.2-1.5c-2.2,0-6.5,3.2-7.4,3.8c-6.7,3.5-22.4,15.2-24.9,15.2c-1,0-1.3-0.7-1.3-1.3c0-2.8,9.9-10.7,9.9-14.4
			c0-1.2-0.3-1.8-1.3-1.8c-0.8,0-1.8,0.5-2.3,0.7c0,0-1,0.7-2.7,1.8c-0.2,0.1-0.5,0.2-0.8,0.5c-0.4,0.3-0.8,0.5-1.2,0.8
			c-3.4,2.1-8.4,5-13.8,7.7c-2.6,1.2-5.2,2.2-7.7,3.1c-7.6,2.9-25.4,7-26.8,2c-0.1-0.5-0.2-0.9-0.2-1.4c7.8-3.1,15.7-7.2,19.3-12.1
			c2.9-4.1,4.8-10-4.5-7.5c-9,2.4-18.7,9.2-21,19.3c-2.5,0.9-4.9,1.8-7,2.5c-3.5,1.3-10.4,3-14.3,3c-2.5,0-3.5-1.9-3.5-3.7
			c0-4.4,5.5-12,6.9-13.9c0.5-0.8,1-1.8,1-2.7c0-0.5,0-1.5-1.2-1.5c-6.7,0-21.7,19.4-29.8,19.4c-1.5,0-2-0.7-2-1.5
			c0-2.8,9.2-11.7,9.2-15.4c0-1-0.5-2-1.7-2c-2.2,0-5.9,2.7-6.7,3.3c-6.7,3.5-22.4,15.2-24.9,15.2c-1,0-1.3-0.7-1.3-1.3
			c0-2.8,9.9-10.7,9.9-14.4c0-1.2-0.3-1.8-1.3-1.8c-0.8,0-1.8,0.5-2.3,0.7c0,0-10.2,7-21.4,12.1c-1,0.5-2.2,0.9-3.4,1.4
			c-3.3,1.1-7.6,2.1-11.4,2.1c-2.3,0-4.2-0.8-5.4-2.3c5-5.5,8.4-11.4,8.4-14.9c0-1.8-1-3-3.2-3c-6.4,0-10.4,6.9-10.4,13.2
			c0,2,0.3,4,1.2,5.5c-4.5,4-9.9,7.2-13.9,7.2c-2.2,0-3.7-1.2-3.7-3.7c0-6.7,15.7-22.4,21.3-22.4c0.7,0,1.5-0.2,1.5-0.5
			c0-0.7-1.3-1.7-2.3-1.7c-7.9,0-27.1,19.4-27.1,28.4c0,3.5,2,4.8,5,4.8c7,0,14.7-4.7,20.6-10.4c1.5,1.7,3.7,2.7,6.7,2.7
			c4.7,0,10.7-1.7,17.4-4.7c0,0,0.1-0.1,0.2-0.2c4.3-1.8,12.8-6.7,13.3-6.7c0.5,0,0.7,0.2,0.7,0.5c0,0.2,0,0.3-0.2,0.5
			c-2.2,2.7-9.4,9.4-9.4,12.7c0,1.3,1.2,2.3,2.5,2.3c4.7,0,28.1-17.7,31.1-17.7c0.2,0,0.3,0,0.3,0.2c0,1.3-7.4,11.2-7.4,14.7
			c0,1.3,2,2.2,3.2,2.2c7,0,17.2-7.9,26.8-15.2c0.7-0.5,1.3-0.7,1.7-0.7c0.3,0,0.5,0.2,0.5,0.7c-2,3.8-4.4,8.9-4.4,12.2
			c0,2.2,1,3.6,3.9,3.7c7.9,0.2,16.2-2.8,19.5-4c1.9-0.6,4.2-1.4,6.6-2.2c0.1,7.6,12.3,8,33.6-0.7c0.1,0,1.5-0.5,1.9-0.7
			c7.2-2.6,13.9-5.6,18.2-8.2c0.1,0.1,0.1,0.2,0.1,0.3c0,0.2,0,0.3-0.2,0.5c-2.2,2.7-9.4,9.4-9.4,12.7c0,1.3,1.2,2.3,2.5,2.3
			c4.7,0,28.1-17.7,31.1-17.7c0.2,0,0.3,0,0.3,0.2c0,1.2-4.8,8.4-4.8,13.2c0,2.5,1.3,4.3,5.5,4.3c3.8,0,9.2-1.7,13.8-3.3
			c0,0,0.1,0,0.1,0c0.4-0.1,0.8-0.3,1.2-0.5c0.6-0.2,1.1-0.4,1.6-0.6c0.7-0.3,1.4-0.5,2.2-0.8c0.2-0.1,0.3-0.1,0.6-0.2l0,0
			c4.7-1.9,10.3-4.4,15.8-8.6c-1.8,5.2-3.3,10.4-4.5,15.7c-3.6,15.7,0.9,31.4,17.1,43.2C474.1,204,478.7,201.9,473.4,198.8z"/>
		<g id="XMLID_144_">
			<path id="XMLID_158_" class="st1" d="M177.5,179c0-3.8,0.5-8,2.3-12.5c6-15.1,19.7-35.3,31.3-49.2c10.4-12.5,24.9-28.4,24.9-39
				c0-5.7-4.3-8.2-9.5-8.2c-25.9,0-77.8,46.5-96.2,65.6c-0.3,0.3-0.3,0.2-0.3,0.2s25.8-32.8,29.6-38.5c3.7-5.5,10.9-14.1,10.9-23.1
				c0-6.7-3.3-8.9-7.9-8.9c-12.2,0-32.3,12-55.5,33.3c-20.2,18.6-31.9,31.8-33.4,32.5c0-2.3,32.8-42.5,32.8-65.2
				C106.4,26.8,3.7,37.3,3.7,9.7c0-2.2,0.8-4.8,3.2-7.7c0.3-0.3,0.5-0.7,0.5-1c0-0.5-0.5-1-1.2-1C5.9,0,5.4,0.2,4.9,0.5
				C4.9,0.5,0,3.8,0,11c0,39.8,101.4,22.6,101.4,60.4c0,10.9-9.9,25.9-20.7,42.3c-11.7,17.7-26.3,37.5-32.3,43.8
				c-0.8,0.8-1.5,1.7-1.5,2.5c0,1,1.2,2,2.2,2c0.8,0,1.8-0.7,3-2.2c1.8-2,36-40.8,49.7-53.2c15.2-13.9,41.8-36.1,55-36.1
				c4.5,0,6.5,2.8,6.5,6.9c0,3.8-1.8,8.7-4.7,13.2c-5.7,9-39,55-50.4,66.1c-1.2,1.2-2.2,2.2-2.2,3.2c0,0.8,1,2,2.2,2
				c1.5,0,2.2-1.7,3.5-3c1.8-2.2,28.6-30.6,32.4-34.1c20.1-17.6,58.2-49.8,75.8-49.8c3.5,0,8.5,1.8,8.5,6.2c0,7.5-10.7,20.9-12,22.9
				c-46.3,55.7-47,68.4-47,78.8c0,9,4.4,16.7,9.2,16.7c1.5,0,2.8-0.5,2.8-2c0-0.5,0-1-0.3-1.7C179.8,192.9,177.5,186.5,177.5,179z"
				/>
			<path id="XMLID_154_" class="st1" d="M536,155.1c-2,0-3.9-1-5.5-2.1c-0.1-0.1-0.2-0.2-0.3-0.2c-0.6-0.4-1.2-0.9-1.7-1.2
				c-3.4-3,2.1-2.7,5.5-0.4c1.8,1.2,3.8,2.3,5.7,3.3C538.5,154.8,537.2,155.1,536,155.1z M498,141.3c0-4,1.8-7.9,4.4-7.9
				c2.2,0,3,0.8,3,2.3c0,2.5-2.7,6.5-6.5,10.4C498.2,144.7,498,143,498,141.3z M589.8,155.1c-8.3,14.7-32.1,5.9-46.2-1
				c7.8-5,13.1-13.2,13.1-18.5c0-2.8-1.7-4.8-5.4-4.8c-3.7,0-7,1.8-8.5,2.7c-2.2,1.2-15.9,10.5-22.6,13.4c-0.7,0.3-1.4,0.6-2.2,0.9
				c-3.4,1.2-8.3,2.6-12.7,2.6c-2.3,0-4.2-0.8-5.4-2.3c5-5.5,8.4-11.4,8.4-14.9c0-1.8-1-3-3.2-3c-6.4,0-10.4,6.9-10.4,13.2
				c0,2,0.3,4,1.2,5.5c-4.5,4-9.9,7.2-13.9,7.2c-2.2,0-3.7-1.2-3.7-3.7c0-6.7,15.7-22.4,21.2-22.4c0.7,0,1.5-0.2,1.5-0.5
				c0-0.7-1.3-1.7-2.3-1.7c-7.9,0-27.1,19.4-27.1,28.4c0,3.5,2,4.8,5,4.8c7,0,14.7-4.7,20.6-10.4c1.5,1.7,3.7,2.7,6.7,2.7
				c3.1,0,6.1-0.7,9-1.5c0.9-0.3,1.8-0.6,2.7-0.9c1.9-0.7,3.9-1.3,5.7-2.3c2-1.1,4.1-2,6-3.2c1.8-1.1,3.7-2.3,5.5-3.4
				c3.4-2.1,6.7-4.3,10.3-6c1.3-0.6,2.7-1.2,4.2-1.2c2.8,0,4.2,1.7,4.2,4c0,4.4-4.2,11.2-9.6,14.4c-2.8-1.4-5.1-2.7-6.7-3.5
				c-1.6-0.9-3.4-1.4-5.2-1.6c-1.9-0.2-3.8-0.1-5.6,0.1c-1.4,0.2-2.9,0.5-3.3,2c-0.5,1.9,0.6,4.1,1.9,5.4c2.1,2.1,5.2,2.5,8.1,2.7
				c2.9,0.2,5.8-0.8,8.4-2c0.4-0.2,0.8-0.3,1.1-0.5c0.1-0.1,0.9-0.6,1.1-0.6c5.1,2.3,10.5,4.2,15.6,5.9c11.7,4,30.6,9,38.2-4.6
				C595.8,156.3,590.5,154,589.8,155.1z"/>
			<path id="XMLID_148_" class="st1" d="M362.4,134.2c7.7-4,8.8-0.7,2.8,5c-2.2,2.1-7.5,4.7-13.1,7
				C352.6,142,355.9,137.6,362.4,134.2z M233.1,140.4c0-4,1.9-7.8,4.4-7.8c2.2,0,3,0.9,3,2.4c0,2.5-2.7,6.5-6.6,10.3
				C233.3,143.8,233.1,142.1,233.1,140.4z M468.1,132.7c1.6-4.3,10.5-19.4,19.5-34c2.2-0.1,4.6-0.2,7.2-0.3
				c-8.4,13.6-17.8,25.8-23.2,32.1C469.3,133.1,467.2,135.3,468.1,132.7z M508.1,67.1c0.8-1,2,0.1,0.7,3.6c-2.8,7.8-7,16-11.7,24
				c-2.4,0-4.7,0-6.9,0C498.4,81.3,506.2,69.2,508.1,67.1z M473,199.3c-19.2-11.3-21.7-29.3-6.6-57.9c8.5-6.6,17.8-18.5,26-29.8
				c3-4,5.9-8.6,8.8-13.4c5.4-0.2,11.8-0.3,19.7-0.4c42.5-0.6,52.2,0.8,52.2,0.8c1.7,0,3.1-0.6,3.1-2.3c0-1.7-1.3-2.1-3-2.1
				c0,0-14.8-0.2-64.6,0.5c-1.8,0-3.6,0-5.3,0c4.1-7.3,7.9-15.2,11-23.3c1.5-4,1.8-9-2.3-10.9c-1-0.5-4.1,0.2-8.9,7.2
				c-6.2,9.2-12.1,18.3-17.4,26.9c-12.8-0.2-23.5-0.8-33.3-1.7c-1.7,0-2.8,0.2-3.1,2.1c-0.3,1.7,1.1,2.2,3.1,2.6
				c13.6,1.4,21,1.5,30.7,1.2c-10.5,17.4-18.5,32.4-22.2,42.3c-4.9,3.5-10.3,6.3-16.7,9l0,0c-0.3,0.2-0.7,0.3-1,0.5
				c-1.6,0.7-3.3,1.3-5,2c-3.4,1.1-6.4,1.7-8.5,1.5c-2.5-0.3-3.5-1.2-3.5-3c0-4.4,5.6-12,6.9-13.8c0.5-0.8,1-1.8,1-2.7
				c0-0.5,0-1.5-1.2-1.5c-2.2,0-6.5,3.1-7.4,3.8c-6.7,3.5-22.5,15.1-25,15.1c-1,0-1.3-0.7-1.3-1.3c0-2.8,9.9-10.6,10-14.3
				c0-1.2-0.3-1.8-1.3-1.8c-0.8,0-1.8,0.5-2.4,0.7c0,0-1,0.7-2.7,1.8c-0.2,0.1-0.5,0.2-0.8,0.5c-0.4,0.3-0.8,0.5-1.2,0.8
				c-3.4,2.1-8.4,5-13.9,7.6c-2.6,1.2-5.2,2.2-7.7,3.1c-7.6,2.8-25.4,6.9-26.8,1.8c-0.1-0.5-0.2-0.9-0.2-1.4
				c7.8-3.1,15.8-7.1,19.3-12c3-4.1,4.9-9.9-4.5-7.5c-9,2.4-18.7,9.1-21.1,19.2c-2.5,0.9-4.9,1.8-7,2.4c-3.5,1.3-10.4,2.9-14.3,2.9
				c-2.5,0-3.4-1.9-3.4-3.7c0-4.4,5.6-12,6.9-13.8c0.5-0.8,1-1.8,1-2.7c0-0.5,0-1.5-1.2-1.5c-6.7,0-21.9,19.3-29.9,19.2
				c-1.5,0-2-0.7-2-1.5c0-2.8,9.3-11.7,9.3-15.3c0-1-0.5-2-1.7-2c-2.2,0-5.9,2.6-6.7,3.3c-6.7,3.5-22.5,15.1-25,15.1
				c-1,0-1.3-0.7-1.3-1.3c0-2.8,9.9-10.6,10-14.3c0-1.2-0.3-1.8-1.3-1.8c-0.8,0-1.8,0.5-2.3,0.7c0,0-10.2,7-21.5,11.9
				c-1,0.5-2.2,0.9-3.4,1.3c-3.3,1.1-7.6,2.1-11.5,2.1c-2.3,0-4.2-0.9-5.3-2.4c5.1-5.5,8.4-11.3,8.5-14.8c0-1.8-1-3-3.2-3
				c-6.4,0-10.4,6.8-10.4,13.2c0,2,0.3,4,1.1,5.5c-4.5,4-9.9,7.1-13.9,7.1c-2.2,0-3.7-1.2-3.7-3.7c0-6.7,15.9-22.3,21.4-22.3
				c0.7,0,1.5-0.2,1.5-0.5c0-0.7-1.3-1.7-2.3-1.7c-7.9,0-27.2,19.2-27.3,28.3c0,3.5,2,4.9,5,4.9c7,0,14.8-4.6,20.6-10.2
				c1.5,1.7,3.7,2.7,6.7,2.7c4.7,0,10.7-1.6,17.4-4.6c0,0,0.1-0.1,0.2-0.2c4.3-1.8,12.9-6.6,13.4-6.6c0.5,0,0.7,0.2,0.7,0.5
				c0,0.2,0,0.3-0.2,0.5c-2.2,2.7-9.4,9.3-9.4,12.7c0,1.3,1.2,2.3,2.5,2.3c4.7,0,28.2-17.6,31.2-17.5c0.2,0,0.3,0,0.3,0.2
				c0,1.3-7.4,11.2-7.4,14.7c0,1.3,2,2.2,3.2,2.2c7,0,17.3-7.8,26.9-15.1c0.7-0.5,1.3-0.7,1.7-0.7c0.3,0,0.5,0.2,0.5,0.7
				c-2,3.8-4.4,8.8-4.4,12.2c0,2.2,1,3.6,3.8,3.7c7.9,0.2,16.2-2.7,19.5-3.9c1.9-0.6,4.2-1.4,6.6-2.2c0.1,7.6,12.3,8.1,33.6-0.5
				c0.1,0,1.5-0.5,1.9-0.7c7.2-2.5,13.9-5.6,18.3-8.1c0.1,0.1,0.1,0.2,0.1,0.3c0,0.2,0,0.3-0.2,0.5c-2.2,2.7-9.4,9.3-9.4,12.7
				c0,1.3,1.2,2.3,2.5,2.3c4.7,0,28.2-17.6,31.2-17.5c0.2,0,0.3,0,0.3,0.2c0,1.2-4.9,8.3-4.9,13.2c0,2.5,1.3,4.4,5.5,4.4
				c3.8,0,9.2-1.6,13.8-3.2c0,0,0.1,0,0.1,0c0.4-0.1,0.8-0.3,1.2-0.5c0.6-0.2,1.1-0.4,1.6-0.6c0.7-0.3,1.4-0.5,2.2-0.8
				c0.2-0.1,0.3-0.1,0.6-0.2l0,0c4.7-1.9,10.3-4.4,15.9-8.6c-1.8,5.1-3.4,10.4-4.6,15.7c-3.7,15.7,0.7,31.4,16.8,43.3
				C473.7,204.5,478.3,202.4,473,199.3z"/>
		</g>
	</g>
	<g id="XMLID_136_">
		<path id="XMLID_142_" class="st0" d="M408.7,190.1c-1.9,0-3.4,0.5-4.7,1.3c-1.2-0.9-2.7-1.3-4.6-1.3c-0.5,0-1,0.1-1.5,0.2
			c-0.5,0.1-0.9,0.3-1.4,0.5c-0.4-0.4-1-0.7-1.7-0.7c-0.8,0-1.4,0.2-1.9,0.7c-0.5,0.5-0.8,1.2-0.8,2.2v10.6c0,1.1,0.3,1.9,0.8,2.4
			c0.5,0.5,1.1,0.7,1.9,0.7c0.6,0,1.3-0.3,1.8-0.8c0.5-0.5,0.8-1.3,0.8-2.4v-6.4c0.1-0.5,0.3-1,0.7-1.3c0.3-0.4,0.8-0.5,1.4-0.5
			c0.5,0,1.1,0.2,1.4,0.6c0.4,0.4,0.6,0.9,0.6,1.4v6.2c0,1.1,0.3,1.9,0.8,2.4c0.5,0.5,1.2,0.7,1.9,0.7c0.7,0,1.4-0.2,1.9-0.7
			c0.5-0.5,0.8-1.3,0.8-2.4v-6.4c0-0.5,0.3-1,0.6-1.3c0.4-0.4,0.9-0.5,1.4-0.5c0.6,0,1,0.2,1.5,0.6c0.3,0.4,0.6,0.9,0.6,1.4v6.2
			c0,1.1,0.3,1.9,0.8,2.4c0.5,0.5,1.1,0.7,1.9,0.7c0.7,0,1.4-0.2,1.9-0.7c0.5-0.5,0.8-1.3,0.8-2.4v-6.3c0-2.3-0.7-4.1-1.9-5.3
			C412.8,190.8,411,190.1,408.7,190.1"/>
		<path id="XMLID_141_" class="st0" d="M422.5,185.3c-0.3-0.2-0.5-0.4-0.9-0.6c-0.3-0.1-0.6-0.2-1-0.2c-0.7,0-1.4,0.3-1.9,0.8
			c-0.5,0.5-0.8,1.2-0.8,1.9c0,0.8,0.2,1.4,0.8,1.9c0.5,0.5,1.1,0.8,1.9,0.8c0.7,0,1.3-0.3,1.9-0.8c0.5-0.5,0.8-1.1,0.8-1.9
			c0-0.3-0.1-0.7-0.2-1C422.9,185.8,422.7,185.5,422.5,185.3"/>
		<path id="XMLID_140_" class="st0" d="M420.6,190.4c-0.7,0-1.4,0.3-1.9,0.8c-0.5,0.5-0.7,1.3-0.7,2.4v10.2c0,1.1,0.2,1.9,0.7,2.3
			c0.5,0.5,1.2,0.7,1.9,0.7c0.7,0,1.4-0.2,1.9-0.7c0.5-0.5,0.7-1.3,0.7-2.3v-10.2c0-1.1-0.3-1.9-0.7-2.4
			C422,190.6,421.3,190.4,420.6,190.4"/>
		<path id="XMLID_139_" class="st0" d="M432.6,190.1c-0.5,0-1.1,0.1-1.5,0.2c-0.5,0.1-1,0.3-1.5,0.5c-0.4-0.4-1-0.7-1.6-0.7
			c-0.8,0-1.4,0.2-1.9,0.7c-0.5,0.5-0.8,1.2-0.8,2.2v10.6c0,1.1,0.3,1.9,0.8,2.4c0.5,0.5,1.1,0.7,1.9,0.7c0.7,0,1.3-0.3,1.8-0.8
			c0.5-0.5,0.8-1.3,0.8-2.4v-6.4c0.1-0.5,0.3-1,0.7-1.3c0.4-0.4,0.8-0.5,1.4-0.5c0.6,0,1,0.2,1.4,0.6c0.4,0.4,0.6,0.9,0.6,1.4v6.2
			c0,1.1,0.3,1.9,0.8,2.4c0.5,0.5,1.2,0.7,1.9,0.7c0.7,0,1.3-0.2,1.8-0.7c0.5-0.5,0.8-1.3,0.8-2.4v-6.3c0-2.3-0.6-4.1-1.9-5.3
			C436.7,190.8,434.9,190.1,432.6,190.1"/>
		<path id="XMLID_138_" class="st0" d="M444.4,190.4c-0.8,0-1.4,0.3-1.9,0.8c-0.5,0.5-0.8,1.3-0.8,2.4v10.2c0,1.1,0.3,1.9,0.8,2.3
			c0.5,0.5,1.1,0.7,1.9,0.7c0.7,0,1.4-0.2,1.9-0.7c0.5-0.5,0.7-1.3,0.7-2.3v-10.2c0-1.1-0.3-1.9-0.7-2.4
			C445.8,190.6,445.1,190.4,444.4,190.4"/>
		<path id="XMLID_137_" class="st0" d="M444.4,189.8c0.7,0,1.3-0.3,1.9-0.8c0.5-0.5,0.8-1.1,0.8-1.9c0-0.3-0.1-0.7-0.2-1
			c-0.2-0.3-0.3-0.6-0.6-0.9c-0.2-0.2-0.5-0.4-0.9-0.6c-0.3-0.1-0.7-0.2-1-0.2c-0.8,0-1.4,0.3-1.9,0.8c-0.5,0.5-0.8,1.2-0.8,1.9
			c0,0.8,0.3,1.4,0.8,1.9C443.1,189.5,443.7,189.8,444.4,189.8"/>
	</g>
	<g id="XMLID_76_">
		<path id="XMLID_133_" class="st0" d="M463.9,226.4c-0.7,0.8-1.6,1.1-2.6,1.1c-1.1,0-2-0.4-2.7-1.1c-0.7-0.7-1.1-1.7-1.1-2.8
			c0-1.1,0.4-2.1,1.1-2.8c0.7-0.7,1.6-1.1,2.7-1.1c1,0,1.9,0.4,2.6,1.1c0.8,0.8,1.1,1.7,1.1,2.8C465,224.8,464.7,225.7,463.9,226.4
			 M468.4,216.2c-0.9-1-2-1.7-3.2-2.3c-1.2-0.6-2.5-0.8-3.9-0.8c-0.7,0-1.4,0.1-2,0.2c-0.6,0.1-1.2,0.3-1.8,0.6V209
			c0-1.3-0.3-2.3-0.9-3c-0.6-0.6-1.4-0.9-2.2-0.9c-1.2,0-2,0.4-2.5,1c-0.5,0.7-0.8,1.6-0.8,2.9v21.2c0,1.2,0.3,2.1,0.9,2.8
			c0.6,0.7,1.4,1,2.3,1.1c0.9,0,1.6-0.3,2.3-1c0.7,0.3,1.4,0.6,2.2,0.8c0.8,0.2,1.6,0.3,2.5,0.3c1.4,0,2.7-0.3,3.9-0.8
			c1.2-0.5,2.3-1.3,3.2-2.2c0.9-1,1.6-2.1,2.2-3.3c0.5-1.3,0.8-2.6,0.8-4.1c0-1.4-0.3-2.8-0.8-4.1
			C470,218.3,469.3,217.2,468.4,216.2z"/>
		<path id="XMLID_132_" class="st0" d="M487.4,213.2c-0.8,0-1.6,0.3-2.2,1c-0.6,0.7-0.9,1.6-0.9,2.9v8c-0.1,0.7-0.3,1.2-0.8,1.6
			c-0.4,0.4-1,0.7-1.6,0.7c-0.6,0-1.2-0.3-1.7-0.7c-0.5-0.5-0.7-1.1-0.7-1.8v-7.8c0-1.4-0.3-2.4-0.9-2.9c-0.6-0.6-1.4-0.9-2.3-0.9
			c-0.9,0-1.6,0.3-2.3,0.9c-0.6,0.6-0.9,1.6-0.9,2.9v7.9c0,2.9,0.8,5.1,2.3,6.7c1.5,1.6,3.7,2.3,6.5,2.3c0.6,0,1.2,0,1.8-0.2
			c0.6-0.1,1.2-0.3,1.7-0.6c0.3,0.3,0.6,0.5,1,0.6c0.3,0.1,0.7,0.2,1.1,0.2c0.9,0,1.7-0.3,2.3-0.8c0.6-0.6,0.9-1.6,0.9-2.8v-13.3
			c0-1.5-0.3-2.5-1-3C489.1,213.5,488.4,213.2,487.4,213.2"/>
		<path id="XMLID_131_" class="st0" d="M504.9,214.1c-0.3-0.3-0.7-0.6-1-0.7c-0.4-0.2-0.8-0.3-1.2-0.3c-0.6,0-1.2,0.1-1.8,0.2
			c-0.6,0.1-1.2,0.3-1.8,0.6c-0.5-0.5-1.2-0.8-2-0.8c-1,0-1.7,0.3-2.3,0.9c-0.6,0.6-0.9,1.5-0.9,2.8v13.3c0.1,1.5,0.3,2.5,0.9,3
			c0.6,0.6,1.4,0.9,2.4,0.9c0.8,0,1.5-0.3,2.2-1c0.6-0.7,0.9-1.6,0.9-2.9v-8c0.1-0.7,0.4-1.2,0.8-1.6c0.5-0.4,1-0.7,1.7-0.7
			c0.8-0.1,1.5-0.4,2.2-1c0.6-0.6,0.9-1.4,0.9-2.3c0-0.4-0.1-0.9-0.3-1.2C505.4,214.7,505.2,214.4,504.9,214.1"/>
		<path id="XMLID_128_" class="st0" d="M520.5,226.4c-0.7,0.8-1.6,1.1-2.6,1.1c-1.1,0-2-0.4-2.7-1.1c-0.7-0.7-1.1-1.7-1.1-2.8
			c0-1.1,0.3-2.1,1.1-2.8c0.7-0.7,1.6-1.1,2.7-1.1c1,0,1.9,0.4,2.6,1.1c0.7,0.8,1.1,1.7,1.1,2.8
			C521.5,224.8,521.2,225.7,520.5,226.4 M525,216.2c-1-1-2-1.7-3.2-2.3c-1.2-0.6-2.5-0.8-3.9-0.8c-0.7,0-1.4,0.1-2,0.2
			c-0.6,0.1-1.2,0.3-1.8,0.6V209c0-1.3-0.3-2.3-0.9-3c-0.6-0.6-1.4-0.9-2.2-0.9c-1.2,0-2,0.4-2.5,1c-0.5,0.7-0.7,1.6-0.7,2.9v21.2
			c0,1.2,0.2,2.1,0.8,2.8c0.6,0.7,1.4,1,2.4,1.1c0.8,0,1.6-0.3,2.2-1c0.7,0.3,1.4,0.6,2.2,0.8c0.8,0.2,1.6,0.3,2.5,0.3
			c1.4,0,2.7-0.3,3.9-0.8c1.2-0.5,2.3-1.3,3.2-2.2c0.9-1,1.6-2.1,2.2-3.3c0.5-1.3,0.8-2.6,0.8-4.1c0-1.4-0.3-2.8-0.8-4.1
			C526.6,218.3,525.8,217.2,525,216.2z"/>
		<path id="XMLID_127_" class="st0" d="M544,213.2c-0.8,0-1.6,0.3-2.2,1c-0.6,0.7-0.9,1.6-0.9,2.9v8c-0.1,0.7-0.3,1.2-0.8,1.6
			c-0.5,0.4-1.1,0.7-1.6,0.7c-0.7,0-1.3-0.3-1.8-0.7c-0.4-0.5-0.7-1.1-0.7-1.8v-7.8c0-1.4-0.3-2.4-0.9-2.9c-0.6-0.6-1.4-0.9-2.3-0.9
			c-0.9,0-1.6,0.3-2.3,0.9c-0.6,0.6-1,1.6-1,2.9v7.9c0,2.9,0.8,5.1,2.3,6.7c1.5,1.6,3.7,2.3,6.5,2.3c0.6,0,1.1,0,1.7-0.2
			c0.6-0.1,1.2-0.3,1.8-0.6c0.3,0.3,0.6,0.5,0.9,0.6c0.4,0.1,0.8,0.2,1.2,0.2c0.9,0,1.6-0.3,2.3-0.8c0.6-0.6,0.9-1.6,0.9-2.8v-13.3
			c-0.1-1.5-0.4-2.5-0.9-3C545.7,213.5,544.9,213.2,544,213.2"/>
		<path id="XMLID_126_" class="st0" d="M554,212.6c0.9,0,1.6-0.3,2.2-1c0.6-0.6,1-1.4,1-2.4c0-0.4-0.1-0.8-0.3-1.2
			c-0.2-0.4-0.4-0.8-0.7-1.1c-0.3-0.3-0.6-0.6-1.1-0.8c-0.3-0.2-0.8-0.3-1.2-0.3c-0.9,0-1.7,0.4-2.3,1c-0.6,0.7-0.9,1.4-0.9,2.3
			c0,0.9,0.3,1.7,0.9,2.4C552.4,212.3,553.1,212.6,554,212.6"/>
		<path id="XMLID_125_" class="st0" d="M554.1,213.4c-0.9,0-1.6,0.3-2.2,1c-0.6,0.7-0.9,1.7-0.9,3.1V235c0,0.3-0.1,0.5-0.2,0.7
			c-0.1,0.2-0.3,0.4-0.7,0.5c-0.6,0.3-1.1,0.8-1.6,1.3c-0.4,0.5-0.7,1.3-0.7,2.1c0,0.9,0.3,1.7,1,2.3c0.6,0.7,1.5,1,2.5,1h0.2
			c0.6,0,1.2-0.1,1.9-0.3c0.7-0.2,1.3-0.5,1.9-1c0.6-0.4,1.1-1,1.5-1.8c0.4-0.8,0.6-1.8,0.6-3v-19.4c0-1.4-0.3-2.4-1-3.1
			C555.9,213.7,555.1,213.4,554.1,213.4"/>
		<path id="XMLID_93_" class="st0" d="M573.1,226.4c-0.7,0.8-1.6,1.1-2.7,1.1c-1,0-1.9-0.4-2.6-1.1c-0.7-0.7-1.1-1.7-1.1-2.8
			c0-1.1,0.3-2.1,1.1-2.8c0.7-0.7,1.6-1.1,2.6-1.1c1.1,0,2,0.4,2.7,1.1c0.7,0.8,1.1,1.7,1.1,2.8
			C574.2,224.7,573.8,225.7,573.1,226.4 M577.7,213.2h-0.3c-0.9,0-1.7,0.4-2.3,1c-1.5-0.8-3-1.1-4.7-1.1c-1.4,0-2.7,0.3-3.9,0.8
			c-1.2,0.6-2.3,1.3-3.2,2.2c-0.9,1-1.7,2.1-2.2,3.4c-0.5,1.3-0.8,2.6-0.8,4.1c0,1.5,0.3,2.8,0.8,4.1c0.5,1.3,1.3,2.4,2.2,3.3
			c0.9,1,2,1.7,3.2,2.3c1.2,0.5,2.5,0.8,3.9,0.8c0.8,0,1.7-0.1,2.5-0.3c0.8-0.2,1.5-0.4,2.2-0.8c0.6,0.7,1.3,1,2.3,1h0.2
			c0.5,0,1-0.1,1.3-0.3c0.4-0.2,0.7-0.5,0.9-0.9c0.2-0.4,0.4-0.8,0.5-1.3c0.1-0.4,0.2-0.9,0.2-1.4v-13c0-0.9-0.2-1.8-0.6-2.6
			C579.5,213.7,578.8,213.3,577.7,213.2z"/>
		<path id="XMLID_77_" class="st0" d="M594.1,223.4c-0.5-0.5-0.9-0.9-1.4-1.3c-0.5-0.3-1-0.7-1.5-0.9l-0.1-0.1
			c-0.1,0-0.2-0.1-0.5-0.3c-0.2-0.1-0.4-0.2-0.6-0.4c-0.2-0.1-0.5-0.3-0.6-0.4c-0.2-0.1-0.2-0.3-0.2-0.4c0-0.2,0-0.4,0.1-0.6
			c0.1-0.2,0.3-0.2,0.7-0.2c0.2,0,0.4,0.1,0.5,0.3c0.2,0.2,0.2,0.3,0.3,0.4c0.3,0.5,0.7,0.8,1,1c0.4,0.2,0.8,0.3,1.4,0.3
			c0.9,0,1.6-0.3,1.9-0.9c0.4-0.6,0.6-1.3,0.6-2.2c0-0.6-0.1-1.2-0.5-1.8c-0.4-0.6-0.8-1.1-1.3-1.5c-0.6-0.4-1.2-0.8-1.9-1.1
			c-0.7-0.3-1.4-0.4-2.2-0.4c-1.9,0-3.4,0.6-4.5,1.8c-1.1,1.2-1.7,2.7-1.7,4.7c0,1,0.1,1.9,0.4,2.6c0.3,0.7,0.7,1.3,1.1,1.8
			c0.4,0.5,0.9,0.9,1.4,1.2c0.4,0.3,0.9,0.6,1.3,0.8l0.2,0.1c0.2,0.1,0.4,0.2,0.6,0.3c0.2,0.1,0.4,0.2,0.7,0.3
			c0.3,0.1,0.4,0.3,0.6,0.4c0.2,0.2,0.2,0.4,0.2,0.7c0,0.3-0.3,0.5-0.7,0.5c-0.3,0-0.6-0.1-0.8-0.3c-0.3-0.2-0.5-0.4-0.8-0.7
			c-0.3-0.2-0.5-0.4-0.8-0.7c-0.3-0.2-0.6-0.3-1-0.3c-0.9,0-1.6,0.3-2,0.8c-0.4,0.6-0.6,1.3-0.6,2.2c0,0.9,0.2,1.6,0.5,2.2
			c0.3,0.6,0.8,1.1,1.4,1.5c0.6,0.4,1.3,0.7,2,0.8c0.8,0.2,1.5,0.3,2.3,0.3c0.8,0,1.6-0.2,2.3-0.5c0.7-0.3,1.4-0.8,1.9-1.3
			c0.5-0.6,0.9-1.3,1.3-2c0.3-0.8,0.5-1.6,0.5-2.5c0-1-0.1-1.8-0.4-2.5C594.8,224.6,594.5,224,594.1,223.4"/>
	</g>
</g>
</svg>
