<?xml version="1.0" encoding="utf-8"?>
<!-- Generator: Adobe Illustrator 22.0.1, SVG Export Plug-In . SVG Version: 6.00 Build 0)  -->
<svg version="1.1" id="Layer_1" xmlns="http://www.w3.org/2000/svg" xmlns:xlink="http://www.w3.org/1999/xlink" x="0px" y="0px"
	 viewBox="0 0 14400 14400" style="enable-background:new 0 0 14400 14400;" xml:space="preserve">
<style type="text/css">
	.st0{fill:url(#SVGID_1_);}
	.st1{fill-rule:evenodd;clip-rule:evenodd;fill:#80B9C7;}
	.st2{fill-rule:evenodd;clip-rule:evenodd;fill:#9CE6FF;}
	.st3{fill-rule:evenodd;clip-rule:evenodd;fill:#80E0FF;}
	.st4{fill:none;}
	.st5{fill:#F9F9F9;}
	.st6{fill-rule:evenodd;clip-rule:evenodd;fill:#59CDF7;}
	.st7{fill-rule:evenodd;clip-rule:evenodd;fill:url(#SVGID_2_);}
	.st8{fill-rule:evenodd;clip-rule:evenodd;fill:url(#SVGID_3_);}
	.st9{fill-rule:evenodd;clip-rule:evenodd;fill:#0C1045;}
	.st10{fill:#0C1045;}
	.st11{fill:#031872;}
</style>
<linearGradient id="SVGID_1_" gradientUnits="userSpaceOnUse" x1="6898.5366" y1="6884.7725" x2="7500.7646" y2="6884.7725" gradientTransform="matrix(1 0 0 -4.501 0 38066.5469)">
	<stop  offset="2.434593e-03" style="stop-color:#61E0E3"/>
	<stop  offset="1" style="stop-color:#ABFFFF"/>
</linearGradient>
<rect x="6898.5" y="6898.8" class="st0" width="602.2" height="359.2"/>
<g>
	<g>
		<path class="st1" d="M7206,6909.7l-4.7-8.4c0,0-1.1-2.8-3.9-2.8c-2.8,0-5.6,7.8-5.6,7.8L7206,6909.7z"/>
		<polygon class="st2" points="7176.6,6934.4 7188.4,6939.2 7188.5,7331.7 7176.5,7331.7 		"/>
		<polygon class="st2" points="7221,6934.2 7209.1,6939.1 7209.1,7315.2 7221,7315.2 		"/>
		<polygon class="st3" points="7188.4,6916 7198.8,6906.4 7209.1,6916 7209.1,7331.6 7188.5,7331.7 		"/>
		<polygon class="st4" points="7188.4,6916 7198.8,6906.4 7209.1,6916 7209.1,7331.6 7188.5,7331.7 		"/>
		<path class="st5" d="M7177.1,6932.1c2.4-4.2,14.9-26.3,14.9-26.3c4.2,1.2,8.2,1.2,11.9,0l17.1,28.5l-11.9,4.9l-10.3-4.9l-10.3,4.9
			l-11.8-4.9C7176.6,6933.6,7176.8,6932.9,7177.1,6932.1z"/>
	</g>
	<g>
		<path class="st1" d="M7306.7,6916.8l6.2-7.3c0,0,1.6-2.5,4.4-2s4,8.7,4,8.7L7306.7,6916.8z"/>
		<polygon class="st2" points="7330.8,6946.7 7318.3,6949.2 7243.1,7334.4 7254.9,7336.6 		"/>
		<polygon class="st2" points="7287.3,6938 7298,6945.1 7226,7314.2 7214.3,7312 		"/>
		<polygon class="st3" points="7322.7,6926.4 7314.4,6915 7302.4,6922.4 7222.9,7330.4 7243.1,7334.4 		"/>
		<polygon class="st4" points="7322.7,6926.4 7314.4,6915 7302.4,6922.4 7222.9,7330.4 7243.1,7334.4 		"/>
		<path class="st5" d="M7330.8,6944.3c-1.6-4.6-9.6-28.6-9.6-28.6c-4.3,0.3-8.2-0.4-11.7-2.3l-22.2,24.7l10.7,7.1l11.1-2.8l9.2,6.8
			l12.6-2.5C7330.9,6945.9,7330.9,6945.2,7330.8,6944.3z"/>
	</g>
	<g>
		<path class="st1" d="M7444.6,7015.3l6.9-6.7c0,0,1.8-2.4,4.6-1.6c2.7,0.8,3.1,9,3.1,9L7444.6,7015.3z"/>
		<polygon class="st2" points="7465.8,7047.3 7453,7048.6 7341.1,7424.7 7352.5,7428.1 		"/>
		<polygon class="st2" points="7423.3,7034.5 7433.3,7042.6 7326,7403.1 7314.6,7399.7 		"/>
		<polygon class="st3" points="7459.7,7026.4 7452.5,7014.2 7439.8,7020.4 7321.3,7418.8 7341.1,7424.7 		"/>
		<polygon class="st4" points="7459.7,7026.4 7452.5,7014.2 7439.8,7020.4 7321.3,7418.8 7341.1,7424.7 		"/>
		<path class="st5" d="M7466,7045c-1.1-4.7-6.8-29.4-6.8-29.4c-4.3-0.1-8.1-1.2-11.4-3.4l-24.5,22.5l10,8.1l11.3-1.7l8.5,7.7
			l12.7-1.3C7466,7046.6,7466,7045.9,7466,7045z"/>
	</g>
	<g>
		<path class="st1" d="M7396.5,6974.2l6.3-7.3c0,0,1.6-2.5,4.4-2c2.8,0.6,3.9,8.7,3.9,8.7L7396.5,6974.2z"/>
		<polygon class="st1" points="7420.6,7003.2 7408.9,7000.9 7329.7,7391.9 7341.4,7394.3 		"/>
		<polygon class="st1" points="7376.9,6994.8 7391.7,6981.6 7309.4,7387.8 7297.7,7385.4 		"/>
		<path class="st5" d="M7420.4,7001.4c-1.5-4.6-9.4-28.7-9.4-28.7c-4.3,0.3-8.2-0.5-11.7-2.4l-22.5,24.6l10.7,7.1l11.1-2.8l9.2,6.9
			c0,0,11.9,2.6,12.6-2.3C7420.5,7003,7420.5,7002.2,7420.4,7001.4z"/>
		<path class="st4" d="M7420.4,7001.4c-1.5-4.6-9.4-28.7-9.4-28.7c-4.3,0.3-8.2-0.5-11.7-2.4l-22.5,24.6l10.7,7.1l11.1-2.8l9.2,6.9
			c0,0,11.9,2.6,12.6-2.3C7420.5,7003,7420.5,7002.2,7420.4,7001.4z"/>
	</g>
	<g>
		<path class="st1" d="M7469.4,7077.8l7.6-5.9c0,0,2.1-2.2,4.7-1.1c2.6,1.1,2.1,9.3,2.1,9.3L7469.4,7077.8z"/>
		<polygon class="st1" points="7487.4,7110.9 7476.4,7106.3 7323,7474.6 7334,7479.2 		"/>
		<polygon class="st1" points="7446.2,7094.2 7463.3,7084 7303.9,7466.6 7292.9,7462 		"/>
		<path class="st5" d="M7487.6,7109c-0.6-4.8-3.7-30-3.7-30c-4.3-0.5-8-2.1-11-4.6l-26.8,19.8l9.2,9l11.4-0.5l7.7,8.5
			c0,0,11.2,4.9,12.8,0.1C7487.4,7110.7,7487.6,7109.9,7487.6,7109z"/>
		<path class="st4" d="M7487.6,7109c-0.6-4.8-3.7-30-3.7-30c-4.3-0.5-8-2.1-11-4.6l-26.8,19.8l9.2,9l11.4-0.5l7.7,8.5
			c0,0,11.2,4.9,12.8,0.1C7487.4,7110.7,7487.6,7109.9,7487.6,7109z"/>
	</g>
	<g>
		<path class="st1" d="M7249.4,6918.2l5.7-7.7c0,0,1.4-2.7,4.2-2.3c2.8,0.3,4.6,8.4,4.6,8.4L7249.4,6918.2z"/>
		<polygon class="st1" points="7275.8,6945.2 7263.9,6943.8 7215.5,7339.8 7227.3,7341.3 		"/>
		<polygon class="st1" points="7231.5,6940.3 7245.3,6925.9 7195,7337.3 7183.2,7335.8 		"/>
		<path class="st5" d="M7275.4,6943.4c-1.9-4.5-11.6-27.9-11.6-27.9c-4.3,0.7-8.2,0.2-11.8-1.5l-20.5,26.3l11.3,6.2l10.9-3.6
			l9.7,6.1c0,0,12.1,1.7,12.3-3.3C7275.6,6945,7275.6,6944.2,7275.4,6943.4z"/>
		<path class="st4" d="M7275.4,6943.4c-1.9-4.5-11.6-27.9-11.6-27.9c-4.3,0.7-8.2,0.2-11.8-1.5l-20.5,26.3l11.3,6.2l10.9-3.6
			l9.7,6.1c0,0,12.1,1.7,12.3-3.3C7275.6,6945,7275.6,6944.2,7275.4,6943.4z"/>
	</g>
	<g>
		<path class="st1" d="M7355,6942.1l6-7.3c0,0,1.5-2.5,4.3-2c2.7,0.5,4.1,8.4,4.1,8.4L7355,6942.1z"/>
		<polygon class="st6" points="7379.6,6972 7367.1,6974.6 7295.5,7384.1 7307.3,7386.1 		"/>
		<polygon class="st6" points="7335.8,6964.2 7346.7,6971.1 7275.2,7380.5 7263.4,7378.4 		"/>
		<path class="st5" d="M7379.5,6969.5c-1.6-4.6-10.2-28.4-10.2-28.4c-4.3,0.4-8.2-0.3-11.7-2.1l-21.8,25.2l10.9,6.8l11-3l9.3,6.6
			c0,0,12,2.3,12.5-2.7C7379.7,6971.2,7379.7,6970.4,7379.5,6969.5z"/>
	</g>
</g>
<g>
	<g>
		<path class="st1" d="M7090.7,6916.8l-6.2-7.3c0,0-1.6-2.5-4.4-2s-4,8.7-4,8.7L7090.7,6916.8z"/>
		<polygon class="st2" points="7066.5,6946.7 7079.1,6949.2 7154.2,7334.4 7142.5,7336.6 		"/>
		<polygon class="st2" points="7110.1,6938 7099.4,6945.1 7171.3,7314.2 7183.1,7312 		"/>
		<polygon class="st3" points="7074.6,6926.4 7083,6915 7094.9,6922.4 7174.5,7330.4 7154.2,7334.4 		"/>
		<polygon class="st4" points="7074.6,6926.4 7083,6915 7094.9,6922.4 7174.5,7330.4 7154.2,7334.4 		"/>
		<path class="st5" d="M7066.5,6944.3c1.6-4.6,9.6-28.6,9.6-28.6c4.3,0.3,8.2-0.4,11.7-2.3l22.2,24.7l-10.7,7.1l-11.1-2.8l-9.2,6.8
			l-12.6-2.5C7066.4,6945.9,7066.4,6945.2,7066.5,6944.3z"/>
	</g>
	<g>
		<path class="st1" d="M6952.8,7015.3l-6.9-6.7c0,0-1.8-2.4-4.6-1.6s-3.1,9-3.1,9L6952.8,7015.3z"/>
		<polygon class="st2" points="6931.6,7047.3 6944.3,7048.6 7056.3,7424.7 7044.8,7428.1 		"/>
		<polygon class="st2" points="6974.1,7034.5 6964.1,7042.6 7071.4,7403.1 7082.8,7399.7 		"/>
		<polygon class="st3" points="6937.7,7026.4 6944.9,7014.2 6957.5,7020.4 7076,7418.8 7056.3,7424.7 		"/>
		<polygon class="st4" points="6937.7,7026.4 6944.9,7014.2 6957.5,7020.4 7076,7418.8 7056.3,7424.7 		"/>
		<path class="st5" d="M6931.4,7045c1.1-4.7,6.8-29.4,6.8-29.4c4.3-0.1,8.1-1.2,11.4-3.4l24.5,22.5l-10,8.1l-11.3-1.7l-8.5,7.7
			l-12.7-1.3C6931.4,7046.6,6931.4,7045.9,6931.4,7045z"/>
	</g>
	<g>
		<path class="st1" d="M7000.9,6974.2l-6.3-7.3c0,0-1.6-2.5-4.4-2c-2.8,0.6-3.9,8.7-3.9,8.7L7000.9,6974.2z"/>
		<polygon class="st1" points="6976.7,7003.2 6988.4,7000.9 7067.7,7391.9 7056,7394.3 		"/>
		<polygon class="st1" points="7020.5,6994.8 7005.6,6981.6 7087.9,7387.8 7099.6,7385.4 		"/>
		<path class="st5" d="M6976.9,7001.4c1.5-4.6,9.4-28.7,9.4-28.7c4.3,0.3,8.2-0.5,11.7-2.4l22.5,24.6l-10.7,7.1l-11.1-2.8l-9.2,6.9
			c0,0-11.9,2.6-12.6-2.3C6976.8,7003,6976.8,7002.2,6976.9,7001.4z"/>
		<path class="st4" d="M6976.9,7001.4c1.5-4.6,9.4-28.7,9.4-28.7c4.3,0.3,8.2-0.5,11.7-2.4l22.5,24.6l-10.7,7.1l-11.1-2.8l-9.2,6.9
			c0,0-11.9,2.6-12.6-2.3C6976.8,7003,6976.8,7002.2,6976.9,7001.4z"/>
	</g>
	<g>
		<path class="st1" d="M6928,7077.8l-7.6-5.9c0,0-2.1-2.2-4.7-1.1c-2.6,1.1-2.1,9.3-2.1,9.3L6928,7077.8z"/>
		<polygon class="st1" points="6909.9,7110.9 6920.9,7106.3 7074.4,7474.6 7063.4,7479.2 		"/>
		<polygon class="st1" points="6951.2,7094.2 6934,7084 7093.4,7466.6 7104.4,7462 		"/>
		<path class="st5" d="M6909.7,7109c0.6-4.8,3.7-30,3.7-30c4.3-0.5,8-2.1,11-4.6l26.8,19.8l-9.2,9l-11.4-0.5l-7.7,8.5
			c0,0-11.2,4.9-12.8,0.1C6910,7110.7,6909.8,7109.9,6909.7,7109z"/>
		<path class="st4" d="M6909.7,7109c0.6-4.8,3.7-30,3.7-30c4.3-0.5,8-2.1,11-4.6l26.8,19.8l-9.2,9l-11.4-0.5l-7.7,8.5
			c0,0-11.2,4.9-12.8,0.1C6910,7110.7,6909.8,7109.9,6909.7,7109z"/>
	</g>
	<g>
		<path class="st1" d="M7147.9,6918.2l-5.7-7.7c0,0-1.4-2.7-4.2-2.3c-2.8,0.3-4.6,8.4-4.6,8.4L7147.9,6918.2z"/>
		<polygon class="st1" points="7121.6,6945.2 7133.4,6943.8 7181.9,7339.8 7170,7341.3 		"/>
		<polygon class="st1" points="7165.8,6940.3 7152.1,6925.9 7202.4,7337.3 7214.2,7335.8 		"/>
		<path class="st5" d="M7121.9,6943.4c1.9-4.5,11.6-27.9,11.6-27.9c4.3,0.7,8.2,0.2,11.8-1.5l20.5,26.3l-11.3,6.2l-10.9-3.6
			l-9.7,6.1c0,0-12.1,1.7-12.3-3.3C7121.7,6945,7121.8,6944.2,7121.9,6943.4z"/>
		<path class="st4" d="M7121.9,6943.4c1.9-4.5,11.6-27.9,11.6-27.9c4.3,0.7,8.2,0.2,11.8-1.5l20.5,26.3l-11.3,6.2l-10.9-3.6
			l-9.7,6.1c0,0-12.1,1.7-12.3-3.3C7121.7,6945,7121.8,6944.2,7121.9,6943.4z"/>
	</g>
	<g>
		<path class="st1" d="M7042.3,6942.1l-6-7.3c0,0-1.5-2.5-4.3-2c-2.7,0.5-4.1,8.4-4.1,8.4L7042.3,6942.1z"/>
		<polygon class="st6" points="7017.8,6972 7030.2,6974.6 7101.9,7384.1 7090.1,7386.1 		"/>
		<polygon class="st6" points="7061.5,6964.2 7050.6,6971.1 7122.2,7380.5 7134,7378.4 		"/>
		<path class="st5" d="M7017.8,6969.5c1.6-4.6,10.2-28.4,10.2-28.4c4.3,0.4,8.2-0.3,11.7-2.1l21.8,25.2l-10.9,6.8l-11-3l-9.3,6.6
			c0,0-12,2.3-12.5-2.7C7017.7,6971.2,7017.7,6970.4,7017.8,6969.5z"/>
	</g>
</g>
<linearGradient id="SVGID_2_" gradientUnits="userSpaceOnUse" x1="7201.3857" y1="8778.8467" x2="7201.3857" y2="6957.0991">
	<stop  offset="2.434593e-03" style="stop-color:#004474"/>
	<stop  offset="0.2893" style="stop-color:#599BBE"/>
	<stop  offset="0.4762" style="stop-color:#8FCFEB"/>
	<stop  offset="0.5076" style="stop-color:#99D2EC"/>
	<stop  offset="0.6631" style="stop-color:#C5E2EE"/>
	<stop  offset="0.8026" style="stop-color:#E5EDF0"/>
	<stop  offset="0.9196" style="stop-color:#F8F4F2"/>
	<stop  offset="1" style="stop-color:#FFF6F2"/>
</linearGradient>
<path class="st7" d="M7502.5,7258.2c0-166.3-134.8-301.1-301.1-301.1s-301.1,134.8-301.1,301.1c0,8.5,0.4,17,1.1,25.4h-1.1v1181.8
	h0.3c-0.2,4.1-0.3,8.2-0.3,12.3c0,166.3,134.8,301.1,301.1,301.1s301.1-134.8,301.1-301.1c0-4.1-0.1-8.2-0.3-12.3h0.3V7283.6h-1.1
	C7502.1,7275.2,7502.5,7266.8,7502.5,7258.2z"/>
<g>
	<g>
		<linearGradient id="SVGID_3_" gradientUnits="userSpaceOnUse" x1="7100.9717" y1="7091.5776" x2="7223.8936" y2="7091.5776">
			<stop  offset="0" style="stop-color:#09207C"/>
			<stop  offset="0.3018" style="stop-color:#0A1A67"/>
			<stop  offset="0.7356" style="stop-color:#0B134E"/>
			<stop  offset="1" style="stop-color:#0C1045"/>
		</linearGradient>
		<path class="st8" d="M7210.4,7112.4c-4.5-11.5-2.3-24-0.2-29.6c1.7-4.7,5.4-11.4,9.1-17.8c-0.1-0.1-0.1-0.2-0.2-0.3
			c-2.4-4.4-6.8-9.3-17.2-13.7c-4.5-1.8-12-2.8-17.3-2.5c-7.6,0.4-17.8,2.4-22.4,9.4c-5.5-7.4-20-9.5-28.5-9.3
			c-6.2,0.1-11.3,0.7-16.1,3c-7.4,3.7-12.1,8.1-14.6,17.1c-0.8,2.8-2.1,8-2.1,14.4l0,51.7l34,0l-0.4-42.5c0.1-8,1.3-11.4,6-11.3
			c2.6,0,4.1,1.2,4.3,3.7c0.1,2,0.1,6,0.1,8.6l-0.1,40.9l34.8,0l0-41.9c0-4.8-0.4-8.6,1-10.1c1-1,1.3-1.3,4-1.4
			c2.4,0,3.6,0.4,4.8,2.1c1.5,2.1,0.9,8.4,0.8,10.7l0,40.5l33.6,0c0-0.9-0.1-1.8-0.1-2.6C7217.9,7126.6,7213.4,7120.2,7210.4,7112.4
			z"/>
	</g>
	<path class="st9" d="M7225.9,7059.7c-4.5,7.6-10.6,18-12.9,24.1c-2.4,6.7-3.4,18.2,0.2,27.4c6.1,15.7,18.7,25.7,34.5,27.4
		c7.6,0.8,15.2-0.4,22.2-3.5c7.2-3.2,13.3-8.3,17.6-14.8c6.2-9.3,8-18.6,6.1-31c-1-7.7-5.4-16.1-11.9-22.5c-3.8-3.7-9-6-13.2-7.8
		c-1.8-0.8-3.4-1.5-4.7-2.2c-0.9-0.5-1.9-1.5-1.5-3.2l0.1-0.3l14.7-24.5l-25.6-14.9l-24.4,43.5L7225.9,7059.7z M7251.9,7084.9
		L7251.9,7084.9c3.7-0.2,7.3,1.2,9.8,3.7c2.5,2.5,3.9,6,3.7,9.6c-0.3,6.7-5.3,11.9-12,12.5c-0.3,0-0.6,0-0.9,0c-2.9,0-6-1.2-8.4-3.4
		c-2.8-2.5-4.3-5.9-4.3-9.5C7239.7,7090.7,7244.4,7085.7,7251.9,7084.9z"/>
	<g>
		<polygon class="st10" points="7116,7025.5 7110.3,7037 7104.6,7025.5 7103.9,7025.5 7101.8,7040.5 7103.8,7040.5 7105.1,7030.8 
			7109.9,7040.5 7110.6,7040.5 7115.4,7030.8 7116.8,7040.5 7118.8,7040.5 7116.6,7025.5 		"/>
		<path class="st10" d="M7121.5,7024.9c-0.4,0-0.7,0.1-1,0.4c-0.3,0.3-0.4,0.6-0.4,1c0,0.4,0.1,0.7,0.4,1c0.3,0.3,0.6,0.4,1,0.4
			c0.4,0,0.7-0.1,1-0.4c0.3-0.3,0.4-0.6,0.4-1c0-0.4-0.1-0.7-0.4-1C7122.2,7025,7121.9,7024.9,7121.5,7024.9z"/>
		<rect x="7120.5" y="7029.3" class="st10" width="1.9" height="11.2"/>
		<path class="st10" d="M7132.7,7029.7c-0.7-0.4-1.4-0.7-2.3-0.7c-0.8,0-1.6,0.2-2.3,0.6c-0.5,0.3-1,0.6-1.4,1.1v-1.4h-1.9v11.2h1.9
			v-4.2c0-1.4,0.1-2.3,0.2-2.8c0.2-0.7,0.6-1.4,1.2-1.9c0.6-0.5,1.3-0.8,2.1-0.8c0.7,0,1.2,0.2,1.6,0.5c0.4,0.3,0.7,0.8,0.8,1.4
			c0.1,0.3,0.1,0.9,0.1,2.4v5.4h1.9v-5.8c0-1.5-0.2-2.6-0.5-3.3C7133.9,7030.7,7133.4,7030.1,7132.7,7029.7z"/>
		<path class="st10" d="M7137.8,7024.9c-0.4,0-0.7,0.1-1,0.4c-0.3,0.3-0.4,0.6-0.4,1c0,0.4,0.1,0.7,0.4,1c0.3,0.3,0.6,0.4,1,0.4
			c0.4,0,0.7-0.1,1-0.4c0.3-0.3,0.4-0.6,0.4-1c0-0.4-0.1-0.7-0.4-1C7138.5,7025,7138.2,7024.9,7137.8,7024.9z"/>
		<rect x="7136.8" y="7029.3" class="st10" width="1.9" height="11.2"/>
		<path class="st10" d="M7154.7,7033c-0.3-0.3-0.8-0.5-1.3-0.8c0.4-0.3,0.7-0.7,1-1.1c0.3-0.6,0.5-1.2,0.5-1.9c0-0.7-0.2-1.4-0.6-2
			c-0.4-0.6-0.9-1.1-1.6-1.4c-0.7-0.3-1.6-0.4-2.8-0.4h-3.1v15h4.2c1.5,0,2.7-0.4,3.6-1.3c0.9-0.9,1.4-1.9,1.4-3.1
			c0-0.6-0.1-1.2-0.4-1.7C7155.5,7033.9,7155.1,7033.4,7154.7,7033z M7148.9,7033.5h0.5c1.2,0,2,0.1,2.5,0.2
			c0.7,0.2,1.2,0.5,1.6,0.9c0.4,0.4,0.6,0.9,0.6,1.5c0,0.4-0.1,0.9-0.4,1.3c-0.3,0.4-0.6,0.7-1.1,0.9c-0.5,0.2-1.2,0.3-2.2,0.3h-1.5
			V7033.5z M7152.5,7030.5c-0.2,0.4-0.6,0.6-1,0.8c-0.4,0.2-1.2,0.3-2.1,0.3h-0.5v-4.1h1.4c0.9,0,1.6,0.2,2,0.5
			c0.4,0.3,0.6,0.8,0.6,1.3C7152.9,7029.7,7152.8,7030.1,7152.5,7030.5z"/>
		<path class="st10" d="M7165.9,7034.5c0,1.6-0.1,2.3-0.2,2.5c-0.2,0.5-0.5,1-1,1.3c-0.5,0.3-1.1,0.5-1.8,0.5
			c-0.7,0-1.3-0.2-1.8-0.5c-0.5-0.3-0.8-0.8-1-1.4c-0.1-0.4-0.2-1.3-0.2-2.4v-5.3h-1.9v5.4c0,1.6,0.2,2.7,0.5,3.5
			c0.4,0.8,0.9,1.4,1.7,1.9c0.7,0.4,1.7,0.7,2.8,0.7s2-0.2,2.7-0.7c0.7-0.4,1.3-1.1,1.7-1.9c0.4-0.8,0.5-1.9,0.5-3.4v-5.5h-2V7034.5
			z"/>
		<path class="st10" d="M7172.7,7029.5c-0.3,0.2-0.6,0.5-0.9,0.8v-1h-2v11.2h2v-3.9c0-1.8,0.1-3,0.2-3.6c0.2-0.7,0.5-1.3,0.9-1.6
			c0.4-0.3,0.8-0.5,1.1-0.5c0.2,0,0.4,0.1,0.6,0.2l0.2,0.1l1-1.6l-0.3-0.1C7174.6,7028.8,7173.7,7028.9,7172.7,7029.5z"/>
		<path class="st10" d="M7182.5,7029c-0.9,0-1.7,0.2-2.5,0.6c-0.5,0.3-1.1,0.6-1.5,1.1v-5.5h-1.9v15.4h1.9v-1.5
			c0.4,0.5,0.9,0.9,1.5,1.1c0.7,0.4,1.6,0.6,2.5,0.6c1.6,0,3-0.6,4.1-1.7c1.1-1.1,1.7-2.5,1.7-4.1c0-1.6-0.6-3-1.7-4.2
			C7185.4,7029.6,7184.1,7029,7182.5,7029z M7186.3,7034.9c0,0.7-0.2,1.4-0.5,2c-0.4,0.6-0.8,1.1-1.4,1.5c-0.6,0.3-1.3,0.5-2,0.5
			c-1.1,0-2-0.4-2.8-1.2c-0.8-0.8-1.1-1.7-1.1-2.9c0-0.8,0.2-1.4,0.5-2c0.3-0.6,0.8-1.1,1.4-1.4c0.6-0.4,1.3-0.5,2-0.5
			c0.7,0,1.3,0.2,1.9,0.5c0.6,0.4,1.1,0.9,1.5,1.5C7186.1,7033.5,7186.3,7034.2,7186.3,7034.9z"/>
		<path class="st10" d="M7198,7034.5c0,1.6-0.1,2.3-0.2,2.5c-0.2,0.5-0.5,1-1,1.3c-0.5,0.3-1.1,0.5-1.8,0.5c-0.7,0-1.3-0.2-1.8-0.5
			c-0.5-0.3-0.8-0.8-1-1.4c-0.1-0.4-0.2-1.3-0.2-2.4v-5.3h-1.9v5.4c0,1.6,0.2,2.7,0.5,3.5c0.4,0.8,0.9,1.4,1.7,1.9
			c0.7,0.4,1.7,0.7,2.8,0.7c1.1,0,2-0.2,2.7-0.7c0.7-0.4,1.3-1.1,1.7-1.9c0.4-0.8,0.5-1.9,0.5-3.4v-5.5h-2V7034.5z"/>
		<path class="st10" d="M7202.3,7041.4c0,0.8-0.1,1-0.1,1.1c-0.3,0.4-0.8,0.4-1.5,0.1l-0.4-0.2v1.9l0.2,0.1c0.6,0.2,1.2,0.4,1.7,0.4
			c0.6,0,1.2-0.2,1.5-0.7c0.4-0.5,0.5-1.2,0.5-2.1v-12.6h-1.9V7041.4z"/>
		<path class="st10" d="M7203.2,7024.9c-0.4,0-0.7,0.1-1,0.4c-0.3,0.3-0.4,0.6-0.4,1c0,0.4,0.1,0.7,0.4,1c0.3,0.3,0.6,0.4,1,0.4
			s0.7-0.1,1-0.4c0.3-0.3,0.4-0.6,0.4-1c0-0.4-0.1-0.7-0.4-1C7203.9,7025,7203.6,7024.9,7203.2,7024.9z"/>
		<path class="st10" d="M7215.8,7030.7c-0.4-0.5-0.9-0.9-1.5-1.1c-0.7-0.4-1.6-0.6-2.5-0.6c-1.6,0-3,0.6-4.1,1.7
			c-1.1,1.1-1.7,2.5-1.7,4.1c0,1.6,0.6,3,1.7,4.2c1.1,1.1,2.5,1.7,4.1,1.7c0.9,0,1.7-0.2,2.5-0.6c0.5-0.3,1.1-0.6,1.5-1.1v1.4h1.9
			v-11.2h-1.9V7030.7z M7214.7,7032c0.8,0.8,1.1,1.7,1.1,2.9c0,0.8-0.2,1.4-0.5,2c-0.3,0.6-0.8,1.1-1.4,1.4c-1.2,0.7-2.7,0.7-3.9,0
			c-0.6-0.4-1.1-0.9-1.5-1.5c-0.4-0.6-0.5-1.3-0.5-2c0-0.7,0.2-1.4,0.5-2c0.4-0.6,0.8-1.1,1.4-1.5c0.6-0.3,1.3-0.5,2-0.5
			C7213,7030.9,7214,7031.3,7214.7,7032z"/>
		<path class="st10" d="M7223.4,7033.9c-0.8-0.4-1.3-0.8-1.6-1.1c-0.2-0.3-0.3-0.5-0.3-0.8c0-0.3,0.1-0.6,0.4-0.8
			c0.3-0.2,0.6-0.4,1-0.4c0.6,0,1.3,0.3,2,1l0.2,0.2l1.3-1.3l-0.2-0.2c-1-1-2.1-1.5-3.2-1.5c-0.9,0-1.7,0.3-2.3,0.9
			c-0.6,0.6-0.9,1.3-0.9,2.2c0,0.7,0.2,1.3,0.6,1.8c0.4,0.5,1.1,1,2.1,1.6c1.1,0.5,1.5,0.9,1.6,1.1c0.2,0.3,0.3,0.5,0.3,0.9
			c0,0.4-0.2,0.7-0.5,1c-0.3,0.3-0.7,0.5-1.2,0.5c-0.7,0-1.4-0.4-2-1.1l-0.2-0.2l-1.2,1.4l0.1,0.2c0.4,0.5,0.9,0.9,1.5,1.2
			c0.6,0.3,1.2,0.4,1.9,0.4c1,0,1.8-0.3,2.5-1c0.7-0.7,1-1.5,1-2.4c0-0.7-0.2-1.3-0.6-1.8C7225.2,7035,7224.5,7034.4,7223.4,7033.9z
			"/>
	</g>
	<g>
		<path class="st10" d="M7289,7134.4c-1.9,0-3.4-1.5-3.4-3.4s1.5-3.4,3.4-3.4s3.4,1.5,3.4,3.4S7290.9,7134.4,7289,7134.4z
			 M7289,7128.2c-1.5,0-2.8,1.2-2.8,2.8c0,1.5,1.2,2.8,2.8,2.8s2.8-1.2,2.8-2.8C7291.8,7129.5,7290.6,7128.2,7289,7128.2z"/>
		<path class="st9" d="M7287.6,7132.9v-3.8h1.7c0.3,0,0.6,0,0.8,0.1c0.2,0.1,0.3,0.2,0.4,0.4c0.1,0.2,0.2,0.4,0.2,0.6
			c0,0.3-0.1,0.5-0.3,0.7c-0.2,0.2-0.4,0.3-0.8,0.4c0.1,0.1,0.2,0.1,0.3,0.2c0.1,0.1,0.3,0.3,0.4,0.5l0.7,1h-0.6l-0.5-0.8
			c-0.1-0.2-0.3-0.4-0.4-0.5c-0.1-0.1-0.2-0.2-0.3-0.3c-0.1,0-0.2-0.1-0.2-0.1c-0.1,0-0.2,0-0.3,0h-0.6v1.7H7287.6L7287.6,7132.9z
			 M7288.1,7130.8h1.1c0.2,0,0.4,0,0.5-0.1c0.1,0,0.2-0.1,0.3-0.2c0.1-0.1,0.1-0.2,0.1-0.3c0-0.2-0.1-0.3-0.2-0.4
			c-0.1-0.1-0.3-0.2-0.6-0.2h-1.2V7130.8z"/>
	</g>
</g>
<g>
	<path class="st11" d="M6984.4,6931.8h1.4c2.1,0,3.7,1.7,3.7,3.7v1.3c0,0.6,0.4,1.1,1,1.1c0.6,0,1.1-0.5,1.1-1.1v-1.4
		c0-2.1,1.7-3.7,3.7-3.7h1.4c0.6,0,1.1-0.5,1.1-1.1l0,0c0-0.6-0.5-1.1-1.1-1.1h-1.4c-2.1,0-3.7-1.7-3.7-3.7v-1.3
		c0-0.6-0.4-1.1-1-1.1c-0.6,0-1.1,0.5-1.1,1.1v1.4c0,2.1-1.7,3.7-3.7,3.7h-1.4c-0.6,0-1.1,0.5-1.1,1.1l0,0
		C6983.4,6931.3,6983.9,6931.8,6984.4,6931.8z"/>
	<path class="st11" d="M6948.7,6953.7h1.4c2.1,0,3.7,1.7,3.7,3.7v1.3c0,0.6,0.4,1.1,1,1.1c0.6,0,1.1-0.5,1.1-1.1v-1.4
		c0-2.1,1.7-3.7,3.7-3.7h1.4c0.6,0,1.1-0.5,1.1-1.1l0,0c0-0.6-0.5-1.1-1.1-1.1h-1.4c-2.1,0-3.7-1.7-3.7-3.7v-1.3
		c0-0.6-0.4-1.1-1-1.1c-0.6,0-1.1,0.5-1.1,1.1v1.4c0,2.1-1.7,3.7-3.7,3.7h-1.4c-0.6,0-1.1,0.5-1.1,1.1l0,0
		C6947.6,6953.3,6948.1,6953.7,6948.7,6953.7z"/>
	<path class="st11" d="M7274.6,6919.4h1.4c2.1,0,3.7,1.7,3.7,3.7v1.3c0,0.6,0.4,1.1,1,1.1c0.6,0,1.1-0.5,1.1-1.1v-1.4
		c0-2.1,1.7-3.7,3.7-3.7h1.4c0.6,0,1.1-0.5,1.1-1.1l0,0c0-0.6-0.5-1.1-1.1-1.1h-1.4c-2.1,0-3.7-1.7-3.7-3.7v-1.3
		c0-0.6-0.4-1.1-1-1.1c-0.6,0-1.1,0.5-1.1,1.1v1.4c0,2.1-1.7,3.7-3.7,3.7h-1.4c-0.6,0-1.1,0.5-1.1,1.1l0,0
		C7273.5,6918.9,7274,6919.4,7274.6,6919.4z"/>
	<path class="st11" d="M7448.7,6965.2h1.4c2.1,0,3.7,1.7,3.7,3.7v1.3c0,0.6,0.4,1.1,1,1.1c0.6,0,1.1-0.5,1.1-1.1v-1.4
		c0-2.1,1.7-3.7,3.7-3.7h1.4c0.6,0,1.1-0.5,1.1-1.1l0,0c0-0.6-0.5-1.1-1.1-1.1h-1.4c-2.1,0-3.7-1.7-3.7-3.7v-1.3
		c0-0.6-0.4-1.1-1-1.1c-0.6,0-1.1,0.5-1.1,1.1v1.4c0,2.1-1.7,3.7-3.7,3.7h-1.4c-0.6,0-1.1,0.5-1.1,1.1l0,0
		C7447.6,6964.7,7448.1,6965.2,7448.7,6965.2z"/>
	<path class="st11" d="M7479.7,6969.4h1.4c2.1,0,3.7,1.7,3.7,3.7v1.3c0,0.6,0.4,1.1,1,1.1c0.6,0,1.1-0.5,1.1-1.1v-1.4
		c0-2.1,1.7-3.7,3.7-3.7h1.4c0.6,0,1.1-0.5,1.1-1.1l0,0c0-0.6-0.5-1.1-1.1-1.1h-1.4c-2.1,0-3.7-1.7-3.7-3.7v-1.3
		c0-0.6-0.4-1.1-1-1.1c-0.6,0-1.1,0.5-1.1,1.1v1.4c0,2.1-1.7,3.7-3.7,3.7h-1.4c-0.6,0-1.1,0.5-1.1,1.1l0,0
		C7478.6,6968.9,7479.1,6969.4,7479.7,6969.4z"/>
	<path class="st11" d="M7477.7,7040.8h1.4c2.1,0,3.7,1.7,3.7,3.7v1.3c0,0.6,0.4,1.1,1,1.1c0.6,0,1.1-0.5,1.1-1.1v-1.4
		c0-2.1,1.7-3.7,3.7-3.7h1.4c0.6,0,1.1-0.5,1.1-1.1l0,0c0-0.6-0.5-1.1-1.1-1.1h-1.4c-2.1,0-3.7-1.7-3.7-3.7v-1.3
		c0-0.6-0.4-1.1-1-1.1c-0.6,0-1.1,0.5-1.1,1.1v1.4c0,2.1-1.7,3.7-3.7,3.7h-1.4c-0.6,0-1.1,0.5-1.1,1.1l0,0
		C7476.6,7040.4,7477.1,7040.8,7477.7,7040.8z"/>
	<path class="st11" d="M6957.9,6996.7h1.4c2.1,0,3.7,1.7,3.7,3.7v1.3c0,0.6,0.4,1.1,1,1.1c0.6,0,1.1-0.5,1.1-1.1v-1.4
		c0-2.1,1.7-3.7,3.7-3.7h1.4c0.6,0,1.1-0.5,1.1-1.1l0,0c0-0.6-0.5-1.1-1.1-1.1h-1.4c-2.1,0-3.7-1.7-3.7-3.7v-1.3
		c0-0.6-0.4-1.1-1-1.1c-0.6,0-1.1,0.5-1.1,1.1v1.4c0,2.1-1.7,3.7-3.7,3.7h-1.4c-0.6,0-1.1,0.5-1.1,1.1l0,0
		C6956.8,6996.2,6957.3,6996.7,6957.9,6996.7z"/>
	<path class="st11" d="M6918.4,7020.8h0.8c1.2,0,2.1,1,2.1,2.1v0.8c0,0.3,0.3,0.6,0.6,0.7c0.4,0,0.7-0.3,0.7-0.6v-0.8
		c0-1.2,1-2.1,2.1-2.1h0.8c0.3,0,0.6-0.3,0.6-0.6l0,0c0-0.3-0.3-0.6-0.6-0.6h-0.8c-1.2,0-2.1-1-2.1-2.1v-0.8c0-0.3-0.3-0.6-0.6-0.7
		c-0.4,0-0.7,0.3-0.7,0.6v0.8c0,1.2-1,2.1-2.1,2.1h-0.8c-0.3,0-0.6,0.3-0.6,0.6l0,0C6917.8,7020.6,6918,7020.8,6918.4,7020.8z"/>
	<path class="st11" d="M7003.3,6960.6h0.8c1.2,0,2.1,1,2.1,2.1v0.8c0,0.3,0.3,0.6,0.6,0.7c0.4,0,0.7-0.3,0.7-0.6v-0.8
		c0-1.2,1-2.1,2.1-2.1h0.8c0.3,0,0.6-0.3,0.6-0.6l0,0c0-0.3-0.3-0.6-0.6-0.6h-0.8c-1.2,0-2.1-1-2.1-2.1v-0.8c0-0.3-0.3-0.6-0.6-0.7
		c-0.4,0-0.7,0.3-0.7,0.6v0.8c0,1.2-1,2.1-2.1,2.1h-0.8c-0.3,0-0.6,0.3-0.6,0.6l0,0C7002.7,6960.3,7003,6960.6,7003.3,6960.6z"/>
	<path class="st11" d="M7447.2,6915.1h0.8c1.2,0,2.1,1,2.1,2.1v0.8c0,0.3,0.3,0.6,0.6,0.7c0.4,0,0.7-0.3,0.7-0.6v-0.8
		c0-1.2,1-2.1,2.1-2.1h0.8c0.3,0,0.6-0.3,0.6-0.6l0,0c0-0.3-0.3-0.6-0.6-0.6h-0.8c-1.2,0-2.1-1-2.1-2.1v-0.8c0-0.3-0.3-0.6-0.6-0.7
		c-0.4,0-0.7,0.3-0.7,0.6v0.8c0,1.2-1,2.1-2.1,2.1h-0.8c-0.3,0-0.6,0.3-0.6,0.6l0,0C7446.6,6914.8,7446.8,6915.1,7447.2,6915.1z"/>
	<path class="st11" d="M7407.5,6949.8h0.8c1.2,0,2.1,1,2.1,2.1v0.8c0,0.3,0.3,0.6,0.6,0.7c0.4,0,0.7-0.3,0.7-0.6v-0.8
		c0-1.2,1-2.1,2.1-2.1h0.8c0.3,0,0.6-0.3,0.6-0.6l0,0c0-0.3-0.3-0.6-0.6-0.6h-0.8c-1.2,0-2.1-1-2.1-2.1v-0.8c0-0.3-0.3-0.6-0.6-0.7
		c-0.4,0-0.7,0.3-0.7,0.6v0.8c0,1.2-1,2.1-2.1,2.1h-0.8c-0.3,0-0.6,0.3-0.6,0.6l0,0C7406.9,6949.5,7407.2,6949.8,7407.5,6949.8z"/>
	<path class="st11" d="M7436.4,6996.2h0.8c1.2,0,2.1,1,2.1,2.1v0.8c0,0.3,0.3,0.6,0.6,0.7c0.4,0,0.7-0.3,0.7-0.6v-0.8
		c0-1.2,1-2.1,2.1-2.1h0.8c0.3,0,0.6-0.3,0.6-0.6l0,0c0-0.3-0.3-0.6-0.6-0.6h-0.8c-1.2,0-2.1-1-2.1-2.1v-0.8c0-0.3-0.3-0.6-0.6-0.7
		c-0.4,0-0.7,0.3-0.7,0.6v0.8c0,1.2-1,2.1-2.1,2.1h-0.8c-0.3,0-0.6,0.3-0.6,0.6l0,0C7435.8,6995.9,7436.1,6996.2,7436.4,6996.2z"/>
	<path class="st11" d="M6909.9,7057.2h0.8c1.2,0,2.1,1,2.1,2.1v0.8c0,0.3,0.3,0.6,0.6,0.7c0.4,0,0.7-0.3,0.7-0.6v-0.8
		c0-1.2,1-2.1,2.1-2.1h0.8c0.3,0,0.6-0.3,0.6-0.6l0,0c0-0.3-0.3-0.6-0.6-0.6h-0.8c-1.2,0-2.1-1-2.1-2.1v-0.8c0-0.3-0.3-0.6-0.6-0.7
		c-0.4,0-0.7,0.3-0.7,0.6v0.8c0,1.2-1,2.1-2.1,2.1h-0.8c-0.3,0-0.6,0.3-0.6,0.6l0,0C6909.3,7056.9,6909.6,7057.2,6909.9,7057.2z"/>
	<path class="st11" d="M7056.1,6918.8h0.8c1.2,0,2.1,1,2.1,2.1v0.8c0,0.3,0.3,0.6,0.6,0.7c0.4,0,0.7-0.3,0.7-0.6v-0.8
		c0-1.2,1-2.1,2.1-2.1h0.8c0.3,0,0.6-0.3,0.6-0.6l0,0c0-0.3-0.3-0.6-0.6-0.6h-0.8c-1.2,0-2.1-1-2.1-2.1v-0.8c0-0.3-0.3-0.6-0.6-0.7
		c-0.4,0-0.7,0.3-0.7,0.6v0.8c0,1.2-1,2.1-2.1,2.1h-0.8c-0.3,0-0.6,0.3-0.6,0.6l0,0C7055.5,6918.5,7055.8,6918.8,7056.1,6918.8z"/>
	<path class="st11" d="M6916,6984.7h0.8c1.2,0,2.1,1,2.1,2.1v0.8c0,0.3,0.3,0.6,0.6,0.7c0.4,0,0.7-0.3,0.7-0.6v-0.8
		c0-1.2,1-2.1,2.1-2.1h0.8c0.3,0,0.6-0.3,0.6-0.6l0,0c0-0.3-0.3-0.6-0.6-0.6h-0.8c-1.2,0-2.1-1-2.1-2.1v-0.8c0-0.3-0.3-0.6-0.6-0.7
		c-0.4,0-0.7,0.3-0.7,0.6v0.8c0,1.2-1,2.1-2.1,2.1h-0.8c-0.3,0-0.6,0.3-0.6,0.6l0,0C6915.4,6984.5,6915.7,6984.7,6916,6984.7z"/>
	<path class="st11" d="M6922.6,6927.2h0.8c1.2,0,2.1,1,2.1,2.1v0.8c0,0.3,0.3,0.6,0.6,0.7c0.4,0,0.7-0.3,0.7-0.6v-0.8
		c0-1.2,1-2.1,2.1-2.1h0.8c0.3,0,0.6-0.3,0.6-0.6l0,0c0-0.3-0.3-0.6-0.6-0.6h-0.8c-1.2,0-2.1-1-2.1-2.1v-0.8c0-0.3-0.3-0.6-0.6-0.7
		c-0.4,0-0.7,0.3-0.7,0.6v0.8c0,1.2-1,2.1-2.1,2.1h-0.8c-0.3,0-0.6,0.3-0.6,0.6l0,0C6921.9,6926.9,6922.2,6927.2,6922.6,6927.2z"/>
	<path class="st11" d="M7138.4,6912.8h0.8c1.2,0,2.1,1,2.1,2.1v0.8c0,0.3,0.3,0.6,0.6,0.7c0.4,0,0.7-0.3,0.7-0.6v-0.8
		c0-1.2,1-2.1,2.1-2.1h0.8c0.3,0,0.6-0.3,0.6-0.6l0,0c0-0.3-0.3-0.6-0.6-0.6h-0.8c-1.2,0-2.1-1-2.1-2.1v-0.8c0-0.3-0.3-0.6-0.6-0.7
		c-0.4,0-0.7,0.3-0.7,0.6v0.8c0,1.2-1,2.1-2.1,2.1h-0.8c-0.3,0-0.6,0.3-0.6,0.6l0,0C7137.8,6912.5,7138.1,6912.8,7138.4,6912.8z"/>
	<path class="st11" d="M7024.5,6917h0.8c1.2,0,2.1,1,2.1,2.1v0.8c0,0.3,0.3,0.6,0.6,0.7c0.4,0,0.7-0.3,0.7-0.6v-0.8
		c0-1.2,1-2.1,2.1-2.1h0.8c0.3,0,0.6-0.3,0.6-0.6l0,0c0-0.3-0.3-0.6-0.6-0.6h-0.8c-1.2,0-2.1-1-2.1-2.1v-0.8c0-0.3-0.3-0.6-0.6-0.7
		c-0.4,0-0.7,0.3-0.7,0.6v0.8c0,1.2-1,2.1-2.1,2.1h-0.8c-0.3,0-0.6,0.3-0.6,0.6l0,0C7023.9,6916.7,7024.1,6917,7024.5,6917z"/>
	<path class="st11" d="M7392.9,6925.3h0.8c1.2,0,2.1,1,2.1,2.1v0.8c0,0.3,0.3,0.6,0.6,0.7c0.4,0,0.7-0.3,0.7-0.6v-0.8
		c0-1.2,1-2.1,2.1-2.1h0.8c0.3,0,0.6-0.3,0.6-0.6l0,0c0-0.3-0.3-0.6-0.6-0.6h-0.8c-1.2,0-2.1-1-2.1-2.1v-0.8c0-0.3-0.3-0.6-0.6-0.7
		c-0.4,0-0.7,0.3-0.7,0.6v0.8c0,1.2-1,2.1-2.1,2.1h-0.8c-0.3,0-0.6,0.3-0.6,0.6l0,0C7392.3,6925,7392.6,6925.3,7392.9,6925.3z"/>
	<path class="st11" d="M7211.5,6922.2h0.8c1.2,0,2.1,1,2.1,2.1v0.8c0,0.3,0.3,0.6,0.6,0.7c0.4,0,0.7-0.3,0.7-0.6v-0.8
		c0-1.2,1-2.1,2.1-2.1h0.8c0.3,0,0.6-0.3,0.6-0.6l0,0c0-0.3-0.3-0.6-0.6-0.6h-0.8c-1.2,0-2.1-1-2.1-2.1v-0.8c0-0.3-0.3-0.6-0.6-0.7
		c-0.4,0-0.7,0.3-0.7,0.6v0.8c0,1.2-1,2.1-2.1,2.1h-0.8c-0.3,0-0.6,0.3-0.6,0.6l0,0C7210.9,6921.9,7211.1,6922.2,7211.5,6922.2z"/>
	<path class="st11" d="M7332.7,6921.1h0.8c1.2,0,2.1,1,2.1,2.1v0.8c0,0.3,0.3,0.6,0.6,0.7c0.4,0,0.7-0.3,0.7-0.6v-0.8
		c0-1.2,1-2.1,2.1-2.1h0.8c0.3,0,0.6-0.3,0.6-0.6l0,0c0-0.3-0.3-0.6-0.6-0.6h-0.8c-1.2,0-2.1-1-2.1-2.1v-0.8c0-0.3-0.3-0.6-0.6-0.7
		c-0.4,0-0.7,0.3-0.7,0.6v0.8c0,1.2-1,2.1-2.1,2.1h-0.8c-0.3,0-0.6,0.3-0.6,0.6l0,0C7332.1,6920.9,7332.4,6921.1,7332.7,6921.1z"/>
</g>
</svg>
