<?xml version="1.0" encoding="utf-8"?>
<!-- Generator: Adobe Illustrator 22.0.1, SVG Export Plug-In . SVG Version: 6.00 Build 0)  -->
<svg version="1.1" id="Layer_1" xmlns="http://www.w3.org/2000/svg" xmlns:xlink="http://www.w3.org/1999/xlink" x="0px" y="0px"
	 viewBox="0 0 758.5 504" style="enable-background:new 0 0 758.5 504;" xml:space="preserve">
<style type="text/css">
	.st0{fill:#33B9AF;}
	.st1{fill:#231F20;}
	.st2{fill:#E75236;}
	.st3{fill:#2BB473;}
	.st4{fill:#F9AF40;}
	.st5{fill:#211F42;}
	.st6{fill:#93D3EF;}
	.st7{fill:#4D7DFF;}
</style>
<g>
	<path class="st0" d="M220.2,377.6c1.6,0,3-0.2,4-0.5l0.7-0.2c0.2-0.1,0.3-0.1,0.5-0.1s0.3-0.1,0.4-0.1c0.3,0,0.5,0.1,0.7,0.3
		s0.4,0.6,0.6,1.1c0.1,0.2,0.1,0.4,0.2,0.5c0,0.2,0.1,0.3,0.1,0.5c0,0.3-0.1,0.6-0.2,0.8c-0.1,0.2-0.3,0.4-0.6,0.5s-0.6,0.3-1,0.4
		s-1,0.2-1.6,0.3c-0.5,0.1-1,0.2-1.5,0.2s-0.9,0-1.3,0.1c-1.4,0.1-2.7-0.2-3.7-0.6c-1-0.5-1.9-1.2-2.5-2.1s-1.1-1.9-1.4-3
		c-0.4-1.1-0.5-2.5-0.5-3.9c0-2.1,0.5-4,1.3-5.6s2.1-2.7,3.7-3.5c1.1-0.5,2.4-0.8,3.6-0.7c1.3,0.1,2.6,0.3,3.9,0.7
		c0.1,0,0.1,0,0.2,0.1c0.1,0,0.1,0,0.2,0.1c0.5,0.2,0.8,0.3,1.1,0.5c0.2,0.1,0.3,0.4,0.3,0.7c0,0.3-0.1,0.7-0.3,1.2
		c-0.3,0.6-0.5,1-0.6,1.2c-0.2,0.2-0.4,0.3-0.6,0.3c-0.2,0-0.3,0-0.4-0.1c-0.1,0-0.3-0.1-0.5-0.1l-0.6-0.2c-0.6-0.1-1.1-0.3-1.5-0.4
		s-0.8-0.2-1.2-0.2c-0.5-0.1-1.1,0.1-1.7,0.4c-0.6,0.3-1.1,0.7-1.5,1.4s-0.7,1.3-0.9,2c-0.2,0.8-0.3,1.8-0.3,3.2
		c0,1.4,0.3,2.6,0.9,3.6c0.3,0.4,0.6,0.8,0.9,1S219.7,377.6,220.2,377.6z"/>
	<path class="st0" d="M233.1,380.8c-0.8-0.3-1.5-0.7-2-1.2s-0.9-1.1-1.1-1.7s-0.3-1.4-0.3-2.1v-10.4c-0.4-0.1-0.7-0.3-0.9-0.5
		s-0.4-0.4-0.4-0.6V363c0-0.2,0.1-0.4,0.2-0.6c0.2-0.1,0.3-0.2,0.6-0.2h11.5c0.4,0,0.7,0,1,0.1c0.2,0,0.4,0.1,0.5,0.3
		c0.1,0.1,0.2,0.3,0.2,0.5s0,0.5,0,0.9v0.2c0,0.3,0,0.6,0,0.8c0,0.2-0.1,0.4-0.2,0.6c-0.1,0.1-0.3,0.3-0.5,0.3
		c-0.2,0.1-0.6,0.1-1,0.1h-6.9v3.7h5.6c0.4,0,0.7,0,1,0.1s0.4,0.2,0.5,0.3s0.2,0.3,0.2,0.6c0,0.2,0,0.5,0,0.8v0.2c0,0.3,0,0.6,0,0.8
		c0,0.2-0.1,0.4-0.2,0.5s-0.3,0.2-0.5,0.3c-0.2,0.1-0.6,0.1-1,0.1h-5.6v2.4c0,0.4,0.1,0.6,0.2,0.8c0.2,0.2,0.4,0.4,0.7,0.5
		s0.6,0.2,1,0.3s0.8,0.1,1.2,0.1h3.8c0.4,0,0.7,0,1,0.1c0.2,0.1,0.4,0.2,0.5,0.3c0.1,0.1,0.2,0.3,0.2,0.5s0,0.5,0,0.8v0.2
		c0,0.3,0,0.6,0,0.8c0,0.2-0.1,0.4-0.2,0.6c-0.1,0.1-0.3,0.2-0.5,0.3c-0.2,0.1-0.6,0.1-1,0.1h-4.4C235,381.2,234,381,233.1,380.8z"
		/>
	<path class="st0" d="M245.1,381.1c-0.3,0-0.5-0.1-0.7-0.3s-0.2-0.3-0.3-0.6c0-0.3-0.1-0.6-0.1-1.1v-15.3c0-0.4,0-0.7,0.1-1
		c0.1-0.2,0.2-0.4,0.3-0.5c0.2-0.1,0.4-0.2,0.6-0.2s0.6,0,1,0c0.5,0,0.8,0,1.1,0s0.5,0.1,0.6,0.2s0.2,0.3,0.3,0.5
		c0,0.2,0.1,0.6,0.1,1v13.6h6.8c0.4,0,0.7,0,1,0.1c0.2,0.1,0.4,0.2,0.5,0.3c0.1,0.1,0.2,0.3,0.2,0.5s0,0.5,0,0.8c0,0.4,0,0.7,0,0.9
		c0,0.3-0.1,0.5-0.2,0.6s-0.3,0.3-0.5,0.3c-0.2,0.1-0.6,0.1-1,0.1h-8.5C245.8,381.2,245.4,381.2,245.1,381.1z"/>
	<path class="st0" d="M261,380.8c-0.8-0.3-1.5-0.7-2-1.2s-0.9-1.1-1.1-1.7s-0.3-1.4-0.3-2.1v-10.4c-0.4-0.1-0.7-0.3-0.9-0.5
		c-0.2-0.2-0.4-0.4-0.4-0.6V363c0-0.2,0.1-0.4,0.2-0.6c0.2-0.1,0.3-0.2,0.6-0.2h11.5c0.4,0,0.7,0,1,0.1c0.2,0,0.4,0.1,0.5,0.3
		c0.1,0.1,0.2,0.3,0.2,0.5s0,0.5,0,0.9v0.2c0,0.3,0,0.6,0,0.8c0,0.2-0.1,0.4-0.2,0.6c-0.1,0.1-0.3,0.3-0.5,0.3
		c-0.2,0.1-0.6,0.1-1,0.1h-6.9v3.7h5.6c0.4,0,0.7,0,1,0.1s0.4,0.2,0.5,0.3s0.2,0.3,0.2,0.6c0,0.2,0,0.5,0,0.8v0.2c0,0.3,0,0.6,0,0.8
		c0,0.2-0.1,0.4-0.2,0.5s-0.3,0.2-0.5,0.3c-0.2,0.1-0.6,0.1-1,0.1h-5.6v2.4c0,0.4,0.1,0.6,0.2,0.8c0.2,0.2,0.4,0.4,0.7,0.5
		s0.6,0.2,1,0.3s0.8,0.1,1.2,0.1h3.8c0.4,0,0.7,0,1,0.1c0.2,0.1,0.4,0.2,0.5,0.3c0.1,0.1,0.2,0.3,0.2,0.5s0,0.5,0,0.8v0.2
		c0,0.3,0,0.6,0,0.8c0,0.2-0.1,0.4-0.2,0.6c-0.1,0.1-0.3,0.2-0.5,0.3c-0.2,0.1-0.6,0.1-1,0.1h-4.4C262.9,381.2,261.9,381,261,380.8z
		"/>
	<path class="st0" d="M285,371.1c0.6,0.5,1,1,1.2,1.6s0.4,1.1,0.4,1.5c0,0.2,0.1,0.4,0.1,0.6s0,0.4,0,0.5c0,1.1-0.1,2-0.4,2.8
		c-0.3,0.7-0.7,1.3-1.2,1.8s-1.2,0.8-2,1s-1.8,0.3-2.9,0.3h-5.8c-0.4,0-0.7,0-0.9,0c-0.2,0-0.4-0.1-0.5-0.2s-0.2-0.3-0.2-0.5
		s0-0.5,0-1v-14.2c-0.8-0.2-1.2-0.6-1.3-1.1V363c0-0.2,0.1-0.4,0.2-0.6c0.2-0.1,0.3-0.2,0.6-0.2h7.7c2.1,0,3.7,0.4,4.7,1.3
		s1.5,2.2,1.5,4.1v0.4C286,369.2,285.7,370.3,285,371.1z M279.7,369.5c0.7,0,1.3-0.1,1.7-0.4c0.4-0.3,0.6-0.7,0.6-1.3v-0.1
		c0-0.6-0.2-1-0.6-1.4c-0.4-0.3-0.9-0.5-1.7-0.5h-3.1v3.6L279.7,369.5L279.7,369.5z M281.6,373.3c-0.1,0-0.2,0-0.3,0
		c-0.2,0-0.4,0-0.8,0s-0.9,0-1.5,0s-1.4,0-2.4,0v4.3c0.2,0,0.4,0,0.5,0s0.3,0,0.5,0c0.1,0,0.2,0,0.3,0c0.1,0,0.2,0,0.3,0h0.6
		c0.6,0,1.1,0,1.5-0.1c0.5-0.1,0.8-0.2,1.2-0.3c0.3-0.2,0.6-0.4,0.8-0.7c0.2-0.3,0.3-0.8,0.2-1.3c0-0.6-0.1-1-0.3-1.3
		s-0.4-0.5-0.6-0.5h0V373.3z"/>
	<path class="st0" d="M302.5,372c-0.4,0.8-1.1,1.4-2.1,1.8c0.1,0.2,0.2,0.4,0.3,0.6c0.1,0.2,0.2,0.4,0.3,0.6c0.3,0.7,0.5,1.4,0.8,2
		c0.2,0.6,0.4,1,0.6,1.3h0.9c0.2,0,0.4,0.1,0.6,0.2c0.2,0.2,0.2,0.4,0.2,0.6l-0.1,1c0,0.1-0.1,0.3-0.3,0.5c-0.2,0.2-0.3,0.3-0.5,0.4
		c-0.1,0-0.3,0.1-0.7,0.2c-0.4,0.1-0.9,0.1-1.5,0.1c-0.4,0-0.8-0.2-1.3-0.4c-0.4-0.2-0.7-0.4-0.8-0.7l0,0c-0.1-0.1-0.2-0.4-0.4-0.8
		c-0.2-0.4-0.4-0.9-0.6-1.4s-0.5-1.1-0.8-1.8c-0.3-0.6-0.6-1.3-0.8-1.9c-0.7,0-1.3-0.1-1.7-0.1c-0.4,0-0.7,0-0.9-0.1c0,0,0,0,0-0.1
		c0,0.1-0.1,0.1-0.1,0.1v5.3c0,0.4,0,0.7-0.1,1c0,0.2-0.1,0.4-0.2,0.5s-0.3,0.2-0.5,0.2s-0.5,0-0.9,0h-0.3c-0.4,0-0.7,0-1,0
		s-0.5-0.1-0.6-0.2c-0.2-0.1-0.3-0.3-0.3-0.5c-0.1-0.2-0.1-0.5-0.1-1v-14.2c-0.4-0.1-0.6-0.3-0.9-0.5s-0.4-0.4-0.4-0.6V363
		c0-0.2,0.1-0.4,0.2-0.6c0.2-0.1,0.4-0.2,0.6-0.2h8c2.1,0,3.6,0.5,4.6,1.4s1.5,2.3,1.5,4.1v1.3C303.2,370.2,302.9,371.2,302.5,372z
		 M296.8,370.6c1.5,0,2.3-0.6,2.3-1.9v-0.8c0-1.3-0.8-2-2.3-2h-3.3v4.5c0.6,0.1,1.3,0.2,2,0.2L296.8,370.6L296.8,370.6z"/>
	<path class="st0" d="M309.3,380.1c-0.2,0.4-0.3,0.8-0.6,0.9s-0.5,0.3-0.9,0.3s-0.7-0.1-1-0.2l-0.6-0.2c-0.4-0.2-0.6-0.3-0.8-0.4
		c-0.2-0.1-0.3-0.2-0.3-0.5s0.1-0.6,0.3-1.1l5.3-15.3c0.1-0.2,0.2-0.5,0.3-0.7c0.1-0.3,0.3-0.5,0.6-0.6c0.2-0.1,0.4-0.1,0.6-0.2
		s0.4,0,0.6,0h1.4c0.2,0,0.4,0,0.6,0s0.4,0.1,0.6,0.1c0.2,0.1,0.4,0.2,0.5,0.4s0.2,0.4,0.3,0.6c0,0.1,0,0.1,0.1,0.2
		c0,0.1,0.1,0.1,0.1,0.2l5.2,14.7h0.8c0.2,0,0.4,0.1,0.6,0.2c0.2,0.2,0.2,0.4,0.2,0.6v1c0,0.2-0.1,0.3-0.2,0.5s-0.2,0.3-0.4,0.3
		c-0.1,0.1-0.4,0.1-0.8,0.2s-1,0.1-1.6,0.1c-0.5,0-0.9-0.2-1.3-0.4c-0.4-0.2-0.6-0.4-0.7-0.7l-2-4.9H311L309.3,380.1z M312.1,371.5
		h2.8c0-0.1,0-0.1-0.1-0.2c0-0.1,0-0.1-0.1-0.2c-0.1-0.2-0.1-0.4-0.2-0.6s-0.1-0.4-0.2-0.6c-0.1-0.3-0.2-0.6-0.3-1
		c-0.1-0.4-0.3-1-0.6-1.8L312.1,371.5z"/>
	<path class="st0" d="M339,371.5l-0.7,1.2c-0.1,0.1-0.1,0.2-0.2,0.4s-0.2,0.3-0.2,0.4L337,375l-0.9,1.6c0,0-0.1,0.1-0.1,0.2
		s-0.1,0.1-0.1,0.2c-0.1,0.2-0.2,0.4-0.4,0.6s-0.3,0.3-0.5,0.4s-0.4,0.1-0.5,0.1c-0.2,0-0.4,0-0.6,0s-0.4,0-0.5,0
		c-0.2,0-0.4,0-0.5-0.1c-0.3-0.1-0.5-0.3-0.6-0.5s-0.3-0.5-0.4-0.7v-0.1l-0.1-0.1c-0.3-0.5-0.6-1.1-1-1.7c-0.3-0.6-0.6-1.1-0.9-1.7
		l-0.6-1l0,0c-0.1-0.2-0.2-0.3-0.2-0.4s-0.1-0.2-0.2-0.4v8c0,0.4,0,0.7-0.1,1c0,0.2-0.1,0.4-0.2,0.5s-0.3,0.2-0.5,0.2s-0.5,0-1,0
		h-0.3c-0.4,0-0.7,0-1,0s-0.5-0.1-0.6-0.2c-0.2-0.1-0.3-0.3-0.3-0.5c-0.1-0.2-0.1-0.5-0.1-1v-14.1h-0.5c-0.2,0-0.4-0.1-0.6-0.2
		c-0.2-0.2-0.2-0.4-0.2-0.6v-1.1c0-0.1,0-0.2,0.1-0.3c0.1-0.1,0.1-0.2,0.2-0.3c0.2-0.2,0.4-0.3,0.7-0.5c0.2-0.1,0.5-0.3,0.9-0.4
		c0.3-0.1,0.7-0.2,1.2-0.2c0.3,0,0.5,0,0.7,0.1s0.4,0.1,0.5,0.2l0,0c0.2,0.1,0.4,0.3,0.6,0.6s0.3,0.5,0.4,0.7l3.1,5.4l0,0l0.9,1.5
		c0.2,0.3,0.4,0.6,0.5,0.9s0.4,0.7,0.6,1.2l2.4-4.3l2.5-4.4l0.3-0.5l0,0c0,0,0-0.1,0.1-0.1s0-0.1,0.1-0.1c0.3-0.4,0.5-0.7,0.7-0.9
		c0.2-0.1,0.4-0.2,0.6-0.3c0.2-0.1,0.4-0.1,0.7-0.1c0.6,0,1,0.1,1.3,0.4s0.5,0.6,0.5,1v15.1h0.5c0.2,0,0.4,0.1,0.6,0.2
		c0.2,0.2,0.2,0.4,0.2,0.6v1c0,0.2-0.1,0.4-0.2,0.5c-0.1,0.2-0.3,0.3-0.4,0.3s-0.2,0.1-0.4,0.1s-0.4,0.1-0.6,0.1s-0.5,0.1-0.8,0.1
		s-0.6,0-0.9,0c-0.5-0.1-0.8-0.2-1.1-0.4c-0.3-0.2-0.5-0.4-0.6-0.7s-0.2-0.5-0.3-0.7c0-0.2-0.1-0.4-0.1-0.5L339,371.5L339,371.5z"/>
	<path class="st0" d="M353.4,362c0.2,0,0.3,0,0.5,0s0.3,0,0.4,0c1.4,0,2.6,0.2,3.7,0.7c1,0.4,1.9,1.1,2.6,1.8
		c0.7,0.8,1.3,1.7,1.6,2.8c0.4,1.1,0.6,2.3,0.6,3.6c0.1,1.4-0.1,2.7-0.4,3.9c-0.3,1.2-0.8,2.2-1.5,3.1s-1.5,1.6-2.5,2.2
		s-2.1,1-3.4,1.1c-0.1,0-0.3,0-0.4,0s-0.3,0-0.4,0c-1.4,0-2.6-0.2-3.6-0.7c-1-0.4-1.9-1.1-2.6-1.9s-1.3-1.7-1.6-2.8
		c-0.4-1.1-0.7-2.3-0.8-3.5c0-0.1,0-0.3,0-0.5s0-0.3,0-0.5c0-1.9,0.4-3.7,1.1-5.1c0.7-1.5,1.8-2.6,3.2-3.3c0.5-0.3,1.1-0.5,1.7-0.7
		C352.1,362.2,352.7,362.1,353.4,362z M353.8,366c-0.7,0.1-1.3,0.3-1.9,0.6c-0.7,0.4-1.3,1.1-1.6,2s-0.6,1.9-0.6,3v0.5
		c0.1,0.8,0.2,1.5,0.4,2.1c0.2,0.6,0.5,1.2,0.9,1.7s0.8,0.8,1.4,1.1c0.5,0.3,1.2,0.4,1.9,0.4c0.7,0,1.4-0.2,2-0.5s1.1-0.8,1.5-1.3
		c0.4-0.6,0.7-1.2,0.9-2c0.2-0.7,0.3-1.5,0.3-2.4c0-0.8-0.1-1.5-0.3-2.1s-0.5-1.2-0.8-1.7c-0.4-0.5-0.8-0.8-1.4-1.1
		c-0.5-0.3-1.2-0.4-1.9-0.4c-0.1,0-0.1,0-0.2,0S353.8,365.9,353.8,366z"/>
	<path class="st0" d="M371,365.8c-0.4,0-0.7,0-1,0s-0.5,0-0.7,0.1s-0.4,0.3-0.5,0.5s-0.3,0.5-0.4,0.9c-0.1,0.3-0.1,0.6,0,0.8
		c0.1,0.2,0.2,0.4,0.4,0.6c0.2,0.2,0.5,0.3,0.9,0.4s0.8,0.2,1.4,0.3c0.8,0.2,1.5,0.3,2.1,0.4s1.2,0.3,1.7,0.4
		c0.5,0.2,0.9,0.4,1.3,0.7c0.4,0.3,0.7,0.7,1.1,1.3c0.2,0.4,0.4,0.8,0.4,1.3c0.1,0.5,0.1,1.1,0.1,1.6c0,1.2-0.2,2.1-0.4,2.8
		c-0.2,0.9-0.7,1.5-1.4,2c-0.7,0.5-1.5,0.8-2.4,1.1c-0.4,0.1-0.8,0.2-1.3,0.2c-0.4,0-0.9,0.1-1.4,0.1c-0.3,0-0.7,0-1,0
		s-0.8-0.1-1.2-0.1s-0.9-0.2-1.5-0.3c-0.5-0.1-1.1-0.3-1.8-0.5c-0.4-0.1-0.7-0.2-0.9-0.4c-0.2-0.1-0.3-0.3-0.4-0.5
		c0-0.2,0-0.4,0-0.6c0.1-0.2,0.2-0.5,0.3-0.7c0.3-0.6,0.5-1,0.7-1.2s0.5-0.4,0.9-0.4c0.2,0,0.3,0,0.6,0.1s0.4,0.1,0.7,0.2l0.5,0.2
		c0.5,0.2,1,0.3,1.6,0.4c0.5,0.1,1.1,0.1,1.6,0.1c0.7,0,1.2-0.1,1.6-0.2s0.7-0.2,0.8-0.4c0.2-0.2,0.3-0.4,0.4-0.6s0.1-0.5,0.1-0.9
		s0-0.6,0-0.8c0-0.2,0-0.4-0.1-0.4c0-0.1-0.1-0.2-0.2-0.3c-0.1-0.1-0.3-0.2-0.5-0.2c-0.2-0.1-0.6-0.2-1-0.2
		c-0.4-0.1-0.9-0.2-1.5-0.3c-0.8-0.1-1.6-0.3-2.3-0.5c-0.7-0.2-1.4-0.5-2-0.8s-1-0.8-1.4-1.4c-0.3-0.6-0.5-1.3-0.5-2.2
		c0-1,0.1-1.8,0.4-2.6c0.3-0.8,0.8-1.5,1.5-2.2c1-1,2.6-1.5,4.8-1.5c0.4,0,0.8,0,1.3,0.1s1,0.1,1.5,0.2s1,0.1,1.4,0.2
		c0.5,0.1,0.8,0.2,1.1,0.3c0.4,0.1,0.7,0.3,0.7,0.5c0.1,0.2,0.1,0.5,0,0.9c0,0.2-0.1,0.3-0.1,0.5c0,0.1-0.1,0.4-0.2,0.7
		c-0.1,0.4-0.3,0.7-0.4,0.9c-0.1,0.2-0.3,0.2-0.5,0.2c-0.1,0-0.3,0-0.5,0s-0.5-0.1-0.9-0.2c-0.1,0-0.2,0-0.4-0.1
		c-0.2-0.1-0.5-0.1-0.9-0.2s-0.7-0.1-1.1-0.2C371.8,365.8,371.4,365.8,371,365.8z"/>
	<path class="st0" d="M401.1,374.8c0,0.5,0,1-0.1,1.4c-0.1,0.8-0.4,1.5-0.8,2.1s-0.9,1.2-1.5,1.6s-1.3,0.8-2.1,1.1
		c-0.8,0.2-1.7,0.4-2.6,0.3c-2,0-3.5-0.5-4.7-1.4s-1.9-2.1-2.2-3.8c-0.1-0.4-0.1-0.8-0.1-1.3s0-1,0-1.4v-9.6c0-0.4,0-0.7,0.1-1
		c0.1-0.2,0.2-0.4,0.3-0.5c0.1-0.1,0.3-0.2,0.6-0.2s0.6,0,1,0c0.5,0,0.8,0,1.1,0c0.3,0,0.5,0.1,0.6,0.2s0.2,0.3,0.3,0.5
		c0,0.2,0.1,0.6,0.1,1v8.9c0,0.4,0,0.8,0,1.2c0,0.4,0,0.8,0.1,1.1c0,0.4,0.1,0.7,0.2,1s0.2,0.6,0.3,0.8c0.3,0.3,0.6,0.5,1.1,0.6
		c0.4,0.1,0.9,0.2,1.4,0.2c0.7,0,1.3-0.1,1.9-0.4c0.6-0.2,0.9-0.6,1.1-1.1c0.1-0.3,0.1-0.6,0.2-1c0-0.4,0-1,0-1.8v-9.5
		c0-0.4,0-0.7,0.1-1c0.1-0.2,0.1-0.4,0.3-0.5c0.1-0.1,0.3-0.2,0.6-0.2c0.3,0,0.6,0,1,0c0.5,0,0.8,0,1.1,0s0.5,0.1,0.6,0.2
		s0.2,0.3,0.3,0.5c0,0.2,0.1,0.6,0.1,1v9.5C401.1,373.9,401.1,374.3,401.1,374.8z"/>
	<path class="st0" d="M418.9,379.5c0,0.4,0,0.7-0.1,0.9c-0.1,0.2-0.1,0.4-0.3,0.5c-0.1,0.1-0.3,0.2-0.5,0.2s-0.5,0-0.9,0h-0.3
		c-0.2,0-0.4,0-0.5,0c-0.2,0-0.3-0.1-0.5-0.1c-0.2-0.1-0.4-0.2-0.6-0.4c-0.2-0.2-0.4-0.5-0.7-0.8c-0.2-0.2-0.5-0.6-0.9-1.3
		s-0.9-1.4-1.5-2.2c-0.6-0.9-1.2-1.8-1.9-2.8c-0.7-1-1.3-2-2-3v9c0,0.4,0,0.7-0.1,1c0,0.2-0.1,0.4-0.2,0.5s-0.3,0.2-0.5,0.2
		s-0.5,0-1,0h-0.3c-0.4,0-0.7,0-1,0s-0.5-0.1-0.6-0.2s-0.2-0.3-0.3-0.5c-0.1-0.2-0.1-0.5-0.1-1v-14h-0.6c-0.2,0-0.4-0.1-0.6-0.2
		c-0.2-0.2-0.2-0.4-0.2-0.6v-1.1c0-0.1,0-0.2,0.1-0.4s0.1-0.2,0.1-0.3c0.2-0.2,0.4-0.3,0.7-0.5c0.2-0.1,0.5-0.3,0.9-0.4
		s0.8-0.2,1.2-0.2c0.4,0,0.8,0.1,1.1,0.3c0.3,0.2,0.6,0.4,0.8,0.6l7,10.6v-9.6c0-0.4,0-0.7,0.1-1c0.1-0.2,0.2-0.4,0.3-0.5
		c0.1-0.1,0.3-0.2,0.6-0.2c0.3,0,0.6,0,1,0c0.5,0,0.8,0,1.1,0s0.5,0.1,0.6,0.2s0.2,0.3,0.3,0.5c0,0.2,0.1,0.6,0.1,1v15.8H418.9z"/>
	<path class="st0" d="M432.4,380.1c-0.2,0.4-0.3,0.8-0.6,0.9s-0.5,0.3-0.9,0.3s-0.7-0.1-1-0.2l-0.6-0.2c-0.4-0.2-0.6-0.3-0.8-0.4
		c-0.2-0.1-0.3-0.2-0.3-0.5s0.1-0.6,0.3-1.1l5.3-15.3c0.1-0.2,0.2-0.5,0.3-0.7c0.1-0.3,0.3-0.5,0.6-0.6c0.2-0.1,0.4-0.1,0.6-0.2
		s0.4,0,0.6,0h1.4c0.2,0,0.4,0,0.6,0s0.4,0.1,0.6,0.1c0.2,0.1,0.4,0.2,0.5,0.4s0.2,0.4,0.3,0.6c0,0.1,0,0.1,0.1,0.2
		c0,0.1,0.1,0.1,0.1,0.2l5.2,14.7h0.8c0.2,0,0.4,0.1,0.6,0.2c0.2,0.2,0.2,0.4,0.2,0.6v1c0,0.2-0.1,0.3-0.2,0.5s-0.2,0.3-0.4,0.3
		c-0.1,0.1-0.4,0.1-0.8,0.2s-1,0.1-1.6,0.1c-0.5,0-0.9-0.2-1.3-0.4c-0.4-0.2-0.6-0.4-0.7-0.7l-2-4.9h-5.2L432.4,380.1z M435.2,371.5
		h2.8c0-0.1,0-0.1-0.1-0.2c0-0.1,0-0.1-0.1-0.2c-0.1-0.2-0.1-0.4-0.2-0.6s-0.1-0.4-0.2-0.6c-0.1-0.3-0.2-0.6-0.3-1
		c-0.1-0.4-0.3-1-0.6-1.8L435.2,371.5z"/>
	<path class="st0" d="M463,379.5c0,0.4,0,0.7-0.1,0.9c-0.1,0.2-0.1,0.4-0.3,0.5c-0.1,0.1-0.3,0.2-0.5,0.2s-0.5,0-0.9,0H461
		c-0.2,0-0.4,0-0.5,0c-0.2,0-0.3-0.1-0.5-0.1c-0.2-0.1-0.4-0.2-0.6-0.4c-0.2-0.2-0.4-0.5-0.7-0.8c-0.2-0.2-0.5-0.6-0.9-1.3
		s-0.9-1.4-1.5-2.2c-0.6-0.9-1.2-1.8-1.9-2.8c-0.7-1-1.3-2-2-3v9c0,0.4,0,0.7-0.1,1c0,0.2-0.1,0.4-0.2,0.5s-0.3,0.2-0.5,0.2
		s-0.5,0-1,0h-0.3c-0.4,0-0.7,0-1,0s-0.5-0.1-0.6-0.2s-0.2-0.3-0.3-0.5c-0.1-0.2-0.1-0.5-0.1-1v-14h-0.6c-0.2,0-0.4-0.1-0.6-0.2
		c-0.2-0.2-0.2-0.4-0.2-0.6v-1.1c0-0.1,0-0.2,0.1-0.4c0.1-0.2,0.1-0.2,0.1-0.3c0.2-0.2,0.4-0.3,0.7-0.5c0.2-0.1,0.5-0.3,0.9-0.4
		s0.8-0.2,1.2-0.2c0.4,0,0.8,0.1,1.1,0.3c0.3,0.2,0.6,0.4,0.8,0.6l7,10.6v-9.6c0-0.4,0-0.7,0.1-1c0.1-0.2,0.2-0.4,0.3-0.5
		c0.1-0.1,0.3-0.2,0.6-0.2c0.3,0,0.6,0,1,0c0.5,0,0.8,0,1.1,0s0.5,0.1,0.6,0.2s0.2,0.3,0.3,0.5c0,0.2,0.1,0.6,0.1,1v15.8H463z
		 M460.7,357.8c0,0.2,0,0.3-0.1,0.5s-0.2,0.3-0.3,0.4c0,0-0.1,0.1-0.3,0.3c-0.2,0.1-0.4,0.3-0.6,0.4s-0.5,0.3-0.8,0.4
		s-0.6,0.2-1,0.2s-0.9-0.1-1.3-0.2s-1-0.3-1.6-0.6c-0.1,0-0.1-0.1-0.2-0.1s-0.1,0-0.2,0s-0.1,0-0.2,0.1s-0.2,0.1-0.3,0.2
		c-0.1,0.1-0.3,0.2-0.4,0.3c-0.3,0.2-0.6,0.3-0.9,0.3s-0.6-0.1-0.8-0.3c-0.2-0.2-0.4-0.5-0.4-0.8l-0.2-0.9v-0.1c0-0.1,0-0.3,0.1-0.5
		s0.2-0.4,0.5-0.6c0.1-0.1,0.2-0.2,0.4-0.3s0.4-0.3,0.6-0.4s0.5-0.2,0.8-0.3c0.3-0.1,0.6-0.1,0.9-0.1c0.4,0,0.8,0.1,1.2,0.2
		s0.8,0.2,1.1,0.4c0.2,0.1,0.4,0.2,0.6,0.2s0.3,0.1,0.4,0.1s0.1,0,0.2-0.1s0.2-0.1,0.3-0.2l0.4-0.3c0.2-0.1,0.4-0.2,0.6-0.2
		s0.4,0,0.6,0.1s0.4,0.2,0.5,0.4c0.1,0.2,0.2,0.4,0.3,0.6L460.7,357.8z"/>
	<path class="st0" d="M473.6,362c0.2,0,0.3,0,0.5,0s0.3,0,0.4,0c1.4,0,2.6,0.2,3.6,0.7s1.9,1.1,2.6,1.8c0.7,0.8,1.3,1.7,1.6,2.8
		s0.6,2.3,0.6,3.6c0.1,1.4-0.1,2.7-0.4,3.9c-0.3,1.2-0.8,2.2-1.5,3.1s-1.5,1.6-2.5,2.2s-2.1,1-3.4,1.1c-0.1,0-0.3,0-0.4,0
		c-0.2,0-0.3,0-0.4,0c-1.4,0-2.6-0.2-3.6-0.7c-1-0.4-1.9-1.1-2.6-1.9s-1.3-1.7-1.6-2.8c-0.4-1.1-0.7-2.3-0.8-3.5c0-0.1,0-0.3,0-0.5
		s0-0.3,0-0.5c0-1.9,0.4-3.7,1.1-5.1c0.7-1.5,1.8-2.6,3.2-3.3c0.5-0.3,1.1-0.5,1.7-0.7C472.2,362.2,472.9,362.1,473.6,362z
		 M473.9,366c-0.7,0.1-1.3,0.3-1.9,0.6c-0.7,0.4-1.3,1.1-1.6,2c-0.4,0.9-0.6,1.9-0.6,3v0.5c0,0.8,0.2,1.5,0.4,2.1
		c0.2,0.6,0.5,1.2,0.9,1.7s0.8,0.8,1.4,1.1c0.5,0.3,1.2,0.4,1.9,0.4c0.7,0,1.4-0.2,2-0.5s1.1-0.8,1.5-1.3c0.4-0.6,0.7-1.2,0.9-2
		c0.2-0.7,0.3-1.5,0.3-2.4c0-0.8-0.1-1.5-0.3-2.1c-0.2-0.7-0.5-1.2-0.8-1.7c-0.4-0.5-0.8-0.8-1.4-1.1c-0.5-0.3-1.2-0.4-1.9-0.4
		c-0.1,0-0.1,0-0.2,0C474.1,365.9,474,365.9,473.9,366z"/>
	<path class="st0" d="M507.5,371.5l-0.7,1.2c-0.1,0.1-0.1,0.2-0.2,0.4s-0.2,0.3-0.2,0.4l-0.9,1.6l-0.9,1.6c0,0-0.1,0.1-0.1,0.2
		s-0.1,0.1-0.1,0.2c-0.1,0.2-0.2,0.4-0.4,0.6c-0.1,0.2-0.3,0.3-0.5,0.4s-0.4,0.1-0.5,0.1c-0.2,0-0.4,0-0.6,0s-0.4,0-0.5,0
		c-0.2,0-0.4,0-0.5-0.1c-0.3-0.1-0.5-0.3-0.6-0.5s-0.3-0.5-0.4-0.7v-0.1l-0.1-0.1c-0.3-0.5-0.6-1.1-1-1.7c-0.3-0.6-0.6-1.1-0.9-1.7
		l-0.6-1l0,0c-0.1-0.2-0.2-0.3-0.2-0.4s-0.1-0.2-0.2-0.4v8c0,0.4,0,0.7-0.1,1c0,0.2-0.1,0.4-0.2,0.5s-0.3,0.2-0.5,0.2s-0.5,0-1,0
		h-0.3c-0.4,0-0.7,0-1,0s-0.5-0.1-0.6-0.2c-0.2-0.1-0.3-0.3-0.3-0.5c-0.1-0.2-0.1-0.5-0.1-1v-14.1h-0.5c-0.2,0-0.4-0.1-0.6-0.2
		c-0.2-0.2-0.2-0.4-0.2-0.6v-1.1c0-0.1,0-0.2,0.1-0.3s0.1-0.2,0.2-0.3c0.2-0.2,0.4-0.3,0.7-0.5c0.2-0.1,0.5-0.3,0.9-0.4
		s0.7-0.2,1.2-0.2c0.3,0,0.5,0,0.7,0.1s0.4,0.1,0.5,0.2l0,0c0.2,0.1,0.4,0.3,0.6,0.6c0.2,0.2,0.3,0.5,0.4,0.7l3.1,5.4l0,0l0.9,1.5
		c0.2,0.3,0.4,0.6,0.5,0.9c0.2,0.3,0.4,0.7,0.6,1.2l2.4-4.3l2.5-4.4l0.3-0.5l0,0c0,0,0-0.1,0.1-0.1s0-0.1,0.1-0.1
		c0.3-0.4,0.5-0.7,0.7-0.9c0.2-0.1,0.4-0.2,0.6-0.3c0.2-0.1,0.4-0.1,0.7-0.1c0.6,0,1,0.1,1.3,0.4s0.5,0.6,0.5,1v15.1h0.5
		c0.2,0,0.4,0.1,0.6,0.2c0.2,0.2,0.2,0.4,0.2,0.6v1c0,0.2-0.1,0.4-0.2,0.5c-0.1,0.2-0.3,0.3-0.4,0.3c-0.1,0-0.2,0.1-0.4,0.1
		s-0.4,0.1-0.6,0.1s-0.5,0.1-0.8,0.1s-0.6,0-0.9,0c-0.5-0.1-0.8-0.2-1.1-0.4c-0.3-0.2-0.5-0.4-0.6-0.7s-0.2-0.5-0.3-0.7
		c0-0.2-0.1-0.4-0.1-0.5L507.5,371.5L507.5,371.5z"/>
	<path class="st0" d="M518,380.1c-0.2,0.4-0.3,0.8-0.6,0.9s-0.5,0.3-0.9,0.3s-0.7-0.1-1-0.2l-0.6-0.2c-0.4-0.2-0.6-0.3-0.8-0.4
		s-0.3-0.2-0.3-0.5s0.1-0.6,0.3-1.1l5.3-15.3c0.1-0.2,0.2-0.5,0.3-0.7c0.1-0.3,0.3-0.5,0.6-0.6c0.2-0.1,0.4-0.1,0.6-0.2s0.4,0,0.6,0
		h1.4c0.2,0,0.4,0,0.6,0c0.2,0,0.4,0.1,0.6,0.1c0.2,0.1,0.4,0.2,0.5,0.4c0.1,0.2,0.2,0.4,0.3,0.6c0,0.1,0,0.1,0.1,0.2
		c0,0.1,0.1,0.1,0.1,0.2l5.2,14.7h0.8c0.2,0,0.4,0.1,0.6,0.2c0.2,0.2,0.2,0.4,0.2,0.6v1c0,0.2-0.1,0.3-0.2,0.5
		c-0.1,0.2-0.3,0.3-0.4,0.3c-0.1,0.1-0.4,0.1-0.8,0.2c-0.5,0.1-1,0.1-1.6,0.1c-0.5,0-0.9-0.2-1.3-0.4c-0.4-0.2-0.6-0.4-0.7-0.7
		l-2-4.9h-5.2L518,380.1z M518.9,359c-0.1-0.2-0.2-0.5-0.1-0.7c0.1-0.3,0.2-0.5,0.4-0.6l4.4-2.8c0.3-0.1,0.5-0.2,0.7-0.1
		s0.4,0.2,0.6,0.5l0.8,1.4c0.2,0.3,0.2,0.5,0.1,0.8c-0.1,0.3-0.2,0.5-0.4,0.6l-4.6,2.4c-0.2,0.1-0.5,0.1-0.8,0.1
		c-0.3-0.1-0.5-0.2-0.6-0.5L518.9,359z M520.9,371.5h2.8c0-0.1,0-0.1,0-0.2s0-0.1-0.1-0.2c-0.1-0.2-0.1-0.4-0.2-0.6
		c-0.1-0.2-0.1-0.4-0.2-0.6c-0.1-0.3-0.2-0.6-0.3-1s-0.3-1-0.6-1.8L520.9,371.5z"/>
	<path class="st0" d="M539.5,365.8c-0.4,0-0.7,0-1,0s-0.5,0-0.7,0.1s-0.4,0.3-0.5,0.5s-0.3,0.5-0.4,0.9c-0.1,0.3-0.1,0.6,0,0.8
		s0.2,0.4,0.4,0.6s0.5,0.3,0.9,0.4s0.8,0.2,1.4,0.3c0.8,0.2,1.5,0.3,2.1,0.4s1.2,0.3,1.7,0.4c0.5,0.2,0.9,0.4,1.3,0.7
		s0.7,0.7,1.1,1.3c0.2,0.4,0.4,0.8,0.4,1.3s0.1,1.1,0.1,1.6c0,1.2-0.2,2.1-0.4,2.8c-0.2,0.9-0.7,1.5-1.4,2s-1.5,0.8-2.4,1.1
		c-0.4,0.1-0.8,0.2-1.3,0.2c-0.4,0-0.9,0.1-1.4,0.1c-0.3,0-0.7,0-1,0c-0.4,0-0.8-0.1-1.2-0.1c-0.4-0.1-0.9-0.2-1.5-0.3
		c-0.5-0.1-1.1-0.3-1.8-0.5c-0.4-0.1-0.7-0.2-0.9-0.4s-0.3-0.3-0.4-0.5s0-0.4,0-0.6s0.2-0.5,0.3-0.7c0.3-0.6,0.5-1,0.7-1.2
		s0.5-0.4,0.9-0.4c0.2,0,0.3,0,0.6,0.1s0.4,0.1,0.7,0.2l0.5,0.2c0.5,0.2,1,0.3,1.6,0.4c0.5,0.1,1.1,0.1,1.6,0.1
		c0.7,0,1.2-0.1,1.6-0.2c0.4-0.1,0.7-0.2,0.8-0.4c0.2-0.2,0.3-0.4,0.4-0.6c0.1-0.2,0.1-0.5,0.1-0.9s0-0.6,0-0.8c0-0.2,0-0.4-0.1-0.4
		c0-0.1-0.1-0.2-0.2-0.3c-0.1-0.1-0.3-0.2-0.5-0.2c-0.2-0.1-0.6-0.2-1-0.2c-0.4-0.1-0.9-0.2-1.5-0.3c-0.8-0.1-1.6-0.3-2.3-0.5
		s-1.4-0.5-2-0.8s-1-0.8-1.4-1.4c-0.3-0.6-0.5-1.3-0.5-2.2c0-1,0.1-1.8,0.4-2.6c0.3-0.8,0.8-1.5,1.5-2.2c1-1,2.6-1.5,4.8-1.5
		c0.4,0,0.8,0,1.3,0.1s1,0.1,1.5,0.2s1,0.1,1.4,0.2c0.5,0.1,0.8,0.2,1.1,0.3c0.4,0.1,0.7,0.3,0.7,0.5s0.1,0.5,0,0.9
		c0,0.2-0.1,0.3-0.1,0.5s-0.1,0.4-0.2,0.7c-0.1,0.4-0.3,0.7-0.4,0.9s-0.3,0.2-0.5,0.2c-0.1,0-0.3,0-0.5,0s-0.5-0.1-0.9-0.2
		c0,0-0.2,0-0.4-0.1s-0.5-0.1-0.9-0.2c-0.3-0.1-0.7-0.1-1.1-0.2C540.3,365.8,539.9,365.8,539.5,365.8z"/>
</g>
<g>
	<path class="st1" d="M218.1,414.5c-0.1,0-0.1,0-0.2,0l-0.1-0.1c0,0,0-0.2,0-0.3V406c-0.4-0.1-0.7-0.1-0.7-0.3V405h3.9
		c0.2,0,0.3,0,0.5,0s0.3,0,0.5,0.1c0.5,0.1,0.9,0.3,1.2,0.6c0.3,0.3,0.6,0.6,0.8,1s0.3,0.9,0.4,1.4c0.1,0.5,0.1,1,0.1,1.6
		c0,0.7-0.1,1.3-0.2,1.9c-0.1,0.6-0.3,1.1-0.6,1.5s-0.6,0.8-1.1,1s-1,0.4-1.7,0.4h-2.6C218.3,414.5,218.2,414.5,218.1,414.5z
		 M219,413.4h1.9c0.5,0,0.9-0.1,1.2-0.3s0.6-0.5,0.7-0.8c0.2-0.3,0.3-0.7,0.4-1.2c0.1-0.5,0.1-0.9,0.1-1.5c0-0.4,0-0.8-0.1-1.2
		s-0.2-0.8-0.3-1.1c-0.2-0.3-0.4-0.6-0.7-0.8c-0.3-0.2-0.7-0.3-1.2-0.3h-2v1.1L219,413.4z"/>
	<path class="st1" d="M227.8,414.3c-0.4-0.1-0.7-0.3-0.9-0.5s-0.4-0.5-0.5-0.8s-0.2-0.6-0.2-1v-6.1l0,0c-0.4-0.1-0.7-0.1-0.7-0.3
		V405h5.9c0.2,0,0.4,0,0.4,0.1s0.1,0.2,0.1,0.4c0,0.1,0,0.2,0,0.3c0,0.1,0,0.1,0,0.2l-0.1,0.1c-0.1,0-0.2,0-0.3,0h-4v2.9h3.4
		c0.2,0,0.4,0,0.4,0.1s0.1,0.2,0.1,0.4c0,0.1,0,0.2,0,0.3c0,0.1,0,0.1,0,0.2l-0.1,0.1c0,0-0.2,0-0.3,0h-3.4v1.7
		c0,0.3,0.1,0.5,0.2,0.7c0.1,0.2,0.2,0.3,0.4,0.4s0.4,0.2,0.6,0.2c0.2,0,0.5,0.1,0.8,0.1h2c0.2,0,0.4,0,0.4,0.1s0.1,0.2,0.1,0.4
		c0,0.1,0,0.2,0,0.3s0,0.1,0,0.2s-0.1,0.1-0.1,0.1c-0.1,0-0.2,0-0.3,0h-2.3C228.7,414.5,228.2,414.4,227.8,414.3z"/>
</g>
<g>
	<path class="st2" d="M238.3,399h-0.9c-0.2,0-0.4-0.1-0.6-0.2c-0.2-0.2-0.2-0.4-0.2-0.6V397c0-0.1,0-0.2,0.1-0.3
		c0.1-0.1,0.1-0.2,0.1-0.3c0.2-0.2,0.4-0.4,0.7-0.5c0.2-0.1,0.5-0.3,0.9-0.4s0.8-0.2,1.2-0.2c0.7,0,1.3,0.1,1.6,0.4
		c0.4,0.3,0.6,0.6,0.7,0.9l3.3,11.9l3.3-11.9c0.1-0.5,0.3-0.8,0.5-1s0.5-0.3,0.8-0.3c0.2,0,0.3,0,0.5,0.1s0.4,0.1,0.6,0.2
		c0.1,0,0.2,0,0.2,0.1s0.1,0,0.2,0.1c0.4,0.1,0.7,0.3,0.9,0.4s0.3,0.3,0.3,0.6c0,0.3-0.1,0.6-0.2,0.9l-4.2,14.6
		c-0.1,0.2-0.1,0.4-0.2,0.7c-0.1,0.3-0.3,0.5-0.5,0.8c-0.3,0.3-0.6,0.5-1,0.7c-0.4,0.1-0.8,0.2-1.2,0.2h-0.3c0,0,0,0-0.1,0
		c0,0-0.1,0-0.2,0c-0.3,0-0.6-0.1-0.9-0.2c-0.3-0.1-0.6-0.3-0.8-0.6c-0.2-0.3-0.4-0.5-0.5-0.8s-0.2-0.5-0.2-0.7L238.3,399z"/>
	<path class="st2" d="M255.3,413.4c-0.2,0.4-0.3,0.8-0.6,0.9s-0.5,0.3-0.9,0.3s-0.7-0.1-1-0.2l-0.6-0.2c-0.4-0.2-0.6-0.3-0.8-0.4
		s-0.3-0.2-0.3-0.5s0.1-0.6,0.3-1.1l5.3-15.3c0.1-0.2,0.2-0.5,0.3-0.7c0.1-0.3,0.3-0.5,0.6-0.6c0.2-0.1,0.4-0.1,0.6-0.2s0.4,0,0.6,0
		h1.4c0.2,0,0.4,0,0.6,0s0.4,0.1,0.6,0.1c0.2,0.1,0.4,0.2,0.5,0.4s0.2,0.4,0.3,0.6c0,0.1,0,0.1,0.1,0.2c0,0.1,0.1,0.1,0.1,0.2
		l5.2,14.7h0.8c0.2,0,0.4,0.1,0.6,0.2c0.2,0.2,0.2,0.4,0.2,0.6v1c0,0.2-0.1,0.3-0.2,0.5s-0.2,0.3-0.4,0.3c-0.1,0.1-0.4,0.1-0.8,0.2
		s-1,0.1-1.6,0.1c-0.5,0-0.9-0.2-1.3-0.4c-0.4-0.2-0.6-0.4-0.7-0.7l-2-4.9H257L255.3,413.4z M258.1,404.9h2.8c0-0.1,0-0.1-0.1-0.2
		c0-0.1,0-0.1-0.1-0.2c-0.1-0.2-0.1-0.4-0.2-0.6s-0.1-0.4-0.2-0.6c-0.1-0.3-0.2-0.6-0.3-1c-0.1-0.4-0.3-1-0.6-1.8L258.1,404.9z"/>
	<path class="st2" d="M285.3,412.9c0,0.4,0,0.7-0.1,0.9c-0.1,0.2-0.1,0.4-0.3,0.5c-0.1,0.1-0.3,0.2-0.5,0.2s-0.5,0-0.9,0h-0.3
		c-0.2,0-0.4,0-0.5,0c-0.2,0-0.3-0.1-0.5-0.1c-0.2-0.1-0.4-0.2-0.6-0.4c-0.2-0.2-0.4-0.5-0.7-0.8c-0.2-0.2-0.5-0.6-0.9-1.3
		s-0.9-1.4-1.5-2.2c-0.6-0.9-1.2-1.8-1.9-2.8c-0.7-1-1.3-2-2-3v9c0,0.4,0,0.7-0.1,1c0,0.2-0.1,0.4-0.2,0.5s-0.3,0.2-0.5,0.2
		s-0.5,0-1,0h-0.3c-0.4,0-0.7,0-1,0s-0.5-0.1-0.6-0.2s-0.2-0.3-0.3-0.5c-0.1-0.2-0.1-0.5-0.1-1v-14h-0.6c-0.2,0-0.4-0.1-0.6-0.2
		c-0.2-0.2-0.2-0.4-0.2-0.6V397c0-0.1,0-0.2,0.1-0.4s0.1-0.2,0.1-0.3c0.2-0.2,0.4-0.3,0.7-0.5c0.2-0.1,0.5-0.3,0.9-0.4
		s0.8-0.2,1.2-0.2c0.4,0,0.8,0.1,1.1,0.3c0.3,0.2,0.6,0.4,0.8,0.6l7,10.6v-9.6c0-0.4,0-0.7,0.1-1c0.1-0.2,0.2-0.4,0.3-0.5
		c0.1-0.1,0.3-0.2,0.6-0.2c0.3,0,0.6,0,1,0c0.5,0,0.8,0,1.1,0s0.5,0.1,0.6,0.2s0.2,0.3,0.3,0.5c0,0.2,0.1,0.6,0.1,1v15.8H285.3z"/>
	<path class="st2" d="M294.3,411c0.6,0,1.2,0,1.7-0.1c0.5,0,1-0.1,1.5-0.2v-4.3c0-0.4,0-0.7,0.1-1c0-0.2,0.1-0.4,0.3-0.5
		c0.1-0.1,0.3-0.2,0.6-0.2c0.2,0,0.6,0,1,0c0.5,0,0.8,0,1.1,0c0.3,0,0.5,0.1,0.6,0.2s0.2,0.3,0.3,0.5c0,0.2,0.1,0.5,0.1,0.9v5.9
		c0,0.4,0,0.7-0.1,0.9c-0.1,0.2-0.3,0.4-0.5,0.6s-0.6,0.3-1,0.4s-1,0.2-1.7,0.3c-0.5,0.1-1,0.1-1.5,0.2c-0.5,0-0.9,0.1-1.3,0.1
		c-1.4,0.1-2.7-0.2-3.7-0.6c-1-0.5-1.9-1.2-2.5-2.1s-1.1-1.9-1.4-3c-0.4-1.1-0.5-2.5-0.5-3.9c0-2.1,0.5-4,1.3-5.6s2.1-2.7,3.7-3.5
		c1.1-0.5,2.4-0.8,3.6-0.7c1.3,0.1,2.5,0.3,3.6,0.6l0,0l0.3,0.1c0.6,0.2,1.1,0.4,1.4,0.5s0.4,0.4,0.4,0.7c0,0.3-0.1,0.7-0.3,1.2
		c-0.3,0.6-0.5,1-0.6,1.2c-0.2,0.2-0.4,0.3-0.7,0.3c-0.1,0-0.3,0-0.4-0.1s-0.3-0.1-0.5-0.2l0,0l-0.6-0.2c-0.6-0.1-1.1-0.3-1.5-0.4
		s-0.8-0.2-1.2-0.2c-0.5-0.1-1.1,0.1-1.7,0.4s-1.1,0.7-1.5,1.4s-0.7,1.3-0.9,2c-0.2,0.8-0.3,1.8-0.3,3.2c0,1.4,0.3,2.6,0.9,3.6
		C292.6,410.4,293.4,410.9,294.3,411z"/>
	<path class="st2" d="M317.5,408.2c0,0.5,0,1-0.1,1.4c-0.1,0.8-0.4,1.5-0.8,2.1s-0.9,1.2-1.5,1.6s-1.3,0.8-2.1,1.1
		c-0.8,0.2-1.7,0.4-2.6,0.3c-2,0-3.5-0.5-4.7-1.4s-1.9-2.1-2.2-3.8c-0.1-0.4-0.1-0.8-0.1-1.3s0-1,0-1.4v-9.6c0-0.4,0-0.7,0.1-1
		c0.1-0.2,0.2-0.4,0.3-0.5c0.1-0.1,0.3-0.2,0.6-0.2s0.6,0,1,0c0.5,0,0.8,0,1.1,0c0.3,0,0.5,0.1,0.6,0.2s0.2,0.3,0.3,0.5
		c0,0.2,0.1,0.6,0.1,1v8.9c0,0.4,0,0.8,0,1.2c0,0.4,0,0.8,0.1,1.1c0,0.4,0.1,0.7,0.2,1s0.2,0.6,0.3,0.8c0.3,0.3,0.6,0.5,1.1,0.6
		c0.4,0.1,0.9,0.2,1.4,0.2c0.7,0,1.3-0.1,1.9-0.4c0.6-0.2,0.9-0.6,1.1-1.1c0.1-0.3,0.1-0.6,0.2-1c0-0.4,0-1,0-1.8v-9.5
		c0-0.4,0-0.7,0.1-1c0.1-0.2,0.1-0.4,0.3-0.5c0.1-0.1,0.3-0.2,0.6-0.2c0.3,0,0.6,0,1,0c0.5,0,0.8,0,1.1,0s0.5,0.1,0.6,0.2
		s0.2,0.3,0.3,0.5c0,0.2,0.1,0.6,0.1,1v9.5C317.5,407.2,317.5,407.7,317.5,408.2z"/>
	<path class="st2" d="M322.4,413.4c-0.2,0.4-0.3,0.8-0.6,0.9s-0.5,0.3-0.9,0.3s-0.7-0.1-1-0.2l-0.6-0.2c-0.4-0.2-0.6-0.3-0.8-0.4
		c-0.2-0.1-0.3-0.2-0.3-0.5s0.1-0.6,0.3-1.1l5.3-15.3c0.1-0.2,0.2-0.5,0.3-0.7c0.1-0.3,0.3-0.5,0.6-0.6c0.2-0.1,0.4-0.1,0.6-0.2
		s0.4,0,0.6,0h1.4c0.2,0,0.4,0,0.6,0s0.4,0.1,0.6,0.1c0.2,0.1,0.4,0.2,0.5,0.4s0.2,0.4,0.3,0.6c0,0.1,0,0.1,0.1,0.2
		c0,0.1,0.1,0.1,0.1,0.2l5.2,14.7h0.8c0.2,0,0.4,0.1,0.6,0.2c0.2,0.2,0.2,0.4,0.2,0.6v1c0,0.2-0.1,0.3-0.2,0.5s-0.2,0.3-0.4,0.3
		c-0.1,0.1-0.4,0.1-0.8,0.2s-1,0.1-1.6,0.1c-0.5,0-0.9-0.2-1.3-0.4c-0.4-0.2-0.6-0.4-0.7-0.7l-2-4.9h-5.2L322.4,413.4z M325.2,404.9
		h2.8c0-0.1,0-0.1-0.1-0.2c0-0.1,0-0.1-0.1-0.2c-0.1-0.2-0.1-0.4-0.2-0.6s-0.1-0.4-0.2-0.6c-0.1-0.3-0.2-0.6-0.3-1
		c-0.1-0.4-0.3-1-0.6-1.8L325.2,404.9z"/>
	<path class="st2" d="M350.6,405.3c-0.4,0.8-1.1,1.4-2.1,1.8c0.1,0.2,0.2,0.4,0.3,0.6c0.1,0.2,0.2,0.4,0.3,0.6
		c0.3,0.7,0.5,1.4,0.8,2c0.2,0.6,0.4,1,0.6,1.3h0.9c0.2,0,0.4,0.1,0.6,0.2c0.2,0.2,0.2,0.4,0.2,0.6l-0.1,1c0,0.1-0.1,0.3-0.3,0.5
		c-0.2,0.2-0.3,0.3-0.5,0.4c-0.1,0-0.3,0.1-0.7,0.2c-0.4,0.1-0.9,0.1-1.5,0.1c-0.4,0-0.8-0.2-1.3-0.4c-0.4-0.2-0.7-0.4-0.8-0.7l0,0
		c-0.1-0.1-0.2-0.4-0.4-0.8c-0.2-0.4-0.4-0.9-0.6-1.4s-0.5-1.1-0.8-1.8c-0.3-0.6-0.6-1.3-0.8-1.9c-0.7,0-1.3-0.1-1.7-0.1
		c-0.4,0-0.7,0-0.9-0.1c0,0,0,0,0-0.1c0,0.1-0.1,0.1-0.1,0.1v5.3c0,0.4,0,0.7-0.1,1c0,0.2-0.1,0.4-0.2,0.5s-0.3,0.2-0.5,0.2
		s-0.5,0-0.9,0h-0.3c-0.4,0-0.7,0-1,0s-0.5-0.1-0.6-0.2c-0.2-0.1-0.3-0.3-0.3-0.5c-0.1-0.2-0.1-0.5-0.1-1v-14.2
		c-0.4-0.1-0.6-0.3-0.9-0.5s-0.4-0.4-0.4-0.6v-1.2c0-0.2,0.1-0.4,0.2-0.6c0.2-0.1,0.4-0.2,0.6-0.2h8c2.1,0,3.6,0.5,4.6,1.4
		s1.5,2.3,1.5,4.1v1.3C351.2,403.6,351,404.6,350.6,405.3z M344.9,403.9c1.5,0,2.3-0.6,2.3-1.9v-0.8c0-1.3-0.8-2-2.3-2h-3.3v4.5
		c0.6,0.1,1.3,0.2,2,0.2L344.9,403.9L344.9,403.9z"/>
	<path class="st2" d="M354.7,414.5c-0.3,0-0.4-0.1-0.6-0.2c-0.1-0.1-0.2-0.3-0.2-0.5s-0.1-0.6-0.1-1v-14.2c-0.4-0.1-0.7-0.3-0.9-0.5
		c-0.2-0.2-0.4-0.4-0.4-0.6v-1.2c0-0.2,0.1-0.4,0.2-0.6c0.2-0.1,0.4-0.2,0.6-0.2h7.5c0.4,0,0.7,0,1,0s0.7,0.1,1,0.2
		c1,0.3,1.9,0.7,2.6,1.2s1.3,1.2,1.7,2s0.8,1.7,1,2.7s0.3,2.1,0.3,3.2c0,1.4-0.1,2.6-0.4,3.8c-0.2,1.2-0.7,2.2-1.3,3.1
		c-0.6,0.9-1.4,1.6-2.4,2.1s-2.2,0.7-3.8,0.7h-5C355.3,414.5,354.9,414.5,354.7,414.5z M357.8,410.8h2.9c0.8,0,1.4-0.2,1.9-0.5
		s0.9-0.7,1.2-1.3c0.3-0.5,0.5-1.2,0.6-1.9s0.2-1.5,0.2-2.4c0-0.6,0-1.3-0.1-1.9c-0.1-0.7-0.3-1.3-0.5-1.8c-0.3-0.5-0.6-1-1.1-1.4
		s-1.1-0.5-1.9-0.5h-3v1.3L357.8,410.8z"/>
	<path class="st2" d="M371.1,414.5c-0.4,0-0.8,0-1-0.1s-0.4-0.1-0.5-0.3c-0.1-0.1-0.2-0.3-0.2-0.6c0-0.2,0-0.6,0-1
		c0-0.3,0-0.6,0-0.8c0-0.2,0.1-0.4,0.2-0.5s0.3-0.2,0.5-0.3c0.2-0.1,0.6-0.1,1-0.1h1.5V399h-1.5c-0.4,0-0.8,0-1-0.1
		s-0.4-0.1-0.5-0.3c-0.1-0.1-0.2-0.3-0.2-0.6c0-0.2,0-0.5,0-0.9c0-0.3,0-0.6,0-0.8c0-0.2,0.1-0.4,0.2-0.5s0.3-0.2,0.5-0.3
		c0.2-0.1,0.6-0.1,1-0.1h7.1c0.4,0,0.7,0,1,0.1c0.2,0,0.4,0.1,0.5,0.3c0.1,0.1,0.2,0.3,0.2,0.5s0,0.5,0,0.8v0.2c0,0.3,0,0.6,0,0.8
		c0,0.2-0.1,0.4-0.2,0.5s-0.3,0.2-0.5,0.2s-0.6,0.1-1,0.1h-1.6v11.8h1.5c0.4,0,0.7,0,1,0.1c0.2,0.1,0.4,0.1,0.5,0.3
		c0.1,0.1,0.2,0.3,0.2,0.5s0,0.5,0,0.8v0.2c0,0.3,0,0.6,0,0.8c0,0.2-0.1,0.4-0.2,0.5s-0.3,0.2-0.5,0.3c-0.2,0-0.6,0.1-1,0.1h-7
		V414.5z"/>
	<path class="st2" d="M384.8,413.4c-0.2,0.4-0.3,0.8-0.6,0.9s-0.5,0.3-0.9,0.3s-0.7-0.1-1-0.2l-0.6-0.2c-0.4-0.2-0.6-0.3-0.8-0.4
		c-0.2-0.1-0.3-0.2-0.3-0.5s0.1-0.6,0.3-1.1l5.3-15.3c0.1-0.2,0.2-0.5,0.3-0.7c0.1-0.3,0.3-0.5,0.6-0.6c0.2-0.1,0.4-0.1,0.6-0.2
		s0.4,0,0.6,0h1.4c0.2,0,0.4,0,0.6,0s0.4,0.1,0.6,0.1c0.2,0.1,0.4,0.2,0.5,0.4s0.2,0.4,0.3,0.6c0,0.1,0,0.1,0.1,0.2
		c0,0.1,0.1,0.1,0.1,0.2l5.2,14.7h0.8c0.2,0,0.4,0.1,0.6,0.2c0.2,0.2,0.2,0.4,0.2,0.6v1c0,0.2-0.1,0.3-0.2,0.5s-0.2,0.3-0.4,0.3
		c-0.1,0.1-0.4,0.1-0.8,0.2s-1,0.1-1.6,0.1c-0.5,0-0.9-0.2-1.3-0.4c-0.4-0.2-0.6-0.4-0.7-0.7l-2-4.9h-5.2L384.8,413.4z M387.7,404.9
		h2.8c0-0.1,0-0.1-0.1-0.2c0-0.1,0-0.1-0.1-0.2c-0.1-0.2-0.1-0.4-0.2-0.6s-0.1-0.4-0.2-0.6c-0.1-0.3-0.2-0.6-0.3-1
		c-0.1-0.4-0.3-1-0.6-1.8L387.7,404.9z"/>
	<path class="st2" d="M417.3,405.6c-0.1,0.1-0.1,0.2-0.2,0.3c-0.1,0.2-0.1,0.4-0.1,0.6s0,0.4,0,0.6v5.8c0,0.4,0,0.7-0.1,1
		c-0.1,0.2-0.2,0.4-0.3,0.5s-0.3,0.2-0.6,0.2s-0.6,0-0.9,0c-0.4,0-0.7,0-1,0s-0.5-0.1-0.6-0.2c-0.2-0.1-0.3-0.2-0.3-0.4
		c-0.1-0.2-0.1-0.5-0.1-0.9l-0.1-5.9c0-0.2,0-0.4,0-0.6s0-0.4-0.1-0.6l-0.1-0.2l-0.1-0.2c-0.3-0.4-0.5-0.9-0.8-1.4s-0.6-1-1-1.4
		l-0.4-0.6c-0.3-0.4-0.6-0.9-1-1.5c-0.3-0.5-0.7-1.1-1-1.7h-1.1c-0.2,0-0.4-0.1-0.6-0.2c-0.2-0.2-0.2-0.4-0.2-0.6V397
		c0-0.2,0-0.3,0.1-0.4s0.1-0.1,0.1-0.2c0.2-0.2,0.4-0.4,0.7-0.5c0.2-0.1,0.5-0.3,0.9-0.4s0.8-0.2,1.2-0.2c0.3,0,0.7,0.1,1,0.3
		c0.3,0.2,0.6,0.5,0.9,0.9c0.2,0.3,0.4,0.6,0.7,1.1s0.6,0.9,1,1.5c0.3,0.5,0.7,1,1,1.5s0.6,0.9,0.8,1.3l3.5-5.5
		c0.2-0.4,0.4-0.6,0.6-0.8c0.2-0.2,0.4-0.3,0.6-0.3s0.5,0.1,0.7,0.2s0.5,0.2,0.7,0.4c0.4,0.2,0.7,0.4,0.9,0.5
		c0.2,0.1,0.3,0.3,0.3,0.6c0,0.2-0.2,0.6-0.5,1.1L417.3,405.6z"/>
	<path class="st2" d="M438.3,411c1.6,0,3-0.2,4-0.5l0.7-0.2c0.2-0.1,0.3-0.1,0.5-0.1s0.3-0.1,0.4-0.1c0.3,0,0.5,0.1,0.7,0.3
		s0.4,0.6,0.6,1.1c0.1,0.2,0.1,0.4,0.2,0.5c0,0.2,0.1,0.3,0.1,0.5c0,0.3-0.1,0.6-0.2,0.8c-0.1,0.2-0.3,0.4-0.6,0.5
		c-0.3,0.1-0.6,0.3-1,0.4s-1,0.2-1.6,0.3c-0.5,0.1-1,0.2-1.5,0.2s-0.9,0-1.3,0.1c-1.4,0.1-2.7-0.2-3.7-0.6c-1-0.5-1.9-1.2-2.5-2.1
		s-1.1-1.9-1.4-3c-0.4-1.1-0.5-2.5-0.5-3.9c0-2.1,0.5-4,1.3-5.6s2.1-2.7,3.7-3.5c1.1-0.5,2.4-0.8,3.6-0.7c1.3,0.1,2.6,0.3,3.9,0.7
		c0.1,0,0.1,0,0.2,0.1c0.1,0,0.1,0,0.2,0.1c0.5,0.2,0.8,0.3,1.1,0.5c0.2,0.1,0.3,0.4,0.3,0.7c0,0.3-0.1,0.7-0.3,1.2
		c-0.3,0.6-0.5,1-0.6,1.2c-0.2,0.2-0.4,0.3-0.6,0.3s-0.3,0-0.4-0.1c-0.1,0-0.3-0.1-0.5-0.1l-0.6-0.2c-0.6-0.1-1.1-0.3-1.5-0.4
		s-0.8-0.2-1.2-0.2c-0.5-0.1-1.1,0.1-1.7,0.4s-1.1,0.7-1.5,1.4s-0.7,1.3-0.9,2c-0.2,0.8-0.3,1.8-0.3,3.2c0,1.4,0.3,2.6,0.9,3.6
		c0.3,0.4,0.6,0.8,0.9,1S437.9,411,438.3,411z"/>
	<path class="st2" d="M450.5,413.4c-0.2,0.4-0.3,0.8-0.6,0.9s-0.5,0.3-0.9,0.3s-0.7-0.1-1-0.2l-0.6-0.2c-0.4-0.2-0.6-0.3-0.8-0.4
		c-0.2-0.1-0.3-0.2-0.3-0.5s0.1-0.6,0.3-1.1L452,397c0.1-0.2,0.2-0.5,0.3-0.7c0.1-0.3,0.3-0.5,0.6-0.6c0.2-0.1,0.4-0.1,0.6-0.2
		s0.4,0,0.6,0h1.4c0.2,0,0.4,0,0.6,0s0.4,0.1,0.6,0.1c0.2,0.1,0.4,0.2,0.5,0.4s0.2,0.4,0.3,0.6c0,0.1,0,0.1,0.1,0.2
		c0,0.1,0.1,0.1,0.1,0.2l5.2,14.7h0.8c0.2,0,0.4,0.1,0.6,0.2c0.2,0.2,0.2,0.4,0.2,0.6v1c0,0.2-0.1,0.3-0.2,0.5s-0.3,0.3-0.4,0.3
		c-0.1,0.1-0.4,0.1-0.8,0.2c-0.5,0.1-1,0.1-1.6,0.1c-0.5,0-0.9-0.2-1.3-0.4c-0.4-0.2-0.6-0.4-0.7-0.7l-2-4.9h-5.2L450.5,413.4z
		 M453.3,404.9h2.8c0-0.1,0-0.1-0.1-0.2c0-0.1,0-0.1-0.1-0.2c-0.1-0.2-0.1-0.4-0.2-0.6s-0.1-0.4-0.2-0.6c-0.1-0.3-0.2-0.6-0.3-1
		c-0.1-0.4-0.3-1-0.6-1.8L453.3,404.9z"/>
	<path class="st2" d="M466.8,414.4c-0.3,0-0.5-0.1-0.7-0.3c-0.1-0.1-0.2-0.3-0.3-0.6s-0.1-0.6-0.1-1.1v-15.3c0-0.4,0-0.7,0.1-1
		c0.1-0.2,0.2-0.4,0.3-0.5c0.2-0.1,0.4-0.2,0.6-0.2c0.3,0,0.6,0,1,0c0.5,0,0.8,0,1.1,0c0.3,0,0.5,0.1,0.6,0.2s0.2,0.3,0.3,0.5
		c0,0.2,0.1,0.6,0.1,1v13.6h6.8c0.4,0,0.7,0,1,0.1c0.2,0.1,0.4,0.2,0.5,0.3c0.1,0.1,0.2,0.3,0.2,0.5s0,0.5,0,0.8c0,0.4,0,0.7,0,0.9
		c0,0.3-0.1,0.5-0.2,0.6s-0.3,0.3-0.5,0.3c-0.2,0.1-0.6,0.1-1,0.1H468C467.4,414.5,467,414.5,466.8,414.4z"/>
	<path class="st2" d="M481.3,414.5c-0.4,0-0.8,0-1-0.1s-0.4-0.1-0.5-0.3c-0.1-0.1-0.2-0.3-0.2-0.6c0-0.2,0-0.6,0-1
		c0-0.3,0-0.6,0-0.8c0-0.2,0.1-0.4,0.2-0.5s0.3-0.2,0.5-0.3c0.2-0.1,0.6-0.1,1-0.1h1.5V399h-1.5c-0.4,0-0.8,0-1-0.1
		s-0.4-0.1-0.5-0.3c-0.1-0.1-0.2-0.3-0.2-0.6c0-0.2,0-0.5,0-0.9c0-0.3,0-0.6,0-0.8c0-0.2,0.1-0.4,0.2-0.5s0.3-0.2,0.5-0.3
		c0.2-0.1,0.6-0.1,1-0.1h7.1c0.4,0,0.7,0,1,0.1c0.2,0,0.4,0.1,0.5,0.3c0.1,0.1,0.2,0.3,0.2,0.5s0,0.5,0,0.8v0.2c0,0.3,0,0.6,0,0.8
		c0,0.2-0.1,0.4-0.2,0.5s-0.3,0.2-0.5,0.2s-0.6,0.1-1,0.1h-1.6v11.8h1.5c0.4,0,0.7,0,1,0.1c0.2,0.1,0.4,0.1,0.5,0.3
		c0.1,0.1,0.2,0.3,0.2,0.5s0,0.5,0,0.8v0.2c0,0.3,0,0.6,0,0.8c0,0.2-0.1,0.4-0.2,0.5s-0.3,0.2-0.5,0.3c-0.2,0-0.6,0.1-1,0.1h-7
		V414.5z"/>
	<path class="st2" d="M493.3,414.5c-0.3,0-0.4-0.1-0.6-0.2s-0.2-0.3-0.2-0.5s-0.1-0.6-0.1-1v-14.2c-0.4-0.1-0.7-0.3-0.9-0.5
		c-0.2-0.2-0.4-0.4-0.4-0.6v-1.2c0-0.2,0.1-0.4,0.2-0.6c0.2-0.1,0.4-0.2,0.6-0.2h7.5c0.4,0,0.7,0,1,0s0.7,0.1,1,0.2
		c1,0.3,1.9,0.7,2.6,1.2c0.7,0.6,1.3,1.2,1.7,2c0.4,0.8,0.8,1.7,1,2.7s0.3,2.1,0.3,3.2c0,1.4-0.1,2.6-0.4,3.8
		c-0.2,1.2-0.7,2.2-1.3,3.1c-0.6,0.9-1.4,1.6-2.4,2.1s-2.2,0.7-3.8,0.7h-5C493.9,414.5,493.6,414.5,493.3,414.5z M496.4,410.8h2.9
		c0.8,0,1.4-0.2,1.9-0.5s0.9-0.7,1.2-1.3s0.5-1.2,0.6-1.9s0.2-1.5,0.2-2.4c0-0.6,0-1.3-0.1-1.9c-0.1-0.7-0.3-1.3-0.5-1.8
		c-0.3-0.5-0.6-1-1.1-1.4s-1.1-0.5-1.9-0.5h-3v1.3L496.4,410.8z"/>
	<path class="st2" d="M511.5,413.4c-0.2,0.4-0.3,0.8-0.6,0.9s-0.5,0.3-0.9,0.3s-0.7-0.1-1-0.2l-0.6-0.2c-0.4-0.2-0.6-0.3-0.8-0.4
		c-0.2-0.1-0.3-0.2-0.3-0.5s0.1-0.6,0.3-1.1L513,397c0.1-0.2,0.2-0.5,0.3-0.7c0.1-0.3,0.3-0.5,0.6-0.6c0.2-0.1,0.4-0.1,0.6-0.2
		s0.4,0,0.6,0h1.4c0.2,0,0.4,0,0.6,0c0.2,0,0.4,0.1,0.6,0.1c0.2,0.1,0.4,0.2,0.5,0.4c0.1,0.2,0.2,0.4,0.3,0.6c0,0.1,0,0.1,0.1,0.2
		c0,0.1,0.1,0.1,0.1,0.2l5.2,14.7h0.8c0.2,0,0.4,0.1,0.6,0.2c0.2,0.2,0.2,0.4,0.2,0.6v1c0,0.2-0.1,0.3-0.2,0.5
		c-0.1,0.2-0.3,0.3-0.4,0.3c-0.1,0.1-0.4,0.1-0.8,0.2c-0.5,0.1-1,0.1-1.6,0.1c-0.5,0-0.9-0.2-1.3-0.4c-0.4-0.2-0.6-0.4-0.7-0.7
		l-2-4.9h-5.2L511.5,413.4z M514.3,404.9h2.8c0-0.1,0-0.1,0-0.2s0-0.1-0.1-0.2c-0.1-0.2-0.1-0.4-0.2-0.6c-0.1-0.2-0.1-0.4-0.2-0.6
		c-0.1-0.3-0.2-0.6-0.3-1s-0.3-1-0.6-1.8L514.3,404.9z"/>
	<path class="st2" d="M527.4,414.5c-0.3,0-0.4-0.1-0.6-0.2s-0.2-0.3-0.2-0.5s-0.1-0.6-0.1-1v-14.2c-0.4-0.1-0.7-0.3-0.9-0.5
		s-0.4-0.4-0.4-0.6v-1.2c0-0.2,0.1-0.4,0.2-0.6c0.2-0.1,0.4-0.2,0.6-0.2h7.5c0.4,0,0.7,0,1,0s0.7,0.1,1,0.2c1,0.3,1.9,0.7,2.6,1.2
		c0.7,0.6,1.3,1.2,1.7,2s0.8,1.7,1,2.7s0.3,2.1,0.3,3.2c0,1.4-0.1,2.6-0.4,3.8c-0.2,1.2-0.7,2.2-1.3,3.1s-1.4,1.6-2.4,2.1
		s-2.2,0.7-3.8,0.7h-5C528,414.5,527.7,414.5,527.4,414.5z M530.5,410.8h2.9c0.8,0,1.4-0.2,1.9-0.5s0.9-0.7,1.2-1.3s0.5-1.2,0.6-1.9
		s0.2-1.5,0.2-2.4c0-0.6,0-1.3-0.1-1.9c-0.1-0.7-0.3-1.3-0.5-1.8c-0.3-0.5-0.6-1-1.1-1.4s-1.1-0.5-1.9-0.5h-3v1.3L530.5,410.8z"/>
</g>
<g>
	<path class="st3" d="M257.1,444.3c1.6,0,3-0.2,4-0.5l0.7-0.2c0.2-0.1,0.3-0.1,0.5-0.1s0.3-0.1,0.4-0.1c0.3,0,0.5,0.1,0.7,0.3
		s0.4,0.6,0.6,1.1c0.1,0.2,0.1,0.4,0.2,0.5c0,0.2,0.1,0.3,0.1,0.5c0,0.3-0.1,0.6-0.2,0.8c-0.1,0.2-0.3,0.4-0.6,0.5
		c-0.3,0.1-0.6,0.3-1,0.4s-1,0.2-1.6,0.3c-0.5,0.1-1,0.2-1.5,0.2s-0.9,0-1.3,0.1c-1.4,0.1-2.7-0.2-3.7-0.6c-1-0.5-1.9-1.2-2.5-2.1
		s-1.1-1.9-1.4-3c-0.4-1.1-0.5-2.5-0.5-3.9c0-2.1,0.5-4,1.3-5.6s2.1-2.7,3.7-3.5c1.1-0.5,2.4-0.8,3.6-0.7c1.3,0.1,2.6,0.3,3.9,0.7
		c0.1,0,0.1,0,0.2,0.1c0.1,0,0.1,0,0.2,0.1c0.5,0.2,0.8,0.3,1.1,0.5c0.2,0.1,0.3,0.4,0.3,0.7c0,0.3-0.1,0.7-0.3,1.2
		c-0.3,0.6-0.5,1-0.6,1.2c-0.2,0.2-0.4,0.3-0.6,0.3s-0.3,0-0.4-0.1c-0.1,0-0.3-0.1-0.5-0.1l-0.6-0.2c-0.6-0.1-1.1-0.3-1.5-0.4
		s-0.8-0.2-1.2-0.2c-0.5-0.1-1.1,0.1-1.7,0.4s-1.1,0.7-1.5,1.4s-0.7,1.3-0.9,2c-0.2,0.8-0.3,1.8-0.3,3.2c0,1.4,0.3,2.6,0.9,3.6
		c0.3,0.4,0.6,0.8,0.9,1C256.1,444.1,256.6,444.3,257.1,444.3z"/>
	<path class="st3" d="M279.8,438.7c-0.4,0.8-1.1,1.4-2.1,1.8c0.1,0.2,0.2,0.4,0.3,0.6c0.1,0.2,0.2,0.4,0.3,0.6
		c0.3,0.7,0.5,1.4,0.8,2c0.2,0.6,0.4,1,0.6,1.3h0.9c0.2,0,0.4,0.1,0.6,0.2c0.2,0.2,0.2,0.4,0.2,0.6l-0.1,1c0,0.1-0.1,0.3-0.3,0.5
		c-0.2,0.2-0.3,0.3-0.5,0.4c-0.1,0-0.3,0.1-0.7,0.2c-0.4,0.1-0.9,0.1-1.5,0.1c-0.4,0-0.8-0.2-1.3-0.4c-0.4-0.2-0.7-0.4-0.8-0.7l0,0
		c-0.1-0.1-0.2-0.4-0.4-0.8c-0.2-0.4-0.4-0.9-0.6-1.4s-0.5-1.1-0.8-1.8c-0.3-0.6-0.6-1.3-0.8-1.9c-0.7,0-1.3-0.1-1.7-0.1
		c-0.4,0-0.7,0-0.9-0.1c0,0,0,0,0-0.1c0,0.1-0.1,0.1-0.1,0.1v5.3c0,0.4,0,0.7-0.1,1c0,0.2-0.1,0.4-0.2,0.5s-0.3,0.2-0.5,0.2
		s-0.5,0-0.9,0h-0.3c-0.4,0-0.7,0-1,0s-0.5-0.1-0.6-0.2c-0.2-0.1-0.3-0.3-0.3-0.5c-0.1-0.2-0.1-0.5-0.1-1V432
		c-0.4-0.1-0.6-0.3-0.9-0.5s-0.4-0.4-0.4-0.6v-1.2c0-0.2,0.1-0.4,0.2-0.6c0.2-0.1,0.4-0.2,0.6-0.2h8c2.1,0,3.6,0.5,4.6,1.4
		s1.5,2.3,1.5,4.1v1.3C280.5,436.9,280.3,437.9,279.8,438.7z M274.1,437.2c1.5,0,2.3-0.6,2.3-1.9v-0.8c0-1.3-0.8-2-2.3-2h-3.3v4.5
		c0.6,0.1,1.3,0.2,2,0.2L274.1,437.2L274.1,437.2z"/>
	<path class="st3" d="M286.3,447.4c-0.8-0.3-1.5-0.7-2-1.2s-0.9-1.1-1.1-1.7s-0.3-1.4-0.3-2.1V432c-0.4-0.1-0.7-0.3-0.9-0.5
		c-0.2-0.2-0.4-0.4-0.4-0.6v-1.2c0-0.2,0.1-0.4,0.2-0.6c0.2-0.1,0.3-0.2,0.6-0.2h11.5c0.4,0,0.7,0,1,0.1c0.2,0,0.4,0.1,0.5,0.3
		c0.1,0.1,0.2,0.3,0.2,0.5s0,0.5,0,0.9v0.2c0,0.3,0,0.6,0,0.8c0,0.2-0.1,0.4-0.2,0.6c-0.1,0.1-0.3,0.3-0.5,0.3
		c-0.2,0.1-0.6,0.1-1,0.1H287v3.7h5.6c0.4,0,0.7,0,1,0.1s0.4,0.2,0.5,0.3s0.2,0.3,0.2,0.6c0,0.2,0,0.5,0,0.8v0.2c0,0.3,0,0.6,0,0.8
		c0,0.2-0.1,0.4-0.2,0.5s-0.3,0.2-0.5,0.3c-0.2,0.1-0.6,0.1-1,0.1H287v2.4c0,0.4,0.1,0.6,0.2,0.8c0.2,0.2,0.4,0.4,0.7,0.5
		s0.6,0.2,1,0.3s0.8,0.1,1.2,0.1h3.8c0.4,0,0.7,0,1,0.1c0.2,0.1,0.4,0.2,0.5,0.3c0.1,0.1,0.2,0.3,0.2,0.5s0,0.5,0,0.8v0.2
		c0,0.3,0,0.6,0,0.8c0,0.2-0.1,0.4-0.2,0.6c-0.1,0.1-0.3,0.2-0.5,0.3c-0.2,0.1-0.6,0.1-1,0.1h-4.4
		C288.2,447.8,287.2,447.7,286.3,447.4z"/>
	<path class="st3" d="M300.7,446.7c-0.2,0.4-0.3,0.8-0.6,0.9s-0.5,0.3-0.9,0.3s-0.7-0.1-1-0.2l-0.6-0.2c-0.4-0.2-0.6-0.3-0.8-0.4
		c-0.2-0.1-0.3-0.2-0.3-0.5s0.1-0.6,0.3-1.1l5.3-15.3c0.1-0.2,0.2-0.5,0.3-0.7c0.1-0.3,0.3-0.5,0.6-0.6c0.2-0.1,0.4-0.1,0.6-0.2
		s0.4,0,0.6,0h1.4c0.2,0,0.4,0,0.6,0s0.4,0.1,0.6,0.1c0.2,0.1,0.4,0.2,0.5,0.4s0.2,0.4,0.3,0.6c0,0.1,0,0.1,0.1,0.2
		c0,0.1,0.1,0.1,0.1,0.2l5.2,14.7h0.8c0.2,0,0.4,0.1,0.6,0.2c0.2,0.2,0.2,0.4,0.2,0.6v1c0,0.2-0.1,0.3-0.2,0.5s-0.2,0.3-0.4,0.3
		c-0.1,0.1-0.4,0.1-0.8,0.2s-1,0.1-1.6,0.1c-0.5,0-0.9-0.2-1.3-0.4c-0.4-0.2-0.6-0.4-0.7-0.7l-2-4.9h-5.2L300.7,446.7z M303.6,438.2
		h2.8c0-0.1,0-0.1-0.1-0.2c0-0.1,0-0.1-0.1-0.2c-0.1-0.2-0.1-0.4-0.2-0.6s-0.1-0.4-0.2-0.6c-0.1-0.3-0.2-0.6-0.3-1
		c-0.1-0.4-0.3-1-0.6-1.8L303.6,438.2z"/>
	<path class="st3" d="M330.8,446.2c0,0.4,0,0.7-0.1,0.9c-0.1,0.2-0.1,0.4-0.3,0.5c-0.1,0.1-0.3,0.2-0.5,0.2s-0.5,0-0.9,0h-0.3
		c-0.2,0-0.4,0-0.5,0c-0.2,0-0.3-0.1-0.5-0.1c-0.2-0.1-0.4-0.2-0.6-0.4c-0.2-0.2-0.4-0.5-0.7-0.8c-0.2-0.2-0.5-0.6-0.9-1.3
		s-0.9-1.4-1.5-2.2c-0.6-0.9-1.2-1.8-1.9-2.8c-0.7-1-1.3-2-2-3v9c0,0.4,0,0.7-0.1,1c0,0.2-0.1,0.4-0.2,0.5s-0.3,0.2-0.5,0.2
		s-0.5,0-1,0H318c-0.4,0-0.7,0-1,0s-0.5-0.1-0.6-0.2s-0.2-0.3-0.3-0.5c-0.1-0.2-0.1-0.5-0.1-1v-14h-0.6c-0.2,0-0.4-0.1-0.6-0.2
		c-0.2-0.2-0.2-0.4-0.2-0.6v-1.1c0-0.1,0-0.2,0.1-0.4s0.1-0.2,0.1-0.3c0.2-0.2,0.4-0.3,0.7-0.5c0.2-0.1,0.5-0.3,0.9-0.4
		s0.8-0.2,1.2-0.2c0.4,0,0.8,0.1,1.1,0.3c0.3,0.2,0.6,0.4,0.8,0.6l7,10.6v-9.6c0-0.4,0-0.7,0.1-1c0.1-0.2,0.2-0.4,0.3-0.5
		c0.1-0.1,0.3-0.2,0.6-0.2c0.3,0,0.6,0,1,0c0.5,0,0.8,0,1.1,0s0.5,0.1,0.6,0.2s0.2,0.3,0.3,0.5c0,0.2,0.1,0.6,0.1,1v15.8H330.8z"/>
	<path class="st3" d="M335.1,447.8c-0.3,0-0.4-0.1-0.6-0.2c-0.1-0.1-0.2-0.3-0.2-0.5s-0.1-0.6-0.1-1V432c-0.4-0.1-0.7-0.3-0.9-0.5
		c-0.2-0.2-0.4-0.4-0.4-0.6v-1.2c0-0.2,0.1-0.4,0.2-0.6c0.2-0.1,0.4-0.2,0.6-0.2h7.5c0.4,0,0.7,0,1,0s0.7,0.1,1,0.2
		c1,0.3,1.9,0.7,2.6,1.2s1.3,1.2,1.7,2s0.8,1.7,1,2.7s0.3,2.1,0.3,3.2c0,1.4-0.1,2.6-0.4,3.8c-0.2,1.2-0.7,2.2-1.3,3.1
		c-0.6,0.9-1.4,1.6-2.4,2.1s-2.2,0.7-3.8,0.7h-5C335.7,447.8,335.3,447.8,335.1,447.8z M338.2,444.1h2.9c0.8,0,1.4-0.2,1.9-0.5
		s0.9-0.7,1.2-1.3c0.3-0.5,0.5-1.2,0.6-1.9s0.2-1.5,0.2-2.4c0-0.6,0-1.3-0.1-1.9c-0.1-0.7-0.3-1.3-0.5-1.8c-0.3-0.5-0.6-1-1.1-1.4
		s-1.1-0.5-1.9-0.5h-3v1.3L338.2,444.1z"/>
	<path class="st3" d="M358.7,428.7c0.2,0,0.3,0,0.5,0s0.3,0,0.4,0c1.4,0,2.6,0.2,3.7,0.7c1,0.4,1.9,1.1,2.6,1.8
		c0.7,0.8,1.3,1.7,1.6,2.8c0.4,1.1,0.6,2.3,0.6,3.6c0.1,1.4-0.1,2.7-0.4,3.9c-0.3,1.2-0.8,2.2-1.5,3.1s-1.5,1.6-2.5,2.2
		s-2.1,1-3.4,1.1c-0.1,0-0.3,0-0.4,0s-0.3,0-0.4,0c-1.4,0-2.6-0.2-3.6-0.7c-1-0.4-1.9-1.1-2.6-1.9s-1.3-1.7-1.6-2.8
		c-0.4-1.1-0.7-2.3-0.8-3.5c0-0.1,0-0.3,0-0.5s0-0.3,0-0.5c0-1.9,0.4-3.7,1.1-5.1c0.7-1.5,1.8-2.6,3.2-3.3c0.5-0.3,1.1-0.5,1.7-0.7
		C357.3,428.8,358,428.7,358.7,428.7z M359,432.6c-0.7,0.1-1.3,0.3-1.9,0.6c-0.7,0.4-1.3,1.1-1.6,2s-0.6,1.9-0.6,3v0.5
		c0.1,0.8,0.2,1.5,0.4,2.1c0.2,0.6,0.5,1.2,0.9,1.7s0.8,0.8,1.4,1.1c0.5,0.3,1.2,0.4,1.9,0.4c0.7,0,1.4-0.2,2-0.5s1.1-0.8,1.5-1.3
		c0.4-0.6,0.7-1.2,0.9-2c0.2-0.7,0.3-1.5,0.3-2.4c0-0.8-0.1-1.5-0.3-2.1s-0.5-1.2-0.8-1.7c-0.4-0.5-0.8-0.8-1.4-1.1
		c-0.5-0.3-1.2-0.4-1.9-0.4c-0.1,0-0.1,0-0.2,0S359.1,432.6,359,432.6z"/>
	<path class="st3" d="M378.2,447.7c-0.2-0.1-0.4-0.2-0.5-0.4c-0.1-0.2-0.2-0.4-0.2-0.6s0-0.5,0-0.9v-0.2c0-0.2,0-0.4,0-0.5
		s0.1-0.2,0.2-0.4l8-12.1h-6c-0.4,0-0.8,0-1-0.1s-0.4-0.2-0.5-0.3c-0.1-0.1-0.2-0.3-0.2-0.6c0-0.2,0-0.6,0-1v-0.3c0-0.4,0-0.7,0-0.9
		c0-0.2,0.1-0.4,0.2-0.5s0.3-0.2,0.5-0.2s0.6,0,1,0h9.7c0.4,0,0.7,0.1,1,0.2c0.2,0.1,0.4,0.2,0.5,0.4c0.1,0.2,0.2,0.4,0.2,0.7
		c0,0.3,0,0.6,0,0.9v0.1c0,0.2,0,0.4,0,0.5s-0.1,0.3-0.2,0.5l-8,11.9h6.5c0.4,0,0.7,0,1,0.1c0.2,0.1,0.4,0.1,0.5,0.3
		s0.2,0.3,0.2,0.6c0,0.2,0,0.5,0,0.9v0.3c0,0.4,0,0.8,0,1s-0.1,0.4-0.2,0.5s-0.3,0.2-0.5,0.2s-0.6,0-1,0h-10.3
		C378.7,447.8,378.4,447.8,378.2,447.7z"/>
	<path class="st3" d="M396.4,446.7c-0.2,0.4-0.3,0.8-0.6,0.9s-0.5,0.3-0.9,0.3s-0.7-0.1-1-0.2l-0.6-0.2c-0.4-0.2-0.6-0.3-0.8-0.4
		c-0.2-0.1-0.3-0.2-0.3-0.5s0.1-0.6,0.3-1.1l5.3-15.3c0.1-0.2,0.2-0.5,0.3-0.7c0.1-0.3,0.3-0.5,0.6-0.6c0.2-0.1,0.4-0.1,0.6-0.2
		s0.4,0,0.6,0h1.4c0.2,0,0.4,0,0.6,0s0.4,0.1,0.6,0.1c0.2,0.1,0.4,0.2,0.5,0.4s0.2,0.4,0.3,0.6c0,0.1,0,0.1,0.1,0.2
		c0,0.1,0.1,0.1,0.1,0.2l5.2,14.7h0.8c0.2,0,0.4,0.1,0.6,0.2c0.2,0.2,0.2,0.4,0.2,0.6v1c0,0.2-0.1,0.3-0.2,0.5s-0.2,0.3-0.4,0.3
		c-0.1,0.1-0.4,0.1-0.8,0.2s-1,0.1-1.6,0.1c-0.5,0-0.9-0.2-1.3-0.4c-0.4-0.2-0.6-0.4-0.7-0.7l-2-4.9h-5.2L396.4,446.7z M399.2,438.2
		h2.8c0-0.1,0-0.1-0.1-0.2c0-0.1,0-0.1-0.1-0.2c-0.1-0.2-0.1-0.4-0.2-0.6s-0.1-0.4-0.2-0.6c-0.1-0.3-0.2-0.6-0.3-1
		c-0.1-0.4-0.3-1-0.6-1.8L399.2,438.2z"/>
	<path class="st3" d="M419.3,441h-0.5c-0.8,0-1.4,0-1.9,0s-0.8-0.1-1-0.1h-0.1l0,0l-0.1,0.1v5.3c0,0.4,0,0.7-0.1,1
		c0,0.2-0.1,0.4-0.3,0.5c-0.1,0.1-0.3,0.2-0.5,0.2s-0.6,0-1,0h-0.3c-0.4,0-0.7,0-1,0c-0.2,0-0.4-0.1-0.6-0.2
		c-0.1-0.1-0.2-0.3-0.3-0.5c-0.1-0.2-0.1-0.5-0.1-1V432c-0.4-0.1-0.6-0.3-0.9-0.5c-0.2-0.2-0.4-0.4-0.4-0.6v-1.2
		c0-0.2,0.1-0.4,0.2-0.6c0.2-0.1,0.3-0.2,0.6-0.2h8c2.1,0,3.7,0.5,4.7,1.4s1.5,2.3,1.5,4.1v1.3C425.5,439.2,423.5,441,419.3,441z
		 M419.2,437.2c1.5,0,2.3-0.6,2.3-1.9v-0.8c0-1.3-0.8-2-2.3-2h-3.3v4.5c0.6,0.1,1.3,0.2,2,0.2L419.2,437.2L419.2,437.2z"/>
	<path class="st3" d="M428.5,446.7c-0.2,0.4-0.3,0.8-0.6,0.9s-0.5,0.3-0.9,0.3s-0.7-0.1-1-0.2l-0.6-0.2c-0.4-0.2-0.6-0.3-0.8-0.4
		c-0.2-0.1-0.3-0.2-0.3-0.5s0.1-0.6,0.3-1.1l5.3-15.3c0.1-0.2,0.2-0.5,0.3-0.7c0.1-0.3,0.3-0.5,0.6-0.6c0.2-0.1,0.4-0.1,0.6-0.2
		s0.4,0,0.6,0h1.4c0.2,0,0.4,0,0.6,0s0.4,0.1,0.6,0.1c0.2,0.1,0.4,0.2,0.5,0.4s0.2,0.4,0.3,0.6c0,0.1,0,0.1,0.1,0.2
		c0,0.1,0.1,0.1,0.1,0.2l5.2,14.7h0.8c0.2,0,0.4,0.1,0.6,0.2c0.2,0.2,0.2,0.4,0.2,0.6v1c0,0.2-0.1,0.3-0.2,0.5s-0.2,0.3-0.4,0.3
		c-0.1,0.1-0.4,0.1-0.8,0.2s-1,0.1-1.6,0.1c-0.5,0-0.9-0.2-1.3-0.4c-0.4-0.2-0.6-0.4-0.7-0.7l-2-4.9h-5.2L428.5,446.7z M431.4,438.2
		h2.8c0-0.1,0-0.1-0.1-0.2c0-0.1,0-0.1-0.1-0.2c-0.1-0.2-0.1-0.4-0.2-0.6s-0.1-0.4-0.2-0.6c-0.1-0.3-0.2-0.6-0.3-1
		c-0.1-0.4-0.3-1-0.6-1.8L431.4,438.2z"/>
	<path class="st3" d="M442,432.4c-0.4,0-0.7,0-1-0.1s-0.4-0.1-0.5-0.2s-0.2-0.3-0.2-0.5s0-0.5,0-0.8v-0.2c0-0.3,0-0.6,0-0.8
		c0-0.2,0.1-0.4,0.2-0.5s0.3-0.2,0.5-0.3c0.2-0.1,0.6-0.1,1-0.1h11.3c0.4,0,0.7,0,1,0.1c0.2,0,0.4,0.1,0.5,0.3
		c0.1,0.1,0.2,0.3,0.2,0.5s0,0.5,0,0.8v0.2c0,0.4,0,0.6,0,0.8c0,0.2-0.1,0.4-0.2,0.5s-0.3,0.2-0.5,0.3c-0.2,0-0.6,0.1-1,0.1h-3.8
		v13.7c0,0.4,0,0.7-0.1,1c0,0.2-0.1,0.4-0.2,0.5s-0.3,0.2-0.5,0.2s-0.5,0-0.9,0h-0.3c-0.4,0-0.7,0-1,0s-0.5-0.1-0.6-0.2
		c-0.2-0.1-0.3-0.3-0.3-0.5c-0.1-0.2-0.1-0.5-0.1-1v-13.7L442,432.4L442,432.4z"/>
	<path class="st3" d="M462.7,428.7c0.2,0,0.3,0,0.5,0s0.3,0,0.4,0c1.4,0,2.6,0.2,3.6,0.7s1.9,1.1,2.6,1.8c0.7,0.8,1.3,1.7,1.6,2.8
		s0.6,2.3,0.6,3.6c0.1,1.4-0.1,2.7-0.4,3.9c-0.3,1.2-0.8,2.2-1.5,3.1s-1.5,1.6-2.5,2.2s-2.1,1-3.4,1.1c-0.1,0-0.3,0-0.4,0
		c-0.2,0-0.3,0-0.4,0c-1.4,0-2.6-0.2-3.6-0.7c-1-0.4-1.9-1.1-2.6-1.9s-1.3-1.7-1.6-2.8c-0.4-1.1-0.7-2.3-0.8-3.5c0-0.1,0-0.3,0-0.5
		s0-0.3,0-0.5c0-1.9,0.4-3.7,1.1-5.1c0.7-1.5,1.8-2.6,3.2-3.3c0.5-0.3,1.1-0.5,1.7-0.7C461.3,428.8,462,428.7,462.7,428.7z
		 M463,432.6c-0.7,0.1-1.3,0.3-1.9,0.6c-0.7,0.4-1.3,1.1-1.6,2s-0.6,1.9-0.6,3v0.5c0.1,0.8,0.2,1.5,0.4,2.1c0.2,0.6,0.5,1.2,0.9,1.7
		s0.8,0.8,1.4,1.1c0.5,0.3,1.2,0.4,1.9,0.4c0.7,0,1.4-0.2,2-0.5s1.1-0.8,1.5-1.3c0.4-0.6,0.7-1.2,0.9-2c0.2-0.7,0.3-1.5,0.3-2.4
		c0-0.8-0.1-1.5-0.3-2.1c-0.2-0.7-0.5-1.2-0.8-1.7c-0.4-0.5-0.8-0.8-1.4-1.1c-0.5-0.3-1.2-0.4-1.9-0.4c-0.1,0-0.1,0-0.2,0
		C463.2,432.6,463.1,432.6,463,432.6z"/>
	<path class="st3" d="M480.2,432.4c-0.4,0-0.7,0-1,0s-0.5,0-0.7,0.1s-0.4,0.3-0.5,0.5s-0.3,0.5-0.4,0.9c-0.1,0.3-0.1,0.6,0,0.8
		s0.2,0.4,0.4,0.6c0.2,0.2,0.5,0.3,0.9,0.4s0.8,0.2,1.4,0.3c0.8,0.2,1.5,0.3,2.1,0.4s1.2,0.3,1.7,0.4c0.5,0.2,0.9,0.4,1.3,0.7
		s0.7,0.7,1.1,1.3c0.2,0.4,0.4,0.8,0.4,1.3s0.1,1.1,0.1,1.6c0,1.2-0.2,2.1-0.4,2.8c-0.2,0.9-0.7,1.5-1.4,2s-1.5,0.8-2.4,1.1
		c-0.4,0.1-0.8,0.2-1.3,0.2c-0.4,0-0.9,0.1-1.4,0.1c-0.3,0-0.7,0-1,0c-0.4,0-0.8-0.1-1.2-0.1c-0.4-0.1-0.9-0.2-1.5-0.3
		c-0.5-0.1-1.1-0.3-1.8-0.5c-0.4-0.1-0.7-0.2-0.9-0.4s-0.3-0.3-0.4-0.5s0-0.4,0-0.6s0.2-0.5,0.3-0.7c0.3-0.6,0.5-1,0.7-1.2
		s0.5-0.4,0.9-0.4c0.2,0,0.3,0,0.6,0.1s0.4,0.1,0.7,0.2l0.5,0.2c0.5,0.2,1,0.3,1.6,0.4c0.5,0.1,1.1,0.1,1.6,0.1
		c0.7,0,1.2-0.1,1.6-0.2s0.7-0.2,0.8-0.4c0.2-0.2,0.3-0.4,0.4-0.6s0.1-0.5,0.1-0.9s0-0.6,0-0.8c0-0.2,0-0.4-0.1-0.4
		c0-0.1-0.1-0.2-0.2-0.3c-0.1-0.1-0.3-0.2-0.5-0.2c-0.2-0.1-0.6-0.2-1-0.2c-0.4-0.1-0.9-0.2-1.5-0.3c-0.8-0.1-1.6-0.3-2.3-0.5
		c-0.7-0.2-1.4-0.5-2-0.8s-1-0.8-1.4-1.4c-0.3-0.6-0.5-1.3-0.5-2.2c0-1,0.1-1.8,0.4-2.6c0.3-0.8,0.8-1.5,1.5-2.2
		c1-1,2.6-1.5,4.8-1.5c0.4,0,0.8,0,1.3,0.1s1,0.1,1.5,0.2s1,0.1,1.4,0.2c0.5,0.1,0.8,0.2,1.1,0.3c0.4,0.1,0.7,0.3,0.7,0.5
		s0.1,0.5,0,0.9c0,0.2-0.1,0.3-0.1,0.5s-0.1,0.4-0.2,0.7c-0.1,0.4-0.3,0.7-0.4,0.9s-0.3,0.2-0.5,0.2c-0.1,0-0.3,0-0.5,0
		s-0.5-0.1-0.9-0.2c0,0-0.2,0-0.4-0.1c-0.2-0.1-0.5-0.1-0.9-0.2c-0.3-0.1-0.7-0.1-1.1-0.2C481.1,432.5,480.7,432.4,480.2,432.4z"/>
</g>
<g>
	<path class="st1" d="M495.6,447.8c-0.1,0-0.1,0-0.2,0l-0.1-0.1c0,0,0-0.2,0-0.3v-8.1c-0.4-0.1-0.7-0.1-0.7-0.3v-0.6h3.9
		c0.2,0,0.3,0,0.5,0s0.3,0,0.5,0.1c0.5,0.1,0.9,0.3,1.2,0.6s0.6,0.6,0.8,1s0.3,0.9,0.4,1.4s0.1,1,0.1,1.6c0,0.7-0.1,1.3-0.2,1.9
		s-0.3,1.1-0.6,1.5c-0.3,0.4-0.6,0.8-1.1,1s-1,0.4-1.7,0.4h-2.6C495.8,447.8,495.7,447.8,495.6,447.8z M496.5,446.7h1.9
		c0.5,0,0.9-0.1,1.2-0.3c0.3-0.2,0.6-0.5,0.7-0.8c0.2-0.3,0.3-0.7,0.4-1.2s0.1-0.9,0.1-1.5c0-0.4,0-0.8-0.1-1.2
		c-0.1-0.4-0.2-0.8-0.3-1.1c-0.2-0.3-0.4-0.6-0.7-0.8c-0.3-0.2-0.7-0.3-1.2-0.3h-2v1.1V446.7z"/>
	<path class="st1" d="M505.4,447.6c-0.4-0.1-0.7-0.3-0.9-0.5c-0.2-0.2-0.4-0.5-0.5-0.8s-0.2-0.6-0.2-1v-6.1l0,0
		c-0.4-0.1-0.7-0.1-0.7-0.3v-0.6h5.9c0.2,0,0.4,0,0.4,0.1s0.1,0.2,0.1,0.4c0,0.1,0,0.2,0,0.3c0,0.1,0,0.1,0,0.2l-0.1,0.1
		c0,0-0.2,0-0.3,0h-4v2.9h3.4c0.2,0,0.4,0,0.4,0.1s0.1,0.2,0.1,0.4c0,0.1,0,0.2,0,0.3c0,0.1,0,0.1,0,0.2l-0.1,0.1c0,0-0.2,0-0.3,0
		H505v1.7c0,0.3,0.1,0.5,0.2,0.7s0.2,0.3,0.4,0.4c0.2,0.1,0.4,0.2,0.6,0.2s0.5,0.1,0.8,0.1h2c0.2,0,0.4,0,0.4,0.1s0.1,0.2,0.1,0.4
		c0,0.1,0,0.2,0,0.3c0,0.1,0,0.1,0,0.2s-0.1,0.1-0.1,0.1c-0.1,0-0.2,0-0.3,0h-2.3C506.2,447.8,505.7,447.8,505.4,447.6z"/>
</g>
<g>
	<path class="st4" d="M272.7,471.4l-0.7,1.2c-0.1,0.1-0.1,0.2-0.2,0.4s-0.2,0.3-0.2,0.4l-0.9,1.6l-0.9,1.6c0,0-0.1,0.1-0.1,0.2
		s-0.1,0.1-0.1,0.2c-0.1,0.2-0.2,0.4-0.4,0.6s-0.3,0.3-0.5,0.4s-0.4,0.1-0.5,0.1c-0.2,0-0.4,0-0.6,0s-0.4,0-0.5,0
		c-0.2,0-0.4,0-0.5-0.1c-0.3-0.1-0.5-0.3-0.6-0.5s-0.3-0.5-0.4-0.7v-0.1l-0.1-0.1c-0.3-0.5-0.6-1.1-1-1.7c-0.3-0.6-0.6-1.1-0.9-1.7
		l-0.6-1l0,0c-0.1-0.2-0.2-0.3-0.2-0.4s-0.1-0.2-0.2-0.4v8c0,0.4,0,0.7-0.1,1c0,0.2-0.1,0.4-0.2,0.5s-0.3,0.2-0.5,0.2s-0.5,0-1,0
		h-0.3c-0.4,0-0.7,0-1,0s-0.5-0.1-0.6-0.2c-0.2-0.1-0.3-0.3-0.3-0.5c-0.1-0.2-0.1-0.5-0.1-1v-14.1H258c-0.2,0-0.4-0.1-0.6-0.2
		c-0.2-0.2-0.2-0.4-0.2-0.6v-1.1c0-0.1,0-0.2,0.1-0.3c0.1-0.1,0.1-0.2,0.2-0.3c0.2-0.2,0.4-0.3,0.7-0.5c0.2-0.1,0.5-0.3,0.9-0.4
		c0.3-0.1,0.7-0.2,1.2-0.2c0.3,0,0.5,0,0.7,0.1s0.4,0.1,0.5,0.2l0,0c0.2,0.1,0.4,0.3,0.6,0.6s0.3,0.5,0.4,0.7l3.1,5.4l0,0l0.9,1.5
		c0.2,0.3,0.4,0.6,0.5,0.9s0.4,0.7,0.6,1.2l2.4-4.3l2.5-4.4l0.3-0.5l0,0c0,0,0-0.1,0.1-0.1s0-0.1,0.1-0.1c0.3-0.4,0.5-0.7,0.7-0.9
		c0.2-0.1,0.4-0.2,0.6-0.3c0.2-0.1,0.4-0.1,0.7-0.1c0.6,0,1,0.1,1.3,0.4s0.5,0.6,0.5,1v15.1h0.5c0.2,0,0.4,0.1,0.6,0.2
		c0.2,0.2,0.2,0.4,0.2,0.6v1c0,0.2-0.1,0.4-0.2,0.5c-0.1,0.2-0.3,0.3-0.4,0.3s-0.2,0.1-0.4,0.1s-0.4,0.1-0.6,0.1s-0.5,0.1-0.8,0.1
		s-0.6,0-0.9,0c-0.5-0.1-0.8-0.2-1.1-0.4c-0.3-0.2-0.5-0.4-0.6-0.7s-0.2-0.5-0.3-0.7c0-0.2-0.1-0.4-0.1-0.5L272.7,471.4L272.7,471.4
		z"/>
	<path class="st4" d="M287.1,462c0.2,0,0.3,0,0.5,0s0.3,0,0.4,0c1.4,0,2.6,0.2,3.7,0.7c1,0.4,1.9,1.1,2.6,1.8
		c0.7,0.8,1.3,1.7,1.6,2.8c0.4,1.1,0.6,2.3,0.6,3.6c0.1,1.4-0.1,2.7-0.4,3.9c-0.3,1.2-0.8,2.2-1.5,3.1s-1.5,1.6-2.5,2.2
		s-2.1,1-3.4,1.1c-0.1,0-0.3,0-0.4,0s-0.3,0-0.4,0c-1.4,0-2.6-0.2-3.6-0.7c-1-0.4-1.9-1.1-2.6-1.9s-1.3-1.7-1.6-2.8
		c-0.4-1.1-0.7-2.3-0.8-3.5c0-0.1,0-0.3,0-0.5s0-0.3,0-0.5c0-1.9,0.4-3.7,1.1-5.1c0.7-1.5,1.8-2.6,3.2-3.3c0.5-0.3,1.1-0.5,1.7-0.7
		C285.8,462.1,286.4,462,287.1,462z M287.5,465.9c-0.7,0.1-1.3,0.3-1.9,0.6c-0.7,0.4-1.3,1.1-1.6,2s-0.6,1.9-0.6,3v0.5
		c0.1,0.8,0.2,1.5,0.4,2.1c0.2,0.6,0.5,1.2,0.9,1.7s0.8,0.8,1.4,1.1c0.5,0.3,1.2,0.4,1.9,0.4c0.7,0,1.4-0.2,2-0.5s1.1-0.8,1.5-1.3
		c0.4-0.6,0.7-1.2,0.9-2c0.2-0.7,0.3-1.5,0.3-2.4c0-0.8-0.1-1.5-0.3-2.1s-0.5-1.2-0.8-1.7c-0.4-0.5-0.8-0.8-1.4-1.1
		c-0.5-0.3-1.2-0.4-1.9-0.4c-0.1,0-0.1,0-0.2,0S287.5,465.9,287.5,465.9z"/>
	<path class="st4" d="M299.7,481.2c-0.3,0-0.4-0.1-0.6-0.2c-0.1-0.1-0.2-0.3-0.2-0.5s-0.1-0.6-0.1-1v-14.2c-0.4-0.1-0.7-0.3-0.9-0.5
		c-0.2-0.2-0.4-0.4-0.4-0.6V463c0-0.2,0.1-0.4,0.2-0.6c0.2-0.1,0.4-0.2,0.6-0.2h7.5c0.4,0,0.7,0,1,0s0.7,0.1,1,0.2
		c1,0.3,1.9,0.7,2.6,1.2s1.3,1.2,1.7,2s0.8,1.7,1,2.7s0.3,2.1,0.3,3.2c0,1.4-0.1,2.6-0.4,3.8c-0.2,1.2-0.7,2.2-1.3,3.1
		c-0.6,0.9-1.4,1.6-2.4,2.1s-2.2,0.7-3.8,0.7h-5C300.3,481.2,300,481.2,299.7,481.2z M302.8,477.5h2.9c0.8,0,1.4-0.2,1.9-0.5
		s0.9-0.7,1.2-1.3c0.3-0.5,0.5-1.2,0.6-1.9s0.2-1.5,0.2-2.4c0-0.6,0-1.3-0.1-1.9c-0.1-0.7-0.3-1.3-0.5-1.8c-0.3-0.5-0.6-1-1.1-1.4
		s-1.1-0.5-1.9-0.5h-3v1.3L302.8,477.5z"/>
	<path class="st4" d="M317.9,480.1c-0.2,0.4-0.3,0.8-0.6,0.9s-0.5,0.3-0.9,0.3s-0.7-0.1-1-0.2l-0.6-0.2c-0.4-0.2-0.6-0.3-0.8-0.4
		c-0.2-0.1-0.3-0.2-0.3-0.5s0.1-0.6,0.3-1.1l5.3-15.3c0.1-0.2,0.2-0.5,0.3-0.7c0.1-0.3,0.3-0.5,0.6-0.6c0.2-0.1,0.4-0.1,0.6-0.2
		s0.4,0,0.6,0h1.4c0.2,0,0.4,0,0.6,0s0.4,0.1,0.6,0.1c0.2,0.1,0.4,0.2,0.5,0.4s0.2,0.4,0.3,0.6c0,0.1,0,0.1,0.1,0.2
		c0,0.1,0.1,0.1,0.1,0.2l5.2,14.7h0.8c0.2,0,0.4,0.1,0.6,0.2c0.2,0.2,0.2,0.4,0.2,0.6v1c0,0.2-0.1,0.3-0.2,0.5s-0.2,0.3-0.4,0.3
		c-0.1,0.1-0.4,0.1-0.8,0.2s-1,0.1-1.6,0.1c-0.5,0-0.9-0.2-1.3-0.4c-0.4-0.2-0.6-0.4-0.7-0.7l-2-4.9h-5.2L317.9,480.1z M320.7,471.5
		h2.8c0-0.1,0-0.1-0.1-0.2c0-0.1,0-0.1-0.1-0.2c-0.1-0.2-0.1-0.4-0.2-0.6s-0.1-0.4-0.2-0.6c-0.1-0.3-0.2-0.6-0.3-1
		c-0.1-0.4-0.3-1-0.6-1.8L320.7,471.5z"/>
	<path class="st4" d="M348.9,474.3h-0.5c-0.8,0-1.4,0-1.9,0s-0.8-0.1-1-0.1h-0.1l0,0l-0.1,0.1v5.3c0,0.4,0,0.7-0.1,1
		c0,0.2-0.1,0.4-0.3,0.5c-0.1,0.1-0.3,0.2-0.5,0.2s-0.6,0-1,0h-0.3c-0.4,0-0.7,0-1,0c-0.2,0-0.4-0.1-0.6-0.2
		c-0.1-0.1-0.2-0.3-0.3-0.5c-0.1-0.2-0.1-0.5-0.1-1v-14.2c-0.4-0.1-0.6-0.3-0.9-0.5c-0.2-0.2-0.4-0.4-0.4-0.6v-1.2
		c0-0.2,0.1-0.4,0.2-0.6c0.2-0.1,0.3-0.2,0.6-0.2h8c2.1,0,3.7,0.5,4.7,1.4s1.5,2.3,1.5,4.1v1.3C355,472.5,353,474.3,348.9,474.3z
		 M348.7,470.5c1.5,0,2.3-0.6,2.3-1.9v-0.8c0-1.3-0.8-2-2.3-2h-3.3v4.5c0.6,0.1,1.3,0.2,2,0.2L348.7,470.5L348.7,470.5z"/>
	<path class="st4" d="M358,480.1c-0.2,0.4-0.3,0.8-0.6,0.9s-0.5,0.3-0.9,0.3s-0.7-0.1-1-0.2l-0.6-0.2c-0.4-0.2-0.6-0.3-0.8-0.4
		c-0.2-0.1-0.3-0.2-0.3-0.5s0.1-0.6,0.3-1.1l5.3-15.3c0.1-0.2,0.2-0.5,0.3-0.7c0.1-0.3,0.3-0.5,0.6-0.6c0.2-0.1,0.4-0.1,0.6-0.2
		s0.4,0,0.6,0h1.4c0.2,0,0.4,0,0.6,0s0.4,0.1,0.6,0.1c0.2,0.1,0.4,0.2,0.5,0.4s0.2,0.4,0.3,0.6c0,0.1,0,0.1,0.1,0.2
		c0,0.1,0.1,0.1,0.1,0.2l5.2,14.7h0.8c0.2,0,0.4,0.1,0.6,0.2c0.2,0.2,0.2,0.4,0.2,0.6v1c0,0.2-0.1,0.3-0.2,0.5s-0.2,0.3-0.4,0.3
		c-0.1,0.1-0.4,0.1-0.8,0.2s-1,0.1-1.6,0.1c-0.5,0-0.9-0.2-1.3-0.4c-0.4-0.2-0.6-0.4-0.7-0.7l-2-4.9h-5.2L358,480.1z M360.9,471.5
		h2.8c0-0.1,0-0.1-0.1-0.2c0-0.1,0-0.1-0.1-0.2c-0.1-0.2-0.1-0.4-0.2-0.6s-0.1-0.4-0.2-0.6c-0.1-0.3-0.2-0.6-0.3-1
		c-0.1-0.4-0.3-1-0.6-1.8L360.9,471.5z"/>
	<path class="st4" d="M386.2,472c-0.4,0.8-1.1,1.4-2.1,1.8c0.1,0.2,0.2,0.4,0.3,0.6c0.1,0.2,0.2,0.4,0.3,0.6c0.3,0.7,0.5,1.4,0.8,2
		c0.2,0.6,0.4,1,0.6,1.3h0.9c0.2,0,0.4,0.1,0.6,0.2c0.2,0.2,0.2,0.4,0.2,0.6l-0.1,1c0,0.1-0.1,0.3-0.3,0.5c-0.2,0.2-0.3,0.3-0.5,0.4
		c-0.1,0-0.3,0.1-0.7,0.2c-0.4,0.1-0.9,0.1-1.5,0.1c-0.4,0-0.8-0.2-1.3-0.4c-0.4-0.2-0.7-0.4-0.8-0.7l0,0c-0.1-0.1-0.2-0.4-0.4-0.8
		c-0.2-0.4-0.4-0.9-0.6-1.4s-0.5-1.1-0.8-1.8c-0.3-0.6-0.6-1.3-0.8-1.9c-0.7,0-1.3-0.1-1.7-0.1c-0.4,0-0.7,0-0.9-0.1c0,0,0,0,0-0.1
		c0,0.1-0.1,0.1-0.1,0.1v5.3c0,0.4,0,0.7-0.1,1c0,0.2-0.1,0.4-0.2,0.5s-0.3,0.2-0.5,0.2s-0.5,0-0.9,0h-0.3c-0.4,0-0.7,0-1,0
		s-0.5-0.1-0.6-0.2c-0.2-0.1-0.3-0.3-0.3-0.5c-0.1-0.2-0.1-0.5-0.1-1v-14.2c-0.4-0.1-0.6-0.3-0.9-0.5s-0.4-0.4-0.4-0.6v-1.2
		c0-0.2,0.1-0.4,0.2-0.6c0.2-0.1,0.4-0.2,0.6-0.2h8c2.1,0,3.6,0.5,4.6,1.4s1.5,2.3,1.5,4.1v1.3C386.9,470.2,386.7,471.2,386.2,472z
		 M380.5,470.5c1.5,0,2.3-0.6,2.3-1.9v-0.8c0-1.3-0.8-2-2.3-2h-3.3v4.5c0.6,0.1,1.3,0.2,2,0.2L380.5,470.5L380.5,470.5z"/>
	<path class="st4" d="M393,480.1c-0.2,0.4-0.3,0.8-0.6,0.9s-0.5,0.3-0.9,0.3s-0.7-0.1-1-0.2l-0.6-0.2c-0.4-0.2-0.6-0.3-0.8-0.4
		c-0.2-0.1-0.3-0.2-0.3-0.5s0.1-0.6,0.3-1.1l5.3-15.3c0.1-0.2,0.2-0.5,0.3-0.7c0.1-0.3,0.3-0.5,0.6-0.6c0.2-0.1,0.4-0.1,0.6-0.2
		s0.4,0,0.6,0h1.4c0.2,0,0.4,0,0.6,0s0.4,0.1,0.6,0.1c0.2,0.1,0.4,0.2,0.5,0.4s0.2,0.4,0.3,0.6c0,0.1,0,0.1,0.1,0.2
		c0,0.1,0.1,0.1,0.1,0.2l5.2,14.7h0.8c0.2,0,0.4,0.1,0.6,0.2c0.2,0.2,0.2,0.4,0.2,0.6v1c0,0.2-0.1,0.3-0.2,0.5s-0.2,0.3-0.4,0.3
		c-0.1,0.1-0.4,0.1-0.8,0.2s-1,0.1-1.6,0.1c-0.5,0-0.9-0.2-1.3-0.4c-0.4-0.2-0.6-0.4-0.7-0.7l-2-4.9h-5.2L393,480.1z M395.8,471.5
		h2.8c0-0.1,0-0.1-0.1-0.2c0-0.1,0-0.1-0.1-0.2c-0.1-0.2-0.1-0.4-0.2-0.6s-0.1-0.4-0.2-0.6c-0.1-0.3-0.2-0.6-0.3-1
		c-0.1-0.4-0.3-1-0.6-1.8L395.8,471.5z"/>
	<path class="st4" d="M430.6,479.5c0,0.4,0,0.7-0.1,0.9c-0.1,0.2-0.1,0.4-0.3,0.5c-0.1,0.1-0.3,0.2-0.5,0.2s-0.5,0-0.9,0h-0.3
		c-0.2,0-0.4,0-0.5,0c-0.2,0-0.3-0.1-0.5-0.1c-0.2-0.1-0.4-0.2-0.6-0.4c-0.2-0.2-0.4-0.5-0.7-0.8c-0.2-0.2-0.5-0.6-0.9-1.3
		s-0.9-1.4-1.5-2.2c-0.6-0.9-1.2-1.8-1.9-2.8c-0.7-1-1.3-2-2-3v9c0,0.4,0,0.7-0.1,1c0,0.2-0.1,0.4-0.2,0.5s-0.3,0.2-0.5,0.2
		s-0.5,0-1,0H418c-0.4,0-0.7,0-1,0s-0.5-0.1-0.6-0.2s-0.2-0.3-0.3-0.5c-0.1-0.2-0.1-0.5-0.1-1v-14h-0.6c-0.2,0-0.4-0.1-0.6-0.2
		c-0.2-0.2-0.2-0.4-0.2-0.6v-1.1c0-0.1,0-0.2,0.1-0.4s0.1-0.2,0.1-0.3c0.2-0.2,0.4-0.3,0.7-0.5c0.2-0.1,0.5-0.3,0.9-0.4
		s0.8-0.2,1.2-0.2c0.4,0,0.8,0.1,1.1,0.3c0.3,0.2,0.6,0.4,0.8,0.6l7,10.6v-9.6c0-0.4,0-0.7,0.1-1c0.1-0.2,0.2-0.4,0.3-0.5
		c0.1-0.1,0.3-0.2,0.6-0.2c0.3,0,0.6,0,1,0c0.5,0,0.8,0,1.1,0s0.5,0.1,0.6,0.2s0.2,0.3,0.3,0.5c0,0.2,0.1,0.6,0.1,1V479.5z"/>
	<path class="st4" d="M434.6,481.1c-0.4,0-0.8,0-1-0.1s-0.4-0.1-0.5-0.3c-0.1-0.1-0.2-0.3-0.2-0.6c0-0.2,0-0.6,0-1
		c0-0.3,0-0.6,0-0.8c0-0.2,0.1-0.4,0.2-0.5s0.3-0.2,0.5-0.3c0.2-0.1,0.6-0.1,1-0.1h1.5v-11.8h-1.5c-0.4,0-0.8,0-1-0.1
		s-0.4-0.1-0.5-0.3c-0.1-0.1-0.2-0.3-0.2-0.6c0-0.2,0-0.5,0-0.9c0-0.3,0-0.6,0-0.8c0-0.2,0.1-0.4,0.2-0.5s0.3-0.2,0.5-0.3
		c0.2-0.1,0.6-0.1,1-0.1h7.1c0.4,0,0.7,0,1,0.1c0.2,0,0.4,0.1,0.5,0.3c0.1,0.1,0.2,0.3,0.2,0.5s0,0.5,0,0.8v0.2c0,0.3,0,0.6,0,0.8
		c0,0.2-0.1,0.4-0.2,0.5s-0.3,0.2-0.5,0.2s-0.6,0.1-1,0.1h-1.6v11.8h1.5c0.4,0,0.7,0,1,0.1c0.2,0.1,0.4,0.1,0.5,0.3
		c0.1,0.1,0.2,0.3,0.2,0.5s0,0.5,0,0.8v0.2c0,0.3,0,0.6,0,0.8c0,0.2-0.1,0.4-0.2,0.5s-0.3,0.2-0.5,0.3c-0.2,0-0.6,0.1-1,0.1h-7
		V481.1z"/>
	<path class="st4" d="M459.7,479.5c0,0.4,0,0.7-0.1,0.9c-0.1,0.2-0.1,0.4-0.3,0.5c-0.1,0.1-0.3,0.2-0.5,0.2s-0.5,0-0.9,0h-0.3
		c-0.2,0-0.4,0-0.5,0c-0.2,0-0.3-0.1-0.5-0.1c-0.2-0.1-0.4-0.2-0.6-0.4c-0.2-0.2-0.4-0.5-0.7-0.8c-0.2-0.2-0.5-0.6-0.9-1.3
		s-0.9-1.4-1.5-2.2c-0.6-0.9-1.2-1.8-1.9-2.8c-0.7-1-1.3-2-2-3v9c0,0.4,0,0.7-0.1,1c0,0.2-0.1,0.4-0.2,0.5s-0.3,0.2-0.5,0.2
		s-0.5,0-1,0H447c-0.4,0-0.7,0-1,0s-0.5-0.1-0.6-0.2s-0.2-0.3-0.3-0.5c-0.1-0.2-0.1-0.5-0.1-1v-14h-0.6c-0.2,0-0.4-0.1-0.6-0.2
		c-0.2-0.2-0.2-0.4-0.2-0.6v-1.1c0-0.1,0-0.2,0.1-0.4c0.1-0.2,0.1-0.2,0.1-0.3c0.2-0.2,0.4-0.3,0.7-0.5c0.2-0.1,0.5-0.3,0.9-0.4
		s0.8-0.2,1.2-0.2c0.4,0,0.8,0.1,1.1,0.3c0.3,0.2,0.6,0.4,0.8,0.6l7,10.6v-9.6c0-0.4,0-0.7,0.1-1c0.1-0.2,0.2-0.4,0.3-0.5
		c0.1-0.1,0.3-0.2,0.6-0.2c0.3,0,0.6,0,1,0c0.5,0,0.8,0,1.1,0s0.5,0.1,0.6,0.2s0.2,0.3,0.3,0.5c0,0.2,0.1,0.6,0.1,1v15.8H459.7z
		 M457.3,457.8c0,0.2,0,0.3-0.1,0.5s-0.2,0.3-0.3,0.4c0,0-0.1,0.1-0.3,0.3c-0.2,0.1-0.4,0.3-0.6,0.4s-0.5,0.3-0.8,0.4
		s-0.6,0.2-1,0.2s-0.9-0.1-1.3-0.2s-1-0.3-1.6-0.6c-0.1,0-0.1-0.1-0.2-0.1s-0.1,0-0.2,0s-0.1,0-0.2,0.1s-0.2,0.1-0.3,0.2
		c-0.1,0.1-0.3,0.2-0.4,0.3c-0.3,0.2-0.6,0.3-0.9,0.3s-0.6-0.1-0.8-0.3c-0.2-0.2-0.4-0.5-0.4-0.8l-0.2-0.9v-0.1c0-0.1,0-0.3,0.1-0.5
		s0.2-0.4,0.5-0.6c0.1-0.1,0.2-0.2,0.4-0.3s0.4-0.3,0.6-0.4s0.5-0.2,0.8-0.3c0.3-0.1,0.6-0.1,0.9-0.1c0.4,0,0.8,0.1,1.2,0.2
		s0.8,0.2,1.1,0.4c0.2,0.1,0.4,0.2,0.6,0.2s0.3,0.1,0.4,0.1s0.1,0,0.2-0.1s0.2-0.1,0.3-0.2l0.4-0.3c0.2-0.1,0.4-0.2,0.6-0.2
		s0.4,0,0.6,0.1s0.4,0.2,0.5,0.4c0.1,0.2,0.2,0.4,0.3,0.6L457.3,457.8z"/>
	<path class="st4" d="M470.2,462c0.2,0,0.3,0,0.5,0s0.3,0,0.4,0c1.4,0,2.6,0.2,3.6,0.7s1.9,1.1,2.6,1.8c0.7,0.8,1.3,1.7,1.6,2.8
		s0.6,2.3,0.6,3.6c0.1,1.4-0.1,2.7-0.4,3.9c-0.3,1.2-0.8,2.2-1.5,3.1s-1.5,1.6-2.5,2.2s-2.1,1-3.4,1.1c-0.1,0-0.3,0-0.4,0
		c-0.2,0-0.3,0-0.4,0c-1.4,0-2.6-0.2-3.6-0.7c-1-0.4-1.9-1.1-2.6-1.9s-1.3-1.7-1.6-2.8c-0.4-1.1-0.7-2.3-0.8-3.5c0-0.1,0-0.3,0-0.5
		s0-0.3,0-0.5c0-1.9,0.4-3.7,1.1-5.1c0.7-1.5,1.8-2.6,3.2-3.3c0.5-0.3,1.1-0.5,1.7-0.7C468.9,462.1,469.5,462,470.2,462z
		 M470.6,465.9c-0.7,0.1-1.3,0.3-1.9,0.6c-0.7,0.4-1.3,1.1-1.6,2c-0.4,0.9-0.6,1.9-0.6,3v0.5c0,0.8,0.2,1.5,0.4,2.1
		c0.2,0.6,0.5,1.2,0.9,1.7s0.8,0.8,1.4,1.1c0.5,0.3,1.2,0.4,1.9,0.4c0.7,0,1.4-0.2,2-0.5s1.1-0.8,1.5-1.3c0.4-0.6,0.7-1.2,0.9-2
		c0.2-0.7,0.3-1.5,0.3-2.4c0-0.8-0.1-1.5-0.3-2.1c-0.2-0.7-0.5-1.2-0.8-1.7c-0.4-0.5-0.8-0.8-1.4-1.1c-0.5-0.3-1.2-0.4-1.9-0.4
		c-0.1,0-0.1,0-0.2,0C470.8,465.9,470.7,465.9,470.6,465.9z"/>
	<path class="st4" d="M487.8,465.7c-0.4,0-0.7,0-1,0s-0.5,0-0.7,0.1s-0.4,0.3-0.5,0.5s-0.3,0.5-0.4,0.9c-0.1,0.3-0.1,0.6,0,0.8
		s0.2,0.4,0.4,0.6c0.2,0.2,0.5,0.3,0.9,0.4s0.8,0.2,1.4,0.3c0.8,0.2,1.5,0.3,2.1,0.4s1.2,0.3,1.7,0.4c0.5,0.2,0.9,0.4,1.3,0.7
		s0.7,0.7,1.1,1.3c0.2,0.4,0.4,0.8,0.4,1.3s0.1,1.1,0.1,1.6c0,1.2-0.2,2.1-0.4,2.8c-0.2,0.9-0.7,1.5-1.4,2s-1.5,0.8-2.4,1.1
		c-0.4,0.1-0.8,0.2-1.3,0.2c-0.4,0-0.9,0.1-1.4,0.1c-0.3,0-0.7,0-1,0c-0.4,0-0.8-0.1-1.2-0.1c-0.4-0.1-0.9-0.2-1.5-0.3
		c-0.5-0.1-1.1-0.3-1.8-0.5c-0.4-0.1-0.7-0.2-0.9-0.4s-0.3-0.3-0.4-0.5s0-0.4,0-0.6s0.2-0.5,0.3-0.7c0.3-0.6,0.5-1,0.7-1.2
		s0.5-0.4,0.9-0.4c0.2,0,0.3,0,0.6,0.1s0.4,0.1,0.7,0.2l0.5,0.2c0.5,0.2,1,0.3,1.6,0.4c0.5,0.1,1.1,0.1,1.6,0.1
		c0.7,0,1.2-0.1,1.6-0.2s0.7-0.2,0.8-0.4c0.2-0.2,0.3-0.4,0.4-0.6s0.1-0.5,0.1-0.9s0-0.6,0-0.8c0-0.2,0-0.4-0.1-0.4
		c0-0.1-0.1-0.2-0.2-0.3c-0.1-0.1-0.3-0.2-0.5-0.2c-0.2-0.1-0.6-0.2-1-0.2c-0.4-0.1-0.9-0.2-1.5-0.3c-0.8-0.1-1.6-0.3-2.3-0.5
		c-0.7-0.2-1.4-0.5-2-0.8s-1-0.8-1.4-1.4c-0.3-0.6-0.5-1.3-0.5-2.2c0-1,0.1-1.8,0.4-2.6c0.3-0.8,0.8-1.5,1.5-2.2
		c1-1,2.6-1.5,4.8-1.5c0.4,0,0.8,0,1.3,0.1s1,0.1,1.5,0.2s1,0.1,1.4,0.2c0.5,0.1,0.8,0.2,1.1,0.3c0.4,0.1,0.7,0.3,0.7,0.5
		s0.1,0.5,0,0.9c0,0.2-0.1,0.3-0.1,0.5s-0.1,0.4-0.2,0.7c-0.1,0.4-0.3,0.7-0.4,0.9s-0.3,0.2-0.5,0.2c-0.1,0-0.3,0-0.5,0
		s-0.5-0.1-0.9-0.2c0,0-0.2,0-0.4-0.1c-0.2-0.1-0.5-0.1-0.9-0.2c-0.3-0.1-0.7-0.1-1.1-0.2C488.6,465.8,488.2,465.7,487.8,465.7z"/>
	<path class="st4" d="M496.4,477.7c0-0.3,0.1-0.4,0.3-0.6s0.3-0.2,0.6-0.2c0.3,0,0.6,0,1.1,0s0.9,0,1.2,0c0.3,0,0.5,0.1,0.7,0.2
		s0.2,0.3,0.3,0.6c0,0.3,0.1,0.6,0.1,1.1v0.5c0,0.5,0,0.8-0.1,1.1c0,0.3-0.1,0.4-0.3,0.6c-0.1,0.1-0.4,0.2-0.6,0.2s-0.6,0-1.1,0
		s-0.9,0-1.2,0c-0.3,0-0.5-0.1-0.7-0.2s-0.2-0.3-0.3-0.6c0-0.3-0.1-0.6-0.1-1.1v-0.5C496.4,478.3,496.4,478,496.4,477.7z"/>
</g>
<g>
	<path class="st5" d="M244.5,75.3c-0.4,1.2-0.9,2-1.5,2.6c-0.6,0.5-1.4,0.8-2.4,0.8s-1.9-0.2-2.8-0.6l-1.5-0.6c-1-0.4-1.7-0.7-2.1-1
		c-0.5-0.2-0.7-0.7-0.7-1.3c0-0.6,0.2-1.6,0.7-3l14.6-41.6c0.2-0.6,0.5-1.3,0.9-2s0.9-1.2,1.5-1.5c0.5-0.2,1-0.4,1.5-0.4
		c0.6,0,1.1-0.1,1.6-0.1h3.9c0.5,0,1,0,1.6,0.1c0.6,0,1.1,0.1,1.5,0.3c0.6,0.2,1.1,0.6,1.4,1.1s0.6,1,0.8,1.5c0,0.2,0.1,0.4,0.2,0.6
		s0.1,0.3,0.2,0.4l14.2,40.1h2.1c0.6,0,1.2,0.2,1.6,0.7c0.4,0.4,0.6,1,0.6,1.6v2.8c0,0.4-0.2,0.8-0.5,1.3c-0.3,0.4-0.7,0.7-1,0.8
		c-0.3,0.1-1,0.4-2.3,0.7c-1.3,0.3-2.7,0.4-4.3,0.3c-1.2-0.1-2.4-0.4-3.4-1s-1.7-1.2-2-2l-5.4-13.5h-14.2L244.5,75.3z M252.3,51.9
		h7.7c0-0.2-0.1-0.3-0.1-0.5c0-0.1-0.1-0.3-0.1-0.4c-0.1-0.6-0.3-1.1-0.4-1.6c-0.1-0.4-0.3-1-0.5-1.7s-0.5-1.6-0.9-2.8
		s-0.9-2.8-1.6-4.8L252.3,51.9z"/>
	<path class="st5" d="M287,78.1c-0.5-0.1-0.9-0.3-1.2-0.6c-0.3-0.3-0.5-0.8-0.6-1.3c-0.1-0.6-0.1-1.3-0.1-2.2V28.4
		c0-1.1,0.1-1.9,0.2-2.5s0.4-1,0.7-1.3c0.4-0.3,0.9-0.4,1.6-0.5c0.7,0,1.5-0.1,2.6-0.1h0.7c1,0,1.8,0,2.4,0.1c0.6,0,1.1,0.2,1.4,0.5
		s0.5,0.7,0.6,1.3c0.1,0.6,0.1,1.4,0.1,2.5l0.1,14c0.2-0.1,0.4-0.1,0.6-0.1s0.4,0,0.6-0.1c0.6-0.1,1.5-0.3,2.5-0.3
		c1-0.1,2.1-0.1,3.4-0.1c5.1-0.1,8.7,0.7,11,2.4s3.4,4.5,3.4,8.4v18.2h1.5c0.6,0,1.1,0.2,1.5,0.6s0.6,0.9,0.6,1.5v2.8
		c0,0.4-0.1,0.7-0.4,1.1s-0.7,0.7-1.2,0.9h0.1c-0.2,0.1-1,0.3-2.2,0.6c-1.3,0.3-2.8,0.4-4.6,0.2c-1.3-0.1-2.4-0.5-3.1-1
		s-1.3-1.1-1.6-1.8c-0.3-0.7-0.6-1.3-0.7-1.9s-0.1-1-0.1-1.3V54.4c-0.1-1.2-0.4-2-1.1-2.4c-0.6-0.5-1.6-0.7-2.9-0.8
		c-1.2-0.1-2.5-0.1-3.8,0.1c-1.3,0.1-2.5,0.3-3.6,0.5V74c0,1.8-0.2,2.9-0.7,3.5s-1.5,0.9-3.2,0.9H289
		C288.2,78.2,287.5,78.2,287,78.1z"/>
	<path class="st5" d="M338.2,78.6c-1.3-0.1-2.6-0.3-3.9-0.7c-1.3-0.3-2.4-0.7-3.4-1.2c-2.6-1.2-4.7-3.1-6.2-5.8
		c-1.5-2.7-2.2-5.9-2.2-9.6c0-0.3,0-0.7,0-1.1c0-0.4,0-0.7,0.1-1.1v0.1c0.2-2.6,0.7-5.1,1.5-7.3s2-4.1,3.5-5.7
		c1.5-1.6,3.5-2.8,5.8-3.6s5-1.1,8.2-0.9c2.8,0.2,5.2,0.8,7.3,1.9c2,1.1,3.7,2.5,5,4.4c1.3,1.8,2.3,3.9,2.8,6.3
		c0.6,2.4,0.8,5,0.7,7.8c-0.2,5.1-1.7,9.1-4.6,12.1c-2.9,2.9-7,4.4-12.6,4.4c-0.4,0-0.7,0-1,0C338.9,78.7,338.5,78.7,338.2,78.6z
		 M340,69.3c2.3,0,4.1-0.7,5.4-2.1c1.2-1.4,1.9-3.4,2-5.9c0.1-2.7-0.4-4.9-1.5-6.7s-2.8-2.8-5.3-3c-1.3-0.1-2.5,0.1-3.5,0.4
		c-1,0.4-1.8,1-2.5,1.7c-0.7,0.8-1.2,1.7-1.6,2.7c-0.4,1.1-0.6,2.2-0.6,3.5v-0.1v1c0,1.8,0.3,3.3,1,4.6c0.6,1.3,1.5,2.2,2.6,2.8
		c0.4,0.2,0.9,0.4,1.4,0.6s1.1,0.3,1.7,0.4L340,69.3L340,69.3z"/>
	<path class="st5" d="M374.8,42.2c0.7-0.1,1.6-0.2,2.6-0.2c1.1-0.1,2.1-0.1,3.2-0.1h0.6c0.7,0,1.4,0,2,0s1.2,0.1,1.7,0.3
		s0.8,0.4,1.1,0.8c0.3,0.3,0.4,0.9,0.4,1.6c0,0.2,0,0.6-0.1,1s-0.2,0.8-0.3,1.2l-0.3,1c-0.2,0.7-0.4,1.3-0.6,1.8s-0.4,0.9-0.7,1.1
		c-0.3,0.3-0.6,0.5-1,0.6s-1,0.1-1.7,0c-0.8-0.1-1.5-0.2-2.1-0.2c-1.1,0-2.2,0.1-3.3,0.2c-1.1,0.1-2.2,0.3-3.1,0.5V74
		c0,1.8-0.2,2.9-0.7,3.5s-1.5,0.9-3.1,0.9h-2.5c-0.8,0-1.5,0-2-0.1s-0.9-0.3-1.2-0.6c-0.3-0.3-0.5-0.8-0.6-1.3
		c-0.1-0.6-0.1-1.3-0.1-2.2l0.1-22.7h-1.6c-0.6,0-1.1-0.2-1.5-0.6c-0.4-0.4-0.6-0.9-0.6-1.6v-3c0-0.5,0.1-0.9,0.2-1.1
		c0.2-0.2,0.3-0.4,0.4-0.4c0.6-0.5,1.2-0.9,1.9-1.3c0.6-0.4,1.4-0.7,2.3-1s1.9-0.4,3.1-0.4c1,0,1.8,0.1,2.5,0.4
		c0.7,0.3,1.3,0.7,1.8,1.1c0.5-0.3,1.1-0.5,1.7-0.7C373.7,42.4,374.3,42.3,374.8,42.2z"/>
	<path class="st5" d="M399.3,78.7c-0.9-0.1-1.7-0.2-2.5-0.4c-0.7-0.2-1.4-0.4-2-0.7c-2.9-1.3-5.1-3.5-6.7-6.4s-2.3-6.4-2.3-10.4
		c0-2.2,0.3-4.2,0.9-6.2s1.4-3.8,2.5-5.4c1.1-1.6,2.4-2.9,3.9-4.1c1.5-1.1,3.3-1.9,5.1-2.5c1.7-0.4,3.4-0.6,5.3-0.6
		c1.3,0,2.3,0,3,0.1c0.7,0,1.6,0.2,2.6,0.4c0.4-0.3,0.8-0.4,1.3-0.5c0.5,0,1.1-0.1,1.9-0.1h0.9c1.2,0,2.1,0,2.8,0
		c0.7,0,1.2,0.2,1.6,0.4c0.4,0.3,0.6,0.7,0.7,1.3s0.1,1.5,0.1,2.6v24.6h1.5c0.6,0,1.2,0.2,1.6,0.6s0.6,0.9,0.6,1.5v2.8
		c0,0.5-0.1,0.9-0.3,1.2c-0.2,0.3-0.6,0.6-1.2,0.8h0.1c-0.1,0-0.4,0.1-0.8,0.2s-0.9,0.2-1.5,0.3c-0.6,0.1-1.3,0.2-2,0.2
		c-0.8,0-1.5,0-2.3,0c-1.9-0.1-3.4-0.7-4.3-1.8c-0.8,0.4-1.4,0.6-1.8,0.8c-1.9,0.8-4.2,1.2-6.7,1.2c-0.4,0-0.7,0-1,0
		C399.8,78.8,399.6,78.8,399.3,78.7L399.3,78.7z M401,69.7c0.5,0.1,1.1,0.1,2,0s2-0.3,3.2-0.7c0.6-0.2,1.1-0.4,1.3-0.5
		c0.3-0.1,0.5-0.2,0.7-0.3V51.4c-0.6-0.1-1.4-0.2-2.2-0.2c-0.8-0.1-1.7-0.1-2.6-0.1c-1.5,0-2.8,0.3-3.7,1c-0.9,0.6-1.7,1.5-2.2,2.6
		s-0.9,2.3-1.1,3.6s-0.2,2.7-0.1,4.1c0,0.9,0.1,1.7,0.2,2.6c0.1,0.8,0.3,1.6,0.7,2.2c0.3,0.7,0.8,1.2,1.4,1.7
		C399.3,69.2,400,69.5,401,69.7z"/>
	<path class="st5" d="M465,69.5c0.8,0,1.7-0.1,2.8-0.2c1.1-0.1,2.4-0.3,3.8-0.7c0.6-0.1,1-0.2,1.4-0.2c0.4-0.1,0.8-0.1,1.1-0.1
		c1,0,1.6,0.3,2,0.9s0.9,1.6,1.5,3c0.3,0.9,0.5,1.6,0.5,2.1c0,1.3-0.7,2.2-2,2.7c-1.4,0.5-3.1,0.9-5.4,1.2c-2.3,0.4-5,0.6-8.2,0.6
		s-5.8-0.5-7.7-1.4c-0.9-0.5-1.8-1-2.7-1.7c-0.9-0.6-1.7-1.4-2.3-2.2c-2.6-3.2-3.9-7.6-3.9-13.1c0-2.6,0.4-5.1,1.2-7.3
		c0.8-2.3,1.9-4.1,3.1-5.7c1-1.2,2-2.1,3-2.9c1-0.8,2-1.3,3.2-1.8c1.2-0.4,2.5-0.7,3.9-0.8c1.5-0.1,3.1-0.2,5.1-0.1
		c0.6,0,1.3,0.1,2.1,0.2c0.9,0.1,1.8,0.4,2.8,0.8s2,1,3,1.8s1.9,1.8,2.7,3c0.8,1.2,1.5,2.8,2,4.6s0.8,4.1,0.8,6.6
		c0,1.3-0.2,2.4-0.6,3.1c-0.4,0.7-0.9,1.3-1.4,1.6c-0.6,0.3-1.1,0.6-1.7,0.6c-0.6,0.1-1,0.1-1.2,0.1h-17.4c0,0.8,0.2,1.5,0.5,2.1
		s0.6,1.1,1,1.5c0.6,0.6,1.4,1.1,2.5,1.3C461.4,69.5,463,69.5,465,69.5z M458.9,51.4c-1.2,0.8-1.9,2.4-2.3,4.8H470
		c-0.4-2.4-1.1-4-2.3-4.8c-1.2-0.8-2.6-1.2-4.4-1.2h-0.1C461.5,50.1,460,50.5,458.9,51.4z"/>
	<path class="st5" d="M483,51.1c-0.6,0-1.2-0.2-1.6-0.6c-0.4-0.4-0.6-0.9-0.6-1.6v-3c0-0.2,0-0.4,0.1-0.7s0.2-0.6,0.4-0.8
		c0.6-0.5,1.2-0.9,1.9-1.3c0.6-0.4,1.4-0.7,2.3-1s1.9-0.4,3.1-0.4c1.7,0,3.2,0.5,4.2,1.5c0.4-0.2,0.8-0.4,1.4-0.6
		c0.6-0.2,1-0.3,1.4-0.4c0.7-0.1,1.5-0.3,2.5-0.3c1-0.1,2-0.1,3.2-0.1c5.1-0.1,8.8,0.7,11.1,2.4s3.4,4.5,3.4,8.4v18.2h1.5
		c0.6,0,1.2,0.2,1.6,0.6c0.4,0.4,0.6,0.9,0.6,1.5v2.8c0,0.6-0.2,1-0.6,1.3c-0.4,0.3-0.9,0.6-1.5,0.9c-0.2,0.1-0.9,0.3-2,0.5
		s-2.6,0.3-4.4,0.1c-1.3-0.1-2.3-0.5-3-1s-1.3-1.1-1.7-1.8c-0.4-0.6-0.6-1.3-0.7-1.9s-0.1-1.1-0.1-1.3V54.4c0-1.2-0.3-2-1-2.4
		c-0.7-0.5-1.6-0.7-2.9-0.8c-1.2-0.1-2.5-0.1-3.7,0.1s-2.3,0.3-3.5,0.5V74c0,1.8-0.2,2.9-0.7,3.5s-1.5,0.9-3.2,0.9H488
		c-0.9,0-1.6,0-2.1-0.1s-0.9-0.3-1.2-0.6c-0.3-0.3-0.5-0.8-0.6-1.3c-0.1-0.6-0.1-1.3-0.1-2.2l0.1-16.7v-6H483V51.1z"/>
</g>
<g>
	<path class="st6" d="M225.7,198.3c-1.6-0.2-2.8-0.8-3.6-1.6s-1.3-1.9-1.6-3.4c-0.2-1.5-0.4-3.5-0.4-6v-5.5c0-5.1,0.3-9.5,0.8-13.2
		c0.6-3.7,1.5-6.9,2.7-9.5c1.2-2.7,2.8-5,4.8-6.9s4.4-3.7,7.2-5.3c-0.1,0-0.1,0,0-0.1c0.4-0.2,0.8-0.4,1.2-0.8
		c0.4-0.3,0.7-0.5,0.8-0.5l-0.1,0.1c1.4-0.9,2.8-1.8,4.2-2.6s2.8-1.6,4.4-2.5c1.6-0.8,3.3-1.7,5.3-2.5s4.2-1.8,6.8-3
		c3.3-1.3,5.8-2.6,7.5-3.9s2.5-2.6,2.5-4v-5.4c0-3.3-1-5.4-2.9-6.3s-5.1-1.3-9.5-1.3h-4c-1.5,0-2.8,0-3.9,0.1
		c-1.1,0.1-2.1,0.2-3,0.4c-0.9,0.2-1.9,0.4-2.9,0.7s-2.1,0.6-3.5,1c-1.3,0.5-2.4,0.8-3.3,1c-0.9,0.2-1.8,0.3-2.8,0.3
		c-2.5,0-4.2-0.5-4.9-1.4s-1.4-2.3-2.2-4.1l-0.6-1.3l-0.1-0.3c-0.5-1-0.8-2-1-3c-0.2-0.9-0.3-1.8-0.3-2.5c0-2.4,0.8-4.2,2.5-5.7
		c1.7-1.4,4.2-2.6,7.6-3.7c1.8-0.6,3.5-1,5.2-1.4s3.5-0.7,5.3-0.9c1.8-0.2,3.8-0.4,5.9-0.5c2.1-0.1,4.5-0.1,7-0.1
		c6,0,11.2,0.5,15.4,1.6c4.2,1,7.7,2.7,10.3,5.1c2.6,2.4,4.5,5.4,5.7,9.2c1.2,3.8,1.8,8.4,1.8,13.9v5.2c0,3.5-0.5,6.6-1.4,9.2
		s-2.3,5-4.2,7c-1.8,2-4.2,3.9-7,5.6c-2.8,1.7-6.1,3.3-9.8,4.8c-0.6,0.2-1.3,0.5-2.1,0.9c-0.8,0.4-1.4,0.7-1.9,0.9
		c-3.2,1.5-6.3,2.9-9.4,4.3c-3.1,1.4-5.4,2.5-6.9,3.5c-1.8,1-3,2.7-3.6,4.9s-1,5.3-1.1,9.1h39.6c2.4,0,4.2,0.2,5.4,0.5
		c1.3,0.3,2.2,0.9,2.8,1.6c0.6,0.8,1,1.7,1.1,3c0.1,1.2,0.1,2.8,0.1,4.7c0,2,0,3.7-0.1,5.1c0,1.4-0.4,2.6-0.9,3.5
		c-0.6,0.9-1.5,1.5-2.8,1.9s-3.2,0.6-5.7,0.6h-50.4C229.5,198.6,227.3,198.5,225.7,198.3z"/>
</g>
<g>
	<path class="st0" d="M336.7,200c-13,0-22.6-2.9-28.6-8.6c-6.1-5.8-9.1-14.9-9.1-27.6v-35.9c0-12.7,3-22,9-27.8
		c6-5.8,15.6-8.7,28.8-8.7h1.7c13.1,0,22.6,2.9,28.4,8.8c5.8,5.8,8.8,15.1,8.8,27.7v35.9c0,12.5-3,21.7-9.1,27.5
		c-6,5.8-15.4,8.7-28.1,8.7L336.7,200L336.7,200z M338,179c9.8,0,14.7-4.9,14.7-14.7v-37.1c0-10-4.9-15-14.7-15h-1
		c-9.8,0-14.7,5-14.7,15v37.1c0,9.8,4.9,14.7,14.7,14.7H338z"/>
</g>
<g>
	<path class="st3" d="M409.8,93.8c1.1-0.7,2.2-1,3.3-1.1c1.1,0,2.4-0.1,3.9-0.1c2.5,0,4.5,0,6,0.1c1.5,0,2.6,0.4,3.4,0.9
		c0.8,0.6,1.3,1.5,1.6,2.8c0.2,1.3,0.4,3.1,0.4,5.6v76.5h8.6c2.4,0,4.2,0.1,5.4,0.4c1.3,0.3,2.2,0.8,2.8,1.5c0.6,0.7,1,1.7,1.1,3
		s0.1,2.9,0.1,4.7v1.3c0,1.9,0,3.4-0.1,4.6c-0.1,1.2-0.4,2.1-1.1,2.8c-0.6,0.7-1.6,1.2-2.8,1.4c-1.3,0.2-3.1,0.4-5.4,0.4h-39.2
		c-2.4,0-4.2-0.1-5.4-0.4c-1.3-0.2-2.2-0.7-2.8-1.4c-0.6-0.7-1-1.6-1.1-2.8s-0.1-2.7-0.1-4.6v-1.3c0-1.9,0-3.5,0.1-4.7
		c0.1-1.3,0.4-2.3,1.1-3c0.6-0.7,1.6-1.2,2.8-1.5c1.3-0.3,3.1-0.4,5.4-0.4h8.2v-58l-3.5,2c-1.5,0.8-2.8,1.4-3.8,1.8
		c-1,0.3-1.9,0.5-2.7,0.5c-1.4,0-2.6-0.6-3.5-1.8c-0.9-1.2-2.2-3.2-3.8-5.8c-0.8-1.3-1.4-2.5-1.9-3.5s-0.8-2.1-0.8-3.1
		c0-1.6,0.5-2.9,1.5-3.8s2.4-1.9,4.3-3L409.8,93.8z"/>
</g>
<g>
	<path class="st7" d="M493.6,90.8c4,0,8,0.3,12.2,0.9s8,1.9,11.5,3.9s6.4,4.8,8.7,8.5s3.6,8.5,3.9,14.6c0.1,3.1,0,5.8-0.2,8.2
		c-0.2,2.4-0.8,4.5-1.8,6.4c-0.9,1.9-2.3,3.7-4,5.3c-1.7,1.7-4,3.3-6.9,4.9c2.4,1.4,4.5,2.9,6.4,4.5s3.6,3.4,5,5.4s2.5,4.2,3.3,6.7
		s1.1,5.4,1.1,8.6c0,6.5-1,11.8-3.1,16s-4.9,7.4-8.5,9.7s-7.8,3.9-12.5,4.7c-4.8,0.8-9.9,1.3-15.3,1.3c-5.8,0-11.2-0.5-16.1-1.6
		c-4.9-1-9-2.8-12.5-5.2s-6.2-5.6-8.1-9.7c-1.9-4.1-2.9-9.1-2.9-15.1c0-3.2,0.4-6,1.1-8.4c0.8-2.4,1.8-4.6,3.2-6.5
		c1.4-1.9,3-3.7,5-5.3s4.2-3.2,6.6-4.7c-4.3-2.4-7.6-5.4-9.8-9.1c-2.2-3.7-3.1-9.1-2.7-16.1c0.3-5.9,1.6-10.7,3.9-14.4
		c2.3-3.6,5.2-6.5,8.6-8.5s7.3-3.4,11.5-4C485.5,91.2,489.6,90.8,493.6,90.8z M493.3,181.9c2.2,0,4.2-0.2,6.2-0.6c1.9-0.4,3.6-1,5-2
		c1.4-0.9,2.5-2.2,3.3-3.7c0.8-1.6,1.2-3.5,1.2-5.9s-0.2-4.4-0.7-6.2c-0.5-1.7-1.4-3.2-2.9-4.4s-3.5-2.1-6.2-2.8
		c-2.6-0.7-6.1-1.3-10.5-1.8c-3.5,0.8-6.2,2.5-8.3,5c-2,2.5-3,5.8-3,10.2c0,2.5,0.4,4.5,1.2,6c0.8,1.6,1.9,2.8,3.3,3.7
		s3.1,1.6,5,1.9C488.9,181.8,491,181.9,493.3,181.9z M497.9,133.1c3.3-1,5.8-2.5,7.6-4.3c1.8-1.8,2.7-4.7,2.7-8.7
		c0-2.3-0.4-4.1-1.1-5.5s-1.7-2.5-3-3.3s-2.9-1.3-4.7-1.6c-1.8-0.3-3.8-0.4-6-0.4c-2.1,0-4,0.1-5.7,0.4s-3.3,0.8-4.5,1.6
		c-1.3,0.8-2.3,1.9-3,3.3c-0.7,1.5-1.1,3.3-1.1,5.6c0,1.8,0.2,3.4,0.6,5c0.4,1.5,1.3,2.8,2.6,4c1.3,1.1,3.2,2.1,5.7,2.8
		C490.5,132.5,493.8,132.9,497.9,133.1z"/>
</g>
</svg>
