<svg id="Layer_1" data-name="Layer 1" xmlns="http://www.w3.org/2000/svg" xmlns:xlink="http://www.w3.org/1999/xlink" viewBox="0 0 1099.48 1239.01"><defs><style>.cls-1{fill:none;}.cls-2{opacity:0.3;}.cls-3{clip-path:url(#clip-path);}.cls-4{fill:#ffb031;}.cls-5{clip-path:url(#clip-path-2);}.cls-6{fill:#6dd3f0;}.cls-7{opacity:0.25;}.cls-8{clip-path:url(#clip-path-3);}.cls-9{fill:aqua;}</style><clipPath id="clip-path" transform="translate(-38.34 -11.99)"><rect class="cls-1" x="37.83" y="11.49" width="429.02" height="429.01"/></clipPath><clipPath id="clip-path-2" transform="translate(-38.34 -11.99)"><rect class="cls-1" x="679.27" y="449.97" width="459.04" height="459.04"/></clipPath><clipPath id="clip-path-3" transform="translate(-38.34 -11.99)"><rect class="cls-1" x="678.62" y="792.16" width="459.5" height="459.5"/></clipPath></defs><title>circulitos_vista_1</title><g class="cls-2"><g class="cls-3"><path class="cls-4" d="M252.34,440c118.2,0,214-95.81,214-214s-95.81-214-214-214-214,95.81-214,214,95.81,214,214,214" transform="translate(-38.34 -11.99)"/></g></g><g class="cls-2"><g class="cls-5"><path class="cls-6" d="M908.79,908.51c126.49,0,229-102.54,229-229s-102.53-229-229-229-229,102.54-229,229,102.53,229,229,229" transform="translate(-38.34 -11.99)"/></g></g><g class="cls-7"><g class="cls-8"><path class="cls-9" d="M908.37,1251c126.52,0,229.08-102.56,229.08-229.08S1034.89,792.83,908.37,792.83,679.29,895.39,679.29,1021.91,781.85,1251,908.37,1251" transform="translate(-38.34 -11.99)"/></g></g></svg>