<?xml version="1.0" encoding="utf-8"?>
<!-- Generator: Adobe Illustrator 22.0.1, SVG Export Plug-In . SVG Version: 6.00 Build 0)  -->
<svg version="1.1" id="Layer_1" xmlns="http://www.w3.org/2000/svg" xmlns:xlink="http://www.w3.org/1999/xlink" x="0px" y="0px"
	 viewBox="0 0 174.6 487.8" style="enable-background:new 0 0 174.6 487.8;" xml:space="preserve">
<style type="text/css">
	.st0{clip-path:url(#SVGID_2_);fill:url(#SVGID_3_);}
	.st1{clip-path:url(#SVGID_5_);fill:#603913;}
	.st2{clip-path:url(#SVGID_5_);fill:url(#SVGID_6_);}
	.st3{fill:#754C29;}
	.st4{fill:#BF956C;}
	.st5{fill:none;stroke:#826059;stroke-width:1.7585;stroke-miterlimit:10;}
</style>
<g>
	<g>
		<defs>
			<path id="SVGID_1_" d="M5,465.7c0,6.7,36,12.1,80.3,12.1c44.4,0,80.3-5.4,80.3-12.1c0-6.7-36-12.1-80.3-12.1
				C40.9,453.6,5,459,5,465.7"/>
		</defs>
		<clipPath id="SVGID_2_">
			<use xlink:href="#SVGID_1_"  style="overflow:visible;"/>
		</clipPath>
		
			<linearGradient id="SVGID_3_" gradientUnits="userSpaceOnUse" x1="-29.0356" y1="1934.2286" x2="-27.2771" y2="1934.2286" gradientTransform="matrix(91.3861 0 0 -91.3861 2658.4221 177227.3125)">
			<stop  offset="0" style="stop-color:#E29D53"/>
			<stop  offset="1.153710e-02" style="stop-color:#E29D53"/>
			<stop  offset="1" style="stop-color:#EDD692"/>
		</linearGradient>
		<rect x="5" y="453.6" class="st0" width="160.7" height="24.3"/>
	</g>
	<g>
		<defs>
			<rect id="SVGID_4_" x="20.1" y="455.1" width="130.5" height="21.2"/>
		</defs>
		<clipPath id="SVGID_5_">
			<use xlink:href="#SVGID_4_"  style="overflow:visible;"/>
		</clipPath>
		<path class="st1" d="M149.7,465.7c0,5.4-28.8,9.7-64.4,9.7c-35.6,0-64.4-4.4-64.4-9.7c0-5.4,28.8-9.7,64.4-9.7
			C120.9,456,149.7,460.3,149.7,465.7"/>
		
			<linearGradient id="SVGID_6_" gradientUnits="userSpaceOnUse" x1="-28.9552" y1="1930.8135" x2="-27.1972" y2="1930.8135" gradientTransform="matrix(74.2185 0 0 -74.2185 2169.0024 143767.7813)">
			<stop  offset="0" style="stop-color:#E29D53"/>
			<stop  offset="1.153710e-02" style="stop-color:#E29D53"/>
			<stop  offset="1" style="stop-color:#EDD692"/>
		</linearGradient>
		<path class="st2" d="M149.7,465.7L149.7,465.7c0,5.4-28.8,9.7-64.4,9.7c-35.6,0-64.4-4.4-64.4-9.7c0-5.4,28.8-9.7,64.4-9.7
			C120.9,456,149.7,460.3,149.7,465.7L149.7,465.7L149.7,465.7c0-5.4-28.8-9.7-64.4-9.7c-35.6,0-64.4,4.4-64.4,9.7
			c0,5.4,28.8,9.7,64.4,9.7C120.9,475.4,149.7,471.1,149.7,465.7L149.7,465.7z"/>
	</g>
	<path class="st3" d="M130.7,194.9c0-2.4-0.9-4.7-2.4-6.4v-34c1.5-1.7,2.4-3.9,2.4-6.4c0-2.4-0.9-4.7-2.4-6.4v-31.2
		c0-5.4-4.4-9.8-9.8-9.8c-5.4,0-9.8,4.4-9.8,9.8v27.8H59v-27.8c0-5.4-4.4-9.8-9.8-9.8c-5.4,0-9.8,4.4-9.8,9.8v31.2
		c-1.5,1.7-2.4,3.9-2.4,6.4c0,2.4,0.9,4.7,2.4,6.4v34c-1.5,1.7-2.4,3.9-2.4,6.4c0,2.4,0.9,4.7,2.4,6.4v34c-1.5,1.7-2.4,3.9-2.4,6.4
		c0,2.4,0.9,4.7,2.4,6.4v34c-1.5,1.7-2.4,3.9-2.4,6.4c0,2.4,0.9,4.7,2.4,6.4v34c-1.5,1.7-2.4,3.9-2.4,6.4c0,2.4,0.9,4.7,2.4,6.4v34
		c-1.5,1.7-2.4,3.9-2.4,6.4c0,2.4,0.9,4.7,2.4,6.4v34c-1.5,1.7-2.4,3.9-2.4,6.4c0,2.4,0.9,4.7,2.4,6.4v36.6
		c6.2,1.3,14.1,2.1,19.6,1.6v-34.8h49.8v35c7.8,0.2,13.1-0.8,19.6-1.8v-36.6c1.5-1.7,2.4-3.9,2.4-6.4c0-2.4-0.9-4.7-2.4-6.4v-34
		c1.5-1.7,2.4-3.9,2.4-6.4c0-2.4-0.9-4.7-2.4-6.4v-34c1.5-1.7,2.4-3.9,2.4-6.4c0-2.4-0.9-4.7-2.4-6.4v-34c1.5-1.7,2.4-3.9,2.4-6.4
		c0-2.4-0.9-4.7-2.4-6.4v-34c1.5-1.7,2.4-3.9,2.4-6.4c0-2.4-0.9-4.7-2.4-6.4v-34C129.8,199.6,130.7,197.3,130.7,194.9 M59,345h49.8
		v27.2H59V345z M59,298.2h49.8v27.2H59V298.2z M59,251.5h49.8v27.2H59V251.5z M59,204.7h49.8v27.2H59V204.7z M108.7,185.1H59v-27.2
		h49.8V185.1z M59,391.8h49.8V419H59V391.8z"/>
	<path class="st4" d="M109.4,145.3L109.4,145.3c0,0.9-0.8,1.7-1.7,1.7H60c-0.9,0-1.7-0.8-1.7-1.7c0-0.9,0.8-1.7,1.7-1.7h47.6
		C108.6,143.6,109.4,144.4,109.4,145.3"/>
	<path class="st5" d="M109.4,145.3L109.4,145.3c0,0.9-0.8,1.7-1.7,1.7H60c-0.9,0-1.7-0.8-1.7-1.7c0-0.9,0.8-1.7,1.7-1.7h47.6
		C108.6,143.6,109.4,144.4,109.4,145.3z"/>
	<path class="st4" d="M109.4,191.8L109.4,191.8c0,0.9-0.8,1.7-1.7,1.7H60c-0.9,0-1.7-0.8-1.7-1.7c0-0.9,0.8-1.7,1.7-1.7h47.6
		C108.6,190.1,109.4,190.8,109.4,191.8"/>
	<path class="st5" d="M109.4,191.8L109.4,191.8c0,0.9-0.8,1.7-1.7,1.7H60c-0.9,0-1.7-0.8-1.7-1.7c0-0.9,0.8-1.7,1.7-1.7h47.6
		C108.6,190.1,109.4,190.8,109.4,191.8z"/>
	<path class="st4" d="M109.4,238.2L109.4,238.2c0,0.9-0.8,1.7-1.7,1.7H60c-0.9,0-1.7-0.8-1.7-1.7c0-0.9,0.8-1.7,1.7-1.7h47.6
		C108.6,236.5,109.4,237.2,109.4,238.2"/>
	<path class="st5" d="M109.4,238.2L109.4,238.2c0,0.9-0.8,1.7-1.7,1.7H60c-0.9,0-1.7-0.8-1.7-1.7c0-0.9,0.8-1.7,1.7-1.7h47.6
		C108.6,236.5,109.4,237.2,109.4,238.2z"/>
	<path class="st4" d="M109.4,284.6L109.4,284.6c0,0.9-0.8,1.7-1.7,1.7H60c-0.9,0-1.7-0.8-1.7-1.7c0-0.9,0.8-1.7,1.7-1.7h47.6
		C108.6,282.9,109.4,283.7,109.4,284.6"/>
	<path class="st5" d="M109.4,284.6L109.4,284.6c0,0.9-0.8,1.7-1.7,1.7H60c-0.9,0-1.7-0.8-1.7-1.7c0-0.9,0.8-1.7,1.7-1.7h47.6
		C108.6,282.9,109.4,283.7,109.4,284.6z"/>
	<path class="st4" d="M109.4,331L109.4,331c0,0.9-0.8,1.7-1.7,1.7H60c-0.9,0-1.7-0.8-1.7-1.7c0-0.9,0.8-1.7,1.7-1.7h47.6
		C108.6,329.3,109.4,330.1,109.4,331"/>
	<path class="st5" d="M109.4,331L109.4,331c0,0.9-0.8,1.7-1.7,1.7H60c-0.9,0-1.7-0.8-1.7-1.7c0-0.9,0.8-1.7,1.7-1.7h47.6
		C108.6,329.3,109.4,330.1,109.4,331z"/>
	<path class="st4" d="M109.4,377.4L109.4,377.4c0,0.9-0.8,1.7-1.7,1.7H60c-0.9,0-1.7-0.8-1.7-1.7c0-0.9,0.8-1.7,1.7-1.7h47.6
		C108.6,375.7,109.4,376.5,109.4,377.4"/>
	<path class="st5" d="M109.4,377.4L109.4,377.4c0,0.9-0.8,1.7-1.7,1.7H60c-0.9,0-1.7-0.8-1.7-1.7c0-0.9,0.8-1.7,1.7-1.7h47.6
		C108.6,375.7,109.4,376.5,109.4,377.4z"/>
	<path class="st4" d="M109.4,423.9L109.4,423.9c0,0.9-0.8,1.7-1.7,1.7H60c-0.9,0-1.7-0.8-1.7-1.7c0-0.9,0.8-1.7,1.7-1.7h47.6
		C108.6,422.2,109.4,422.9,109.4,423.9"/>
	<path class="st5" d="M109.4,423.9L109.4,423.9c0,0.9-0.8,1.7-1.7,1.7H60c-0.9,0-1.7-0.8-1.7-1.7c0-0.9,0.8-1.7,1.7-1.7h47.6
		C108.6,422.2,109.4,422.9,109.4,423.9z"/>
	<path class="st3" d="M130.7,102.5c0-2.4-0.9-4.7-2.4-6.4v-34c1.5-1.7,2.4-3.9,2.4-6.4c0-2.4-0.9-4.7-2.4-6.4V18.2
		c0-5.4-4.4-9.8-9.8-9.8c-5.4,0-9.8,4.4-9.8,9.8V46H59V18.2c0-5.4-4.4-9.8-9.8-9.8c-5.4,0-9.8,4.4-9.8,9.8v31.2
		c-1.5,1.7-2.4,3.9-2.4,6.4c0,2.4,0.9,4.7,2.4,6.4v34c-1.5,1.7-2.4,3.9-2.4,6.4c0,2.4,0.9,4.7,2.4,6.4v34c-1.5,1.7-2.4,3.9-2.4,6.4
		c0,2.4,0.9,4.7,2.4,6.4v34c-1.5,1.7-2.4,3.9-2.4,6.4c0,2.4,0.9,4.7,2.4,6.4v34c-1.5,1.7-2.4,3.9-2.4,6.4c0,2.4,0.9,4.7,2.4,6.4v34
		c-1.5,1.7-2.4,3.9-2.4,6.4c0,2.4,0.9,4.7,2.4,6.4v34c-1.5,1.7-2.4,3.9-2.4,6.4c0,2.4,0.9,4.7,2.4,6.4v36.6
		c6.2,1.3,14.1,2.1,19.6,1.6v-34.8h49.8v35c7.8,0.2,13.1-0.8,19.6-1.8v-36.6c1.5-1.7,2.4-3.9,2.4-6.4c0-2.4-0.9-4.7-2.4-6.4v-34
		c1.5-1.7,2.4-3.9,2.4-6.4c0-2.4-0.9-4.7-2.4-6.4v-34c1.5-1.7,2.4-3.9,2.4-6.4c0-2.4-0.9-4.7-2.4-6.4v-34c1.5-1.7,2.4-3.9,2.4-6.4
		c0-2.4-0.9-4.7-2.4-6.4v-34c1.5-1.7,2.4-3.9,2.4-6.4c0-2.4-0.9-4.7-2.4-6.4v-34C129.8,107.2,130.7,105,130.7,102.5 M59,252.6h49.8
		v27.2H59V252.6z M59,205.8h49.8V233H59V205.8z M59,159.1h49.8v27.2H59V159.1z M59,112.3h49.8v27.2H59V112.3z M108.7,92.7H59V65.5
		h49.8V92.7z M59,299.4h49.8v27.2H59V299.4z"/>
	<path class="st4" d="M109.4,52.9L109.4,52.9c0,0.9-0.8,1.7-1.7,1.7H60c-0.9,0-1.7-0.8-1.7-1.7c0-0.9,0.8-1.7,1.7-1.7h47.6
		C108.6,51.2,109.4,52,109.4,52.9"/>
	<path class="st5" d="M109.4,52.9L109.4,52.9c0,0.9-0.8,1.7-1.7,1.7H60c-0.9,0-1.7-0.8-1.7-1.7c0-0.9,0.8-1.7,1.7-1.7h47.6
		C108.6,51.2,109.4,52,109.4,52.9z"/>
	<path class="st4" d="M109.4,99.4L109.4,99.4c0,0.9-0.8,1.7-1.7,1.7H60c-0.9,0-1.7-0.8-1.7-1.7c0-0.9,0.8-1.7,1.7-1.7h47.6
		C108.6,97.7,109.4,98.4,109.4,99.4"/>
	<path class="st5" d="M109.4,99.4L109.4,99.4c0,0.9-0.8,1.7-1.7,1.7H60c-0.9,0-1.7-0.8-1.7-1.7c0-0.9,0.8-1.7,1.7-1.7h47.6
		C108.6,97.7,109.4,98.4,109.4,99.4z"/>
	<path class="st4" d="M109.4,145.8L109.4,145.8c0,0.9-0.8,1.7-1.7,1.7H60c-0.9,0-1.7-0.8-1.7-1.7c0-0.9,0.8-1.7,1.7-1.7h47.6
		C108.6,144.1,109.4,144.8,109.4,145.8"/>
	<path class="st5" d="M109.4,145.8L109.4,145.8c0,0.9-0.8,1.7-1.7,1.7H60c-0.9,0-1.7-0.8-1.7-1.7c0-0.9,0.8-1.7,1.7-1.7h47.6
		C108.6,144.1,109.4,144.8,109.4,145.8z"/>
	<path class="st4" d="M109.4,192.2L109.4,192.2c0,0.9-0.8,1.7-1.7,1.7H60c-0.9,0-1.7-0.8-1.7-1.7c0-0.9,0.8-1.7,1.7-1.7h47.6
		C108.6,190.5,109.4,191.3,109.4,192.2"/>
	<path class="st5" d="M109.4,192.2L109.4,192.2c0,0.9-0.8,1.7-1.7,1.7H60c-0.9,0-1.7-0.8-1.7-1.7c0-0.9,0.8-1.7,1.7-1.7h47.6
		C108.6,190.5,109.4,191.3,109.4,192.2z"/>
	<path class="st4" d="M109.4,238.6L109.4,238.6c0,0.9-0.8,1.7-1.7,1.7H60c-0.9,0-1.7-0.8-1.7-1.7c0-0.9,0.8-1.7,1.7-1.7h47.6
		C108.6,236.9,109.4,237.7,109.4,238.6"/>
	<path class="st5" d="M109.4,238.6L109.4,238.6c0,0.9-0.8,1.7-1.7,1.7H60c-0.9,0-1.7-0.8-1.7-1.7c0-0.9,0.8-1.7,1.7-1.7h47.6
		C108.6,236.9,109.4,237.7,109.4,238.6z"/>
	<path class="st4" d="M109.4,285L109.4,285c0,0.9-0.8,1.7-1.7,1.7H60c-0.9,0-1.7-0.8-1.7-1.7c0-0.9,0.8-1.7,1.7-1.7h47.6
		C108.6,283.3,109.4,284.1,109.4,285"/>
	<path class="st5" d="M109.4,285L109.4,285c0,0.9-0.8,1.7-1.7,1.7H60c-0.9,0-1.7-0.8-1.7-1.7c0-0.9,0.8-1.7,1.7-1.7h47.6
		C108.6,283.3,109.4,284.1,109.4,285z"/>
	<path class="st4" d="M109.4,331.5L109.4,331.5c0,0.9-0.8,1.7-1.7,1.7H60c-0.9,0-1.7-0.8-1.7-1.7c0-0.9,0.8-1.7,1.7-1.7h47.6
		C108.6,329.8,109.4,330.5,109.4,331.5"/>
	<path class="st5" d="M109.4,331.5L109.4,331.5c0,0.9-0.8,1.7-1.7,1.7H60c-0.9,0-1.7-0.8-1.7-1.7c0-0.9,0.8-1.7,1.7-1.7h47.6
		C108.6,329.8,109.4,330.5,109.4,331.5z"/>
</g>
</svg>
