<?xml version="1.0" encoding="utf-8"?>
<!-- Generator: Adobe Illustrator 22.0.1, SVG Export Plug-In . SVG Version: 6.00 Build 0)  -->
<svg version="1.1" id="Layer_1" xmlns="http://www.w3.org/2000/svg" xmlns:xlink="http://www.w3.org/1999/xlink" x="0px" y="0px"
	 viewBox="0 0 111 179.6" style="enable-background:new 0 0 111 179.6;" xml:space="preserve">
<style type="text/css">
	.st0{fill:#2BB473;}
</style>
<g>
	<path class="st0" d="M82.5,7.4c1.8-1.8,4-2.7,6.6-2.7s4.8,0.9,6.6,2.7l8.5,8.5c1.8,1.8,2.8,4,2.9,6.6c0.1,2.6-0.7,4.8-2.5,6.6
		L44.4,89.3l60.2,60.2c1.8,1.8,2.7,4,2.5,6.6c-0.1,2.6-1.1,4.8-2.9,6.6l-8.5,8.5c-1.8,1.8-4,2.7-6.6,2.7s-4.8-0.9-6.6-2.7L7.1,95.9
		C5,94.1,4,91.9,4,89.3s1-4.8,3.1-6.6L82.5,7.4z"/>
</g>
</svg>
