<svg xmlns="http://www.w3.org/2000/svg" viewBox="0 0 1553.69 1903.72"><defs><style>.cls-1{isolation:isolate;}.cls-2{mix-blend-mode:soft-light;}.cls-3{opacity:0.9;}.cls-4{opacity:0.8;}.cls-5{opacity:0.7;}.cls-6{opacity:0.6;}.cls-7{opacity:0.4;}.cls-8{opacity:0.3;}.cls-9{opacity:0.2;}.cls-10{opacity:0.1;}.cls-11{opacity:0.05;}</style></defs><title>fondo_baby</title><g class="cls-1"><g id="Layer_1" data-name="Layer 1"><g class="cls-2"><rect x="20.15" y="-149.18" width="121.31" height="86.06" transform="translate(688.61 516.61) rotate(-62.18)"/><rect class="cls-3" x="96.26" y="-109.02" width="121.31" height="86.06" transform="translate(693.69 605.35) rotate(-62.18)"/><rect class="cls-4" x="172.38" y="-68.86" width="121.31" height="86.06" transform="translate(698.77 694.1) rotate(-62.18)"/><rect class="cls-5" x="248.5" y="-28.7" width="121.31" height="86.06" transform="translate(703.85 782.84) rotate(-62.18)"/><rect class="cls-6" x="324.62" y="11.46" width="121.31" height="86.06" transform="translate(708.93 871.59) rotate(-62.18)"/><rect class="cls-7" x="400.74" y="51.62" width="121.31" height="86.06" transform="translate(714.02 960.33) rotate(-62.18)"/><rect class="cls-8" x="476.86" y="91.78" width="121.31" height="86.06" transform="translate(719.1 1049.07) rotate(-62.18)"/><rect class="cls-9" x="552.98" y="131.94" width="121.31" height="86.06" transform="translate(724.18 1137.82) rotate(-62.18)"/><rect class="cls-10" x="629.1" y="172.09" width="121.31" height="86.06" transform="translate(729.26 1226.56) rotate(-62.18)"/><rect class="cls-11" x="705.22" y="212.25" width="121.31" height="86.06" transform="translate(734.34 1315.31) rotate(-62.18)"/></g><g class="cls-2"><rect x="-36.46" y="-41.89" width="121.31" height="86.06" transform="translate(563.52 523.77) rotate(-62.18)"/><rect class="cls-3" x="39.66" y="-1.73" width="121.31" height="86.06" transform="translate(568.6 612.51) rotate(-62.18)"/><rect class="cls-4" x="115.78" y="38.43" width="121.31" height="86.06" transform="translate(573.68 701.26) rotate(-62.18)"/><rect class="cls-5" x="191.9" y="78.59" width="121.31" height="86.06" transform="translate(578.76 790) rotate(-62.18)"/><rect class="cls-6" x="268.02" y="118.75" width="121.31" height="86.06" transform="translate(583.84 878.75) rotate(-62.18)"/><rect class="cls-7" x="344.14" y="158.91" width="121.31" height="86.06" transform="translate(588.93 967.49) rotate(-62.18)"/><rect class="cls-8" x="420.26" y="199.07" width="121.31" height="86.06" transform="translate(594.01 1056.24) rotate(-62.18)"/><rect class="cls-9" x="496.38" y="239.23" width="121.31" height="86.06" transform="translate(599.09 1144.98) rotate(-62.18)"/><rect class="cls-10" x="572.5" y="279.39" width="121.31" height="86.06" transform="translate(604.17 1233.73) rotate(-62.18)"/><rect class="cls-11" x="648.62" y="319.55" width="121.31" height="86.06" transform="translate(609.25 1322.47) rotate(-62.18)"/></g><g class="cls-2"><rect x="-93.07" y="65.41" width="121.31" height="86.06" transform="translate(438.43 530.93) rotate(-62.18)"/><rect class="cls-3" x="-16.95" y="105.57" width="121.31" height="86.06" transform="translate(443.51 619.68) rotate(-62.18)"/><rect class="cls-4" x="59.17" y="145.73" width="121.31" height="86.06" transform="translate(448.59 708.42) rotate(-62.18)"/><rect class="cls-5" x="135.29" y="185.89" width="121.31" height="86.06" transform="translate(453.67 797.17) rotate(-62.18)"/><rect class="cls-6" x="211.41" y="226.05" width="121.31" height="86.06" transform="translate(458.75 885.91) rotate(-62.18)"/><rect class="cls-7" x="287.53" y="266.21" width="121.31" height="86.06" transform="translate(463.84 974.65) rotate(-62.18)"/><rect class="cls-8" x="363.65" y="306.37" width="121.31" height="86.06" transform="translate(468.92 1063.4) rotate(-62.18)"/><rect class="cls-9" x="439.77" y="346.52" width="121.31" height="86.06" transform="translate(474 1152.14) rotate(-62.18)"/><rect class="cls-10" x="515.89" y="386.68" width="121.31" height="86.06" transform="translate(479.08 1240.89) rotate(-62.18)"/><rect class="cls-11" x="592.01" y="426.84" width="121.31" height="86.06" transform="translate(484.16 1329.63) rotate(-62.18)"/></g><g class="cls-2"><rect x="-149.67" y="172.7" width="121.31" height="86.06" transform="translate(313.34 538.09) rotate(-62.18)"/><rect class="cls-3" x="-73.56" y="212.86" width="121.31" height="86.06" transform="translate(318.42 626.84) rotate(-62.18)"/><rect class="cls-4" x="2.56" y="253.02" width="121.31" height="86.06" transform="translate(323.5 715.58) rotate(-62.18)"/><rect class="cls-5" x="78.68" y="293.18" width="121.31" height="86.06" transform="translate(328.58 804.33) rotate(-62.18)"/><rect class="cls-6" x="154.8" y="333.34" width="121.31" height="86.06" transform="translate(333.66 893.07) rotate(-62.18)"/><rect class="cls-7" x="230.92" y="373.5" width="121.31" height="86.06" transform="translate(338.75 981.82) rotate(-62.18)"/><rect class="cls-8" x="307.04" y="413.66" width="121.31" height="86.06" transform="translate(343.83 1070.56) rotate(-62.18)"/><rect class="cls-9" x="383.16" y="453.82" width="121.31" height="86.06" transform="translate(348.91 1159.31) rotate(-62.18)"/><rect class="cls-10" x="459.28" y="493.98" width="121.31" height="86.06" transform="translate(353.99 1248.05) rotate(-62.18)"/><rect class="cls-11" x="535.4" y="534.14" width="121.31" height="86.06" transform="translate(359.07 1336.8) rotate(-62.18)"/></g><g class="cls-2"><rect x="-206.28" y="280" width="121.31" height="86.06" transform="translate(188.25 545.26) rotate(-62.18)"/><rect class="cls-3" x="-130.16" y="320.16" width="121.31" height="86.06" transform="translate(193.33 634) rotate(-62.18)"/><rect class="cls-4" x="-54.04" y="360.32" width="121.31" height="86.06" transform="translate(198.41 722.75) rotate(-62.18)"/><rect class="cls-5" x="22.08" y="400.48" width="121.31" height="86.06" transform="translate(203.49 811.49) rotate(-62.18)"/><rect class="cls-6" x="98.2" y="440.64" width="121.31" height="86.06" transform="translate(208.57 900.23) rotate(-62.18)"/><rect class="cls-7" x="174.32" y="480.8" width="121.31" height="86.06" transform="translate(213.66 988.98) rotate(-62.18)"/><rect class="cls-8" x="250.44" y="520.95" width="121.31" height="86.06" transform="translate(218.74 1077.72) rotate(-62.18)"/><rect class="cls-9" x="326.56" y="561.11" width="121.31" height="86.06" transform="translate(223.82 1166.47) rotate(-62.18)"/><rect class="cls-10" x="402.68" y="601.27" width="121.31" height="86.06" transform="translate(228.9 1255.21) rotate(-62.18)"/><rect class="cls-11" x="478.8" y="641.43" width="121.31" height="86.06" transform="translate(233.98 1343.96) rotate(-62.18)"/></g><g class="cls-2"><rect x="-262.89" y="387.29" width="121.31" height="86.06" transform="translate(63.16 552.42) rotate(-62.18)"/><rect class="cls-3" x="-186.77" y="427.45" width="121.31" height="86.06" transform="translate(68.24 641.16) rotate(-62.18)"/><rect class="cls-4" x="-110.65" y="467.61" width="121.31" height="86.06" transform="translate(73.32 729.91) rotate(-62.18)"/><rect class="cls-5" x="-34.53" y="507.77" width="121.31" height="86.06" transform="translate(78.4 818.65) rotate(-62.18)"/><rect class="cls-6" x="41.59" y="547.93" width="121.31" height="86.06" transform="translate(83.48 907.4) rotate(-62.18)"/><rect class="cls-7" x="117.71" y="588.09" width="121.31" height="86.06" transform="translate(88.57 996.14) rotate(-62.18)"/><rect class="cls-8" x="193.83" y="628.25" width="121.31" height="86.06" transform="translate(93.65 1084.89) rotate(-62.18)"/><rect class="cls-9" x="269.95" y="668.41" width="121.31" height="86.06" transform="translate(98.73 1173.63) rotate(-62.18)"/><rect class="cls-10" x="346.07" y="708.57" width="121.31" height="86.06" transform="translate(103.81 1262.38) rotate(-62.18)"/><rect class="cls-11" x="422.19" y="748.73" width="121.31" height="86.06" transform="translate(108.89 1351.12) rotate(-62.18)"/></g><g class="cls-2"><rect x="-319.49" y="494.59" width="121.31" height="86.06" transform="translate(-61.93 559.58) rotate(-62.18)"/><rect class="cls-3" x="-243.38" y="534.75" width="121.31" height="86.06" transform="translate(-56.85 648.33) rotate(-62.18)"/><rect class="cls-4" x="-167.26" y="574.91" width="121.31" height="86.06" transform="translate(-51.77 737.07) rotate(-62.18)"/><rect class="cls-5" x="-91.14" y="615.07" width="121.31" height="86.06" transform="translate(-46.69 825.81) rotate(-62.18)"/><rect class="cls-6" x="-15.02" y="655.23" width="121.31" height="86.06" transform="translate(-41.61 914.56) rotate(-62.18)"/><rect class="cls-7" x="61.1" y="695.38" width="121.31" height="86.06" transform="translate(-36.52 1003.3) rotate(-62.18)"/><rect class="cls-8" x="137.22" y="735.54" width="121.31" height="86.06" transform="translate(-31.44 1092.05) rotate(-62.18)"/><rect class="cls-9" x="213.34" y="775.7" width="121.31" height="86.06" transform="translate(-26.36 1180.79) rotate(-62.18)"/><rect class="cls-10" x="289.46" y="815.86" width="121.31" height="86.06" transform="translate(-21.28 1269.54) rotate(-62.18)"/><rect class="cls-11" x="365.58" y="856.02" width="121.31" height="86.06" transform="translate(-16.2 1358.28) rotate(-62.18)"/></g><g class="cls-2"><rect x="-376.1" y="601.88" width="121.31" height="86.06" transform="translate(-187.02 566.74) rotate(-62.18)"/><rect class="cls-3" x="-299.98" y="642.04" width="121.31" height="86.06" transform="translate(-181.94 655.49) rotate(-62.18)"/><rect class="cls-4" x="-223.86" y="682.2" width="121.31" height="86.06" transform="translate(-176.86 744.23) rotate(-62.18)"/><rect class="cls-5" x="-147.74" y="722.36" width="121.31" height="86.06" transform="translate(-171.78 832.98) rotate(-62.18)"/><rect class="cls-6" x="-71.62" y="762.52" width="121.31" height="86.06" transform="translate(-166.7 921.72) rotate(-62.18)"/><rect class="cls-7" x="4.5" y="802.68" width="121.31" height="86.06" transform="translate(-161.61 1010.47) rotate(-62.18)"/><rect class="cls-8" x="80.62" y="842.84" width="121.31" height="86.06" transform="translate(-156.53 1099.21) rotate(-62.18)"/><rect class="cls-9" x="156.74" y="883" width="121.31" height="86.06" transform="translate(-151.45 1187.96) rotate(-62.18)"/><rect class="cls-10" x="232.86" y="923.16" width="121.31" height="86.06" transform="translate(-146.37 1276.7) rotate(-62.18)"/><rect class="cls-11" x="308.98" y="963.32" width="121.31" height="86.06" transform="translate(-141.29 1365.44) rotate(-62.18)"/></g><g class="cls-2"><rect x="-432.71" y="709.18" width="121.31" height="86.06" transform="translate(-312.11 573.91) rotate(-62.18)"/><rect class="cls-3" x="-356.59" y="749.34" width="121.31" height="86.06" transform="translate(-307.03 662.65) rotate(-62.18)"/><rect class="cls-4" x="-280.47" y="789.5" width="121.31" height="86.06" transform="translate(-301.95 751.39) rotate(-62.18)"/><rect class="cls-5" x="-204.35" y="829.65" width="121.31" height="86.06" transform="translate(-296.87 840.14) rotate(-62.18)"/><rect class="cls-6" x="-128.23" y="869.81" width="121.31" height="86.06" transform="translate(-291.79 928.88) rotate(-62.18)"/><rect class="cls-7" x="-52.11" y="909.97" width="121.31" height="86.06" transform="translate(-286.7 1017.63) rotate(-62.18)"/><rect class="cls-8" x="24.01" y="950.13" width="121.31" height="86.06" transform="translate(-281.62 1106.37) rotate(-62.18)"/><rect class="cls-9" x="100.13" y="990.29" width="121.31" height="86.06" transform="translate(-276.54 1195.12) rotate(-62.18)"/><rect class="cls-10" x="176.25" y="1030.45" width="121.31" height="86.06" transform="translate(-271.46 1283.86) rotate(-62.18)"/><rect class="cls-11" x="252.37" y="1070.61" width="121.31" height="86.06" transform="translate(-266.38 1372.61) rotate(-62.18)"/></g><g class="cls-2"><rect x="-489.31" y="816.47" width="121.31" height="86.06" transform="translate(-437.2 581.07) rotate(-62.18)"/><rect class="cls-3" x="-413.2" y="856.63" width="121.31" height="86.06" transform="translate(-432.12 669.81) rotate(-62.18)"/><rect class="cls-4" x="-337.08" y="896.79" width="121.31" height="86.06" transform="translate(-427.04 758.56) rotate(-62.18)"/><rect class="cls-5" x="-260.96" y="936.95" width="121.31" height="86.06" transform="translate(-421.96 847.3) rotate(-62.18)"/><rect class="cls-6" x="-184.84" y="977.11" width="121.31" height="86.06" transform="translate(-416.88 936.05) rotate(-62.18)"/><rect class="cls-7" x="-108.72" y="1017.27" width="121.31" height="86.06" transform="translate(-411.79 1024.79) rotate(-62.18)"/><rect class="cls-8" x="-32.6" y="1057.43" width="121.31" height="86.06" transform="translate(-406.71 1113.54) rotate(-62.18)"/><rect class="cls-9" x="43.52" y="1097.59" width="121.31" height="86.06" transform="translate(-401.63 1202.28) rotate(-62.18)"/><rect class="cls-10" x="119.64" y="1137.75" width="121.31" height="86.06" transform="translate(-396.55 1291.02) rotate(-62.18)"/><rect class="cls-11" x="195.76" y="1177.91" width="121.31" height="86.06" transform="translate(-391.47 1379.77) rotate(-62.18)"/></g><g class="cls-2"><rect x="-545.92" y="923.77" width="121.31" height="86.06" transform="translate(-562.29 588.23) rotate(-62.18)"/><rect class="cls-3" x="-469.8" y="963.93" width="121.31" height="86.06" transform="translate(-557.21 676.97) rotate(-62.18)"/><rect class="cls-4" x="-393.68" y="1004.08" width="121.31" height="86.06" transform="translate(-552.13 765.72) rotate(-62.18)"/><rect class="cls-5" x="-317.56" y="1044.24" width="121.31" height="86.06" transform="translate(-547.05 854.46) rotate(-62.18)"/><rect class="cls-6" x="-241.44" y="1084.4" width="121.31" height="86.06" transform="translate(-541.97 943.21) rotate(-62.18)"/><rect class="cls-7" x="-165.32" y="1124.56" width="121.31" height="86.06" transform="translate(-536.88 1031.95) rotate(-62.18)"/><rect class="cls-8" x="-89.2" y="1164.72" width="121.31" height="86.06" transform="translate(-531.8 1120.7) rotate(-62.18)"/><rect class="cls-9" x="-13.08" y="1204.88" width="121.31" height="86.06" transform="translate(-526.72 1209.44) rotate(-62.18)"/><rect class="cls-10" x="63.04" y="1245.04" width="121.31" height="86.06" transform="translate(-521.64 1298.19) rotate(-62.18)"/><rect class="cls-11" x="139.16" y="1285.2" width="121.31" height="86.06" transform="translate(-516.56 1386.93) rotate(-62.18)"/></g><g class="cls-2"><rect x="76.75" y="-256.47" width="121.31" height="86.06" transform="translate(813.7 509.44) rotate(-62.18)"/><rect class="cls-3" x="152.87" y="-216.32" width="121.31" height="86.06" transform="translate(818.78 598.19) rotate(-62.18)"/><rect class="cls-4" x="228.99" y="-176.16" width="121.31" height="86.06" transform="translate(823.86 686.93) rotate(-62.18)"/><rect class="cls-5" x="305.11" y="-136" width="121.31" height="86.06" transform="translate(828.94 775.68) rotate(-62.18)"/><rect class="cls-6" x="381.23" y="-95.84" width="121.31" height="86.06" transform="translate(834.03 864.42) rotate(-62.18)"/><rect class="cls-7" x="457.35" y="-55.68" width="121.31" height="86.06" transform="translate(839.11 953.17) rotate(-62.18)"/><rect class="cls-8" x="533.47" y="-15.52" width="121.31" height="86.06" transform="translate(844.19 1041.91) rotate(-62.18)"/><rect class="cls-9" x="609.59" y="24.64" width="121.31" height="86.06" transform="translate(849.27 1130.66) rotate(-62.18)"/><rect class="cls-10" x="685.71" y="64.8" width="121.31" height="86.06" transform="translate(854.35 1219.4) rotate(-62.18)"/><rect class="cls-11" x="761.83" y="104.96" width="121.31" height="86.06" transform="translate(859.43 1308.15) rotate(-62.18)"/></g><g class="cls-2"><rect x="133.36" y="-363.77" width="121.31" height="86.06" transform="translate(938.79 502.28) rotate(-62.18)"/><rect class="cls-3" x="209.48" y="-323.61" width="121.31" height="86.06" transform="translate(943.87 591.03) rotate(-62.18)"/><rect class="cls-4" x="285.6" y="-283.45" width="121.31" height="86.06" transform="translate(948.95 679.77) rotate(-62.18)"/><rect class="cls-5" x="361.72" y="-243.29" width="121.31" height="86.06" transform="translate(954.03 768.52) rotate(-62.18)"/><rect class="cls-6" x="437.84" y="-203.13" width="121.31" height="86.06" transform="translate(959.12 857.26) rotate(-62.18)"/><rect class="cls-7" x="513.96" y="-162.97" width="121.31" height="86.06" transform="translate(964.2 946.01) rotate(-62.18)"/><rect class="cls-8" x="590.08" y="-122.81" width="121.31" height="86.06" transform="translate(969.28 1034.75) rotate(-62.18)"/><rect class="cls-9" x="666.2" y="-82.65" width="121.31" height="86.06" transform="translate(974.36 1123.49) rotate(-62.18)"/><rect class="cls-10" x="742.32" y="-42.49" width="121.31" height="86.06" transform="translate(979.44 1212.24) rotate(-62.18)"/><rect class="cls-11" x="818.44" y="-2.33" width="121.31" height="86.06" transform="translate(984.52 1300.98) rotate(-62.18)"/></g><g class="cls-2"><rect x="189.97" y="-471.06" width="121.31" height="86.06" transform="translate(1063.88 495.12) rotate(-62.18)"/><rect class="cls-3" x="266.08" y="-430.9" width="121.31" height="86.06" transform="translate(1068.96 583.86) rotate(-62.18)"/><rect class="cls-4" x="342.2" y="-390.75" width="121.31" height="86.06" transform="translate(1074.04 672.61) rotate(-62.18)"/><rect class="cls-5" x="418.32" y="-350.59" width="121.31" height="86.06" transform="translate(1079.12 761.35) rotate(-62.18)"/><rect class="cls-6" x="494.44" y="-310.43" width="121.31" height="86.06" transform="translate(1084.21 850.1) rotate(-62.18)"/><rect class="cls-7" x="570.56" y="-270.27" width="121.31" height="86.06" transform="translate(1089.29 938.84) rotate(-62.18)"/><rect class="cls-8" x="646.68" y="-230.11" width="121.31" height="86.06" transform="translate(1094.37 1027.59) rotate(-62.18)"/><rect class="cls-9" x="722.8" y="-189.95" width="121.31" height="86.06" transform="translate(1099.45 1116.33) rotate(-62.18)"/><rect class="cls-10" x="798.92" y="-149.79" width="121.31" height="86.06" transform="translate(1104.53 1205.08) rotate(-62.18)"/><rect class="cls-11" x="875.04" y="-109.63" width="121.31" height="86.06" transform="translate(1109.61 1293.82) rotate(-62.18)"/></g></g></g></svg>