<?xml version="1.0" encoding="utf-8"?>
<!-- Generator: Adobe Illustrator 22.0.1, SVG Export Plug-In . SVG Version: 6.00 Build 0)  -->
<svg version="1.1" id="Layer_1" xmlns="http://www.w3.org/2000/svg" xmlns:xlink="http://www.w3.org/1999/xlink" x="0px" y="0px"
	 viewBox="0 0 853.7 756.7" style="enable-background:new 0 0 853.7 756.7;" xml:space="preserve">
<style type="text/css">
	.st0{opacity:0.25;}
	.st1{clip-path:url(#SVGID_2_);fill:#00FFFF;}
	.st2{clip-path:url(#SVGID_4_);fill:#00FFFF;}
	.st3{clip-path:url(#SVGID_6_);fill:#00FFFF;}
</style>
<g class="st0">
	<g>
		<defs>
			<rect id="SVGID_1_" x="497.8" y="236.7" width="323.6" height="323.6"/>
		</defs>
		<clipPath id="SVGID_2_">
			<use xlink:href="#SVGID_1_"  style="overflow:visible;"/>
		</clipPath>
		<path class="st1" d="M659.6,559.8c89.1,0,161.3-72.2,161.3-161.3c0-89.1-72.2-161.3-161.3-161.3s-161.3,72.2-161.3,161.3
			C498.2,487.6,570.5,559.8,659.6,559.8"/>
	</g>
</g>
<g class="st0">
	<g>
		<defs>
			<rect id="SVGID_3_" x="30.7" y="8.7" width="323.6" height="323.6"/>
		</defs>
		<clipPath id="SVGID_4_">
			<use xlink:href="#SVGID_3_"  style="overflow:visible;"/>
		</clipPath>
		<path class="st2" d="M192.5,331.8c89.1,0,161.3-72.2,161.3-161.3c0-89.1-72.2-161.3-161.3-161.3S31.2,81.4,31.2,170.5
			C31.2,259.6,103.4,331.8,192.5,331.8"/>
	</g>
</g>
<g class="st0">
	<g>
		<defs>
			<rect id="SVGID_5_" x="246" y="628.1" width="119.4" height="119.6"/>
		</defs>
		<clipPath id="SVGID_6_">
			<use xlink:href="#SVGID_5_"  style="overflow:visible;"/>
		</clipPath>
		<path class="st3" d="M305.7,747.3c32.7,0,59.2-26.6,59.2-59.3s-26.5-59.3-59.2-59.3s-59.2,26.6-59.2,59.3S272.9,747.3,305.7,747.3
			"/>
	</g>
</g>
</svg>
