<?xml version="1.0" encoding="utf-8"?>
<!-- Generator: Adobe Illustrator 22.0.1, SVG Export Plug-In . SVG Version: 6.00 Build 0)  -->
<svg version="1.1" id="Layer_1" xmlns="http://www.w3.org/2000/svg" xmlns:xlink="http://www.w3.org/1999/xlink" x="0px" y="0px"
	 viewBox="0 0 471 285.9" style="enable-background:new 0 0 471 285.9;" xml:space="preserve">
<style type="text/css">
	.st0{opacity:0.8;}
	.st1{opacity:0.6;fill:#FFFFFF;}
	.st2{opacity:0.28;}
	.st3{fill:none;}
</style>
<g class="st0">
	<path class="st1" d="M185,147.3h-96c-6.5,0-11.8-5.3-11.8-11.8v-19.3c0-6.5,5.3-11.8,11.8-11.8h96c6.5,0,11.8,5.3,11.8,11.8v19.3
		C196.8,142.1,191.6,147.3,185,147.3z"/>
	<path class="st1" d="M125.2,133.4H32.3v42.9h92.9c6.5,0,11.8-5.3,11.8-11.8v-19.3C137.1,138.7,131.8,133.4,125.2,133.4z"/>
</g>
<path class="st2" d="M0,287.9c0-6.7,0-13.2,0-19.6c0-0.3-0.1-0.9,0.1-0.9c5.1-2.8,1.4-7.8,3.1-11.8c0.2-0.5,2.8-0.2,4.6-0.3
	c0,3.3-0.1,6.2,0.1,9.1c0,0.6,0.7,1.2,1.1,1.8c0.3-0.6,0.9-1.2,0.9-1.8c0.1-4.8,0-9.6,0-14.5c1.8-0.1,3.1-0.2,4.8-0.3
	c0.1-1.5,0.2-2.9,0.4-4.8c2.1,0,4.1,0,6.5,0c0.5-4.2,0.9-8,1.3-11.9c2.1-0.8,3.1-0.2,3.2,2.1c0.2,3.1,0.6,6.3,0.9,9.5
	c1.4,0.2,2.5,0.3,3.8,0.5c0.1,1.5,0.2,2.9,0.4,4.5c2.5,0,2.7,1.6,2.7,3.6c-0.1,4.2,0,8.5,0,13c1.5,0,2.7,0,4.3,0c0-1.7,0-3.4,0-5.2
	c0-21.6,0-43.3,0-64.9c0-1.9-0.1-3.7,2.7-3.2c0.1-1.5,0.2-2.6,0.3-3.9c3.7,0.5,6.2-2.8,10.2-2.7c3.8,0.2,6.8,2.2,10.5,3
	c0.1,0.8,0.2,2,0.4,3.4c2.7-0.2,2.6,1.6,2.6,3.6c0,21.8,0,43.7,0,65.5c0,1.2,0,2.3,0,3.8c1.3,0.1,2.3,0.1,3.8,0.2
	c0-4.3,0-8.4,0-12.6c2.5,0,4.7,0,7.3,0c0,3.4-0.1,6.7,0,10.1c0,0.8,0.6,1.6,0.9,2.4c0.4-0.8,1-1.7,1.1-2.6c0.2-1.3,0.1-2.6,0.1-4.3
	c2.3-0.2,4.5-0.3,7.1-0.5c0-2.6,0-5.2,0-7.8c1.7,0,3,0,4.5,0c0,2.6,0,5.1,0,7.7c1.4,0.2,2.5,0.4,3.8,0.7c0.1,1.7,0.2,3.4,0.3,5.1
	c0.3,0,0.5,0,0.8,0c1.7-8.2,1.9-16.6,1.7-25.3c2.2,0,4.2,0,6.5,0c0-9.2,0-18.1,0-27.4c2.9,0,5.5,0,8.4,0c0-6.2,0-12,0-17.7
	c0-2.4-0.2-4.8,0-7.2c0.3-3.5,0.8-6.9,1.3-10.4c2.1,0,3.4,0,4.2,0c1.2,1.1,2.1,2,3,2.9c0.8-0.8,1.5-1.6,2.7-2.9c0.6,0,1.8,0,3.3,0
	c0.1,0.4,0.2,1,0.5,1.3c0.4,0.6,1,1,1.6,1.5c0.4-0.5,1.2-1,1.3-1.5c0.4-2,0.5-4.1,0.9-6.2c1-4.8,2.2-9.5,3.4-14.8
	c1.6-0.1,3.8-0.2,6.1-0.3c0.1-2.5,0.3-4.9,0.4-7.2c0.5,0,1,0.1,1.4,0.1c0.1,2.3,0.2,4.6,0.4,7.1c1.2,0.1,2.3,0.3,3.9,0.4
	c0,1.5-0.1,2.9,0,4.3c0.1,1.6-0.9,3.8,1.9,4.4c0.3,0.1,0.5,1.3,0.6,2c0.4,2.8,0.7,5.6,1.1,8.4c0.2,1.4-0.3,3.2,2,3.5
	c0.4,0.1,0.6,1.9,0.6,2.9c0,17.8,0,35.6,0,53.4c0,11.1,0,22.3,0,33.4c0,1,0.1,1.9,0.2,3c1.1,0,2,0,3.4,0c0-4.2,0-8.5,0-12.7
	c0-4.9,0.1-9.8,0-14.7c-0.1-2.2,0.7-2.9,2.8-2.8c2.2,0.1,4.3,0,6.8,0c0,6.2,0,12.1,0,18.4c2.9,0,5.6,0,8.4,0c0.2,2.3,0.3,4.2,0.4,6
	c0.3,0,0.6,0,0.9,0c0-4.2,0-8.3,0-12.6c1.4-0.3,2.4-0.4,3.5-0.6c0.1-2,0.2-4.1,0.3-6.2c1.4-0.1,2.6-0.2,4.1-0.3
	c0.1-1.6,0.2-3.3,0.3-5.2c2.9,0,5.7,0,8.7,0c0.1,1.6,0.2,3.2,0.3,5c4.8,0.4,1.6,4.4,3.2,6.8c0.7,0.1,1.8,0.3,3.2,0.5
	c0,4.7,0,9.4,0,14.3c1.3,0,2.2,0,3.6,0c0-14.7,0-29.2,0-42.9c2.9-1.9,5-4.1,7.4-4.5c2.4-0.5,5.2,0.8,8.2,1.3c0-2.3,0-4.6,0-7
	c1.7,0,3.1,0,4.7,0c0.1,2.2,0.2,4.5,0.4,6.4c3,1,5.7,1.9,8.7,2.9c0,9.2,0,18.3,0,27.6c1.3,0,2.4,0,3.8,0c0-6.9,0-13.6,0-20.4
	c0-4.6-0.2-9.2,0.1-13.8c0.2-3.3,0.7-6.6,1.7-9.8c0.5-1.8,2.1-3.4,3.3-5c0.2-0.3,0.7-0.5,1.1-0.5c4.6,0.4,9.2,0.8,13.9,1.3
	c1.4,2.6,3,5.3,4.4,8.1c0.4,0.8,0.4,1.9,0.4,2.8c0,5.8,0,11.6,0,17.6c1.3,0,2.4,0,3.9,0c0-2.2,0-4.5,0-6.9c1.3,0,2.2,0,3.7,0
	c0,1.4-0.1,2.7,0,4.1c0.1,1.3-0.6,2.9,1.6,3.3c0.3,0.1,0.6,1.5,0.7,2.2c0.1,4.3,0,8.5,0,12.8c0,0.6,0.5,1.3,0.7,1.9
	c0.5-0.4,0.9-0.9,1.4-1.3c0.5-0.4,1.1-1.1,1.6-1c0.5,0,1.3,0.8,1.4,1.3c0.6,3.1,1,6.3,1.5,9.4c0.4,0.4,0.8,0.8,1.1,1.1
	c0.2-0.9,0.4-1.8,0.7-2.8c0.9,0.8,1.6,1.4,2.5,2.2c0.3-0.9,0.7-1.4,0.7-2c0-7.9,0-15.7,0-23.6c0-21,0-41.9,0-62.9c0-2-0.2-4,2.7-3.4
	c0.8-2.4-0.7-5.1,2.4-6.4c0.6-0.3,0.3-2.6,0.4-4.2c1.7-0.1,3.3-0.2,5.2-0.3c0-7.3,0-14.4,0-21.6c0.3,0,0.6,0,0.9,0
	c0,7.1,0,14.2,0,21.5c2.1,0.2,3.7,0.3,5.3,0.4c1,4.2,2.3,8.1,5.9,12.8c0,33.3,0,68.3,0,103.3c0.3,0,0.6,0,1,0.1c0-3.5,0-7.1,0-10.2
	c3.1-1.1,5.6-1.9,8.5-2.9c0-1.6,0-3.4,0-5.3c1.6-0.2,2.8-0.3,4.6-0.5c0-3.1,0-6.3,0-9.4c0-15.8-0.1-31.7,0.1-47.5
	c0-2.7,1.1-5.4,1.8-8.4c0.8-0.2,1.8-0.5,2.9-0.8c0.3-1.1,0.5-2.3,0.9-3.8c2.7,0,5.5,0,8.9,0c0-6.1,0-11.9,0-17.7c0.4,0,0.8,0,1.2,0
	c0,5.7,0,11.4,0,17.5c3.6,0,6.6,0,9.7,0c0.6,2.1,0.1,4.8,3.3,4.6c0.2,0,0.5,0.4,0.6,0.7c0.6,2.9,1.7,5.8,1.7,8.7
	c0.1,18.3-0.1,36.7,0.1,55.1c0,3.6,1.4,7.2,2.2,11.1c1.4,0,3,0,4.9,0c0-3.7,0-7.4,0-11.2c2.3,0,4.2,0,6.7,0c0,5.2,0,10.4,0,15.6
	c0,0.8-0.2,1.6,0,2.3c0.3,0.9,0.9,1.6,1.3,2.4c0.4-0.8,1-1.5,1-2.3c0.1-10,0.1-20.1,0.1-30.1c0-18.8,0-37.6,0-56.4
	c1.1-0.3,2-0.5,3.3-0.8c0-2.4,0-4.8,0-7.7c2.8,0,5.4,0,8.3,0c0-8.4,0-16.5,0-24.8c1.3,0,2.3,0,3.6,0c0,5.7,0,11.4,0,17.2
	c1.3,0.2,2.3,0.3,3.5,0.5c0.4,2.2,0.8,4.3,1.2,6.6c0.9,0.2,1.8,0.4,3,0.7c0,2.4,0,4.9,0,7.5c1.2,0.3,2.1,0.5,3.4,0.7
	c0,4.6,0,9.2,0,14c1.4,0.2,2.4,0.3,3.9,0.5c0,3.1-0.1,6.1,0,9.1c0.1,1.7-1.1,4,1.8,4.9c0.4,0.1,0.4,2,0.4,3.1c0,18.6,0,37.1,0,55.7
	c0,0.4,0.1,0.8,0.1,1.2c3,0.6,3,0.6,3.5-7.1c1.7,0,3.4,0,5.1,0c0.3,2.5,0.5,5,0.8,7.4c0,0.1,0.6,0.1,1,0.2
	c-0.7-5.3,0.2-10.4,1.5-15.6c1.2-4.6,0.2-9.8,0.3-14.7c0-3.4,1.3-4.7,4.5-4.7c3.5,0,4.5,1,4.5,4.5c0,4.3-0.3,8.5,0.1,12.8
	c0.2,2.8,1.1,5.5,2,8.2c0.3,0.9,1.6,1.4,2.5,2.1c0.3-0.2,0.6-0.4,0.8-0.7c0-5,0-10,0-15.1c2.9,0,5.5,0,8.4,0c0,5.1,0,10.1,0,15.1
	c0.4,0.2,0.7,0.4,1.1,0.5c0.5-0.7,1.5-1.5,1.5-2.2c0.2-3.5,0.1-7,0.1-10.5c1.3-0.1,2.4-0.3,3.8-0.4c0-10.4,0-20.9,0-31.4
	c1.2-0.3,2.2-0.6,3.4-0.9c0.1-1.4,0.1-2.8,0.2-4.3c1.6,0,3.1,0,4.5,0c3.7,10.3,1.5,20.8,2,31.2c0.1,1.7,0,3.5,0,5
	c1.6,1.8,5.8-1.2,5.8,3.4c0-3.2,1.2-7.3-0.3-9.3c-2.4-3-1.1-5.8-1.6-8.6c-0.1-0.3,0.1-0.6,0.2-1.2c4.2,0,8.4,0,13.1,0
	c-0.8,3.2,1.8,6.5-1.7,9.5c-0.9,0.8-0.1,3.5-0.1,5.5c1.5,0.2,2.7,0.4,4.1,0.6c0,4.4,0,8.7,0,13.2c1.2,0.2,2.1,0.4,3.2,0.7
	c0,7.7,0,15.4,0,23.4C315.1,287.9,157.7,287.9,0,287.9z"/>
<rect x="32.3" y="133.4" class="st3" width="359.7" height="168.6"/>
<path class="st1" d="M324.3,107.2H177.8c-10,0-18-8.1-18-18V59.7c0-10,8.1-18,18-18h146.5c10,0,18,8.1,18,18v29.5
	C342.3,99.1,334.2,107.2,324.3,107.2z"/>
<path class="st1" d="M392.3-2.5H269c-9.9,0-18,8.1-18,18V45c0,10,8,18,18,18h123.4V-2.5z"/>
</svg>
