<?xml version="1.0" encoding="utf-8"?>
<!-- Generator: Adobe Illustrator 22.0.1, SVG Export Plug-In . SVG Version: 6.00 Build 0)  -->
<svg version="1.1" id="Layer_1" xmlns="http://www.w3.org/2000/svg" xmlns:xlink="http://www.w3.org/1999/xlink" x="0px" y="0px"
	 viewBox="0 0 282 195.5" style="enable-background:new 0 0 282 195.5;" xml:space="preserve">
<style type="text/css">
	.st0{fill:#2BB573;}
	.st1{fill:#33BAB0;}
	.st2{fill:#94D4F0;}
</style>
<path class="st0" d="M260.5,53.2H22c-10.7,0-19.5-8.7-19.5-19.5V21.3C2.6,10.6,11.3,1.9,22,1.9h238.4c10.7,0,19.4,8.7,19.4,19.4
	v12.4C279.9,44.5,271.2,53.2,260.5,53.2"/>
<path class="st1" d="M260.5,72.6H22c-10.7,0-19.5,8.7-19.5,19.5v12.4c0,10.7,8.7,19.4,19.5,19.4h238.4c10.7,0,19.4-8.7,19.4-19.4
	V92.1C279.9,81.3,271.2,72.6,260.5,72.6"/>
<path class="st2" d="M260.5,143.3H22c-10.7,0-19.5,8.7-19.5,19.5v12.4c0,10.7,8.7,19.5,19.5,19.5h238.4c10.7,0,19.4-8.7,19.4-19.5
	v-12.4C279.9,152,271.2,143.3,260.5,143.3"/>
</svg>
