<?xml version="1.0" encoding="utf-8"?>
<!-- Generator: Adobe Illustrator 22.0.1, SVG Export Plug-In . SVG Version: 6.00 Build 0)  -->
<svg version="1.1" id="Layer_1" xmlns="http://www.w3.org/2000/svg" xmlns:xlink="http://www.w3.org/1999/xlink" x="0px" y="0px"
	 viewBox="0 0 300 300" style="enable-background:new 0 0 300 300;" xml:space="preserve">
<style type="text/css">
	.st0{fill:#1C75BD;}
</style>
<path class="st0" d="M190.1,60.1c-12.4,0-24.4-0.9-36.3,0.2c-14,1.3-23.2,10-26.9,23.5c-1.7,6-1.6,12.5-1.9,18.8
	c-0.3,4.9-0.1,9.9-0.1,15.3h-17.6v31.7h17.8v89.8h37.2v-89.9h25.2c1.1-10.7,2.2-20.8,3.3-31.9h-28.6c0-6.8-0.1-12.7,0-18.6
	c0.2-5.8,3.1-8.8,9.1-8.7c6.1,0.1,12.2,0,18.7,0V60.1z M149.1,296.3c-80.6,0.1-146.1-65.5-146-146.2C3.2,69.3,68.7,3.8,149.3,4
	C229.7,4.2,294.9,69.5,295,149.9C295.1,230.7,229.8,296.2,149.1,296.3"/>
</svg>
