<?xml version="1.0" encoding="utf-8"?>
<!-- Generator: Adobe Illustrator 22.0.1, SVG Export Plug-In . SVG Version: 6.00 Build 0)  -->
<svg version="1.1" id="Layer_1" xmlns="http://www.w3.org/2000/svg" xmlns:xlink="http://www.w3.org/1999/xlink" x="0px" y="0px"
	 viewBox="0 0 300 300" style="enable-background:new 0 0 300 300;" xml:space="preserve">
<style type="text/css">
	.st0{fill:#94D4F0;}
</style>
<path class="st0" d="M149.8,1.2C68.4,1.2,3.7,65.5,0.6,143.5C-2.8,230.3,66.2,298.9,149.3,299c0.6,0,1.1,0,1.7,0
	c80.4,0,147.5-66.1,148.1-147.1C299.6,67.5,232.3,1.5,150.4,1.2H149.8 M114.5,218.9c-21.5,0-39.9-9-54-27.7
	C30,150.8,52,92.8,101.7,82.8c5.1-1,10-1.5,14.9-1.5c16.3,0,31.3,5.9,44.6,17.9c-6.5,6.4-12.8,12.7-19.2,19.1l-1-0.6
	c-7.2-6.4-16.2-9.5-25.3-9.5c-15.5,0-31.2,9.1-38.2,26.1c-9.8,23.6,3.9,50.7,28.8,56.6c3.1,0.7,6.4,1.1,9.8,1.1
	c13.8,0,28.8-6.4,34.7-21c0.8-2,1.4-4.2,2.3-6.8h-37.2v-26.7h64c6.8,32.9-8.6,72.7-50.5,80.1C124.2,218.4,119.3,218.9,114.5,218.9
	 M193,158.8v-17.2h21.3v-21.3h17v21.1h21.4v17.2h-21.2v21.1h-17.1v-21H193"/>
</svg>
