<?xml version="1.0" encoding="utf-8"?>
<!-- Generator: Adobe Illustrator 22.0.1, SVG Export Plug-In . SVG Version: 6.00 Build 0)  -->
<svg version="1.1" id="Layer_1" xmlns="http://www.w3.org/2000/svg" xmlns:xlink="http://www.w3.org/1999/xlink" x="0px" y="0px"
	 viewBox="0 0 300 300" style="enable-background:new 0 0 300 300;" xml:space="preserve">
<style type="text/css">
	.st0{fill:#2BB573;}
</style>
<path class="st0" d="M57.3,71.3c-10.6,22.6-6.2,41.9,13,58c-6.9-0.2-12.9-2.3-19.1-5.3c0,10.6,3.2,19.7,9.5,27.7
	c6.3,8.1,14.6,13.2,24.5,15.9c-6,1.7-12.1,1.7-18.5,0.8c3,9.2,8.2,16.3,15.5,21.7c7.2,5.5,15.5,8.2,24.6,9
	C88,213.5,67,219.2,43.1,217.2l1.4,1.1c12.3,7.6,25.4,12.9,39.5,15.8c14.6,3,29.2,3.5,44,1.5c16.8-2.2,32.5-7.6,47-16.3
	c15.4-9.3,27.9-21.7,37.9-36.7c5.8-8.6,10.5-17.8,14-27.5c5.6-15.3,8.3-31,8-47.3l1.3-2.7c5.2-5.1,10.5-10.1,15.7-15.3l4.1-5.5
	c-7.9,2.1-15.6,4.3-23.3,6.3l-0.4-0.8c8.5-5.8,14.8-13.2,18.3-23.8l-3,1.6c-6.8,3.8-14.1,6.3-21.6,8.3c-2.4,0.6-3.9,0.1-5.6-1.5
	c-10.5-9.5-22.9-13.3-36.9-11c-19.8,3.2-35.1,19.8-36.4,39.8c-0.3,4.4,0,8.8,0,13.5C111.2,114.1,81.3,98.9,57.3,71.3 M140.7,1.6h18
	l2,0.5c7.4,1.1,14.9,1.9,22.2,3.4c15.7,3.3,30.2,9.4,43.8,17.7c17.3,10.6,31.9,24.1,43.6,40.7c14.1,19.8,22.8,41.8,26.1,65.9
	c0.5,3.7,1,7.3,1.4,11v18l-0.4,2.1c-1.1,7.4-2,14.9-3.4,22.2c-2.4,11.9-6.7,23.2-12.2,33.9c-11,21.5-26.3,39.3-46,53.4
	c-19.9,14.3-42,23.1-66.4,26.3c-3.6,0.5-7.2,0.9-10.7,1.4h-18c-3.6-0.5-7.2-1-10.7-1.4c-16.8-2.1-32.7-7.1-47.6-14.8
	c-21.4-11-39.2-26.3-53.2-45.9c-14.2-20-23-42.1-26.2-66.4c-0.5-3.6-0.9-7.2-1.4-10.7v-18l0.5-2.1c1.1-7.3,1.9-14.7,3.4-21.9
	c5.4-24.7,16.8-46.4,33.5-65.4C48.2,40.8,58.9,31.8,71,24.2C89.1,12.9,108.7,5.7,129.9,3C133.5,2.5,137.1,2,140.7,1.6"/>
</svg>
