<?xml version="1.0" encoding="utf-8"?>
<!-- Generator: Adobe Illustrator 22.0.1, SVG Export Plug-In . SVG Version: 6.00 Build 0)  -->
<svg version="1.1" id="Layer_1" xmlns="http://www.w3.org/2000/svg" xmlns:xlink="http://www.w3.org/1999/xlink" x="0px" y="0px"
	 viewBox="0 0 300 300" style="enable-background:new 0 0 300 300;" xml:space="preserve">
<style type="text/css">
	.st0{fill:#33BAB0;}
</style>
<path class="st0" d="M149.4,4.4C85.1,4.4,25.8,46.5,8.3,111.6c-21.8,81,26.8,152.7,87.5,174.9c-0.2-2.4-0.4-4.8-0.6-7.1
	c-0.8-11.5-1.4-23,1.3-34.4c5.5-23.4,11-46.8,16.5-70.2l-0.1-4.1c-3.3-9-4.6-18.3-3.1-27.8c1.6-10,5.6-18.8,14.4-24.6
	c3.3-2.2,7.6-3.4,11.8-3.4c8.5,0,16.8,5,17.8,17.6c0.5,5.9-0.7,12.2-2.1,18c-2.8,11.3-6.5,22.3-9.5,33.5
	c-3.1,11.8,3.2,22.5,14.7,25.8c2.4,0.7,4.8,1,7.1,1c2.6,0,5.2-0.4,7.8-1c13.2-3.2,21.9-11.9,28.1-23.4c8.5-15.8,11.1-32.9,9.2-50.6
	c-2-18.9-11-33.6-27.6-43.3c-10.1-5.8-20.8-8.4-32-8.4c-3.7,0-7.3,0.3-11.1,0.8c-24.2,3.3-41.8,15.9-51.1,38.6
	c-8.1,20-6.6,39.4,5.9,57.6l0.9,5c-1,5-2.4,10-3.6,15c-0.6,2.3-1.3,3.4-2.7,3.4c-0.7,0-1.5-0.3-2.6-0.8c-5.4-2.6-9.9-6.4-13.6-11.1
	c-13-16.8-17.8-36-15.1-56.9c3.7-28.3,17.6-50.5,42.8-64.1c16.4-8.9,33.4-13.4,50.7-13.4c12,0,24.1,2.1,36.3,6.4
	c25.8,9,43.9,26.8,52.4,53.1c6.9,21.5,4.8,43.1-2.9,64.1c-6.2,17.1-16.4,31.3-31.9,41.3c-10.9,7.1-22.7,11-35.4,11
	c-2.7,0-5.5-0.2-8.4-0.6c-10.9-1.5-20.2-6.2-27.1-15.9c-1.6,5.9-3.1,11.4-4.4,16.9c-3.5,14-7,28.1-14.2,40.8c-2.8,5-5.5,10-8.3,14.9
	c13.6,4.5,28.2,6.8,42.9,6.8c54.8,0,112.2-31.2,136.7-93.8c30.3-77.6-11.4-165.6-90.2-191.5C180.3,6.7,164.7,4.4,149.4,4.4"/>
</svg>
