<?xml version="1.0" encoding="utf-8"?>
<!-- Generator: Adobe Illustrator 22.0.1, SVG Export Plug-In . SVG Version: 6.00 Build 0)  -->
<svg version="1.1" id="Layer_1" xmlns="http://www.w3.org/2000/svg" xmlns:xlink="http://www.w3.org/1999/xlink" x="0px" y="0px"
	 viewBox="0 0 148.1 148.3" style="enable-background:new 0 0 148.1 148.3;" xml:space="preserve">
<style type="text/css">
	.st0{clip-path:url(#SVGID_2_);fill:#33BAB0;}
</style>
<g>
	<defs>
		<rect id="SVGID_1_" y="0.5" width="147.8" height="147.8"/>
	</defs>
	<clipPath id="SVGID_2_">
		<use xlink:href="#SVGID_1_"  style="overflow:visible;"/>
	</clipPath>
	<path class="st0" d="M69.4,0.5h9l1,0.2c3.7,0.6,7.4,1,11.1,1.7c7.8,1.6,15.1,4.7,21.9,8.8c8.6,5.3,15.9,12,21.8,20.3
		c7,9.9,11.4,20.8,13,32.9c0.2,1.8,0.5,3.7,0.7,5.5v9l-0.2,1c-0.6,3.7-1,7.4-1.7,11.1c-1.2,5.9-3.3,11.5-6.1,16.9
		c-5.5,10.7-13.1,19.6-22.9,26.6c-9.9,7.1-21,11.5-33.1,13.1c-1.8,0.2-3.6,0.5-5.4,0.7h-9c-1.8-0.2-3.6-0.5-5.4-0.7
		c-8.4-1-16.3-3.5-23.7-7.4c-10.7-5.5-19.5-13.1-26.5-22.9c-7.1-10-11.5-21-13.1-33.1c-0.2-1.8-0.5-3.6-0.7-5.4v-9l0.2-1
		c0.6-3.6,0.9-7.3,1.7-10.9c2.7-12.3,8.4-23.1,16.7-32.6c4.7-5.3,10-9.8,16-13.6c9-5.6,18.8-9.2,29.4-10.6
		C65.9,0.9,67.6,0.7,69.4,0.5 M27.8,35.2c-5.3,11.3-3.1,20.9,6.5,28.9c-3.4-0.1-6.5-1.1-9.5-2.6c0,5.3,1.6,9.8,4.7,13.8
		c3.2,4,7.3,6.6,12.2,7.9c-3,0.9-6,0.8-9.2,0.4c1.5,4.6,4.1,8.1,7.7,10.8c3.6,2.7,7.8,4.1,12.3,4.5c-9.3,7.2-19.8,10-31.7,9l0.7,0.5
		c6.1,3.8,12.7,6.4,19.7,7.9c7.3,1.5,14.6,1.7,21.9,0.8c8.4-1.1,16.2-3.8,23.4-8.1c7.7-4.6,13.9-10.8,18.9-18.3
		c2.9-4.3,5.2-8.9,7-13.7c2.8-7.6,4.1-15.5,4-23.6l0.7-1.3c2.6-2.6,5.3-5.1,7.8-7.6l2-2.8c-3.9,1.1-7.8,2.1-11.6,3.2l-0.2-0.4
		c4.2-2.9,7.4-6.6,9.1-11.8l-1.5,0.8c-3.4,1.9-7,3.2-10.8,4.1c-1.2,0.3-1.9,0-2.8-0.8c-5.3-4.8-11.4-6.6-18.4-5.5
		c-9.9,1.6-17.5,9.9-18.2,19.8c-0.1,2.2,0,4.4,0,6.7C54.7,56.6,39.8,49,27.8,35.2"/>
</g>
</svg>
