<?xml version="1.0" encoding="utf-8"?>
<!-- Generator: Adobe Illustrator 22.0.1, SVG Export Plug-In . SVG Version: 6.00 Build 0)  -->
<svg version="1.1" id="Layer_1" xmlns="http://www.w3.org/2000/svg" xmlns:xlink="http://www.w3.org/1999/xlink" x="0px" y="0px"
	 viewBox="0 0 182 190" style="enable-background:new 0 0 182 190;" xml:space="preserve">
<style type="text/css">
	.st0{filter:url(#Adobe_OpacityMaskFilter);}
	.st1{fill:url(#SVGID_2_);}
	.st2{mask:url(#SVGID_1_);}
	.st3{clip-path:url(#SVGID_4_);fill:#A987A7;}
	.st4{fill:#00A79C;}
	.st5{filter:url(#Adobe_OpacityMaskFilter_1_);}
	.st6{fill:url(#SVGID_6_);}
	.st7{mask:url(#SVGID_5_);}
	.st8{clip-path:url(#SVGID_8_);fill:#A987A7;}
	.st9{fill:#FFFFFF;}
	.st10{filter:url(#Adobe_OpacityMaskFilter_2_);}
	.st11{fill:url(#SVGID_10_);}
	.st12{mask:url(#SVGID_9_);}
	.st13{clip-path:url(#SVGID_12_);fill:#A987A7;}
	.st14{filter:url(#Adobe_OpacityMaskFilter_3_);}
	.st15{fill:url(#SVGID_14_);}
	.st16{mask:url(#SVGID_13_);}
	.st17{clip-path:url(#SVGID_16_);fill:#A987A7;}
	.st18{fill:#00A69B;}
</style>
<defs>
	<filter id="Adobe_OpacityMaskFilter" filterUnits="userSpaceOnUse" x="-482.5" y="-43.9" width="213.6" height="213.6">
		<feColorMatrix  type="matrix" values="1 0 0 0 0  0 1 0 0 0  0 0 1 0 0  0 0 0 1 0"/>
	</filter>
</defs>
<mask maskUnits="userSpaceOnUse" x="-482.5" y="-43.9" width="213.6" height="213.6" id="SVGID_1_">
	<g class="st0">
		
			<linearGradient id="SVGID_2_" gradientUnits="userSpaceOnUse" x1="-247.9562" y1="5093.2251" x2="-246.8336" y2="5093.2251" gradientTransform="matrix(39.0402 12.085 12.085 -39.0402 -52304.1406 202081.2344)">
			<stop  offset="0" style="stop-color:#FFFFFF"/>
			<stop  offset="1" style="stop-color:#000000"/>
		</linearGradient>
		<polygon class="st1" points="-591.2,-5548.2 3348.2,-4328.8 103.5,6153.2 -3835.9,4933.8 		"/>
	</g>
</mask>
<g class="st2">
	<g>
		<defs>
			<rect id="SVGID_3_" x="-482.5" y="-43.9" width="213.6" height="213.6"/>
		</defs>
		<clipPath id="SVGID_4_">
			<use xlink:href="#SVGID_3_"  style="overflow:visible;"/>
		</clipPath>
		<path class="st3" d="M-353.3,159.8l-1.5-0.7c-0.6-0.3-55.4-26.4-76.5-39.5c-13.7-8.5-23.2-21.9-26.8-37.6
			c-3.6-15.7-0.9-31.9,7.6-45.5c13.1-21,38.1-31.9,62.4-27.3c19.8-14.8,47-16,68.1-2.8l0,0c13.7,8.5,23.2,21.9,26.8,37.6
			s0.9,31.9-7.6,45.5c-13.2,21.1-51,68.6-51.4,69.1L-353.3,159.8z M-399.3,12.3c-19,0-37.3,9.8-47.6,26.3
			c-7.9,12.7-10.4,27.7-7.1,42.3c3.4,14.6,12.2,27,24.9,34.9c18.9,11.8,65.5,34.2,74.5,38.6c6.2-7.9,38.3-48.4,50.1-67.3
			c7.9-12.7,10.4-27.7,7.1-42.3c-3.4-14.6-12.2-27-24.9-34.9c-19.8-12.4-45.5-11.1-64,3.2l-0.8,0.6l-1-0.2
			C-391.7,12.7-395.5,12.3-399.3,12.3z"/>
	</g>
</g>
<path class="st4" d="M-337.9,87.5c0-1.9,1.5-3.4,3.4-3.4c1.9,0,3.4,1.5,3.4,3.4c0,1.9-1.5,3.4-3.4,3.4
	C-336.4,90.9-337.9,89.4-337.9,87.5 M-345.1,127.8l7.5-5c-7.5-14.2-1.1-25.3,11.5-28V80.2c-12.6-2.7-19-13.8-11.5-28l-7.5-5
	c-11.3,13.5-34.6,16.7-49.5,1.8l-8.6,5.3c3.8,15.4-2.7,29.6-13.1,33.2c10.4,3.6,16.9,17.8,13.1,33.2l8.6,5.3
	C-379.7,111.1-356.4,114.3-345.1,127.8"/>
<defs>
	<filter id="Adobe_OpacityMaskFilter_1_" filterUnits="userSpaceOnUse" x="-20.9" y="-19.2" width="228.7" height="228.7">
		<feColorMatrix  type="matrix" values="1 0 0 0 0  0 1 0 0 0  0 0 1 0 0  0 0 0 1 0"/>
	</filter>
</defs>
<mask maskUnits="userSpaceOnUse" x="-20.9" y="-19.2" width="228.7" height="228.7" id="SVGID_5_">
	<g class="st5">
		
			<linearGradient id="SVGID_6_" gradientUnits="userSpaceOnUse" x1="-240.6008" y1="5096.0684" x2="-239.4782" y2="5096.0684" gradientTransform="matrix(47.4506 27.6169 27.6169 -47.4506 -129380.5156 248754.7188)">
			<stop  offset="0" style="stop-color:#FFFFFF"/>
			<stop  offset="1" style="stop-color:#000000"/>
		</linearGradient>
		<polygon class="st6" points="-230.7,-5659.2 5278.6,-2452.7 185.2,6298.6 -5324.1,3092.2 		"/>
	</g>
</mask>
<g class="st7">
	<g>
		<defs>
			<rect id="SVGID_7_" x="-20.9" y="-19.2" width="228.7" height="228.7"/>
		</defs>
		<clipPath id="SVGID_8_">
			<use xlink:href="#SVGID_7_"  style="overflow:visible;"/>
		</clipPath>
		<path class="st8" d="M93.5,176.5c-21.7,0-42.1-8.5-57.5-23.8c-15.4-15.4-23.8-35.8-23.8-57.5S20.7,53.1,36,37.7
			c15.3-15.4,35.8-23.8,57.5-23.8s42.1,8.5,57.5,23.8c31.7,31.7,31.7,83.3,0,114.9l0,0C135.6,168,115.2,176.5,93.5,176.5z
			 M93.5,19.7c-20.2,0-39.1,7.9-53.4,22.1C25.9,56.1,18,75.1,18,95.2s7.9,39.1,22.1,53.4s33.2,22.1,53.4,22.1s39.1-7.9,53.4-22.1
			c29.4-29.4,29.4-77.3,0-106.8C132.6,27.6,113.6,19.7,93.5,19.7z"/>
	</g>
</g>
<path class="st4" d="M97.8,141.5c-0.2-0.7-0.5-1.4-0.8-2.1l1.5-0.6c0.3,0.7,0.5,1.4,0.8,2.2L97.8,141.5z M100.7,145.4l-1.6,0.5
	c-0.2-0.7-0.4-1.5-0.7-2.2l1.5-0.5C100.3,143.9,100.5,144.6,100.7,145.4 M101.9,149.8l-1.6,0.4c-0.2-0.7-0.4-1.4-0.6-2.2l1.6-0.4
	C101.5,148.3,101.7,149.1,101.9,149.8 M95.3,135.3l1.5-0.7c0.3,0.7,0.6,1.4,0.9,2.1l-1.5,0.6C95.9,136.7,95.6,136,95.3,135.3
	 M93,152.8c-0.2-0.7-0.4-1.5-0.6-2.2l1.6-0.4c0.2,0.7,0.4,1.5,0.6,2.2L93,152.8z M91.2,146.3l1.5-0.5c0.2,0.7,0.5,1.5,0.7,2.2
	l-1.6,0.5C91.6,147.8,91.4,147.1,91.2,146.3 M90.4,144.2c-0.3-0.7-0.5-1.4-0.8-2.1l1.5-0.6c0.3,0.7,0.5,1.4,0.8,2.1L90.4,144.2z
	 M87.9,138l1.5-0.7c0.3,0.7,0.6,1.4,0.9,2.1l-1.5,0.6C88.5,139.3,88.2,138.7,87.9,138 M86,134l1.4-0.8c0.4,0.7,0.7,1.4,1,2L87,136
	C86.6,135.3,86.3,134.6,86,134 M84.2,130.8c-0.1-0.2-0.3-0.5-0.4-0.7l1.4-0.9c0.1,0.2,0.3,0.5,0.4,0.7c0.2,0.4,0.5,0.8,0.7,1.3
	l-1.4,0.8C84.7,131.6,84.4,131.2,84.2,130.8 M81.2,126.4l1.3-1c0.5,0.6,0.9,1.2,1.3,1.9l-1.3,0.9C82.1,127.6,81.7,127,81.2,126.4
	 M80,116.2c-0.5-0.5-1.1-1-1.7-1.5l1.1-1.2c0.6,0.5,1.1,1,1.7,1.5L80,116.2z M79.8,124.6c-0.5-0.6-1-1.1-1.5-1.7l1.2-1.1
	c0.5,0.6,1,1.2,1.5,1.7L79.8,124.6z M76.9,121.3c-0.5-0.5-1.1-1.1-1.6-1.6l1.1-1.2c0.6,0.5,1.1,1.1,1.6,1.6L76.9,121.3z M76.1,110.4
	c0.5,0.5,1.1,1,1.7,1.5l-1.1,1.2c-0.6-0.5-1.1-1-1.7-1.5L76.1,110.4z M82.8,116.6c0.3,0.2,0.5,0.5,0.7,0.7c0.3,0.3,0.6,0.6,0.9,0.9
	l-1.1,1.2c-0.3-0.3-0.7-0.6-0.9-0.9c-0.2-0.2-0.4-0.4-0.7-0.7L82.8,116.6z M86,119.8c0.6,0.6,1.1,1.1,1.6,1.6l-1.2,1.1
	c-0.5-0.5-1-1-1.6-1.6L86,119.8z M89.2,123.1c0.5,0.6,1,1.2,1.5,1.8l-1.3,1c-0.5-0.6-0.9-1.1-1.4-1.7L89.2,123.1z M92.1,126.7
	c0.5,0.6,0.9,1.3,1.3,1.9l-1.3,0.9c-0.4-0.6-0.8-1.2-1.3-1.8L92.1,126.7z M95.7,132.6l-1.4,0.8c-0.3-0.7-0.7-1.3-1.1-1.9l1.4-0.8
	C95,131.2,95.4,131.9,95.7,132.6 M83,115.3c-5.4-3.8-8.4-6.3-9.9-7.9c0,0,0,0,0,0c0,0.1,0,0.1,0,0.2c0.3,0.3,0.8,0.7,1.4,1.2
	l-1.1,1.2c-0.1-0.1-0.2-0.2-0.3-0.2c0,0.2,0,0.3,0,0.5c0,1.8,0,3.7,0.1,5.4c0.3,0.2,0.8,0.7,1.5,1.2l-1.1,1.2
	c-0.1-0.1-0.2-0.2-0.3-0.3c0.1,0.7,0.1,1.3,0.2,1.6c1.2,4.4,1.6,9.6,1,15c-0.3,2.8-0.8,5.4-1.3,7.6c-0.1,0.4-0.2,0.7-0.2,1.1
	c-0.1,0.3-0.2,0.7-0.2,1c-0.6,2.5-1.2,4.1-1.2,4.3l-0.1,0.4l-0.5,0.1c0,0,0,0,0,0c0,0,0,0,0,0c0,0,0,0-0.1,0c0,0,0,0,0,0
	c0,0-0.1,0-0.1,0c0,0,0,0-0.1,0c-0.1,0-0.1,0-0.2,0.1c0,0,0,0,0,0c-0.1,0-0.1,0-0.2,0.1c0,0,0,0-0.1,0c-0.1,0-0.1,0-0.2,0.1
	c0,0-0.1,0-0.1,0c-0.1,0-0.2,0.1-0.2,0.1c0,0,0,0,0,0c-0.1,0-0.2,0.1-0.3,0.1c0,0,0,0,0,0c6.8,2.5,13.9,3.8,21.2,3.8
	c3.5,0,7-0.3,10.5-0.9c0,0,0-0.1,0-0.1l1.6-0.4c0,0.1,0,0.1,0,0.2c0.3-0.1,0.5-0.1,0.8-0.2c-0.9-4.6-2.7-13.9-4.3-18
	C96.3,127.1,91,120.9,83,115.3"/>
<path class="st4" d="M102.2,137.3c-2.3-9.1-6-13.3-12.4-18.7c5.1,4.5,8.6,9.4,10.7,14.8c1.6,4.1,3.4,12.8,4.4,18.2
	c0.2,0,0.4-0.1,0.6-0.1c-0.1-0.3-0.1-0.6-0.2-1C104.6,147.6,103.7,143.1,102.2,137.3"/>
<path class="st4" d="M123.1,108.1c-2.7,0-4.9-2.2-4.9-4.9c0-2.7,2.2-4.9,4.9-4.9c2.7,0,4.9,2.2,4.9,4.9
	C127.9,105.9,125.7,108.1,123.1,108.1 M123.1,95.7c-4.2,0-7.5,3.4-7.5,7.5c0,4.2,3.4,7.5,7.5,7.5c4.2,0,7.5-3.4,7.5-7.5
	C130.6,99.1,127.2,95.7,123.1,95.7"/>
<path class="st4" d="M83.9,114c0.8,0.6,1.6,1.1,2.4,1.7c-0.2-0.1-0.3-0.3-0.5-0.4l-1.2-1c-6.5-5.3-10-8.8-11.6-10.6
	c0,0.1,0,0.1,0,0.2c0,0.1,0,0.2,0,0.3c0,0,0,0.1,0,0.1c0,0.1,0,0.1,0,0.2c0,0,0,0.1,0,0.1c0,0.1,0,0.1,0,0.2c0,0,0,0.1,0,0.1
	c0,0,0,0.1,0,0.1C73.5,105.6,75.9,108.4,83.9,114"/>
<path class="st4" d="M104.2,92.4l0.8,1.4c-0.6,0.4-1.3,0.7-2,1.1l-0.8-1.4C102.9,93.1,103.6,92.8,104.2,92.4 M99.3,96.9L99,97.1
	l-0.8-1.4l0.3-0.1c0.6-0.3,1.2-0.6,1.7-0.9l0.8,1.4C100.5,96.3,99.9,96.6,99.3,96.9 M95,99.1l-0.7-1.5c0.6-0.3,1.3-0.7,2-1l0.7,1.4
	C96.3,98.5,95.6,98.8,95,99.1 M108.1,90.1l0.8,1.4c-0.6,0.4-1.3,0.8-1.9,1.2l-0.8-1.4C106.8,90.9,107.5,90.5,108.1,90.1 M111.9,87.7
	l0.9,1.3c-0.6,0.4-1.3,0.8-1.9,1.3l-0.9-1.4C110.6,88.5,111.3,88.1,111.9,87.7 M115.5,85.1l1,1.3c-0.6,0.4-1.2,0.9-1.9,1.3l-0.9-1.3
	C114.3,86,115,85.5,115.5,85.1 M119.1,82.3l1,1.2c-0.6,0.5-1.2,1-1.8,1.4l-1-1.3C117.9,83.3,118.5,82.8,119.1,82.3 M122.4,79.4
	l1.1,1.2c-0.6,0.5-1.1,1-1.7,1.5l-1.1-1.2C121.3,80.4,121.9,79.9,122.4,79.4 M125.6,76.2l1.2,1.1c-0.6,0.6-1.1,1.1-1.6,1.6l-1.1-1.2
	C124.6,77.3,125.1,76.8,125.6,76.2 M128.7,72.9l1.2,1.1c-0.5,0.5-1,1.1-1.5,1.7l-1.2-1.1C127.7,74,128.2,73.5,128.7,72.9
	 M131.8,69.6l1.2,1.1c-0.5,0.5-1,1.1-1.5,1.6l-1.2-1.1C130.8,70.6,131.3,70.1,131.8,69.6 M90.8,101.1l-0.6-1.5
	c0.6-0.3,1.3-0.6,2-0.9l0.7,1.5C92.2,100.5,91.5,100.8,90.8,101.1 M86.5,102.6l-0.4-1.6c0.7-0.2,1.3-0.4,2.1-0.7l0.6,1.5
	C87.9,102.2,87.2,102.4,86.5,102.6 M82.2,103.2c-0.1,0-0.3,0-0.4,0l0-1.6c0.7,0,1.4,0,2.1-0.1l0.2,1.6
	C83.5,103.2,82.9,103.2,82.2,103.2 M79.4,103c-0.7-0.1-1.4-0.3-2.3-0.5l0.4-1.6c0.8,0.2,1.5,0.3,2.2,0.4L79.4,103z M135.1,66.4
	l1.1,1.2c-0.5,0.5-1.1,1-1.6,1.5l-1.1-1.2C134,67.4,134.5,66.9,135.1,66.4 M138.5,63.4l1.1,1.2c-0.5,0.5-1.1,1-1.7,1.5l-1.1-1.2
	C137.4,64.4,137.9,63.9,138.5,63.4 M150,98.7c-0.2,0.1-0.3,0.3-0.5,0.5c-0.1,0.1-0.2,0.2-0.3,0.3c-0.2,0.2-0.3,0.3-0.5,0.5
	c-0.1,0.1-0.2,0.2-0.3,0.3c-0.2,0.2-0.3,0.3-0.5,0.5c-0.1,0.1-0.2,0.2-0.3,0.3c-0.2,0.2-0.3,0.3-0.5,0.5c-0.1,0.1-0.2,0.2-0.3,0.3
	c-0.2,0.2-0.4,0.4-0.5,0.5c-0.1,0.1-0.2,0.2-0.3,0.3c-0.2,0.2-0.4,0.4-0.6,0.5c-0.1,0.1-0.2,0.2-0.3,0.3c-0.2,0.2-0.4,0.4-0.5,0.5
	c-0.1,0.1-0.2,0.2-0.3,0.3c-0.2,0.2-0.4,0.4-0.6,0.6c-0.1,0.1-0.2,0.2-0.2,0.2c-0.2,0.2-0.4,0.4-0.6,0.6c-0.1,0.1-0.1,0.1-0.2,0.2
	c-0.2,0.2-0.4,0.4-0.7,0.7c-0.1,0.1-0.1,0.1-0.2,0.2c-0.2,0.2-0.5,0.5-0.7,0.7c0,0-0.1,0.1-0.1,0.1c-0.3,0.3-0.6,0.6-1,0.9
	c-0.9,0.9-1.8,1.8-2.6,2.6c-0.7,0.7-1.4,1.4-2,2c0,0-0.1,0.1-0.1,0.1c-0.2,0.2-0.4,0.4-0.6,0.6c0,0-0.1,0.1-0.1,0.1
	c-0.2,0.2-0.4,0.4-0.6,0.6c0,0-0.1,0.1-0.1,0.1c-0.2,0.2-0.4,0.4-0.6,0.6c0,0-0.1,0.1-0.1,0.1c-0.2,0.2-0.3,0.3-0.5,0.5
	c-0.1,0.1-0.1,0.1-0.2,0.2c-0.2,0.2-0.3,0.3-0.4,0.5c-0.1,0.1-0.1,0.1-0.2,0.2c-0.1,0.1-0.3,0.3-0.4,0.4c-0.1,0.1-0.1,0.1-0.2,0.2
	c-0.1,0.1-0.2,0.3-0.4,0.4c0,0-0.1,0.1-0.1,0.1c-0.1,0.1-0.2,0.3-0.4,0.4c0,0-0.1,0.1-0.1,0.1c-0.1,0.1-0.2,0.2-0.3,0.3
	c0,0-0.1,0.1-0.1,0.1c-0.1,0.1-0.2,0.2-0.3,0.3c0,0-0.1,0.1-0.1,0.1c-0.1,0.1-0.2,0.2-0.3,0.4c-0.2,0.2-0.4,0.4-0.6,0.6
	c-0.1,0.1-0.1,0.1-0.2,0.2c-0.1,0.1-0.3,0.3-0.4,0.4c-0.1,0.1-0.2,0.1-0.2,0.2c-0.1,0.1-0.3,0.2-0.4,0.3c-0.1,0.1-0.2,0.1-0.2,0.2
	c-0.1,0.1-0.3,0.2-0.4,0.3c-0.1,0.1-0.1,0.1-0.2,0.2c-0.2,0.1-0.4,0.3-0.6,0.4c0,0-0.1,0-0.1,0c-0.2,0.1-0.4,0.3-0.7,0.4
	c-0.1,0-0.1,0.1-0.2,0.1c-0.2,0.1-0.3,0.2-0.5,0.3c-0.1,0-0.2,0.1-0.2,0.1c-0.2,0.1-0.3,0.2-0.5,0.2c-0.1,0-0.2,0.1-0.3,0.1
	c-0.2,0.1-0.3,0.1-0.5,0.2c-0.1,0-0.2,0.1-0.2,0.1c-0.2,0.1-0.4,0.1-0.6,0.2c0,0-0.1,0-0.1,0.1c-0.2,0.1-0.5,0.2-0.7,0.2
	c-0.1,0-0.1,0-0.2,0c-0.2,0-0.4,0.1-0.5,0.1c-0.1,0-0.2,0-0.3,0.1c-0.2,0-0.3,0.1-0.5,0.1c-0.1,0-0.2,0-0.3,0c-0.2,0-0.3,0-0.5,0.1
	c-0.1,0-0.2,0-0.3,0c-0.2,0-0.4,0-0.5,0c-0.1,0-0.1,0-0.2,0c-0.2,0-0.5,0-0.7,0c0,0,0,0,0,0c-0.2,0-0.4,0-0.6,0c-0.1,0-0.1,0-0.2,0
	c-0.2,0-0.3,0-0.5,0c-0.1,0-0.1,0-0.2,0c-0.1,0-0.3,0-0.4,0c-0.1,0-0.1,0-0.2,0c-0.2,0-0.3,0-0.5-0.1c0,0-0.1,0-0.1,0
	c-0.2,0-0.4-0.1-0.6-0.1c0,0-0.1,0-0.1,0c-0.2,0-0.3-0.1-0.5-0.1c-0.1,0-0.1,0-0.2-0.1c-0.1,0-0.3-0.1-0.4-0.1c-0.1,0-0.1,0-0.2-0.1
	c-0.1,0-0.3-0.1-0.4-0.2c-0.1,0-0.1,0-0.2-0.1c-0.2-0.1-0.4-0.2-0.6-0.2c0,0-0.1,0-0.1,0c-0.2-0.1-0.4-0.2-0.5-0.2
	c-0.1,0-0.1-0.1-0.2-0.1c-0.1-0.1-0.3-0.1-0.4-0.2c-0.1,0-0.1-0.1-0.2-0.1c-0.1-0.1-0.3-0.1-0.4-0.2c-0.1,0-0.1-0.1-0.2-0.1
	c-0.2-0.1-0.4-0.2-0.6-0.4c-3.5-2.2-5.7-5.4-6.3-9.5c-0.4-3.2,0.1-6.8,1.6-9.9C105.8,99,114.9,90,122.9,82c3.2-3.2,6.2-6.2,8.3-8.5
	c0.3-0.3,0.6-0.6,0.8-0.9c0.1-0.1,0.2-0.2,0.3-0.3c0.2-0.2,0.4-0.4,0.6-0.6c0.1-0.1,0.2-0.2,0.3-0.3c0.2-0.2,0.3-0.4,0.5-0.5
	c0.1-0.1,0.2-0.2,0.3-0.3c0.2-0.2,0.3-0.3,0.5-0.5c0.1-0.1,0.2-0.2,0.3-0.3c0.2-0.2,0.3-0.3,0.5-0.5c0.1-0.1,0.2-0.2,0.4-0.3
	c0.2-0.2,0.3-0.3,0.5-0.5c0.1-0.1,0.2-0.2,0.3-0.3c0.2-0.1,0.3-0.3,0.5-0.4c0.1-0.1,0.2-0.2,0.3-0.3c0.2-0.1,0.3-0.3,0.5-0.4
	c0.1-0.1,0.2-0.2,0.3-0.3c0.2-0.1,0.3-0.3,0.4-0.4c0.1-0.1,0.2-0.2,0.3-0.3c0.1-0.1,0.3-0.3,0.4-0.4c0.1-0.1,0.2-0.2,0.3-0.3
	c0.1-0.1,0.3-0.3,0.4-0.4c0.1-0.1,0.2-0.2,0.3-0.3c0.1-0.1,0.3-0.2,0.4-0.4c0.1-0.1,0.2-0.2,0.3-0.3c0.1-0.1,0.3-0.2,0.4-0.4
	c0.1-0.1,0.2-0.2,0.3-0.2c0.1-0.1,0.3-0.2,0.4-0.4c0.1-0.1,0.2-0.1,0.2-0.2c0.1-0.1,0.3-0.2,0.4-0.4c0.1-0.1,0.1-0.1,0.2-0.2
	c0,0,0,0,0.1,0c-0.1-0.2-0.2-0.3-0.3-0.5c-0.5,0.4-1.1,0.9-1.6,1.4l-1.1-1.2c0.6-0.5,1.2-1,1.7-1.5l0.6,0.7c-0.9-1.5-1.9-3-2.9-4.4
	c0,0,0,0,0,0c-0.1,0.1-0.2,0.1-0.3,0.2c0,0-0.1,0-0.1,0.1c-0.1,0.1-0.2,0.1-0.3,0.2c-0.1,0-0.1,0.1-0.2,0.1c-0.1,0-0.2,0.1-0.2,0.1
	c-0.1,0-0.2,0.1-0.2,0.1c-0.1,0-0.1,0.1-0.2,0.1c-0.1,0.1-0.2,0.1-0.3,0.2c-0.1,0-0.1,0.1-0.2,0.1c-0.1,0.1-0.2,0.1-0.4,0.2
	c0,0-0.1,0.1-0.1,0.1c-0.2,0.1-0.4,0.2-0.6,0.3c0,0,0,0-0.1,0c-0.2,0.1-0.3,0.2-0.5,0.3c-0.1,0-0.1,0.1-0.2,0.1
	c-0.1,0.1-0.3,0.2-0.4,0.2c-0.1,0-0.2,0.1-0.2,0.1c-0.1,0.1-0.3,0.2-0.4,0.2c-0.1,0-0.2,0.1-0.3,0.1c-0.1,0.1-0.3,0.2-0.4,0.2
	c-0.1,0.1-0.2,0.1-0.3,0.2c-0.1,0.1-0.3,0.2-0.4,0.3c-0.1,0.1-0.2,0.1-0.3,0.2c-0.2,0.1-0.3,0.2-0.5,0.3c-0.1,0.1-0.2,0.1-0.3,0.2
	c-0.2,0.1-0.4,0.2-0.5,0.3c-0.1,0-0.2,0.1-0.2,0.1c-0.3,0.2-0.5,0.3-0.8,0.5c-7.7,4.4-34.2,18.4-36.6,18.6c-0.7,0.1-1.8-0.1-3.3-0.2
	c-3.1-0.3-7.8-0.9-10.2,0.2c-6.5,2.8-9.9,6.9-9.9,12.1c0,3.7,3,6.9,3.7,7.6c0.3,0.1,0.6,0.2,0.9,0.2l-0.1,0.5l1.1,1l-1.3-0.1
	l-0.1,0.2c-0.3-0.1-0.7-0.2-1-0.3c0,0,0,0,0,0c0,0,0,0,0,0c0,0,0,0-0.1,0c0,0,0,0,0,0c0,0-0.1,0-0.1,0c0,0,0,0,0,0c0,0-0.1,0-0.1,0
	c0,0,0,0,0,0c0,0,0,0-0.1,0c0,0,0,0,0,0c0,0,0,0,0,0c1.1,1.3,4.6,5.1,12.1,11.2l1.2,1c8.8,7.2,14.2,11.5,17,22.9
	c1.4,5.8,2.4,10.3,3.1,13.3c0.1,0.3,0.1,0.6,0.2,0.9c12-3.4,22.6-10.3,30.5-20.1c7.8-9.6,12.5-21,13.5-33.3
	c-0.2,0.2-0.5,0.5-0.7,0.7C150.2,98.5,150.1,98.6,150,98.7"/>
<path class="st4" d="M147.9,97l-1.1-1.2c0.5-0.5,1.1-1,1.6-1.6l1.1,1.2C149,96,148.4,96.5,147.9,97 M144.5,100.1l-1.1-1.2
	c0.5-0.5,1.1-1,1.7-1.5l1.1,1.2C145.6,99.1,145.1,99.6,144.5,100.1 M141.2,103.2l-1.1-1.2c0.6-0.5,1.1-1,1.7-1.6l1.1,1.2
	C142.3,102.1,141.8,102.6,141.2,103.2 M139.6,68.9c0.6-0.5,1.1-1.1,1.7-1.5l1.1,1.2c-0.5,0.5-1.1,1-1.7,1.5L139.6,68.9z M138,106.3
	l-1.1-1.2c0.5-0.5,1.1-1.1,1.6-1.6l1.1,1.2C139,105.3,138.5,105.8,138,106.3 M136.3,72.1c0.6-0.5,1.1-1.1,1.6-1.6l1.1,1.2
	c-0.5,0.5-1.1,1-1.6,1.6L136.3,72.1z M134.7,109.5l-1.1-1.1c0.5-0.5,1.1-1.1,1.6-1.6l1.1,1.2C135.8,108.4,135.3,109,134.7,109.5
	 M133.1,75.3c0.5-0.5,1.1-1.1,1.6-1.6l1.1,1.1c-0.5,0.5-1.1,1.1-1.6,1.6L133.1,75.3z M131.5,112.7l-1.1-1.2c0.5-0.5,1.1-1.1,1.6-1.6
	l1.1,1.2C132.6,111.6,132,112.2,131.5,112.7 M123.1,112.4c-5,0-9.1-4.1-9.1-9.1c0-5,4.1-9.1,9.1-9.1s9.1,4.1,9.1,9.1
	C132.2,108.3,128.1,112.4,123.1,112.4 M128.2,115.8l-1.1-1.2c0.5-0.5,1.1-1,1.6-1.6l1.1,1.2C129.3,114.8,128.8,115.3,128.2,115.8
	 M124.9,118.9l-1.1-1.2c0.5-0.4,1.1-0.9,1.7-1.5l1.1,1.2C126,118,125.4,118.5,124.9,118.9 M121.2,121.7l-0.8-1.4
	c0.5-0.3,1.1-0.7,1.8-1.3l1,1.3C122.4,121,121.7,121.4,121.2,121.7 M117.3,122.8c-0.3,0-0.7,0-1-0.1l0.2-1.6c0.7,0.1,1.4,0.1,2-0.1
	l0.3,1.6C118.3,122.8,117.8,122.8,117.3,122.8 M113.9,122.2c-0.7-0.3-1.5-0.7-2.2-1.1l0.9-1.4c0.6,0.4,1.2,0.7,1.9,0.9L113.9,122.2z
	 M112.7,96.6l1.2,1.1c-0.5,0.6-1,1.1-1.5,1.7l-1.2-1.1C111.6,97.8,112.1,97.2,112.7,96.6 M109.8,119.6c-0.6-0.6-1.1-1.2-1.6-1.8
	l1.3-0.9c0.4,0.6,0.9,1.1,1.4,1.6L109.8,119.6z M107.1,115.6c-0.2-0.6-0.4-1.2-0.5-1.7c0-0.2-0.1-0.4-0.1-0.6l1.6-0.3
	c0,0.2,0.1,0.4,0.1,0.6c0.1,0.5,0.2,1,0.4,1.5L107.1,115.6z M105.7,108.6l1.6,0c0,0.6,0.1,1.3,0.2,2.1L106,111
	C105.8,110.1,105.7,109.3,105.7,108.6 M107,103.9l1.4,0.8c-0.4,0.7-0.6,1.3-0.8,1.9l-1.6-0.5C106.3,105.4,106.6,104.7,107,103.9
	 M109.7,100.1l1.3,1c-0.5,0.6-0.9,1.2-1.3,1.8l-1.3-0.9C108.7,101.3,109.1,100.7,109.7,100.1 M114.9,94.3c0.3-0.3,0.6-0.7,1-1
	l1.2,1.1c-0.3,0.3-0.7,0.7-1,1c-0.2,0.2-0.4,0.4-0.6,0.6l-1.2-1.1C114.5,94.8,114.7,94.6,114.9,94.3 M119,90.1l1.2,1.1
	c-0.5,0.6-1.1,1.1-1.6,1.6l-1.2-1.1C117.9,91.2,118.5,90.6,119,90.1 M122.1,86.8l1.2,1.1c-0.5,0.6-1,1.1-1.6,1.6l-1.2-1.1
	C121.1,87.9,121.6,87.4,122.1,86.8 M125.2,83.5l1.2,1.1l-1.6,1.6l-1.2-1.1L125.2,83.5z M128.4,80.2l1.2,1.1c-0.5,0.5-1,1.1-1.6,1.6
	l-1.2-1.1C127.3,81.3,127.8,80.8,128.4,80.2 M131.5,76.9l1.2,1.1c-0.5,0.5-1,1.1-1.6,1.6l-1.2-1.1C130.4,78,131,77.5,131.5,76.9
	 M150,92.7c0.4-0.4,0.8-0.8,1.2-1.2c-0.1-8.8-2.2-17.5-6-25.4c-0.4,0.3-0.8,0.6-1.2,1l-1-1.2c0.5-0.4,1-0.9,1.5-1.2
	c-0.2-0.3-0.3-0.7-0.5-1c-0.1,0.1-0.2,0.1-0.2,0.2c-0.1,0.1-0.2,0.2-0.3,0.3c-0.1,0.1-0.2,0.2-0.4,0.3c-0.1,0.1-0.2,0.1-0.3,0.2
	c-0.2,0.2-0.4,0.3-0.6,0.5c0,0-0.1,0.1-0.1,0.1c-0.2,0.2-0.5,0.4-0.7,0.6c-0.1,0.1-0.1,0.1-0.2,0.2c-0.2,0.1-0.3,0.3-0.5,0.5
	c-0.1,0.1-0.2,0.2-0.3,0.2c-0.2,0.1-0.3,0.3-0.5,0.4c-0.1,0.1-0.2,0.2-0.3,0.3c-0.2,0.1-0.3,0.3-0.5,0.4c-0.1,0.1-0.2,0.2-0.3,0.3
	c-0.2,0.1-0.3,0.3-0.5,0.4c-0.1,0.1-0.2,0.2-0.3,0.3c-0.2,0.1-0.3,0.3-0.5,0.4c-0.1,0.1-0.2,0.2-0.3,0.3c-0.2,0.1-0.3,0.3-0.5,0.5
	c-0.1,0.1-0.2,0.2-0.3,0.3c-0.2,0.2-0.3,0.3-0.5,0.5c-0.1,0.1-0.2,0.2-0.3,0.3c-0.2,0.2-0.3,0.3-0.5,0.5c-0.1,0.1-0.2,0.2-0.3,0.3
	c-0.2,0.2-0.3,0.3-0.5,0.5c-0.1,0.1-0.2,0.2-0.3,0.3c-0.2,0.2-0.4,0.4-0.6,0.6c-0.1,0.1-0.2,0.2-0.3,0.3c-0.3,0.3-0.6,0.6-0.8,0.9
	c-2.2,2.3-5.2,5.3-8.4,8.5c-7.5,7.5-16.9,16.9-18.5,20.5c-0.4,0.8-0.7,1.8-1,2.8c-0.4,1.4-0.6,3-0.6,4.6c0,0.2,0,0.5,0,0.7
	c0.2,3.2,1.5,6.4,4.9,8.8c0.2,0.2,0.5,0.3,0.8,0.5c9,5.5,15.9,0,18.4-2.6c0.1-0.1,0.2-0.2,0.4-0.4c0,0,0.1-0.1,0.1-0.1
	c0.1-0.1,0.2-0.2,0.3-0.3c0.1-0.1,0.2-0.2,0.2-0.2c0.1-0.1,0.1-0.1,0.2-0.2c0.3-0.3,0.6-0.6,0.9-0.9c0.1-0.1,0.1-0.1,0.2-0.2
	c0.1-0.1,0.2-0.2,0.4-0.4c0.1-0.1,0.1-0.1,0.2-0.2c0.1-0.1,0.3-0.3,0.4-0.4c0.1-0.1,0.1-0.1,0.2-0.2c0.1-0.1,0.3-0.3,0.4-0.4
	c0.1-0.1,0.1-0.1,0.2-0.2c0.2-0.2,0.3-0.3,0.5-0.5c0.1-0.1,0.1-0.1,0.2-0.2c0.1-0.2,0.3-0.3,0.5-0.5c0.1-0.1,0.2-0.2,0.3-0.3
	c0.1-0.1,0.3-0.3,0.5-0.5c0.1-0.1,0.2-0.2,0.3-0.3c0.2-0.2,0.3-0.3,0.5-0.5c0.1-0.1,0.2-0.2,0.3-0.3c0.2-0.2,0.4-0.3,0.5-0.5
	c0.1-0.1,0.2-0.2,0.2-0.2c0.2-0.2,0.3-0.3,0.5-0.5c0.1-0.1,0.2-0.2,0.3-0.3c0.1-0.1,0.3-0.3,0.4-0.4c0.1-0.1,0.3-0.3,0.4-0.4
	c0.1-0.1,0.2-0.2,0.4-0.4c0.2-0.2,0.3-0.3,0.5-0.5c0.1-0.1,0.3-0.3,0.4-0.4c0.1-0.1,0.3-0.3,0.4-0.4c0.1-0.1,0.3-0.3,0.4-0.4
	c0.1-0.1,0.3-0.3,0.4-0.4c0.1-0.1,0.3-0.3,0.4-0.4c0.1-0.1,0.3-0.3,0.4-0.4c0.1-0.1,0.3-0.3,0.4-0.4c0.2-0.2,0.3-0.3,0.5-0.5
	c0.1-0.1,0.3-0.2,0.4-0.4c0.2-0.2,0.3-0.3,0.5-0.5c0.1-0.1,0.2-0.2,0.4-0.4c0.2-0.2,0.3-0.3,0.5-0.5c0.1-0.1,0.2-0.2,0.3-0.3
	c0.2-0.2,0.3-0.3,0.5-0.5c0.1-0.1,0.3-0.3,0.4-0.4c0.2-0.2,0.3-0.3,0.5-0.5c0.1-0.1,0.3-0.2,0.4-0.4c0.2-0.2,0.3-0.3,0.5-0.5
	c0.1-0.1,0.2-0.2,0.4-0.3c0.2-0.2,0.3-0.3,0.5-0.5c0.1-0.1,0.2-0.2,0.4-0.4c0.2-0.1,0.3-0.3,0.5-0.4c0.1-0.1,0.2-0.2,0.4-0.3
	c0.2-0.2,0.3-0.3,0.5-0.4c0.1-0.1,0.2-0.2,0.3-0.3c0.2-0.1,0.3-0.3,0.4-0.4c0.1-0.1,0.2-0.2,0.3-0.3c0.1-0.1,0.3-0.3,0.4-0.4
	c0.1-0.1,0.2-0.2,0.3-0.3c0.1-0.1,0.3-0.3,0.4-0.4c0.1-0.1,0.2-0.2,0.3-0.3c0.1-0.1,0.2-0.2,0.3-0.3c0-0.5,0-1.1,0-1.6
	c0,0-0.1,0.1-0.1,0.1L150,92.7z"/>
<path class="st9" d="M126.8,77.3l-1.2-1.1c-0.5,0.6-1.1,1.1-1.6,1.6l1.1,1.2C125.7,78.4,126.2,77.9,126.8,77.3"/>
<path class="st9" d="M123.5,80.5l-1.1-1.2c-0.5,0.5-1.1,1-1.7,1.5l1.1,1.2C122.4,81.6,123,81.1,123.5,80.5"/>
<path class="st9" d="M129.9,74l-1.2-1.1c-0.5,0.5-1,1.1-1.5,1.7l1.2,1.1C128.9,75.1,129.4,74.6,129.9,74"/>
<path class="st9" d="M133,70.7l-1.2-1.1c-0.5,0.5-0.9,1-1.6,1.7l1.2,1.1C131.9,71.8,132.4,71.2,133,70.7"/>
<path class="st9" d="M139.5,64.6l-1.1-1.2c-0.6,0.5-1.1,1-1.7,1.5l1.1,1.2C138.4,65.6,139,65.1,139.5,64.6"/>
<path class="st9" d="M136.1,67.6l-1.1-1.2c-0.6,0.5-1.1,1-1.7,1.6l1.1,1.2C135.1,68.6,135.6,68.1,136.1,67.6"/>
<path class="st9" d="M105,93.8l-0.8-1.4c-0.6,0.4-1.3,0.7-2,1.1l0.8,1.4C103.7,94.5,104.4,94.2,105,93.8"/>
<path class="st9" d="M77.1,102.5c0.9,0.2,1.6,0.4,2.3,0.5l0.3-1.6c-0.6-0.1-1.3-0.2-2.2-0.4L77.1,102.5z"/>
<path class="st9" d="M86.1,101.1l0.4,1.6c0.7-0.2,1.4-0.4,2.2-0.7l-0.6-1.5C87.4,100.7,86.7,100.9,86.1,101.1"/>
<path class="st9" d="M81.8,101.6l0,1.6c0.1,0,0.3,0,0.4,0c0.7,0,1.3,0,2-0.1l-0.2-1.6C83.2,101.6,82.5,101.6,81.8,101.6"/>
<path class="st9" d="M120.1,83.6l-1-1.2c-0.6,0.5-1.2,0.9-1.7,1.4l1,1.3C118.9,84.5,119.5,84,120.1,83.6"/>
<path class="st9" d="M112.8,89l-0.9-1.3c-0.6,0.4-1.2,0.8-1.9,1.2l0.9,1.4C111.5,89.8,112.2,89.4,112.8,89"/>
<path class="st9" d="M90.2,99.6l0.6,1.5c0.7-0.3,1.3-0.6,2.1-0.9l-0.7-1.5C91.5,99,90.8,99.3,90.2,99.6"/>
<path class="st9" d="M116.5,86.4l-1-1.3c-0.6,0.4-1.2,0.9-1.8,1.3l0.9,1.3C115.3,87.3,115.9,86.8,116.5,86.4"/>
<path class="st9" d="M108.9,91.5l-0.8-1.4c-0.6,0.4-1.3,0.8-1.9,1.2l0.8,1.4C107.7,92.3,108.3,91.9,108.9,91.5"/>
<path class="st9" d="M94.3,97.7l0.7,1.5c0.6-0.3,1.3-0.7,2-1l-0.7-1.4C95.6,97,94.9,97.4,94.3,97.7"/>
<path class="st9" d="M98.6,95.5l-0.3,0.1l0.8,1.4l0.3-0.1c0.6-0.3,1.2-0.6,1.7-0.9l-0.8-1.4C99.7,94.9,99.2,95.2,98.6,95.5"/>
<path class="st9" d="M78.4,114.7c0.6,0.5,1.1,1,1.7,1.5l1.1-1.2c-0.5-0.5-1.1-1-1.7-1.5L78.4,114.7z"/>
<path class="st9" d="M90.7,124.9c-0.5-0.6-1-1.2-1.5-1.8l-1.2,1.1c0.5,0.6,1,1.1,1.4,1.7L90.7,124.9z"/>
<path class="st9" d="M83.3,119.4l1.1-1.2c-0.3-0.3-0.6-0.6-0.9-0.9c-0.2-0.2-0.5-0.4-0.7-0.7l-1.1,1.2c0.2,0.2,0.5,0.5,0.7,0.7
	C82.6,118.7,82.9,119,83.3,119.4"/>
<path class="st9" d="M77.8,112c-0.6-0.5-1.2-1-1.7-1.5l-1.1,1.2c0.5,0.5,1.1,1,1.7,1.5L77.8,112z"/>
<path class="st9" d="M86.5,122.5l1.2-1.1c-0.5-0.5-1-1.1-1.6-1.6l-1.1,1.1C85.5,121.5,86,122,86.5,122.5"/>
<path class="st9" d="M78.4,123c0.5,0.6,1,1.1,1.5,1.7l1.2-1c-0.5-0.6-1-1.2-1.5-1.7L78.4,123z"/>
<path class="st9" d="M76.4,118.6l-1.1,1.2c0.5,0.5,1.1,1,1.6,1.6l1.2-1.1C77.5,119.6,76.9,119.1,76.4,118.6"/>
<path class="st9" d="M151.2,95.4c-0.1,0.1-0.2,0.2-0.3,0.3c-0.1,0.1-0.2,0.2-0.3,0.3c-0.1,0.1-0.3,0.3-0.4,0.4
	c-0.1,0.1-0.2,0.2-0.3,0.3c-0.1,0.1-0.3,0.3-0.4,0.4c-0.1,0.1-0.2,0.2-0.3,0.3c-0.1,0.1-0.3,0.3-0.4,0.4c-0.1,0.1-0.2,0.2-0.3,0.3
	c-0.2,0.1-0.3,0.3-0.5,0.4c-0.1,0.1-0.2,0.2-0.4,0.3c-0.2,0.1-0.3,0.3-0.5,0.4c-0.1,0.1-0.2,0.2-0.4,0.4c-0.2,0.2-0.3,0.3-0.5,0.5
	c-0.1,0.1-0.2,0.2-0.4,0.3c-0.2,0.2-0.3,0.3-0.5,0.5c-0.1,0.1-0.3,0.2-0.4,0.4c-0.2,0.2-0.3,0.3-0.5,0.5c-0.1,0.1-0.3,0.3-0.4,0.4
	c-0.2,0.2-0.3,0.3-0.5,0.5c-0.1,0.1-0.2,0.2-0.3,0.3c-0.2,0.2-0.3,0.3-0.5,0.5c-0.1,0.1-0.2,0.2-0.4,0.4c-0.2,0.2-0.3,0.3-0.5,0.5
	c-0.1,0.1-0.3,0.2-0.4,0.4c-0.2,0.2-0.3,0.3-0.5,0.5c-0.1,0.1-0.3,0.3-0.4,0.4c-0.1,0.1-0.3,0.3-0.4,0.4c-0.1,0.1-0.3,0.3-0.4,0.4
	c-0.1,0.1-0.3,0.3-0.4,0.4c-0.1,0.1-0.3,0.3-0.4,0.4c-0.1,0.1-0.3,0.3-0.4,0.4c-0.1,0.1-0.3,0.3-0.4,0.4c-0.2,0.2-0.3,0.3-0.5,0.5
	c-0.1,0.1-0.2,0.2-0.4,0.4c-0.1,0.1-0.3,0.3-0.4,0.4c-0.1,0.1-0.3,0.3-0.4,0.4c-0.1,0.1-0.2,0.2-0.3,0.3c-0.2,0.2-0.3,0.3-0.5,0.5
	c-0.1,0.1-0.2,0.2-0.2,0.2c-0.2,0.2-0.4,0.4-0.5,0.5c-0.1,0.1-0.2,0.2-0.3,0.3c-0.2,0.2-0.3,0.3-0.5,0.5c-0.1,0.1-0.2,0.2-0.3,0.3
	c-0.2,0.2-0.3,0.3-0.5,0.5c-0.1,0.1-0.2,0.2-0.3,0.3c-0.2,0.2-0.3,0.3-0.5,0.5c-0.1,0.1-0.1,0.1-0.2,0.2c-0.2,0.2-0.3,0.3-0.5,0.5
	c-0.1,0.1-0.1,0.1-0.2,0.2c-0.1,0.1-0.3,0.3-0.4,0.4c-0.1,0.1-0.1,0.1-0.2,0.2c-0.1,0.1-0.3,0.3-0.4,0.4c-0.1,0.1-0.1,0.1-0.2,0.2
	c-0.1,0.1-0.2,0.2-0.4,0.4c-0.1,0.1-0.1,0.1-0.2,0.2c-0.3,0.3-0.6,0.6-0.9,0.9c-0.1,0.1-0.1,0.1-0.2,0.2c-0.1,0.1-0.2,0.2-0.2,0.2
	c-0.1,0.1-0.2,0.2-0.3,0.3c0,0-0.1,0.1-0.1,0.1c-0.1,0.1-0.2,0.3-0.4,0.4c-2.5,2.6-9.4,8.1-18.4,2.6c-0.3-0.2-0.5-0.3-0.8-0.5
	c-3.4-2.4-4.6-5.6-4.9-8.8c0-0.2,0-0.5,0-0.7c0-1.6,0.2-3.2,0.6-4.6c0.3-1,0.6-2,1-2.8c1.7-3.6,11-13,18.5-20.5
	c3.2-3.2,6.2-6.2,8.4-8.5c0.3-0.3,0.5-0.6,0.8-0.9c0.1-0.1,0.2-0.2,0.3-0.3c0.2-0.2,0.4-0.4,0.6-0.6c0.1-0.1,0.2-0.2,0.3-0.3
	c0.2-0.2,0.3-0.3,0.5-0.5c0.1-0.1,0.2-0.2,0.3-0.3c0.2-0.2,0.3-0.3,0.5-0.5c0.1-0.1,0.2-0.2,0.3-0.3c0.2-0.2,0.3-0.3,0.5-0.5
	c0.1-0.1,0.2-0.2,0.3-0.3c0.2-0.2,0.3-0.3,0.5-0.5c0.1-0.1,0.2-0.2,0.3-0.3c0.2-0.1,0.3-0.3,0.5-0.4c0.1-0.1,0.2-0.2,0.3-0.3
	c0.2-0.1,0.3-0.3,0.5-0.4c0.1-0.1,0.2-0.2,0.3-0.3c0.2-0.1,0.3-0.3,0.5-0.4c0.1-0.1,0.2-0.2,0.3-0.3c0.2-0.1,0.3-0.3,0.5-0.4
	c0.1-0.1,0.2-0.2,0.3-0.2c0.2-0.2,0.3-0.3,0.5-0.5c0.1-0.1,0.1-0.1,0.2-0.2c0.2-0.2,0.5-0.4,0.7-0.6c0,0,0.1-0.1,0.1-0.1
	c0.2-0.2,0.4-0.3,0.6-0.5c0.1-0.1,0.2-0.2,0.3-0.2c0.1-0.1,0.3-0.2,0.4-0.3c0.1-0.1,0.2-0.2,0.3-0.3c0.1-0.1,0.2-0.1,0.2-0.2
	c0.2,0.3,0.3,0.7,0.5,1c-0.5,0.4-1,0.8-1.5,1.2l1,1.2c0.4-0.4,0.8-0.7,1.2-1c3.8,7.9,5.9,16.6,6,25.4c-0.4,0.4-0.8,0.8-1.2,1.2
	l1.1,1.2c0,0,0.1-0.1,0.1-0.1C151.3,94.3,151.2,94.8,151.2,95.4 M137.6,131c-8,9.7-18.5,16.7-30.5,20.1c-0.1-0.3-0.1-0.6-0.2-0.9
	c-0.7-3-1.6-7.5-3.1-13.3c-2.9-11.4-8.2-15.7-17-22.9l-1.2-1c-7.5-6.1-11-9.9-12.1-11.2c0,0,0,0,0,0c0,0,0,0,0,0c0,0,0,0,0.1,0
	c0,0,0,0,0,0c0,0,0.1,0,0.1,0c0,0,0,0,0,0c0,0,0.1,0,0.1,0c0,0,0,0,0,0c0,0,0,0,0.1,0c0,0,0,0,0,0c0,0,0,0,0,0
	c0.3,0.1,0.7,0.2,1,0.3l0.1-0.2l1.3,0.1l-1.1-1l0.1-0.5c-0.3-0.1-0.6-0.2-0.9-0.2c-0.7-0.7-3.7-3.9-3.7-7.6c0-5.2,3.3-9.3,9.9-12.1
	c2.4-1,7.1-0.5,10.2-0.2c1.5,0.2,2.6,0.3,3.3,0.2c2.3-0.2,28.9-14.1,36.6-18.6c0.3-0.2,0.5-0.3,0.8-0.5c0.1,0,0.2-0.1,0.2-0.1
	c0.2-0.1,0.4-0.2,0.5-0.3c0.1-0.1,0.2-0.1,0.3-0.2c0.2-0.1,0.3-0.2,0.5-0.3c0.1-0.1,0.2-0.1,0.3-0.2c0.1-0.1,0.3-0.2,0.4-0.3
	c0.1-0.1,0.2-0.1,0.3-0.2c0.1-0.1,0.3-0.2,0.4-0.2c0.1,0,0.2-0.1,0.3-0.1c0.1-0.1,0.3-0.2,0.4-0.2c0.1,0,0.2-0.1,0.2-0.1
	c0.1-0.1,0.3-0.2,0.4-0.2c0.1,0,0.1-0.1,0.2-0.1c0.2-0.1,0.3-0.2,0.5-0.3c0,0,0,0,0.1,0c0.2-0.1,0.4-0.2,0.6-0.3
	c0,0,0.1-0.1,0.1-0.1c0.1-0.1,0.3-0.2,0.4-0.2c0.1,0,0.1-0.1,0.2-0.1c0.1-0.1,0.2-0.1,0.3-0.2c0.1,0,0.1-0.1,0.2-0.1
	c0.1,0,0.2-0.1,0.2-0.1c0.1,0,0.2-0.1,0.2-0.1c0.1,0,0.1-0.1,0.2-0.1c0.1-0.1,0.2-0.1,0.3-0.2c0,0,0.1,0,0.1-0.1
	c0.1-0.1,0.2-0.1,0.3-0.2c0,0,0,0,0,0c1,1.4,2,2.9,2.9,4.4l-0.6-0.7c-0.5,0.5-1.1,1-1.7,1.5l1,1.2c0.6-0.5,1.1-0.9,1.6-1.4
	c0.1,0.2,0.2,0.3,0.3,0.5c0,0,0,0-0.1,0c-0.1,0.1-0.1,0.1-0.2,0.2c-0.1,0.1-0.3,0.2-0.4,0.4c-0.1,0.1-0.2,0.1-0.2,0.2
	c-0.1,0.1-0.3,0.2-0.4,0.4c-0.1,0.1-0.2,0.2-0.3,0.2c-0.1,0.1-0.3,0.2-0.4,0.4c-0.1,0.1-0.2,0.2-0.3,0.3c-0.1,0.1-0.3,0.2-0.4,0.4
	c-0.1,0.1-0.2,0.2-0.3,0.3c-0.1,0.1-0.3,0.3-0.4,0.4c-0.1,0.1-0.2,0.2-0.3,0.3c-0.1,0.1-0.3,0.3-0.4,0.4c-0.1,0.1-0.2,0.2-0.3,0.3
	c-0.1,0.1-0.3,0.3-0.4,0.4c-0.1,0.1-0.2,0.2-0.3,0.3c-0.2,0.1-0.3,0.3-0.5,0.4c-0.1,0.1-0.2,0.2-0.3,0.3c-0.2,0.1-0.3,0.3-0.5,0.4
	c-0.1,0.1-0.2,0.2-0.3,0.3c-0.2,0.1-0.3,0.3-0.5,0.5c-0.1,0.1-0.2,0.2-0.4,0.3c-0.2,0.2-0.3,0.3-0.5,0.5c-0.1,0.1-0.2,0.2-0.3,0.3
	c-0.2,0.2-0.3,0.3-0.5,0.5c-0.1,0.1-0.2,0.2-0.3,0.3c-0.2,0.2-0.3,0.4-0.5,0.5c-0.1,0.1-0.2,0.2-0.3,0.3c-0.2,0.2-0.4,0.4-0.6,0.6
	c-0.1,0.1-0.2,0.2-0.3,0.3c-0.3,0.3-0.6,0.6-0.8,0.9c-2.2,2.3-5.2,5.3-8.3,8.5c-8,8-17.1,17.1-18.8,20.9c-1.4,3.1-2,6.7-1.6,9.9
	c0.6,4.1,2.7,7.3,6.3,9.5c0.2,0.1,0.4,0.2,0.6,0.4c0.1,0,0.1,0.1,0.2,0.1c0.1,0.1,0.3,0.2,0.4,0.2c0.1,0,0.1,0.1,0.2,0.1
	c0.1,0.1,0.3,0.1,0.4,0.2c0.1,0,0.1,0.1,0.2,0.1c0.2,0.1,0.4,0.2,0.5,0.2c0,0,0.1,0,0.1,0c0.2,0.1,0.4,0.2,0.6,0.2
	c0.1,0,0.1,0,0.2,0.1c0.2,0.1,0.3,0.1,0.5,0.2c0.1,0,0.1,0,0.2,0.1c0.1,0,0.3,0.1,0.4,0.1c0.1,0,0.1,0,0.2,0.1
	c0.2,0,0.3,0.1,0.5,0.1c0,0,0.1,0,0.1,0c0.2,0,0.4,0.1,0.6,0.1c0,0,0.1,0,0.1,0c0.2,0,0.3,0.1,0.5,0.1c0.1,0,0.1,0,0.2,0
	c0.1,0,0.3,0,0.4,0c0.1,0,0.1,0,0.2,0c0.2,0,0.3,0,0.5,0c0.1,0,0.1,0,0.2,0c0.2,0,0.4,0,0.6,0c0,0,0,0,0,0c0.2,0,0.5,0,0.7,0
	c0.1,0,0.1,0,0.2,0c0.2,0,0.4,0,0.5,0c0.1,0,0.2,0,0.3,0c0.2,0,0.3,0,0.5-0.1c0.1,0,0.2,0,0.3,0c0.2,0,0.3-0.1,0.5-0.1
	c0.1,0,0.2,0,0.3-0.1c0.2,0,0.4-0.1,0.5-0.1c0.1,0,0.1,0,0.2,0c0.2-0.1,0.5-0.1,0.7-0.2c0,0,0.1,0,0.1-0.1c0.2-0.1,0.4-0.1,0.6-0.2
	c0.1,0,0.2-0.1,0.2-0.1c0.2-0.1,0.3-0.1,0.5-0.2c0.1,0,0.2-0.1,0.3-0.1c0.2-0.1,0.3-0.1,0.5-0.2c0.1,0,0.2-0.1,0.2-0.1
	c0.2-0.1,0.3-0.2,0.5-0.3c0.1,0,0.1-0.1,0.2-0.1c0.2-0.1,0.5-0.3,0.7-0.4c0,0,0.1,0,0.1-0.1c0.2-0.1,0.4-0.3,0.6-0.4
	c0.1-0.1,0.1-0.1,0.2-0.2c0.1-0.1,0.3-0.2,0.4-0.3c0.1-0.1,0.2-0.1,0.2-0.2c0.1-0.1,0.3-0.2,0.4-0.3c0.1-0.1,0.2-0.1,0.2-0.2
	c0.1-0.1,0.3-0.3,0.4-0.4c0.1-0.1,0.1-0.1,0.2-0.2c0.2-0.2,0.4-0.4,0.6-0.6c0.1-0.1,0.2-0.2,0.3-0.4c0,0,0.1-0.1,0.1-0.1
	c0.1-0.1,0.2-0.2,0.3-0.3c0,0,0.1-0.1,0.1-0.1c0.1-0.1,0.2-0.2,0.3-0.3c0,0,0.1-0.1,0.1-0.1c0.1-0.1,0.2-0.2,0.4-0.4
	c0,0,0.1-0.1,0.1-0.1c0.1-0.1,0.2-0.2,0.4-0.4c0.1-0.1,0.1-0.1,0.2-0.2c0.1-0.1,0.3-0.3,0.4-0.4c0,0,0.1-0.1,0.2-0.2
	c0.1-0.1,0.3-0.3,0.4-0.4c0.1-0.1,0.1-0.1,0.2-0.2c0.2-0.2,0.3-0.3,0.5-0.5c0,0,0.1-0.1,0.1-0.1c0.2-0.2,0.4-0.4,0.6-0.6
	c0,0,0.1-0.1,0.1-0.1c0.2-0.2,0.4-0.4,0.6-0.6c0,0,0.1-0.1,0.1-0.1c0.2-0.2,0.4-0.4,0.6-0.6c0,0,0.1-0.1,0.1-0.1
	c0.6-0.6,1.3-1.3,2-2c0.9-0.9,1.7-1.7,2.6-2.6c0.3-0.3,0.6-0.6,1-0.9c0,0,0.1-0.1,0.1-0.1c0.2-0.2,0.5-0.5,0.7-0.7
	c0.1-0.1,0.1-0.1,0.2-0.2c0.2-0.2,0.4-0.4,0.7-0.7c0.1-0.1,0.1-0.1,0.2-0.2c0.2-0.2,0.4-0.4,0.6-0.6c0.1-0.1,0.2-0.2,0.2-0.2
	c0.2-0.2,0.4-0.4,0.6-0.6c0.1-0.1,0.2-0.2,0.3-0.3c0.2-0.2,0.4-0.4,0.5-0.5c0.1-0.1,0.2-0.2,0.3-0.3c0.2-0.2,0.4-0.4,0.6-0.5
	c0.1-0.1,0.2-0.2,0.3-0.3c0.2-0.2,0.4-0.4,0.5-0.5c0.1-0.1,0.2-0.2,0.3-0.3c0.2-0.2,0.3-0.3,0.5-0.5c0.1-0.1,0.2-0.2,0.3-0.3
	c0.2-0.2,0.3-0.3,0.5-0.5c0.1-0.1,0.2-0.2,0.3-0.3c0.2-0.2,0.3-0.3,0.5-0.5c0.1-0.1,0.2-0.2,0.3-0.3c0.2-0.2,0.3-0.3,0.5-0.5
	c0.1-0.1,0.2-0.2,0.3-0.3c0.2-0.2,0.5-0.5,0.7-0.7C150,110,145.4,121.5,137.6,131 M104.9,151.7c-1-5.4-2.8-14.1-4.4-18.2
	c-2.1-5.4-5.6-10.3-10.7-14.8c6.3,5.3,10.1,9.6,12.4,18.7c1.4,5.8,2.4,10.3,3.1,13.2c0.1,0.3,0.1,0.7,0.2,1
	C105.3,151.6,105.1,151.6,104.9,151.7 M102.5,152.2c0-0.1,0-0.1,0-0.2l-1.6,0.4c0,0,0,0.1,0,0.1c-3.5,0.6-7,0.9-10.5,0.9
	c-7.3,0-14.4-1.3-21.2-3.8c0,0,0,0,0,0c0.1,0,0.2-0.1,0.3-0.1c0,0,0,0,0,0c0.1,0,0.2-0.1,0.2-0.1c0,0,0.1,0,0.1,0
	c0.1,0,0.1,0,0.2-0.1c0,0,0,0,0.1,0c0.1,0,0.1,0,0.2-0.1c0,0,0,0,0,0c0.1,0,0.1,0,0.2-0.1c0,0,0,0,0.1,0c0,0,0.1,0,0.1,0
	c0,0,0,0,0,0c0,0,0,0,0.1,0c0,0,0,0,0,0c0,0,0,0,0,0l0.5-0.1l0.1-0.4c0-0.1,0.6-1.7,1.2-4.3c0.1-0.3,0.2-0.6,0.2-1
	c0.1-0.3,0.2-0.7,0.2-1.1c0.5-2.2,1-4.8,1.3-7.6c0.6-5.5,0.2-10.7-1-15c-0.1-0.3-0.2-0.9-0.2-1.6c0.1,0.1,0.2,0.2,0.3,0.3l1.1-1.2
	c-0.7-0.6-1.2-1-1.5-1.2c-0.1-1.7-0.1-3.7-0.1-5.4c0-0.2,0-0.3,0-0.5c0.1,0.1,0.2,0.2,0.3,0.2l1.1-1.2c-0.6-0.5-1.1-1-1.4-1.2
	c0-0.1,0-0.1,0-0.2c0,0,0,0,0,0c1.5,1.5,4.5,4.1,9.9,7.9C91,120.9,96.3,127.1,99,134c1.6,4.1,3.5,13.4,4.3,18
	C103.1,152.1,102.8,152.1,102.5,152.2 M73,104.8c0,0,0-0.1,0-0.1c0-0.1,0-0.1,0-0.2c0,0,0-0.1,0-0.1c0-0.1,0-0.1,0-0.2
	c0,0,0-0.1,0-0.1c0-0.1,0-0.2,0-0.3c0-0.1,0-0.1,0-0.2c1.6,1.8,5.2,5.3,11.6,10.6l1.2,1c0.2,0.1,0.3,0.3,0.5,0.4
	c-0.8-0.6-1.6-1.2-2.4-1.7c-8-5.6-10.4-8.4-10.9-9C73,104.9,73,104.9,73,104.8 M152.9,93.8c0-0.4,0-0.8,0-1.2
	c0-10.5-2.7-20.8-7.7-30l0,0l-0.3-0.6l-0.5-0.8l0,0c-1.1-1.8-2.2-3.6-3.4-5.3l0,0l-0.5-0.7l-0.4-0.6l0,0l-0.6,0.4
	c-0.2,0.1-0.5,0.3-0.8,0.5c-0.2,0.2-0.5,0.3-0.8,0.5c0,0-0.1,0-0.1,0.1c-0.1,0.1-0.2,0.1-0.3,0.2c-0.1,0-0.1,0.1-0.2,0.1
	c-0.1,0.1-0.2,0.1-0.3,0.2c-0.1,0-0.1,0.1-0.2,0.1c-0.1,0.1-0.2,0.1-0.4,0.2c-0.1,0-0.1,0.1-0.2,0.1c-0.1,0.1-0.3,0.2-0.4,0.2
	c-0.1,0-0.1,0.1-0.2,0.1c-0.4,0.2-0.8,0.5-1.2,0.7c0,0-0.1,0-0.1,0.1c-0.2,0.1-0.3,0.2-0.5,0.3c-0.1,0-0.1,0.1-0.2,0.1
	c-0.2,0.1-0.3,0.2-0.5,0.3c-0.1,0-0.1,0.1-0.2,0.1c-0.2,0.1-0.3,0.2-0.5,0.3c-0.1,0-0.2,0.1-0.2,0.1c-0.2,0.1-0.3,0.2-0.5,0.3
	c-0.1,0-0.2,0.1-0.2,0.1c-0.2,0.1-0.4,0.2-0.6,0.3c-0.1,0-0.1,0.1-0.2,0.1c-0.3,0.2-0.5,0.3-0.8,0.5c-9.5,5.4-34,18.1-35.9,18.3
	c-0.5,0-1.7-0.1-3-0.2c-3.5-0.4-8.2-0.9-11,0.3c-0.2,0.1-0.4,0.2-0.7,0.3c-5.2,2.4-8.5,5.6-9.7,9.6c-0.1,0.3-0.2,0.7-0.3,1
	c-0.2,0.9-0.3,1.7-0.3,2.7c0,3.5,2.1,6.5,3.4,7.9c-0.2,0.1-0.3,0.2-0.4,0.4c-0.7,0.7-1,1.8-0.8,3.2c0,0.5,0.1,1.1,0.1,1.9
	c0,0.3,0,0.5,0,0.8c0,1.1,0,2.4,0.1,3.7c0,1.2,0,2.5,0,3.7c0,0.7,0,1.4,0.1,2c0,0.2,0,0.5,0,0.7c0.1,1.4,0.2,2.6,0.4,3.2
	c0.1,0.3,0.1,0.5,0.2,0.8c0.7,2.7,1,5.6,1,8.8c0,0.6,0,1.3,0,1.9c0,1-0.1,1.9-0.2,2.9c-0.7,6.2-2.3,11.6-2.7,13.2
	c-0.1,0-0.2,0-0.3,0.1c0,0-0.1,0-0.1,0c-0.1,0-0.1,0-0.2,0.1c0,0-0.1,0-0.1,0c-0.1,0-0.2,0-0.2,0.1c-0.1,0-0.1,0-0.2,0.1
	c-0.1,0-0.2,0.1-0.2,0.1c-0.1,0-0.1,0-0.2,0.1c-0.1,0-0.2,0.1-0.3,0.1c-0.1,0-0.1,0-0.2,0.1c-0.1,0-0.2,0.1-0.3,0.1
	c-0.1,0-0.1,0.1-0.2,0.1c-0.1,0-0.2,0.1-0.3,0.1c-0.1,0-0.1,0.1-0.2,0.1c-0.1,0.1-0.3,0.1-0.4,0.2l-1.4,0.8l0,0l1.5,0.6c0,0,0,0,0,0
	l0.4,0.1l0,0c7.4,3,15.2,4.5,23.2,4.5c1.2,0,2.3,0,3.5-0.1c0.4,0,0.8,0,1.2-0.1c2.1-0.2,4.1-0.4,6.2-0.8c0.5-0.1,1.1-0.2,1.6-0.3
	c0.2-0.1,0.5-0.1,0.7-0.2l0,0l0.8-0.2c0,0,0,0,0,0l0.7-0.2l0,0c0.2-0.1,0.4-0.1,0.6-0.2l0,0l0.8-0.2c0,0,0,0,0,0l0.7-0.2l0,0
	c12.4-3.5,23.2-10.6,31.4-20.6c8.4-10.3,13.2-22.7,14-36l0,0l0-0.3L152.9,93.8L152.9,93.8z"/>
<path class="st9" d="M107.4,108.6l-1.6,0c0,0.7,0.1,1.4,0.3,2.4l1.6-0.3C107.4,109.9,107.4,109.2,107.4,108.6"/>
<path class="st9" d="M116.5,121.1l-0.2,1.6c0.3,0,0.7,0.1,1,0.1c0.5,0,1,0,1.5-0.1l-0.3-1.6C117.9,121.2,117.2,121.2,116.5,121.1"/>
<path class="st9" d="M120.3,120.4l0.8,1.4c0.6-0.4,1.2-0.8,1.9-1.4l-1-1.3C121.4,119.6,120.8,120.1,120.3,120.4"/>
<path class="st9" d="M111.7,121.1c0.7,0.4,1.4,0.8,2.2,1.1l0.6-1.5c-0.6-0.2-1.3-0.6-1.9-0.9L111.7,121.1z"/>
<path class="st9" d="M108.3,117.7c0.5,0.7,1,1.3,1.6,1.8l1.1-1.2c-0.5-0.5-1-1-1.4-1.6L108.3,117.7z"/>
<path class="st9" d="M113.9,97.7l-1.2-1.1c-0.5,0.6-1.1,1.2-1.5,1.7l1.2,1.1C112.8,98.9,113.3,98.3,113.9,97.7"/>
<path class="st9" d="M108.2,113.5c0-0.2-0.1-0.4-0.1-0.6l-1.6,0.3c0,0.2,0.1,0.4,0.1,0.6c0.1,0.6,0.3,1.2,0.5,1.7l1.5-0.6
	C108.4,114.5,108.3,114,108.2,113.5"/>
<path class="st9" d="M123.8,117.7l1.1,1.2c0.5-0.5,1.1-1,1.7-1.5l-1.1-1.2C124.9,116.7,124.3,117.3,123.8,117.7"/>
<path class="st9" d="M143.4,98.9l1.1,1.2c0.5-0.5,1.1-1,1.7-1.5l-1.1-1.2C144.5,97.9,144,98.4,143.4,98.9"/>
<path class="st9" d="M108.5,104.7l-1.4-0.8c-0.4,0.8-0.7,1.5-0.9,2.2l1.6,0.5C107.8,106,108.1,105.4,108.5,104.7"/>
<path class="st9" d="M140.1,102l1.1,1.2c0.6-0.5,1.1-1,1.6-1.5l-1.1-1.2C141.2,101,140.7,101.5,140.1,102"/>
<path class="st9" d="M146.7,95.8l1.1,1.2c0.5-0.5,1.1-1,1.7-1.6l-1.1-1.2C147.8,94.8,147.3,95.3,146.7,95.8"/>
<path class="st9" d="M127.1,114.7l1.1,1.2c0.5-0.5,1.1-1,1.6-1.6l-1.1-1.2C128.2,113.6,127.7,114.2,127.1,114.7"/>
<path class="st9" d="M130.4,111.5l1.1,1.2c0.5-0.5,1.1-1.1,1.6-1.6l-1.1-1.2C131.4,110.5,130.9,111,130.4,111.5"/>
<path class="st9" d="M135.8,74.8l-1.1-1.1c-0.5,0.5-1.1,1.1-1.6,1.6l1.2,1.1C134.8,75.9,135.3,75.4,135.8,74.8"/>
<path class="st9" d="M133.6,108.3l1.1,1.1c0.5-0.5,1.1-1.1,1.6-1.6l-1.1-1.2C134.7,107.3,134.1,107.8,133.6,108.3"/>
<path class="st9" d="M136.8,105.2l1.1,1.2c0.5-0.5,1.1-1.1,1.6-1.6l-1.1-1.2C137.9,104.1,137.4,104.6,136.8,105.2"/>
<path class="st9" d="M142.3,68.6l-1.1-1.2c-0.5,0.5-1.1,1-1.7,1.5l1.1,1.2C141.2,69.6,141.8,69,142.3,68.6"/>
<path class="st9" d="M110.9,101.1l-1.3-1c-0.5,0.6-1,1.3-1.4,1.9l1.3,0.9C110,102.3,110.4,101.7,110.9,101.1"/>
<path class="st9" d="M132.7,78.1l-1.2-1.1c-0.5,0.5-1,1.1-1.6,1.6l1.2,1.1C131.6,79.2,132.1,78.6,132.7,78.1"/>
<path class="st9" d="M129.5,81.3l-1.2-1.1c-0.5,0.5-1,1.1-1.6,1.6L128,83C128.5,82.4,129,81.9,129.5,81.3"/>
<path class="st9" d="M139,71.7l-1.1-1.2c-0.5,0.5-1.1,1-1.6,1.6l1.1,1.1C138,72.7,138.5,72.2,139,71.7"/>
<path class="st9" d="M116,95.5c0.3-0.3,0.6-0.7,1-1l-1.2-1.1c-0.3,0.3-0.6,0.7-1,1c-0.2,0.2-0.4,0.4-0.6,0.6l1.2,1.1
	C115.6,95.9,115.8,95.7,116,95.5"/>
<rect x="123.9" y="84.1" transform="matrix(0.6873 -0.7264 0.7264 0.6873 -22.5693 117.3689)" class="st9" width="2.3" height="1.6"/>
<path class="st9" d="M120.2,91.2l-1.2-1.1c-0.5,0.6-1.1,1.1-1.6,1.6l1.2,1.1C119.1,92.3,119.6,91.8,120.2,91.2"/>
<path class="st9" d="M123.3,87.9l-1.2-1.1c-0.5,0.6-1,1.1-1.6,1.6l1.2,1.1C122.2,89,122.8,88.5,123.3,87.9"/>
<path class="st9" d="M123.1,110.8c-4.2,0-7.5-3.4-7.5-7.5c0-4.1,3.4-7.5,7.5-7.5c4.2,0,7.5,3.4,7.5,7.5
	C130.6,107.4,127.2,110.8,123.1,110.8 M123.1,94.1c-5,0-9.1,4.1-9.1,9.1c0,5,4.1,9.1,9.1,9.1c5,0,9.1-4.1,9.1-9.1
	C132.2,98.2,128.1,94.1,123.1,94.1"/>
<path class="st9" d="M123.1,106.5c-1.8,0-3.2-1.5-3.2-3.2c0-1.8,1.5-3.2,3.2-3.2c1.8,0,3.2,1.5,3.2,3.2
	C126.3,105,124.8,106.5,123.1,106.5 M123.1,98.4c-2.7,0-4.9,2.2-4.9,4.9c0,2.7,2.2,4.9,4.9,4.9c2.7,0,4.9-2.2,4.9-4.9
	C127.9,100.6,125.7,98.4,123.1,98.4"/>
<defs>
	<filter id="Adobe_OpacityMaskFilter_2_" filterUnits="userSpaceOnUse" x="610.7" y="348.1" width="224.3" height="224.3">
		<feColorMatrix  type="matrix" values="1 0 0 0 0  0 1 0 0 0  0 0 1 0 0  0 0 0 1 0"/>
	</filter>
</defs>
<mask maskUnits="userSpaceOnUse" x="610.7" y="348.1" width="224.3" height="224.3" id="SVGID_9_">
	<g class="st10">
		
			<linearGradient id="SVGID_10_" gradientUnits="userSpaceOnUse" x1="-227.255" y1="5102.623" x2="-226.1324" y2="5102.623" gradientTransform="matrix(41.0053 12.6933 12.6933 -41.0053 -54716.7539 212540.8594)">
			<stop  offset="0" style="stop-color:#FFFFFF"/>
			<stop  offset="1" style="stop-color:#000000"/>
		</linearGradient>
		<polygon class="st11" points="259.3,-5468.2 4198.7,-4248.7 953.9,6233.2 -2985.5,5013.8 		"/>
	</g>
</mask>
<g class="st12">
	<g>
		<defs>
			<rect id="SVGID_11_" x="610.7" y="348.1" width="224.3" height="224.3"/>
		</defs>
		<clipPath id="SVGID_12_">
			<use xlink:href="#SVGID_11_"  style="overflow:visible;"/>
		</clipPath>
		<path class="st13" d="M746.3,562.1l-1.6-0.8c-0.6-0.3-58.2-27.7-80.4-41.6c-29.6-18.5-38.7-57.7-20.2-87.3
			c13.8-22.1,40.1-33.5,65.6-28.7c20.8-15.6,49.4-16.8,71.6-3l0,0c29.6,18.5,38.7,57.7,20.2,87.3c-13.9,22.2-53.6,72.1-54,72.6
			L746.3,562.1z M698,407.1c-20,0-39.2,10.3-50,27.7c-17.2,27.5-8.8,63.9,18.7,81.1c19.9,12.4,68.8,36,78.3,40.5
			c6.6-8.3,40.2-50.9,52.6-70.8c8.3-13.3,11-29.1,7.4-44.4c-3.5-15.3-12.8-28.3-26.2-36.7c-20.8-13-47.8-11.7-67.2,3.4l-0.8,0.6
			l-1-0.2C705.9,407.5,702,407.1,698,407.1z"/>
	</g>
</g>
<defs>
	<filter id="Adobe_OpacityMaskFilter_3_" filterUnits="userSpaceOnUse" x="-4.4" y="475.4" width="240.2" height="240.2">
		<feColorMatrix  type="matrix" values="1 0 0 0 0  0 1 0 0 0  0 0 1 0 0  0 0 0 1 0"/>
	</filter>
</defs>
<mask maskUnits="userSpaceOnUse" x="-4.4" y="475.4" width="240.2" height="240.2" id="SVGID_13_">
	<g class="st14">
		
			<linearGradient id="SVGID_14_" gradientUnits="userSpaceOnUse" x1="-235.0762" y1="5102.1875" x2="-233.9536" y2="5102.1875" gradientTransform="matrix(49.8297 29.0015 29.0015 -49.8297 -136096.6719 261513.2031)">
			<stop  offset="0" style="stop-color:#FFFFFF"/>
			<stop  offset="1" style="stop-color:#000000"/>
		</linearGradient>
		<polygon class="st15" points="35.7,-5475.4 5544.9,-2268.9 451.5,6482.4 -5057.7,3276 		"/>
	</g>
</mask>
<g class="st16">
	<g>
		<defs>
			<rect id="SVGID_15_" x="-4.4" y="475.4" width="240.2" height="240.2"/>
		</defs>
		<clipPath id="SVGID_16_">
			<use xlink:href="#SVGID_15_"  style="overflow:visible;"/>
		</clipPath>
		<path class="st17" d="M115.7,680.9c-21.9,0-43.7-8.3-60.4-25c-33.3-33.3-33.3-87.5,0-120.8c33.3-33.3,87.5-33.3,120.8,0
			c33.3,33.3,33.3,87.5,0,120.8C159.5,672.6,137.6,680.9,115.7,680.9z M115.7,516.3c-20.3,0-40.6,7.7-56.1,23.2
			c-30.9,30.9-30.9,81.3,0,112.2c30.9,30.9,81.3,30.9,112.2,0c30.9-30.9,30.9-81.3,0-112.2C156.4,524,136.1,516.3,115.7,516.3z"/>
	</g>
</g>
<path class="st4" d="M146.7,642.3c-0.4,0.1-0.9-0.2-1-0.6c-1.9-7.8-7.1-8-7.4-8c-0.3,0-0.6-0.2-0.8-0.5c-1.7-4.6-4.4-7.4-7.8-8.5
	c-2.6-0.8-4.6-0.3-4.6-0.3c-0.4,0.1-0.7-0.1-0.9-0.4c-4.3-7.9-12.3-6.1-12.4-6c-0.2,0.1-0.5,0-0.7-0.1c-0.2-0.1-0.3-0.3-0.3-0.5
	c-2.5-9.3-11.4-8.3-11.8-8.3c-0.2,0-0.5,0-0.7-0.2c-0.2-0.2-0.3-0.4-0.3-0.6c0.3-5.6-5-8.9-5.1-8.9c-0.4-0.2-0.5-0.7-0.3-1.1
	c0.2-0.4,0.7-0.5,1.1-0.3c0,0,0,0,0,0c0.1-0.3,0.3-0.6,0.6-0.6c1.3-0.3,2.6-0.5,3.9-0.6c0.5,0,0.9,0.3,0.9,0.7
	c0.1,0.5-0.3,0.9-0.7,0.9c-1.1,0.1-2.3,0.3-3.5,0.5c1.7,1.4,4.4,4.3,4.6,8.5c3.8-0.1,10.1,1.5,12.5,8.9c2.3-0.3,9.1-0.5,13.2,6.5
	c0.9-0.1,2.7-0.2,4.9,0.5c2.7,0.9,6.3,3.1,8.7,9.1c1.1,0.2,3.7,0.8,5.8,3.6c0.1-0.1,0.2-0.2,0.4-0.2c0.4-0.1,0.9,0.2,1,0.6
	c0.3,1.2,0.6,2.5,0.9,3.8c0,0.1,0,0.3,0,0.4c0.1,0.3,0.2,0.7,0.3,1C147.4,641.8,147.2,642.2,146.7,642.3 M91.1,599.8
	c-1.2,0.4-2.4,0.8-3.6,1.2c-0.3,0.1-0.5,0.1-0.8-0.1c-0.1-0.1-0.2-0.2-0.3-0.4c-0.2-0.4,0-0.9,0.5-1.1c1.2-0.5,2.5-0.9,3.8-1.3
	c0.4-0.1,0.9,0.1,1,0.6C91.8,599.2,91.6,599.6,91.1,599.8 M101.2,596.7c0,0,0.2,0.1,0.4,0.3c0.1-0.4,0.4-0.6,0.8-0.6
	c1.3,0,2.7,0,4,0.2c0.5,0,0.8,0.4,0.7,0.9c0,0.5-0.4,0.8-0.9,0.7c-1.1-0.1-2.3-0.1-3.4-0.2c1.4,1.3,3.1,3.5,3.3,6.5
	c3.2-0.1,8.3,1.4,10.3,7.3c2-0.2,7.5-0.3,10.9,5.4c2-0.2,8-0.1,11.3,7.9c1,0.2,3.2,0.8,4.9,3.1c0,0,0.1,0.1,0.1,0.2
	c0.8,1.1,1.5,2.5,2,4.4c0.1,0.4-0.2,0.9-0.6,1c-0.2,0.1-0.5,0-0.7-0.1c-0.1-0.1-0.2-0.2-0.3-0.4c-0.1,0-0.2-0.1-0.3-0.1
	c-0.1-0.1-0.3-0.2-0.3-0.4c-0.4-1.2-0.8-2.4-1.2-3.5c-1.9-2.5-4.2-2.5-4.2-2.5c-0.3,0-0.6-0.2-0.8-0.5c-3.3-8.8-9.9-7.3-10.2-7.3
	c-0.4,0.1-0.7-0.1-0.9-0.4c-3.5-6.5-9.9-5-10.1-4.9c-0.4,0.1-0.9-0.2-1-0.6c-2-7.7-9.3-6.8-9.6-6.8c-0.2,0-0.5,0-0.7-0.2
	c-0.2-0.2-0.3-0.4-0.3-0.6c0.2-4.5-4.1-7.2-4.1-7.2c-0.4-0.2-0.5-0.7-0.3-1.1C100.3,596.6,100.8,596.5,101.2,596.7 M109.5,597.6
	c0.2-0.3,0.5-0.5,0.9-0.4c1.3,0.3,2.6,0.6,3.9,1c0.4,0.1,0.7,0.6,0.5,1c-0.1,0.4-0.6,0.7-1,0.5c-0.8-0.3-1.7-0.5-2.5-0.7
	c0.9,0.9,1.8,2.4,2,4.2c1.8,0,5.8,0.7,7.3,5.2c1.6-0.2,5.4,0,7.8,3.9c1.3-0.1,4.2,0,6.5,2.9c-0.1-0.3,0-0.7,0.3-1
	c0.4-0.3,0.9-0.2,1.1,0.2c0.8,1.1,1.5,2.2,2.2,3.3c0.2,0.3,0.1,0.7-0.1,1c1.2,0.7,2.4,2.1,3.1,4.6c0.2,0.5,0.4,0.9,0.6,1.4
	c0.2,0.4,0,0.9-0.4,1.1c-0.3,0.1-0.6,0.1-0.8-0.1c-0.1-0.1-0.2-0.2-0.3-0.3c-0.2-0.3-0.3-0.7-0.5-1c-0.1-0.1-0.2-0.2-0.2-0.3
	c0-0.1,0-0.1,0-0.1c-0.3-0.7-0.6-1.3-1-2c-0.1-0.1-0.1-0.3-0.1-0.5c-1.3-1.8-2.9-1.9-3-1.9c-0.3,0-0.6-0.2-0.8-0.5
	c-2.3-6.2-6.8-5.1-7-5.1c-0.4,0.1-0.7-0.1-0.9-0.4c-2.4-4.5-7-3.4-7-3.4c-0.2,0.1-0.5,0-0.7-0.1c-0.2-0.1-0.3-0.3-0.3-0.5
	c-1.4-5.3-6.5-4.7-6.7-4.7c-0.2,0-0.5,0-0.7-0.2c-0.2-0.2-0.3-0.4-0.3-0.6c0.1-3.1-2.8-5-2.9-5c-0.4-0.2-0.5-0.7-0.3-1.1
	C108.7,597.6,109.1,597.5,109.5,597.6 M118,599.5c1.2,0.5,2.4,1.1,3.6,1.8c0.4,0.2,0.5,0.7,0.3,1.1c-0.2,0.4-0.7,0.5-1.1,0.3
	c-1.1-0.6-2.3-1.2-3.5-1.7c-0.1,0-0.1-0.1-0.1-0.1c-0.3-0.2-0.4-0.6-0.3-1C117.1,599.6,117.6,599.4,118,599.5 M125,603.4
	c1.1,0.7,2.2,1.5,3.2,2.4c0.4,0.3,0.4,0.8,0.1,1.2c-0.3,0.3-0.8,0.4-1.1,0.1c0,0,0,0-0.1,0c-1-0.8-2-1.6-3.1-2.3
	c-0.4-0.2-0.5-0.8-0.2-1.1C124.1,603.2,124.7,603.1,125,603.4 M130.1,608.4c0.3-0.3,0.8-0.3,1.2,0c0.9,0.9,1.8,1.9,2.7,2.9
	c0.3,0.3,0.3,0.9-0.1,1.2c-0.3,0.2-0.7,0.3-1,0c-0.1,0-0.1-0.1-0.2-0.1c-0.8-1-1.7-1.9-2.6-2.8C129.7,609.3,129.7,608.8,130.1,608.4
	 M172.9,639.8c6.5-14.1-4.6-22.4-23.2-35.3c-18.5-13-10.5-22.1-23.9-35.9c-13.4-13.8-39.6-21.4-50.2-6.3
	c-8.7,12.5-3.7,28.3,6.5,39.3c0.3-0.2,0.7-0.3,1-0.5c0.4-0.2,0.9,0,1.1,0.4c0.2,0.4,0,0.9-0.4,1.1c-0.2,0.1-0.3,0.2-0.5,0.3
	c4.3,4.3,9.4,7.8,14.7,9.9c26.2,10.4,33.2,22.2,45.5,30.9c0.9,0.6,1.8,1.2,2.8,1.8c-0.1-0.4-0.1-0.8-0.2-1.2
	c-0.1-0.4,0.2-0.9,0.7-0.9c0.4-0.1,0.9,0.2,1,0.7c0.1,0.6,0.2,1.3,0.3,1.9c0,0.2,0,0.4-0.1,0.5C156.2,650.5,167,652.6,172.9,639.8"
	/>
<path class="st9" d="M122.5,65l-1.2-1.1c-0.5,0.6-1.1,1.1-1.6,1.6l1.2,1.1C121.5,66.1,122,65.6,122.5,65"/>
<path class="st9" d="M125.7,61.7l-1.2-1.1c-0.5,0.6-1,1.1-1.6,1.6l1.2,1.1C124.6,62.8,125.1,62.3,125.7,61.7"/>
<path class="st18" d="M723.8,433.4c1.2-0.5,2.4-1,3.5-1.6c0.6-0.3,1.3-0.1,1.6,0.5c0.3,0.6,0.1,1.3-0.5,1.6
	c-1.2,0.6-2.4,1.2-3.7,1.7c-0.1,0.1-0.3,0.1-0.4,0.1c-0.5,0-0.9-0.3-1.1-0.8C722.9,434.3,723.2,433.6,723.8,433.4 M730.5,429.8
	c1-0.7,2-1.5,3.1-2.3c0.5-0.4,1.3-0.3,1.7,0.2c0.4,0.5,0.3,1.3-0.2,1.7c-1.1,0.9-2.2,1.7-3.2,2.4c-0.2,0.1-0.4,0.2-0.7,0.2
	c-0.4,0-0.7-0.2-1-0.5C729.9,430.9,730,430.1,730.5,429.8 M747.9,497.5c0.1-1.2,0.3-2.5,0.5-4c0.1-0.7,0.7-1.1,1.3-1
	c0.7,0.1,1.1,0.7,1,1.3c-0.2,1.4-0.3,2.7-0.5,3.9c-0.1,0.6-0.6,1.1-1.2,1.1c0,0-0.1,0-0.1,0C748.3,498.7,747.8,498.2,747.9,497.5
	 M749,489.6c0.2-1.3,0.4-2.6,0.6-3.9c0.1-0.6,0.7-1.1,1.4-1c0.6,0.1,1.1,0.7,1,1.4c-0.2,1.3-0.4,2.7-0.6,3.9c-0.1,0.6-0.6,1-1.2,1
	c-0.1,0-0.1,0-0.2,0C749.3,490.8,748.9,490.2,749,489.6 M750.3,481.7c0.2-1.3,0.5-2.6,0.7-3.9c0.1-0.6,0.8-1.1,1.4-0.9
	c0.6,0.1,1.1,0.8,0.9,1.4c-0.3,1.3-0.5,2.6-0.7,3.9c-0.1,0.6-0.6,1-1.2,1c-0.1,0-0.1,0-0.2,0C750.6,483,750.1,482.4,750.3,481.7
	 M751.8,473.9c0.3-1.3,0.6-2.6,0.9-3.9c0.2-0.6,0.8-1,1.4-0.9c0.6,0.2,1,0.8,0.9,1.4c-0.3,1.3-0.6,2.6-0.9,3.8
	c-0.1,0.6-0.6,0.9-1.2,0.9c-0.1,0-0.2,0-0.3,0C752.1,475.2,751.7,474.5,751.8,473.9 M753.7,466.1c0.3-1.3,0.7-2.6,1.1-3.9
	c0.2-0.6,0.8-1,1.5-0.8c0.6,0.2,1,0.8,0.8,1.5c-0.4,1.3-0.7,2.5-1,3.8c-0.1,0.5-0.6,0.9-1.1,0.9c-0.1,0-0.2,0-0.3,0
	C753.9,467.4,753.5,466.7,753.7,466.1 M755.8,458.4c0.4-1.3,0.8-2.6,1.3-3.8c0.2-0.6,0.9-0.9,1.5-0.7c0.6,0.2,1,0.9,0.7,1.5
	c-0.4,1.2-0.8,2.5-1.2,3.7c-0.2,0.5-0.6,0.8-1.1,0.8c-0.1,0-0.2,0-0.4-0.1C756,459.7,755.7,459.1,755.8,458.4 M758.5,450.9
	c0.5-1.3,1-2.5,1.5-3.7c0.3-0.6,1-0.9,1.6-0.6s0.9,1,0.6,1.6c-0.5,1.2-1,2.4-1.5,3.6c-0.2,0.5-0.6,0.8-1.1,0.8c-0.1,0-0.3,0-0.4-0.1
	C758.5,452.2,758.2,451.5,758.5,450.9 M711.3,453.7c0,0.1,0,0.3,0,0.4c0,0.1,0,0.2,0,0.3c0,0.2,0,0.5-0.1,0.7c0,0.1,0,0.2,0,0.3
	c0,0.3-0.1,0.6-0.1,0.9c0,0.1,0,0.1,0,0.2c0,0.3-0.1,0.7-0.1,1.1c0,0.1,0,0.1,0,0.2c0,0.4-0.1,0.8-0.1,1.2c0,0.1,0,0.2,0,0.2
	c0,0.4-0.1,0.8-0.1,1.1c0,0.1,0,0.2,0,0.4c-0.1,0.4-0.1,0.8-0.2,1.2c0,0.1,0,0.3-0.1,0.4c-0.1,0.5-0.1,1.1-0.2,1.6
	c-0.1,0.8-0.2,1.7-0.3,2.6c-0.1,0.8-0.2,1.5-0.3,2.3c-0.7,5.5-1.4,11.4-1.4,15.9c0,9.7,0.5,19.3,6.4,20.1c1.6,0.2,3.4,0.3,5.6,0.3
	c2.1,0,4.6-0.1,7.3-0.2c5.5-0.2,12.1-0.5,19.8-0.2c0.1-0.7,0.1-1.8,0.3-3.2c0.1-0.7,0.6-1.1,1.3-1.1c0.7,0.1,1.1,0.6,1.1,1.3
	c-0.1,1.4-0.2,2.4-0.3,3.1c0.4,0,0.8,0,1.2,0.1c1,0.1,1.9,0.1,2.9,0.2c-0.3-1.8-0.4-3.7-0.4-5.8c0-17.7,8.9-43.8,13.5-56
	c-0.5-0.5-1.1-1-1.7-1.5c-0.5,0.9-0.9,1.7-1.3,2.7c-0.2,0.4-0.6,0.7-1.1,0.7c-0.2,0-0.3,0-0.5-0.1c-0.6-0.3-0.8-1-0.6-1.6
	c0.5-1.1,1.1-2.2,1.6-3.2c-7.5-6.1-16-10.7-25.3-13.4c-0.2,0.1-0.4,0.2-0.5,0.2c-0.3,0-0.7-0.1-0.9-0.4c0-0.1-0.1-0.1-0.1-0.2
	c-1.2-0.3-2.5-0.6-3.7-0.9c-1.9,1.4-3.4,2.5-4.5,3.3c-1.9,1.4-5.3,2.6-7.8,3.4c-1.5,0.5-2.6,0.8-3.4,1c0.3,0.6,0.6,1.2,0.7,1.8
	c0.6-0.1,1.5-0.3,2.6-0.5c0.6-0.2,1.3,0.2,1.4,0.9c0.2,0.6-0.2,1.3-0.9,1.4c-1.3,0.3-2.4,0.5-3.1,0.6c-0.1,0.4-0.2,0.8-0.3,1.2
	c-0.5,1.3-1.2,2.8-2,4.5c-1.6,3.3-3.5,7.4-4,10.5C711.3,453.6,711.3,453.7,711.3,453.7"/>
<path class="st18" d="M756.1,505.3c0.1,0,0.2,0,0.4,0c0.4,0,0.7,0.1,1.1,0.1c0.6,0.1,1.1,0.1,1.6,0.2c0.4,0,0.7,0.1,1.1,0.1
	c0.5,0.1,1.1,0.1,1.6,0.2c0.4,0.1,0.7,0.1,1.1,0.2c0.5,0.1,1,0.2,1.6,0.3c0.3,0.1,0.7,0.1,1,0.2c0.5,0.1,1.1,0.2,1.6,0.3
	c0.3,0.1,0.5,0.1,0.8,0.2c0.7,0.1,1.4,0.3,2,0.4c0.1,0,0.2,0,0.3,0.1c0.8,0.2,1.5,0.3,2.3,0.5c0.2,0.1,0.4,0.1,0.6,0.2
	c0.5,0.1,1,0.3,1.5,0.4c0.3,0.1,0.5,0.1,0.8,0.2c0.4,0.1,0.9,0.2,1.3,0.3c0.3,0.1,0.5,0.2,0.8,0.2c0.4,0.1,0.8,0.2,1.2,0.3
	c0.3,0.1,0.5,0.2,0.8,0.2c0.4,0.1,0.7,0.2,1.1,0.3c0.2,0.1,0.5,0.2,0.7,0.2c0.4,0.1,0.7,0.2,1.1,0.3c0.2,0.1,0.4,0.1,0.7,0.2
	c0.4,0.1,0.8,0.3,1.2,0.4c0.1,0,0.3,0.1,0.5,0.1c0.5,0.2,1,0.3,1.5,0.5c0.3,0.1,0.6,0.2,0.9,0.3c0.1,0,0.2,0.1,0.4,0.1
	c1.3-5.5,2-11.2,2-16.9c0-19.1-7.4-37-20.8-50.5c-10.7,28.7-12.9,45.4-12.9,54.3C755.7,502,755.9,503.9,756.1,505.3"/>
<path class="st18" d="M726.8,426.9c0.7-0.5,1.6-1.2,2.7-2c-5.9-1-12.1-1.2-18.1-0.7c-0.3,1.7,0.1,3,1,3.9l0.1,0.1
	c1.1,1,2.1,1.9,3,2.9C717.4,430.6,724.2,428.8,726.8,426.9"/>
<path class="st18" d="M785.5,514.5c-0.2-0.1-0.3-0.1-0.5-0.2c-0.3-0.1-0.7-0.2-1-0.3c-0.2-0.1-0.4-0.1-0.6-0.2
	c-0.3-0.1-0.7-0.2-1-0.3c-0.2-0.1-0.5-0.2-0.7-0.2c-0.3-0.1-0.7-0.2-1-0.3c-0.3-0.1-0.5-0.2-0.8-0.2c-0.3-0.1-0.7-0.2-1.1-0.3
	c-0.3-0.1-0.5-0.2-0.8-0.2c-0.4-0.1-0.7-0.2-1.1-0.3c-0.3-0.1-0.6-0.2-0.9-0.2c-0.4-0.1-0.8-0.2-1.2-0.3c-0.3-0.1-0.6-0.2-0.9-0.2
	c-0.4-0.1-0.9-0.2-1.3-0.3c-0.3-0.1-0.5-0.1-0.8-0.2c-0.5-0.1-1.1-0.3-1.6-0.4c-0.2,0-0.4-0.1-0.6-0.1c-0.8-0.2-1.5-0.3-2.3-0.5
	c-0.2,0-0.4-0.1-0.6-0.1c-0.6-0.1-1.2-0.2-1.9-0.4c-0.3-0.1-0.6-0.1-0.9-0.2c-0.5-0.1-1.1-0.2-1.6-0.3c-0.3-0.1-0.7-0.1-1-0.2
	c-0.5-0.1-1-0.2-1.6-0.2c-0.4,0-0.7-0.1-1.1-0.1c-0.5-0.1-1.1-0.1-1.6-0.2c-0.4,0-0.8-0.1-1.1-0.1c-0.6-0.1-1.2-0.1-1.8-0.2
	c-0.2,0-0.5,0-0.7-0.1c-0.9-0.1-1.8-0.1-2.7-0.2c-7.9-0.4-14.7-0.3-20.5-0.1c-0.9,0-1.8,0.1-2.7,0.1c-5.6,0.2-10,0.4-13.3-0.1
	c-8.4-1.1-8.4-14-8.4-22.5c0-6,1.1-14.4,2-21.1c0.2-1.6,0.4-3.1,0.6-4.4c0,0,0,0,0,0c0.1-0.4,0.1-0.9,0.2-1.3c0,0,0-0.1,0-0.1
	c0-0.4,0.1-0.8,0.1-1.1c0,0,0-0.1,0-0.1c0-0.4,0.1-0.7,0.1-1c0,0,0-0.1,0-0.1c0-0.3,0.1-0.6,0.1-0.9c0,0,0-0.1,0-0.1
	c0-0.3,0-0.5,0-0.8c0,0,0,0,0,0c-0.2-0.3-0.3-0.5-0.5-0.7c-0.1,0.1-0.2,0.4-0.4,0.8c-1.4,3.7-4.8,20.2-5,35.2
	c-0.2,12.3-0.1,23.4,0,28.2c0,1.2,0,2,0,2.4c0,1.1,4.8,9.2,22.2,9.2c8.1,0,13.4-1.6,19.1-3.2c6.7-1.9,13.5-4,25.6-4
	c5.1,0,9.5,0.6,13.9,1.9c1.2-2.8,2.2-5.8,3.1-8.7C786.4,514.8,786,514.6,785.5,514.5"/>
<path class="st9" d="M731.2,431.9c0.2,0,0.5-0.1,0.7-0.2c1-0.7,2.1-1.5,3.2-2.4c0.5-0.4,0.6-1.2,0.2-1.7c-0.4-0.5-1.2-0.6-1.7-0.2
	c-1.1,0.9-2.1,1.7-3.1,2.3c-0.5,0.4-0.7,1.1-0.3,1.7C730.5,431.7,730.8,431.9,731.2,431.9"/>
<path class="st9" d="M724.3,435.7c0.1,0,0.3,0,0.4-0.1c1.3-0.5,2.6-1.1,3.7-1.7c0.6-0.3,0.8-1,0.5-1.6c-0.3-0.6-1-0.8-1.6-0.5
	c-1.1,0.6-2.2,1.1-3.5,1.6c-0.6,0.2-0.9,0.9-0.7,1.5C723.3,435.4,723.8,435.7,724.3,435.7"/>
<path class="st9" d="M783.8,523.7c-4.4-1.3-8.8-1.9-13.9-1.9c-12.1,0-19,2-25.6,4c-5.6,1.7-11,3.2-19.1,3.2
	c-17.4,0-22.2-8.1-22.2-9.2c0-0.4,0-1.2,0-2.4c0-4.7-0.2-15.8,0-28.2c0.2-15,3.6-31.5,5-35.2c0.2-0.4,0.3-0.7,0.4-0.8
	c0.2,0.1,0.3,0.4,0.5,0.7c0,0,0,0,0,0c0,0.2,0,0.5,0,0.8c0,0,0,0.1,0,0.1c0,0.3,0,0.6-0.1,0.9c0,0,0,0.1,0,0.1c0,0.3-0.1,0.7-0.1,1
	c0,0,0,0.1,0,0.1c0,0.4-0.1,0.7-0.1,1.1c0,0,0,0.1,0,0.1c0,0.4-0.1,0.8-0.2,1.3c0,0,0,0,0,0c-0.2,1.4-0.4,2.9-0.6,4.4
	c-0.9,6.7-2,15.1-2,21.1c0,8.5,0,21.3,8.4,22.5c3.3,0.4,7.7,0.3,13.3,0.1c0.9,0,1.8-0.1,2.7-0.1c5.8-0.2,12.6-0.4,20.5,0.1
	c0.9,0,1.8,0.1,2.7,0.2c0.2,0,0.5,0,0.7,0.1c0.6,0.1,1.2,0.1,1.8,0.2c0.4,0,0.8,0.1,1.1,0.1c0.5,0.1,1.1,0.1,1.6,0.2
	c0.4,0,0.7,0.1,1.1,0.1c0.5,0.1,1.1,0.2,1.6,0.2c0.3,0.1,0.7,0.1,1,0.2c0.6,0.1,1.1,0.2,1.6,0.3c0.3,0.1,0.6,0.1,0.9,0.2
	c0.6,0.1,1.3,0.2,1.9,0.4c0.2,0,0.4,0.1,0.6,0.1c0.8,0.2,1.6,0.3,2.3,0.5c0.2,0,0.4,0.1,0.6,0.1c0.6,0.1,1.1,0.3,1.6,0.4
	c0.3,0.1,0.6,0.1,0.8,0.2c0.4,0.1,0.9,0.2,1.3,0.3c0.3,0.1,0.6,0.2,0.9,0.2c0.4,0.1,0.8,0.2,1.2,0.3c0.3,0.1,0.6,0.2,0.9,0.2
	c0.4,0.1,0.8,0.2,1.1,0.3c0.3,0.1,0.5,0.2,0.8,0.2c0.4,0.1,0.7,0.2,1.1,0.3c0.3,0.1,0.5,0.2,0.8,0.2c0.3,0.1,0.7,0.2,1,0.3
	c0.2,0.1,0.5,0.2,0.7,0.2c0.3,0.1,0.7,0.2,1,0.3c0.2,0.1,0.4,0.1,0.6,0.2c0.4,0.1,0.7,0.2,1,0.3c0.2,0.1,0.3,0.1,0.5,0.2
	c0.5,0.2,0.9,0.3,1.3,0.5C786,517.9,785,520.8,783.8,523.7 M715.3,443.1c0.8-1.7,1.6-3.2,2-4.5c0.2-0.4,0.3-0.8,0.3-1.2
	c0.7-0.1,1.8-0.3,3.1-0.6c0.6-0.2,1-0.8,0.9-1.4c-0.2-0.6-0.8-1-1.4-0.9c-1,0.3-1.9,0.4-2.5,0.5c-0.1-0.6-0.4-1.3-0.7-1.8
	c0.8-0.2,2-0.5,3.4-1c2.5-0.8,5.9-2,7.8-3.4c1.1-0.8,2.6-1.9,4.5-3.3c1.3,0.3,2.5,0.6,3.7,0.9c0,0.1,0.1,0.1,0.1,0.2
	c0.2,0.3,0.6,0.4,0.9,0.4c0.2,0,0.4-0.1,0.5-0.2c9.2,2.7,17.8,7.3,25.3,13.4c-0.6,1-1.1,2.1-1.6,3.2c-0.3,0.6,0,1.3,0.6,1.6
	c0.2,0.1,0.3,0.1,0.5,0.1c0.4,0,0.9-0.3,1.1-0.7c0.4-0.9,0.9-1.8,1.3-2.7c0.6,0.5,1.1,1,1.7,1.5c-4.5,12.2-13.5,38.3-13.5,56
	c0,2,0.1,4,0.4,5.8c-1-0.1-1.9-0.1-2.9-0.2c-0.4,0-0.8,0-1.2-0.1c0.1-0.7,0.1-1.7,0.3-3.1c0.1-0.7-0.4-1.2-1.1-1.3
	c-0.7-0.1-1.2,0.4-1.3,1.1c-0.1,1.5-0.2,2.5-0.3,3.2c-7.7-0.3-14.4,0-19.8,0.2c-2.7,0.1-5.2,0.2-7.3,0.2s-4,0-5.6-0.3
	c-5.9-0.8-6.4-10.4-6.4-20.1c0-4.5,0.7-10.4,1.4-15.9c0.1-0.8,0.2-1.6,0.3-2.3c0.1-0.9,0.2-1.7,0.3-2.6c0.1-0.6,0.2-1.1,0.2-1.6
	c0-0.1,0-0.3,0.1-0.4c0.1-0.4,0.1-0.8,0.2-1.2c0-0.1,0-0.2,0-0.4c0.1-0.4,0.1-0.8,0.1-1.1c0-0.1,0-0.2,0-0.2c0-0.4,0.1-0.8,0.1-1.2
	c0-0.1,0-0.1,0-0.2c0-0.4,0.1-0.7,0.1-1.1c0-0.1,0-0.1,0-0.2c0-0.3,0.1-0.6,0.1-0.9c0-0.1,0-0.2,0-0.3c0-0.2,0-0.5,0.1-0.7
	c0-0.1,0-0.2,0-0.3c0-0.1,0-0.3,0-0.4c0,0,0-0.1,0-0.1C711.8,450.5,713.7,446.4,715.3,443.1 M712.4,428.1L712.4,428.1
	c-1-0.9-1.3-2.2-1-3.9c6.1-0.5,12.2-0.3,18.1,0.7c-1.1,0.8-2,1.4-2.7,2c-2.7,1.9-9.4,3.8-11.4,4.2
	C714.5,430.1,713.5,429.1,712.4,428.1 M789.5,495.7c0,5.7-0.7,11.4-2,16.9c-0.1,0-0.2-0.1-0.4-0.1c-0.3-0.1-0.6-0.2-0.9-0.3
	c-0.5-0.2-1-0.3-1.5-0.5c-0.1,0-0.3-0.1-0.5-0.1c-0.4-0.1-0.8-0.3-1.2-0.4c-0.2-0.1-0.4-0.1-0.7-0.2c-0.4-0.1-0.7-0.2-1.1-0.3
	c-0.2-0.1-0.5-0.2-0.7-0.2c-0.4-0.1-0.7-0.2-1.1-0.3c-0.3-0.1-0.5-0.2-0.8-0.2c-0.4-0.1-0.8-0.2-1.2-0.3c-0.3-0.1-0.5-0.2-0.8-0.2
	c-0.4-0.1-0.8-0.2-1.3-0.3c-0.3-0.1-0.5-0.1-0.8-0.2c-0.5-0.1-1-0.3-1.5-0.4c-0.2-0.1-0.4-0.1-0.6-0.2c-0.7-0.2-1.5-0.4-2.3-0.5
	c-0.1,0-0.2,0-0.3-0.1c-0.7-0.1-1.3-0.3-2-0.4c-0.3-0.1-0.5-0.1-0.8-0.2c-0.5-0.1-1.1-0.2-1.6-0.3c-0.3-0.1-0.6-0.1-1-0.2
	c-0.5-0.1-1-0.2-1.6-0.3c-0.4-0.1-0.7-0.1-1.1-0.2c-0.5-0.1-1-0.2-1.6-0.2c-0.4-0.1-0.7-0.1-1.1-0.1c-0.5-0.1-1.1-0.1-1.6-0.2
	c-0.4,0-0.7-0.1-1.1-0.1c-0.1,0-0.2,0-0.4,0c-0.2-1.4-0.4-3.3-0.4-5.9c0-8.9,2.3-25.5,12.9-54.3
	C782.1,458.7,789.5,476.5,789.5,495.7 M769,442.2L769,442.2c-8.2-7.9-18.1-13.7-28.8-17.1c-0.9-0.3-1.8-0.5-2.7-0.8
	c-1.6-0.4-3.2-0.8-4.8-1.2c0,0,0,0,0,0c-7.3-1.5-14.9-1.9-22.4-1.1c-0.5,0.1-0.9,0.4-1,0.9c-0.7,3-0.2,5.4,1.5,7l0.1,0.1
	c1.3,1.2,2.4,2.2,3.1,3.2c0,0,0,0,0,0c0,0,0.1,0.1,0.1,0.1c1.2,1.5,1.6,2.9,1,4.6c-0.4,1.2-1.2,2.7-1.9,4.3c-1.4,2.8-2.9,6-3.7,8.9
	c-0.3-0.2-0.7-0.3-1.1-0.3c0,0-0.1,0-0.1,0c-1.1,0-1.9,0.9-2.5,2.4c-1.4,3.8-4.9,20.7-5.2,36c-0.2,12.4-0.1,23.5,0,28.2
	c0,1.1,0,1.9,0,2.3c0,2.6,5.9,11.6,24.6,11.6c8.4,0,13.9-1.6,19.7-3.3c6.5-1.9,13.2-3.9,24.9-3.9c5.2,0,9.7,0.7,14.2,2.1
	c0.6,0.2,1.2-0.1,1.5-0.7c1.6-3.6,2.9-7.3,3.9-11.1c1.6-6.1,2.4-12.4,2.4-18.8C791.8,475.3,783.7,456.3,769,442.2"/>
<path class="st9" d="M749,498.8c0,0,0.1,0,0.1,0c0.6,0,1.1-0.4,1.2-1.1c0.1-1.2,0.3-2.5,0.5-3.9c0.1-0.7-0.4-1.2-1-1.3
	c-0.6-0.1-1.2,0.4-1.3,1c-0.2,1.4-0.3,2.8-0.5,4C747.8,498.2,748.3,498.7,749,498.8"/>
<path class="st9" d="M752.7,475.3c0.1,0,0.2,0,0.3,0c0.5,0,1-0.4,1.2-0.9c0.3-1.3,0.6-2.6,0.9-3.8c0.2-0.6-0.2-1.3-0.9-1.4
	c-0.6-0.2-1.3,0.2-1.4,0.9c-0.3,1.3-0.6,2.6-0.9,3.9C751.7,474.5,752.1,475.2,752.7,475.3"/>
<path class="st9" d="M751.2,483.1c0.1,0,0.1,0,0.2,0c0.6,0,1.1-0.4,1.2-1c0.2-1.3,0.5-2.6,0.7-3.9c0.1-0.6-0.3-1.3-0.9-1.4
	c-0.6-0.1-1.3,0.3-1.4,0.9c-0.3,1.3-0.5,2.6-0.7,3.9C750.1,482.4,750.6,483,751.2,483.1"/>
<path class="st9" d="M756.6,459.9c0.1,0,0.2,0.1,0.4,0.1c0.5,0,1-0.3,1.1-0.8c0.4-1.3,0.8-2.5,1.2-3.7c0.2-0.6-0.1-1.3-0.7-1.5
	c-0.6-0.2-1.3,0.1-1.5,0.7c-0.4,1.2-0.8,2.5-1.3,3.8C755.7,459.1,756,459.7,756.6,459.9"/>
<path class="st9" d="M754.5,467.6c0.1,0,0.2,0,0.3,0c0.5,0,1-0.4,1.1-0.9c0.3-1.3,0.7-2.5,1-3.8c0.2-0.6-0.2-1.3-0.8-1.5
	c-0.6-0.2-1.3,0.2-1.5,0.8c-0.4,1.3-0.7,2.6-1.1,3.9C753.5,466.7,753.9,467.4,754.5,467.6"/>
<path class="st9" d="M759.2,452.4c0.1,0.1,0.3,0.1,0.4,0.1c0.5,0,0.9-0.3,1.1-0.8c0.5-1.2,1-2.5,1.5-3.6c0.3-0.6,0-1.3-0.6-1.6
	c-0.6-0.3-1.3,0-1.6,0.6c-0.5,1.2-1,2.5-1.5,3.7C758.2,451.5,758.5,452.2,759.2,452.4"/>
<path class="st9" d="M750,490.9c0.1,0,0.1,0,0.2,0c0.6,0,1.1-0.4,1.2-1c0.2-1.3,0.4-2.6,0.6-3.9c0.1-0.6-0.3-1.3-1-1.4
	c-0.7-0.1-1.3,0.3-1.4,1c-0.2,1.4-0.4,2.7-0.6,3.9C748.9,490.2,749.3,490.8,750,490.9"/>
</svg>
