<?xml version="1.0" encoding="utf-8"?>
<!-- Generator: Adobe Illustrator 22.0.1, SVG Export Plug-In . SVG Version: 6.00 Build 0)  -->
<svg version="1.1" id="Layer_1" xmlns="http://www.w3.org/2000/svg" xmlns:xlink="http://www.w3.org/1999/xlink" x="0px" y="0px"
	 viewBox="0 0 182 190" style="enable-background:new 0 0 182 190;" xml:space="preserve">
<style type="text/css">
	.st0{filter:url(#Adobe_OpacityMaskFilter);}
	.st1{fill:url(#SVGID_2_);}
	.st2{mask:url(#SVGID_1_);}
	.st3{clip-path:url(#SVGID_4_);fill:#A987A7;}
	.st4{fill:#00A79C;}
	.st5{filter:url(#Adobe_OpacityMaskFilter_1_);}
	.st6{fill:url(#SVGID_6_);}
	.st7{mask:url(#SVGID_5_);}
	.st8{clip-path:url(#SVGID_8_);fill:#A987A7;}
	.st9{fill:#FFFFFF;}
	.st10{filter:url(#Adobe_OpacityMaskFilter_2_);}
	.st11{fill:url(#SVGID_10_);}
	.st12{mask:url(#SVGID_9_);}
	.st13{clip-path:url(#SVGID_12_);fill:#A987A7;}
	.st14{filter:url(#Adobe_OpacityMaskFilter_3_);}
	.st15{fill:url(#SVGID_14_);}
	.st16{mask:url(#SVGID_13_);}
	.st17{clip-path:url(#SVGID_16_);fill:#A987A7;}
	.st18{fill:#00A69B;}
</style>
<defs>
	<filter id="Adobe_OpacityMaskFilter" filterUnits="userSpaceOnUse" x="-482.5" y="-43.9" width="213.6" height="213.6">
		<feColorMatrix  type="matrix" values="1 0 0 0 0  0 1 0 0 0  0 0 1 0 0  0 0 0 1 0"/>
	</filter>
</defs>
<mask maskUnits="userSpaceOnUse" x="-482.5" y="-43.9" width="213.6" height="213.6" id="SVGID_1_">
	<g class="st0">
		
			<linearGradient id="SVGID_2_" gradientUnits="userSpaceOnUse" x1="-247.9562" y1="5093.2251" x2="-246.8336" y2="5093.2251" gradientTransform="matrix(39.0402 12.085 12.085 -39.0402 -52304.1406 202081.2344)">
			<stop  offset="0" style="stop-color:#FFFFFF"/>
			<stop  offset="1" style="stop-color:#000000"/>
		</linearGradient>
		<polygon class="st1" points="-591.2,-5548.2 3348.2,-4328.8 103.5,6153.2 -3835.9,4933.8 		"/>
	</g>
</mask>
<g class="st2">
	<g>
		<defs>
			<rect id="SVGID_3_" x="-482.5" y="-43.9" width="213.6" height="213.6"/>
		</defs>
		<clipPath id="SVGID_4_">
			<use xlink:href="#SVGID_3_"  style="overflow:visible;"/>
		</clipPath>
		<path class="st3" d="M-353.3,159.8l-1.5-0.7c-0.6-0.3-55.4-26.4-76.5-39.5c-13.7-8.5-23.2-21.9-26.8-37.6
			c-3.6-15.7-0.9-31.9,7.6-45.5c13.1-21,38.1-31.9,62.4-27.3c19.8-14.8,47-16,68.1-2.8l0,0c13.7,8.5,23.2,21.9,26.8,37.6
			s0.9,31.9-7.6,45.5c-13.2,21.1-51,68.6-51.4,69.1L-353.3,159.8z M-399.3,12.3c-19,0-37.3,9.8-47.6,26.3
			c-7.9,12.7-10.4,27.7-7.1,42.3c3.4,14.6,12.2,27,24.9,34.9c18.9,11.8,65.5,34.2,74.5,38.6c6.2-7.9,38.3-48.4,50.1-67.3
			c7.9-12.7,10.4-27.7,7.1-42.3c-3.4-14.6-12.2-27-24.9-34.9c-19.8-12.4-45.5-11.1-64,3.2l-0.8,0.6l-1-0.2
			C-391.7,12.7-395.5,12.3-399.3,12.3z"/>
	</g>
</g>
<path class="st4" d="M-337.9,87.5c0-1.9,1.5-3.4,3.4-3.4c1.9,0,3.4,1.5,3.4,3.4c0,1.9-1.5,3.4-3.4,3.4
	C-336.4,90.9-337.9,89.4-337.9,87.5 M-345.1,127.8l7.5-5c-7.5-14.2-1.1-25.3,11.5-28V80.2c-12.6-2.7-19-13.8-11.5-28l-7.5-5
	c-11.3,13.5-34.6,16.7-49.5,1.8l-8.6,5.3c3.8,15.4-2.7,29.6-13.1,33.2c10.4,3.6,16.9,17.8,13.1,33.2l8.6,5.3
	C-379.7,111.1-356.4,114.3-345.1,127.8"/>
<defs>
	<filter id="Adobe_OpacityMaskFilter_1_" filterUnits="userSpaceOnUse" x="-489.9" y="233.8" width="228.7" height="228.7">
		<feColorMatrix  type="matrix" values="1 0 0 0 0  0 1 0 0 0  0 0 1 0 0  0 0 0 1 0"/>
	</filter>
</defs>
<mask maskUnits="userSpaceOnUse" x="-489.9" y="233.8" width="228.7" height="228.7" id="SVGID_5_">
	<g class="st5">
		
			<linearGradient id="SVGID_6_" gradientUnits="userSpaceOnUse" x1="-245.6658" y1="5087.7886" x2="-244.5433" y2="5087.7886" gradientTransform="matrix(47.4506 27.6169 27.6169 -47.4506 -129380.5156 248754.7188)">
			<stop  offset="0" style="stop-color:#FFFFFF"/>
			<stop  offset="1" style="stop-color:#000000"/>
		</linearGradient>
		<polygon class="st6" points="-699.7,-5406.2 4809.6,-2199.7 -283.8,6551.6 -5793.1,3345.2 		"/>
	</g>
</mask>
<g class="st7">
	<g>
		<defs>
			<rect id="SVGID_7_" x="-489.9" y="233.8" width="228.7" height="228.7"/>
		</defs>
		<clipPath id="SVGID_8_">
			<use xlink:href="#SVGID_7_"  style="overflow:visible;"/>
		</clipPath>
		<path class="st8" d="M-375.5,429.5c-21.7,0-42.1-8.5-57.5-23.8c-15.4-15.4-23.8-35.8-23.8-57.5c0-21.7,8.5-42.1,23.8-57.5
			c15.3-15.4,35.8-23.8,57.5-23.8s42.1,8.5,57.5,23.8c31.7,31.7,31.7,83.3,0,114.9l0,0C-333.4,421-353.8,429.5-375.5,429.5z
			 M-375.5,272.7c-20.2,0-39.1,7.9-53.4,22.1c-14.3,14.3-22.1,33.2-22.1,53.4s7.9,39.1,22.1,53.4s33.2,22.1,53.4,22.1
			s39.1-7.9,53.4-22.1c29.4-29.4,29.4-77.3,0-106.8C-336.4,280.6-355.4,272.7-375.5,272.7z"/>
	</g>
</g>
<path class="st4" d="M-371.2,394.5c-0.2-0.7-0.5-1.4-0.8-2.1l1.5-0.6c0.3,0.7,0.5,1.4,0.8,2.2L-371.2,394.5z M-368.3,398.4l-1.6,0.5
	c-0.2-0.7-0.4-1.5-0.7-2.2l1.5-0.5C-368.7,396.9-368.5,397.6-368.3,398.4 M-367.1,402.8l-1.6,0.4c-0.2-0.7-0.4-1.4-0.6-2.2l1.6-0.4
	C-367.5,401.3-367.3,402.1-367.1,402.8 M-373.7,388.3l1.5-0.7c0.3,0.7,0.6,1.4,0.9,2.1l-1.5,0.6C-373.1,389.7-373.4,389-373.7,388.3
	 M-376,405.8c-0.2-0.7-0.4-1.5-0.6-2.2l1.6-0.4c0.2,0.7,0.4,1.5,0.6,2.2L-376,405.8z M-377.8,399.3l1.5-0.5c0.2,0.7,0.5,1.5,0.7,2.2
	l-1.6,0.5C-377.4,400.8-377.6,400.1-377.8,399.3 M-378.6,397.2c-0.3-0.7-0.5-1.4-0.8-2.1l1.5-0.6c0.3,0.7,0.5,1.4,0.8,2.1
	L-378.6,397.2z M-381.1,391l1.5-0.7c0.3,0.7,0.6,1.4,0.9,2.1l-1.5,0.6C-380.5,392.3-380.8,391.7-381.1,391 M-383,387l1.4-0.8
	c0.4,0.7,0.7,1.4,1,2l-1.5,0.7C-382.4,388.3-382.7,387.6-383,387 M-384.8,383.8c-0.1-0.2-0.3-0.5-0.4-0.7l1.4-0.9
	c0.1,0.2,0.3,0.5,0.4,0.7c0.2,0.4,0.5,0.8,0.7,1.3l-1.4,0.8C-384.3,384.6-384.6,384.2-384.8,383.8 M-387.8,379.4l1.3-1
	c0.5,0.6,0.9,1.2,1.3,1.9l-1.3,0.9C-386.9,380.6-387.3,380-387.8,379.4 M-389,369.2c-0.5-0.5-1.1-1-1.7-1.5l1.1-1.2
	c0.6,0.5,1.1,1,1.7,1.5L-389,369.2z M-389.2,377.6c-0.5-0.6-1-1.1-1.5-1.7l1.2-1.1c0.5,0.6,1,1.2,1.5,1.7L-389.2,377.6z
	 M-392.1,374.3c-0.5-0.5-1.1-1.1-1.6-1.6l1.1-1.2c0.6,0.5,1.1,1.1,1.6,1.6L-392.1,374.3z M-392.9,363.4c0.5,0.5,1.1,1,1.7,1.5
	l-1.1,1.2c-0.6-0.5-1.1-1-1.7-1.5L-392.9,363.4z M-386.2,369.6c0.3,0.2,0.5,0.5,0.7,0.7c0.3,0.3,0.6,0.6,0.9,0.9l-1.1,1.2
	c-0.3-0.3-0.7-0.6-0.9-0.9c-0.2-0.2-0.4-0.4-0.7-0.7L-386.2,369.6z M-383,372.8c0.6,0.6,1.1,1.1,1.6,1.6l-1.2,1.1
	c-0.5-0.5-1-1-1.6-1.6L-383,372.8z M-379.8,376.1c0.5,0.6,1,1.2,1.5,1.8l-1.3,1c-0.5-0.6-0.9-1.1-1.4-1.7L-379.8,376.1z
	 M-376.9,379.7c0.5,0.6,0.9,1.3,1.3,1.9l-1.3,0.9c-0.4-0.6-0.8-1.2-1.3-1.8L-376.9,379.7z M-373.3,385.6l-1.4,0.8
	c-0.3-0.7-0.7-1.3-1.1-1.9l1.4-0.8C-374,384.2-373.6,384.9-373.3,385.6 M-386,368.3c-5.4-3.8-8.4-6.3-9.9-7.9c0,0,0,0,0,0
	c0,0.1,0,0.1,0,0.2c0.3,0.3,0.8,0.7,1.4,1.2l-1.1,1.2c-0.1-0.1-0.2-0.2-0.3-0.2c0,0.2,0,0.3,0,0.5c0,1.8,0,3.7,0.1,5.4
	c0.3,0.2,0.8,0.7,1.5,1.2l-1.1,1.2c-0.1-0.1-0.2-0.2-0.3-0.3c0.1,0.7,0.1,1.3,0.2,1.6c1.2,4.4,1.6,9.6,1,15
	c-0.3,2.8-0.8,5.4-1.3,7.6c-0.1,0.4-0.2,0.7-0.2,1.1c-0.1,0.3-0.2,0.7-0.2,1c-0.6,2.5-1.2,4.1-1.2,4.3l-0.1,0.4l-0.5,0.1
	c0,0,0,0,0,0c0,0,0,0,0,0c0,0,0,0-0.1,0c0,0,0,0,0,0c0,0-0.1,0-0.1,0c0,0,0,0-0.1,0c-0.1,0-0.1,0-0.2,0.1c0,0,0,0,0,0
	c-0.1,0-0.1,0-0.2,0.1c0,0,0,0-0.1,0c-0.1,0-0.1,0-0.2,0.1c0,0-0.1,0-0.1,0c-0.1,0-0.2,0.1-0.2,0.1c0,0,0,0,0,0
	c-0.1,0-0.2,0.1-0.3,0.1c0,0,0,0,0,0c6.8,2.5,13.9,3.8,21.2,3.8c3.5,0,7-0.3,10.5-0.9c0,0,0-0.1,0-0.1l1.6-0.4c0,0.1,0,0.1,0,0.2
	c0.3-0.1,0.5-0.1,0.8-0.2c-0.9-4.6-2.7-13.9-4.3-18C-372.7,380.1-378,373.9-386,368.3"/>
<path class="st4" d="M-366.8,390.3c-2.3-9.1-6-13.3-12.4-18.7c5.1,4.5,8.6,9.4,10.7,14.8c1.6,4.1,3.4,12.8,4.4,18.2
	c0.2,0,0.4-0.1,0.6-0.1c-0.1-0.3-0.1-0.6-0.2-1C-364.4,400.6-365.4,396.1-366.8,390.3"/>
<path class="st4" d="M-345.9,361.1c-2.7,0-4.9-2.2-4.9-4.9c0-2.7,2.2-4.9,4.9-4.9s4.9,2.2,4.9,4.9
	C-341.1,358.9-343.3,361.1-345.9,361.1 M-345.9,348.7c-4.2,0-7.5,3.4-7.5,7.5c0,4.2,3.4,7.5,7.5,7.5s7.5-3.4,7.5-7.5
	C-338.4,352.1-341.8,348.7-345.9,348.7"/>
<path class="st4" d="M-385.1,367c0.8,0.6,1.6,1.1,2.4,1.7c-0.2-0.1-0.3-0.3-0.5-0.4l-1.2-1c-6.5-5.3-10-8.8-11.6-10.6
	c0,0.1,0,0.1,0,0.2c0,0.1,0,0.2,0,0.3c0,0,0,0.1,0,0.1c0,0.1,0,0.1,0,0.2c0,0,0,0.1,0,0.1c0,0.1,0,0.1,0,0.2c0,0,0,0.1,0,0.1
	c0,0,0,0.1,0,0.1C-395.5,358.6-393.1,361.4-385.1,367"/>
<path class="st4" d="M-364.8,345.4l0.8,1.4c-0.6,0.4-1.3,0.7-2,1.1l-0.8-1.4C-366.1,346.1-365.4,345.8-364.8,345.4 M-369.7,349.9
	l-0.3,0.1l-0.8-1.4l0.3-0.1c0.6-0.3,1.2-0.6,1.7-0.9l0.8,1.4C-368.5,349.3-369.1,349.6-369.7,349.9 M-374,352.1l-0.7-1.5
	c0.6-0.3,1.3-0.7,2-1l0.7,1.4C-372.7,351.5-373.4,351.8-374,352.1 M-360.9,343.1l0.8,1.4c-0.6,0.4-1.3,0.8-1.9,1.2l-0.8-1.4
	C-362.2,343.9-361.5,343.5-360.9,343.1 M-357.1,340.7l0.9,1.3c-0.6,0.4-1.3,0.8-1.9,1.3l-0.9-1.4
	C-358.4,341.5-357.7,341.1-357.1,340.7 M-353.5,338.1l1,1.3c-0.6,0.4-1.2,0.9-1.9,1.3l-0.9-1.3C-354.7,339-354,338.5-353.5,338.1
	 M-349.9,335.3l1,1.2c-0.6,0.5-1.2,1-1.8,1.4l-1-1.3C-351.1,336.3-350.5,335.8-349.9,335.3 M-346.6,332.4l1.1,1.2
	c-0.6,0.5-1.1,1-1.7,1.5l-1.1-1.2C-347.7,333.4-347.1,332.9-346.6,332.4 M-343.4,329.2l1.2,1.1c-0.6,0.6-1.1,1.1-1.6,1.6l-1.1-1.2
	C-344.4,330.3-343.9,329.8-343.4,329.2 M-340.3,325.9l1.2,1.1c-0.5,0.5-1,1.1-1.5,1.7l-1.2-1.1C-341.3,327-340.8,326.5-340.3,325.9
	 M-337.2,322.6l1.2,1.1c-0.5,0.5-1,1.1-1.5,1.6l-1.2-1.1C-338.2,323.6-337.7,323.1-337.2,322.6 M-378.2,354.1l-0.6-1.5
	c0.6-0.3,1.3-0.6,2-0.9l0.7,1.5C-376.8,353.5-377.5,353.8-378.2,354.1 M-382.5,355.6l-0.4-1.6c0.7-0.2,1.3-0.4,2.1-0.7l0.6,1.5
	C-381.1,355.2-381.8,355.4-382.5,355.6 M-386.8,356.2c-0.1,0-0.3,0-0.4,0l0-1.6c0.7,0,1.4,0,2.1-0.1l0.2,1.6
	C-385.5,356.2-386.1,356.2-386.8,356.2 M-389.6,356c-0.7-0.1-1.4-0.3-2.3-0.5l0.4-1.6c0.8,0.2,1.5,0.3,2.2,0.4L-389.6,356z
	 M-333.9,319.4l1.1,1.2c-0.5,0.5-1.1,1-1.6,1.5l-1.1-1.2C-335,320.4-334.5,319.9-333.9,319.4 M-330.5,316.4l1.1,1.2
	c-0.5,0.5-1.1,1-1.7,1.5l-1.1-1.2C-331.6,317.4-331.1,316.9-330.5,316.4 M-319,351.7c-0.2,0.1-0.3,0.3-0.5,0.5
	c-0.1,0.1-0.2,0.2-0.3,0.3c-0.2,0.2-0.3,0.3-0.5,0.5c-0.1,0.1-0.2,0.2-0.3,0.3c-0.2,0.2-0.3,0.3-0.5,0.5c-0.1,0.1-0.2,0.2-0.3,0.3
	c-0.2,0.2-0.3,0.3-0.5,0.5c-0.1,0.1-0.2,0.2-0.3,0.3c-0.2,0.2-0.4,0.4-0.5,0.5c-0.1,0.1-0.2,0.2-0.3,0.3c-0.2,0.2-0.4,0.4-0.6,0.5
	c-0.1,0.1-0.2,0.2-0.3,0.3c-0.2,0.2-0.4,0.4-0.5,0.5c-0.1,0.1-0.2,0.2-0.3,0.3c-0.2,0.2-0.4,0.4-0.6,0.6c-0.1,0.1-0.2,0.2-0.2,0.2
	c-0.2,0.2-0.4,0.4-0.6,0.6c-0.1,0.1-0.1,0.1-0.2,0.2c-0.2,0.2-0.4,0.4-0.7,0.7c-0.1,0.1-0.1,0.1-0.2,0.2c-0.2,0.2-0.5,0.5-0.7,0.7
	c0,0-0.1,0.1-0.1,0.1c-0.3,0.3-0.6,0.6-1,0.9c-0.9,0.9-1.8,1.8-2.6,2.6c-0.7,0.7-1.4,1.4-2,2c0,0-0.1,0.1-0.1,0.1
	c-0.2,0.2-0.4,0.4-0.6,0.6c0,0-0.1,0.1-0.1,0.1c-0.2,0.2-0.4,0.4-0.6,0.6c0,0-0.1,0.1-0.1,0.1c-0.2,0.2-0.4,0.4-0.6,0.6
	c0,0-0.1,0.1-0.1,0.1c-0.2,0.2-0.3,0.3-0.5,0.5c-0.1,0.1-0.1,0.1-0.2,0.2c-0.2,0.2-0.3,0.3-0.4,0.5c-0.1,0.1-0.1,0.1-0.2,0.2
	c-0.1,0.1-0.3,0.3-0.4,0.4c-0.1,0.1-0.1,0.1-0.2,0.2c-0.1,0.1-0.2,0.3-0.4,0.4c0,0-0.1,0.1-0.1,0.1c-0.1,0.1-0.2,0.3-0.4,0.4
	c0,0-0.1,0.1-0.1,0.1c-0.1,0.1-0.2,0.2-0.3,0.3c0,0-0.1,0.1-0.1,0.1c-0.1,0.1-0.2,0.2-0.3,0.3c0,0-0.1,0.1-0.1,0.1
	c-0.1,0.1-0.2,0.2-0.3,0.4c-0.2,0.2-0.4,0.4-0.6,0.6c-0.1,0.1-0.1,0.1-0.2,0.2c-0.1,0.1-0.3,0.3-0.4,0.4c-0.1,0.1-0.2,0.1-0.2,0.2
	c-0.1,0.1-0.3,0.2-0.4,0.3c-0.1,0.1-0.2,0.1-0.2,0.2c-0.1,0.1-0.3,0.2-0.4,0.3c-0.1,0.1-0.1,0.1-0.2,0.2c-0.2,0.1-0.4,0.3-0.6,0.4
	c0,0-0.1,0-0.1,0c-0.2,0.1-0.4,0.3-0.7,0.4c-0.1,0-0.1,0.1-0.2,0.1c-0.2,0.1-0.3,0.2-0.5,0.3c-0.1,0-0.2,0.1-0.2,0.1
	c-0.2,0.1-0.3,0.2-0.5,0.2c-0.1,0-0.2,0.1-0.3,0.1c-0.2,0.1-0.3,0.1-0.5,0.2c-0.1,0-0.2,0.1-0.2,0.1c-0.2,0.1-0.4,0.1-0.6,0.2
	c0,0-0.1,0-0.1,0.1c-0.2,0.1-0.5,0.2-0.7,0.2c-0.1,0-0.1,0-0.2,0c-0.2,0-0.4,0.1-0.5,0.1c-0.1,0-0.2,0-0.3,0.1
	c-0.2,0-0.3,0.1-0.5,0.1c-0.1,0-0.2,0-0.3,0c-0.2,0-0.3,0-0.5,0.1c-0.1,0-0.2,0-0.3,0c-0.2,0-0.4,0-0.5,0c-0.1,0-0.1,0-0.2,0
	c-0.2,0-0.5,0-0.7,0c0,0,0,0,0,0c-0.2,0-0.4,0-0.6,0c-0.1,0-0.1,0-0.2,0c-0.2,0-0.3,0-0.5,0c-0.1,0-0.1,0-0.2,0c-0.1,0-0.3,0-0.4,0
	c-0.1,0-0.1,0-0.2,0c-0.2,0-0.3,0-0.5-0.1c0,0-0.1,0-0.1,0c-0.2,0-0.4-0.1-0.6-0.1c0,0-0.1,0-0.1,0c-0.2,0-0.3-0.1-0.5-0.1
	c-0.1,0-0.1,0-0.2-0.1c-0.1,0-0.3-0.1-0.4-0.1c-0.1,0-0.1,0-0.2-0.1c-0.1,0-0.3-0.1-0.4-0.2c-0.1,0-0.1,0-0.2-0.1
	c-0.2-0.1-0.4-0.2-0.6-0.2c0,0-0.1,0-0.1,0c-0.2-0.1-0.4-0.2-0.5-0.2c-0.1,0-0.1-0.1-0.2-0.1c-0.1-0.1-0.3-0.1-0.4-0.2
	c-0.1,0-0.1-0.1-0.2-0.1c-0.1-0.1-0.3-0.1-0.4-0.2c-0.1,0-0.1-0.1-0.2-0.1c-0.2-0.1-0.4-0.2-0.6-0.4c-3.5-2.2-5.7-5.4-6.3-9.5
	c-0.4-3.2,0.1-6.8,1.6-9.9c1.8-3.9,10.8-12.9,18.8-20.9c3.2-3.2,6.2-6.2,8.3-8.5c0.3-0.3,0.6-0.6,0.8-0.9c0.1-0.1,0.2-0.2,0.3-0.3
	c0.2-0.2,0.4-0.4,0.6-0.6c0.1-0.1,0.2-0.2,0.3-0.3c0.2-0.2,0.3-0.4,0.5-0.5c0.1-0.1,0.2-0.2,0.3-0.3c0.2-0.2,0.3-0.3,0.5-0.5
	c0.1-0.1,0.2-0.2,0.3-0.3c0.2-0.2,0.3-0.3,0.5-0.5c0.1-0.1,0.2-0.2,0.4-0.3c0.2-0.2,0.3-0.3,0.5-0.5c0.1-0.1,0.2-0.2,0.3-0.3
	c0.2-0.1,0.3-0.3,0.5-0.4c0.1-0.1,0.2-0.2,0.3-0.3c0.2-0.1,0.3-0.3,0.5-0.4c0.1-0.1,0.2-0.2,0.3-0.3c0.2-0.1,0.3-0.3,0.4-0.4
	c0.1-0.1,0.2-0.2,0.3-0.3c0.1-0.1,0.3-0.3,0.4-0.4c0.1-0.1,0.2-0.2,0.3-0.3c0.1-0.1,0.3-0.3,0.4-0.4c0.1-0.1,0.2-0.2,0.3-0.3
	c0.1-0.1,0.3-0.2,0.4-0.4c0.1-0.1,0.2-0.2,0.3-0.3c0.1-0.1,0.3-0.2,0.4-0.4c0.1-0.1,0.2-0.2,0.3-0.2c0.1-0.1,0.3-0.2,0.4-0.4
	c0.1-0.1,0.2-0.1,0.2-0.2c0.1-0.1,0.3-0.2,0.4-0.4c0.1-0.1,0.1-0.1,0.2-0.2c0,0,0,0,0.1,0c-0.1-0.2-0.2-0.3-0.3-0.5
	c-0.5,0.4-1.1,0.9-1.6,1.4l-1.1-1.2c0.6-0.5,1.2-1,1.7-1.5l0.6,0.7c-0.9-1.5-1.9-3-2.9-4.4c0,0,0,0,0,0c-0.1,0.1-0.2,0.1-0.3,0.2
	c0,0-0.1,0-0.1,0.1c-0.1,0.1-0.2,0.1-0.3,0.2c-0.1,0-0.1,0.1-0.2,0.1c-0.1,0-0.2,0.1-0.2,0.1c-0.1,0-0.2,0.1-0.2,0.1
	c-0.1,0-0.1,0.1-0.2,0.1c-0.1,0.1-0.2,0.1-0.3,0.2c-0.1,0-0.1,0.1-0.2,0.1c-0.1,0.1-0.2,0.1-0.4,0.2c0,0-0.1,0.1-0.1,0.1
	c-0.2,0.1-0.4,0.2-0.6,0.3c0,0,0,0-0.1,0c-0.2,0.1-0.3,0.2-0.5,0.3c-0.1,0-0.1,0.1-0.2,0.1c-0.1,0.1-0.3,0.2-0.4,0.2
	c-0.1,0-0.2,0.1-0.2,0.1c-0.1,0.1-0.3,0.2-0.4,0.2c-0.1,0-0.2,0.1-0.3,0.1c-0.1,0.1-0.3,0.2-0.4,0.2c-0.1,0.1-0.2,0.1-0.3,0.2
	c-0.1,0.1-0.3,0.2-0.4,0.3c-0.1,0.1-0.2,0.1-0.3,0.2c-0.2,0.1-0.3,0.2-0.5,0.3c-0.1,0.1-0.2,0.1-0.3,0.2c-0.2,0.1-0.4,0.2-0.5,0.3
	c-0.1,0-0.2,0.1-0.2,0.1c-0.3,0.2-0.5,0.3-0.8,0.5c-7.7,4.4-34.2,18.4-36.6,18.6c-0.7,0.1-1.8-0.1-3.3-0.2
	c-3.1-0.3-7.8-0.9-10.2,0.2c-6.5,2.8-9.9,6.9-9.9,12.1c0,3.7,3,6.9,3.7,7.6c0.3,0.1,0.6,0.2,0.9,0.2l-0.1,0.5l1.1,1l-1.3-0.1
	l-0.1,0.2c-0.3-0.1-0.7-0.2-1-0.3c0,0,0,0,0,0c0,0,0,0,0,0c0,0,0,0-0.1,0c0,0,0,0,0,0c0,0-0.1,0-0.1,0c0,0,0,0,0,0c0,0-0.1,0-0.1,0
	c0,0,0,0,0,0c0,0,0,0-0.1,0c0,0,0,0,0,0c0,0,0,0,0,0c1.1,1.3,4.6,5.1,12.1,11.2l1.2,1c8.8,7.2,14.2,11.5,17,22.9
	c1.4,5.8,2.4,10.3,3.1,13.3c0.1,0.3,0.1,0.6,0.2,0.9c12-3.4,22.6-10.3,30.5-20.1c7.8-9.6,12.5-21,13.5-33.3
	c-0.2,0.2-0.5,0.5-0.7,0.7C-318.8,351.5-318.9,351.6-319,351.7"/>
<path class="st4" d="M-321.1,350l-1.1-1.2c0.5-0.5,1.1-1,1.6-1.6l1.1,1.2C-320,349-320.6,349.5-321.1,350 M-324.5,353.1l-1.1-1.2
	c0.5-0.5,1.1-1,1.7-1.5l1.1,1.2C-323.4,352.1-323.9,352.6-324.5,353.1 M-327.8,356.2l-1.1-1.2c0.6-0.5,1.1-1,1.7-1.6l1.1,1.2
	C-326.7,355.1-327.2,355.6-327.8,356.2 M-329.4,321.9c0.6-0.5,1.1-1.1,1.7-1.5l1.1,1.2c-0.5,0.5-1.1,1-1.7,1.5L-329.4,321.9z
	 M-331,359.3l-1.1-1.2c0.5-0.5,1.1-1.1,1.6-1.6l1.1,1.2C-330,358.3-330.5,358.8-331,359.3 M-332.7,325.1c0.6-0.5,1.1-1.1,1.6-1.6
	l1.1,1.2c-0.5,0.5-1.1,1-1.6,1.6L-332.7,325.1z M-334.3,362.5l-1.1-1.1c0.5-0.5,1.1-1.1,1.6-1.6l1.1,1.2
	C-333.2,361.4-333.7,362-334.3,362.5 M-335.9,328.3c0.5-0.5,1.1-1.1,1.6-1.6l1.1,1.1c-0.5,0.5-1.1,1.1-1.6,1.6L-335.9,328.3z
	 M-337.5,365.7l-1.1-1.2c0.5-0.5,1.1-1.1,1.6-1.6l1.1,1.2C-336.4,364.6-337,365.2-337.5,365.7 M-345.9,365.4c-5,0-9.1-4.1-9.1-9.1
	c0-5,4.1-9.1,9.1-9.1c5,0,9.1,4.1,9.1,9.1C-336.8,361.3-340.9,365.4-345.9,365.4 M-340.8,368.8l-1.1-1.2c0.5-0.5,1.1-1,1.6-1.6
	l1.1,1.2C-339.7,367.8-340.2,368.3-340.8,368.8 M-344.1,371.9l-1.1-1.2c0.5-0.4,1.1-0.9,1.7-1.5l1.1,1.2
	C-343,371-343.6,371.5-344.1,371.9 M-347.8,374.7l-0.8-1.4c0.5-0.3,1.1-0.7,1.8-1.3l1,1.3C-346.6,374-347.3,374.4-347.8,374.7
	 M-351.7,375.8c-0.3,0-0.7,0-1-0.1l0.2-1.6c0.7,0.1,1.4,0.1,2-0.1l0.3,1.6C-350.7,375.8-351.2,375.8-351.7,375.8 M-355.1,375.2
	c-0.7-0.3-1.5-0.7-2.2-1.1l0.9-1.4c0.6,0.4,1.2,0.7,1.9,0.9L-355.1,375.2z M-356.3,349.6l1.2,1.1c-0.5,0.6-1,1.1-1.5,1.7l-1.2-1.1
	C-357.4,350.8-356.9,350.2-356.3,349.6 M-359.2,372.6c-0.6-0.6-1.1-1.2-1.6-1.8l1.3-0.9c0.4,0.6,0.9,1.1,1.4,1.6L-359.2,372.6z
	 M-361.9,368.6c-0.2-0.6-0.4-1.2-0.5-1.7c0-0.2-0.1-0.4-0.1-0.6l1.6-0.3c0,0.2,0.1,0.4,0.1,0.6c0.1,0.5,0.2,1,0.4,1.5L-361.9,368.6z
	 M-363.3,361.6l1.6,0c0,0.6,0.1,1.3,0.2,2.1l-1.6,0.3C-363.2,363.1-363.3,362.3-363.3,361.6 M-362,356.9l1.4,0.8
	c-0.4,0.7-0.6,1.3-0.8,1.9l-1.6-0.5C-362.7,358.4-362.4,357.7-362,356.9 M-359.3,353.1l1.3,1c-0.5,0.6-0.9,1.2-1.3,1.8l-1.3-0.9
	C-360.3,354.3-359.9,353.7-359.3,353.1 M-354.1,347.3c0.3-0.3,0.6-0.7,1-1l1.2,1.1c-0.3,0.3-0.7,0.7-1,1c-0.2,0.2-0.4,0.4-0.6,0.6
	l-1.2-1.1C-354.5,347.8-354.3,347.6-354.1,347.3 M-350,343.1l1.2,1.1c-0.5,0.6-1.1,1.1-1.6,1.6l-1.2-1.1
	C-351.1,344.2-350.5,343.6-350,343.1 M-346.9,339.8l1.2,1.1c-0.5,0.6-1,1.1-1.6,1.6l-1.2-1.1C-347.9,340.9-347.4,340.4-346.9,339.8
	 M-343.8,336.5l1.2,1.1l-1.6,1.6l-1.2-1.1L-343.8,336.5z M-340.6,333.2l1.2,1.1c-0.5,0.5-1,1.1-1.6,1.6l-1.2-1.1
	C-341.7,334.3-341.2,333.8-340.6,333.2 M-337.5,329.9l1.2,1.1c-0.5,0.5-1,1.1-1.6,1.6l-1.2-1.1C-338.6,331-338,330.5-337.5,329.9
	 M-319,345.7c0.4-0.4,0.8-0.8,1.2-1.2c-0.1-8.8-2.2-17.5-6-25.4c-0.4,0.3-0.8,0.6-1.2,1l-1-1.2c0.5-0.4,1-0.9,1.5-1.2
	c-0.2-0.3-0.3-0.7-0.5-1c-0.1,0.1-0.2,0.1-0.2,0.2c-0.1,0.1-0.2,0.2-0.3,0.3c-0.1,0.1-0.2,0.2-0.4,0.3c-0.1,0.1-0.2,0.1-0.3,0.2
	c-0.2,0.2-0.4,0.3-0.6,0.5c0,0-0.1,0.1-0.1,0.1c-0.2,0.2-0.5,0.4-0.7,0.6c-0.1,0.1-0.1,0.1-0.2,0.2c-0.2,0.1-0.3,0.3-0.5,0.5
	c-0.1,0.1-0.2,0.2-0.3,0.2c-0.2,0.1-0.3,0.3-0.5,0.4c-0.1,0.1-0.2,0.2-0.3,0.3c-0.2,0.1-0.3,0.3-0.5,0.4c-0.1,0.1-0.2,0.2-0.3,0.3
	c-0.2,0.1-0.3,0.3-0.5,0.4c-0.1,0.1-0.2,0.2-0.3,0.3c-0.2,0.1-0.3,0.3-0.5,0.4c-0.1,0.1-0.2,0.2-0.3,0.3c-0.2,0.1-0.3,0.3-0.5,0.5
	c-0.1,0.1-0.2,0.2-0.3,0.3c-0.2,0.2-0.3,0.3-0.5,0.5c-0.1,0.1-0.2,0.2-0.3,0.3c-0.2,0.2-0.3,0.3-0.5,0.5c-0.1,0.1-0.2,0.2-0.3,0.3
	c-0.2,0.2-0.3,0.3-0.5,0.5c-0.1,0.1-0.2,0.2-0.3,0.3c-0.2,0.2-0.4,0.4-0.6,0.6c-0.1,0.1-0.2,0.2-0.3,0.3c-0.3,0.3-0.6,0.6-0.8,0.9
	c-2.2,2.3-5.2,5.3-8.4,8.5c-7.5,7.5-16.9,16.9-18.5,20.5c-0.4,0.8-0.7,1.8-1,2.8c-0.4,1.4-0.6,3-0.6,4.6c0,0.2,0,0.5,0,0.7
	c0.2,3.2,1.5,6.4,4.9,8.8c0.2,0.2,0.5,0.3,0.8,0.5c9,5.5,15.9,0,18.4-2.6c0.1-0.1,0.2-0.2,0.4-0.4c0,0,0.1-0.1,0.1-0.1
	c0.1-0.1,0.2-0.2,0.3-0.3c0.1-0.1,0.2-0.2,0.2-0.2c0.1-0.1,0.1-0.1,0.2-0.2c0.3-0.3,0.6-0.6,0.9-0.9c0.1-0.1,0.1-0.1,0.2-0.2
	c0.1-0.1,0.2-0.2,0.4-0.4c0.1-0.1,0.1-0.1,0.2-0.2c0.1-0.1,0.3-0.3,0.4-0.4c0.1-0.1,0.1-0.1,0.2-0.2c0.1-0.1,0.3-0.3,0.4-0.4
	c0.1-0.1,0.1-0.1,0.2-0.2c0.2-0.2,0.3-0.3,0.5-0.5c0.1-0.1,0.1-0.1,0.2-0.2c0.1-0.2,0.3-0.3,0.5-0.5c0.1-0.1,0.2-0.2,0.3-0.3
	c0.1-0.1,0.3-0.3,0.5-0.5c0.1-0.1,0.2-0.2,0.3-0.3c0.2-0.2,0.3-0.3,0.5-0.5c0.1-0.1,0.2-0.2,0.3-0.3c0.2-0.2,0.4-0.3,0.5-0.5
	c0.1-0.1,0.2-0.2,0.2-0.2c0.2-0.2,0.3-0.3,0.5-0.5c0.1-0.1,0.2-0.2,0.3-0.3c0.1-0.1,0.3-0.3,0.4-0.4c0.1-0.1,0.3-0.3,0.4-0.4
	c0.1-0.1,0.2-0.2,0.4-0.4c0.2-0.2,0.3-0.3,0.5-0.5c0.1-0.1,0.3-0.3,0.4-0.4c0.1-0.1,0.3-0.3,0.4-0.4c0.1-0.1,0.3-0.3,0.4-0.4
	c0.1-0.1,0.3-0.3,0.4-0.4c0.1-0.1,0.3-0.3,0.4-0.4c0.1-0.1,0.3-0.3,0.4-0.4c0.1-0.1,0.3-0.3,0.4-0.4c0.2-0.2,0.3-0.3,0.5-0.5
	c0.1-0.1,0.3-0.2,0.4-0.4c0.2-0.2,0.3-0.3,0.5-0.5c0.1-0.1,0.2-0.2,0.4-0.4c0.2-0.2,0.3-0.3,0.5-0.5c0.1-0.1,0.2-0.2,0.3-0.3
	c0.2-0.2,0.3-0.3,0.5-0.5c0.1-0.1,0.3-0.3,0.4-0.4c0.2-0.2,0.3-0.3,0.5-0.5c0.1-0.1,0.3-0.2,0.4-0.4c0.2-0.2,0.3-0.3,0.5-0.5
	c0.1-0.1,0.2-0.2,0.4-0.3c0.2-0.2,0.3-0.3,0.5-0.5c0.1-0.1,0.2-0.2,0.4-0.4c0.2-0.1,0.3-0.3,0.5-0.4c0.1-0.1,0.2-0.2,0.4-0.3
	c0.2-0.2,0.3-0.3,0.5-0.4c0.1-0.1,0.2-0.2,0.3-0.3c0.2-0.1,0.3-0.3,0.4-0.4c0.1-0.1,0.2-0.2,0.3-0.3c0.1-0.1,0.3-0.3,0.4-0.4
	c0.1-0.1,0.2-0.2,0.3-0.3c0.1-0.1,0.3-0.3,0.4-0.4c0.1-0.1,0.2-0.2,0.3-0.3c0.1-0.1,0.2-0.2,0.3-0.3c0-0.5,0-1.1,0-1.6
	c0,0-0.1,0.1-0.1,0.1L-319,345.7z"/>
<path class="st9" d="M-342.2,330.3l-1.2-1.1c-0.5,0.6-1.1,1.1-1.6,1.6l1.1,1.2C-343.3,331.4-342.8,330.9-342.2,330.3"/>
<path class="st9" d="M-345.5,333.5l-1.1-1.2c-0.5,0.5-1.1,1-1.7,1.5l1.1,1.2C-346.6,334.6-346,334.1-345.5,333.5"/>
<path class="st9" d="M-339.1,327l-1.2-1.1c-0.5,0.5-1,1.1-1.5,1.7l1.2,1.1C-340.1,328.1-339.6,327.6-339.1,327"/>
<path class="st9" d="M-336,323.7l-1.2-1.1c-0.5,0.5-0.9,1-1.6,1.7l1.2,1.1C-337.1,324.8-336.6,324.2-336,323.7"/>
<path class="st9" d="M-329.5,317.6l-1.1-1.2c-0.6,0.5-1.1,1-1.7,1.5l1.1,1.2C-330.6,318.6-330,318.1-329.5,317.6"/>
<path class="st9" d="M-332.9,320.6l-1.1-1.2c-0.6,0.5-1.1,1-1.7,1.6l1.1,1.2C-333.9,321.6-333.4,321.1-332.9,320.6"/>
<path class="st9" d="M-364,346.8l-0.8-1.4c-0.6,0.4-1.3,0.7-2,1.1l0.8,1.4C-365.3,347.5-364.6,347.2-364,346.8"/>
<path class="st9" d="M-391.9,355.5c0.9,0.2,1.6,0.4,2.3,0.5l0.3-1.6c-0.6-0.1-1.3-0.2-2.2-0.4L-391.9,355.5z"/>
<path class="st9" d="M-382.9,354.1l0.4,1.6c0.7-0.2,1.4-0.4,2.2-0.7l-0.6-1.5C-381.6,353.7-382.3,353.9-382.9,354.1"/>
<path class="st9" d="M-387.2,354.6l0,1.6c0.1,0,0.3,0,0.4,0c0.7,0,1.3,0,2-0.1l-0.2-1.6C-385.8,354.6-386.5,354.6-387.2,354.6"/>
<path class="st9" d="M-348.9,336.6l-1-1.2c-0.6,0.5-1.2,0.9-1.7,1.4l1,1.3C-350.1,337.5-349.5,337-348.9,336.6"/>
<path class="st9" d="M-356.2,342l-0.9-1.3c-0.6,0.4-1.2,0.8-1.9,1.2l0.9,1.4C-357.5,342.8-356.8,342.4-356.2,342"/>
<path class="st9" d="M-378.8,352.6l0.6,1.5c0.7-0.3,1.3-0.6,2.1-0.9l-0.7-1.5C-377.5,352-378.2,352.3-378.8,352.6"/>
<path class="st9" d="M-352.5,339.4l-1-1.3c-0.6,0.4-1.2,0.9-1.8,1.3l0.9,1.3C-353.7,340.3-353.1,339.8-352.5,339.4"/>
<path class="st9" d="M-360.1,344.5l-0.8-1.4c-0.6,0.4-1.3,0.8-1.9,1.2l0.8,1.4C-361.3,345.3-360.7,344.9-360.1,344.5"/>
<path class="st9" d="M-374.7,350.7l0.7,1.5c0.6-0.3,1.3-0.7,2-1l-0.7-1.4C-373.4,350-374.1,350.4-374.7,350.7"/>
<path class="st9" d="M-370.4,348.5l-0.3,0.1l0.8,1.4l0.3-0.1c0.6-0.3,1.2-0.6,1.7-0.9l-0.8-1.4
	C-369.3,347.9-369.8,348.2-370.4,348.5"/>
<path class="st9" d="M-390.6,367.7c0.6,0.5,1.1,1,1.7,1.5l1.1-1.2c-0.5-0.5-1.1-1-1.7-1.5L-390.6,367.7z"/>
<path class="st9" d="M-378.3,377.9c-0.5-0.6-1-1.2-1.5-1.8l-1.2,1.1c0.5,0.6,1,1.1,1.4,1.7L-378.3,377.9z"/>
<path class="st9" d="M-385.7,372.4l1.1-1.2c-0.3-0.3-0.6-0.6-0.9-0.9c-0.2-0.2-0.5-0.4-0.7-0.7l-1.1,1.2c0.2,0.2,0.5,0.5,0.7,0.7
	C-386.4,371.7-386.1,372-385.7,372.4"/>
<path class="st9" d="M-391.2,365c-0.6-0.5-1.2-1-1.7-1.5l-1.1,1.2c0.5,0.5,1.1,1,1.7,1.5L-391.2,365z"/>
<path class="st9" d="M-382.5,375.5l1.2-1.1c-0.5-0.5-1-1.1-1.6-1.6l-1.1,1.1C-383.5,374.5-383,375-382.5,375.5"/>
<path class="st9" d="M-390.6,376c0.5,0.6,1,1.1,1.5,1.7l1.2-1c-0.5-0.6-1-1.2-1.5-1.7L-390.6,376z"/>
<path class="st9" d="M-392.6,371.6l-1.1,1.2c0.5,0.5,1.1,1,1.6,1.6l1.2-1.1C-391.5,372.6-392.1,372.1-392.6,371.6"/>
<path class="st9" d="M-317.8,348.4c-0.1,0.1-0.2,0.2-0.3,0.3c-0.1,0.1-0.2,0.2-0.3,0.3c-0.1,0.1-0.3,0.3-0.4,0.4
	c-0.1,0.1-0.2,0.2-0.3,0.3c-0.1,0.1-0.3,0.3-0.4,0.4c-0.1,0.1-0.2,0.2-0.3,0.3c-0.1,0.1-0.3,0.3-0.4,0.4c-0.1,0.1-0.2,0.2-0.3,0.3
	c-0.2,0.1-0.3,0.3-0.5,0.4c-0.1,0.1-0.2,0.2-0.4,0.3c-0.2,0.1-0.3,0.3-0.5,0.4c-0.1,0.1-0.2,0.2-0.4,0.4c-0.2,0.2-0.3,0.3-0.5,0.5
	c-0.1,0.1-0.2,0.2-0.4,0.3c-0.2,0.2-0.3,0.3-0.5,0.5c-0.1,0.1-0.3,0.2-0.4,0.4c-0.2,0.2-0.3,0.3-0.5,0.5c-0.1,0.1-0.3,0.3-0.4,0.4
	c-0.2,0.2-0.3,0.3-0.5,0.5c-0.1,0.1-0.2,0.2-0.3,0.3c-0.2,0.2-0.3,0.3-0.5,0.5c-0.1,0.1-0.2,0.2-0.4,0.4c-0.2,0.2-0.3,0.3-0.5,0.5
	c-0.1,0.1-0.3,0.2-0.4,0.4c-0.2,0.2-0.3,0.3-0.5,0.5c-0.1,0.1-0.3,0.3-0.4,0.4c-0.1,0.1-0.3,0.3-0.4,0.4c-0.1,0.1-0.3,0.3-0.4,0.4
	c-0.1,0.1-0.3,0.3-0.4,0.4c-0.1,0.1-0.3,0.3-0.4,0.4c-0.1,0.1-0.3,0.3-0.4,0.4c-0.1,0.1-0.3,0.3-0.4,0.4c-0.2,0.2-0.3,0.3-0.5,0.5
	c-0.1,0.1-0.2,0.2-0.4,0.4c-0.1,0.1-0.3,0.3-0.4,0.4c-0.1,0.1-0.3,0.3-0.4,0.4c-0.1,0.1-0.2,0.2-0.3,0.3c-0.2,0.2-0.3,0.3-0.5,0.5
	c-0.1,0.1-0.2,0.2-0.2,0.2c-0.2,0.2-0.4,0.4-0.5,0.5c-0.1,0.1-0.2,0.2-0.3,0.3c-0.2,0.2-0.3,0.3-0.5,0.5c-0.1,0.1-0.2,0.2-0.3,0.3
	c-0.2,0.2-0.3,0.3-0.5,0.5c-0.1,0.1-0.2,0.2-0.3,0.3c-0.2,0.2-0.3,0.3-0.5,0.5c-0.1,0.1-0.1,0.1-0.2,0.2c-0.2,0.2-0.3,0.3-0.5,0.5
	c-0.1,0.1-0.1,0.1-0.2,0.2c-0.1,0.1-0.3,0.3-0.4,0.4c-0.1,0.1-0.1,0.1-0.2,0.2c-0.1,0.1-0.3,0.3-0.4,0.4c-0.1,0.1-0.1,0.1-0.2,0.2
	c-0.1,0.1-0.2,0.2-0.4,0.4c-0.1,0.1-0.1,0.1-0.2,0.2c-0.3,0.3-0.6,0.6-0.9,0.9c-0.1,0.1-0.1,0.1-0.2,0.2c-0.1,0.1-0.2,0.2-0.2,0.2
	c-0.1,0.1-0.2,0.2-0.3,0.3c0,0-0.1,0.1-0.1,0.1c-0.1,0.1-0.2,0.3-0.4,0.4c-2.5,2.6-9.4,8.1-18.4,2.6c-0.3-0.2-0.5-0.3-0.8-0.5
	c-3.4-2.4-4.6-5.6-4.9-8.8c0-0.2,0-0.5,0-0.7c0-1.6,0.2-3.2,0.6-4.6c0.3-1,0.6-2,1-2.8c1.7-3.6,11-13,18.5-20.5
	c3.2-3.2,6.2-6.2,8.4-8.5c0.3-0.3,0.5-0.6,0.8-0.9c0.1-0.1,0.2-0.2,0.3-0.3c0.2-0.2,0.4-0.4,0.6-0.6c0.1-0.1,0.2-0.2,0.3-0.3
	c0.2-0.2,0.3-0.3,0.5-0.5c0.1-0.1,0.2-0.2,0.3-0.3c0.2-0.2,0.3-0.3,0.5-0.5c0.1-0.1,0.2-0.2,0.3-0.3c0.2-0.2,0.3-0.3,0.5-0.5
	c0.1-0.1,0.2-0.2,0.3-0.3c0.2-0.2,0.3-0.3,0.5-0.5c0.1-0.1,0.2-0.2,0.3-0.3c0.2-0.1,0.3-0.3,0.5-0.4c0.1-0.1,0.2-0.2,0.3-0.3
	c0.2-0.1,0.3-0.3,0.5-0.4c0.1-0.1,0.2-0.2,0.3-0.3c0.2-0.1,0.3-0.3,0.5-0.4c0.1-0.1,0.2-0.2,0.3-0.3c0.2-0.1,0.3-0.3,0.5-0.4
	c0.1-0.1,0.2-0.2,0.3-0.2c0.2-0.2,0.3-0.3,0.5-0.5c0.1-0.1,0.1-0.1,0.2-0.2c0.2-0.2,0.5-0.4,0.7-0.6c0,0,0.1-0.1,0.1-0.1
	c0.2-0.2,0.4-0.3,0.6-0.5c0.1-0.1,0.2-0.2,0.3-0.2c0.1-0.1,0.3-0.2,0.4-0.3c0.1-0.1,0.2-0.2,0.3-0.3c0.1-0.1,0.2-0.1,0.2-0.2
	c0.2,0.3,0.3,0.7,0.5,1c-0.5,0.4-1,0.8-1.5,1.2l1,1.2c0.4-0.4,0.8-0.7,1.2-1c3.8,7.9,5.9,16.6,6,25.4c-0.4,0.4-0.8,0.8-1.2,1.2
	l1.1,1.2c0,0,0.1-0.1,0.1-0.1C-317.7,347.3-317.8,347.8-317.8,348.4 M-331.4,384c-8,9.7-18.5,16.7-30.5,20.1
	c-0.1-0.3-0.1-0.6-0.2-0.9c-0.7-3-1.6-7.5-3.1-13.3c-2.9-11.4-8.2-15.7-17-22.9l-1.2-1c-7.5-6.1-11-9.9-12.1-11.2c0,0,0,0,0,0
	c0,0,0,0,0,0c0,0,0,0,0.1,0c0,0,0,0,0,0c0,0,0.1,0,0.1,0c0,0,0,0,0,0c0,0,0.1,0,0.1,0c0,0,0,0,0,0c0,0,0,0,0.1,0c0,0,0,0,0,0
	c0,0,0,0,0,0c0.3,0.1,0.7,0.2,1,0.3l0.1-0.2l1.3,0.1l-1.1-1l0.1-0.5c-0.3-0.1-0.6-0.2-0.9-0.2c-0.7-0.7-3.7-3.9-3.7-7.6
	c0-5.2,3.3-9.3,9.9-12.1c2.4-1,7.1-0.5,10.2-0.2c1.5,0.2,2.6,0.3,3.3,0.2c2.3-0.2,28.9-14.1,36.6-18.6c0.3-0.2,0.5-0.3,0.8-0.5
	c0.1,0,0.2-0.1,0.2-0.1c0.2-0.1,0.4-0.2,0.5-0.3c0.1-0.1,0.2-0.1,0.3-0.2c0.2-0.1,0.3-0.2,0.5-0.3c0.1-0.1,0.2-0.1,0.3-0.2
	c0.1-0.1,0.3-0.2,0.4-0.3c0.1-0.1,0.2-0.1,0.3-0.2c0.1-0.1,0.3-0.2,0.4-0.2c0.1,0,0.2-0.1,0.3-0.1c0.1-0.1,0.3-0.2,0.4-0.2
	c0.1,0,0.2-0.1,0.2-0.1c0.1-0.1,0.3-0.2,0.4-0.2c0.1,0,0.1-0.1,0.2-0.1c0.2-0.1,0.3-0.2,0.5-0.3c0,0,0,0,0.1,0
	c0.2-0.1,0.4-0.2,0.6-0.3c0,0,0.1-0.1,0.1-0.1c0.1-0.1,0.3-0.2,0.4-0.2c0.1,0,0.1-0.1,0.2-0.1c0.1-0.1,0.2-0.1,0.3-0.2
	c0.1,0,0.1-0.1,0.2-0.1c0.1,0,0.2-0.1,0.2-0.1c0.1,0,0.2-0.1,0.2-0.1c0.1,0,0.1-0.1,0.2-0.1c0.1-0.1,0.2-0.1,0.3-0.2
	c0,0,0.1,0,0.1-0.1c0.1-0.1,0.2-0.1,0.3-0.2c0,0,0,0,0,0c1,1.4,2,2.9,2.9,4.4l-0.6-0.7c-0.5,0.5-1.1,1-1.7,1.5l1,1.2
	c0.6-0.5,1.1-0.9,1.6-1.4c0.1,0.2,0.2,0.3,0.3,0.5c0,0,0,0-0.1,0c-0.1,0.1-0.1,0.1-0.2,0.2c-0.1,0.1-0.3,0.2-0.4,0.4
	c-0.1,0.1-0.2,0.1-0.2,0.2c-0.1,0.1-0.3,0.2-0.4,0.4c-0.1,0.1-0.2,0.2-0.3,0.2c-0.1,0.1-0.3,0.2-0.4,0.4c-0.1,0.1-0.2,0.2-0.3,0.3
	c-0.1,0.1-0.3,0.2-0.4,0.4c-0.1,0.1-0.2,0.2-0.3,0.3c-0.1,0.1-0.3,0.3-0.4,0.4c-0.1,0.1-0.2,0.2-0.3,0.3c-0.1,0.1-0.3,0.3-0.4,0.4
	c-0.1,0.1-0.2,0.2-0.3,0.3c-0.1,0.1-0.3,0.3-0.4,0.4c-0.1,0.1-0.2,0.2-0.3,0.3c-0.2,0.1-0.3,0.3-0.5,0.4c-0.1,0.1-0.2,0.2-0.3,0.3
	c-0.2,0.1-0.3,0.3-0.5,0.4c-0.1,0.1-0.2,0.2-0.3,0.3c-0.2,0.1-0.3,0.3-0.5,0.5c-0.1,0.1-0.2,0.2-0.4,0.3c-0.2,0.2-0.3,0.3-0.5,0.5
	c-0.1,0.1-0.2,0.2-0.3,0.3c-0.2,0.2-0.3,0.3-0.5,0.5c-0.1,0.1-0.2,0.2-0.3,0.3c-0.2,0.2-0.3,0.4-0.5,0.5c-0.1,0.1-0.2,0.2-0.3,0.3
	c-0.2,0.2-0.4,0.4-0.6,0.6c-0.1,0.1-0.2,0.2-0.3,0.3c-0.3,0.3-0.6,0.6-0.8,0.9c-2.2,2.3-5.2,5.3-8.3,8.5c-8,8-17.1,17.1-18.8,20.9
	c-1.4,3.1-2,6.7-1.6,9.9c0.6,4.1,2.7,7.3,6.3,9.5c0.2,0.1,0.4,0.2,0.6,0.4c0.1,0,0.1,0.1,0.2,0.1c0.1,0.1,0.3,0.2,0.4,0.2
	c0.1,0,0.1,0.1,0.2,0.1c0.1,0.1,0.3,0.1,0.4,0.2c0.1,0,0.1,0.1,0.2,0.1c0.2,0.1,0.4,0.2,0.5,0.2c0,0,0.1,0,0.1,0
	c0.2,0.1,0.4,0.2,0.6,0.2c0.1,0,0.1,0,0.2,0.1c0.2,0.1,0.3,0.1,0.5,0.2c0.1,0,0.1,0,0.2,0.1c0.1,0,0.3,0.1,0.4,0.1
	c0.1,0,0.1,0,0.2,0.1c0.2,0,0.3,0.1,0.5,0.1c0,0,0.1,0,0.1,0c0.2,0,0.4,0.1,0.6,0.1c0,0,0.1,0,0.1,0c0.2,0,0.3,0.1,0.5,0.1
	c0.1,0,0.1,0,0.2,0c0.1,0,0.3,0,0.4,0c0.1,0,0.1,0,0.2,0c0.2,0,0.3,0,0.5,0c0.1,0,0.1,0,0.2,0c0.2,0,0.4,0,0.6,0c0,0,0,0,0,0
	c0.2,0,0.5,0,0.7,0c0.1,0,0.1,0,0.2,0c0.2,0,0.4,0,0.5,0c0.1,0,0.2,0,0.3,0c0.2,0,0.3,0,0.5-0.1c0.1,0,0.2,0,0.3,0
	c0.2,0,0.3-0.1,0.5-0.1c0.1,0,0.2,0,0.3-0.1c0.2,0,0.4-0.1,0.5-0.1c0.1,0,0.1,0,0.2,0c0.2-0.1,0.5-0.1,0.7-0.2c0,0,0.1,0,0.1-0.1
	c0.2-0.1,0.4-0.1,0.6-0.2c0.1,0,0.2-0.1,0.2-0.1c0.2-0.1,0.3-0.1,0.5-0.2c0.1,0,0.2-0.1,0.3-0.1c0.2-0.1,0.3-0.1,0.5-0.2
	c0.1,0,0.2-0.1,0.2-0.1c0.2-0.1,0.3-0.2,0.5-0.3c0.1,0,0.1-0.1,0.2-0.1c0.2-0.1,0.5-0.3,0.7-0.4c0,0,0.1,0,0.1-0.1
	c0.2-0.1,0.4-0.3,0.6-0.4c0.1-0.1,0.1-0.1,0.2-0.2c0.1-0.1,0.3-0.2,0.4-0.3c0.1-0.1,0.2-0.1,0.2-0.2c0.1-0.1,0.3-0.2,0.4-0.3
	c0.1-0.1,0.2-0.1,0.2-0.2c0.1-0.1,0.3-0.3,0.4-0.4c0.1-0.1,0.1-0.1,0.2-0.2c0.2-0.2,0.4-0.4,0.6-0.6c0.1-0.1,0.2-0.2,0.3-0.4
	c0,0,0.1-0.1,0.1-0.1c0.1-0.1,0.2-0.2,0.3-0.3c0,0,0.1-0.1,0.1-0.1c0.1-0.1,0.2-0.2,0.3-0.3c0,0,0.1-0.1,0.1-0.1
	c0.1-0.1,0.2-0.2,0.4-0.4c0,0,0.1-0.1,0.1-0.1c0.1-0.1,0.2-0.2,0.4-0.4c0.1-0.1,0.1-0.1,0.2-0.2c0.1-0.1,0.3-0.3,0.4-0.4
	c0,0,0.1-0.1,0.2-0.2c0.1-0.1,0.3-0.3,0.4-0.4c0.1-0.1,0.1-0.1,0.2-0.2c0.2-0.2,0.3-0.3,0.5-0.5c0,0,0.1-0.1,0.1-0.1
	c0.2-0.2,0.4-0.4,0.6-0.6c0,0,0.1-0.1,0.1-0.1c0.2-0.2,0.4-0.4,0.6-0.6c0,0,0.1-0.1,0.1-0.1c0.2-0.2,0.4-0.4,0.6-0.6
	c0,0,0.1-0.1,0.1-0.1c0.6-0.6,1.3-1.3,2-2c0.9-0.9,1.7-1.7,2.6-2.6c0.3-0.3,0.6-0.6,1-0.9c0,0,0.1-0.1,0.1-0.1
	c0.2-0.2,0.5-0.5,0.7-0.7c0.1-0.1,0.1-0.1,0.2-0.2c0.2-0.2,0.4-0.4,0.7-0.7c0.1-0.1,0.1-0.1,0.2-0.2c0.2-0.2,0.4-0.4,0.6-0.6
	c0.1-0.1,0.2-0.2,0.2-0.2c0.2-0.2,0.4-0.4,0.6-0.6c0.1-0.1,0.2-0.2,0.3-0.3c0.2-0.2,0.4-0.4,0.5-0.5c0.1-0.1,0.2-0.2,0.3-0.3
	c0.2-0.2,0.4-0.4,0.6-0.5c0.1-0.1,0.2-0.2,0.3-0.3c0.2-0.2,0.4-0.4,0.5-0.5c0.1-0.1,0.2-0.2,0.3-0.3c0.2-0.2,0.3-0.3,0.5-0.5
	c0.1-0.1,0.2-0.2,0.3-0.3c0.2-0.2,0.3-0.3,0.5-0.5c0.1-0.1,0.2-0.2,0.3-0.3c0.2-0.2,0.3-0.3,0.5-0.5c0.1-0.1,0.2-0.2,0.3-0.3
	c0.2-0.2,0.3-0.3,0.5-0.5c0.1-0.1,0.2-0.2,0.3-0.3c0.2-0.2,0.5-0.5,0.7-0.7C-319,363-323.6,374.5-331.4,384 M-364.1,404.7
	c-1-5.4-2.8-14.1-4.4-18.2c-2.1-5.4-5.6-10.3-10.7-14.8c6.3,5.3,10.1,9.6,12.4,18.7c1.4,5.8,2.4,10.3,3.1,13.2
	c0.1,0.3,0.1,0.7,0.2,1C-363.7,404.6-363.9,404.6-364.1,404.7 M-366.5,405.2c0-0.1,0-0.1,0-0.2l-1.6,0.4c0,0,0,0.1,0,0.1
	c-3.5,0.6-7,0.9-10.5,0.9c-7.3,0-14.4-1.3-21.2-3.8c0,0,0,0,0,0c0.1,0,0.2-0.1,0.3-0.1c0,0,0,0,0,0c0.1,0,0.2-0.1,0.2-0.1
	c0,0,0.1,0,0.1,0c0.1,0,0.1,0,0.2-0.1c0,0,0,0,0.1,0c0.1,0,0.1,0,0.2-0.1c0,0,0,0,0,0c0.1,0,0.1,0,0.2-0.1c0,0,0,0,0.1,0
	c0,0,0.1,0,0.1,0c0,0,0,0,0,0c0,0,0,0,0.1,0c0,0,0,0,0,0c0,0,0,0,0,0l0.5-0.1l0.1-0.4c0-0.1,0.6-1.7,1.2-4.3c0.1-0.3,0.2-0.6,0.2-1
	c0.1-0.3,0.2-0.7,0.2-1.1c0.5-2.2,1-4.8,1.3-7.6c0.6-5.5,0.2-10.7-1-15c-0.1-0.3-0.2-0.9-0.2-1.6c0.1,0.1,0.2,0.2,0.3,0.3l1.1-1.2
	c-0.7-0.6-1.2-1-1.5-1.2c-0.1-1.7-0.1-3.7-0.1-5.4c0-0.2,0-0.3,0-0.5c0.1,0.1,0.2,0.2,0.3,0.2l1.1-1.2c-0.6-0.5-1.1-1-1.4-1.2
	c0-0.1,0-0.1,0-0.2c0,0,0,0,0,0c1.5,1.5,4.5,4.1,9.9,7.9c8.1,5.6,13.3,11.7,16.1,18.7c1.6,4.1,3.5,13.4,4.3,18
	C-365.9,405.1-366.2,405.1-366.5,405.2 M-396,357.8c0,0,0-0.1,0-0.1c0-0.1,0-0.1,0-0.2c0,0,0-0.1,0-0.1c0-0.1,0-0.1,0-0.2
	c0,0,0-0.1,0-0.1c0-0.1,0-0.2,0-0.3c0-0.1,0-0.1,0-0.2c1.6,1.8,5.2,5.3,11.6,10.6l1.2,1c0.2,0.1,0.3,0.3,0.5,0.4
	c-0.8-0.6-1.6-1.2-2.4-1.7c-8-5.6-10.4-8.4-10.9-9C-396,357.9-396,357.9-396,357.8 M-316.1,346.8c0-0.4,0-0.8,0-1.2
	c0-10.5-2.7-20.8-7.7-30l0,0l-0.3-0.6l-0.5-0.8l0,0c-1.1-1.8-2.2-3.6-3.4-5.3l0,0l-0.5-0.7l-0.4-0.6l0,0l-0.6,0.4
	c-0.2,0.1-0.5,0.3-0.8,0.5c-0.2,0.2-0.5,0.3-0.8,0.5c0,0-0.1,0-0.1,0.1c-0.1,0.1-0.2,0.1-0.3,0.2c-0.1,0-0.1,0.1-0.2,0.1
	c-0.1,0.1-0.2,0.1-0.3,0.2c-0.1,0-0.1,0.1-0.2,0.1c-0.1,0.1-0.2,0.1-0.4,0.2c-0.1,0-0.1,0.1-0.2,0.1c-0.1,0.1-0.3,0.2-0.4,0.2
	c-0.1,0-0.1,0.1-0.2,0.1c-0.4,0.2-0.8,0.5-1.2,0.7c0,0-0.1,0-0.1,0.1c-0.2,0.1-0.3,0.2-0.5,0.3c-0.1,0-0.1,0.1-0.2,0.1
	c-0.2,0.1-0.3,0.2-0.5,0.3c-0.1,0-0.1,0.1-0.2,0.1c-0.2,0.1-0.3,0.2-0.5,0.3c-0.1,0-0.2,0.1-0.2,0.1c-0.2,0.1-0.3,0.2-0.5,0.3
	c-0.1,0-0.2,0.1-0.2,0.1c-0.2,0.1-0.4,0.2-0.6,0.3c-0.1,0-0.1,0.1-0.2,0.1c-0.3,0.2-0.5,0.3-0.8,0.5c-9.5,5.4-34,18.1-35.9,18.3
	c-0.5,0-1.7-0.1-3-0.2c-3.5-0.4-8.2-0.9-11,0.3c-0.2,0.1-0.4,0.2-0.7,0.3c-5.2,2.4-8.5,5.6-9.7,9.6c-0.1,0.3-0.2,0.7-0.3,1
	c-0.2,0.9-0.3,1.7-0.3,2.7c0,3.5,2.1,6.5,3.4,7.9c-0.2,0.1-0.3,0.2-0.4,0.4c-0.7,0.7-1,1.8-0.8,3.2c0,0.5,0.1,1.1,0.1,1.9
	c0,0.3,0,0.5,0,0.8c0,1.1,0,2.4,0.1,3.7c0,1.2,0,2.5,0,3.7c0,0.7,0,1.4,0.1,2c0,0.2,0,0.5,0,0.7c0.1,1.4,0.2,2.6,0.4,3.2
	c0.1,0.3,0.1,0.5,0.2,0.8c0.7,2.7,1,5.6,1,8.8c0,0.6,0,1.3,0,1.9c0,1-0.1,1.9-0.2,2.9c-0.7,6.2-2.3,11.6-2.7,13.2
	c-0.1,0-0.2,0-0.3,0.1c0,0-0.1,0-0.1,0c-0.1,0-0.1,0-0.2,0.1c0,0-0.1,0-0.1,0c-0.1,0-0.2,0-0.2,0.1c-0.1,0-0.1,0-0.2,0.1
	c-0.1,0-0.2,0.1-0.2,0.1c-0.1,0-0.1,0-0.2,0.1c-0.1,0-0.2,0.1-0.3,0.1c-0.1,0-0.1,0-0.2,0.1c-0.1,0-0.2,0.1-0.3,0.1
	c-0.1,0-0.1,0.1-0.2,0.1c-0.1,0-0.2,0.1-0.3,0.1c-0.1,0-0.1,0.1-0.2,0.1c-0.1,0.1-0.3,0.1-0.4,0.2l-1.4,0.8l0,0l1.5,0.6c0,0,0,0,0,0
	l0.4,0.1l0,0c7.4,3,15.2,4.5,23.2,4.5c1.2,0,2.3,0,3.5-0.1c0.4,0,0.8,0,1.2-0.1c2.1-0.2,4.1-0.4,6.2-0.8c0.5-0.1,1.1-0.2,1.6-0.3
	c0.2-0.1,0.5-0.1,0.7-0.2l0,0l0.8-0.2c0,0,0,0,0,0l0.7-0.2l0,0c0.2-0.1,0.4-0.1,0.6-0.2l0,0l0.8-0.2c0,0,0,0,0,0l0.7-0.2l0,0
	c12.4-3.5,23.2-10.6,31.4-20.6c8.4-10.3,13.2-22.7,14-36l0,0l0-0.3L-316.1,346.8L-316.1,346.8z"/>
<path class="st9" d="M-361.6,361.6l-1.6,0c0,0.7,0.1,1.4,0.3,2.4l1.6-0.3C-361.6,362.9-361.6,362.2-361.6,361.6"/>
<path class="st9" d="M-352.5,374.1l-0.2,1.6c0.3,0,0.7,0.1,1,0.1c0.5,0,1,0,1.5-0.1l-0.3-1.6C-351.1,374.2-351.8,374.2-352.5,374.1"
	/>
<path class="st9" d="M-348.7,373.4l0.8,1.4c0.6-0.4,1.2-0.8,1.9-1.4l-1-1.3C-347.6,372.6-348.2,373.1-348.7,373.4"/>
<path class="st9" d="M-357.3,374.1c0.7,0.4,1.4,0.8,2.2,1.1l0.6-1.5c-0.6-0.2-1.3-0.6-1.9-0.9L-357.3,374.1z"/>
<path class="st9" d="M-360.7,370.7c0.5,0.7,1,1.3,1.6,1.8l1.1-1.2c-0.5-0.5-1-1-1.4-1.6L-360.7,370.7z"/>
<path class="st9" d="M-355.1,350.7l-1.2-1.1c-0.5,0.6-1.1,1.2-1.5,1.7l1.2,1.1C-356.2,351.9-355.7,351.3-355.1,350.7"/>
<path class="st9" d="M-360.8,366.5c0-0.2-0.1-0.4-0.1-0.6l-1.6,0.3c0,0.2,0.1,0.4,0.1,0.6c0.1,0.6,0.3,1.2,0.5,1.7l1.5-0.6
	C-360.6,367.5-360.7,367-360.8,366.5"/>
<path class="st9" d="M-345.2,370.7l1.1,1.2c0.5-0.5,1.1-1,1.7-1.5l-1.1-1.2C-344.1,369.7-344.7,370.3-345.2,370.7"/>
<path class="st9" d="M-325.6,351.9l1.1,1.2c0.5-0.5,1.1-1,1.7-1.5l-1.1-1.2C-324.5,350.9-325,351.4-325.6,351.9"/>
<path class="st9" d="M-360.5,357.7l-1.4-0.8c-0.4,0.8-0.7,1.5-0.9,2.2l1.6,0.5C-361.2,359-360.9,358.4-360.5,357.7"/>
<path class="st9" d="M-328.9,355l1.1,1.2c0.6-0.5,1.1-1,1.6-1.5l-1.1-1.2C-327.8,354-328.3,354.5-328.9,355"/>
<path class="st9" d="M-322.3,348.8l1.1,1.2c0.5-0.5,1.1-1,1.7-1.6l-1.1-1.2C-321.2,347.8-321.7,348.3-322.3,348.8"/>
<path class="st9" d="M-341.9,367.7l1.1,1.2c0.5-0.5,1.1-1,1.6-1.6l-1.1-1.2C-340.8,366.6-341.3,367.2-341.9,367.7"/>
<path class="st9" d="M-338.6,364.5l1.1,1.2c0.5-0.5,1.1-1.1,1.6-1.6l-1.1-1.2C-337.6,363.5-338.1,364-338.6,364.5"/>
<path class="st9" d="M-333.2,327.8l-1.1-1.1c-0.5,0.5-1.1,1.1-1.6,1.6l1.2,1.1C-334.2,328.9-333.7,328.4-333.2,327.8"/>
<path class="st9" d="M-335.4,361.3l1.1,1.1c0.5-0.5,1.1-1.1,1.6-1.6l-1.1-1.2C-334.3,360.3-334.9,360.8-335.4,361.3"/>
<path class="st9" d="M-332.2,358.2l1.1,1.2c0.5-0.5,1.1-1.1,1.6-1.6l-1.1-1.2C-331.1,357.1-331.6,357.6-332.2,358.2"/>
<path class="st9" d="M-326.7,321.6l-1.1-1.2c-0.5,0.5-1.1,1-1.7,1.5l1.1,1.2C-327.8,322.6-327.2,322-326.7,321.6"/>
<path class="st9" d="M-358.1,354.1l-1.3-1c-0.5,0.6-1,1.3-1.4,1.9l1.3,0.9C-359,355.3-358.6,354.7-358.1,354.1"/>
<path class="st9" d="M-336.3,331.1l-1.2-1.1c-0.5,0.5-1,1.1-1.6,1.6l1.2,1.1C-337.4,332.2-336.9,331.6-336.3,331.1"/>
<path class="st9" d="M-339.5,334.3l-1.2-1.1c-0.5,0.5-1,1.1-1.6,1.6l1.2,1.1C-340.5,335.4-340,334.9-339.5,334.3"/>
<path class="st9" d="M-330,324.7l-1.1-1.2c-0.5,0.5-1.1,1-1.6,1.6l1.1,1.1C-331,325.7-330.5,325.2-330,324.7"/>
<path class="st9" d="M-353,348.5c0.3-0.3,0.6-0.7,1-1l-1.2-1.1c-0.3,0.3-0.6,0.7-1,1c-0.2,0.2-0.4,0.4-0.6,0.6l1.2,1.1
	C-353.4,348.9-353.2,348.7-353,348.5"/>
<rect x="-345.1" y="337.1" transform="matrix(0.6873 -0.7264 0.7264 0.6873 -352.9936 -144.1861)" class="st9" width="2.3" height="1.6"/>
<path class="st9" d="M-348.8,344.2l-1.2-1.1c-0.5,0.6-1.1,1.1-1.6,1.6l1.2,1.1C-349.9,345.3-349.4,344.8-348.8,344.2"/>
<path class="st9" d="M-345.7,340.9l-1.2-1.1c-0.5,0.6-1,1.1-1.6,1.6l1.2,1.1C-346.8,342-346.2,341.5-345.7,340.9"/>
<path class="st9" d="M-345.9,363.8c-4.2,0-7.5-3.4-7.5-7.5c0-4.1,3.4-7.5,7.5-7.5s7.5,3.4,7.5,7.5
	C-338.4,360.4-341.8,363.8-345.9,363.8 M-345.9,347.1c-5,0-9.1,4.1-9.1,9.1c0,5,4.1,9.1,9.1,9.1s9.1-4.1,9.1-9.1
	C-336.8,351.2-340.9,347.1-345.9,347.1"/>
<path class="st9" d="M-345.9,359.5c-1.8,0-3.2-1.5-3.2-3.2c0-1.8,1.5-3.2,3.2-3.2s3.2,1.5,3.2,3.2
	C-342.7,358-344.2,359.5-345.9,359.5 M-345.9,351.4c-2.7,0-4.9,2.2-4.9,4.9c0,2.7,2.2,4.9,4.9,4.9s4.9-2.2,4.9-4.9
	C-341.1,353.6-343.3,351.4-345.9,351.4"/>
<defs>
	<filter id="Adobe_OpacityMaskFilter_2_" filterUnits="userSpaceOnUse" x="-19.9" y="-31.5" width="223.5" height="223.5">
		<feColorMatrix  type="matrix" values="1 0 0 0 0  0 1 0 0 0  0 0 1 0 0  0 0 0 1 0"/>
	</filter>
</defs>
<mask maskUnits="userSpaceOnUse" x="-19.9" y="-31.5" width="223.5" height="223.5" id="SVGID_9_">
	<g class="st10">
		
			<linearGradient id="SVGID_10_" gradientUnits="userSpaceOnUse" x1="-243.9154" y1="5106.7295" x2="-242.7968" y2="5106.7295" gradientTransform="matrix(41.0053 12.6933 12.6933 -41.0053 -54716.7539 212540.8594)">
			<stop  offset="0" style="stop-color:#FFFFFF"/>
			<stop  offset="1" style="stop-color:#000000"/>
		</linearGradient>
		<polygon class="st11" points="-370.1,-5826.8 3555.1,-4611.7 322.1,5832.4 -3603.1,4617.3 		"/>
	</g>
</mask>
<g class="st12">
	<g>
		<defs>
			<rect id="SVGID_11_" x="-19.9" y="-31.5" width="223.5" height="223.5"/>
		</defs>
		<clipPath id="SVGID_12_">
			<use xlink:href="#SVGID_11_"  style="overflow:visible;"/>
		</clipPath>
		<path class="st13" d="M115.3,181.7l-1.6-0.8c-0.6-0.3-58-27.6-80.1-41.4C4,121.1-5,82,13.4,52.5c13.8-22,40-33.4,65.4-28.6
			c20.8-15.5,49.3-16.7,71.3-3l0,0c29.5,18.5,38.5,57.5,20.1,87c-13.8,22.1-53.5,71.8-53.9,72.3L115.3,181.7z M67.1,27.3
			c-19.9,0-39,10.2-49.9,27.6c-17.1,27.4-8.8,63.7,18.7,80.8c19.8,12.4,68.5,35.8,78,40.4c6.5-8.2,40.1-50.7,52.4-70.5
			c8.3-13.3,10.9-29,7.4-44.3c-3.5-15.3-12.8-28.2-26.1-36.5c-20.7-13-47.7-11.6-67,3.3L80,28.8l-1-0.2C75,27.7,71,27.3,67.1,27.3z"
			/>
	</g>
</g>
<defs>
	<filter id="Adobe_OpacityMaskFilter_3_" filterUnits="userSpaceOnUse" x="-511.4" y="478.4" width="240.2" height="240.2">
		<feColorMatrix  type="matrix" values="1 0 0 0 0  0 1 0 0 0  0 0 1 0 0  0 0 0 1 0"/>
	</filter>
</defs>
<mask maskUnits="userSpaceOnUse" x="-511.4" y="478.4" width="240.2" height="240.2" id="SVGID_13_">
	<g class="st14">
		
			<linearGradient id="SVGID_14_" gradientUnits="userSpaceOnUse" x1="-242.6502" y1="5097.7188" x2="-241.5276" y2="5097.7188" gradientTransform="matrix(49.8297 29.0015 29.0015 -49.8297 -136096.6719 261513.2031)">
			<stop  offset="0" style="stop-color:#FFFFFF"/>
			<stop  offset="1" style="stop-color:#000000"/>
		</linearGradient>
		<polygon class="st15" points="-471.3,-5472.4 5037.9,-2265.9 -55.5,6485.4 -5564.7,3279 		"/>
	</g>
</mask>
<g class="st16">
	<g>
		<defs>
			<rect id="SVGID_15_" x="-511.4" y="478.4" width="240.2" height="240.2"/>
		</defs>
		<clipPath id="SVGID_16_">
			<use xlink:href="#SVGID_15_"  style="overflow:visible;"/>
		</clipPath>
		<path class="st17" d="M-391.3,683.9c-21.9,0-43.7-8.3-60.4-25c-33.3-33.3-33.3-87.5,0-120.8c33.3-33.3,87.5-33.3,120.8,0
			c33.3,33.3,33.3,87.5,0,120.8C-347.5,675.6-369.4,683.9-391.3,683.9z M-391.3,519.3c-20.3,0-40.6,7.7-56.1,23.2
			c-30.9,30.9-30.9,81.3,0,112.2c30.9,30.9,81.3,30.9,112.2,0c30.9-30.9,30.9-81.3,0-112.2C-350.6,527-370.9,519.3-391.3,519.3z"/>
	</g>
</g>
<path class="st4" d="M-360.3,645.3c-0.4,0.1-0.9-0.2-1-0.6c-1.9-7.8-7.1-8-7.4-8c-0.3,0-0.6-0.2-0.8-0.5c-1.7-4.6-4.4-7.4-7.8-8.5
	c-2.6-0.8-4.6-0.3-4.6-0.3c-0.4,0.1-0.7-0.1-0.9-0.4c-4.3-7.9-12.3-6.1-12.4-6c-0.2,0.1-0.5,0-0.7-0.1c-0.2-0.1-0.3-0.3-0.3-0.5
	c-2.5-9.3-11.4-8.3-11.8-8.3c-0.2,0-0.5,0-0.7-0.2c-0.2-0.2-0.3-0.4-0.3-0.6c0.3-5.6-5-8.9-5.1-8.9c-0.4-0.2-0.5-0.7-0.3-1.1
	c0.2-0.4,0.7-0.5,1.1-0.3c0,0,0,0,0,0c0.1-0.3,0.3-0.6,0.6-0.6c1.3-0.3,2.6-0.5,3.9-0.6c0.5,0,0.9,0.3,0.9,0.7
	c0.1,0.5-0.3,0.9-0.7,0.9c-1.1,0.1-2.3,0.3-3.5,0.5c1.7,1.4,4.4,4.3,4.6,8.5c3.8-0.1,10.1,1.5,12.5,8.9c2.3-0.3,9.1-0.5,13.2,6.5
	c0.9-0.1,2.7-0.2,4.9,0.5c2.7,0.9,6.3,3.1,8.7,9.1c1.1,0.2,3.7,0.8,5.8,3.6c0.1-0.1,0.2-0.2,0.4-0.2c0.4-0.1,0.9,0.2,1,0.6
	c0.3,1.2,0.6,2.5,0.9,3.8c0,0.1,0,0.3,0,0.4c0.1,0.3,0.2,0.7,0.3,1C-359.6,644.8-359.8,645.2-360.3,645.3 M-415.9,602.8
	c-1.2,0.4-2.4,0.8-3.6,1.2c-0.3,0.1-0.5,0.1-0.8-0.1c-0.1-0.1-0.2-0.2-0.3-0.4c-0.2-0.4,0-0.9,0.5-1.1c1.2-0.5,2.5-0.9,3.8-1.3
	c0.4-0.1,0.9,0.1,1,0.6C-415.2,602.2-415.4,602.6-415.9,602.8 M-405.8,599.7c0,0,0.2,0.1,0.4,0.3c0.1-0.4,0.4-0.6,0.8-0.6
	c1.3,0,2.7,0,4,0.2c0.5,0,0.8,0.4,0.7,0.9c0,0.5-0.4,0.8-0.9,0.7c-1.1-0.1-2.3-0.1-3.4-0.2c1.4,1.3,3.1,3.5,3.3,6.5
	c3.2-0.1,8.3,1.4,10.3,7.3c2-0.2,7.5-0.3,10.9,5.4c2-0.2,8-0.1,11.3,7.9c1,0.2,3.2,0.8,4.9,3.1c0,0,0.1,0.1,0.1,0.2
	c0.8,1.1,1.5,2.5,2,4.4c0.1,0.4-0.2,0.9-0.6,1c-0.2,0.1-0.5,0-0.7-0.1c-0.1-0.1-0.2-0.2-0.3-0.4c-0.1,0-0.2-0.1-0.3-0.1
	c-0.1-0.1-0.3-0.2-0.3-0.4c-0.4-1.2-0.8-2.4-1.2-3.5c-1.9-2.5-4.2-2.5-4.2-2.5c-0.3,0-0.6-0.2-0.8-0.5c-3.3-8.8-9.9-7.3-10.2-7.3
	c-0.4,0.1-0.7-0.1-0.9-0.4c-3.5-6.5-9.9-5-10.1-4.9c-0.4,0.1-0.9-0.2-1-0.6c-2-7.7-9.3-6.8-9.6-6.8c-0.2,0-0.5,0-0.7-0.2
	c-0.2-0.2-0.3-0.4-0.3-0.6c0.2-4.5-4.1-7.2-4.1-7.2c-0.4-0.2-0.5-0.7-0.3-1.1C-406.7,599.6-406.2,599.5-405.8,599.7 M-397.5,600.6
	c0.2-0.3,0.5-0.5,0.9-0.4c1.3,0.3,2.6,0.6,3.9,1c0.4,0.1,0.7,0.6,0.5,1c-0.1,0.4-0.6,0.7-1,0.5c-0.8-0.3-1.7-0.5-2.5-0.7
	c0.9,0.9,1.8,2.4,2,4.2c1.8,0,5.8,0.7,7.3,5.2c1.6-0.2,5.4,0,7.8,3.9c1.3-0.1,4.2,0,6.5,2.9c-0.1-0.3,0-0.7,0.3-1
	c0.4-0.3,0.9-0.2,1.1,0.2c0.8,1.1,1.5,2.2,2.2,3.3c0.2,0.3,0.1,0.7-0.1,1c1.2,0.7,2.4,2.1,3.1,4.6c0.2,0.5,0.4,0.9,0.6,1.4
	c0.2,0.4,0,0.9-0.4,1.1c-0.3,0.1-0.6,0.1-0.8-0.1c-0.1-0.1-0.2-0.2-0.3-0.3c-0.2-0.3-0.3-0.7-0.5-1c-0.1-0.1-0.2-0.2-0.2-0.3
	c0-0.1,0-0.1,0-0.1c-0.3-0.7-0.6-1.3-1-2c-0.1-0.1-0.1-0.3-0.1-0.5c-1.3-1.8-2.9-1.9-3-1.9c-0.3,0-0.6-0.2-0.8-0.5
	c-2.3-6.2-6.8-5.1-7-5.1c-0.4,0.1-0.7-0.1-0.9-0.4c-2.4-4.5-7-3.4-7-3.4c-0.2,0.1-0.5,0-0.7-0.1c-0.2-0.1-0.3-0.3-0.3-0.5
	c-1.4-5.3-6.5-4.7-6.7-4.7c-0.2,0-0.5,0-0.7-0.2c-0.2-0.2-0.3-0.4-0.3-0.6c0.1-3.1-2.8-5-2.9-5c-0.4-0.2-0.5-0.7-0.3-1.1
	C-398.3,600.6-397.9,600.5-397.5,600.6 M-389,602.5c1.2,0.5,2.4,1.1,3.6,1.8c0.4,0.2,0.5,0.7,0.3,1.1c-0.2,0.4-0.7,0.5-1.1,0.3
	c-1.1-0.6-2.3-1.2-3.5-1.7c-0.1,0-0.1-0.1-0.1-0.1c-0.3-0.2-0.4-0.6-0.3-1C-389.9,602.6-389.4,602.4-389,602.5 M-382,606.4
	c1.1,0.7,2.2,1.5,3.2,2.4c0.4,0.3,0.4,0.8,0.1,1.2c-0.3,0.3-0.8,0.4-1.1,0.1c0,0,0,0-0.1,0c-1-0.8-2-1.6-3.1-2.3
	c-0.4-0.2-0.5-0.8-0.2-1.1C-382.9,606.2-382.3,606.1-382,606.4 M-376.9,611.4c0.3-0.3,0.8-0.3,1.2,0c0.9,0.9,1.8,1.9,2.7,2.9
	c0.3,0.3,0.3,0.9-0.1,1.2c-0.3,0.2-0.7,0.3-1,0c-0.1,0-0.1-0.1-0.2-0.1c-0.8-1-1.7-1.9-2.6-2.8
	C-377.3,612.3-377.3,611.8-376.9,611.4 M-334.1,642.8c6.5-14.1-4.6-22.4-23.2-35.3c-18.5-13-10.5-22.1-23.9-35.9
	c-13.4-13.8-39.6-21.4-50.2-6.3c-8.7,12.5-3.7,28.3,6.5,39.3c0.3-0.2,0.7-0.3,1-0.5c0.4-0.2,0.9,0,1.1,0.4c0.2,0.4,0,0.9-0.4,1.1
	c-0.2,0.1-0.3,0.2-0.5,0.3c4.3,4.3,9.4,7.8,14.7,9.9c26.2,10.4,33.2,22.2,45.5,30.9c0.9,0.6,1.8,1.2,2.8,1.8
	c-0.1-0.4-0.1-0.8-0.2-1.2c-0.1-0.4,0.2-0.9,0.7-0.9c0.4-0.1,0.9,0.2,1,0.7c0.1,0.6,0.2,1.3,0.3,1.9c0,0.2,0,0.4-0.1,0.5
	C-350.8,653.5-340,655.6-334.1,642.8"/>
<path class="st9" d="M-346.5,318l-1.2-1.1c-0.5,0.6-1.1,1.1-1.6,1.6l1.2,1.1C-347.5,319.1-347,318.6-346.5,318"/>
<path class="st9" d="M-343.3,314.7l-1.2-1.1c-0.5,0.6-1,1.1-1.6,1.6l1.2,1.1C-344.4,315.8-343.9,315.3-343.3,314.7"/>
<path class="st18" d="M92.8,53.5c1.2-0.5,2.4-1,3.4-1.6c0.6-0.3,1.3-0.1,1.6,0.5c0.3,0.6,0.1,1.3-0.5,1.6c-1.2,0.6-2.4,1.2-3.7,1.7
	c-0.1,0.1-0.3,0.1-0.4,0.1c-0.5,0-0.9-0.3-1.1-0.8C91.9,54.4,92.2,53.7,92.8,53.5 M99.5,49.9c1-0.7,2-1.5,3.1-2.3
	c0.5-0.4,1.3-0.3,1.7,0.2c0.4,0.5,0.3,1.3-0.2,1.7c-1.1,0.9-2.2,1.7-3.2,2.4c-0.2,0.1-0.4,0.2-0.7,0.2c-0.4,0-0.7-0.2-1-0.5
	C98.8,51,99,50.2,99.5,49.9 M116.8,117.4c0.1-1.2,0.3-2.5,0.5-3.9c0.1-0.6,0.7-1.1,1.3-1c0.6,0.1,1.1,0.7,1,1.3
	c-0.2,1.4-0.3,2.7-0.5,3.9c-0.1,0.6-0.6,1-1.2,1c0,0-0.1,0-0.1,0C117.2,118.6,116.8,118,116.8,117.4 M117.9,109.5
	c0.2-1.3,0.4-2.6,0.6-3.9c0.1-0.6,0.7-1.1,1.4-1c0.6,0.1,1.1,0.7,1,1.4c-0.2,1.3-0.4,2.6-0.6,3.9c-0.1,0.6-0.6,1-1.2,1
	c-0.1,0-0.1,0-0.2,0C118.2,110.7,117.8,110.1,117.9,109.5 M119.2,101.6c0.2-1.3,0.5-2.6,0.7-3.9c0.1-0.6,0.8-1.1,1.4-0.9
	c0.6,0.1,1.1,0.8,0.9,1.4c-0.3,1.3-0.5,2.6-0.7,3.9c-0.1,0.6-0.6,1-1.2,1c-0.1,0-0.1,0-0.2,0C119.5,102.9,119,102.3,119.2,101.6
	 M120.7,93.8c0.3-1.3,0.6-2.6,0.9-3.9c0.2-0.6,0.8-1,1.4-0.9c0.6,0.2,1,0.8,0.9,1.4c-0.3,1.3-0.6,2.6-0.9,3.8
	c-0.1,0.6-0.6,0.9-1.2,0.9c-0.1,0-0.2,0-0.3,0C121,95.1,120.6,94.5,120.7,93.8 M122.5,86.1c0.3-1.3,0.7-2.6,1-3.8
	c0.2-0.6,0.8-1,1.5-0.8c0.6,0.2,1,0.8,0.8,1.5c-0.4,1.3-0.7,2.5-1,3.8c-0.1,0.5-0.6,0.9-1.1,0.9c-0.1,0-0.2,0-0.3,0
	C122.8,87.4,122.4,86.7,122.5,86.1 M124.7,78.4c0.4-1.3,0.8-2.6,1.2-3.8c0.2-0.6,0.9-0.9,1.5-0.7c0.6,0.2,0.9,0.9,0.7,1.5
	c-0.4,1.2-0.8,2.5-1.2,3.7c-0.2,0.5-0.6,0.8-1.1,0.8c-0.1,0-0.2,0-0.4-0.1C124.9,79.7,124.5,79.1,124.7,78.4 M127.3,70.9
	c0.5-1.3,1-2.5,1.5-3.7c0.3-0.6,1-0.9,1.6-0.6c0.6,0.3,0.9,1,0.6,1.6c-0.5,1.2-1,2.4-1.5,3.6c-0.2,0.5-0.6,0.8-1.1,0.8
	c-0.1,0-0.3,0-0.4-0.1C127.4,72.2,127.1,71.5,127.3,70.9 M80.4,73.7c0,0.1,0,0.3,0,0.4c0,0.1,0,0.2,0,0.3c0,0.2,0,0.5-0.1,0.7
	c0,0.1,0,0.2,0,0.3c0,0.3-0.1,0.6-0.1,0.9c0,0.1,0,0.1,0,0.2c0,0.3-0.1,0.7-0.1,1.1c0,0.1,0,0.1,0,0.2c0,0.4-0.1,0.8-0.1,1.1
	c0,0.1,0,0.2,0,0.2c0,0.4-0.1,0.8-0.1,1.1c0,0.1,0,0.2,0,0.4c-0.1,0.4-0.1,0.8-0.2,1.2c0,0.1,0,0.3-0.1,0.4
	c-0.1,0.5-0.1,1.1-0.2,1.6c-0.1,0.8-0.2,1.7-0.3,2.6c-0.1,0.8-0.2,1.5-0.3,2.3c-0.7,5.5-1.4,11.4-1.4,15.9c0,9.7,0.5,19.3,6.4,20
	c1.6,0.2,3.4,0.3,5.5,0.3c2.1,0,4.6-0.1,7.3-0.2c5.5-0.2,12.1-0.5,19.8-0.2c0.1-0.7,0.1-1.8,0.3-3.2c0.1-0.7,0.6-1.1,1.3-1.1
	c0.7,0.1,1.1,0.6,1.1,1.3c-0.1,1.4-0.2,2.4-0.3,3.1c0.4,0,0.8,0,1.2,0.1c1,0.1,1.9,0.1,2.9,0.2c-0.3-1.8-0.4-3.7-0.4-5.7
	c0-17.6,8.9-43.6,13.4-55.8c-0.5-0.5-1.1-1-1.6-1.5c-0.5,0.9-0.9,1.7-1.3,2.6c-0.2,0.4-0.6,0.7-1.1,0.7c-0.2,0-0.3,0-0.5-0.1
	c-0.6-0.3-0.8-1-0.6-1.6c0.5-1.1,1.1-2.2,1.6-3.2c-7.4-6.1-16-10.6-25.2-13.3c-0.2,0.1-0.4,0.2-0.5,0.2c-0.3,0-0.7-0.1-0.9-0.4
	c0-0.1-0.1-0.1-0.1-0.2c-1.2-0.3-2.5-0.6-3.7-0.9c-1.9,1.4-3.4,2.5-4.5,3.3c-1.9,1.4-5.3,2.6-7.8,3.4c-1.5,0.5-2.6,0.8-3.4,1
	c0.3,0.6,0.6,1.2,0.7,1.8c0.6-0.1,1.5-0.3,2.5-0.5c0.6-0.2,1.3,0.2,1.4,0.9c0.2,0.6-0.2,1.3-0.9,1.4c-1.3,0.3-2.4,0.5-3.1,0.6
	c-0.1,0.4-0.2,0.8-0.3,1.2c-0.5,1.2-1.2,2.8-2,4.5c-1.6,3.3-3.5,7.3-4,10.4C80.4,73.6,80.4,73.7,80.4,73.7"/>
<path class="st18" d="M125,125.1c0.1,0,0.2,0,0.4,0c0.4,0,0.7,0.1,1.1,0.1c0.5,0.1,1.1,0.1,1.6,0.2c0.4,0,0.7,0.1,1.1,0.1
	c0.5,0.1,1,0.1,1.6,0.2c0.4,0.1,0.7,0.1,1.1,0.2c0.5,0.1,1,0.2,1.5,0.3c0.3,0.1,0.6,0.1,1,0.2c0.5,0.1,1.1,0.2,1.6,0.3
	c0.3,0.1,0.5,0.1,0.8,0.2c0.7,0.1,1.4,0.3,2,0.4c0.1,0,0.2,0,0.3,0.1c0.8,0.2,1.5,0.3,2.2,0.5c0.2,0.1,0.4,0.1,0.6,0.2
	c0.5,0.1,1,0.3,1.5,0.4c0.3,0.1,0.5,0.1,0.8,0.2c0.4,0.1,0.9,0.2,1.3,0.3c0.3,0.1,0.5,0.2,0.8,0.2c0.4,0.1,0.8,0.2,1.2,0.3
	c0.3,0.1,0.5,0.2,0.8,0.2c0.4,0.1,0.7,0.2,1.1,0.3c0.2,0.1,0.5,0.2,0.7,0.2c0.4,0.1,0.7,0.2,1.1,0.3c0.2,0.1,0.4,0.1,0.7,0.2
	c0.4,0.1,0.8,0.3,1.2,0.4c0.1,0,0.3,0.1,0.4,0.1c0.5,0.2,1,0.3,1.5,0.5c0.3,0.1,0.6,0.2,0.9,0.3c0.1,0,0.2,0.1,0.4,0.1
	c1.3-5.5,2-11.2,2-16.9c0-19.1-7.4-36.9-20.8-50.4c-10.6,28.6-12.9,45.2-12.9,54.1C124.6,121.8,124.8,123.7,125,125.1"/>
<path class="st18" d="M95.8,47c0.7-0.5,1.6-1.2,2.7-1.9c-5.9-1-12-1.2-18.1-0.7c-0.2,1.7,0.1,3,1,3.8l0.1,0.1c1,1,2.1,1.9,2.9,2.9
	C86.4,50.7,93.2,48.9,95.8,47"/>
<path class="st18" d="M154.3,134.3c-0.2-0.1-0.3-0.1-0.5-0.2c-0.3-0.1-0.7-0.2-1-0.3c-0.2-0.1-0.4-0.1-0.6-0.2
	c-0.3-0.1-0.7-0.2-1-0.3c-0.2-0.1-0.5-0.1-0.7-0.2c-0.3-0.1-0.7-0.2-1-0.3c-0.3-0.1-0.5-0.2-0.8-0.2c-0.3-0.1-0.7-0.2-1.1-0.3
	c-0.3-0.1-0.5-0.2-0.8-0.2c-0.4-0.1-0.7-0.2-1.1-0.3c-0.3-0.1-0.6-0.2-0.8-0.2c-0.4-0.1-0.8-0.2-1.2-0.3c-0.3-0.1-0.6-0.2-0.9-0.2
	c-0.4-0.1-0.9-0.2-1.3-0.3c-0.3-0.1-0.5-0.1-0.8-0.2c-0.5-0.1-1.1-0.3-1.6-0.4c-0.2,0-0.4-0.1-0.6-0.1c-0.8-0.2-1.5-0.3-2.3-0.5
	c-0.2,0-0.4-0.1-0.6-0.1c-0.6-0.1-1.2-0.2-1.9-0.4c-0.3-0.1-0.6-0.1-0.9-0.2c-0.5-0.1-1.1-0.2-1.6-0.3c-0.3-0.1-0.7-0.1-1-0.2
	c-0.5-0.1-1-0.2-1.6-0.2c-0.4,0-0.7-0.1-1.1-0.1c-0.5-0.1-1.1-0.1-1.6-0.2c-0.4,0-0.8-0.1-1.1-0.1c-0.6-0.1-1.2-0.1-1.8-0.2
	c-0.2,0-0.5,0-0.7-0.1c-0.9-0.1-1.8-0.1-2.7-0.2c-7.8-0.4-14.7-0.3-20.4-0.1c-0.9,0-1.8,0.1-2.7,0.1c-5.5,0.2-9.9,0.4-13.2-0.1
	c-8.4-1.1-8.4-13.9-8.4-22.4c0-6,1.1-14.3,2-21c0.2-1.6,0.4-3.1,0.6-4.4c0,0,0,0,0,0c0.1-0.4,0.1-0.9,0.2-1.3c0,0,0-0.1,0-0.1
	c0-0.4,0.1-0.8,0.1-1.1c0,0,0-0.1,0-0.1c0-0.4,0.1-0.7,0.1-1c0,0,0-0.1,0-0.1c0-0.3,0.1-0.6,0.1-0.9c0,0,0-0.1,0-0.1
	c0-0.3,0-0.5,0-0.7c0,0,0,0,0,0c-0.2-0.3-0.3-0.5-0.5-0.6c-0.1,0.1-0.2,0.4-0.4,0.8c-1.4,3.7-4.8,20.1-5,35.1
	c-0.2,12.3-0.1,23.4,0,28.1c0,1.1,0,2,0,2.4c0,1.1,4.8,9.2,22.1,9.2c8.1,0,13.4-1.6,19-3.2c6.6-1.9,13.5-3.9,25.5-3.9
	c5,0,9.5,0.6,13.8,1.9c1.2-2.8,2.2-5.8,3-8.7C155.2,134.6,154.7,134.4,154.3,134.3"/>
<path class="st9" d="M100.2,52c0.2,0,0.5-0.1,0.7-0.2c1-0.7,2.1-1.5,3.2-2.4c0.5-0.4,0.6-1.2,0.2-1.7c-0.4-0.5-1.1-0.6-1.7-0.2
	c-1.1,0.9-2.1,1.6-3.1,2.3c-0.5,0.4-0.7,1.1-0.3,1.6C99.4,51.8,99.8,52,100.2,52"/>
<path class="st9" d="M93.2,55.8c0.1,0,0.3,0,0.4-0.1c1.3-0.5,2.6-1.1,3.7-1.7c0.6-0.3,0.8-1,0.5-1.6c-0.3-0.6-1-0.8-1.6-0.5
	c-1.1,0.6-2.2,1.1-3.4,1.6c-0.6,0.2-0.9,0.9-0.7,1.5C92.3,55.5,92.8,55.8,93.2,55.8"/>
<path class="st9" d="M152.6,143.4c-4.4-1.3-8.8-1.9-13.8-1.9c-12,0-18.9,2-25.5,3.9c-5.6,1.6-10.9,3.2-19,3.2
	c-17.3,0-22.1-8.1-22.1-9.2c0-0.4,0-1.2,0-2.4c0-4.7-0.2-15.8,0-28.1c0.2-15,3.6-31.4,5-35.1c0.2-0.4,0.3-0.6,0.4-0.8
	c0.1,0.1,0.3,0.4,0.5,0.6c0,0,0,0,0,0c0,0.2,0,0.5,0,0.7c0,0,0,0.1,0,0.1c0,0.3,0,0.6-0.1,0.9c0,0,0,0.1,0,0.1c0,0.3-0.1,0.6-0.1,1
	c0,0,0,0.1,0,0.1c0,0.4-0.1,0.7-0.1,1.1c0,0,0,0.1,0,0.1c0,0.4-0.1,0.8-0.2,1.3c0,0,0,0,0,0c-0.2,1.4-0.4,2.8-0.6,4.4
	c-0.9,6.7-2,15-2,21c0,8.5,0,21.3,8.4,22.4c3.3,0.4,7.7,0.3,13.2,0.1c0.9,0,1.7-0.1,2.7-0.1c5.7-0.2,12.6-0.4,20.4,0.1
	c0.9,0,1.8,0.1,2.7,0.2c0.2,0,0.5,0,0.7,0.1c0.6,0.1,1.2,0.1,1.8,0.2c0.4,0,0.8,0.1,1.1,0.1c0.5,0.1,1.1,0.1,1.6,0.2
	c0.4,0,0.7,0.1,1.1,0.1c0.5,0.1,1.1,0.2,1.6,0.2c0.3,0.1,0.7,0.1,1,0.2c0.5,0.1,1.1,0.2,1.6,0.3c0.3,0.1,0.6,0.1,0.9,0.2
	c0.6,0.1,1.2,0.2,1.9,0.4c0.2,0,0.4,0.1,0.6,0.1c0.8,0.2,1.6,0.3,2.3,0.5c0.2,0,0.4,0.1,0.6,0.1c0.5,0.1,1.1,0.3,1.6,0.4
	c0.3,0.1,0.5,0.1,0.8,0.2c0.4,0.1,0.9,0.2,1.3,0.3c0.3,0.1,0.6,0.2,0.9,0.2c0.4,0.1,0.8,0.2,1.2,0.3c0.3,0.1,0.6,0.2,0.8,0.2
	c0.4,0.1,0.7,0.2,1.1,0.3c0.3,0.1,0.5,0.2,0.8,0.2c0.4,0.1,0.7,0.2,1.1,0.3c0.3,0.1,0.5,0.2,0.8,0.2c0.3,0.1,0.7,0.2,1,0.3
	c0.2,0.1,0.5,0.2,0.7,0.2c0.3,0.1,0.7,0.2,1,0.3c0.2,0.1,0.4,0.1,0.6,0.2c0.4,0.1,0.7,0.2,1,0.3c0.2,0.1,0.3,0.1,0.5,0.2
	c0.5,0.2,0.9,0.3,1.3,0.5C154.8,137.7,153.8,140.6,152.6,143.4 M84.3,63.2c0.8-1.7,1.5-3.2,2-4.5c0.2-0.4,0.3-0.8,0.3-1.2
	c0.7-0.1,1.8-0.3,3.1-0.6c0.6-0.2,1-0.8,0.9-1.4c-0.2-0.6-0.8-1-1.4-0.9c-1,0.3-1.9,0.4-2.5,0.5c-0.1-0.6-0.4-1.3-0.7-1.8
	c0.8-0.2,1.9-0.5,3.4-1c2.5-0.8,5.9-2,7.8-3.4c1.1-0.8,2.6-1.9,4.5-3.3c1.2,0.3,2.5,0.6,3.7,0.9c0,0.1,0.1,0.1,0.1,0.2
	c0.2,0.3,0.6,0.4,0.9,0.4c0.2,0,0.4-0.1,0.5-0.2c9.2,2.7,17.7,7.2,25.2,13.3c-0.5,1-1.1,2.1-1.6,3.2c-0.3,0.6,0,1.3,0.6,1.6
	c0.2,0.1,0.3,0.1,0.5,0.1c0.4,0,0.9-0.2,1.1-0.7c0.4-0.9,0.9-1.8,1.3-2.6c0.6,0.5,1.1,1,1.6,1.5c-4.5,12.1-13.4,38.2-13.4,55.8
	c0,2,0.1,4,0.4,5.7c-0.9-0.1-1.9-0.1-2.9-0.2c-0.4,0-0.8,0-1.2-0.1c0.1-0.7,0.1-1.7,0.3-3.1c0.1-0.7-0.4-1.2-1.1-1.3
	c-0.7-0.1-1.2,0.4-1.3,1.1c-0.1,1.5-0.2,2.5-0.3,3.2c-7.7-0.3-14.3,0-19.8,0.2c-2.7,0.1-5.1,0.2-7.3,0.2c-2.1,0-4,0-5.5-0.3
	c-5.9-0.8-6.4-10.3-6.4-20c0-4.5,0.7-10.4,1.4-15.9c0.1-0.8,0.2-1.6,0.3-2.3c0.1-0.9,0.2-1.7,0.3-2.6c0.1-0.6,0.1-1.1,0.2-1.6
	c0-0.1,0-0.3,0.1-0.4c0.1-0.4,0.1-0.8,0.2-1.2c0-0.1,0-0.2,0-0.4c0.1-0.4,0.1-0.8,0.1-1.1c0-0.1,0-0.2,0-0.2c0-0.4,0.1-0.8,0.1-1.1
	c0-0.1,0-0.1,0-0.2c0-0.4,0.1-0.7,0.1-1.1c0-0.1,0-0.1,0-0.2c0-0.3,0.1-0.6,0.1-0.9c0-0.1,0-0.2,0-0.3c0-0.2,0-0.5,0.1-0.7
	c0-0.1,0-0.2,0-0.3c0-0.1,0-0.3,0-0.4c0,0,0-0.1,0-0.1C80.8,70.5,82.7,66.5,84.3,63.2 M81.5,48.3L81.5,48.3c-1-0.9-1.3-2.2-1-3.9
	c6-0.5,12.1-0.3,18.1,0.7c-1.1,0.8-2,1.4-2.7,1.9c-2.7,1.9-9.4,3.8-11.4,4.2C83.6,50.2,82.5,49.2,81.5,48.3 M158.2,115.6
	c0,5.7-0.7,11.4-2,16.9c-0.1,0-0.2-0.1-0.4-0.1c-0.3-0.1-0.6-0.2-0.9-0.3c-0.5-0.2-1-0.3-1.5-0.5c-0.1,0-0.3-0.1-0.4-0.1
	c-0.4-0.1-0.8-0.3-1.2-0.4c-0.2-0.1-0.4-0.1-0.7-0.2c-0.4-0.1-0.7-0.2-1.1-0.3c-0.2-0.1-0.5-0.2-0.7-0.2c-0.4-0.1-0.7-0.2-1.1-0.3
	c-0.3-0.1-0.5-0.2-0.8-0.2c-0.4-0.1-0.8-0.2-1.2-0.3c-0.3-0.1-0.5-0.2-0.8-0.2c-0.4-0.1-0.8-0.2-1.3-0.3c-0.3-0.1-0.5-0.1-0.8-0.2
	c-0.5-0.1-1-0.3-1.5-0.4c-0.2-0.1-0.4-0.1-0.6-0.2c-0.7-0.2-1.5-0.4-2.2-0.5c-0.1,0-0.2,0-0.3-0.1c-0.7-0.1-1.3-0.3-2-0.4
	c-0.3-0.1-0.5-0.1-0.8-0.2c-0.5-0.1-1.1-0.2-1.6-0.3c-0.3-0.1-0.6-0.1-1-0.2c-0.5-0.1-1-0.2-1.5-0.3c-0.4-0.1-0.7-0.1-1.1-0.2
	c-0.5-0.1-1-0.2-1.6-0.2c-0.4-0.1-0.7-0.1-1.1-0.1c-0.5-0.1-1.1-0.1-1.6-0.2c-0.4,0-0.7-0.1-1.1-0.1c-0.1,0-0.2,0-0.4,0
	c-0.2-1.4-0.4-3.3-0.4-5.8c0-8.9,2.2-25.4,12.9-54.1C150.9,78.7,158.2,96.5,158.2,115.6 M137.8,62.2L137.8,62.2
	c-8.2-7.9-18-13.7-28.7-17.1c-0.9-0.3-1.8-0.5-2.7-0.8c-1.6-0.4-3.2-0.8-4.8-1.2c0,0,0,0,0,0c-7.3-1.5-14.9-1.9-22.3-1.1
	c-0.5,0.1-0.9,0.4-1,0.9c-0.7,3-0.2,5.4,1.5,6.9l0.1,0.1c1.3,1.2,2.4,2.2,3.1,3.2c0,0,0,0,0,0c0,0,0.1,0.1,0.1,0.1
	c1.2,1.5,1.6,2.9,1,4.6c-0.4,1.1-1.2,2.7-1.9,4.3c-1.4,2.8-2.9,6-3.7,8.8c-0.3-0.2-0.7-0.3-1.1-0.3c0,0-0.1,0-0.1,0
	c-1,0-1.9,0.9-2.5,2.4c-1.4,3.8-4.9,20.7-5.1,35.9c-0.2,12.3-0.1,23.4,0,28.1c0,1.1,0,1.9,0,2.3c0,2.6,5.9,11.6,24.5,11.6
	c8.4,0,13.9-1.6,19.7-3.3c6.5-1.9,13.2-3.9,24.9-3.9c5.2,0,9.7,0.7,14.1,2.1c0.6,0.2,1.2-0.1,1.4-0.6c1.6-3.6,2.9-7.3,3.9-11.1
	c1.6-6.1,2.4-12.4,2.4-18.7C160.6,95.2,152.5,76.3,137.8,62.2"/>
<path class="st9" d="M117.9,118.7c0,0,0.1,0,0.1,0c0.6,0,1.1-0.4,1.2-1c0.1-1.2,0.3-2.5,0.5-3.9c0.1-0.6-0.4-1.2-1-1.3
	c-0.6-0.1-1.2,0.4-1.3,1c-0.2,1.4-0.3,2.7-0.5,3.9C116.8,118,117.2,118.6,117.9,118.7"/>
<path class="st9" d="M121.6,95.2c0.1,0,0.2,0,0.3,0c0.5,0,1-0.4,1.2-0.9c0.3-1.3,0.6-2.5,0.9-3.8c0.2-0.6-0.2-1.3-0.9-1.4
	c-0.6-0.2-1.3,0.2-1.4,0.9c-0.3,1.3-0.6,2.6-0.9,3.9C120.6,94.5,121,95.1,121.6,95.2"/>
<path class="st9" d="M120.1,103c0.1,0,0.1,0,0.2,0c0.6,0,1.1-0.4,1.2-1c0.2-1.3,0.5-2.6,0.7-3.9c0.1-0.6-0.3-1.3-0.9-1.4
	c-0.6-0.1-1.3,0.3-1.4,0.9c-0.3,1.3-0.5,2.6-0.7,3.9C119,102.3,119.5,102.9,120.1,103"/>
<path class="st9" d="M125.5,79.9c0.1,0,0.2,0.1,0.4,0.1c0.5,0,1-0.3,1.1-0.8c0.4-1.3,0.8-2.5,1.2-3.7c0.2-0.6-0.1-1.3-0.7-1.5
	c-0.6-0.2-1.3,0.1-1.5,0.7c-0.4,1.2-0.8,2.5-1.2,3.8C124.5,79.1,124.9,79.7,125.5,79.9"/>
<path class="st9" d="M123.4,87.5c0.1,0,0.2,0,0.3,0c0.5,0,1-0.4,1.1-0.9c0.3-1.3,0.7-2.5,1-3.8c0.2-0.6-0.2-1.3-0.8-1.5
	c-0.6-0.2-1.3,0.2-1.5,0.8c-0.4,1.3-0.7,2.6-1,3.8C122.4,86.7,122.8,87.4,123.4,87.5"/>
<path class="st9" d="M128,72.4c0.1,0.1,0.3,0.1,0.4,0.1c0.5,0,0.9-0.3,1.1-0.8c0.5-1.2,1-2.5,1.5-3.6c0.3-0.6,0-1.3-0.6-1.6
	c-0.6-0.3-1.3,0-1.6,0.6c-0.5,1.2-1,2.4-1.5,3.7C127.1,71.5,127.4,72.2,128,72.4"/>
<path class="st9" d="M118.9,110.8c0.1,0,0.1,0,0.2,0c0.6,0,1.1-0.4,1.2-1c0.2-1.2,0.4-2.5,0.6-3.9c0.1-0.6-0.3-1.3-1-1.4
	c-0.6-0.1-1.3,0.3-1.4,1c-0.2,1.4-0.4,2.7-0.6,3.9C117.8,110.1,118.2,110.7,118.9,110.8"/>
</svg>
