<?xml version="1.0" encoding="utf-8"?>
<!-- Generator: Adobe Illustrator 22.0.1, SVG Export Plug-In . SVG Version: 6.00 Build 0)  -->
<svg version="1.1" id="Layer_1" xmlns="http://www.w3.org/2000/svg" xmlns:xlink="http://www.w3.org/1999/xlink" x="0px" y="0px"
	 viewBox="0 0 182 190" style="enable-background:new 0 0 182 190;" xml:space="preserve">
<style type="text/css">
	.st0{filter:url(#Adobe_OpacityMaskFilter);}
	.st1{fill:url(#SVGID_2_);}
	.st2{mask:url(#SVGID_1_);}
	.st3{clip-path:url(#SVGID_4_);fill:#A987A7;}
	.st4{fill:#00A79C;}
	.st5{filter:url(#Adobe_OpacityMaskFilter_1_);}
	.st6{fill:url(#SVGID_6_);}
	.st7{mask:url(#SVGID_5_);}
	.st8{clip-path:url(#SVGID_8_);fill:#A987A7;}
	.st9{fill:#FFFFFF;}
	.st10{filter:url(#Adobe_OpacityMaskFilter_2_);}
	.st11{fill:url(#SVGID_10_);}
	.st12{mask:url(#SVGID_9_);}
	.st13{clip-path:url(#SVGID_12_);fill:#A987A7;}
	.st14{filter:url(#Adobe_OpacityMaskFilter_3_);}
	.st15{fill:url(#SVGID_14_);}
	.st16{mask:url(#SVGID_13_);}
	.st17{clip-path:url(#SVGID_16_);fill:#A987A7;}
	.st18{fill:#00A69B;}
</style>
<defs>
	<filter id="Adobe_OpacityMaskFilter" filterUnits="userSpaceOnUse" x="-12.5" y="-21.9" width="213.6" height="213.6">
		<feColorMatrix  type="matrix" values="1 0 0 0 0  0 1 0 0 0  0 0 1 0 0  0 0 0 1 0"/>
	</filter>
</defs>
<mask maskUnits="userSpaceOnUse" x="-12.5" y="-21.9" width="213.6" height="213.6" id="SVGID_1_">
	<g class="st0">
		
			<linearGradient id="SVGID_2_" gradientUnits="userSpaceOnUse" x1="-236.8108" y1="5096.1118" x2="-235.6883" y2="5096.1118" gradientTransform="matrix(39.0402 12.085 12.085 -39.0402 -52304.1406 202081.2344)">
			<stop  offset="0" style="stop-color:#FFFFFF"/>
			<stop  offset="1" style="stop-color:#000000"/>
		</linearGradient>
		<polygon class="st1" points="-121.2,-5526.2 3818.2,-4306.8 573.5,6175.2 -3365.9,4955.8 		"/>
	</g>
</mask>
<g class="st2">
	<g>
		<defs>
			<rect id="SVGID_3_" x="-12.5" y="-21.9" width="213.6" height="213.6"/>
		</defs>
		<clipPath id="SVGID_4_">
			<use xlink:href="#SVGID_3_"  style="overflow:visible;"/>
		</clipPath>
		<path class="st3" d="M116.7,181.8l-1.5-0.7c-0.6-0.3-55.4-26.4-76.5-39.5C25,133,15.5,119.6,11.9,103.9
			c-3.6-15.7-0.9-31.9,7.6-45.5c13.1-21,38.1-31.9,62.4-27.3c19.8-14.8,47-16,68.1-2.8l0,0c13.7,8.5,23.2,21.9,26.8,37.6
			c3.6,15.7,0.9,31.9-7.6,45.5c-13.2,21.1-51,68.6-51.4,69.1L116.7,181.8z M70.7,34.3c-19,0-37.3,9.8-47.6,26.3
			c-7.9,12.7-10.4,27.7-7.1,42.3c3.4,14.6,12.2,27,24.9,34.9c18.9,11.8,65.5,34.2,74.5,38.6c6.2-7.9,38.3-48.4,50.1-67.3
			c7.9-12.7,10.4-27.7,7.1-42.3c-3.4-14.6-12.2-27-24.9-34.9c-19.8-12.4-45.5-11.1-64,3.2L83,35.7l-1-0.2
			C78.3,34.7,74.5,34.3,70.7,34.3z"/>
	</g>
</g>
<path class="st4" d="M132.1,109.5c0-1.9,1.5-3.4,3.4-3.4c1.9,0,3.4,1.5,3.4,3.4c0,1.9-1.5,3.4-3.4,3.4
	C133.6,112.9,132.1,111.4,132.1,109.5 M124.9,149.8l7.5-5c-7.5-14.2-1.1-25.3,11.5-28v-14.5c-12.6-2.7-19-13.8-11.5-28l-7.5-5
	C113.6,82.7,90.3,85.9,75.4,71l-8.6,5.3c3.8,15.4-2.7,29.6-13.1,33.2c10.4,3.6,16.9,17.8,13.1,33.2l8.6,5.3
	C90.3,133.1,113.6,136.3,124.9,149.8"/>
<defs>
	<filter id="Adobe_OpacityMaskFilter_1_" filterUnits="userSpaceOnUse" x="606.1" y="69.8" width="228.7" height="228.7">
		<feColorMatrix  type="matrix" values="1 0 0 0 0  0 1 0 0 0  0 0 1 0 0  0 0 0 1 0"/>
	</filter>
</defs>
<mask maskUnits="userSpaceOnUse" x="606.1" y="69.8" width="228.7" height="228.7" id="SVGID_5_">
	<g class="st5">
		
			<linearGradient id="SVGID_6_" gradientUnits="userSpaceOnUse" x1="-229.9151" y1="5100.4116" x2="-228.7925" y2="5100.4116" gradientTransform="matrix(47.4506 27.6169 27.6169 -47.4506 -129380.5156 248754.7188)">
			<stop  offset="0" style="stop-color:#FFFFFF"/>
			<stop  offset="1" style="stop-color:#000000"/>
		</linearGradient>
		<polygon class="st6" points="396.3,-5570.2 5905.6,-2363.7 812.2,6387.6 -4697.1,3181.2 		"/>
	</g>
</mask>
<g class="st7">
	<g>
		<defs>
			<rect id="SVGID_7_" x="606.1" y="69.8" width="228.7" height="228.7"/>
		</defs>
		<clipPath id="SVGID_8_">
			<use xlink:href="#SVGID_7_"  style="overflow:visible;"/>
		</clipPath>
		<path class="st8" d="M720.5,265.5c-21.7,0-42.1-8.5-57.5-23.8c-15.4-15.4-23.8-35.8-23.8-57.5s8.5-42.1,23.8-57.5
			c15.3-15.4,35.8-23.8,57.5-23.8c21.7,0,42.1,8.5,57.5,23.8c31.7,31.7,31.7,83.3,0,114.9l0,0C762.6,257,742.2,265.5,720.5,265.5z
			 M720.5,108.7c-20.2,0-39.1,7.9-53.4,22.1c-14.3,14.3-22.1,33.2-22.1,53.4s7.9,39.1,22.1,53.4s33.2,22.1,53.4,22.1
			c20.2,0,39.1-7.9,53.4-22.1c29.4-29.4,29.4-77.3,0-106.8C759.6,116.6,740.6,108.7,720.5,108.7z"/>
	</g>
</g>
<path class="st4" d="M724.8,230.5c-0.2-0.7-0.5-1.4-0.8-2.1l1.5-0.6c0.3,0.7,0.5,1.4,0.8,2.2L724.8,230.5z M727.7,234.4l-1.6,0.5
	c-0.2-0.7-0.4-1.5-0.7-2.2l1.5-0.5C727.3,232.9,727.5,233.6,727.7,234.4 M728.9,238.8l-1.6,0.4c-0.2-0.7-0.4-1.4-0.6-2.2l1.6-0.4
	C728.5,237.3,728.7,238.1,728.9,238.8 M722.3,224.3l1.5-0.7c0.3,0.7,0.6,1.4,0.9,2.1l-1.5,0.6C722.9,225.7,722.6,225,722.3,224.3
	 M720,241.8c-0.2-0.7-0.4-1.5-0.6-2.2l1.6-0.4c0.2,0.7,0.4,1.5,0.6,2.2L720,241.8z M718.2,235.3l1.5-0.5c0.2,0.7,0.5,1.5,0.7,2.2
	l-1.6,0.5C718.6,236.8,718.4,236.1,718.2,235.3 M717.4,233.2c-0.3-0.7-0.5-1.4-0.8-2.1l1.5-0.6c0.3,0.7,0.5,1.4,0.8,2.1L717.4,233.2
	z M714.9,227l1.5-0.7c0.3,0.7,0.6,1.4,0.9,2.1l-1.5,0.6C715.5,228.3,715.2,227.7,714.9,227 M713,223l1.4-0.8c0.4,0.7,0.7,1.4,1,2
	L714,225C713.6,224.3,713.3,223.6,713,223 M711.2,219.8c-0.1-0.2-0.3-0.5-0.4-0.7l1.4-0.9c0.1,0.2,0.3,0.5,0.4,0.7
	c0.2,0.4,0.5,0.8,0.7,1.3l-1.4,0.8C711.7,220.6,711.4,220.2,711.2,219.8 M708.2,215.4l1.3-1c0.5,0.6,0.9,1.2,1.3,1.9l-1.3,0.9
	C709.1,216.6,708.7,216,708.2,215.4 M707,205.2c-0.5-0.5-1.1-1-1.7-1.5l1.1-1.2c0.6,0.5,1.1,1,1.7,1.5L707,205.2z M706.8,213.6
	c-0.5-0.6-1-1.1-1.5-1.7l1.2-1.1c0.5,0.6,1,1.2,1.5,1.7L706.8,213.6z M703.9,210.3c-0.5-0.5-1.1-1.1-1.6-1.6l1.1-1.2
	c0.6,0.5,1.1,1.1,1.6,1.6L703.9,210.3z M703.1,199.4c0.5,0.5,1.1,1,1.7,1.5l-1.1,1.2c-0.6-0.5-1.1-1-1.7-1.5L703.1,199.4z
	 M709.8,205.6c0.3,0.2,0.5,0.5,0.7,0.7c0.3,0.3,0.6,0.6,0.9,0.9l-1.1,1.2c-0.3-0.3-0.7-0.6-0.9-0.9c-0.2-0.2-0.4-0.4-0.7-0.7
	L709.8,205.6z M713,208.8c0.6,0.6,1.1,1.1,1.6,1.6l-1.2,1.1c-0.5-0.5-1-1-1.6-1.6L713,208.8z M716.2,212.1c0.5,0.6,1,1.2,1.5,1.8
	l-1.3,1c-0.5-0.6-0.9-1.1-1.4-1.7L716.2,212.1z M719.1,215.7c0.5,0.6,0.9,1.3,1.3,1.9l-1.3,0.9c-0.4-0.6-0.8-1.2-1.3-1.8
	L719.1,215.7z M722.7,221.6l-1.4,0.8c-0.3-0.7-0.7-1.3-1.1-1.9l1.4-0.8C722,220.2,722.4,220.9,722.7,221.6 M710,204.3
	c-5.4-3.8-8.4-6.3-9.9-7.9c0,0,0,0,0,0c0,0.1,0,0.1,0,0.2c0.3,0.3,0.8,0.7,1.4,1.2l-1.1,1.2c-0.1-0.1-0.2-0.2-0.3-0.2
	c0,0.2,0,0.3,0,0.5c0,1.8,0,3.7,0.1,5.4c0.3,0.2,0.8,0.7,1.5,1.2l-1.1,1.2c-0.1-0.1-0.2-0.2-0.3-0.3c0.1,0.7,0.1,1.3,0.2,1.6
	c1.2,4.4,1.6,9.6,1,15c-0.3,2.8-0.8,5.4-1.3,7.6c-0.1,0.4-0.2,0.7-0.2,1.1c-0.1,0.3-0.2,0.7-0.2,1c-0.6,2.5-1.2,4.1-1.2,4.3
	l-0.1,0.4l-0.5,0.1c0,0,0,0,0,0c0,0,0,0,0,0c0,0,0,0-0.1,0c0,0,0,0,0,0c0,0-0.1,0-0.1,0c0,0,0,0-0.1,0c-0.1,0-0.1,0-0.2,0.1
	c0,0,0,0,0,0c-0.1,0-0.1,0-0.2,0.1c0,0,0,0-0.1,0c-0.1,0-0.1,0-0.2,0.1c0,0-0.1,0-0.1,0c-0.1,0-0.2,0.1-0.2,0.1c0,0,0,0,0,0
	c-0.1,0-0.2,0.1-0.3,0.1c0,0,0,0,0,0c6.8,2.5,13.9,3.8,21.2,3.8c3.5,0,7-0.3,10.5-0.9c0,0,0-0.1,0-0.1l1.6-0.4c0,0.1,0,0.1,0,0.2
	c0.3-0.1,0.5-0.1,0.8-0.2c-0.9-4.6-2.7-13.9-4.3-18C723.3,216.1,718,209.9,710,204.3"/>
<path class="st4" d="M729.2,226.3c-2.3-9.1-6-13.3-12.4-18.7c5.1,4.5,8.6,9.4,10.7,14.8c1.6,4.1,3.4,12.8,4.4,18.2
	c0.2,0,0.4-0.1,0.6-0.1c-0.1-0.3-0.1-0.6-0.2-1C731.6,236.6,730.7,232.1,729.2,226.3"/>
<path class="st4" d="M750.1,197.1c-2.7,0-4.9-2.2-4.9-4.9c0-2.7,2.2-4.9,4.9-4.9s4.9,2.2,4.9,4.9
	C754.9,194.9,752.7,197.1,750.1,197.1 M750.1,184.7c-4.2,0-7.5,3.4-7.5,7.5c0,4.2,3.4,7.5,7.5,7.5c4.2,0,7.5-3.4,7.5-7.5
	C757.6,188.1,754.2,184.7,750.1,184.7"/>
<path class="st4" d="M710.9,203c0.8,0.6,1.6,1.1,2.4,1.7c-0.2-0.1-0.3-0.3-0.5-0.4l-1.2-1c-6.5-5.3-10-8.8-11.6-10.6
	c0,0.1,0,0.1,0,0.2c0,0.1,0,0.2,0,0.3c0,0,0,0.1,0,0.1c0,0.1,0,0.1,0,0.2c0,0,0,0.1,0,0.1c0,0.1,0,0.1,0,0.2c0,0,0,0.1,0,0.1
	c0,0,0,0.1,0,0.1C700.5,194.6,702.9,197.4,710.9,203"/>
<path class="st4" d="M731.2,181.4l0.8,1.4c-0.6,0.4-1.3,0.7-2,1.1l-0.8-1.4C729.9,182.1,730.6,181.8,731.2,181.4 M726.3,185.9
	l-0.3,0.1l-0.8-1.4l0.3-0.1c0.6-0.3,1.2-0.6,1.7-0.9l0.8,1.4C727.5,185.3,726.9,185.6,726.3,185.9 M722,188.1l-0.7-1.5
	c0.6-0.3,1.3-0.7,2-1l0.7,1.4C723.3,187.5,722.6,187.8,722,188.1 M735.1,179.1l0.8,1.4c-0.6,0.4-1.3,0.8-1.9,1.2l-0.8-1.4
	C733.8,179.9,734.5,179.5,735.1,179.1 M738.9,176.7l0.9,1.3c-0.6,0.4-1.3,0.8-1.9,1.3l-0.9-1.4C737.6,177.5,738.3,177.1,738.9,176.7
	 M742.5,174.1l1,1.3c-0.6,0.4-1.2,0.9-1.8,1.3l-0.9-1.3C741.3,175,742,174.5,742.5,174.1 M746.1,171.3l1,1.2c-0.6,0.5-1.2,1-1.8,1.4
	l-1-1.3C744.9,172.3,745.5,171.8,746.1,171.3 M749.4,168.4l1.1,1.2c-0.6,0.5-1.1,1-1.7,1.5l-1.1-1.2
	C748.3,169.4,748.9,168.9,749.4,168.4 M752.6,165.2l1.2,1.1c-0.6,0.6-1.1,1.1-1.6,1.6l-1.1-1.2C751.6,166.3,752.1,165.8,752.6,165.2
	 M755.7,161.9l1.2,1.1c-0.5,0.5-1,1.1-1.5,1.7l-1.2-1.1C754.7,163,755.2,162.5,755.7,161.9 M758.8,158.6l1.2,1.1
	c-0.5,0.5-1,1.1-1.5,1.6l-1.2-1.1C757.8,159.6,758.3,159.1,758.8,158.6 M717.8,190.1l-0.6-1.5c0.6-0.3,1.3-0.6,2-0.9l0.7,1.5
	C719.2,189.5,718.5,189.8,717.8,190.1 M713.5,191.6l-0.4-1.6c0.7-0.2,1.3-0.4,2.1-0.7l0.6,1.5C714.9,191.2,714.2,191.4,713.5,191.6
	 M709.2,192.2c-0.1,0-0.3,0-0.4,0l0-1.6c0.7,0,1.4,0,2.1-0.1l0.2,1.6C710.5,192.2,709.9,192.2,709.2,192.2 M706.4,192
	c-0.7-0.1-1.4-0.3-2.3-0.5l0.4-1.6c0.8,0.2,1.5,0.3,2.2,0.4L706.4,192z M762.1,155.4l1.1,1.2c-0.5,0.5-1.1,1-1.6,1.5l-1.1-1.2
	C761,156.4,761.5,155.9,762.1,155.4 M765.5,152.4l1.1,1.2c-0.5,0.5-1.1,1-1.7,1.5l-1.1-1.2C764.4,153.4,764.9,152.9,765.5,152.4
	 M777,187.7c-0.2,0.1-0.3,0.3-0.5,0.5c-0.1,0.1-0.2,0.2-0.3,0.3c-0.2,0.2-0.3,0.3-0.5,0.5c-0.1,0.1-0.2,0.2-0.3,0.3
	c-0.2,0.2-0.3,0.3-0.5,0.5c-0.1,0.1-0.2,0.2-0.3,0.3c-0.2,0.2-0.3,0.3-0.5,0.5c-0.1,0.1-0.2,0.2-0.3,0.3c-0.2,0.2-0.4,0.4-0.5,0.5
	c-0.1,0.1-0.2,0.2-0.3,0.3c-0.2,0.2-0.4,0.4-0.6,0.5c-0.1,0.1-0.2,0.2-0.3,0.3c-0.2,0.2-0.4,0.4-0.5,0.5c-0.1,0.1-0.2,0.2-0.3,0.3
	c-0.2,0.2-0.4,0.4-0.6,0.6c-0.1,0.1-0.2,0.2-0.2,0.2c-0.2,0.2-0.4,0.4-0.6,0.6c-0.1,0.1-0.1,0.1-0.2,0.2c-0.2,0.2-0.4,0.4-0.7,0.7
	c-0.1,0.1-0.1,0.1-0.2,0.2c-0.2,0.2-0.5,0.5-0.7,0.7c0,0-0.1,0.1-0.1,0.1c-0.3,0.3-0.6,0.6-1,0.9c-0.9,0.9-1.8,1.8-2.6,2.6
	c-0.7,0.7-1.4,1.4-2,2c0,0-0.1,0.1-0.1,0.1c-0.2,0.2-0.4,0.4-0.6,0.6c0,0-0.1,0.1-0.1,0.1c-0.2,0.2-0.4,0.4-0.6,0.6
	c0,0-0.1,0.1-0.1,0.1c-0.2,0.2-0.4,0.4-0.6,0.6c0,0-0.1,0.1-0.1,0.1c-0.2,0.2-0.3,0.3-0.5,0.5c-0.1,0.1-0.1,0.1-0.2,0.2
	c-0.2,0.2-0.3,0.3-0.4,0.5c-0.1,0.1-0.1,0.1-0.2,0.2c-0.1,0.1-0.3,0.3-0.4,0.4c-0.1,0.1-0.1,0.1-0.2,0.2c-0.1,0.1-0.2,0.3-0.4,0.4
	c0,0-0.1,0.1-0.1,0.1c-0.1,0.1-0.2,0.3-0.4,0.4c0,0-0.1,0.1-0.1,0.1c-0.1,0.1-0.2,0.2-0.3,0.3c0,0-0.1,0.1-0.1,0.1
	c-0.1,0.1-0.2,0.2-0.3,0.3c0,0-0.1,0.1-0.1,0.1c-0.1,0.1-0.2,0.2-0.3,0.4c-0.2,0.2-0.4,0.4-0.6,0.6c-0.1,0.1-0.1,0.1-0.2,0.2
	c-0.1,0.1-0.3,0.3-0.4,0.4c-0.1,0.1-0.2,0.1-0.2,0.2c-0.1,0.1-0.3,0.2-0.4,0.3c-0.1,0.1-0.2,0.1-0.2,0.2c-0.1,0.1-0.3,0.2-0.4,0.3
	c-0.1,0.1-0.1,0.1-0.2,0.2c-0.2,0.1-0.4,0.3-0.6,0.4c0,0-0.1,0-0.1,0c-0.2,0.1-0.4,0.3-0.7,0.4c-0.1,0-0.1,0.1-0.2,0.1
	c-0.2,0.1-0.3,0.2-0.5,0.3c-0.1,0-0.2,0.1-0.2,0.1c-0.2,0.1-0.3,0.2-0.5,0.2c-0.1,0-0.2,0.1-0.3,0.1c-0.2,0.1-0.3,0.1-0.5,0.2
	c-0.1,0-0.2,0.1-0.2,0.1c-0.2,0.1-0.4,0.1-0.6,0.2c0,0-0.1,0-0.1,0.1c-0.2,0.1-0.5,0.2-0.7,0.2c-0.1,0-0.1,0-0.2,0
	c-0.2,0-0.4,0.1-0.5,0.1c-0.1,0-0.2,0-0.3,0.1c-0.2,0-0.3,0.1-0.5,0.1c-0.1,0-0.2,0-0.3,0c-0.2,0-0.3,0-0.5,0.1c-0.1,0-0.2,0-0.3,0
	c-0.2,0-0.4,0-0.5,0c-0.1,0-0.1,0-0.2,0c-0.2,0-0.5,0-0.7,0c0,0,0,0,0,0c-0.2,0-0.4,0-0.6,0c-0.1,0-0.1,0-0.2,0c-0.2,0-0.3,0-0.5,0
	c-0.1,0-0.1,0-0.2,0c-0.1,0-0.3,0-0.4,0c-0.1,0-0.1,0-0.2,0c-0.2,0-0.3,0-0.5-0.1c0,0-0.1,0-0.1,0c-0.2,0-0.4-0.1-0.6-0.1
	c0,0-0.1,0-0.1,0c-0.2,0-0.3-0.1-0.5-0.1c-0.1,0-0.1,0-0.2-0.1c-0.1,0-0.3-0.1-0.4-0.1c-0.1,0-0.1,0-0.2-0.1c-0.1,0-0.3-0.1-0.4-0.2
	c-0.1,0-0.1,0-0.2-0.1c-0.2-0.1-0.4-0.2-0.6-0.2c0,0-0.1,0-0.1,0c-0.2-0.1-0.4-0.2-0.5-0.2c-0.1,0-0.1-0.1-0.2-0.1
	c-0.1-0.1-0.3-0.1-0.4-0.2c-0.1,0-0.1-0.1-0.2-0.1c-0.1-0.1-0.3-0.1-0.4-0.2c-0.1,0-0.1-0.1-0.2-0.1c-0.2-0.1-0.4-0.2-0.6-0.4
	c-3.5-2.2-5.7-5.4-6.3-9.5c-0.4-3.2,0.1-6.8,1.6-9.9c1.8-3.9,10.8-12.9,18.8-20.9c3.2-3.2,6.2-6.2,8.3-8.5c0.3-0.3,0.6-0.6,0.8-0.9
	c0.1-0.1,0.2-0.2,0.3-0.3c0.2-0.2,0.4-0.4,0.6-0.6c0.1-0.1,0.2-0.2,0.3-0.3c0.2-0.2,0.3-0.4,0.5-0.5c0.1-0.1,0.2-0.2,0.3-0.3
	c0.2-0.2,0.3-0.3,0.5-0.5c0.1-0.1,0.2-0.2,0.3-0.3c0.2-0.2,0.3-0.3,0.5-0.5c0.1-0.1,0.2-0.2,0.4-0.3c0.2-0.2,0.3-0.3,0.5-0.5
	c0.1-0.1,0.2-0.2,0.3-0.3c0.2-0.1,0.3-0.3,0.5-0.4c0.1-0.1,0.2-0.2,0.3-0.3c0.2-0.1,0.3-0.3,0.5-0.4c0.1-0.1,0.2-0.2,0.3-0.3
	c0.2-0.1,0.3-0.3,0.4-0.4c0.1-0.1,0.2-0.2,0.3-0.3c0.1-0.1,0.3-0.3,0.4-0.4c0.1-0.1,0.2-0.2,0.3-0.3c0.1-0.1,0.3-0.3,0.4-0.4
	c0.1-0.1,0.2-0.2,0.3-0.3c0.1-0.1,0.3-0.2,0.4-0.4c0.1-0.1,0.2-0.2,0.3-0.3c0.1-0.1,0.3-0.2,0.4-0.4c0.1-0.1,0.2-0.2,0.3-0.2
	c0.1-0.1,0.3-0.2,0.4-0.4c0.1-0.1,0.2-0.1,0.2-0.2c0.1-0.1,0.3-0.2,0.4-0.4c0.1-0.1,0.1-0.1,0.2-0.2c0,0,0,0,0.1,0
	c-0.1-0.2-0.2-0.3-0.3-0.5c-0.5,0.4-1.1,0.9-1.6,1.4l-1.1-1.2c0.6-0.5,1.2-1,1.7-1.5l0.6,0.7c-0.9-1.5-1.9-3-2.9-4.4c0,0,0,0,0,0
	c-0.1,0.1-0.2,0.1-0.3,0.2c0,0-0.1,0-0.1,0.1c-0.1,0.1-0.2,0.1-0.3,0.2c-0.1,0-0.1,0.1-0.2,0.1c-0.1,0-0.2,0.1-0.2,0.1
	c-0.1,0-0.2,0.1-0.2,0.1c-0.1,0-0.1,0.1-0.2,0.1c-0.1,0.1-0.2,0.1-0.3,0.2c-0.1,0-0.1,0.1-0.2,0.1c-0.1,0.1-0.2,0.1-0.4,0.2
	c0,0-0.1,0.1-0.1,0.1c-0.2,0.1-0.4,0.2-0.6,0.3c0,0,0,0-0.1,0c-0.2,0.1-0.3,0.2-0.5,0.3c-0.1,0-0.1,0.1-0.2,0.1
	c-0.1,0.1-0.3,0.2-0.4,0.2c-0.1,0-0.2,0.1-0.2,0.1c-0.1,0.1-0.3,0.2-0.4,0.2c-0.1,0-0.2,0.1-0.3,0.1c-0.1,0.1-0.3,0.2-0.4,0.2
	c-0.1,0.1-0.2,0.1-0.3,0.2c-0.1,0.1-0.3,0.2-0.4,0.3c-0.1,0.1-0.2,0.1-0.3,0.2c-0.2,0.1-0.3,0.2-0.5,0.3c-0.1,0.1-0.2,0.1-0.3,0.2
	c-0.2,0.1-0.4,0.2-0.5,0.3c-0.1,0-0.2,0.1-0.2,0.1c-0.3,0.2-0.5,0.3-0.8,0.5c-7.7,4.4-34.2,18.4-36.6,18.6c-0.7,0.1-1.8-0.1-3.3-0.2
	c-3.1-0.3-7.8-0.9-10.2,0.2c-6.5,2.8-9.9,6.9-9.9,12.1c0,3.7,3,6.9,3.7,7.6c0.3,0.1,0.6,0.2,0.9,0.2l-0.1,0.5l1.1,1l-1.3-0.1
	l-0.1,0.2c-0.3-0.1-0.7-0.2-1-0.3c0,0,0,0,0,0c0,0,0,0,0,0c0,0,0,0-0.1,0c0,0,0,0,0,0c0,0-0.1,0-0.1,0c0,0,0,0,0,0c0,0-0.1,0-0.1,0
	c0,0,0,0,0,0c0,0,0,0-0.1,0c0,0,0,0,0,0c0,0,0,0,0,0c1.1,1.3,4.6,5.1,12.1,11.2l1.2,1c8.8,7.2,14.2,11.5,17,22.9
	c1.4,5.8,2.4,10.3,3.1,13.3c0.1,0.3,0.1,0.6,0.2,0.9c12-3.4,22.6-10.3,30.5-20.1c7.8-9.6,12.5-21,13.5-33.3
	c-0.2,0.2-0.5,0.5-0.7,0.7C777.2,187.5,777.1,187.6,777,187.7"/>
<path class="st4" d="M774.9,186l-1.1-1.2c0.5-0.5,1.1-1,1.6-1.6l1.1,1.2C776,185,775.4,185.5,774.9,186 M771.5,189.1l-1.1-1.2
	c0.5-0.5,1.1-1,1.7-1.5l1.1,1.2C772.6,188.1,772.1,188.6,771.5,189.1 M768.2,192.2l-1.1-1.2c0.6-0.5,1.1-1,1.7-1.6l1.1,1.2
	C769.3,191.1,768.8,191.6,768.2,192.2 M766.6,157.9c0.6-0.5,1.1-1.1,1.7-1.5l1.1,1.2c-0.5,0.5-1.1,1-1.7,1.5L766.6,157.9z
	 M765,195.3l-1.1-1.2c0.5-0.5,1.1-1.1,1.6-1.6l1.1,1.2C766,194.3,765.5,194.8,765,195.3 M763.3,161.1c0.6-0.5,1.1-1.1,1.6-1.6
	l1.1,1.2c-0.5,0.5-1.1,1-1.6,1.6L763.3,161.1z M761.7,198.5l-1.1-1.1c0.5-0.5,1.1-1.1,1.6-1.6l1.1,1.2
	C762.8,197.4,762.3,198,761.7,198.5 M760.1,164.3c0.5-0.5,1.1-1.1,1.6-1.6l1.1,1.1c-0.5,0.5-1.1,1.1-1.6,1.6L760.1,164.3z
	 M758.5,201.7l-1.1-1.2c0.5-0.5,1.1-1.1,1.6-1.6l1.1,1.2C759.6,200.6,759,201.2,758.5,201.7 M750.1,201.4c-5,0-9.1-4.1-9.1-9.1
	c0-5,4.1-9.1,9.1-9.1c5,0,9.1,4.1,9.1,9.1C759.2,197.3,755.1,201.4,750.1,201.4 M755.2,204.8l-1.1-1.2c0.5-0.5,1.1-1,1.6-1.6
	l1.1,1.2C756.3,203.8,755.8,204.3,755.2,204.8 M751.9,207.9l-1.1-1.2c0.5-0.4,1.1-0.9,1.7-1.5l1.1,1.2
	C753,207,752.4,207.5,751.9,207.9 M748.2,210.7l-0.8-1.4c0.5-0.3,1.1-0.7,1.8-1.3l1,1.3C749.4,210,748.7,210.4,748.2,210.7
	 M744.3,211.8c-0.3,0-0.7,0-1-0.1l0.2-1.6c0.7,0.1,1.4,0.1,2-0.1l0.3,1.6C745.3,211.8,744.8,211.8,744.3,211.8 M740.9,211.2
	c-0.7-0.3-1.5-0.7-2.2-1.1l0.9-1.4c0.6,0.4,1.2,0.7,1.9,0.9L740.9,211.2z M739.7,185.6l1.2,1.1c-0.5,0.6-1,1.1-1.5,1.7l-1.2-1.1
	C738.6,186.8,739.1,186.2,739.7,185.6 M736.8,208.6c-0.6-0.6-1.1-1.2-1.6-1.8l1.3-0.9c0.4,0.6,0.9,1.1,1.4,1.6L736.8,208.6z
	 M734.1,204.6c-0.2-0.6-0.4-1.2-0.5-1.7c0-0.2-0.1-0.4-0.1-0.6l1.6-0.3c0,0.2,0.1,0.4,0.1,0.6c0.1,0.5,0.2,1,0.4,1.5L734.1,204.6z
	 M732.7,197.6l1.6,0c0,0.6,0.1,1.3,0.2,2.1L733,200C732.8,199.1,732.7,198.3,732.7,197.6 M734,192.9l1.4,0.8
	c-0.4,0.7-0.6,1.3-0.8,1.9l-1.6-0.5C733.3,194.4,733.6,193.7,734,192.9 M736.7,189.1l1.3,1c-0.5,0.6-0.9,1.2-1.3,1.8l-1.3-0.9
	C735.7,190.3,736.1,189.7,736.7,189.1 M741.9,183.3c0.3-0.3,0.6-0.7,1-1l1.2,1.1c-0.3,0.3-0.7,0.7-1,1c-0.2,0.2-0.4,0.4-0.6,0.6
	l-1.2-1.1C741.5,183.8,741.7,183.6,741.9,183.3 M746,179.1l1.2,1.1c-0.5,0.6-1.1,1.1-1.6,1.6l-1.2-1.1
	C744.9,180.2,745.5,179.6,746,179.1 M749.1,175.8l1.2,1.1c-0.5,0.6-1,1.1-1.6,1.6l-1.2-1.1C748.1,176.9,748.6,176.4,749.1,175.8
	 M752.2,172.5l1.2,1.1l-1.6,1.6l-1.2-1.1L752.2,172.5z M755.4,169.2l1.2,1.1c-0.5,0.5-1,1.1-1.6,1.6l-1.2-1.1
	C754.3,170.3,754.8,169.8,755.4,169.2 M758.5,165.9l1.2,1.1c-0.5,0.5-1,1.1-1.6,1.6l-1.2-1.1C757.4,167,758,166.5,758.5,165.9
	 M777,181.7c0.4-0.4,0.8-0.8,1.2-1.2c-0.1-8.8-2.2-17.5-6-25.4c-0.4,0.3-0.8,0.6-1.2,1l-1-1.2c0.5-0.4,1-0.9,1.5-1.2
	c-0.2-0.3-0.3-0.7-0.5-1c-0.1,0.1-0.2,0.1-0.2,0.2c-0.1,0.1-0.2,0.2-0.3,0.3c-0.1,0.1-0.2,0.2-0.4,0.3c-0.1,0.1-0.2,0.1-0.3,0.2
	c-0.2,0.2-0.4,0.3-0.6,0.5c0,0-0.1,0.1-0.1,0.1c-0.2,0.2-0.5,0.4-0.7,0.6c-0.1,0.1-0.1,0.1-0.2,0.2c-0.2,0.1-0.3,0.3-0.5,0.5
	c-0.1,0.1-0.2,0.2-0.3,0.2c-0.2,0.1-0.3,0.3-0.5,0.4c-0.1,0.1-0.2,0.2-0.3,0.3c-0.2,0.1-0.3,0.3-0.5,0.4c-0.1,0.1-0.2,0.2-0.3,0.3
	c-0.2,0.1-0.3,0.3-0.5,0.4c-0.1,0.1-0.2,0.2-0.3,0.3c-0.2,0.1-0.3,0.3-0.5,0.4c-0.1,0.1-0.2,0.2-0.3,0.3c-0.2,0.1-0.3,0.3-0.5,0.5
	c-0.1,0.1-0.2,0.2-0.3,0.3c-0.2,0.2-0.3,0.3-0.5,0.5c-0.1,0.1-0.2,0.2-0.3,0.3c-0.2,0.2-0.3,0.3-0.5,0.5c-0.1,0.1-0.2,0.2-0.3,0.3
	c-0.2,0.2-0.3,0.3-0.5,0.5c-0.1,0.1-0.2,0.2-0.3,0.3c-0.2,0.2-0.4,0.4-0.6,0.6c-0.1,0.1-0.2,0.2-0.3,0.3c-0.3,0.3-0.6,0.6-0.8,0.9
	c-2.2,2.3-5.2,5.3-8.4,8.5c-7.5,7.5-16.9,16.9-18.5,20.5c-0.4,0.8-0.7,1.8-1,2.8c-0.4,1.4-0.6,3-0.6,4.6c0,0.2,0,0.5,0,0.7
	c0.2,3.2,1.5,6.4,4.9,8.8c0.2,0.2,0.5,0.3,0.8,0.5c9,5.5,15.9,0,18.4-2.6c0.1-0.1,0.2-0.2,0.4-0.4c0,0,0.1-0.1,0.1-0.1
	c0.1-0.1,0.2-0.2,0.3-0.3c0.1-0.1,0.2-0.2,0.2-0.2c0.1-0.1,0.1-0.1,0.2-0.2c0.3-0.3,0.6-0.6,0.9-0.9c0.1-0.1,0.1-0.1,0.2-0.2
	c0.1-0.1,0.2-0.2,0.4-0.4c0.1-0.1,0.1-0.1,0.2-0.2c0.1-0.1,0.3-0.3,0.4-0.4c0.1-0.1,0.1-0.1,0.2-0.2c0.1-0.1,0.3-0.3,0.4-0.4
	c0.1-0.1,0.1-0.1,0.2-0.2c0.2-0.2,0.3-0.3,0.5-0.5c0.1-0.1,0.1-0.1,0.2-0.2c0.1-0.2,0.3-0.3,0.5-0.5c0.1-0.1,0.2-0.2,0.3-0.3
	c0.1-0.1,0.3-0.3,0.5-0.5c0.1-0.1,0.2-0.2,0.3-0.3c0.2-0.2,0.3-0.3,0.5-0.5c0.1-0.1,0.2-0.2,0.3-0.3c0.2-0.2,0.4-0.3,0.5-0.5
	c0.1-0.1,0.2-0.2,0.2-0.2c0.2-0.2,0.3-0.3,0.5-0.5c0.1-0.1,0.2-0.2,0.3-0.3c0.1-0.1,0.3-0.3,0.4-0.4c0.1-0.1,0.3-0.3,0.4-0.4
	c0.1-0.1,0.2-0.2,0.4-0.4c0.2-0.2,0.3-0.3,0.5-0.5c0.1-0.1,0.3-0.3,0.4-0.4c0.1-0.1,0.3-0.3,0.4-0.4c0.1-0.1,0.3-0.3,0.4-0.4
	c0.1-0.1,0.3-0.3,0.4-0.4c0.1-0.1,0.3-0.3,0.4-0.4c0.1-0.1,0.3-0.3,0.4-0.4c0.1-0.1,0.3-0.3,0.4-0.4c0.2-0.2,0.3-0.3,0.5-0.5
	c0.1-0.1,0.3-0.2,0.4-0.4c0.2-0.2,0.3-0.3,0.5-0.5c0.1-0.1,0.2-0.2,0.4-0.4c0.2-0.2,0.3-0.3,0.5-0.5c0.1-0.1,0.2-0.2,0.3-0.3
	c0.2-0.2,0.3-0.3,0.5-0.5c0.1-0.1,0.3-0.3,0.4-0.4c0.2-0.2,0.3-0.3,0.5-0.5c0.1-0.1,0.3-0.2,0.4-0.4c0.2-0.2,0.3-0.3,0.5-0.5
	c0.1-0.1,0.2-0.2,0.4-0.3c0.2-0.2,0.3-0.3,0.5-0.5c0.1-0.1,0.2-0.2,0.4-0.4c0.2-0.1,0.3-0.3,0.5-0.4c0.1-0.1,0.2-0.2,0.4-0.3
	c0.2-0.2,0.3-0.3,0.5-0.4c0.1-0.1,0.2-0.2,0.3-0.3c0.2-0.1,0.3-0.3,0.4-0.4c0.1-0.1,0.2-0.2,0.3-0.3c0.1-0.1,0.3-0.3,0.4-0.4
	c0.1-0.1,0.2-0.2,0.3-0.3c0.1-0.1,0.3-0.3,0.4-0.4c0.1-0.1,0.2-0.2,0.3-0.3c0.1-0.1,0.2-0.2,0.3-0.3c0-0.5,0-1.1,0-1.6
	c0,0-0.1,0.1-0.1,0.1L777,181.7z"/>
<path class="st9" d="M753.8,166.3l-1.2-1.1c-0.5,0.6-1.1,1.1-1.6,1.6l1.1,1.2C752.7,167.4,753.2,166.9,753.8,166.3"/>
<path class="st9" d="M750.5,169.5l-1.1-1.2c-0.5,0.5-1.1,1-1.7,1.5l1.1,1.2C749.4,170.6,750,170.1,750.5,169.5"/>
<path class="st9" d="M756.9,163l-1.2-1.1c-0.5,0.5-1,1.1-1.5,1.7l1.2,1.1C755.9,164.1,756.4,163.6,756.9,163"/>
<path class="st9" d="M760,159.7l-1.2-1.1c-0.5,0.5-0.9,1-1.6,1.7l1.2,1.1C758.9,160.8,759.4,160.2,760,159.7"/>
<path class="st9" d="M766.5,153.6l-1.1-1.2c-0.6,0.5-1.1,1-1.7,1.5l1.1,1.2C765.4,154.6,766,154.1,766.5,153.6"/>
<path class="st9" d="M763.1,156.6l-1.1-1.2c-0.6,0.5-1.1,1-1.7,1.6l1.1,1.2C762.1,157.6,762.6,157.1,763.1,156.6"/>
<path class="st9" d="M732,182.8l-0.8-1.4c-0.6,0.4-1.3,0.7-2,1.1l0.8,1.4C730.7,183.5,731.4,183.2,732,182.8"/>
<path class="st9" d="M704.1,191.5c0.9,0.2,1.6,0.4,2.3,0.5l0.3-1.6c-0.6-0.1-1.3-0.2-2.2-0.4L704.1,191.5z"/>
<path class="st9" d="M713.1,190.1l0.4,1.6c0.7-0.2,1.4-0.4,2.2-0.7l-0.6-1.5C714.4,189.7,713.7,189.9,713.1,190.1"/>
<path class="st9" d="M708.8,190.6l0,1.6c0.1,0,0.3,0,0.4,0c0.7,0,1.3,0,2-0.1l-0.2-1.6C710.2,190.6,709.5,190.6,708.8,190.6"/>
<path class="st9" d="M747.1,172.6l-1-1.2c-0.6,0.5-1.2,0.9-1.7,1.4l1,1.3C745.9,173.5,746.5,173,747.1,172.6"/>
<path class="st9" d="M739.8,178l-0.9-1.3c-0.6,0.4-1.2,0.8-1.9,1.2l0.9,1.4C738.5,178.8,739.2,178.4,739.8,178"/>
<path class="st9" d="M717.2,188.6l0.6,1.5c0.7-0.3,1.3-0.6,2.1-0.9l-0.7-1.5C718.5,188,717.8,188.3,717.2,188.6"/>
<path class="st9" d="M743.5,175.4l-1-1.3c-0.6,0.4-1.2,0.9-1.8,1.3l0.9,1.3C742.3,176.3,742.9,175.8,743.5,175.4"/>
<path class="st9" d="M735.9,180.5l-0.8-1.4c-0.6,0.4-1.3,0.8-1.9,1.2l0.8,1.4C734.7,181.3,735.3,180.9,735.9,180.5"/>
<path class="st9" d="M721.3,186.7l0.7,1.5c0.6-0.3,1.3-0.7,2-1l-0.7-1.4C722.6,186,721.9,186.4,721.3,186.7"/>
<path class="st9" d="M725.6,184.5l-0.3,0.1l0.8,1.4l0.3-0.1c0.6-0.3,1.2-0.6,1.7-0.9l-0.8-1.4C726.7,183.9,726.2,184.2,725.6,184.5"
	/>
<path class="st9" d="M705.4,203.7c0.6,0.5,1.1,1,1.7,1.5l1.1-1.2c-0.5-0.5-1.1-1-1.7-1.5L705.4,203.7z"/>
<path class="st9" d="M717.7,213.9c-0.5-0.6-1-1.2-1.5-1.8l-1.2,1.1c0.5,0.6,1,1.1,1.4,1.7L717.7,213.9z"/>
<path class="st9" d="M710.3,208.4l1.1-1.2c-0.3-0.3-0.6-0.6-0.9-0.9c-0.2-0.2-0.5-0.4-0.7-0.7l-1.1,1.2c0.2,0.2,0.5,0.5,0.7,0.7
	C709.6,207.7,709.9,208,710.3,208.4"/>
<path class="st9" d="M704.8,201c-0.6-0.5-1.2-1-1.7-1.5l-1.1,1.2c0.5,0.5,1.1,1,1.7,1.5L704.8,201z"/>
<path class="st9" d="M713.5,211.5l1.2-1.1c-0.5-0.5-1-1.1-1.6-1.6l-1.1,1.1C712.5,210.5,713,211,713.5,211.5"/>
<path class="st9" d="M705.4,212c0.5,0.6,1,1.1,1.5,1.7l1.2-1c-0.5-0.6-1-1.2-1.5-1.7L705.4,212z"/>
<path class="st9" d="M703.4,207.6l-1.1,1.2c0.5,0.5,1.1,1,1.6,1.6l1.2-1.1C704.5,208.6,703.9,208.1,703.4,207.6"/>
<path class="st9" d="M778.2,184.4c-0.1,0.1-0.2,0.2-0.3,0.3c-0.1,0.1-0.2,0.2-0.3,0.3c-0.1,0.1-0.3,0.3-0.4,0.4
	c-0.1,0.1-0.2,0.2-0.3,0.3c-0.1,0.1-0.3,0.3-0.4,0.4c-0.1,0.1-0.2,0.2-0.3,0.3c-0.1,0.1-0.3,0.3-0.4,0.4c-0.1,0.1-0.2,0.2-0.3,0.3
	c-0.2,0.1-0.3,0.3-0.5,0.4c-0.1,0.1-0.2,0.2-0.4,0.3c-0.2,0.1-0.3,0.3-0.5,0.4c-0.1,0.1-0.2,0.2-0.4,0.4c-0.2,0.2-0.3,0.3-0.5,0.5
	c-0.1,0.1-0.2,0.2-0.4,0.3c-0.2,0.2-0.3,0.3-0.5,0.5c-0.1,0.1-0.3,0.2-0.4,0.4c-0.2,0.2-0.3,0.3-0.5,0.5c-0.1,0.1-0.3,0.3-0.4,0.4
	c-0.2,0.2-0.3,0.3-0.5,0.5c-0.1,0.1-0.2,0.2-0.3,0.3c-0.2,0.2-0.3,0.3-0.5,0.5c-0.1,0.1-0.2,0.2-0.4,0.4c-0.2,0.2-0.3,0.3-0.5,0.5
	c-0.1,0.1-0.3,0.2-0.4,0.4c-0.2,0.2-0.3,0.3-0.5,0.5c-0.1,0.1-0.3,0.3-0.4,0.4c-0.1,0.1-0.3,0.3-0.4,0.4c-0.1,0.1-0.3,0.3-0.4,0.4
	c-0.1,0.1-0.3,0.3-0.4,0.4c-0.1,0.1-0.3,0.3-0.4,0.4c-0.1,0.1-0.3,0.3-0.4,0.4c-0.1,0.1-0.3,0.3-0.4,0.4c-0.2,0.2-0.3,0.3-0.5,0.5
	c-0.1,0.1-0.2,0.2-0.4,0.4c-0.1,0.1-0.3,0.3-0.4,0.4c-0.1,0.1-0.3,0.3-0.4,0.4c-0.1,0.1-0.2,0.2-0.3,0.3c-0.2,0.2-0.3,0.3-0.5,0.5
	c-0.1,0.1-0.2,0.2-0.2,0.2c-0.2,0.2-0.4,0.4-0.5,0.5c-0.1,0.1-0.2,0.2-0.3,0.3c-0.2,0.2-0.3,0.3-0.5,0.5c-0.1,0.1-0.2,0.2-0.3,0.3
	c-0.2,0.2-0.3,0.3-0.5,0.5c-0.1,0.1-0.2,0.2-0.3,0.3c-0.2,0.2-0.3,0.3-0.5,0.5c-0.1,0.1-0.1,0.1-0.2,0.2c-0.2,0.2-0.3,0.3-0.5,0.5
	c-0.1,0.1-0.1,0.1-0.2,0.2c-0.1,0.1-0.3,0.3-0.4,0.4c-0.1,0.1-0.1,0.1-0.2,0.2c-0.1,0.1-0.3,0.3-0.4,0.4c-0.1,0.1-0.1,0.1-0.2,0.2
	c-0.1,0.1-0.2,0.2-0.4,0.4c-0.1,0.1-0.1,0.1-0.2,0.2c-0.3,0.3-0.6,0.6-0.9,0.9c-0.1,0.1-0.1,0.1-0.2,0.2c-0.1,0.1-0.2,0.2-0.2,0.2
	c-0.1,0.1-0.2,0.2-0.3,0.3c0,0-0.1,0.1-0.1,0.1c-0.1,0.1-0.2,0.3-0.4,0.4c-2.5,2.6-9.4,8.1-18.4,2.6c-0.3-0.2-0.5-0.3-0.8-0.5
	c-3.4-2.4-4.6-5.6-4.9-8.8c0-0.2,0-0.5,0-0.7c0-1.6,0.2-3.2,0.6-4.6c0.3-1,0.6-2,1-2.8c1.7-3.6,11-13,18.5-20.5
	c3.2-3.2,6.2-6.2,8.4-8.5c0.3-0.3,0.5-0.6,0.8-0.9c0.1-0.1,0.2-0.2,0.3-0.3c0.2-0.2,0.4-0.4,0.6-0.6c0.1-0.1,0.2-0.2,0.3-0.3
	c0.2-0.2,0.3-0.3,0.5-0.5c0.1-0.1,0.2-0.2,0.3-0.3c0.2-0.2,0.3-0.3,0.5-0.5c0.1-0.1,0.2-0.2,0.3-0.3c0.2-0.2,0.3-0.3,0.5-0.5
	c0.1-0.1,0.2-0.2,0.3-0.3c0.2-0.2,0.3-0.3,0.5-0.5c0.1-0.1,0.2-0.2,0.3-0.3c0.2-0.1,0.3-0.3,0.5-0.4c0.1-0.1,0.2-0.2,0.3-0.3
	c0.2-0.1,0.3-0.3,0.5-0.4c0.1-0.1,0.2-0.2,0.3-0.3c0.2-0.1,0.3-0.3,0.5-0.4c0.1-0.1,0.2-0.2,0.3-0.3c0.2-0.1,0.3-0.3,0.5-0.4
	c0.1-0.1,0.2-0.2,0.3-0.2c0.2-0.2,0.3-0.3,0.5-0.5c0.1-0.1,0.1-0.1,0.2-0.2c0.2-0.2,0.5-0.4,0.7-0.6c0,0,0.1-0.1,0.1-0.1
	c0.2-0.2,0.4-0.3,0.6-0.5c0.1-0.1,0.2-0.2,0.3-0.2c0.1-0.1,0.3-0.2,0.4-0.3c0.1-0.1,0.2-0.2,0.3-0.3c0.1-0.1,0.2-0.1,0.2-0.2
	c0.2,0.3,0.3,0.7,0.5,1c-0.5,0.4-1,0.8-1.5,1.2l1,1.2c0.4-0.4,0.8-0.7,1.2-1c3.8,7.9,5.9,16.6,6,25.4c-0.4,0.4-0.8,0.8-1.2,1.2
	l1.1,1.2c0,0,0.1-0.1,0.1-0.1C778.3,183.3,778.2,183.8,778.2,184.4 M764.6,220c-8,9.7-18.5,16.7-30.5,20.1c-0.1-0.3-0.1-0.6-0.2-0.9
	c-0.7-3-1.6-7.5-3.1-13.3c-2.9-11.4-8.2-15.7-17-22.9l-1.2-1c-7.5-6.1-11-9.9-12.1-11.2c0,0,0,0,0,0c0,0,0,0,0,0c0,0,0,0,0.1,0
	c0,0,0,0,0,0c0,0,0.1,0,0.1,0c0,0,0,0,0,0c0,0,0.1,0,0.1,0c0,0,0,0,0,0c0,0,0,0,0.1,0c0,0,0,0,0,0c0,0,0,0,0,0
	c0.3,0.1,0.7,0.2,1,0.3l0.1-0.2l1.3,0.1l-1.1-1l0.1-0.5c-0.3-0.1-0.6-0.2-0.9-0.2c-0.7-0.7-3.7-3.9-3.7-7.6c0-5.2,3.3-9.3,9.9-12.1
	c2.4-1,7.1-0.5,10.2-0.2c1.5,0.2,2.6,0.3,3.3,0.2c2.3-0.2,28.9-14.1,36.6-18.6c0.3-0.2,0.5-0.3,0.8-0.5c0.1,0,0.2-0.1,0.2-0.1
	c0.2-0.1,0.4-0.2,0.5-0.3c0.1-0.1,0.2-0.1,0.3-0.2c0.2-0.1,0.3-0.2,0.5-0.3c0.1-0.1,0.2-0.1,0.3-0.2c0.1-0.1,0.3-0.2,0.4-0.3
	c0.1-0.1,0.2-0.1,0.3-0.2c0.1-0.1,0.3-0.2,0.4-0.2c0.1,0,0.2-0.1,0.3-0.1c0.1-0.1,0.3-0.2,0.4-0.2c0.1,0,0.2-0.1,0.2-0.1
	c0.1-0.1,0.3-0.2,0.4-0.2c0.1,0,0.1-0.1,0.2-0.1c0.2-0.1,0.3-0.2,0.5-0.3c0,0,0,0,0.1,0c0.2-0.1,0.4-0.2,0.6-0.3
	c0,0,0.1-0.1,0.1-0.1c0.1-0.1,0.3-0.2,0.4-0.2c0.1,0,0.1-0.1,0.2-0.1c0.1-0.1,0.2-0.1,0.3-0.2c0.1,0,0.1-0.1,0.2-0.1
	c0.1,0,0.2-0.1,0.2-0.1c0.1,0,0.2-0.1,0.2-0.1c0.1,0,0.1-0.1,0.2-0.1c0.1-0.1,0.2-0.1,0.3-0.2c0,0,0.1,0,0.1-0.1
	c0.1-0.1,0.2-0.1,0.3-0.2c0,0,0,0,0,0c1,1.4,2,2.9,2.9,4.4l-0.6-0.7c-0.5,0.5-1.1,1-1.7,1.5l1,1.2c0.6-0.5,1.1-0.9,1.6-1.4
	c0.1,0.2,0.2,0.3,0.3,0.5c0,0,0,0-0.1,0c-0.1,0.1-0.1,0.1-0.2,0.2c-0.1,0.1-0.3,0.2-0.4,0.4c-0.1,0.1-0.2,0.1-0.2,0.2
	c-0.1,0.1-0.3,0.2-0.4,0.4c-0.1,0.1-0.2,0.2-0.3,0.2c-0.1,0.1-0.3,0.2-0.4,0.4c-0.1,0.1-0.2,0.2-0.3,0.3c-0.1,0.1-0.3,0.2-0.4,0.4
	c-0.1,0.1-0.2,0.2-0.3,0.3c-0.1,0.1-0.3,0.3-0.4,0.4c-0.1,0.1-0.2,0.2-0.3,0.3c-0.1,0.1-0.3,0.3-0.4,0.4c-0.1,0.1-0.2,0.2-0.3,0.3
	c-0.1,0.1-0.3,0.3-0.4,0.4c-0.1,0.1-0.2,0.2-0.3,0.3c-0.2,0.1-0.3,0.3-0.5,0.4c-0.1,0.1-0.2,0.2-0.3,0.3c-0.2,0.1-0.3,0.3-0.5,0.4
	c-0.1,0.1-0.2,0.2-0.3,0.3c-0.2,0.1-0.3,0.3-0.5,0.5c-0.1,0.1-0.2,0.2-0.4,0.3c-0.2,0.2-0.3,0.3-0.5,0.5c-0.1,0.1-0.2,0.2-0.3,0.3
	c-0.2,0.2-0.3,0.3-0.5,0.5c-0.1,0.1-0.2,0.2-0.3,0.3c-0.2,0.2-0.3,0.4-0.5,0.5c-0.1,0.1-0.2,0.2-0.3,0.3c-0.2,0.2-0.4,0.4-0.6,0.6
	c-0.1,0.1-0.2,0.2-0.3,0.3c-0.3,0.3-0.6,0.6-0.8,0.9c-2.2,2.3-5.2,5.3-8.3,8.5c-8,8-17.1,17.1-18.8,20.9c-1.4,3.1-2,6.7-1.6,9.9
	c0.6,4.1,2.7,7.3,6.3,9.5c0.2,0.1,0.4,0.2,0.6,0.4c0.1,0,0.1,0.1,0.2,0.1c0.1,0.1,0.3,0.2,0.4,0.2c0.1,0,0.1,0.1,0.2,0.1
	c0.1,0.1,0.3,0.1,0.4,0.2c0.1,0,0.1,0.1,0.2,0.1c0.2,0.1,0.4,0.2,0.5,0.2c0,0,0.1,0,0.1,0c0.2,0.1,0.4,0.2,0.6,0.2
	c0.1,0,0.1,0,0.2,0.1c0.2,0.1,0.3,0.1,0.5,0.2c0.1,0,0.1,0,0.2,0.1c0.1,0,0.3,0.1,0.4,0.1c0.1,0,0.1,0,0.2,0.1
	c0.2,0,0.3,0.1,0.5,0.1c0,0,0.1,0,0.1,0c0.2,0,0.4,0.1,0.6,0.1c0,0,0.1,0,0.1,0c0.2,0,0.3,0.1,0.5,0.1c0.1,0,0.1,0,0.2,0
	c0.1,0,0.3,0,0.4,0c0.1,0,0.1,0,0.2,0c0.2,0,0.3,0,0.5,0c0.1,0,0.1,0,0.2,0c0.2,0,0.4,0,0.6,0c0,0,0,0,0,0c0.2,0,0.5,0,0.7,0
	c0.1,0,0.1,0,0.2,0c0.2,0,0.4,0,0.5,0c0.1,0,0.2,0,0.3,0c0.2,0,0.3,0,0.5-0.1c0.1,0,0.2,0,0.3,0c0.2,0,0.3-0.1,0.5-0.1
	c0.1,0,0.2,0,0.3-0.1c0.2,0,0.4-0.1,0.5-0.1c0.1,0,0.1,0,0.2,0c0.2-0.1,0.5-0.1,0.7-0.2c0,0,0.1,0,0.1-0.1c0.2-0.1,0.4-0.1,0.6-0.2
	c0.1,0,0.2-0.1,0.2-0.1c0.2-0.1,0.3-0.1,0.5-0.2c0.1,0,0.2-0.1,0.3-0.1c0.2-0.1,0.3-0.1,0.5-0.2c0.1,0,0.2-0.1,0.2-0.1
	c0.2-0.1,0.3-0.2,0.5-0.3c0.1,0,0.1-0.1,0.2-0.1c0.2-0.1,0.5-0.3,0.7-0.4c0,0,0.1,0,0.1-0.1c0.2-0.1,0.4-0.3,0.6-0.4
	c0.1-0.1,0.1-0.1,0.2-0.2c0.1-0.1,0.3-0.2,0.4-0.3c0.1-0.1,0.2-0.1,0.2-0.2c0.1-0.1,0.3-0.2,0.4-0.3c0.1-0.1,0.2-0.1,0.2-0.2
	c0.1-0.1,0.3-0.3,0.4-0.4c0.1-0.1,0.1-0.1,0.2-0.2c0.2-0.2,0.4-0.4,0.6-0.6c0.1-0.1,0.2-0.2,0.3-0.4c0,0,0.1-0.1,0.1-0.1
	c0.1-0.1,0.2-0.2,0.3-0.3c0,0,0.1-0.1,0.1-0.1c0.1-0.1,0.2-0.2,0.3-0.3c0,0,0.1-0.1,0.1-0.1c0.1-0.1,0.2-0.2,0.4-0.4
	c0,0,0.1-0.1,0.1-0.1c0.1-0.1,0.2-0.2,0.4-0.4c0.1-0.1,0.1-0.1,0.2-0.2c0.1-0.1,0.3-0.3,0.4-0.4c0,0,0.1-0.1,0.2-0.2
	c0.1-0.1,0.3-0.3,0.4-0.4c0.1-0.1,0.1-0.1,0.2-0.2c0.2-0.2,0.3-0.3,0.5-0.5c0,0,0.1-0.1,0.1-0.1c0.2-0.2,0.4-0.4,0.6-0.6
	c0,0,0.1-0.1,0.1-0.1c0.2-0.2,0.4-0.4,0.6-0.6c0,0,0.1-0.1,0.1-0.1c0.2-0.2,0.4-0.4,0.6-0.6c0,0,0.1-0.1,0.1-0.1
	c0.6-0.6,1.3-1.3,2-2c0.9-0.9,1.7-1.7,2.6-2.6c0.3-0.3,0.6-0.6,1-0.9c0,0,0.1-0.1,0.1-0.1c0.2-0.2,0.5-0.5,0.7-0.7
	c0.1-0.1,0.1-0.1,0.2-0.2c0.2-0.2,0.4-0.4,0.7-0.7c0.1-0.1,0.1-0.1,0.2-0.2c0.2-0.2,0.4-0.4,0.6-0.6c0.1-0.1,0.2-0.2,0.2-0.2
	c0.2-0.2,0.4-0.4,0.6-0.6c0.1-0.1,0.2-0.2,0.3-0.3c0.2-0.2,0.4-0.4,0.5-0.5c0.1-0.1,0.2-0.2,0.3-0.3c0.2-0.2,0.4-0.4,0.6-0.5
	c0.1-0.1,0.2-0.2,0.3-0.3c0.2-0.2,0.4-0.4,0.5-0.5c0.1-0.1,0.2-0.2,0.3-0.3c0.2-0.2,0.3-0.3,0.5-0.5c0.1-0.1,0.2-0.2,0.3-0.3
	c0.2-0.2,0.3-0.3,0.5-0.5c0.1-0.1,0.2-0.2,0.3-0.3c0.2-0.2,0.3-0.3,0.5-0.5c0.1-0.1,0.2-0.2,0.3-0.3c0.2-0.2,0.3-0.3,0.5-0.5
	c0.1-0.1,0.2-0.2,0.3-0.3c0.2-0.2,0.5-0.5,0.7-0.7C777,199,772.4,210.5,764.6,220 M731.9,240.7c-1-5.4-2.8-14.1-4.4-18.2
	c-2.1-5.4-5.6-10.3-10.7-14.8c6.3,5.3,10.1,9.6,12.4,18.7c1.4,5.8,2.4,10.3,3.1,13.2c0.1,0.3,0.1,0.7,0.2,1
	C732.3,240.6,732.1,240.6,731.9,240.7 M729.5,241.2c0-0.1,0-0.1,0-0.2l-1.6,0.4c0,0,0,0.1,0,0.1c-3.5,0.6-7,0.9-10.5,0.9
	c-7.3,0-14.4-1.3-21.2-3.8c0,0,0,0,0,0c0.1,0,0.2-0.1,0.3-0.1c0,0,0,0,0,0c0.1,0,0.2-0.1,0.2-0.1c0,0,0.1,0,0.1,0
	c0.1,0,0.1,0,0.2-0.1c0,0,0,0,0.1,0c0.1,0,0.1,0,0.2-0.1c0,0,0,0,0,0c0.1,0,0.1,0,0.2-0.1c0,0,0,0,0.1,0c0,0,0.1,0,0.1,0
	c0,0,0,0,0,0c0,0,0,0,0.1,0c0,0,0,0,0,0c0,0,0,0,0,0l0.5-0.1l0.1-0.4c0-0.1,0.6-1.7,1.2-4.3c0.1-0.3,0.2-0.6,0.2-1
	c0.1-0.3,0.2-0.7,0.2-1.1c0.5-2.2,1-4.8,1.3-7.6c0.6-5.5,0.2-10.7-1-15c-0.1-0.3-0.2-0.9-0.2-1.6c0.1,0.1,0.2,0.2,0.3,0.3l1.1-1.2
	c-0.7-0.6-1.2-1-1.5-1.2c-0.1-1.7-0.1-3.7-0.1-5.4c0-0.2,0-0.3,0-0.5c0.1,0.1,0.2,0.2,0.3,0.2l1.1-1.2c-0.6-0.5-1.1-1-1.4-1.2
	c0-0.1,0-0.1,0-0.2c0,0,0,0,0,0c1.5,1.5,4.5,4.1,9.9,7.9c8.1,5.6,13.3,11.7,16.1,18.7c1.6,4.1,3.5,13.4,4.3,18
	C730.1,241.1,729.8,241.1,729.5,241.2 M700,193.8c0,0,0-0.1,0-0.1c0-0.1,0-0.1,0-0.2c0,0,0-0.1,0-0.1c0-0.1,0-0.1,0-0.2
	c0,0,0-0.1,0-0.1c0-0.1,0-0.2,0-0.3c0-0.1,0-0.1,0-0.2c1.6,1.8,5.2,5.3,11.6,10.6l1.2,1c0.2,0.1,0.3,0.3,0.5,0.4
	c-0.8-0.6-1.6-1.2-2.4-1.7c-8-5.6-10.4-8.4-10.9-9C700,193.9,700,193.9,700,193.8 M779.9,182.8c0-0.4,0-0.8,0-1.2
	c0-10.5-2.7-20.8-7.7-30l0,0l-0.3-0.6l-0.5-0.8l0,0c-1.1-1.8-2.2-3.6-3.4-5.3l0,0l-0.5-0.7l-0.4-0.6l0,0l-0.6,0.4
	c-0.2,0.1-0.5,0.3-0.8,0.5c-0.2,0.2-0.5,0.3-0.8,0.5c0,0-0.1,0-0.1,0.1c-0.1,0.1-0.2,0.1-0.3,0.2c-0.1,0-0.1,0.1-0.2,0.1
	c-0.1,0.1-0.2,0.1-0.3,0.2c-0.1,0-0.1,0.1-0.2,0.1c-0.1,0.1-0.2,0.1-0.4,0.2c-0.1,0-0.1,0.1-0.2,0.1c-0.1,0.1-0.3,0.2-0.4,0.2
	c-0.1,0-0.1,0.1-0.2,0.1c-0.4,0.2-0.8,0.5-1.2,0.7c0,0-0.1,0-0.1,0.1c-0.2,0.1-0.3,0.2-0.5,0.3c-0.1,0-0.1,0.1-0.2,0.1
	c-0.2,0.1-0.3,0.2-0.5,0.3c-0.1,0-0.1,0.1-0.2,0.1c-0.2,0.1-0.3,0.2-0.5,0.3c-0.1,0-0.2,0.1-0.2,0.1c-0.2,0.1-0.3,0.2-0.5,0.3
	c-0.1,0-0.2,0.1-0.2,0.1c-0.2,0.1-0.4,0.2-0.6,0.3c-0.1,0-0.1,0.1-0.2,0.1c-0.3,0.2-0.5,0.3-0.8,0.5c-9.5,5.4-34,18.1-35.9,18.3
	c-0.5,0-1.7-0.1-3-0.2c-3.5-0.4-8.2-0.9-11,0.3c-0.2,0.1-0.4,0.2-0.7,0.3c-5.2,2.4-8.5,5.6-9.7,9.6c-0.1,0.3-0.2,0.7-0.3,1
	c-0.2,0.9-0.3,1.7-0.3,2.7c0,3.5,2.1,6.5,3.4,7.9c-0.2,0.1-0.3,0.2-0.4,0.4c-0.7,0.7-1,1.8-0.8,3.2c0,0.5,0.1,1.1,0.1,1.9
	c0,0.3,0,0.5,0,0.8c0,1.1,0,2.4,0.1,3.7c0,1.2,0,2.5,0,3.7c0,0.7,0,1.4,0.1,2c0,0.2,0,0.5,0,0.7c0.1,1.4,0.2,2.6,0.4,3.2
	c0.1,0.3,0.1,0.5,0.2,0.8c0.7,2.7,1,5.6,1,8.8c0,0.6,0,1.3,0,1.9c0,1-0.1,1.9-0.2,2.9c-0.7,6.2-2.3,11.6-2.7,13.2
	c-0.1,0-0.2,0-0.3,0.1c0,0-0.1,0-0.1,0c-0.1,0-0.1,0-0.2,0.1c0,0-0.1,0-0.1,0c-0.1,0-0.2,0-0.2,0.1c-0.1,0-0.1,0-0.2,0.1
	c-0.1,0-0.2,0.1-0.2,0.1c-0.1,0-0.1,0-0.2,0.1c-0.1,0-0.2,0.1-0.3,0.1c-0.1,0-0.1,0-0.2,0.1c-0.1,0-0.2,0.1-0.3,0.1
	c-0.1,0-0.1,0.1-0.2,0.1c-0.1,0-0.2,0.1-0.3,0.1c-0.1,0-0.1,0.1-0.2,0.1c-0.1,0.1-0.3,0.1-0.4,0.2l-1.4,0.8l0,0l1.5,0.6c0,0,0,0,0,0
	l0.4,0.1l0,0c7.4,3,15.2,4.5,23.2,4.5c1.2,0,2.3,0,3.5-0.1c0.4,0,0.8,0,1.2-0.1c2.1-0.2,4.1-0.4,6.2-0.8c0.5-0.1,1.1-0.2,1.6-0.3
	c0.2-0.1,0.5-0.1,0.7-0.2l0,0l0.8-0.2c0,0,0,0,0,0l0.7-0.2l0,0c0.2-0.1,0.4-0.1,0.6-0.2l0,0l0.8-0.2c0,0,0,0,0,0l0.7-0.2l0,0
	c12.4-3.5,23.2-10.6,31.4-20.6c8.4-10.3,13.2-22.7,14-36l0,0l0-0.3L779.9,182.8L779.9,182.8z"/>
<path class="st9" d="M734.4,197.6l-1.6,0c0,0.7,0.1,1.4,0.3,2.4l1.6-0.3C734.4,198.9,734.4,198.2,734.4,197.6"/>
<path class="st9" d="M743.5,210.1l-0.2,1.6c0.3,0,0.7,0.1,1,0.1c0.5,0,1,0,1.5-0.1l-0.3-1.6C744.9,210.2,744.2,210.2,743.5,210.1"/>
<path class="st9" d="M747.3,209.4l0.8,1.4c0.6-0.4,1.2-0.8,1.9-1.4l-1-1.3C748.4,208.6,747.8,209.1,747.3,209.4"/>
<path class="st9" d="M738.7,210.1c0.7,0.4,1.4,0.8,2.2,1.1l0.6-1.5c-0.6-0.2-1.3-0.6-1.9-0.9L738.7,210.1z"/>
<path class="st9" d="M735.3,206.7c0.5,0.7,1,1.3,1.6,1.8l1.1-1.2c-0.5-0.5-1-1-1.4-1.6L735.3,206.7z"/>
<path class="st9" d="M740.9,186.7l-1.2-1.1c-0.5,0.6-1.1,1.2-1.5,1.7l1.2,1.1C739.8,187.9,740.3,187.3,740.9,186.7"/>
<path class="st9" d="M735.2,202.5c0-0.2-0.1-0.4-0.1-0.6l-1.6,0.3c0,0.2,0.1,0.4,0.1,0.6c0.1,0.6,0.3,1.2,0.5,1.7l1.5-0.6
	C735.4,203.5,735.3,203,735.2,202.5"/>
<path class="st9" d="M750.8,206.7l1.1,1.2c0.5-0.5,1.1-1,1.7-1.5l-1.1-1.2C751.9,205.7,751.3,206.3,750.8,206.7"/>
<path class="st9" d="M770.4,187.9l1.1,1.2c0.5-0.5,1.1-1,1.7-1.5l-1.1-1.2C771.5,186.9,771,187.4,770.4,187.9"/>
<path class="st9" d="M735.5,193.7l-1.4-0.8c-0.4,0.8-0.7,1.5-0.9,2.2l1.6,0.5C734.8,195,735.1,194.4,735.5,193.7"/>
<path class="st9" d="M767.1,191l1.1,1.2c0.6-0.5,1.1-1,1.6-1.5l-1.1-1.2C768.2,190,767.7,190.5,767.1,191"/>
<path class="st9" d="M773.7,184.8l1.1,1.2c0.5-0.5,1.1-1,1.7-1.6l-1.1-1.2C774.8,183.8,774.3,184.3,773.7,184.8"/>
<path class="st9" d="M754.1,203.7l1.1,1.2c0.5-0.5,1.1-1,1.6-1.6l-1.1-1.2C755.2,202.6,754.7,203.2,754.1,203.7"/>
<path class="st9" d="M757.4,200.5l1.1,1.2c0.5-0.5,1.1-1.1,1.6-1.6l-1.1-1.2C758.4,199.5,757.9,200,757.4,200.5"/>
<path class="st9" d="M762.8,163.8l-1.1-1.1c-0.5,0.5-1.1,1.1-1.6,1.6l1.2,1.1C761.8,164.9,762.3,164.4,762.8,163.8"/>
<path class="st9" d="M760.6,197.3l1.1,1.1c0.5-0.5,1.1-1.1,1.6-1.6l-1.1-1.2C761.7,196.3,761.1,196.8,760.6,197.3"/>
<path class="st9" d="M763.8,194.2l1.1,1.2c0.5-0.5,1.1-1.1,1.6-1.6l-1.1-1.2C764.9,193.1,764.4,193.6,763.8,194.2"/>
<path class="st9" d="M769.3,157.6l-1.1-1.2c-0.5,0.5-1.1,1-1.7,1.5l1.1,1.2C768.2,158.6,768.8,158,769.3,157.6"/>
<path class="st9" d="M737.9,190.1l-1.3-1c-0.5,0.6-1,1.3-1.4,1.9l1.3,0.9C737,191.3,737.4,190.7,737.9,190.1"/>
<path class="st9" d="M759.7,167.1l-1.2-1.1c-0.5,0.5-1,1.1-1.6,1.6l1.2,1.1C758.6,168.2,759.1,167.6,759.7,167.1"/>
<path class="st9" d="M756.5,170.3l-1.2-1.1c-0.5,0.5-1,1.1-1.6,1.6l1.2,1.1C755.5,171.4,756,170.9,756.5,170.3"/>
<path class="st9" d="M766,160.7l-1.1-1.2c-0.5,0.5-1.1,1-1.6,1.6l1.1,1.1C765,161.7,765.5,161.2,766,160.7"/>
<path class="st9" d="M743,184.5c0.3-0.3,0.6-0.7,1-1l-1.2-1.1c-0.3,0.3-0.6,0.7-1,1c-0.2,0.2-0.4,0.4-0.6,0.6l1.2,1.1
	C742.6,184.9,742.8,184.7,743,184.5"/>
<rect x="750.9" y="173.1" transform="matrix(0.6873 -0.7264 0.7264 0.6873 108.8428 600.631)" class="st9" width="2.3" height="1.6"/>
<path class="st9" d="M747.2,180.2l-1.2-1.1c-0.5,0.6-1.1,1.1-1.6,1.6l1.2,1.1C746.1,181.3,746.6,180.8,747.2,180.2"/>
<path class="st9" d="M750.3,176.9l-1.2-1.1c-0.5,0.6-1,1.1-1.6,1.6l1.2,1.1C749.2,178,749.8,177.5,750.3,176.9"/>
<path class="st9" d="M750.1,199.8c-4.2,0-7.5-3.4-7.5-7.5c0-4.1,3.4-7.5,7.5-7.5c4.2,0,7.5,3.4,7.5,7.5
	C757.6,196.4,754.2,199.8,750.1,199.8 M750.1,183.1c-5,0-9.1,4.1-9.1,9.1c0,5,4.1,9.1,9.1,9.1s9.1-4.1,9.1-9.1
	C759.2,187.2,755.1,183.1,750.1,183.1"/>
<path class="st9" d="M750.1,195.5c-1.8,0-3.2-1.5-3.2-3.2c0-1.8,1.5-3.2,3.2-3.2s3.2,1.5,3.2,3.2C753.3,194,751.8,195.5,750.1,195.5
	 M750.1,187.4c-2.7,0-4.9,2.2-4.9,4.9c0,2.7,2.2,4.9,4.9,4.9s4.9-2.2,4.9-4.9C754.9,189.6,752.7,187.4,750.1,187.4"/>
<defs>
	<filter id="Adobe_OpacityMaskFilter_2_" filterUnits="userSpaceOnUse" x="610.7" y="348.1" width="224.3" height="224.3">
		<feColorMatrix  type="matrix" values="1 0 0 0 0  0 1 0 0 0  0 0 1 0 0  0 0 0 1 0"/>
	</filter>
</defs>
<mask maskUnits="userSpaceOnUse" x="610.7" y="348.1" width="224.3" height="224.3" id="SVGID_9_">
	<g class="st10">
		
			<linearGradient id="SVGID_10_" gradientUnits="userSpaceOnUse" x1="-227.255" y1="5102.623" x2="-226.1324" y2="5102.623" gradientTransform="matrix(41.0053 12.6933 12.6933 -41.0053 -54716.7539 212540.8594)">
			<stop  offset="0" style="stop-color:#FFFFFF"/>
			<stop  offset="1" style="stop-color:#000000"/>
		</linearGradient>
		<polygon class="st11" points="259.3,-5468.2 4198.7,-4248.7 953.9,6233.2 -2985.5,5013.8 		"/>
	</g>
</mask>
<g class="st12">
	<g>
		<defs>
			<rect id="SVGID_11_" x="610.7" y="348.1" width="224.3" height="224.3"/>
		</defs>
		<clipPath id="SVGID_12_">
			<use xlink:href="#SVGID_11_"  style="overflow:visible;"/>
		</clipPath>
		<path class="st13" d="M746.3,562.1l-1.6-0.8c-0.6-0.3-58.2-27.7-80.4-41.6c-29.6-18.5-38.7-57.7-20.2-87.3
			c13.8-22.1,40.1-33.5,65.6-28.7c20.8-15.6,49.4-16.8,71.6-3l0,0c29.6,18.5,38.7,57.7,20.2,87.3c-13.9,22.2-53.6,72.1-54,72.6
			L746.3,562.1z M698,407.1c-20,0-39.2,10.3-50,27.7c-17.2,27.5-8.8,63.9,18.7,81.1c19.9,12.4,68.8,36,78.3,40.5
			c6.6-8.3,40.2-50.9,52.6-70.8c8.3-13.3,11-29.1,7.4-44.4c-3.5-15.3-12.8-28.3-26.2-36.7c-20.8-13-47.8-11.7-67.2,3.4l-0.8,0.6
			l-1-0.2C705.9,407.5,702,407.1,698,407.1z"/>
	</g>
</g>
<defs>
	<filter id="Adobe_OpacityMaskFilter_3_" filterUnits="userSpaceOnUse" x="-4.4" y="475.4" width="240.2" height="240.2">
		<feColorMatrix  type="matrix" values="1 0 0 0 0  0 1 0 0 0  0 0 1 0 0  0 0 0 1 0"/>
	</filter>
</defs>
<mask maskUnits="userSpaceOnUse" x="-4.4" y="475.4" width="240.2" height="240.2" id="SVGID_13_">
	<g class="st14">
		
			<linearGradient id="SVGID_14_" gradientUnits="userSpaceOnUse" x1="-235.0762" y1="5102.1875" x2="-233.9536" y2="5102.1875" gradientTransform="matrix(49.8297 29.0015 29.0015 -49.8297 -136096.6719 261513.2031)">
			<stop  offset="0" style="stop-color:#FFFFFF"/>
			<stop  offset="1" style="stop-color:#000000"/>
		</linearGradient>
		<polygon class="st15" points="35.7,-5475.4 5544.9,-2268.9 451.5,6482.4 -5057.7,3276 		"/>
	</g>
</mask>
<g class="st16">
	<g>
		<defs>
			<rect id="SVGID_15_" x="-4.4" y="475.4" width="240.2" height="240.2"/>
		</defs>
		<clipPath id="SVGID_16_">
			<use xlink:href="#SVGID_15_"  style="overflow:visible;"/>
		</clipPath>
		<path class="st17" d="M115.7,680.9c-21.9,0-43.7-8.3-60.4-25c-33.3-33.3-33.3-87.5,0-120.8c33.3-33.3,87.5-33.3,120.8,0
			c33.3,33.3,33.3,87.5,0,120.8C159.5,672.6,137.6,680.9,115.7,680.9z M115.7,516.3c-20.3,0-40.6,7.7-56.1,23.2
			c-30.9,30.9-30.9,81.3,0,112.2c30.9,30.9,81.3,30.9,112.2,0c30.9-30.9,30.9-81.3,0-112.2C156.4,524,136.1,516.3,115.7,516.3z"/>
	</g>
</g>
<path class="st4" d="M146.7,642.3c-0.4,0.1-0.9-0.2-1-0.6c-1.9-7.8-7.1-8-7.4-8c-0.3,0-0.6-0.2-0.8-0.5c-1.7-4.6-4.4-7.4-7.8-8.5
	c-2.6-0.8-4.6-0.3-4.6-0.3c-0.4,0.1-0.7-0.1-0.9-0.4c-4.3-7.9-12.3-6.1-12.4-6c-0.2,0.1-0.5,0-0.7-0.1c-0.2-0.1-0.3-0.3-0.3-0.5
	c-2.5-9.3-11.4-8.3-11.8-8.3c-0.2,0-0.5,0-0.7-0.2c-0.2-0.2-0.3-0.4-0.3-0.6c0.3-5.6-5-8.9-5.1-8.9c-0.4-0.2-0.5-0.7-0.3-1.1
	c0.2-0.4,0.7-0.5,1.1-0.3c0,0,0,0,0,0c0.1-0.3,0.3-0.6,0.6-0.6c1.3-0.3,2.6-0.5,3.9-0.6c0.5,0,0.9,0.3,0.9,0.7
	c0.1,0.5-0.3,0.9-0.7,0.9c-1.1,0.1-2.3,0.3-3.5,0.5c1.7,1.4,4.4,4.3,4.6,8.5c3.8-0.1,10.1,1.5,12.5,8.9c2.3-0.3,9.1-0.5,13.2,6.5
	c0.9-0.1,2.7-0.2,4.9,0.5c2.7,0.9,6.3,3.1,8.7,9.1c1.1,0.2,3.7,0.8,5.8,3.6c0.1-0.1,0.2-0.2,0.4-0.2c0.4-0.1,0.9,0.2,1,0.6
	c0.3,1.2,0.6,2.5,0.9,3.8c0,0.1,0,0.3,0,0.4c0.1,0.3,0.2,0.7,0.3,1C147.4,641.8,147.2,642.2,146.7,642.3 M91.1,599.8
	c-1.2,0.4-2.4,0.8-3.6,1.2c-0.3,0.1-0.5,0.1-0.8-0.1c-0.1-0.1-0.2-0.2-0.3-0.4c-0.2-0.4,0-0.9,0.5-1.1c1.2-0.5,2.5-0.9,3.8-1.3
	c0.4-0.1,0.9,0.1,1,0.6C91.8,599.2,91.6,599.6,91.1,599.8 M101.2,596.7c0,0,0.2,0.1,0.4,0.3c0.1-0.4,0.4-0.6,0.8-0.6
	c1.3,0,2.7,0,4,0.2c0.5,0,0.8,0.4,0.7,0.9c0,0.5-0.4,0.8-0.9,0.7c-1.1-0.1-2.3-0.1-3.4-0.2c1.4,1.3,3.1,3.5,3.3,6.5
	c3.2-0.1,8.3,1.4,10.3,7.3c2-0.2,7.5-0.3,10.9,5.4c2-0.2,8-0.1,11.3,7.9c1,0.2,3.2,0.8,4.9,3.1c0,0,0.1,0.1,0.1,0.2
	c0.8,1.1,1.5,2.5,2,4.4c0.1,0.4-0.2,0.9-0.6,1c-0.2,0.1-0.5,0-0.7-0.1c-0.1-0.1-0.2-0.2-0.3-0.4c-0.1,0-0.2-0.1-0.3-0.1
	c-0.1-0.1-0.3-0.2-0.3-0.4c-0.4-1.2-0.8-2.4-1.2-3.5c-1.9-2.5-4.2-2.5-4.2-2.5c-0.3,0-0.6-0.2-0.8-0.5c-3.3-8.8-9.9-7.3-10.2-7.3
	c-0.4,0.1-0.7-0.1-0.9-0.4c-3.5-6.5-9.9-5-10.1-4.9c-0.4,0.1-0.9-0.2-1-0.6c-2-7.7-9.3-6.8-9.6-6.8c-0.2,0-0.5,0-0.7-0.2
	c-0.2-0.2-0.3-0.4-0.3-0.6c0.2-4.5-4.1-7.2-4.1-7.2c-0.4-0.2-0.5-0.7-0.3-1.1C100.3,596.6,100.8,596.5,101.2,596.7 M109.5,597.6
	c0.2-0.3,0.5-0.5,0.9-0.4c1.3,0.3,2.6,0.6,3.9,1c0.4,0.1,0.7,0.6,0.5,1c-0.1,0.4-0.6,0.7-1,0.5c-0.8-0.3-1.7-0.5-2.5-0.7
	c0.9,0.9,1.8,2.4,2,4.2c1.8,0,5.8,0.7,7.3,5.2c1.6-0.2,5.4,0,7.8,3.9c1.3-0.1,4.2,0,6.5,2.9c-0.1-0.3,0-0.7,0.3-1
	c0.4-0.3,0.9-0.2,1.1,0.2c0.8,1.1,1.5,2.2,2.2,3.3c0.2,0.3,0.1,0.7-0.1,1c1.2,0.7,2.4,2.1,3.1,4.6c0.2,0.5,0.4,0.9,0.6,1.4
	c0.2,0.4,0,0.9-0.4,1.1c-0.3,0.1-0.6,0.1-0.8-0.1c-0.1-0.1-0.2-0.2-0.3-0.3c-0.2-0.3-0.3-0.7-0.5-1c-0.1-0.1-0.2-0.2-0.2-0.3
	c0-0.1,0-0.1,0-0.1c-0.3-0.7-0.6-1.3-1-2c-0.1-0.1-0.1-0.3-0.1-0.5c-1.3-1.8-2.9-1.9-3-1.9c-0.3,0-0.6-0.2-0.8-0.5
	c-2.3-6.2-6.8-5.1-7-5.1c-0.4,0.1-0.7-0.1-0.9-0.4c-2.4-4.5-7-3.4-7-3.4c-0.2,0.1-0.5,0-0.7-0.1c-0.2-0.1-0.3-0.3-0.3-0.5
	c-1.4-5.3-6.5-4.7-6.7-4.7c-0.2,0-0.5,0-0.7-0.2c-0.2-0.2-0.3-0.4-0.3-0.6c0.1-3.1-2.8-5-2.9-5c-0.4-0.2-0.5-0.7-0.3-1.1
	C108.7,597.6,109.1,597.5,109.5,597.6 M118,599.5c1.2,0.5,2.4,1.1,3.6,1.8c0.4,0.2,0.5,0.7,0.3,1.1c-0.2,0.4-0.7,0.5-1.1,0.3
	c-1.1-0.6-2.3-1.2-3.5-1.7c-0.1,0-0.1-0.1-0.1-0.1c-0.3-0.2-0.4-0.6-0.3-1C117.1,599.6,117.6,599.4,118,599.5 M125,603.4
	c1.1,0.7,2.2,1.5,3.2,2.4c0.4,0.3,0.4,0.8,0.1,1.2c-0.3,0.3-0.8,0.4-1.1,0.1c0,0,0,0-0.1,0c-1-0.8-2-1.6-3.1-2.3
	c-0.4-0.2-0.5-0.8-0.2-1.1C124.1,603.2,124.7,603.1,125,603.4 M130.1,608.4c0.3-0.3,0.8-0.3,1.2,0c0.9,0.9,1.8,1.9,2.7,2.9
	c0.3,0.3,0.3,0.9-0.1,1.2c-0.3,0.2-0.7,0.3-1,0c-0.1,0-0.1-0.1-0.2-0.1c-0.8-1-1.7-1.9-2.6-2.8C129.7,609.3,129.7,608.8,130.1,608.4
	 M172.9,639.8c6.5-14.1-4.6-22.4-23.2-35.3c-18.5-13-10.5-22.1-23.9-35.9c-13.4-13.8-39.6-21.4-50.2-6.3
	c-8.7,12.5-3.7,28.3,6.5,39.3c0.3-0.2,0.7-0.3,1-0.5c0.4-0.2,0.9,0,1.1,0.4c0.2,0.4,0,0.9-0.4,1.1c-0.2,0.1-0.3,0.2-0.5,0.3
	c4.3,4.3,9.4,7.8,14.7,9.9c26.2,10.4,33.2,22.2,45.5,30.9c0.9,0.6,1.8,1.2,2.8,1.8c-0.1-0.4-0.1-0.8-0.2-1.2
	c-0.1-0.4,0.2-0.9,0.7-0.9c0.4-0.1,0.9,0.2,1,0.7c0.1,0.6,0.2,1.3,0.3,1.9c0,0.2,0,0.4-0.1,0.5C156.2,650.5,167,652.6,172.9,639.8"
	/>
<path class="st9" d="M749.5,154l-1.2-1.1c-0.5,0.6-1.1,1.1-1.6,1.6l1.2,1.1C748.5,155.1,749,154.6,749.5,154"/>
<path class="st9" d="M752.7,150.7l-1.2-1.1c-0.5,0.6-1,1.1-1.6,1.6l1.2,1.1C751.6,151.8,752.1,151.3,752.7,150.7"/>
<path class="st18" d="M723.8,433.4c1.2-0.5,2.4-1,3.5-1.6c0.6-0.3,1.3-0.1,1.6,0.5c0.3,0.6,0.1,1.3-0.5,1.6
	c-1.2,0.6-2.4,1.2-3.7,1.7c-0.1,0.1-0.3,0.1-0.4,0.1c-0.5,0-0.9-0.3-1.1-0.8C722.9,434.3,723.2,433.6,723.8,433.4 M730.5,429.8
	c1-0.7,2-1.5,3.1-2.3c0.5-0.4,1.3-0.3,1.7,0.2c0.4,0.5,0.3,1.3-0.2,1.7c-1.1,0.9-2.2,1.7-3.2,2.4c-0.2,0.1-0.4,0.2-0.7,0.2
	c-0.4,0-0.7-0.2-1-0.5C729.9,430.9,730,430.1,730.5,429.8 M747.9,497.5c0.1-1.2,0.3-2.5,0.5-4c0.1-0.7,0.7-1.1,1.3-1
	c0.7,0.1,1.1,0.7,1,1.3c-0.2,1.4-0.3,2.7-0.5,3.9c-0.1,0.6-0.6,1.1-1.2,1.1c0,0-0.1,0-0.1,0C748.3,498.7,747.8,498.2,747.9,497.5
	 M749,489.6c0.2-1.3,0.4-2.6,0.6-3.9c0.1-0.6,0.7-1.1,1.4-1c0.6,0.1,1.1,0.7,1,1.4c-0.2,1.3-0.4,2.7-0.6,3.9c-0.1,0.6-0.6,1-1.2,1
	c-0.1,0-0.1,0-0.2,0C749.3,490.8,748.9,490.2,749,489.6 M750.3,481.7c0.2-1.3,0.5-2.6,0.7-3.9c0.1-0.6,0.8-1.1,1.4-0.9
	c0.6,0.1,1.1,0.8,0.9,1.4c-0.3,1.3-0.5,2.6-0.7,3.9c-0.1,0.6-0.6,1-1.2,1c-0.1,0-0.1,0-0.2,0C750.6,483,750.1,482.4,750.3,481.7
	 M751.8,473.9c0.3-1.3,0.6-2.6,0.9-3.9c0.2-0.6,0.8-1,1.4-0.9c0.6,0.2,1,0.8,0.9,1.4c-0.3,1.3-0.6,2.6-0.9,3.8
	c-0.1,0.6-0.6,0.9-1.2,0.9c-0.1,0-0.2,0-0.3,0C752.1,475.2,751.7,474.5,751.8,473.9 M753.7,466.1c0.3-1.3,0.7-2.6,1.1-3.9
	c0.2-0.6,0.8-1,1.5-0.8c0.6,0.2,1,0.8,0.8,1.5c-0.4,1.3-0.7,2.5-1,3.8c-0.1,0.5-0.6,0.9-1.1,0.9c-0.1,0-0.2,0-0.3,0
	C753.9,467.4,753.5,466.7,753.7,466.1 M755.8,458.4c0.4-1.3,0.8-2.6,1.3-3.8c0.2-0.6,0.9-0.9,1.5-0.7c0.6,0.2,1,0.9,0.7,1.5
	c-0.4,1.2-0.8,2.5-1.2,3.7c-0.2,0.5-0.6,0.8-1.1,0.8c-0.1,0-0.2,0-0.4-0.1C756,459.7,755.7,459.1,755.8,458.4 M758.5,450.9
	c0.5-1.3,1-2.5,1.5-3.7c0.3-0.6,1-0.9,1.6-0.6s0.9,1,0.6,1.6c-0.5,1.2-1,2.4-1.5,3.6c-0.2,0.5-0.6,0.8-1.1,0.8c-0.1,0-0.3,0-0.4-0.1
	C758.5,452.2,758.2,451.5,758.5,450.9 M711.3,453.7c0,0.1,0,0.3,0,0.4c0,0.1,0,0.2,0,0.3c0,0.2,0,0.5-0.1,0.7c0,0.1,0,0.2,0,0.3
	c0,0.3-0.1,0.6-0.1,0.9c0,0.1,0,0.1,0,0.2c0,0.3-0.1,0.7-0.1,1.1c0,0.1,0,0.1,0,0.2c0,0.4-0.1,0.8-0.1,1.2c0,0.1,0,0.2,0,0.2
	c0,0.4-0.1,0.8-0.1,1.1c0,0.1,0,0.2,0,0.4c-0.1,0.4-0.1,0.8-0.2,1.2c0,0.1,0,0.3-0.1,0.4c-0.1,0.5-0.1,1.1-0.2,1.6
	c-0.1,0.8-0.2,1.7-0.3,2.6c-0.1,0.8-0.2,1.5-0.3,2.3c-0.7,5.5-1.4,11.4-1.4,15.9c0,9.7,0.5,19.3,6.4,20.1c1.6,0.2,3.4,0.3,5.6,0.3
	c2.1,0,4.6-0.1,7.3-0.2c5.5-0.2,12.1-0.5,19.8-0.2c0.1-0.7,0.1-1.8,0.3-3.2c0.1-0.7,0.6-1.1,1.3-1.1c0.7,0.1,1.1,0.6,1.1,1.3
	c-0.1,1.4-0.2,2.4-0.3,3.1c0.4,0,0.8,0,1.2,0.1c1,0.1,1.9,0.1,2.9,0.2c-0.3-1.8-0.4-3.7-0.4-5.8c0-17.7,8.9-43.8,13.5-56
	c-0.5-0.5-1.1-1-1.7-1.5c-0.5,0.9-0.9,1.7-1.3,2.7c-0.2,0.4-0.6,0.7-1.1,0.7c-0.2,0-0.3,0-0.5-0.1c-0.6-0.3-0.8-1-0.6-1.6
	c0.5-1.1,1.1-2.2,1.6-3.2c-7.5-6.1-16-10.7-25.3-13.4c-0.2,0.1-0.4,0.2-0.5,0.2c-0.3,0-0.7-0.1-0.9-0.4c0-0.1-0.1-0.1-0.1-0.2
	c-1.2-0.3-2.5-0.6-3.7-0.9c-1.9,1.4-3.4,2.5-4.5,3.3c-1.9,1.4-5.3,2.6-7.8,3.4c-1.5,0.5-2.6,0.8-3.4,1c0.3,0.6,0.6,1.2,0.7,1.8
	c0.6-0.1,1.5-0.3,2.6-0.5c0.6-0.2,1.3,0.2,1.4,0.9c0.2,0.6-0.2,1.3-0.9,1.4c-1.3,0.3-2.4,0.5-3.1,0.6c-0.1,0.4-0.2,0.8-0.3,1.2
	c-0.5,1.3-1.2,2.8-2,4.5c-1.6,3.3-3.5,7.4-4,10.5C711.3,453.6,711.3,453.7,711.3,453.7"/>
<path class="st18" d="M756.1,505.3c0.1,0,0.2,0,0.4,0c0.4,0,0.7,0.1,1.1,0.1c0.6,0.1,1.1,0.1,1.6,0.2c0.4,0,0.7,0.1,1.1,0.1
	c0.5,0.1,1.1,0.1,1.6,0.2c0.4,0.1,0.7,0.1,1.1,0.2c0.5,0.1,1,0.2,1.6,0.3c0.3,0.1,0.7,0.1,1,0.2c0.5,0.1,1.1,0.2,1.6,0.3
	c0.3,0.1,0.5,0.1,0.8,0.2c0.7,0.1,1.4,0.3,2,0.4c0.1,0,0.2,0,0.3,0.1c0.8,0.2,1.5,0.3,2.3,0.5c0.2,0.1,0.4,0.1,0.6,0.2
	c0.5,0.1,1,0.3,1.5,0.4c0.3,0.1,0.5,0.1,0.8,0.2c0.4,0.1,0.9,0.2,1.3,0.3c0.3,0.1,0.5,0.2,0.8,0.2c0.4,0.1,0.8,0.2,1.2,0.3
	c0.3,0.1,0.5,0.2,0.8,0.2c0.4,0.1,0.7,0.2,1.1,0.3c0.2,0.1,0.5,0.2,0.7,0.2c0.4,0.1,0.7,0.2,1.1,0.3c0.2,0.1,0.4,0.1,0.7,0.2
	c0.4,0.1,0.8,0.3,1.2,0.4c0.1,0,0.3,0.1,0.5,0.1c0.5,0.2,1,0.3,1.5,0.5c0.3,0.1,0.6,0.2,0.9,0.3c0.1,0,0.2,0.1,0.4,0.1
	c1.3-5.5,2-11.2,2-16.9c0-19.1-7.4-37-20.8-50.5c-10.7,28.7-12.9,45.4-12.9,54.3C755.7,502,755.9,503.9,756.1,505.3"/>
<path class="st18" d="M726.8,426.9c0.7-0.5,1.6-1.2,2.7-2c-5.9-1-12.1-1.2-18.1-0.7c-0.3,1.7,0.1,3,1,3.9l0.1,0.1
	c1.1,1,2.1,1.9,3,2.9C717.4,430.6,724.2,428.8,726.8,426.9"/>
<path class="st18" d="M785.5,514.5c-0.2-0.1-0.3-0.1-0.5-0.2c-0.3-0.1-0.7-0.2-1-0.3c-0.2-0.1-0.4-0.1-0.6-0.2
	c-0.3-0.1-0.7-0.2-1-0.3c-0.2-0.1-0.5-0.2-0.7-0.2c-0.3-0.1-0.7-0.2-1-0.3c-0.3-0.1-0.5-0.2-0.8-0.2c-0.3-0.1-0.7-0.2-1.1-0.3
	c-0.3-0.1-0.5-0.2-0.8-0.2c-0.4-0.1-0.7-0.2-1.1-0.3c-0.3-0.1-0.6-0.2-0.9-0.2c-0.4-0.1-0.8-0.2-1.2-0.3c-0.3-0.1-0.6-0.2-0.9-0.2
	c-0.4-0.1-0.9-0.2-1.3-0.3c-0.3-0.1-0.5-0.1-0.8-0.2c-0.5-0.1-1.1-0.3-1.6-0.4c-0.2,0-0.4-0.1-0.6-0.1c-0.8-0.2-1.5-0.3-2.3-0.5
	c-0.2,0-0.4-0.1-0.6-0.1c-0.6-0.1-1.2-0.2-1.9-0.4c-0.3-0.1-0.6-0.1-0.9-0.2c-0.5-0.1-1.1-0.2-1.6-0.3c-0.3-0.1-0.7-0.1-1-0.2
	c-0.5-0.1-1-0.2-1.6-0.2c-0.4,0-0.7-0.1-1.1-0.1c-0.5-0.1-1.1-0.1-1.6-0.2c-0.4,0-0.8-0.1-1.1-0.1c-0.6-0.1-1.2-0.1-1.8-0.2
	c-0.2,0-0.5,0-0.7-0.1c-0.9-0.1-1.8-0.1-2.7-0.2c-7.9-0.4-14.7-0.3-20.5-0.1c-0.9,0-1.8,0.1-2.7,0.1c-5.6,0.2-10,0.4-13.3-0.1
	c-8.4-1.1-8.4-14-8.4-22.5c0-6,1.1-14.4,2-21.1c0.2-1.6,0.4-3.1,0.6-4.4c0,0,0,0,0,0c0.1-0.4,0.1-0.9,0.2-1.3c0,0,0-0.1,0-0.1
	c0-0.4,0.1-0.8,0.1-1.1c0,0,0-0.1,0-0.1c0-0.4,0.1-0.7,0.1-1c0,0,0-0.1,0-0.1c0-0.3,0.1-0.6,0.1-0.9c0,0,0-0.1,0-0.1
	c0-0.3,0-0.5,0-0.8c0,0,0,0,0,0c-0.2-0.3-0.3-0.5-0.5-0.7c-0.1,0.1-0.2,0.4-0.4,0.8c-1.4,3.7-4.8,20.2-5,35.2
	c-0.2,12.3-0.1,23.4,0,28.2c0,1.2,0,2,0,2.4c0,1.1,4.8,9.2,22.2,9.2c8.1,0,13.4-1.6,19.1-3.2c6.7-1.9,13.5-4,25.6-4
	c5.1,0,9.5,0.6,13.9,1.9c1.2-2.8,2.2-5.8,3.1-8.7C786.4,514.8,786,514.6,785.5,514.5"/>
<path class="st9" d="M731.2,431.9c0.2,0,0.5-0.1,0.7-0.2c1-0.7,2.1-1.5,3.2-2.4c0.5-0.4,0.6-1.2,0.2-1.7c-0.4-0.5-1.2-0.6-1.7-0.2
	c-1.1,0.9-2.1,1.7-3.1,2.3c-0.5,0.4-0.7,1.1-0.3,1.7C730.5,431.7,730.8,431.9,731.2,431.9"/>
<path class="st9" d="M724.3,435.7c0.1,0,0.3,0,0.4-0.1c1.3-0.5,2.6-1.1,3.7-1.7c0.6-0.3,0.8-1,0.5-1.6c-0.3-0.6-1-0.8-1.6-0.5
	c-1.1,0.6-2.2,1.1-3.5,1.6c-0.6,0.2-0.9,0.9-0.7,1.5C723.3,435.4,723.8,435.7,724.3,435.7"/>
<path class="st9" d="M783.8,523.7c-4.4-1.3-8.8-1.9-13.9-1.9c-12.1,0-19,2-25.6,4c-5.6,1.7-11,3.2-19.1,3.2
	c-17.4,0-22.2-8.1-22.2-9.2c0-0.4,0-1.2,0-2.4c0-4.7-0.2-15.8,0-28.2c0.2-15,3.6-31.5,5-35.2c0.2-0.4,0.3-0.7,0.4-0.8
	c0.2,0.1,0.3,0.4,0.5,0.7c0,0,0,0,0,0c0,0.2,0,0.5,0,0.8c0,0,0,0.1,0,0.1c0,0.3,0,0.6-0.1,0.9c0,0,0,0.1,0,0.1c0,0.3-0.1,0.7-0.1,1
	c0,0,0,0.1,0,0.1c0,0.4-0.1,0.7-0.1,1.1c0,0,0,0.1,0,0.1c0,0.4-0.1,0.8-0.2,1.3c0,0,0,0,0,0c-0.2,1.4-0.4,2.9-0.6,4.4
	c-0.9,6.7-2,15.1-2,21.1c0,8.5,0,21.3,8.4,22.5c3.3,0.4,7.7,0.3,13.3,0.1c0.9,0,1.8-0.1,2.7-0.1c5.8-0.2,12.6-0.4,20.5,0.1
	c0.9,0,1.8,0.1,2.7,0.2c0.2,0,0.5,0,0.7,0.1c0.6,0.1,1.2,0.1,1.8,0.2c0.4,0,0.8,0.1,1.1,0.1c0.5,0.1,1.1,0.1,1.6,0.2
	c0.4,0,0.7,0.1,1.1,0.1c0.5,0.1,1.1,0.2,1.6,0.2c0.3,0.1,0.7,0.1,1,0.2c0.6,0.1,1.1,0.2,1.6,0.3c0.3,0.1,0.6,0.1,0.9,0.2
	c0.6,0.1,1.3,0.2,1.9,0.4c0.2,0,0.4,0.1,0.6,0.1c0.8,0.2,1.6,0.3,2.3,0.5c0.2,0,0.4,0.1,0.6,0.1c0.6,0.1,1.1,0.3,1.6,0.4
	c0.3,0.1,0.6,0.1,0.8,0.2c0.4,0.1,0.9,0.2,1.3,0.3c0.3,0.1,0.6,0.2,0.9,0.2c0.4,0.1,0.8,0.2,1.2,0.3c0.3,0.1,0.6,0.2,0.9,0.2
	c0.4,0.1,0.8,0.2,1.1,0.3c0.3,0.1,0.5,0.2,0.8,0.2c0.4,0.1,0.7,0.2,1.1,0.3c0.3,0.1,0.5,0.2,0.8,0.2c0.3,0.1,0.7,0.2,1,0.3
	c0.2,0.1,0.5,0.2,0.7,0.2c0.3,0.1,0.7,0.2,1,0.3c0.2,0.1,0.4,0.1,0.6,0.2c0.4,0.1,0.7,0.2,1,0.3c0.2,0.1,0.3,0.1,0.5,0.2
	c0.5,0.2,0.9,0.3,1.3,0.5C786,517.9,785,520.8,783.8,523.7 M715.3,443.1c0.8-1.7,1.6-3.2,2-4.5c0.2-0.4,0.3-0.8,0.3-1.2
	c0.7-0.1,1.8-0.3,3.1-0.6c0.6-0.2,1-0.8,0.9-1.4c-0.2-0.6-0.8-1-1.4-0.9c-1,0.3-1.9,0.4-2.5,0.5c-0.1-0.6-0.4-1.3-0.7-1.8
	c0.8-0.2,2-0.5,3.4-1c2.5-0.8,5.9-2,7.8-3.4c1.1-0.8,2.6-1.9,4.5-3.3c1.3,0.3,2.5,0.6,3.7,0.9c0,0.1,0.1,0.1,0.1,0.2
	c0.2,0.3,0.6,0.4,0.9,0.4c0.2,0,0.4-0.1,0.5-0.2c9.2,2.7,17.8,7.3,25.3,13.4c-0.6,1-1.1,2.1-1.6,3.2c-0.3,0.6,0,1.3,0.6,1.6
	c0.2,0.1,0.3,0.1,0.5,0.1c0.4,0,0.9-0.3,1.1-0.7c0.4-0.9,0.9-1.8,1.3-2.7c0.6,0.5,1.1,1,1.7,1.5c-4.5,12.2-13.5,38.3-13.5,56
	c0,2,0.1,4,0.4,5.8c-1-0.1-1.9-0.1-2.9-0.2c-0.4,0-0.8,0-1.2-0.1c0.1-0.7,0.1-1.7,0.3-3.1c0.1-0.7-0.4-1.2-1.1-1.3
	c-0.7-0.1-1.2,0.4-1.3,1.1c-0.1,1.5-0.2,2.5-0.3,3.2c-7.7-0.3-14.4,0-19.8,0.2c-2.7,0.1-5.2,0.2-7.3,0.2s-4,0-5.6-0.3
	c-5.9-0.8-6.4-10.4-6.4-20.1c0-4.5,0.7-10.4,1.4-15.9c0.1-0.8,0.2-1.6,0.3-2.3c0.1-0.9,0.2-1.7,0.3-2.6c0.1-0.6,0.2-1.1,0.2-1.6
	c0-0.1,0-0.3,0.1-0.4c0.1-0.4,0.1-0.8,0.2-1.2c0-0.1,0-0.2,0-0.4c0.1-0.4,0.1-0.8,0.1-1.1c0-0.1,0-0.2,0-0.2c0-0.4,0.1-0.8,0.1-1.2
	c0-0.1,0-0.1,0-0.2c0-0.4,0.1-0.7,0.1-1.1c0-0.1,0-0.1,0-0.2c0-0.3,0.1-0.6,0.1-0.9c0-0.1,0-0.2,0-0.3c0-0.2,0-0.5,0.1-0.7
	c0-0.1,0-0.2,0-0.3c0-0.1,0-0.3,0-0.4c0,0,0-0.1,0-0.1C711.8,450.5,713.7,446.4,715.3,443.1 M712.4,428.1L712.4,428.1
	c-1-0.9-1.3-2.2-1-3.9c6.1-0.5,12.2-0.3,18.1,0.7c-1.1,0.8-2,1.4-2.7,2c-2.7,1.9-9.4,3.8-11.4,4.2
	C714.5,430.1,713.5,429.1,712.4,428.1 M789.5,495.7c0,5.7-0.7,11.4-2,16.9c-0.1,0-0.2-0.1-0.4-0.1c-0.3-0.1-0.6-0.2-0.9-0.3
	c-0.5-0.2-1-0.3-1.5-0.5c-0.1,0-0.3-0.1-0.5-0.1c-0.4-0.1-0.8-0.3-1.2-0.4c-0.2-0.1-0.4-0.1-0.7-0.2c-0.4-0.1-0.7-0.2-1.1-0.3
	c-0.2-0.1-0.5-0.2-0.7-0.2c-0.4-0.1-0.7-0.2-1.1-0.3c-0.3-0.1-0.5-0.2-0.8-0.2c-0.4-0.1-0.8-0.2-1.2-0.3c-0.3-0.1-0.5-0.2-0.8-0.2
	c-0.4-0.1-0.8-0.2-1.3-0.3c-0.3-0.1-0.5-0.1-0.8-0.2c-0.5-0.1-1-0.3-1.5-0.4c-0.2-0.1-0.4-0.1-0.6-0.2c-0.7-0.2-1.5-0.4-2.3-0.5
	c-0.1,0-0.2,0-0.3-0.1c-0.7-0.1-1.3-0.3-2-0.4c-0.3-0.1-0.5-0.1-0.8-0.2c-0.5-0.1-1.1-0.2-1.6-0.3c-0.3-0.1-0.6-0.1-1-0.2
	c-0.5-0.1-1-0.2-1.6-0.3c-0.4-0.1-0.7-0.1-1.1-0.2c-0.5-0.1-1-0.2-1.6-0.2c-0.4-0.1-0.7-0.1-1.1-0.1c-0.5-0.1-1.1-0.1-1.6-0.2
	c-0.4,0-0.7-0.1-1.1-0.1c-0.1,0-0.2,0-0.4,0c-0.2-1.4-0.4-3.3-0.4-5.9c0-8.9,2.3-25.5,12.9-54.3
	C782.1,458.7,789.5,476.5,789.5,495.7 M769,442.2L769,442.2c-8.2-7.9-18.1-13.7-28.8-17.1c-0.9-0.3-1.8-0.5-2.7-0.8
	c-1.6-0.4-3.2-0.8-4.8-1.2c0,0,0,0,0,0c-7.3-1.5-14.9-1.9-22.4-1.1c-0.5,0.1-0.9,0.4-1,0.9c-0.7,3-0.2,5.4,1.5,7l0.1,0.1
	c1.3,1.2,2.4,2.2,3.1,3.2c0,0,0,0,0,0c0,0,0.1,0.1,0.1,0.1c1.2,1.5,1.6,2.9,1,4.6c-0.4,1.2-1.2,2.7-1.9,4.3c-1.4,2.8-2.9,6-3.7,8.9
	c-0.3-0.2-0.7-0.3-1.1-0.3c0,0-0.1,0-0.1,0c-1.1,0-1.9,0.9-2.5,2.4c-1.4,3.8-4.9,20.7-5.2,36c-0.2,12.4-0.1,23.5,0,28.2
	c0,1.1,0,1.9,0,2.3c0,2.6,5.9,11.6,24.6,11.6c8.4,0,13.9-1.6,19.7-3.3c6.5-1.9,13.2-3.9,24.9-3.9c5.2,0,9.7,0.7,14.2,2.1
	c0.6,0.2,1.2-0.1,1.5-0.7c1.6-3.6,2.9-7.3,3.9-11.1c1.6-6.1,2.4-12.4,2.4-18.8C791.8,475.3,783.7,456.3,769,442.2"/>
<path class="st9" d="M749,498.8c0,0,0.1,0,0.1,0c0.6,0,1.1-0.4,1.2-1.1c0.1-1.2,0.3-2.5,0.5-3.9c0.1-0.7-0.4-1.2-1-1.3
	c-0.6-0.1-1.2,0.4-1.3,1c-0.2,1.4-0.3,2.8-0.5,4C747.8,498.2,748.3,498.7,749,498.8"/>
<path class="st9" d="M752.7,475.3c0.1,0,0.2,0,0.3,0c0.5,0,1-0.4,1.2-0.9c0.3-1.3,0.6-2.6,0.9-3.8c0.2-0.6-0.2-1.3-0.9-1.4
	c-0.6-0.2-1.3,0.2-1.4,0.9c-0.3,1.3-0.6,2.6-0.9,3.9C751.7,474.5,752.1,475.2,752.7,475.3"/>
<path class="st9" d="M751.2,483.1c0.1,0,0.1,0,0.2,0c0.6,0,1.1-0.4,1.2-1c0.2-1.3,0.5-2.6,0.7-3.9c0.1-0.6-0.3-1.3-0.9-1.4
	c-0.6-0.1-1.3,0.3-1.4,0.9c-0.3,1.3-0.5,2.6-0.7,3.9C750.1,482.4,750.6,483,751.2,483.1"/>
<path class="st9" d="M756.6,459.9c0.1,0,0.2,0.1,0.4,0.1c0.5,0,1-0.3,1.1-0.8c0.4-1.3,0.8-2.5,1.2-3.7c0.2-0.6-0.1-1.3-0.7-1.5
	c-0.6-0.2-1.3,0.1-1.5,0.7c-0.4,1.2-0.8,2.5-1.3,3.8C755.7,459.1,756,459.7,756.6,459.9"/>
<path class="st9" d="M754.5,467.6c0.1,0,0.2,0,0.3,0c0.5,0,1-0.4,1.1-0.9c0.3-1.3,0.7-2.5,1-3.8c0.2-0.6-0.2-1.3-0.8-1.5
	c-0.6-0.2-1.3,0.2-1.5,0.8c-0.4,1.3-0.7,2.6-1.1,3.9C753.5,466.7,753.9,467.4,754.5,467.6"/>
<path class="st9" d="M759.2,452.4c0.1,0.1,0.3,0.1,0.4,0.1c0.5,0,0.9-0.3,1.1-0.8c0.5-1.2,1-2.5,1.5-3.6c0.3-0.6,0-1.3-0.6-1.6
	c-0.6-0.3-1.3,0-1.6,0.6c-0.5,1.2-1,2.5-1.5,3.7C758.2,451.5,758.5,452.2,759.2,452.4"/>
<path class="st9" d="M750,490.9c0.1,0,0.1,0,0.2,0c0.6,0,1.1-0.4,1.2-1c0.2-1.3,0.4-2.6,0.6-3.9c0.1-0.6-0.3-1.3-1-1.4
	c-0.7-0.1-1.3,0.3-1.4,1c-0.2,1.4-0.4,2.7-0.6,3.9C748.9,490.2,749.3,490.8,750,490.9"/>
</svg>
