<?xml version="1.0" encoding="utf-8"?>
<!-- Generator: Adobe Illustrator 22.0.1, SVG Export Plug-In . SVG Version: 6.00 Build 0)  -->
<svg version="1.1" id="Layer_1" xmlns="http://www.w3.org/2000/svg" xmlns:xlink="http://www.w3.org/1999/xlink" x="0px" y="0px"
	 viewBox="0 0 171.8 150.7" style="enable-background:new 0 0 171.8 150.7;" xml:space="preserve">
<style type="text/css">
	.st0{filter:url(#Adobe_OpacityMaskFilter);}
	.st1{clip-path:url(#SVGID_2_);fill:url(#SVGID_4_);}
	.st2{clip-path:url(#SVGID_2_);mask:url(#SVGID_3_);}
	.st3{clip-path:url(#SVGID_6_);fill:#00A69C;}
	.st4{filter:url(#Adobe_OpacityMaskFilter_1_);}
	.st5{clip-path:url(#SVGID_2_);fill:url(#SVGID_8_);}
	.st6{clip-path:url(#SVGID_2_);mask:url(#SVGID_7_);}
	.st7{clip-path:url(#SVGID_10_);fill:#2BB473;}
	.st8{filter:url(#Adobe_OpacityMaskFilter_2_);}
	.st9{clip-path:url(#SVGID_2_);fill:url(#SVGID_12_);}
	.st10{clip-path:url(#SVGID_2_);mask:url(#SVGID_11_);}
	.st11{clip-path:url(#SVGID_14_);fill:#8BC640;}
	.st12{filter:url(#Adobe_OpacityMaskFilter_3_);}
	.st13{clip-path:url(#SVGID_2_);fill:url(#SVGID_16_);}
	.st14{clip-path:url(#SVGID_2_);mask:url(#SVGID_15_);}
	.st15{clip-path:url(#SVGID_18_);fill:#A087A5;}
</style>
<g>
	<defs>
		<rect id="SVGID_1_" x="5.6" y="3.5" width="160.4" height="142.6"/>
	</defs>
	<clipPath id="SVGID_2_">
		<use xlink:href="#SVGID_1_"  style="overflow:visible;"/>
	</clipPath>
	<defs>
		<filter id="Adobe_OpacityMaskFilter" filterUnits="userSpaceOnUse" x="-8.7" y="0.5" width="186.9" height="102.8">
			<feFlood  style="flood-color:white;flood-opacity:1" result="back"/>
			<feBlend  in="SourceGraphic" in2="back" mode="normal"/>
		</filter>
	</defs>
	<mask maskUnits="userSpaceOnUse" x="-8.7" y="0.5" width="186.9" height="102.8" id="SVGID_3_">
		<g class="st0">
			
				<linearGradient id="SVGID_4_" gradientUnits="userSpaceOnUse" x1="-3.8219" y1="679.9604" x2="-2.8219" y2="679.9604" gradientTransform="matrix(42.0756 101.9566 101.9566 -42.0756 -69108.0234 29005.9102)">
				<stop  offset="0" style="stop-color:#FFFFFF"/>
				<stop  offset="1" style="stop-color:#000000"/>
			</linearGradient>
			<polygon class="st1" points="142.7,-53.1 216.4,125.4 29,202.7 -44.7,24.3 			"/>
		</g>
	</mask>
	<g class="st2">
		<g>
			<defs>
				<rect id="SVGID_5_" x="-8.7" y="0.5" width="186.9" height="102.8"/>
			</defs>
			<clipPath id="SVGID_6_">
				<use xlink:href="#SVGID_5_"  style="overflow:visible;"/>
			</clipPath>
			<path class="st3" d="M84.7,34.1c33.5-2.1,63.7,17.2,78.1,46.6c1.6-3,2.3-20.6,3.3-23.9c-19.6-27.5-52.8-43-87.2-37.4
				C44.4,25.1,18,50.5,8.3,82.9c2,2.8,2.8,4.6,4.8,7.3C23.7,59.2,51.1,36.2,84.7,34.1"/>
		</g>
	</g>
	<defs>
		<filter id="Adobe_OpacityMaskFilter_1_" filterUnits="userSpaceOnUse" x="1.2" y="27.6" width="159.8" height="82.6">
			<feFlood  style="flood-color:white;flood-opacity:1" result="back"/>
			<feBlend  in="SourceGraphic" in2="back" mode="normal"/>
		</filter>
	</defs>
	<mask maskUnits="userSpaceOnUse" x="1.2" y="27.6" width="159.8" height="82.6" id="SVGID_7_">
		<g class="st4">
			
				<linearGradient id="SVGID_8_" gradientUnits="userSpaceOnUse" x1="-4.5425" y1="680.1276" x2="-3.5425" y2="680.1276" gradientTransform="matrix(33.2491 90.4901 90.4901 -33.2491 -61325.8828 23050.6563)">
				<stop  offset="0" style="stop-color:#FFFFFF"/>
				<stop  offset="1" style="stop-color:#000000"/>
			</linearGradient>
			<polygon class="st5" points="147,-48.4 212.2,129.2 24.7,198.1 -40.6,20.5 			"/>
		</g>
	</mask>
	<g class="st6">
		<g>
			<defs>
				<rect id="SVGID_9_" x="1.2" y="27.6" width="159.8" height="82.6"/>
			</defs>
			<clipPath id="SVGID_10_">
				<use xlink:href="#SVGID_9_"  style="overflow:visible;"/>
			</clipPath>
			<path class="st7" d="M81.7,54.4c28.6-0.7,53.6,16.5,64.8,41.7c1.5-2.4,2.7-17.3,3.6-20c-15.7-23.7-43.4-37.8-72.9-34.2
				c-29.5,3.7-52.8,24.2-62.2,51c1.6,2.4,2.2,4,3.8,6.3C29,73.6,53.1,55.1,81.7,54.4"/>
		</g>
	</g>
	<defs>
		<filter id="Adobe_OpacityMaskFilter_2_" filterUnits="userSpaceOnUse" x="11" y="52.6" width="134.8" height="65.9">
			<feFlood  style="flood-color:white;flood-opacity:1" result="back"/>
			<feBlend  in="SourceGraphic" in2="back" mode="normal"/>
		</filter>
	</defs>
	<mask maskUnits="userSpaceOnUse" x="11" y="52.6" width="134.8" height="65.9" id="SVGID_11_">
		<g class="st8">
			
				<linearGradient id="SVGID_12_" gradientUnits="userSpaceOnUse" x1="-5.3711" y1="680.0988" x2="-4.3711" y2="680.0988" gradientTransform="matrix(24.0198 81.4809 81.4809 -24.0198 -55208.918 16818.6367)">
				<stop  offset="0" style="stop-color:#FFFFFF"/>
				<stop  offset="1" style="stop-color:#000000"/>
			</linearGradient>
			<polygon class="st9" points="153.2,-40 204.7,134.7 18.4,189.7 -33.1,14.9 			"/>
		</g>
	</mask>
	<g class="st10">
		<g>
			<defs>
				<rect id="SVGID_13_" x="11" y="52.6" width="134.8" height="65.9"/>
			</defs>
			<clipPath id="SVGID_14_">
				<use xlink:href="#SVGID_13_"  style="overflow:visible;"/>
			</clipPath>
			<path class="st11" d="M82,72.3c24.1,2.2,43.5,19.2,50.5,41.8c1.5-1.9,2.9-16.9,3.8-19.2c-12-21.2-34.6-34.8-59.7-33.3
				C51.6,63,30.7,79.2,21.3,101.6c1.2,2.1,2.5,0.6,3.6,2.8C35.8,83.5,57.9,70.2,82,72.3"/>
		</g>
	</g>
	<defs>
		<filter id="Adobe_OpacityMaskFilter_3_" filterUnits="userSpaceOnUse" x="-25" y="-44" width="203.8" height="207">
			<feFlood  style="flood-color:white;flood-opacity:1" result="back"/>
			<feBlend  in="SourceGraphic" in2="back" mode="normal"/>
		</filter>
	</defs>
	<mask maskUnits="userSpaceOnUse" x="-25" y="-44" width="203.8" height="207" id="SVGID_15_">
		<g class="st12">
			
				<linearGradient id="SVGID_16_" gradientUnits="userSpaceOnUse" x1="-3.1131" y1="690.0619" x2="-2.1131" y2="690.0619" gradientTransform="matrix(39.0402 12.085 12.085 -39.0402 -8142.6875 27049.3184)">
				<stop  offset="0" style="stop-color:#FFFFFF"/>
				<stop  offset="1" style="stop-color:#000000"/>
			</linearGradient>
			<polygon class="st13" points="19.6,-41.8 206.4,16 152,191.5 -34.7,133.7 			"/>
		</g>
	</mask>
	<g class="st14">
		<g>
			<defs>
				<rect id="SVGID_17_" x="-25" y="-44" width="203.8" height="207"/>
			</defs>
			<clipPath id="SVGID_18_">
				<use xlink:href="#SVGID_17_"  style="overflow:visible;"/>
			</clipPath>
			<path class="st15" d="M99.1,146.1l-0.6-0.3c-0.5-0.2-49.3-23.5-68-35.2C5.8,95.3-1.8,62.7,13.6,38c11.6-18.5,33.6-28,55-23.8
				C86,1.1,110,0,128.5,11.5l0,0c11.9,7.5,20.3,19.1,23.4,32.8c3.2,13.7,0.8,27.8-6.7,39.8c-11.7,18.7-45.4,61-45.7,61.4L99.1,146.1
				z M58.4,15.1C41.1,15.1,24.6,24,15.2,39C0.3,62.8,7.6,94.3,31.4,109.1c17.5,10.9,61.4,32,67.2,34.8c4-5.1,34.3-43.2,45.2-60.7
				c7.2-11.5,9.5-25.2,6.4-38.4c-3.1-13.2-11.1-24.5-22.6-31.7l0,0C109.6,1.8,86.2,3,69.4,16l-0.3,0.3l-0.4-0.1
				C65.3,15.4,61.8,15.1,58.4,15.1z"/>
		</g>
	</g>
</g>
</svg>
