<?xml version="1.0" encoding="utf-8"?>
<!-- Generator: Adobe Illustrator 22.0.1, SVG Export Plug-In . SVG Version: 6.00 Build 0)  -->
<svg version="1.1" id="Layer_1" xmlns="http://www.w3.org/2000/svg" xmlns:xlink="http://www.w3.org/1999/xlink" x="0px" y="0px"
	 viewBox="0 0 166 166" style="enable-background:new 0 0 166 166;" xml:space="preserve">
<style type="text/css">
	.st0{fill:#FFFFFF;}
</style>
<path class="st0" d="M137.8,78.6h-11.4V67.3h-9.1v11.3H106v9.2h11.4V99h9.1V87.8h11.3V78.6z M89,56c-9.2-8.3-19.9-11.1-31.7-8.7
	c-26.5,5.3-38.2,36.3-22,57.8c9.2,12.2,21.8,16.6,36.7,14c22.4-3.9,30.6-25.2,27-42.7H64.8v14.2h19.8c-0.5,1.4-0.8,2.5-1.2,3.6
	c-3.9,9.7-15.3,12.6-23.7,10.6c-13.3-3.1-20.6-17.6-15.4-30.2c5.9-14.3,23.4-18.2,33.9-8.8c0.2,0.2,0.4,0.2,0.5,0.3
	C82.2,62.8,85.6,59.5,89,56 M82.7,162.6C38.4,162.5,1.6,126,3.4,79.7C5,38,39.7,3.7,83.2,3.8c43.7,0.1,79.6,35.3,79.2,80.3
	C162.2,127.7,125.9,163.1,82.7,162.6"/>
</svg>
