<?xml version="1.0" encoding="utf-8"?>
<!-- Generator: Adobe Illustrator 22.0.1, SVG Export Plug-In . SVG Version: 6.00 Build 0)  -->
<svg version="1.1" id="Layer_1" xmlns="http://www.w3.org/2000/svg" xmlns:xlink="http://www.w3.org/1999/xlink" x="0px" y="0px"
	 viewBox="0 0 171.8 150.7" style="enable-background:new 0 0 171.8 150.7;" xml:space="preserve">
<style type="text/css">
	.st0{filter:url(#Adobe_OpacityMaskFilter);}
	.st1{clip-path:url(#SVGID_2_);fill:url(#SVGID_4_);}
	.st2{clip-path:url(#SVGID_2_);mask:url(#SVGID_3_);}
	.st3{clip-path:url(#SVGID_6_);fill:none;stroke:#A087A5;stroke-width:2.432;}
	.st4{filter:url(#Adobe_OpacityMaskFilter_1_);}
	.st5{clip-path:url(#SVGID_2_);fill:url(#SVGID_8_);}
	.st6{clip-path:url(#SVGID_2_);mask:url(#SVGID_7_);}
	.st7{clip-path:url(#SVGID_10_);fill:#2BB473;}
	.st8{filter:url(#Adobe_OpacityMaskFilter_2_);}
	.st9{clip-path:url(#SVGID_2_);fill:url(#SVGID_12_);}
	.st10{clip-path:url(#SVGID_2_);mask:url(#SVGID_11_);}
	.st11{clip-path:url(#SVGID_14_);fill:#8BC640;}
	.st12{filter:url(#Adobe_OpacityMaskFilter_3_);}
	.st13{clip-path:url(#SVGID_2_);fill:url(#SVGID_16_);}
	.st14{clip-path:url(#SVGID_2_);mask:url(#SVGID_15_);}
	.st15{clip-path:url(#SVGID_18_);fill:#00A69C;}
</style>
<g>
	<defs>
		<rect id="SVGID_1_" x="1.4" y="5.6" width="168.2" height="139.1"/>
	</defs>
	<clipPath id="SVGID_2_">
		<use xlink:href="#SVGID_1_"  style="overflow:visible;"/>
	</clipPath>
	<defs>
		<filter id="Adobe_OpacityMaskFilter" filterUnits="userSpaceOnUse" x="-38.5" y="-34.3" width="214.7" height="214.7">
			<feFlood  style="flood-color:white;flood-opacity:1" result="back"/>
			<feBlend  in="SourceGraphic" in2="back" mode="normal"/>
		</filter>
	</defs>
	<mask maskUnits="userSpaceOnUse" x="-38.5" y="-34.3" width="214.7" height="214.7" id="SVGID_3_">
		<g class="st0">
			
				<linearGradient id="SVGID_4_" gradientUnits="userSpaceOnUse" x1="-4.2554" y1="686.6353" x2="-3.2765" y2="686.6353" gradientTransform="matrix(47.4506 27.6169 27.6169 -47.4506 -18708.7773 32754.4297)">
				<stop  offset="0" style="stop-color:#FFFFFF"/>
				<stop  offset="1" style="stop-color:#000000"/>
			</linearGradient>
			<polygon class="st1" points="44,-67.6 230.1,40.8 127.1,217.8 -59,109.5 			"/>
		</g>
	</mask>
	<g class="st2">
		<g>
			<defs>
				<rect id="SVGID_5_" x="-38.5" y="-34.3" width="214.7" height="214.7"/>
			</defs>
			<clipPath id="SVGID_6_">
				<use xlink:href="#SVGID_5_"  style="overflow:visible;"/>
			</clipPath>
			<path class="st3" d="M119.3,123.4c26.7-26.7,26.7-70,0-96.7c-26.7-26.7-70-26.7-96.7,0c-26.7,26.7-26.7,70,0,96.7
				C49.3,150.1,92.6,150.1,119.3,123.4z"/>
		</g>
	</g>
	<defs>
		<filter id="Adobe_OpacityMaskFilter_1_" filterUnits="userSpaceOnUse" x="76.4" y="40.1" width="102" height="86.2">
			<feFlood  style="flood-color:white;flood-opacity:1" result="back"/>
			<feBlend  in="SourceGraphic" in2="back" mode="normal"/>
		</filter>
	</defs>
	<mask maskUnits="userSpaceOnUse" x="76.4" y="40.1" width="102" height="86.2" id="SVGID_7_">
		<g class="st4">
			
				<linearGradient id="SVGID_8_" gradientUnits="userSpaceOnUse" x1="-4.5493" y1="679.1116" x2="-3.5703" y2="679.1116" gradientTransform="matrix(25.4035 96.1485 96.1485 -25.4035 -65101.4453 17737.9473)">
				<stop  offset="0" style="stop-color:#FFFFFF"/>
				<stop  offset="1" style="stop-color:#000000"/>
			</linearGradient>
			<polygon class="st5" points="158.6,-36 204,135.6 12.4,186.2 -32.9,14.6 			"/>
		</g>
	</mask>
	<g class="st6">
		<g>
			<defs>
				<rect id="SVGID_9_" x="76.4" y="40.1" width="102" height="86.2"/>
			</defs>
			<clipPath id="SVGID_10_">
				<use xlink:href="#SVGID_9_"  style="overflow:visible;"/>
			</clipPath>
			<path class="st7" d="M159.7,89.1c-2.3,1.9-10.3,7.9-17.5,12.7l-9.6-15.4l2.1-1.4c0.7-0.4,1.1-1.1,1.2-1.8l16.6-10.5
				c2.6,3.7,5,7.1,6,8.4C161,84.6,162.9,86.5,159.7,89.1 M139.2,103.7l3-1.9C141.1,102.5,140.1,103.1,139.2,103.7 M118.3,116.2
				c-3.3,1-5-0.7-5.6-2.9c0,0,7.9-5.7,6.4-13.3c-1.5-7.7-6.6-9.1-8.3-9.8c-1.7-0.7-0.8-2.4-1.5-5c-0.7-2.6-4.1-5.8-2.9-8
				c2.4-1.5,7.1-4.5,12.2-7.7l-0.4,0.2l8.3,13.6l-0.9,0.5c-1.3,0.8-1.7,2.5-0.9,3.8l0.3,0.5c0.8,1.2,2.4,1.6,3.7,0.8l0.8-0.6
				l9.4,15.4c-1.4,0.9-2.8,1.7-3.9,2.4C127.4,110.5,121.6,115.3,118.3,116.2 M138.1,57.3c1.7-0.9,2.1-2.4,4,0.5
				c1,1.5,4.7,6.8,8.4,12l-16.7,10.2c-0.7-0.1-1.4,0-2,0.3l-2.2,1.3L121.2,68C129.1,62.9,137.1,57.8,138.1,57.3 M168.6,84.5
				c-1.2-2.1-19-28.2-23.3-34.3c-4.3-6.1-4.3-3.6-18.9,7.1C111.7,68,93.7,77.2,89.2,79.4c-4.6,2.2-4.5,4-3.1,7.8
				c0,0,16.2,25.7,21,32.6c4.7,6.8,5.9,6.1,9.6,4.4c3.6-1.7,10.9-5.4,18-9.5c7.1-4.1,29.6-20.5,32.8-23.5
				C170.5,88.1,169.8,86.5,168.6,84.5"/>
		</g>
	</g>
	<defs>
		<filter id="Adobe_OpacityMaskFilter_2_" filterUnits="userSpaceOnUse" x="36.2" y="79.3" width="57.9" height="47.6">
			<feFlood  style="flood-color:white;flood-opacity:1" result="back"/>
			<feBlend  in="SourceGraphic" in2="back" mode="normal"/>
		</filter>
	</defs>
	<mask maskUnits="userSpaceOnUse" x="36.2" y="79.3" width="57.9" height="47.6" id="SVGID_11_">
		<g class="st8">
			
				<linearGradient id="SVGID_12_" gradientUnits="userSpaceOnUse" x1="-9.7196" y1="681.419" x2="-8.7406" y2="681.419" gradientTransform="matrix(12.7146 48.1227 48.1227 -12.7146 -32582.5156 9207.0879)">
				<stop  offset="0" style="stop-color:#FFFFFF"/>
				<stop  offset="1" style="stop-color:#000000"/>
			</linearGradient>
			<polygon class="st9" points="158.6,-36 204,135.6 12.4,186.2 -32.9,14.6 			"/>
		</g>
	</mask>
	<g class="st10">
		<g>
			<defs>
				<rect id="SVGID_13_" x="36.2" y="79.3" width="57.9" height="47.6"/>
			</defs>
			<clipPath id="SVGID_14_">
				<use xlink:href="#SVGID_13_"  style="overflow:visible;"/>
			</clipPath>
			<path class="st11" d="M69.2,106c-2.3,0-4.1-1.8-4.1-4c0-2.2,1.8-4,4.1-4c2.3,0,4.1,1.8,4.1,4C73.3,104.2,71.5,106,69.2,106
				 M59.4,114.7c-2.3,0-4.1-1.8-4.1-4c0-2.2,1.8-4,4.1-4c2.3,0,4.1,1.8,4.1,4C63.5,112.9,61.7,114.7,59.4,114.7 M65.2,86.1
				C54,86.1,45,95,45,106s9,19.9,20.2,19.9c11.1,0,20.1-8.9,20.1-19.9S76.3,86.1,65.2,86.1"/>
		</g>
	</g>
	<defs>
		<filter id="Adobe_OpacityMaskFilter_3_" filterUnits="userSpaceOnUse" x="-3.6" y="-0.6" width="141.9" height="91.2">
			<feFlood  style="flood-color:white;flood-opacity:1" result="back"/>
			<feBlend  in="SourceGraphic" in2="back" mode="normal"/>
		</filter>
	</defs>
	<mask maskUnits="userSpaceOnUse" x="-3.6" y="-0.6" width="141.9" height="91.2" id="SVGID_15_">
		<g class="st12">
			
				<linearGradient id="SVGID_16_" gradientUnits="userSpaceOnUse" x1="-4.2718" y1="679.5399" x2="-3.2928" y2="679.5399" gradientTransform="matrix(26.7865 101.383 101.383 -26.7865 -68714.0938 18633.9492)">
				<stop  offset="0" style="stop-color:#FFFFFF"/>
				<stop  offset="1" style="stop-color:#000000"/>
			</linearGradient>
			<polygon class="st13" points="158.6,-36 204,135.6 12.4,186.2 -32.9,14.6 			"/>
		</g>
	</mask>
	<g class="st14">
		<g>
			<defs>
				<rect id="SVGID_17_" x="-3.6" y="-0.6" width="141.9" height="91.2"/>
			</defs>
			<clipPath id="SVGID_18_">
				<use xlink:href="#SVGID_17_"  style="overflow:visible;"/>
			</clipPath>
			<path class="st15" d="M68.5,37.9c0,0,1.7,15,4.1,15.8c2.4,0.8,5.4,0.1,10.9-4.3c5.4-4.4,9.1-12,16.8-12.4
				c7.7-0.3,10.8,0.8,9.7,3.5c-1.2,2.7-5.7,4.6-12.2,6.7c-6.5,2.1-18,5.7-18,5.7l-7.9,1.9l1.4,1.4c0,0,19.2-4.4,26.2-7.6
				c7-3.2,14.6-6.3,10.8-12.6c-3.7-6.2-4.6-7.4-4.6-11.7c0-4.3-3.8-14.7-13-11.8C83.6,15.5,79.1,26.9,75,31
				C71,35.1,68.3,36.3,68.5,37.9"/>
			<path class="st15" d="M75.7,59.1c0,0-3.9,1.1-6.1-5c-2.2-6.1-4.7-18.3-2.9-17.2c1.8,1.1,0.9,0.1,0.9,0.1l1.1-1c0,0-1.8-1.9-4.9-1
				c-3.1,0.9-12.3,3.7-12.5,7c-0.2,3.3,3.5,17.3,4.8,20.5c1.3,3.2,2.1,5,5.4,4.4c6.5-1.1,14-4,14.8-4.5
				C77.2,61.7,74.8,61.3,75.7,59.1"/>
			<path class="st15" d="M50.2,43.5c0,0,2.3,15.1,5.1,19.8c0,0-12.5,8.5-19.5,11.2c-7,2.7-12.2,10.8-13.8,4.7
				c-1.7-6-0.8-8.3-1.4-16.5c-0.6-8.2-4.7-19.9,1.1-21.3c5.9-1.4,8.7-1.2,18.2,0.1C49.4,42.7,50.2,43.5,50.2,43.5"/>
			<path class="st15" d="M20.6,78.8c0,0-8.7,3.7-7.5,4.9s6.2,3.9,13.7,4.7c7.5,0.8,10.9,3.7,17.4-3.1c6.4-6.8,14.4-16.6,14.4-16.6
				s-2.9-1.9-3.4-3.7c-0.1-0.3-0.1-0.5-0.1-0.7c0.3-1.9-4.4,4.4-15.5,10.3C28.6,80.3,22.2,87.5,20.6,78.8"/>
			<path class="st15" d="M74.8,57.3c0,0,3.9,4.6,7.3,5.3c3.3,0.7,22.3,3.8,24,2.1c1.7-1.7,9.2-14.1,12-18.2c2.9-4.1,4.8-9.3,2.6-9.2
				c-2.2,0.1-8.5,0.5-8.5,0.5s3.2,5.2-5.8,9.4S74.8,57.3,74.8,57.3"/>
		</g>
	</g>
</g>
</svg>
