<?xml version="1.0" encoding="utf-8"?>
<!-- Generator: Adobe Illustrator 22.0.1, SVG Export Plug-In . SVG Version: 6.00 Build 0)  -->
<svg version="1.1" id="Layer_1" xmlns="http://www.w3.org/2000/svg" xmlns:xlink="http://www.w3.org/1999/xlink" x="0px" y="0px"
	 viewBox="0 0 166 166" style="enable-background:new 0 0 166 166;" xml:space="preserve">
<style type="text/css">
	.st0{filter:url(#Adobe_OpacityMaskFilter);}
	.st1{fill:url(#SVGID_2_);}
	.st2{mask:url(#SVGID_1_);}
	.st3{clip-path:url(#SVGID_4_);fill:#A987A7;}
	.st4{fill:#00A79C;}
	.st5{filter:url(#Adobe_OpacityMaskFilter_1_);}
	.st6{fill:url(#SVGID_6_);}
	.st7{mask:url(#SVGID_5_);}
	.st8{clip-path:url(#SVGID_8_);fill:#A987A7;}
	.st9{fill:#FFFFFF;}
	.st10{filter:url(#Adobe_OpacityMaskFilter_2_);}
	.st11{fill:url(#SVGID_10_);}
	.st12{mask:url(#SVGID_9_);}
	.st13{clip-path:url(#SVGID_12_);fill:#A987A7;}
</style>
<defs>
	<filter id="Adobe_OpacityMaskFilter" filterUnits="userSpaceOnUse" x="-493" y="-60.9" width="213.6" height="213.6">
		<feColorMatrix  type="matrix" values="1 0 0 0 0  0 1 0 0 0  0 0 1 0 0  0 0 0 1 0"/>
	</filter>
</defs>
<mask maskUnits="userSpaceOnUse" x="-493" y="-60.9" width="213.6" height="213.6" id="SVGID_1_">
	<g class="st0">
		
			<linearGradient id="SVGID_2_" gradientUnits="userSpaceOnUse" x1="-258.4562" y1="5076.2251" x2="-257.3336" y2="5076.2251" gradientTransform="matrix(39.0402 12.085 12.085 -39.0402 -51699.2734 201527.4531)">
			<stop  offset="0" style="stop-color:#FFFFFF"/>
			<stop  offset="1" style="stop-color:#000000"/>
		</linearGradient>
		<polygon class="st1" points="-601.7,-5565.2 3337.7,-4345.8 93,6136.2 -3846.4,4916.8 		"/>
	</g>
</mask>
<g class="st2">
	<g>
		<defs>
			<rect id="SVGID_3_" x="-493" y="-60.9" width="213.6" height="213.6"/>
		</defs>
		<clipPath id="SVGID_4_">
			<use xlink:href="#SVGID_3_"  style="overflow:visible;"/>
		</clipPath>
		<path class="st3" d="M-363.8,142.8l-1.5-0.7c-0.6-0.3-55.4-26.4-76.5-39.5c-13.7-8.5-23.2-21.9-26.8-37.6
			c-3.6-15.7-0.9-31.9,7.6-45.5c13.1-21,38.1-31.9,62.4-27.3c19.8-14.8,47-16,68.1-2.8l0,0c13.7,8.5,23.2,21.9,26.8,37.6
			s0.9,31.9-7.6,45.5c-13.2,21.1-51,68.6-51.4,69.1L-363.8,142.8z M-409.8-4.7c-19,0-37.3,9.8-47.6,26.3
			c-7.9,12.7-10.4,27.7-7.1,42.3c3.4,14.6,12.2,27,24.9,34.9c18.9,11.8,65.5,34.2,74.5,38.6c6.2-7.9,38.3-48.4,50.1-67.3
			c7.9-12.7,10.4-27.7,7.1-42.3c-3.4-14.6-12.2-27-24.9-34.9c-19.8-12.4-45.5-11.1-64,3.2l-0.8,0.6l-1-0.2
			C-402.2-4.3-406-4.7-409.8-4.7z"/>
	</g>
</g>
<path class="st4" d="M-348.4,70.5c0-1.9,1.5-3.4,3.4-3.4c1.9,0,3.4,1.5,3.4,3.4c0,1.9-1.5,3.4-3.4,3.4
	C-346.9,73.9-348.4,72.4-348.4,70.5 M-355.6,110.8l7.5-5c-7.5-14.2-1.1-25.3,11.5-28V63.2c-12.6-2.7-19-13.8-11.5-28l-7.5-5
	c-11.3,13.5-34.6,16.7-49.5,1.8l-8.6,5.3c3.8,15.4-2.7,29.6-13.1,33.2c10.4,3.6,16.9,17.8,13.1,33.2l8.6,5.3
	C-390.2,94.1-366.9,97.3-355.6,110.8"/>
<defs>
	<filter id="Adobe_OpacityMaskFilter_1_" filterUnits="userSpaceOnUse" x="-500.4" y="216.8" width="228.7" height="228.7">
		<feColorMatrix  type="matrix" values="1 0 0 0 0  0 1 0 0 0  0 0 1 0 0  0 0 0 1 0"/>
	</filter>
</defs>
<mask maskUnits="userSpaceOnUse" x="-500.4" y="216.8" width="228.7" height="228.7" id="SVGID_5_">
	<g class="st5">
		
			<linearGradient id="SVGID_6_" gradientUnits="userSpaceOnUse" x1="-256.1658" y1="5070.7886" x2="-255.0433" y2="5070.7886" gradientTransform="matrix(47.4506 27.6169 27.6169 -47.4506 -128423.2969 248221.0313)">
			<stop  offset="0" style="stop-color:#FFFFFF"/>
			<stop  offset="1" style="stop-color:#000000"/>
		</linearGradient>
		<polygon class="st6" points="-710.2,-5423.2 4799.1,-2216.7 -294.3,6534.6 -5803.6,3328.2 		"/>
	</g>
</mask>
<g class="st7">
	<g>
		<defs>
			<rect id="SVGID_7_" x="-500.4" y="216.8" width="228.7" height="228.7"/>
		</defs>
		<clipPath id="SVGID_8_">
			<use xlink:href="#SVGID_7_"  style="overflow:visible;"/>
		</clipPath>
		<path class="st8" d="M-386,412.5c-21.7,0-42.1-8.5-57.5-23.8c-15.4-15.4-23.8-35.8-23.8-57.5c0-21.7,8.5-42.1,23.8-57.5
			c15.3-15.4,35.8-23.8,57.5-23.8s42.1,8.5,57.5,23.8c31.7,31.7,31.7,83.3,0,114.9l0,0C-343.9,404-364.3,412.5-386,412.5z
			 M-386,255.7c-20.2,0-39.1,7.9-53.4,22.1c-14.3,14.3-22.1,33.2-22.1,53.4s7.9,39.1,22.1,53.4s33.2,22.1,53.4,22.1
			s39.1-7.9,53.4-22.1c29.4-29.4,29.4-77.3,0-106.8C-346.9,263.6-365.9,255.7-386,255.7z"/>
	</g>
</g>
<path class="st4" d="M-381.7,377.5c-0.2-0.7-0.5-1.4-0.8-2.1l1.5-0.6c0.3,0.7,0.5,1.4,0.8,2.2L-381.7,377.5z M-378.8,381.4l-1.6,0.5
	c-0.2-0.7-0.4-1.5-0.7-2.2l1.5-0.5C-379.2,379.9-379,380.6-378.8,381.4 M-377.6,385.8l-1.6,0.4c-0.2-0.7-0.4-1.4-0.6-2.2l1.6-0.4
	C-378,384.3-377.8,385.1-377.6,385.8 M-384.2,371.3l1.5-0.7c0.3,0.7,0.6,1.4,0.9,2.1l-1.5,0.6C-383.6,372.7-383.9,372-384.2,371.3
	 M-386.5,388.8c-0.2-0.7-0.4-1.5-0.6-2.2l1.6-0.4c0.2,0.7,0.4,1.5,0.6,2.2L-386.5,388.8z M-388.3,382.3l1.5-0.5
	c0.2,0.7,0.5,1.5,0.7,2.2l-1.6,0.5C-387.9,383.8-388.1,383.1-388.3,382.3 M-389.1,380.2c-0.3-0.7-0.5-1.4-0.8-2.1l1.5-0.6
	c0.3,0.7,0.5,1.4,0.8,2.1L-389.1,380.2z M-391.6,374l1.5-0.7c0.3,0.7,0.6,1.4,0.9,2.1l-1.5,0.6C-391,375.3-391.3,374.7-391.6,374
	 M-393.5,370l1.4-0.8c0.4,0.7,0.7,1.4,1,2l-1.5,0.7C-392.9,371.3-393.2,370.6-393.5,370 M-395.3,366.8c-0.1-0.2-0.3-0.5-0.4-0.7
	l1.4-0.9c0.1,0.2,0.3,0.5,0.4,0.7c0.2,0.4,0.5,0.8,0.7,1.3l-1.4,0.8C-394.8,367.6-395.1,367.2-395.3,366.8 M-398.3,362.4l1.3-1
	c0.5,0.6,0.9,1.2,1.3,1.9l-1.3,0.9C-397.4,363.6-397.8,363-398.3,362.4 M-399.5,352.2c-0.5-0.5-1.1-1-1.7-1.5l1.1-1.2
	c0.6,0.5,1.1,1,1.7,1.5L-399.5,352.2z M-399.7,360.6c-0.5-0.6-1-1.1-1.5-1.7l1.2-1.1c0.5,0.6,1,1.2,1.5,1.7L-399.7,360.6z
	 M-402.6,357.3c-0.5-0.5-1.1-1.1-1.6-1.6l1.1-1.2c0.6,0.5,1.1,1.1,1.6,1.6L-402.6,357.3z M-403.4,346.4c0.5,0.5,1.1,1,1.7,1.5
	l-1.1,1.2c-0.6-0.5-1.1-1-1.7-1.5L-403.4,346.4z M-396.7,352.6c0.3,0.2,0.5,0.5,0.7,0.7c0.3,0.3,0.6,0.6,0.9,0.9l-1.1,1.2
	c-0.3-0.3-0.7-0.6-0.9-0.9c-0.2-0.2-0.4-0.4-0.7-0.7L-396.7,352.6z M-393.5,355.8c0.6,0.6,1.1,1.1,1.6,1.6l-1.2,1.1
	c-0.5-0.5-1-1-1.6-1.6L-393.5,355.8z M-390.3,359.1c0.5,0.6,1,1.2,1.5,1.8l-1.3,1c-0.5-0.6-0.9-1.1-1.4-1.7L-390.3,359.1z
	 M-387.4,362.7c0.5,0.6,0.9,1.3,1.3,1.9l-1.3,0.9c-0.4-0.6-0.8-1.2-1.3-1.8L-387.4,362.7z M-383.8,368.6l-1.4,0.8
	c-0.3-0.7-0.7-1.3-1.1-1.9l1.4-0.8C-384.5,367.2-384.1,367.9-383.8,368.6 M-396.5,351.3c-5.4-3.8-8.4-6.3-9.9-7.9c0,0,0,0,0,0
	c0,0.1,0,0.1,0,0.2c0.3,0.3,0.8,0.7,1.4,1.2l-1.1,1.2c-0.1-0.1-0.2-0.2-0.3-0.2c0,0.2,0,0.3,0,0.5c0,1.8,0,3.7,0.1,5.4
	c0.3,0.2,0.8,0.7,1.5,1.2l-1.1,1.2c-0.1-0.1-0.2-0.2-0.3-0.3c0.1,0.7,0.1,1.3,0.2,1.6c1.2,4.4,1.6,9.6,1,15
	c-0.3,2.8-0.8,5.4-1.3,7.6c-0.1,0.4-0.2,0.7-0.2,1.1c-0.1,0.3-0.2,0.7-0.2,1c-0.6,2.5-1.2,4.1-1.2,4.3l-0.1,0.4l-0.5,0.1
	c0,0,0,0,0,0c0,0,0,0,0,0c0,0,0,0-0.1,0c0,0,0,0,0,0c0,0-0.1,0-0.1,0c0,0,0,0-0.1,0c-0.1,0-0.1,0-0.2,0.1c0,0,0,0,0,0
	c-0.1,0-0.1,0-0.2,0.1c0,0,0,0-0.1,0c-0.1,0-0.1,0-0.2,0.1c0,0-0.1,0-0.1,0c-0.1,0-0.2,0.1-0.2,0.1c0,0,0,0,0,0
	c-0.1,0-0.2,0.1-0.3,0.1c0,0,0,0,0,0c6.8,2.5,13.9,3.8,21.2,3.8c3.5,0,7-0.3,10.5-0.9c0,0,0-0.1,0-0.1l1.6-0.4c0,0.1,0,0.1,0,0.2
	c0.3-0.1,0.5-0.1,0.8-0.2c-0.9-4.6-2.7-13.9-4.3-18C-383.2,363.1-388.5,356.9-396.5,351.3"/>
<path class="st4" d="M-377.3,373.3c-2.3-9.1-6-13.3-12.4-18.7c5.1,4.5,8.6,9.4,10.7,14.8c1.6,4.1,3.4,12.8,4.4,18.2
	c0.2,0,0.4-0.1,0.6-0.1c-0.1-0.3-0.1-0.6-0.2-1C-374.9,383.6-375.9,379.1-377.3,373.3"/>
<path class="st4" d="M-356.4,344.1c-2.7,0-4.9-2.2-4.9-4.9c0-2.7,2.2-4.9,4.9-4.9s4.9,2.2,4.9,4.9
	C-351.6,341.9-353.8,344.1-356.4,344.1 M-356.4,331.7c-4.2,0-7.5,3.4-7.5,7.5c0,4.2,3.4,7.5,7.5,7.5s7.5-3.4,7.5-7.5
	C-348.9,335.1-352.3,331.7-356.4,331.7"/>
<path class="st4" d="M-395.6,350c0.8,0.6,1.6,1.1,2.4,1.7c-0.2-0.1-0.3-0.3-0.5-0.4l-1.2-1c-6.5-5.3-10-8.8-11.6-10.6
	c0,0.1,0,0.1,0,0.2c0,0.1,0,0.2,0,0.3c0,0,0,0.1,0,0.1c0,0.1,0,0.1,0,0.2c0,0,0,0.1,0,0.1c0,0.1,0,0.1,0,0.2c0,0,0,0.1,0,0.1
	c0,0,0,0.1,0,0.1C-406,341.6-403.6,344.4-395.6,350"/>
<path class="st4" d="M-375.3,328.4l0.8,1.4c-0.6,0.4-1.3,0.7-2,1.1l-0.8-1.4C-376.6,329.1-375.9,328.8-375.3,328.4 M-380.2,332.9
	l-0.3,0.1l-0.8-1.4l0.3-0.1c0.6-0.3,1.2-0.6,1.7-0.9l0.8,1.4C-379,332.3-379.6,332.6-380.2,332.9 M-384.5,335.1l-0.7-1.5
	c0.6-0.3,1.3-0.7,2-1l0.7,1.4C-383.2,334.5-383.9,334.8-384.5,335.1 M-371.4,326.1l0.8,1.4c-0.6,0.4-1.3,0.8-1.9,1.2l-0.8-1.4
	C-372.7,326.9-372,326.5-371.4,326.1 M-367.6,323.7l0.9,1.3c-0.6,0.4-1.3,0.8-1.9,1.3l-0.9-1.4
	C-368.9,324.5-368.2,324.1-367.6,323.7 M-364,321.1l1,1.3c-0.6,0.4-1.2,0.9-1.9,1.3l-0.9-1.3C-365.2,322-364.5,321.5-364,321.1
	 M-360.4,318.3l1,1.2c-0.6,0.5-1.2,1-1.8,1.4l-1-1.3C-361.6,319.3-361,318.8-360.4,318.3 M-357.1,315.4l1.1,1.2
	c-0.6,0.5-1.1,1-1.7,1.5l-1.1-1.2C-358.2,316.4-357.6,315.9-357.1,315.4 M-353.9,312.2l1.2,1.1c-0.6,0.6-1.1,1.1-1.6,1.6l-1.1-1.2
	C-354.9,313.3-354.4,312.8-353.9,312.2 M-350.8,308.9l1.2,1.1c-0.5,0.5-1,1.1-1.5,1.7l-1.2-1.1C-351.8,310-351.3,309.5-350.8,308.9
	 M-347.7,305.6l1.2,1.1c-0.5,0.5-1,1.1-1.5,1.6l-1.2-1.1C-348.7,306.6-348.2,306.1-347.7,305.6 M-388.7,337.1l-0.6-1.5
	c0.6-0.3,1.3-0.6,2-0.9l0.7,1.5C-387.3,336.5-388,336.8-388.7,337.1 M-393,338.6l-0.4-1.6c0.7-0.2,1.3-0.4,2.1-0.7l0.6,1.5
	C-391.6,338.2-392.3,338.4-393,338.6 M-397.3,339.2c-0.1,0-0.3,0-0.4,0l0-1.6c0.7,0,1.4,0,2.1-0.1l0.2,1.6
	C-396,339.2-396.6,339.2-397.3,339.2 M-400.1,339c-0.7-0.1-1.4-0.3-2.3-0.5l0.4-1.6c0.8,0.2,1.5,0.3,2.2,0.4L-400.1,339z
	 M-344.4,302.4l1.1,1.2c-0.5,0.5-1.1,1-1.6,1.5l-1.1-1.2C-345.5,303.4-345,302.9-344.4,302.4 M-341,299.4l1.1,1.2
	c-0.5,0.5-1.1,1-1.7,1.5l-1.1-1.2C-342.1,300.4-341.6,299.9-341,299.4 M-329.5,334.7c-0.2,0.1-0.3,0.3-0.5,0.5
	c-0.1,0.1-0.2,0.2-0.3,0.3c-0.2,0.2-0.3,0.3-0.5,0.5c-0.1,0.1-0.2,0.2-0.3,0.3c-0.2,0.2-0.3,0.3-0.5,0.5c-0.1,0.1-0.2,0.2-0.3,0.3
	c-0.2,0.2-0.3,0.3-0.5,0.5c-0.1,0.1-0.2,0.2-0.3,0.3c-0.2,0.2-0.4,0.4-0.5,0.5c-0.1,0.1-0.2,0.2-0.3,0.3c-0.2,0.2-0.4,0.4-0.6,0.5
	c-0.1,0.1-0.2,0.2-0.3,0.3c-0.2,0.2-0.4,0.4-0.5,0.5c-0.1,0.1-0.2,0.2-0.3,0.3c-0.2,0.2-0.4,0.4-0.6,0.6c-0.1,0.1-0.2,0.2-0.2,0.2
	c-0.2,0.2-0.4,0.4-0.6,0.6c-0.1,0.1-0.1,0.1-0.2,0.2c-0.2,0.2-0.4,0.4-0.7,0.7c-0.1,0.1-0.1,0.1-0.2,0.2c-0.2,0.2-0.5,0.5-0.7,0.7
	c0,0-0.1,0.1-0.1,0.1c-0.3,0.3-0.6,0.6-1,0.9c-0.9,0.9-1.8,1.8-2.6,2.6c-0.7,0.7-1.4,1.4-2,2c0,0-0.1,0.1-0.1,0.1
	c-0.2,0.2-0.4,0.4-0.6,0.6c0,0-0.1,0.1-0.1,0.1c-0.2,0.2-0.4,0.4-0.6,0.6c0,0-0.1,0.1-0.1,0.1c-0.2,0.2-0.4,0.4-0.6,0.6
	c0,0-0.1,0.1-0.1,0.1c-0.2,0.2-0.3,0.3-0.5,0.5c-0.1,0.1-0.1,0.1-0.2,0.2c-0.2,0.2-0.3,0.3-0.4,0.5c-0.1,0.1-0.1,0.1-0.2,0.2
	c-0.1,0.1-0.3,0.3-0.4,0.4c-0.1,0.1-0.1,0.1-0.2,0.2c-0.1,0.1-0.2,0.3-0.4,0.4c0,0-0.1,0.1-0.1,0.1c-0.1,0.1-0.2,0.3-0.4,0.4
	c0,0-0.1,0.1-0.1,0.1c-0.1,0.1-0.2,0.2-0.3,0.3c0,0-0.1,0.1-0.1,0.1c-0.1,0.1-0.2,0.2-0.3,0.3c0,0-0.1,0.1-0.1,0.1
	c-0.1,0.1-0.2,0.2-0.3,0.4c-0.2,0.2-0.4,0.4-0.6,0.6c-0.1,0.1-0.1,0.1-0.2,0.2c-0.1,0.1-0.3,0.3-0.4,0.4c-0.1,0.1-0.2,0.1-0.2,0.2
	c-0.1,0.1-0.3,0.2-0.4,0.3c-0.1,0.1-0.2,0.1-0.2,0.2c-0.1,0.1-0.3,0.2-0.4,0.3c-0.1,0.1-0.1,0.1-0.2,0.2c-0.2,0.1-0.4,0.3-0.6,0.4
	c0,0-0.1,0-0.1,0c-0.2,0.1-0.4,0.3-0.7,0.4c-0.1,0-0.1,0.1-0.2,0.1c-0.2,0.1-0.3,0.2-0.5,0.3c-0.1,0-0.2,0.1-0.2,0.1
	c-0.2,0.1-0.3,0.2-0.5,0.2c-0.1,0-0.2,0.1-0.3,0.1c-0.2,0.1-0.3,0.1-0.5,0.2c-0.1,0-0.2,0.1-0.2,0.1c-0.2,0.1-0.4,0.1-0.6,0.2
	c0,0-0.1,0-0.1,0.1c-0.2,0.1-0.5,0.2-0.7,0.2c-0.1,0-0.1,0-0.2,0c-0.2,0-0.4,0.1-0.5,0.1c-0.1,0-0.2,0-0.3,0.1
	c-0.2,0-0.3,0.1-0.5,0.1c-0.1,0-0.2,0-0.3,0c-0.2,0-0.3,0-0.5,0.1c-0.1,0-0.2,0-0.3,0c-0.2,0-0.4,0-0.5,0c-0.1,0-0.1,0-0.2,0
	c-0.2,0-0.5,0-0.7,0c0,0,0,0,0,0c-0.2,0-0.4,0-0.6,0c-0.1,0-0.1,0-0.2,0c-0.2,0-0.3,0-0.5,0c-0.1,0-0.1,0-0.2,0c-0.1,0-0.3,0-0.4,0
	c-0.1,0-0.1,0-0.2,0c-0.2,0-0.3,0-0.5-0.1c0,0-0.1,0-0.1,0c-0.2,0-0.4-0.1-0.6-0.1c0,0-0.1,0-0.1,0c-0.2,0-0.3-0.1-0.5-0.1
	c-0.1,0-0.1,0-0.2-0.1c-0.1,0-0.3-0.1-0.4-0.1c-0.1,0-0.1,0-0.2-0.1c-0.1,0-0.3-0.1-0.4-0.2c-0.1,0-0.1,0-0.2-0.1
	c-0.2-0.1-0.4-0.2-0.6-0.2c0,0-0.1,0-0.1,0c-0.2-0.1-0.4-0.2-0.5-0.2c-0.1,0-0.1-0.1-0.2-0.1c-0.1-0.1-0.3-0.1-0.4-0.2
	c-0.1,0-0.1-0.1-0.2-0.1c-0.1-0.1-0.3-0.1-0.4-0.2c-0.1,0-0.1-0.1-0.2-0.1c-0.2-0.1-0.4-0.2-0.6-0.4c-3.5-2.2-5.7-5.4-6.3-9.5
	c-0.4-3.2,0.1-6.8,1.6-9.9c1.8-3.9,10.8-12.9,18.8-20.9c3.2-3.2,6.2-6.2,8.3-8.5c0.3-0.3,0.6-0.6,0.8-0.9c0.1-0.1,0.2-0.2,0.3-0.3
	c0.2-0.2,0.4-0.4,0.6-0.6c0.1-0.1,0.2-0.2,0.3-0.3c0.2-0.2,0.3-0.4,0.5-0.5c0.1-0.1,0.2-0.2,0.3-0.3c0.2-0.2,0.3-0.3,0.5-0.5
	c0.1-0.1,0.2-0.2,0.3-0.3c0.2-0.2,0.3-0.3,0.5-0.5c0.1-0.1,0.2-0.2,0.4-0.3c0.2-0.2,0.3-0.3,0.5-0.5c0.1-0.1,0.2-0.2,0.3-0.3
	c0.2-0.1,0.3-0.3,0.5-0.4c0.1-0.1,0.2-0.2,0.3-0.3c0.2-0.1,0.3-0.3,0.5-0.4c0.1-0.1,0.2-0.2,0.3-0.3c0.2-0.1,0.3-0.3,0.4-0.4
	c0.1-0.1,0.2-0.2,0.3-0.3c0.1-0.1,0.3-0.3,0.4-0.4c0.1-0.1,0.2-0.2,0.3-0.3c0.1-0.1,0.3-0.3,0.4-0.4c0.1-0.1,0.2-0.2,0.3-0.3
	c0.1-0.1,0.3-0.2,0.4-0.4c0.1-0.1,0.2-0.2,0.3-0.3c0.1-0.1,0.3-0.2,0.4-0.4c0.1-0.1,0.2-0.2,0.3-0.2c0.1-0.1,0.3-0.2,0.4-0.4
	c0.1-0.1,0.2-0.1,0.2-0.2c0.1-0.1,0.3-0.2,0.4-0.4c0.1-0.1,0.1-0.1,0.2-0.2c0,0,0,0,0.1,0c-0.1-0.2-0.2-0.3-0.3-0.5
	c-0.5,0.4-1.1,0.9-1.6,1.4l-1.1-1.2c0.6-0.5,1.2-1,1.7-1.5l0.6,0.7c-0.9-1.5-1.9-3-2.9-4.4c0,0,0,0,0,0c-0.1,0.1-0.2,0.1-0.3,0.2
	c0,0-0.1,0-0.1,0.1c-0.1,0.1-0.2,0.1-0.3,0.2c-0.1,0-0.1,0.1-0.2,0.1c-0.1,0-0.2,0.1-0.2,0.1c-0.1,0-0.2,0.1-0.2,0.1
	c-0.1,0-0.1,0.1-0.2,0.1c-0.1,0.1-0.2,0.1-0.3,0.2c-0.1,0-0.1,0.1-0.2,0.1c-0.1,0.1-0.2,0.1-0.4,0.2c0,0-0.1,0.1-0.1,0.1
	c-0.2,0.1-0.4,0.2-0.6,0.3c0,0,0,0-0.1,0c-0.2,0.1-0.3,0.2-0.5,0.3c-0.1,0-0.1,0.1-0.2,0.1c-0.1,0.1-0.3,0.2-0.4,0.2
	c-0.1,0-0.2,0.1-0.2,0.1c-0.1,0.1-0.3,0.2-0.4,0.2c-0.1,0-0.2,0.1-0.3,0.1c-0.1,0.1-0.3,0.2-0.4,0.2c-0.1,0.1-0.2,0.1-0.3,0.2
	c-0.1,0.1-0.3,0.2-0.4,0.3c-0.1,0.1-0.2,0.1-0.3,0.2c-0.2,0.1-0.3,0.2-0.5,0.3c-0.1,0.1-0.2,0.1-0.3,0.2c-0.2,0.1-0.4,0.2-0.5,0.3
	c-0.1,0-0.2,0.1-0.2,0.1c-0.3,0.2-0.5,0.3-0.8,0.5c-7.7,4.4-34.2,18.4-36.6,18.6c-0.7,0.1-1.8-0.1-3.3-0.2
	c-3.1-0.3-7.8-0.9-10.2,0.2c-6.5,2.8-9.9,6.9-9.9,12.1c0,3.7,3,6.9,3.7,7.6c0.3,0.1,0.6,0.2,0.9,0.2l-0.1,0.5l1.1,1l-1.3-0.1
	l-0.1,0.2c-0.3-0.1-0.7-0.2-1-0.3c0,0,0,0,0,0c0,0,0,0,0,0c0,0,0,0-0.1,0c0,0,0,0,0,0c0,0-0.1,0-0.1,0c0,0,0,0,0,0c0,0-0.1,0-0.1,0
	c0,0,0,0,0,0c0,0,0,0-0.1,0c0,0,0,0,0,0c0,0,0,0,0,0c1.1,1.3,4.6,5.1,12.1,11.2l1.2,1c8.8,7.2,14.2,11.5,17,22.9
	c1.4,5.8,2.4,10.3,3.1,13.3c0.1,0.3,0.1,0.6,0.2,0.9c12-3.4,22.6-10.3,30.5-20.1c7.8-9.6,12.5-21,13.5-33.3
	c-0.2,0.2-0.5,0.5-0.7,0.7C-329.3,334.5-329.4,334.6-329.5,334.7"/>
<path class="st4" d="M-331.6,333l-1.1-1.2c0.5-0.5,1.1-1,1.6-1.6l1.1,1.2C-330.5,332-331.1,332.5-331.6,333 M-335,336.1l-1.1-1.2
	c0.5-0.5,1.1-1,1.7-1.5l1.1,1.2C-333.9,335.1-334.4,335.6-335,336.1 M-338.3,339.2l-1.1-1.2c0.6-0.5,1.1-1,1.7-1.6l1.1,1.2
	C-337.2,338.1-337.7,338.6-338.3,339.2 M-339.9,304.9c0.6-0.5,1.1-1.1,1.7-1.5l1.1,1.2c-0.5,0.5-1.1,1-1.7,1.5L-339.9,304.9z
	 M-341.5,342.3l-1.1-1.2c0.5-0.5,1.1-1.1,1.6-1.6l1.1,1.2C-340.5,341.3-341,341.8-341.5,342.3 M-343.2,308.1
	c0.6-0.5,1.1-1.1,1.6-1.6l1.1,1.2c-0.5,0.5-1.1,1-1.6,1.6L-343.2,308.1z M-344.8,345.5l-1.1-1.1c0.5-0.5,1.1-1.1,1.6-1.6l1.1,1.2
	C-343.7,344.4-344.2,345-344.8,345.5 M-346.4,311.3c0.5-0.5,1.1-1.1,1.6-1.6l1.1,1.1c-0.5,0.5-1.1,1.1-1.6,1.6L-346.4,311.3z
	 M-348,348.7l-1.1-1.2c0.5-0.5,1.1-1.1,1.6-1.6l1.1,1.2C-346.9,347.6-347.5,348.2-348,348.7 M-356.4,348.4c-5,0-9.1-4.1-9.1-9.1
	c0-5,4.1-9.1,9.1-9.1c5,0,9.1,4.1,9.1,9.1C-347.3,344.3-351.4,348.4-356.4,348.4 M-351.3,351.8l-1.1-1.2c0.5-0.5,1.1-1,1.6-1.6
	l1.1,1.2C-350.2,350.8-350.7,351.3-351.3,351.8 M-354.6,354.9l-1.1-1.2c0.5-0.4,1.1-0.9,1.7-1.5l1.1,1.2
	C-353.5,354-354.1,354.5-354.6,354.9 M-358.3,357.7l-0.8-1.4c0.5-0.3,1.1-0.7,1.8-1.3l1,1.3C-357.1,357-357.8,357.4-358.3,357.7
	 M-362.2,358.8c-0.3,0-0.7,0-1-0.1l0.2-1.6c0.7,0.1,1.4,0.1,2-0.1l0.3,1.6C-361.2,358.8-361.7,358.8-362.2,358.8 M-365.6,358.2
	c-0.7-0.3-1.5-0.7-2.2-1.1l0.9-1.4c0.6,0.4,1.2,0.7,1.9,0.9L-365.6,358.2z M-366.8,332.6l1.2,1.1c-0.5,0.6-1,1.1-1.5,1.7l-1.2-1.1
	C-367.9,333.8-367.4,333.2-366.8,332.6 M-369.7,355.6c-0.6-0.6-1.1-1.2-1.6-1.8l1.3-0.9c0.4,0.6,0.9,1.1,1.4,1.6L-369.7,355.6z
	 M-372.4,351.6c-0.2-0.6-0.4-1.2-0.5-1.7c0-0.2-0.1-0.4-0.1-0.6l1.6-0.3c0,0.2,0.1,0.4,0.1,0.6c0.1,0.5,0.2,1,0.4,1.5L-372.4,351.6z
	 M-373.8,344.6l1.6,0c0,0.6,0.1,1.3,0.2,2.1l-1.6,0.3C-373.7,346.1-373.8,345.3-373.8,344.6 M-372.5,339.9l1.4,0.8
	c-0.4,0.7-0.6,1.3-0.8,1.9l-1.6-0.5C-373.2,341.4-372.9,340.7-372.5,339.9 M-369.8,336.1l1.3,1c-0.5,0.6-0.9,1.2-1.3,1.8l-1.3-0.9
	C-370.8,337.3-370.4,336.7-369.8,336.1 M-364.6,330.3c0.3-0.3,0.6-0.7,1-1l1.2,1.1c-0.3,0.3-0.7,0.7-1,1c-0.2,0.2-0.4,0.4-0.6,0.6
	l-1.2-1.1C-365,330.8-364.8,330.6-364.6,330.3 M-360.5,326.1l1.2,1.1c-0.5,0.6-1.1,1.1-1.6,1.6l-1.2-1.1
	C-361.6,327.2-361,326.6-360.5,326.1 M-357.4,322.8l1.2,1.1c-0.5,0.6-1,1.1-1.6,1.6l-1.2-1.1C-358.4,323.9-357.9,323.4-357.4,322.8
	 M-354.3,319.5l1.2,1.1l-1.6,1.6l-1.2-1.1L-354.3,319.5z M-351.1,316.2l1.2,1.1c-0.5,0.5-1,1.1-1.6,1.6l-1.2-1.1
	C-352.2,317.3-351.7,316.8-351.1,316.2 M-348,312.9l1.2,1.1c-0.5,0.5-1,1.1-1.6,1.6l-1.2-1.1C-349.1,314-348.5,313.5-348,312.9
	 M-329.5,328.7c0.4-0.4,0.8-0.8,1.2-1.2c-0.1-8.8-2.2-17.5-6-25.4c-0.4,0.3-0.8,0.6-1.2,1l-1-1.2c0.5-0.4,1-0.9,1.5-1.2
	c-0.2-0.3-0.3-0.7-0.5-1c-0.1,0.1-0.2,0.1-0.2,0.2c-0.1,0.1-0.2,0.2-0.3,0.3c-0.1,0.1-0.2,0.2-0.4,0.3c-0.1,0.1-0.2,0.1-0.3,0.2
	c-0.2,0.2-0.4,0.3-0.6,0.5c0,0-0.1,0.1-0.1,0.1c-0.2,0.2-0.5,0.4-0.7,0.6c-0.1,0.1-0.1,0.1-0.2,0.2c-0.2,0.1-0.3,0.3-0.5,0.5
	c-0.1,0.1-0.2,0.2-0.3,0.2c-0.2,0.1-0.3,0.3-0.5,0.4c-0.1,0.1-0.2,0.2-0.3,0.3c-0.2,0.1-0.3,0.3-0.5,0.4c-0.1,0.1-0.2,0.2-0.3,0.3
	c-0.2,0.1-0.3,0.3-0.5,0.4c-0.1,0.1-0.2,0.2-0.3,0.3c-0.2,0.1-0.3,0.3-0.5,0.4c-0.1,0.1-0.2,0.2-0.3,0.3c-0.2,0.1-0.3,0.3-0.5,0.5
	c-0.1,0.1-0.2,0.2-0.3,0.3c-0.2,0.2-0.3,0.3-0.5,0.5c-0.1,0.1-0.2,0.2-0.3,0.3c-0.2,0.2-0.3,0.3-0.5,0.5c-0.1,0.1-0.2,0.2-0.3,0.3
	c-0.2,0.2-0.3,0.3-0.5,0.5c-0.1,0.1-0.2,0.2-0.3,0.3c-0.2,0.2-0.4,0.4-0.6,0.6c-0.1,0.1-0.2,0.2-0.3,0.3c-0.3,0.3-0.6,0.6-0.8,0.9
	c-2.2,2.3-5.2,5.3-8.4,8.5c-7.5,7.5-16.9,16.9-18.5,20.5c-0.4,0.8-0.7,1.8-1,2.8c-0.4,1.4-0.6,3-0.6,4.6c0,0.2,0,0.5,0,0.7
	c0.2,3.2,1.5,6.4,4.9,8.8c0.2,0.2,0.5,0.3,0.8,0.5c9,5.5,15.9,0,18.4-2.6c0.1-0.1,0.2-0.2,0.4-0.4c0,0,0.1-0.1,0.1-0.1
	c0.1-0.1,0.2-0.2,0.3-0.3c0.1-0.1,0.2-0.2,0.2-0.2c0.1-0.1,0.1-0.1,0.2-0.2c0.3-0.3,0.6-0.6,0.9-0.9c0.1-0.1,0.1-0.1,0.2-0.2
	c0.1-0.1,0.2-0.2,0.4-0.4c0.1-0.1,0.1-0.1,0.2-0.2c0.1-0.1,0.3-0.3,0.4-0.4c0.1-0.1,0.1-0.1,0.2-0.2c0.1-0.1,0.3-0.3,0.4-0.4
	c0.1-0.1,0.1-0.1,0.2-0.2c0.2-0.2,0.3-0.3,0.5-0.5c0.1-0.1,0.1-0.1,0.2-0.2c0.1-0.2,0.3-0.3,0.5-0.5c0.1-0.1,0.2-0.2,0.3-0.3
	c0.1-0.1,0.3-0.3,0.5-0.5c0.1-0.1,0.2-0.2,0.3-0.3c0.2-0.2,0.3-0.3,0.5-0.5c0.1-0.1,0.2-0.2,0.3-0.3c0.2-0.2,0.4-0.3,0.5-0.5
	c0.1-0.1,0.2-0.2,0.2-0.2c0.2-0.2,0.3-0.3,0.5-0.5c0.1-0.1,0.2-0.2,0.3-0.3c0.1-0.1,0.3-0.3,0.4-0.4c0.1-0.1,0.3-0.3,0.4-0.4
	c0.1-0.1,0.2-0.2,0.4-0.4c0.2-0.2,0.3-0.3,0.5-0.5c0.1-0.1,0.3-0.3,0.4-0.4c0.1-0.1,0.3-0.3,0.4-0.4c0.1-0.1,0.3-0.3,0.4-0.4
	c0.1-0.1,0.3-0.3,0.4-0.4c0.1-0.1,0.3-0.3,0.4-0.4c0.1-0.1,0.3-0.3,0.4-0.4c0.1-0.1,0.3-0.3,0.4-0.4c0.2-0.2,0.3-0.3,0.5-0.5
	c0.1-0.1,0.3-0.2,0.4-0.4c0.2-0.2,0.3-0.3,0.5-0.5c0.1-0.1,0.2-0.2,0.4-0.4c0.2-0.2,0.3-0.3,0.5-0.5c0.1-0.1,0.2-0.2,0.3-0.3
	c0.2-0.2,0.3-0.3,0.5-0.5c0.1-0.1,0.3-0.3,0.4-0.4c0.2-0.2,0.3-0.3,0.5-0.5c0.1-0.1,0.3-0.2,0.4-0.4c0.2-0.2,0.3-0.3,0.5-0.5
	c0.1-0.1,0.2-0.2,0.4-0.3c0.2-0.2,0.3-0.3,0.5-0.5c0.1-0.1,0.2-0.2,0.4-0.4c0.2-0.1,0.3-0.3,0.5-0.4c0.1-0.1,0.2-0.2,0.4-0.3
	c0.2-0.2,0.3-0.3,0.5-0.4c0.1-0.1,0.2-0.2,0.3-0.3c0.2-0.1,0.3-0.3,0.4-0.4c0.1-0.1,0.2-0.2,0.3-0.3c0.1-0.1,0.3-0.3,0.4-0.4
	c0.1-0.1,0.2-0.2,0.3-0.3c0.1-0.1,0.3-0.3,0.4-0.4c0.1-0.1,0.2-0.2,0.3-0.3c0.1-0.1,0.2-0.2,0.3-0.3c0-0.5,0-1.1,0-1.6
	c0,0-0.1,0.1-0.1,0.1L-329.5,328.7z"/>
<path class="st9" d="M-352.7,313.3l-1.2-1.1c-0.5,0.6-1.1,1.1-1.6,1.6l1.1,1.2C-353.8,314.4-353.3,313.9-352.7,313.3"/>
<path class="st9" d="M-356,316.5l-1.1-1.2c-0.5,0.5-1.1,1-1.7,1.5l1.1,1.2C-357.1,317.6-356.5,317.1-356,316.5"/>
<path class="st9" d="M-349.6,310l-1.2-1.1c-0.5,0.5-1,1.1-1.5,1.7l1.2,1.1C-350.6,311.1-350.1,310.6-349.6,310"/>
<path class="st9" d="M-346.5,306.7l-1.2-1.1c-0.5,0.5-0.9,1-1.6,1.7l1.2,1.1C-347.6,307.8-347.1,307.2-346.5,306.7"/>
<path class="st9" d="M-340,300.6l-1.1-1.2c-0.6,0.5-1.1,1-1.7,1.5l1.1,1.2C-341.1,301.6-340.5,301.1-340,300.6"/>
<path class="st9" d="M-343.4,303.6l-1.1-1.2c-0.6,0.5-1.1,1-1.7,1.6l1.1,1.2C-344.4,304.6-343.9,304.1-343.4,303.6"/>
<path class="st9" d="M-374.5,329.8l-0.8-1.4c-0.6,0.4-1.3,0.7-2,1.1l0.8,1.4C-375.8,330.5-375.1,330.2-374.5,329.8"/>
<path class="st9" d="M-402.4,338.5c0.9,0.2,1.6,0.4,2.3,0.5l0.3-1.6c-0.6-0.1-1.3-0.2-2.2-0.4L-402.4,338.5z"/>
<path class="st9" d="M-393.4,337.1l0.4,1.6c0.7-0.2,1.4-0.4,2.2-0.7l-0.6-1.5C-392.1,336.7-392.8,336.9-393.4,337.1"/>
<path class="st9" d="M-397.7,337.6l0,1.6c0.1,0,0.3,0,0.4,0c0.7,0,1.3,0,2-0.1l-0.2-1.6C-396.3,337.6-397,337.6-397.7,337.6"/>
<path class="st9" d="M-359.4,319.6l-1-1.2c-0.6,0.5-1.2,0.9-1.7,1.4l1,1.3C-360.6,320.5-360,320-359.4,319.6"/>
<path class="st9" d="M-366.7,325l-0.9-1.3c-0.6,0.4-1.2,0.8-1.9,1.2l0.9,1.4C-368,325.8-367.3,325.4-366.7,325"/>
<path class="st9" d="M-389.3,335.6l0.6,1.5c0.7-0.3,1.3-0.6,2.1-0.9l-0.7-1.5C-388,335-388.7,335.3-389.3,335.6"/>
<path class="st9" d="M-363,322.4l-1-1.3c-0.6,0.4-1.2,0.9-1.8,1.3l0.9,1.3C-364.2,323.3-363.6,322.8-363,322.4"/>
<path class="st9" d="M-370.6,327.5l-0.8-1.4c-0.6,0.4-1.3,0.8-1.9,1.2l0.8,1.4C-371.8,328.3-371.2,327.9-370.6,327.5"/>
<path class="st9" d="M-385.2,333.7l0.7,1.5c0.6-0.3,1.3-0.7,2-1l-0.7-1.4C-383.9,333-384.6,333.4-385.2,333.7"/>
<path class="st9" d="M-380.9,331.5l-0.3,0.1l0.8,1.4l0.3-0.1c0.6-0.3,1.2-0.6,1.7-0.9l-0.8-1.4
	C-379.8,330.9-380.3,331.2-380.9,331.5"/>
<path class="st9" d="M-401.1,350.7c0.6,0.5,1.1,1,1.7,1.5l1.1-1.2c-0.5-0.5-1.1-1-1.7-1.5L-401.1,350.7z"/>
<path class="st9" d="M-388.8,360.9c-0.5-0.6-1-1.2-1.5-1.8l-1.2,1.1c0.5,0.6,1,1.1,1.4,1.7L-388.8,360.9z"/>
<path class="st9" d="M-396.2,355.4l1.1-1.2c-0.3-0.3-0.6-0.6-0.9-0.9c-0.2-0.2-0.5-0.4-0.7-0.7l-1.1,1.2c0.2,0.2,0.5,0.5,0.7,0.7
	C-396.9,354.7-396.6,355-396.2,355.4"/>
<path class="st9" d="M-401.7,348c-0.6-0.5-1.2-1-1.7-1.5l-1.1,1.2c0.5,0.5,1.1,1,1.7,1.5L-401.7,348z"/>
<path class="st9" d="M-393,358.5l1.2-1.1c-0.5-0.5-1-1.1-1.6-1.6l-1.1,1.1C-394,357.5-393.5,358-393,358.5"/>
<path class="st9" d="M-401.1,359c0.5,0.6,1,1.1,1.5,1.7l1.2-1c-0.5-0.6-1-1.2-1.5-1.7L-401.1,359z"/>
<path class="st9" d="M-403.1,354.6l-1.1,1.2c0.5,0.5,1.1,1,1.6,1.6l1.2-1.1C-402,355.6-402.6,355.1-403.1,354.6"/>
<path class="st9" d="M-328.3,331.4c-0.1,0.1-0.2,0.2-0.3,0.3c-0.1,0.1-0.2,0.2-0.3,0.3c-0.1,0.1-0.3,0.3-0.4,0.4
	c-0.1,0.1-0.2,0.2-0.3,0.3c-0.1,0.1-0.3,0.3-0.4,0.4c-0.1,0.1-0.2,0.2-0.3,0.3c-0.1,0.1-0.3,0.3-0.4,0.4c-0.1,0.1-0.2,0.2-0.3,0.3
	c-0.2,0.1-0.3,0.3-0.5,0.4c-0.1,0.1-0.2,0.2-0.4,0.3c-0.2,0.1-0.3,0.3-0.5,0.4c-0.1,0.1-0.2,0.2-0.4,0.4c-0.2,0.2-0.3,0.3-0.5,0.5
	c-0.1,0.1-0.2,0.2-0.4,0.3c-0.2,0.2-0.3,0.3-0.5,0.5c-0.1,0.1-0.3,0.2-0.4,0.4c-0.2,0.2-0.3,0.3-0.5,0.5c-0.1,0.1-0.3,0.3-0.4,0.4
	c-0.2,0.2-0.3,0.3-0.5,0.5c-0.1,0.1-0.2,0.2-0.3,0.3c-0.2,0.2-0.3,0.3-0.5,0.5c-0.1,0.1-0.2,0.2-0.4,0.4c-0.2,0.2-0.3,0.3-0.5,0.5
	c-0.1,0.1-0.3,0.2-0.4,0.4c-0.2,0.2-0.3,0.3-0.5,0.5c-0.1,0.1-0.3,0.3-0.4,0.4c-0.1,0.1-0.3,0.3-0.4,0.4c-0.1,0.1-0.3,0.3-0.4,0.4
	c-0.1,0.1-0.3,0.3-0.4,0.4c-0.1,0.1-0.3,0.3-0.4,0.4c-0.1,0.1-0.3,0.3-0.4,0.4c-0.1,0.1-0.3,0.3-0.4,0.4c-0.2,0.2-0.3,0.3-0.5,0.5
	c-0.1,0.1-0.2,0.2-0.4,0.4c-0.1,0.1-0.3,0.3-0.4,0.4c-0.1,0.1-0.3,0.3-0.4,0.4c-0.1,0.1-0.2,0.2-0.3,0.3c-0.2,0.2-0.3,0.3-0.5,0.5
	c-0.1,0.1-0.2,0.2-0.2,0.2c-0.2,0.2-0.4,0.4-0.5,0.5c-0.1,0.1-0.2,0.2-0.3,0.3c-0.2,0.2-0.3,0.3-0.5,0.5c-0.1,0.1-0.2,0.2-0.3,0.3
	c-0.2,0.2-0.3,0.3-0.5,0.5c-0.1,0.1-0.2,0.2-0.3,0.3c-0.2,0.2-0.3,0.3-0.5,0.5c-0.1,0.1-0.1,0.1-0.2,0.2c-0.2,0.2-0.3,0.3-0.5,0.5
	c-0.1,0.1-0.1,0.1-0.2,0.2c-0.1,0.1-0.3,0.3-0.4,0.4c-0.1,0.1-0.1,0.1-0.2,0.2c-0.1,0.1-0.3,0.3-0.4,0.4c-0.1,0.1-0.1,0.1-0.2,0.2
	c-0.1,0.1-0.2,0.2-0.4,0.4c-0.1,0.1-0.1,0.1-0.2,0.2c-0.3,0.3-0.6,0.6-0.9,0.9c-0.1,0.1-0.1,0.1-0.2,0.2c-0.1,0.1-0.2,0.2-0.2,0.2
	c-0.1,0.1-0.2,0.2-0.3,0.3c0,0-0.1,0.1-0.1,0.1c-0.1,0.1-0.2,0.3-0.4,0.4c-2.5,2.6-9.4,8.1-18.4,2.6c-0.3-0.2-0.5-0.3-0.8-0.5
	c-3.4-2.4-4.6-5.6-4.9-8.8c0-0.2,0-0.5,0-0.7c0-1.6,0.2-3.2,0.6-4.6c0.3-1,0.6-2,1-2.8c1.7-3.6,11-13,18.5-20.5
	c3.2-3.2,6.2-6.2,8.4-8.5c0.3-0.3,0.5-0.6,0.8-0.9c0.1-0.1,0.2-0.2,0.3-0.3c0.2-0.2,0.4-0.4,0.6-0.6c0.1-0.1,0.2-0.2,0.3-0.3
	c0.2-0.2,0.3-0.3,0.5-0.5c0.1-0.1,0.2-0.2,0.3-0.3c0.2-0.2,0.3-0.3,0.5-0.5c0.1-0.1,0.2-0.2,0.3-0.3c0.2-0.2,0.3-0.3,0.5-0.5
	c0.1-0.1,0.2-0.2,0.3-0.3c0.2-0.2,0.3-0.3,0.5-0.5c0.1-0.1,0.2-0.2,0.3-0.3c0.2-0.1,0.3-0.3,0.5-0.4c0.1-0.1,0.2-0.2,0.3-0.3
	c0.2-0.1,0.3-0.3,0.5-0.4c0.1-0.1,0.2-0.2,0.3-0.3c0.2-0.1,0.3-0.3,0.5-0.4c0.1-0.1,0.2-0.2,0.3-0.3c0.2-0.1,0.3-0.3,0.5-0.4
	c0.1-0.1,0.2-0.2,0.3-0.2c0.2-0.2,0.3-0.3,0.5-0.5c0.1-0.1,0.1-0.1,0.2-0.2c0.2-0.2,0.5-0.4,0.7-0.6c0,0,0.1-0.1,0.1-0.1
	c0.2-0.2,0.4-0.3,0.6-0.5c0.1-0.1,0.2-0.2,0.3-0.2c0.1-0.1,0.3-0.2,0.4-0.3c0.1-0.1,0.2-0.2,0.3-0.3c0.1-0.1,0.2-0.1,0.2-0.2
	c0.2,0.3,0.3,0.7,0.5,1c-0.5,0.4-1,0.8-1.5,1.2l1,1.2c0.4-0.4,0.8-0.7,1.2-1c3.8,7.9,5.9,16.6,6,25.4c-0.4,0.4-0.8,0.8-1.2,1.2
	l1.1,1.2c0,0,0.1-0.1,0.1-0.1C-328.2,330.3-328.3,330.8-328.3,331.4 M-341.9,367c-8,9.7-18.5,16.7-30.5,20.1
	c-0.1-0.3-0.1-0.6-0.2-0.9c-0.7-3-1.6-7.5-3.1-13.3c-2.9-11.4-8.2-15.7-17-22.9l-1.2-1c-7.5-6.1-11-9.9-12.1-11.2c0,0,0,0,0,0
	c0,0,0,0,0,0c0,0,0,0,0.1,0c0,0,0,0,0,0c0,0,0.1,0,0.1,0c0,0,0,0,0,0c0,0,0.1,0,0.1,0c0,0,0,0,0,0c0,0,0,0,0.1,0c0,0,0,0,0,0
	c0,0,0,0,0,0c0.3,0.1,0.7,0.2,1,0.3l0.1-0.2l1.3,0.1l-1.1-1l0.1-0.5c-0.3-0.1-0.6-0.2-0.9-0.2c-0.7-0.7-3.7-3.9-3.7-7.6
	c0-5.2,3.3-9.3,9.9-12.1c2.4-1,7.1-0.5,10.2-0.2c1.5,0.2,2.6,0.3,3.3,0.2c2.3-0.2,28.9-14.1,36.6-18.6c0.3-0.2,0.5-0.3,0.8-0.5
	c0.1,0,0.2-0.1,0.2-0.1c0.2-0.1,0.4-0.2,0.5-0.3c0.1-0.1,0.2-0.1,0.3-0.2c0.2-0.1,0.3-0.2,0.5-0.3c0.1-0.1,0.2-0.1,0.3-0.2
	c0.1-0.1,0.3-0.2,0.4-0.3c0.1-0.1,0.2-0.1,0.3-0.2c0.1-0.1,0.3-0.2,0.4-0.2c0.1,0,0.2-0.1,0.3-0.1c0.1-0.1,0.3-0.2,0.4-0.2
	c0.1,0,0.2-0.1,0.2-0.1c0.1-0.1,0.3-0.2,0.4-0.2c0.1,0,0.1-0.1,0.2-0.1c0.2-0.1,0.3-0.2,0.5-0.3c0,0,0,0,0.1,0
	c0.2-0.1,0.4-0.2,0.6-0.3c0,0,0.1-0.1,0.1-0.1c0.1-0.1,0.3-0.2,0.4-0.2c0.1,0,0.1-0.1,0.2-0.1c0.1-0.1,0.2-0.1,0.3-0.2
	c0.1,0,0.1-0.1,0.2-0.1c0.1,0,0.2-0.1,0.2-0.1c0.1,0,0.2-0.1,0.2-0.1c0.1,0,0.1-0.1,0.2-0.1c0.1-0.1,0.2-0.1,0.3-0.2
	c0,0,0.1,0,0.1-0.1c0.1-0.1,0.2-0.1,0.3-0.2c0,0,0,0,0,0c1,1.4,2,2.9,2.9,4.4l-0.6-0.7c-0.5,0.5-1.1,1-1.7,1.5l1,1.2
	c0.6-0.5,1.1-0.9,1.6-1.4c0.1,0.2,0.2,0.3,0.3,0.5c0,0,0,0-0.1,0c-0.1,0.1-0.1,0.1-0.2,0.2c-0.1,0.1-0.3,0.2-0.4,0.4
	c-0.1,0.1-0.2,0.1-0.2,0.2c-0.1,0.1-0.3,0.2-0.4,0.4c-0.1,0.1-0.2,0.2-0.3,0.2c-0.1,0.1-0.3,0.2-0.4,0.4c-0.1,0.1-0.2,0.2-0.3,0.3
	c-0.1,0.1-0.3,0.2-0.4,0.4c-0.1,0.1-0.2,0.2-0.3,0.3c-0.1,0.1-0.3,0.3-0.4,0.4c-0.1,0.1-0.2,0.2-0.3,0.3c-0.1,0.1-0.3,0.3-0.4,0.4
	c-0.1,0.1-0.2,0.2-0.3,0.3c-0.1,0.1-0.3,0.3-0.4,0.4c-0.1,0.1-0.2,0.2-0.3,0.3c-0.2,0.1-0.3,0.3-0.5,0.4c-0.1,0.1-0.2,0.2-0.3,0.3
	c-0.2,0.1-0.3,0.3-0.5,0.4c-0.1,0.1-0.2,0.2-0.3,0.3c-0.2,0.1-0.3,0.3-0.5,0.5c-0.1,0.1-0.2,0.2-0.4,0.3c-0.2,0.2-0.3,0.3-0.5,0.5
	c-0.1,0.1-0.2,0.2-0.3,0.3c-0.2,0.2-0.3,0.3-0.5,0.5c-0.1,0.1-0.2,0.2-0.3,0.3c-0.2,0.2-0.3,0.4-0.5,0.5c-0.1,0.1-0.2,0.2-0.3,0.3
	c-0.2,0.2-0.4,0.4-0.6,0.6c-0.1,0.1-0.2,0.2-0.3,0.3c-0.3,0.3-0.6,0.6-0.8,0.9c-2.2,2.3-5.2,5.3-8.3,8.5c-8,8-17.1,17.1-18.8,20.9
	c-1.4,3.1-2,6.7-1.6,9.9c0.6,4.1,2.7,7.3,6.3,9.5c0.2,0.1,0.4,0.2,0.6,0.4c0.1,0,0.1,0.1,0.2,0.1c0.1,0.1,0.3,0.2,0.4,0.2
	c0.1,0,0.1,0.1,0.2,0.1c0.1,0.1,0.3,0.1,0.4,0.2c0.1,0,0.1,0.1,0.2,0.1c0.2,0.1,0.4,0.2,0.5,0.2c0,0,0.1,0,0.1,0
	c0.2,0.1,0.4,0.2,0.6,0.2c0.1,0,0.1,0,0.2,0.1c0.2,0.1,0.3,0.1,0.5,0.2c0.1,0,0.1,0,0.2,0.1c0.1,0,0.3,0.1,0.4,0.1
	c0.1,0,0.1,0,0.2,0.1c0.2,0,0.3,0.1,0.5,0.1c0,0,0.1,0,0.1,0c0.2,0,0.4,0.1,0.6,0.1c0,0,0.1,0,0.1,0c0.2,0,0.3,0.1,0.5,0.1
	c0.1,0,0.1,0,0.2,0c0.1,0,0.3,0,0.4,0c0.1,0,0.1,0,0.2,0c0.2,0,0.3,0,0.5,0c0.1,0,0.1,0,0.2,0c0.2,0,0.4,0,0.6,0c0,0,0,0,0,0
	c0.2,0,0.5,0,0.7,0c0.1,0,0.1,0,0.2,0c0.2,0,0.4,0,0.5,0c0.1,0,0.2,0,0.3,0c0.2,0,0.3,0,0.5-0.1c0.1,0,0.2,0,0.3,0
	c0.2,0,0.3-0.1,0.5-0.1c0.1,0,0.2,0,0.3-0.1c0.2,0,0.4-0.1,0.5-0.1c0.1,0,0.1,0,0.2,0c0.2-0.1,0.5-0.1,0.7-0.2c0,0,0.1,0,0.1-0.1
	c0.2-0.1,0.4-0.1,0.6-0.2c0.1,0,0.2-0.1,0.2-0.1c0.2-0.1,0.3-0.1,0.5-0.2c0.1,0,0.2-0.1,0.3-0.1c0.2-0.1,0.3-0.1,0.5-0.2
	c0.1,0,0.2-0.1,0.2-0.1c0.2-0.1,0.3-0.2,0.5-0.3c0.1,0,0.1-0.1,0.2-0.1c0.2-0.1,0.5-0.3,0.7-0.4c0,0,0.1,0,0.1-0.1
	c0.2-0.1,0.4-0.3,0.6-0.4c0.1-0.1,0.1-0.1,0.2-0.2c0.1-0.1,0.3-0.2,0.4-0.3c0.1-0.1,0.2-0.1,0.2-0.2c0.1-0.1,0.3-0.2,0.4-0.3
	c0.1-0.1,0.2-0.1,0.2-0.2c0.1-0.1,0.3-0.3,0.4-0.4c0.1-0.1,0.1-0.1,0.2-0.2c0.2-0.2,0.4-0.4,0.6-0.6c0.1-0.1,0.2-0.2,0.3-0.4
	c0,0,0.1-0.1,0.1-0.1c0.1-0.1,0.2-0.2,0.3-0.3c0,0,0.1-0.1,0.1-0.1c0.1-0.1,0.2-0.2,0.3-0.3c0,0,0.1-0.1,0.1-0.1
	c0.1-0.1,0.2-0.2,0.4-0.4c0,0,0.1-0.1,0.1-0.1c0.1-0.1,0.2-0.2,0.4-0.4c0.1-0.1,0.1-0.1,0.2-0.2c0.1-0.1,0.3-0.3,0.4-0.4
	c0,0,0.1-0.1,0.2-0.2c0.1-0.1,0.3-0.3,0.4-0.4c0.1-0.1,0.1-0.1,0.2-0.2c0.2-0.2,0.3-0.3,0.5-0.5c0,0,0.1-0.1,0.1-0.1
	c0.2-0.2,0.4-0.4,0.6-0.6c0,0,0.1-0.1,0.1-0.1c0.2-0.2,0.4-0.4,0.6-0.6c0,0,0.1-0.1,0.1-0.1c0.2-0.2,0.4-0.4,0.6-0.6
	c0,0,0.1-0.1,0.1-0.1c0.6-0.6,1.3-1.3,2-2c0.9-0.9,1.7-1.7,2.6-2.6c0.3-0.3,0.6-0.6,1-0.9c0,0,0.1-0.1,0.1-0.1
	c0.2-0.2,0.5-0.5,0.7-0.7c0.1-0.1,0.1-0.1,0.2-0.2c0.2-0.2,0.4-0.4,0.7-0.7c0.1-0.1,0.1-0.1,0.2-0.2c0.2-0.2,0.4-0.4,0.6-0.6
	c0.1-0.1,0.2-0.2,0.2-0.2c0.2-0.2,0.4-0.4,0.6-0.6c0.1-0.1,0.2-0.2,0.3-0.3c0.2-0.2,0.4-0.4,0.5-0.5c0.1-0.1,0.2-0.2,0.3-0.3
	c0.2-0.2,0.4-0.4,0.6-0.5c0.1-0.1,0.2-0.2,0.3-0.3c0.2-0.2,0.4-0.4,0.5-0.5c0.1-0.1,0.2-0.2,0.3-0.3c0.2-0.2,0.3-0.3,0.5-0.5
	c0.1-0.1,0.2-0.2,0.3-0.3c0.2-0.2,0.3-0.3,0.5-0.5c0.1-0.1,0.2-0.2,0.3-0.3c0.2-0.2,0.3-0.3,0.5-0.5c0.1-0.1,0.2-0.2,0.3-0.3
	c0.2-0.2,0.3-0.3,0.5-0.5c0.1-0.1,0.2-0.2,0.3-0.3c0.2-0.2,0.5-0.5,0.7-0.7C-329.5,346-334.1,357.5-341.9,367 M-374.6,387.7
	c-1-5.4-2.8-14.1-4.4-18.2c-2.1-5.4-5.6-10.3-10.7-14.8c6.3,5.3,10.1,9.6,12.4,18.7c1.4,5.8,2.4,10.3,3.1,13.2
	c0.1,0.3,0.1,0.7,0.2,1C-374.2,387.6-374.4,387.6-374.6,387.7 M-377,388.2c0-0.1,0-0.1,0-0.2l-1.6,0.4c0,0,0,0.1,0,0.1
	c-3.5,0.6-7,0.9-10.5,0.9c-7.3,0-14.4-1.3-21.2-3.8c0,0,0,0,0,0c0.1,0,0.2-0.1,0.3-0.1c0,0,0,0,0,0c0.1,0,0.2-0.1,0.2-0.1
	c0,0,0.1,0,0.1,0c0.1,0,0.1,0,0.2-0.1c0,0,0,0,0.1,0c0.1,0,0.1,0,0.2-0.1c0,0,0,0,0,0c0.1,0,0.1,0,0.2-0.1c0,0,0,0,0.1,0
	c0,0,0.1,0,0.1,0c0,0,0,0,0,0c0,0,0,0,0.1,0c0,0,0,0,0,0c0,0,0,0,0,0l0.5-0.1l0.1-0.4c0-0.1,0.6-1.7,1.2-4.3c0.1-0.3,0.2-0.6,0.2-1
	c0.1-0.3,0.2-0.7,0.2-1.1c0.5-2.2,1-4.8,1.3-7.6c0.6-5.5,0.2-10.7-1-15c-0.1-0.3-0.2-0.9-0.2-1.6c0.1,0.1,0.2,0.2,0.3,0.3l1.1-1.2
	c-0.7-0.6-1.2-1-1.5-1.2c-0.1-1.7-0.1-3.7-0.1-5.4c0-0.2,0-0.3,0-0.5c0.1,0.1,0.2,0.2,0.3,0.2l1.1-1.2c-0.6-0.5-1.1-1-1.4-1.2
	c0-0.1,0-0.1,0-0.2c0,0,0,0,0,0c1.5,1.5,4.5,4.1,9.9,7.9c8.1,5.6,13.3,11.7,16.1,18.7c1.6,4.1,3.5,13.4,4.3,18
	C-376.4,388.1-376.7,388.1-377,388.2 M-406.5,340.8c0,0,0-0.1,0-0.1c0-0.1,0-0.1,0-0.2c0,0,0-0.1,0-0.1c0-0.1,0-0.1,0-0.2
	c0,0,0-0.1,0-0.1c0-0.1,0-0.2,0-0.3c0-0.1,0-0.1,0-0.2c1.6,1.8,5.2,5.3,11.6,10.6l1.2,1c0.2,0.1,0.3,0.3,0.5,0.4
	c-0.8-0.6-1.6-1.2-2.4-1.7c-8-5.6-10.4-8.4-10.9-9C-406.5,340.9-406.5,340.9-406.5,340.8 M-326.6,329.8c0-0.4,0-0.8,0-1.2
	c0-10.5-2.7-20.8-7.7-30l0,0l-0.3-0.6l-0.5-0.8l0,0c-1.1-1.8-2.2-3.6-3.4-5.3l0,0l-0.5-0.7l-0.4-0.6l0,0l-0.6,0.4
	c-0.2,0.1-0.5,0.3-0.8,0.5c-0.2,0.2-0.5,0.3-0.8,0.5c0,0-0.1,0-0.1,0.1c-0.1,0.1-0.2,0.1-0.3,0.2c-0.1,0-0.1,0.1-0.2,0.1
	c-0.1,0.1-0.2,0.1-0.3,0.2c-0.1,0-0.1,0.1-0.2,0.1c-0.1,0.1-0.2,0.1-0.4,0.2c-0.1,0-0.1,0.1-0.2,0.1c-0.1,0.1-0.3,0.2-0.4,0.2
	c-0.1,0-0.1,0.1-0.2,0.1c-0.4,0.2-0.8,0.5-1.2,0.7c0,0-0.1,0-0.1,0.1c-0.2,0.1-0.3,0.2-0.5,0.3c-0.1,0-0.1,0.1-0.2,0.1
	c-0.2,0.1-0.3,0.2-0.5,0.3c-0.1,0-0.1,0.1-0.2,0.1c-0.2,0.1-0.3,0.2-0.5,0.3c-0.1,0-0.2,0.1-0.2,0.1c-0.2,0.1-0.3,0.2-0.5,0.3
	c-0.1,0-0.2,0.1-0.2,0.1c-0.2,0.1-0.4,0.2-0.6,0.3c-0.1,0-0.1,0.1-0.2,0.1c-0.3,0.2-0.5,0.3-0.8,0.5c-9.5,5.4-34,18.1-35.9,18.3
	c-0.5,0-1.7-0.1-3-0.2c-3.5-0.4-8.2-0.9-11,0.3c-0.2,0.1-0.4,0.2-0.7,0.3c-5.2,2.4-8.5,5.6-9.7,9.6c-0.1,0.3-0.2,0.7-0.3,1
	c-0.2,0.9-0.3,1.7-0.3,2.7c0,3.5,2.1,6.5,3.4,7.9c-0.2,0.1-0.3,0.2-0.4,0.4c-0.7,0.7-1,1.8-0.8,3.2c0,0.5,0.1,1.1,0.1,1.9
	c0,0.3,0,0.5,0,0.8c0,1.1,0,2.4,0.1,3.7c0,1.2,0,2.5,0,3.7c0,0.7,0,1.4,0.1,2c0,0.2,0,0.5,0,0.7c0.1,1.4,0.2,2.6,0.4,3.2
	c0.1,0.3,0.1,0.5,0.2,0.8c0.7,2.7,1,5.6,1,8.8c0,0.6,0,1.3,0,1.9c0,1-0.1,1.9-0.2,2.9c-0.7,6.2-2.3,11.6-2.7,13.2
	c-0.1,0-0.2,0-0.3,0.1c0,0-0.1,0-0.1,0c-0.1,0-0.1,0-0.2,0.1c0,0-0.1,0-0.1,0c-0.1,0-0.2,0-0.2,0.1c-0.1,0-0.1,0-0.2,0.1
	c-0.1,0-0.2,0.1-0.2,0.1c-0.1,0-0.1,0-0.2,0.1c-0.1,0-0.2,0.1-0.3,0.1c-0.1,0-0.1,0-0.2,0.1c-0.1,0-0.2,0.1-0.3,0.1
	c-0.1,0-0.1,0.1-0.2,0.1c-0.1,0-0.2,0.1-0.3,0.1c-0.1,0-0.1,0.1-0.2,0.1c-0.1,0.1-0.3,0.1-0.4,0.2l-1.4,0.8l0,0l1.5,0.6c0,0,0,0,0,0
	l0.4,0.1l0,0c7.4,3,15.2,4.5,23.2,4.5c1.2,0,2.3,0,3.5-0.1c0.4,0,0.8,0,1.2-0.1c2.1-0.2,4.1-0.4,6.2-0.8c0.5-0.1,1.1-0.2,1.6-0.3
	c0.2-0.1,0.5-0.1,0.7-0.2l0,0l0.8-0.2c0,0,0,0,0,0l0.7-0.2l0,0c0.2-0.1,0.4-0.1,0.6-0.2l0,0l0.8-0.2c0,0,0,0,0,0l0.7-0.2l0,0
	c12.4-3.5,23.2-10.6,31.4-20.6c8.4-10.3,13.2-22.7,14-36l0,0l0-0.3L-326.6,329.8L-326.6,329.8z"/>
<path class="st9" d="M-372.1,344.6l-1.6,0c0,0.7,0.1,1.4,0.3,2.4l1.6-0.3C-372.1,345.9-372.1,345.2-372.1,344.6"/>
<path class="st9" d="M-363,357.1l-0.2,1.6c0.3,0,0.7,0.1,1,0.1c0.5,0,1,0,1.5-0.1l-0.3-1.6C-361.6,357.2-362.3,357.2-363,357.1"/>
<path class="st9" d="M-359.2,356.4l0.8,1.4c0.6-0.4,1.2-0.8,1.9-1.4l-1-1.3C-358.1,355.6-358.7,356.1-359.2,356.4"/>
<path class="st9" d="M-367.8,357.1c0.7,0.4,1.4,0.8,2.2,1.1l0.6-1.5c-0.6-0.2-1.3-0.6-1.9-0.9L-367.8,357.1z"/>
<path class="st9" d="M-371.2,353.7c0.5,0.7,1,1.3,1.6,1.8l1.1-1.2c-0.5-0.5-1-1-1.4-1.6L-371.2,353.7z"/>
<path class="st9" d="M-365.6,333.7l-1.2-1.1c-0.5,0.6-1.1,1.2-1.5,1.7l1.2,1.1C-366.7,334.9-366.2,334.3-365.6,333.7"/>
<path class="st9" d="M-371.3,349.5c0-0.2-0.1-0.4-0.1-0.6l-1.6,0.3c0,0.2,0.1,0.4,0.1,0.6c0.1,0.6,0.3,1.2,0.5,1.7l1.5-0.6
	C-371.1,350.5-371.2,350-371.3,349.5"/>
<path class="st9" d="M-355.7,353.7l1.1,1.2c0.5-0.5,1.1-1,1.7-1.5l-1.1-1.2C-354.6,352.7-355.2,353.3-355.7,353.7"/>
<path class="st9" d="M-336.1,334.9l1.1,1.2c0.5-0.5,1.1-1,1.7-1.5l-1.1-1.2C-335,333.9-335.5,334.4-336.1,334.9"/>
<path class="st9" d="M-371,340.7l-1.4-0.8c-0.4,0.8-0.7,1.5-0.9,2.2l1.6,0.5C-371.7,342-371.4,341.4-371,340.7"/>
<path class="st9" d="M-339.4,338l1.1,1.2c0.6-0.5,1.1-1,1.6-1.5l-1.1-1.2C-338.3,337-338.8,337.5-339.4,338"/>
<path class="st9" d="M-332.8,331.8l1.1,1.2c0.5-0.5,1.1-1,1.7-1.6l-1.1-1.2C-331.7,330.8-332.2,331.3-332.8,331.8"/>
<path class="st9" d="M-352.4,350.7l1.1,1.2c0.5-0.5,1.1-1,1.6-1.6l-1.1-1.2C-351.3,349.6-351.8,350.2-352.4,350.7"/>
<path class="st9" d="M-349.1,347.5l1.1,1.2c0.5-0.5,1.1-1.1,1.6-1.6l-1.1-1.2C-348.1,346.5-348.6,347-349.1,347.5"/>
<path class="st9" d="M-343.7,310.8l-1.1-1.1c-0.5,0.5-1.1,1.1-1.6,1.6l1.2,1.1C-344.7,311.9-344.2,311.4-343.7,310.8"/>
<path class="st9" d="M-345.9,344.3l1.1,1.1c0.5-0.5,1.1-1.1,1.6-1.6l-1.1-1.2C-344.8,343.3-345.4,343.8-345.9,344.3"/>
<path class="st9" d="M-342.7,341.2l1.1,1.2c0.5-0.5,1.1-1.1,1.6-1.6l-1.1-1.2C-341.6,340.1-342.1,340.6-342.7,341.2"/>
<path class="st9" d="M-337.2,304.6l-1.1-1.2c-0.5,0.5-1.1,1-1.7,1.5l1.1,1.2C-338.3,305.6-337.7,305-337.2,304.6"/>
<path class="st9" d="M-368.6,337.1l-1.3-1c-0.5,0.6-1,1.3-1.4,1.9l1.3,0.9C-369.5,338.3-369.1,337.7-368.6,337.1"/>
<path class="st9" d="M-346.8,314.1l-1.2-1.1c-0.5,0.5-1,1.1-1.6,1.6l1.2,1.1C-347.9,315.2-347.4,314.6-346.8,314.1"/>
<path class="st9" d="M-350,317.3l-1.2-1.1c-0.5,0.5-1,1.1-1.6,1.6l1.2,1.1C-351,318.4-350.5,317.9-350,317.3"/>
<path class="st9" d="M-340.5,307.7l-1.1-1.2c-0.5,0.5-1.1,1-1.6,1.6l1.1,1.1C-341.5,308.7-341,308.2-340.5,307.7"/>
<path class="st9" d="M-363.5,331.5c0.3-0.3,0.6-0.7,1-1l-1.2-1.1c-0.3,0.3-0.6,0.7-1,1c-0.2,0.2-0.4,0.4-0.6,0.6l1.2,1.1
	C-363.9,331.9-363.7,331.7-363.5,331.5"/>
<rect x="-355.6" y="320.1" transform="matrix(0.6873 -0.7264 0.7264 0.6873 -343.9286 -157.1287)" class="st9" width="2.3" height="1.6"/>
<path class="st9" d="M-359.3,327.2l-1.2-1.1c-0.5,0.6-1.1,1.1-1.6,1.6l1.2,1.1C-360.4,328.3-359.9,327.8-359.3,327.2"/>
<path class="st9" d="M-356.2,323.9l-1.2-1.1c-0.5,0.6-1,1.1-1.6,1.6l1.2,1.1C-357.3,325-356.7,324.5-356.2,323.9"/>
<path class="st9" d="M-356.4,346.8c-4.2,0-7.5-3.4-7.5-7.5c0-4.1,3.4-7.5,7.5-7.5s7.5,3.4,7.5,7.5
	C-348.9,343.4-352.3,346.8-356.4,346.8 M-356.4,330.1c-5,0-9.1,4.1-9.1,9.1c0,5,4.1,9.1,9.1,9.1s9.1-4.1,9.1-9.1
	C-347.3,334.2-351.4,330.1-356.4,330.1"/>
<path class="st9" d="M-356.4,342.5c-1.8,0-3.2-1.5-3.2-3.2c0-1.8,1.5-3.2,3.2-3.2s3.2,1.5,3.2,3.2
	C-353.2,341-354.7,342.5-356.4,342.5 M-356.4,334.4c-2.7,0-4.9,2.2-4.9,4.9c0,2.7,2.2,4.9,4.9,4.9s4.9-2.2,4.9-4.9
	C-351.6,336.6-353.8,334.4-356.4,334.4"/>
<defs>
	<filter id="Adobe_OpacityMaskFilter_2_" filterUnits="userSpaceOnUse" x="-521.9" y="461.4" width="240.2" height="240.2">
		<feColorMatrix  type="matrix" values="1 0 0 0 0  0 1 0 0 0  0 0 1 0 0  0 0 0 1 0"/>
	</filter>
</defs>
<mask maskUnits="userSpaceOnUse" x="-521.9" y="461.4" width="240.2" height="240.2" id="SVGID_9_">
	<g class="st10">
		
			<linearGradient id="SVGID_10_" gradientUnits="userSpaceOnUse" x1="-253.1502" y1="5080.7188" x2="-252.0276" y2="5080.7188" gradientTransform="matrix(49.8297 29.0015 29.0015 -49.8297 -135090.9375 260953.6094)">
			<stop  offset="0" style="stop-color:#FFFFFF"/>
			<stop  offset="1" style="stop-color:#000000"/>
		</linearGradient>
		<polygon class="st11" points="-481.8,-5489.4 5027.4,-2282.9 -66,6468.4 -5575.2,3262 		"/>
	</g>
</mask>
<g class="st12">
	<g>
		<defs>
			<rect id="SVGID_11_" x="-521.9" y="461.4" width="240.2" height="240.2"/>
		</defs>
		<clipPath id="SVGID_12_">
			<use xlink:href="#SVGID_11_"  style="overflow:visible;"/>
		</clipPath>
		<path class="st13" d="M-401.8,666.9c-21.9,0-43.7-8.3-60.4-25c-33.3-33.3-33.3-87.5,0-120.8c33.3-33.3,87.5-33.3,120.8,0
			c33.3,33.3,33.3,87.5,0,120.8C-358,658.6-379.9,666.9-401.8,666.9z M-401.8,502.3c-20.3,0-40.6,7.7-56.1,23.2
			c-30.9,30.9-30.9,81.3,0,112.2c30.9,30.9,81.3,30.9,112.2,0c30.9-30.9,30.9-81.3,0-112.2C-361.1,510-381.4,502.3-401.8,502.3z"/>
	</g>
</g>
<path class="st4" d="M-370.8,628.3c-0.4,0.1-0.9-0.2-1-0.6c-1.9-7.8-7.1-8-7.4-8c-0.3,0-0.6-0.2-0.8-0.5c-1.7-4.6-4.4-7.4-7.8-8.5
	c-2.6-0.8-4.6-0.3-4.6-0.3c-0.4,0.1-0.7-0.1-0.9-0.4c-4.3-7.9-12.3-6.1-12.4-6c-0.2,0.1-0.5,0-0.7-0.1c-0.2-0.1-0.3-0.3-0.3-0.5
	c-2.5-9.3-11.4-8.3-11.8-8.3c-0.2,0-0.5,0-0.7-0.2c-0.2-0.2-0.3-0.4-0.3-0.6c0.3-5.6-5-8.9-5.1-8.9c-0.4-0.2-0.5-0.7-0.3-1.1
	c0.2-0.4,0.7-0.5,1.1-0.3c0,0,0,0,0,0c0.1-0.3,0.3-0.6,0.6-0.6c1.3-0.3,2.6-0.5,3.9-0.6c0.5,0,0.9,0.3,0.9,0.7
	c0.1,0.5-0.3,0.9-0.7,0.9c-1.1,0.1-2.3,0.3-3.5,0.5c1.7,1.4,4.4,4.3,4.6,8.5c3.8-0.1,10.1,1.5,12.5,8.9c2.3-0.3,9.1-0.5,13.2,6.5
	c0.9-0.1,2.7-0.2,4.9,0.5c2.7,0.9,6.3,3.1,8.7,9.1c1.1,0.2,3.7,0.8,5.8,3.6c0.1-0.1,0.2-0.2,0.4-0.2c0.4-0.1,0.9,0.2,1,0.6
	c0.3,1.2,0.6,2.5,0.9,3.8c0,0.1,0,0.3,0,0.4c0.1,0.3,0.2,0.7,0.3,1C-370.1,627.8-370.3,628.2-370.8,628.3 M-426.4,585.8
	c-1.2,0.4-2.4,0.8-3.6,1.2c-0.3,0.1-0.5,0.1-0.8-0.1c-0.1-0.1-0.2-0.2-0.3-0.4c-0.2-0.4,0-0.9,0.5-1.1c1.2-0.5,2.5-0.9,3.8-1.3
	c0.4-0.1,0.9,0.1,1,0.6C-425.7,585.2-425.9,585.6-426.4,585.8 M-416.3,582.7c0,0,0.2,0.1,0.4,0.3c0.1-0.4,0.4-0.6,0.8-0.6
	c1.3,0,2.7,0,4,0.2c0.5,0,0.8,0.4,0.7,0.9c0,0.5-0.4,0.8-0.9,0.7c-1.1-0.1-2.3-0.1-3.4-0.2c1.4,1.3,3.1,3.5,3.3,6.5
	c3.2-0.1,8.3,1.4,10.3,7.3c2-0.2,7.5-0.3,10.9,5.4c2-0.2,8-0.1,11.3,7.9c1,0.2,3.2,0.8,4.9,3.1c0,0,0.1,0.1,0.1,0.2
	c0.8,1.1,1.5,2.5,2,4.4c0.1,0.4-0.2,0.9-0.6,1c-0.2,0.1-0.5,0-0.7-0.1c-0.1-0.1-0.2-0.2-0.3-0.4c-0.1,0-0.2-0.1-0.3-0.1
	c-0.1-0.1-0.3-0.2-0.3-0.4c-0.4-1.2-0.8-2.4-1.2-3.5c-1.9-2.5-4.2-2.5-4.2-2.5c-0.3,0-0.6-0.2-0.8-0.5c-3.3-8.8-9.9-7.3-10.2-7.3
	c-0.4,0.1-0.7-0.1-0.9-0.4c-3.5-6.5-9.9-5-10.1-4.9c-0.4,0.1-0.9-0.2-1-0.6c-2-7.7-9.3-6.8-9.6-6.8c-0.2,0-0.5,0-0.7-0.2
	c-0.2-0.2-0.3-0.4-0.3-0.6c0.2-4.5-4.1-7.2-4.1-7.2c-0.4-0.2-0.5-0.7-0.3-1.1C-417.2,582.6-416.7,582.5-416.3,582.7 M-408,583.6
	c0.2-0.3,0.5-0.5,0.9-0.4c1.3,0.3,2.6,0.6,3.9,1c0.4,0.1,0.7,0.6,0.5,1c-0.1,0.4-0.6,0.7-1,0.5c-0.8-0.3-1.7-0.5-2.5-0.7
	c0.9,0.9,1.8,2.4,2,4.2c1.8,0,5.8,0.7,7.3,5.2c1.6-0.2,5.4,0,7.8,3.9c1.3-0.1,4.2,0,6.5,2.9c-0.1-0.3,0-0.7,0.3-1
	c0.4-0.3,0.9-0.2,1.1,0.2c0.8,1.1,1.5,2.2,2.2,3.3c0.2,0.3,0.1,0.7-0.1,1c1.2,0.7,2.4,2.1,3.1,4.6c0.2,0.5,0.4,0.9,0.6,1.4
	c0.2,0.4,0,0.9-0.4,1.1c-0.3,0.1-0.6,0.1-0.8-0.1c-0.1-0.1-0.2-0.2-0.3-0.3c-0.2-0.3-0.3-0.7-0.5-1c-0.1-0.1-0.2-0.2-0.2-0.3
	c0-0.1,0-0.1,0-0.1c-0.3-0.7-0.6-1.3-1-2c-0.1-0.1-0.1-0.3-0.1-0.5c-1.3-1.8-2.9-1.9-3-1.9c-0.3,0-0.6-0.2-0.8-0.5
	c-2.3-6.2-6.8-5.1-7-5.1c-0.4,0.1-0.7-0.1-0.9-0.4c-2.4-4.5-7-3.4-7-3.4c-0.2,0.1-0.5,0-0.7-0.1c-0.2-0.1-0.3-0.3-0.3-0.5
	c-1.4-5.3-6.5-4.7-6.7-4.7c-0.2,0-0.5,0-0.7-0.2c-0.2-0.2-0.3-0.4-0.3-0.6c0.1-3.1-2.8-5-2.9-5c-0.4-0.2-0.5-0.7-0.3-1.1
	C-408.8,583.6-408.4,583.5-408,583.6 M-399.5,585.5c1.2,0.5,2.4,1.1,3.6,1.8c0.4,0.2,0.5,0.7,0.3,1.1c-0.2,0.4-0.7,0.5-1.1,0.3
	c-1.1-0.6-2.3-1.2-3.5-1.7c-0.1,0-0.1-0.1-0.1-0.1c-0.3-0.2-0.4-0.6-0.3-1C-400.4,585.6-399.9,585.4-399.5,585.5 M-392.5,589.4
	c1.1,0.7,2.2,1.5,3.2,2.4c0.4,0.3,0.4,0.8,0.1,1.2c-0.3,0.3-0.8,0.4-1.1,0.1c0,0,0,0-0.1,0c-1-0.8-2-1.6-3.1-2.3
	c-0.4-0.2-0.5-0.8-0.2-1.1C-393.4,589.2-392.8,589.1-392.5,589.4 M-387.4,594.4c0.3-0.3,0.8-0.3,1.2,0c0.9,0.9,1.8,1.9,2.7,2.9
	c0.3,0.3,0.3,0.9-0.1,1.2c-0.3,0.2-0.7,0.3-1,0c-0.1,0-0.1-0.1-0.2-0.1c-0.8-1-1.7-1.9-2.6-2.8
	C-387.8,595.3-387.8,594.8-387.4,594.4 M-344.6,625.8c6.5-14.1-4.6-22.4-23.2-35.3c-18.5-13-10.5-22.1-23.9-35.9
	c-13.4-13.8-39.6-21.4-50.2-6.3c-8.7,12.5-3.7,28.3,6.5,39.3c0.3-0.2,0.7-0.3,1-0.5c0.4-0.2,0.9,0,1.1,0.4c0.2,0.4,0,0.9-0.4,1.1
	c-0.2,0.1-0.3,0.2-0.5,0.3c4.3,4.3,9.4,7.8,14.7,9.9c26.2,10.4,33.2,22.2,45.5,30.9c0.9,0.6,1.8,1.2,2.8,1.8
	c-0.1-0.4-0.1-0.8-0.2-1.2c-0.1-0.4,0.2-0.9,0.7-0.9c0.4-0.1,0.9,0.2,1,0.7c0.1,0.6,0.2,1.3,0.3,1.9c0,0.2,0,0.4-0.1,0.5
	C-361.3,636.5-350.5,638.6-344.6,625.8"/>
<path class="st9" d="M-357,301l-1.2-1.1c-0.5,0.6-1.1,1.1-1.6,1.6l1.2,1.1C-358,302.1-357.5,301.6-357,301"/>
<path class="st9" d="M-353.8,297.7l-1.2-1.1c-0.5,0.6-1,1.1-1.6,1.6l1.2,1.1C-354.9,298.8-354.4,298.3-353.8,297.7"/>
<path class="st9" d="M105.1,33.1c-6.8,0-13.4-0.5-19.9,0.1c-7.7,0.7-12.7,5.5-14.7,12.9c-0.9,3.3-0.9,6.9-1.1,10.3
	c-0.2,2.7,0,5.4,0,8.4h-9.6v17.4h9.7v49.2h20.4V82.1h13.8c0.6-5.8,1.2-11.4,1.8-17.5H89.8c0-3.7-0.1-7,0-10.2c0.1-3.2,1.7-4.8,5-4.8
	c3.3,0.1,6.7,0,10.2,0V33.1z M82.6,162.5c-44.2,0-80-35.9-80-80.1c0-44.2,35.9-80.1,80.1-80c44,0.1,79.8,35.9,79.8,79.9
	C162.6,126.5,126.8,162.4,82.6,162.5"/>
</svg>
