<?xml version="1.0" encoding="utf-8"?>
<!-- Generator: Adobe Illustrator 22.0.1, SVG Export Plug-In . SVG Version: 6.00 Build 0)  -->
<svg version="1.1" id="Layer_1" xmlns="http://www.w3.org/2000/svg" xmlns:xlink="http://www.w3.org/1999/xlink" x="0px" y="0px"
	 viewBox="0 0 500 500" style="enable-background:new 0 0 500 500;" xml:space="preserve">
<style type="text/css">
	.st0{fill:#FFFFFF;}
</style>
<path class="st0" d="M179.7,476.9c4.5-8.1,8.9-16.2,13.5-24.2c11.7-20.7,17.3-43.4,23-66.2c2.2-8.9,4.7-17.8,7.2-27.4
	c11.1,15.6,26.2,23.4,43.9,25.8c25.7,3.5,49.4-3,70.9-17c25-16.2,41.6-39.3,51.7-67c12.4-34.1,15.9-69,4.7-104
	c-13.7-42.7-43.1-71.4-84.9-86.1c-48.3-16.9-96.1-13.2-141.1,11.3c-40.9,22.2-63.4,58.1-69.4,104.1c-4.5,34,3.3,65,24.4,92.3
	c5.9,7.7,13.3,13.8,22.1,18c5.2,2.5,7.1,1.5,8.6-4.2c2.1-8.1,4.3-16.1,5.9-24.3c0.5-2.6,0.1-6.1-1.4-8.2
	c-20.2-29.4-22.8-61-9.6-93.4c15-36.9,43.7-57.3,82.9-62.6c24.5-3.4,48.1-0.3,69.8,12.3c26.9,15.6,41.6,39.5,44.8,70.2
	c3,28.7-1.2,56.4-15,82.1c-10,18.7-24.2,32.7-45.5,37.9c-8.1,2-16.2,2.4-24.3,0c-18.7-5.4-28.8-22.7-23.8-41.9
	c4.7-18.2,10.8-36.1,15.3-54.3c2.3-9.5,4.2-19.6,3.5-29.2c-2.3-30.5-31.7-33.6-48-22.9c-14.3,9.4-20.8,23.6-23.4,39.9
	c-2.5,15.4-0.3,30.4,5,45.1c0.7,2,0.6,4.6,0.1,6.7c-8.9,38-17.9,76-26.8,114c-4.3,18.4-3.4,37.1-2,55.8c0.3,3.8,0.6,7.6,0.9,11.6
	c-98.6-36-177.4-152.4-142-283.8C56,56.4,194.9-17.3,324.6,25.2C452.4,67,520.1,209.9,470.9,335.7
	C420.6,464.5,284.2,511.3,179.7,476.9"/>
</svg>
