<?xml version="1.0" encoding="utf-8"?>
<!-- Generator: Adobe Illustrator 22.0.1, SVG Export Plug-In . SVG Version: 6.00 Build 0)  -->
<svg version="1.1" id="Layer_1" xmlns="http://www.w3.org/2000/svg" xmlns:xlink="http://www.w3.org/1999/xlink" x="0px" y="0px"
	 viewBox="0 0 171.8 164.3" style="enable-background:new 0 0 171.8 164.3;" xml:space="preserve">
<style type="text/css">
	.st0{filter:url(#Adobe_OpacityMaskFilter);}
	.st1{clip-path:url(#SVGID_2_);fill:url(#SVGID_4_);}
	.st2{clip-path:url(#SVGID_2_);mask:url(#SVGID_3_);}
	.st3{clip-path:url(#SVGID_6_);fill:none;stroke:#A087A5;stroke-width:2.556;}
	.st4{filter:url(#Adobe_OpacityMaskFilter_1_);}
	.st5{clip-path:url(#SVGID_2_);fill:url(#SVGID_8_);}
	.st6{clip-path:url(#SVGID_2_);mask:url(#SVGID_7_);}
	.st7{clip-path:url(#SVGID_10_);fill:#2BB473;}
	.st8{filter:url(#Adobe_OpacityMaskFilter_2_);}
	.st9{clip-path:url(#SVGID_2_);fill:url(#SVGID_12_);}
	.st10{clip-path:url(#SVGID_2_);mask:url(#SVGID_11_);}
	.st11{clip-path:url(#SVGID_14_);fill:#00A69C;}
	.st12{filter:url(#Adobe_OpacityMaskFilter_3_);}
	.st13{clip-path:url(#SVGID_2_);fill:url(#SVGID_16_);}
	.st14{clip-path:url(#SVGID_2_);mask:url(#SVGID_15_);}
	.st15{clip-path:url(#SVGID_18_);fill:#8BC640;}
	.st16{clip-path:url(#SVGID_2_);fill:#00A69C;}
</style>
<g>
	<defs>
		<rect id="SVGID_1_" x="5.6" y="0.5" width="164.2" height="158.3"/>
	</defs>
	<clipPath id="SVGID_2_">
		<use xlink:href="#SVGID_1_"  style="overflow:visible;"/>
	</clipPath>
	<defs>
		<filter id="Adobe_OpacityMaskFilter" filterUnits="userSpaceOnUse" x="-39.2" y="-44.3" width="243.4" height="243.4">
			<feFlood  style="flood-color:white;flood-opacity:1" result="back"/>
			<feBlend  in="SourceGraphic" in2="back" mode="normal"/>
		</filter>
	</defs>
	<mask maskUnits="userSpaceOnUse" x="-39.2" y="-44.3" width="243.4" height="243.4" id="SVGID_3_">
		<g class="st0">
			
				<linearGradient id="SVGID_4_" gradientUnits="userSpaceOnUse" x1="-3.8523" y1="687.7864" x2="-2.7921" y2="687.7864" gradientTransform="matrix(49.8297 29.0015 29.0015 -49.8297 -19695.0801 34447.2852)">
				<stop  offset="0" style="stop-color:#FFFFFF"/>
				<stop  offset="1" style="stop-color:#000000"/>
			</linearGradient>
			<polygon class="st1" points="47.2,-70.9 238.7,40.5 128.3,230.2 -63.2,118.7 			"/>
		</g>
	</mask>
	<g class="st2">
		<g>
			<defs>
				<rect id="SVGID_5_" x="-39.2" y="-44.3" width="243.4" height="243.4"/>
			</defs>
			<clipPath id="SVGID_6_">
				<use xlink:href="#SVGID_5_"  style="overflow:visible;"/>
			</clipPath>
			<circle class="st3" cx="84.8" cy="79.6" r="77.8"/>
		</g>
	</g>
	<defs>
		<filter id="Adobe_OpacityMaskFilter_1_" filterUnits="userSpaceOnUse" x="54.6" y="15.4" width="91.6" height="59.3">
			<feFlood  style="flood-color:white;flood-opacity:1" result="back"/>
			<feBlend  in="SourceGraphic" in2="back" mode="normal"/>
		</filter>
	</defs>
	<mask maskUnits="userSpaceOnUse" x="54.6" y="15.4" width="91.6" height="59.3" id="SVGID_7_">
		<g class="st4">
			
				<linearGradient id="SVGID_8_" gradientUnits="userSpaceOnUse" x1="-7.3648" y1="681.7617" x2="-6.3046" y2="681.7617" gradientTransform="matrix(16.2869 61.6433 61.6433 -16.2869 -41833.9375 11578.4219)">
				<stop  offset="0" style="stop-color:#FFFFFF"/>
				<stop  offset="1" style="stop-color:#000000"/>
			</linearGradient>
			<polygon class="st5" points="159.1,-40.1 209,148.5 16.3,199.4 -33.5,10.8 			"/>
		</g>
	</mask>
	<g class="st6">
		<g>
			<defs>
				<rect id="SVGID_9_" x="54.6" y="15.4" width="91.6" height="59.3"/>
			</defs>
			<clipPath id="SVGID_10_">
				<use xlink:href="#SVGID_9_"  style="overflow:visible;"/>
			</clipPath>
			<path class="st7" d="M108.2,36.6c0,0-8-2.1-10.5-2.2c-2.5-0.1-3.8,0.3-3.4,2.2c0.4,1.9,2.7,2.7,3.8,3.1c1.1,0.3,1.7,1,0.9,1.9
				c-0.7,0.9-2.7,2.8-2.7,2.8s2.6-1.5,3.4-0.7c0.8,0.7,1.5,1.3,1.5,1.3S106.4,37.7,108.2,36.6 M67.7,57.1c0,0-0.4-0.2,0.9-0.9
				c1.3-0.7,4.9-2.5,5.7-3.2c0.8-0.7-1.4-0.5,0.7-2.3c2.2-1.7,2.9-2.2,3.4-1.9c0.4,0.3,0.5,0.9,0.5,0.9s1.4-0.6,2-1.4
				c0,0,0.5-4.2,1.4-4.4c0.9-0.2,1.9-0.6,5.9,2.6c0,0,0.6-0.8,1.9-0.7c1.3,0.1,2.2-0.2,2.5,0.6c0,0,3.1-2.1,4.6-3.9
				c1.5-1.7,2-1.7,1.1-2.1s-6-0.8-5.6-4.4c0.3-2.8,1.1-3.8,2-7.4c0.9-3.6,1.8-3,3.3-3c1.5,0,15.7,2.1,16.6,2.2
				c0.9,0.1,1.4,0.1,2-1.2c0.6-1.3,1.9-2.4,2.8-3.3c0.9-0.8,2.5-0.5,3.2,0.5c0.7,1.1,1.7,2.8,3,6c0,0,0.5-0.5,2,1.4
				c1.5,1.9,5.2,6.8,6.1,7.6c0.8,0.8,1.6,2.1,1.6,2.1s1.3,0.1,0.5,1.3c0,0,1.2,2.1,0.3,4.6c-0.9,2.5-0.1,4.4-7.7,8.1
				c-7.6,3.6-30.1,13.8-37.9,16c-7.8,2.3-20.1,5.3-24.8-1.5C61,62.5,67.7,57.1,67.7,57.1"/>
		</g>
	</g>
	<defs>
		<filter id="Adobe_OpacityMaskFilter_2_" filterUnits="userSpaceOnUse" x="8.4" y="40.8" width="80.9" height="61.1">
			<feFlood  style="flood-color:white;flood-opacity:1" result="back"/>
			<feBlend  in="SourceGraphic" in2="back" mode="normal"/>
		</filter>
	</defs>
	<mask maskUnits="userSpaceOnUse" x="8.4" y="40.8" width="80.9" height="61.1" id="SVGID_11_">
		<g class="st8">
			
				<linearGradient id="SVGID_12_" gradientUnits="userSpaceOnUse" x1="-7.4663" y1="682.6361" x2="-6.406" y2="682.6361" gradientTransform="matrix(16.0596 60.783 60.783 -16.0596 -41297.3555 11449.665)">
				<stop  offset="0" style="stop-color:#FFFFFF"/>
				<stop  offset="1" style="stop-color:#000000"/>
			</linearGradient>
			<polygon class="st9" points="159.1,-40.1 209,148.5 16.3,199.4 -33.5,10.8 			"/>
		</g>
	</mask>
	<g class="st10">
		<g>
			<defs>
				<rect id="SVGID_13_" x="8.4" y="40.8" width="80.9" height="61.1"/>
			</defs>
			<clipPath id="SVGID_14_">
				<use xlink:href="#SVGID_13_"  style="overflow:visible;"/>
			</clipPath>
			<path class="st11" d="M25.8,65.2c0.3-0.3,0.4-0.1,1.3-2.5c0.9-2.4,1.9-5.2,2.1-5.6c0.3-0.3,0.4-0.6,0.4-0.6s-0.3-3.7,0.9-5.8
				c1.2-2.1,1.6-3,2.7-2.4c1.1,0.7,1.2,1.2,2.3,1.2c1.1,0,3,0.6,4.8,2c0,0,4.2-0.2,7.1,0.4c0,0,2.6-1.1,3.7-0.6l0.9,1.8
				c0,0,1.8-0.2,2.7,0.9c0.9,1,0.7,1.2,0.7,1.2s1.1,0.2,1.3,0.9c0.2,0.6,1.4,6.2,1.4,6.5c0,0.3,0.2,0.7-0.4,1.2v0.5
				c0,0,1.2,0.2,1.6,1.6c0.4,1.3,0.5,2.9,1.9,5.3c0.5,0.9,0.3,1.2,0,1.8c0,0,0.9,2.8,5.2,8c4.3,5.1,5.9,4.7,8.3,5.9
				c2.4,1.2,4.3,2.3,4.2,5.4c-0.1,3.1-0.3,3.8-0.3,3.8s1.2-0.2,1.1,1.1c-0.1,1.3-1,2.8-4.1,3.2c-3.1,0.4-14.4,0.8-21.7-1.3
				c-7.3-2.1-10.9-2.5-16.1-7.5c-5.2-5-10-3-11.4-2.9c-1.4,0.1-6.7-1.1-7.8-3c-1.1-1.9-1-2,0.3-5.7C20.2,76.3,23.3,67.4,25.8,65.2"
				/>
		</g>
	</g>
	<defs>
		<filter id="Adobe_OpacityMaskFilter_3_" filterUnits="userSpaceOnUse" x="75.2" y="55.9" width="104.2" height="52.1">
			<feFlood  style="flood-color:white;flood-opacity:1" result="back"/>
			<feBlend  in="SourceGraphic" in2="back" mode="normal"/>
		</filter>
	</defs>
	<mask maskUnits="userSpaceOnUse" x="75.2" y="55.9" width="104.2" height="52.1" id="SVGID_15_">
		<g class="st12">
			
				<linearGradient id="SVGID_16_" gradientUnits="userSpaceOnUse" x1="-7.7923" y1="681.6158" x2="-6.732" y2="681.6158" gradientTransform="matrix(15.3824 58.2199 58.2199 -15.3824 -39480.1953 11002.2422)">
				<stop  offset="0" style="stop-color:#FFFFFF"/>
				<stop  offset="1" style="stop-color:#000000"/>
			</linearGradient>
			<polygon class="st13" points="159.1,-40.1 209,148.5 16.3,199.4 -33.5,10.8 			"/>
		</g>
	</mask>
	<g class="st14">
		<g>
			<defs>
				<rect id="SVGID_17_" x="75.2" y="55.9" width="104.2" height="52.1"/>
			</defs>
			<clipPath id="SVGID_18_">
				<use xlink:href="#SVGID_17_"  style="overflow:visible;"/>
			</clipPath>
			<path class="st15" d="M153.9,90.7c0.9-0.4,7.1,0.2,7.1,0.2s-0.5-2-1.2-4.7c-0.7-2.8-2.1-2.5-3.3-2.4c-1.2,0.2-1.9,1.2-2.8,4.1
				c-0.2,0.7-0.3,1.7-0.3,2.9L153.9,90.7z M139.7,85.2c-5.2,1.7-5.9,2.7-8.6,6.4c-2.7,3.7-2.4,10.5-2.4,10.5h7.8
				C136.2,95.5,139.7,85.2,139.7,85.2 M86.9,80.9c0.6-0.1,0.7-2.1,0.5-3.1c-0.2-1-0.7-2-0.2-4.6c0.5-2.6,0.3-4.4,3.4-4.1
				c3.1,0.3,7.7,1.6,9.5,2.2l1.8,0.6c0,0,3.1-2.6,4-2.2c0.9,0.4,1.5,1.8,1.5,1.8s5.6-3,7.7-4.5c2.1-1.5,6.1-4.4,7.2-3.6
				c1,0.8,5.3,5.1,5.9,5.6c0.6,0.5-0.3,2.7-1.6,4.1c-1.3,1.4-5.5,6-5.5,6s-2.9,6.8-3.5,13.2h1c0,0,5.2-7.7,8.1-11.6
				c2.9-3.9,6-5.8,8.6-6.6c0,0,0.7,0.3,1.6,0.9c0.9,0.7,2.1,0.8,2.1,0.8s1.3-0.4,2.3,0.3c1,0.8,2.5,1.1,2.9,1.7c0.4,0.6,0,1,0,1
				l1.2,0.6c0,0,1.2-0.3,1.5,0.1c0.3,0.4,0.5,0.4,0.5,0.4l0.4,0.1c0,0-0.1-0.9,0.5-0.6c0.6,0.3,1.3,1.1,1.3,1.1s0.7-0.6,1.4,0.1
				c0.7,0.7,0.8,1,0.8,1l0.5,0c0,0-0.4-0.7,0.5-1c0.8-0.3,1.1,0.5,1.4,0.8c0.3,0.3,0.6,0.4,0.9,0.3c0.3-0.1,1.4,0,1.7,0.6l0.3,0.6
				c0,0,2.2,0,3,1.9c0.8,1.9,1.8,6.2,1.8,6.2s6.7-0.4,6.9,2.5c0,0,1-0.1,1.1,1.1s-0.1,2.8-3.5,4.8c-3.4,2-13.9,7-28,7.4
				c-14.1,0.4-18.5-1.5-20.7-2.1c-2.2-0.6-9-1.7-13.2-0.3c-4.1,1.4-6.6,3-11.6,2.5c-5-0.5-5.5-0.5-6.2-2.8
				c-0.7-2.3-2.2-9.4-1.8-13.9C85.3,85.7,85.7,82,86.9,80.9"/>
		</g>
	</g>
	<path class="st16" d="M108.7,136.7c0-0.1,1.2-0.1,1-1c-0.2-0.8-0.1-1.3,0.1-2c0.2-1.2,0-2.2-0.3-3.7c-0.3-1.4-0.7-2-0.4-2.9
		c0.3-0.9,1.6-5.6,1.7-6c0.1-0.3-0.4-0.4-0.2-0.7c0.2-0.4,3.1-3.3,3.5-4.3c0.4-1,0.5-2.2-0.7-2.8s-1.9-0.9-2.5-0.5
		c0,0-0.2-0.8-1.5-1.1c-1.3-0.3-3.4-1.3-5.2-1.4c-1.8-0.1-5.4,0.3-5.4,0.3s-2.8-3.8-4.6-6.2l-1.8-2.4c0,0-0.6-0.7-0.9-1.1
		c-0.3-0.5-1.8-3.4-3-3.8c-1.3-0.4-3.4,0.5-3.4,0.5s-2.8-2.6-6.5-3.7c-3.7-1-3.6-0.5-4.4-0.1c-0.7,0.4-4.8,2.9-5.4,3.2
		c-0.6,0.3-0.8,1.2-0.6,1.9c0.2,0.7,0.8,1.9,0.8,2c0,0.2-0.2,0.3-0.7,0.2c-0.5,0-1.7-0.1-2.9,0.3c-1.2,0.4-2,0.7-2.6,0.9
		c-0.6,0.2-1.9,0.1-2.4,0.5l-0.6,0.5c0,0-1.2,0-2.9,0.1c-1.7,0.1-3.4-0.1-3.8,1l-4.8,0.6c0,0-0.7-0.5-2.3-0.8
		c-1.5-0.3-3-0.5-4.1-0.5c-1.1,0-1.3,0.3-1.3,0.3s-4.1-1-6.5,0.7c-2.4,1.7-3.3,2.6-3.7,4c-0.4,1.4-0.5,5.3,1.4,7.8
		c1.9,2.5,7.6,7.8,13.8,10.6c6.2,2.8,9.3,4.9,16.5,6.6c7.2,1.7,12.5,2.7,17.4,3.6c4.9,0.9,10.6,3,13.7,3.9c3.1,0.9,8.4,2.6,11.6,0.2
		C108,139.1,108.7,136.7,108.7,136.7"/>
</g>
</svg>
