<?xml version="1.0" encoding="utf-8"?>
<!-- Generator: Adobe Illustrator 22.0.1, SVG Export Plug-In . SVG Version: 6.00 Build 0)  -->
<svg version="1.1" id="Layer_1" xmlns="http://www.w3.org/2000/svg" xmlns:xlink="http://www.w3.org/1999/xlink" x="0px" y="0px"
	 viewBox="0 0 600 267.3" style="enable-background:new 0 0 600 267.3;" xml:space="preserve">
<style type="text/css">
	.st0{fill:#FFFFFF;}
</style>
<path class="st0" d="M497.3,255.7c-3.5,0-7-0.2-10.5-0.7c-2.2-0.3-4.5-0.7-6.7-1.2c-3.8-0.9-7.5-2-11.2-3.3
	c-3.7-1.4-7.6-3.1-11.5-5.2l-0.5-0.3c-6.4-3.8-10.4-9.5-11.4-16.3c-0.9-6.2,0.8-12.3,4.6-17.1c3.9-4.8,9.3-7.6,15.3-8.1
	c0.6,0,1.1-0.1,1.7-0.1c4.4,0,8.8,1.4,12.4,3.8c3.6,1.9,7.1,3.3,10.4,4c2.5,0.6,4.9,0.8,7.2,0.8c1.2,0,2.4-0.1,3.6-0.2
	c3.3-0.4,6.1-1.4,8.9-2.9c1-0.6,2-1.3,2.9-2.1c-2.3,0.4-4.6,0.7-7,0.8c-1.8,0.1-3.7,0.2-5.5,0.2c-5.5,0-11.1-0.6-16.5-1.9
	c-10-2.3-19-6.4-26.8-12.2c-7.7-5.7-14-12.8-18.7-20.9c-4.7-8-7.8-16.8-9.3-26.3c-1.5-9.5-1.1-19.2,1.1-29l11.5-50.7
	c2.4-10.5,10.8-17.5,21.1-17.5c1.1,0,2.2,0.1,3.3,0.2c0.7,0.1,1.4,0.2,2.1,0.4c6.2,1.4,11.2,4.9,14.2,10c2,3.4,4.1,9,2.3,16.6
	l-11.5,50.7c-1,4.6-1.3,8.9-0.7,13.2c0.5,4.1,1.6,7.6,3.4,10.9c1.7,3.1,4,5.7,6.9,8c2.9,2.2,6.3,3.7,10.3,4.6
	c2.4,0.5,4.8,0.8,7.2,0.8c1.8,0,3.7-0.2,5.5-0.5c4.4-0.8,8.3-2.2,11.9-4.4c3.6-2.2,6.6-4.9,9.3-8.4c2.5-3.2,4.1-6.8,5-10.9L543.3,90
	c2.4-10.5,10.8-17.5,21.1-17.5c1.1,0,2.2,0.1,3.3,0.2c0.7,0.1,1.4,0.2,2.1,0.4c6.2,1.4,11.2,4.9,14.2,10c2,3.4,4.1,9,2.3,16.6
	l-23.1,102.2c-2.2,9.7-5.9,18.3-11.1,25.8c-5.3,7.6-11.8,13.8-19.4,18.3c-7.4,4.5-15.8,7.5-24.9,8.9
	C504.4,255.4,500.8,255.7,497.3,255.7"/>
<path class="st0" d="M381,198.5c-2.1,0-4.2-0.1-6.4-0.3c-7.5-0.6-14.7-2.3-21.5-5c-5.7-2.3-11-5.2-15.8-8.5
	c-4.4,5.6-10.6,8.7-17.5,8.7c-0.7,0-1.3,0-2-0.1c-11.2-0.9-18.9-10.1-18-21.3l11.9-142.6c0.5-5.8,3.2-11,7.7-14.8
	c4-3.4,8.9-5.2,14-5.2c0.6,0,1.3,0,1.9,0.1c5.7,0.5,11,3.2,14.8,7.7c3.8,4.5,5.6,10.1,5.1,15.9l-1.9,22.3c3-1.2,6.1-2.2,9.4-3.1
	c5.7-1.6,11.8-2.4,18-2.4c2,0,4.1,0.1,6.2,0.3c10.2,0.9,19.7,3.7,28.2,8.4c8.4,4.6,15.6,10.7,21.4,18c5.8,7.3,10.1,15.6,12.9,24.8
	c2.8,9.2,3.8,18.9,3,28.9c-0.8,10-3.4,19.4-7.7,28c-4.3,8.6-9.9,16.1-16.8,22.3c-7,6.3-15.1,11.1-24.1,14.2
	C396.6,197.2,388.9,198.5,381,198.5 M380.9,92.8c-3.2,0-6.4,0.5-9.5,1.6c-4.3,1.5-8,3.5-11.3,6.2c-3.3,2.7-6,5.9-8.2,9.8
	c-2,3.5-3.1,7.1-3.5,11.1c-0.3,4.2,0.1,8.1,1.5,11.9c1.5,4.2,3.5,7.7,6.3,10.9c2.7,3.1,5.9,5.6,9.8,7.7c3.9,2,7.9,3.1,12.2,3.5
	c0.9,0.1,1.8,0.1,2.7,0.1c3.1,0,5.9-0.5,8.5-1.4c3.5-1.3,6.5-3.1,9-5.5c2.7-2.6,4.9-5.6,6.6-9.4c1.8-4,2.9-8.1,3.3-12.8
	c0.4-4.7,0-9-1.1-13.1c-1.1-4-2.7-7.4-4.9-10.4c-2.1-2.8-4.8-5.1-8-6.9c-3.2-1.8-6.7-2.8-10.9-3.2C382.6,92.8,381.7,92.8,380.9,92.8
	"/>
<path class="st0" d="M222.6,202.1c-8.7,0-17.1-1.5-25-4.4c-9.4-3.4-17.8-8.6-25-15.3c-7.1-6.6-12.9-14.5-17.2-23.5
	c-4.3-9.1-6.9-18.9-7.6-29.4c-0.7-10.4,0.5-20.6,3.6-30.1c3.1-9.5,7.7-18.2,13.9-25.7c6.2-7.6,13.8-13.8,22.7-18.5
	c9-4.8,19-7.6,29.7-8.3c1.8-0.1,3.6-0.2,5.3-0.2c6.9,0,13.6,0.9,19.9,2.8c5.4,1.6,10.5,3.6,15.3,6c3.9-7.3,10.7-11.8,18.9-12.3
	c0.5,0,1.1-0.1,1.6-0.1c11,0,19.6,8,20.3,19.1l7.7,113.5c0.4,5.6-1.3,11-4.9,15c-3.5,4-8.6,6.5-14.2,6.9c-0.5,0-1.1,0.1-1.6,0.1h0
	c-7.3,0-14.1-3.5-18.6-9.5c-5,3.4-10.5,6.3-16.4,8.6c-7.2,2.9-14.9,4.6-22.8,5.1C226.2,202,224.4,202.1,222.6,202.1 M222.7,91.5
	c-0.7,0-1.4,0-2.2,0.1c-4.4,0.3-8.1,1.3-11.5,3.1c-3.4,1.9-6.2,4.2-8.5,7.1c-2.4,3.1-4.2,6.6-5.3,10.8c-1.2,4.4-1.7,8.9-1.4,13.8
	c0.3,4.9,1.4,9.3,3.2,13.4c1.7,4,3.9,7.2,6.7,9.9c2.7,2.6,5.7,4.6,9.4,5.9c2.9,1.1,6,1.6,9.4,1.6c0.8,0,1.6,0,2.3-0.1
	c4.6-0.3,8.8-1.4,12.9-3.5c4.1-2.1,7.6-4.6,10.4-7.9c2.9-3.3,5.1-7,6.8-11.3c1.5-4,2.1-8.1,1.8-12.5c-0.3-4.2-1.4-8-3.5-11.7
	c-2.2-4.1-5-7.5-8.5-10.4c-3.5-2.9-7.3-5.1-11.8-6.7C229.7,92.1,226.3,91.5,222.7,91.5"/>
<path class="st0" d="M63.8,231c-9.2,0-16.8-6.2-18.9-15.4L13.2,76.1C12,70.5,13,64.6,16.1,59.6c3.1-4.9,7.9-8.4,13.6-9.7
	c1.5-0.4,3.1-0.5,4.7-0.5c4.1,0,8.1,1.2,11.7,3.4c5,3.1,8.4,8,9.7,13.6l5,21.8c2.5-2.1,5.2-4,8-5.8c6.7-4.3,14.2-7.5,22.5-9.3
	c5.4-1.2,10.9-1.9,16.2-1.9c4.5,0,8.9,0.4,13.2,1.3c9.4,1.9,18.1,5.5,25.9,10.7c7.7,5.2,14.3,11.8,19.8,19.7
	c5.4,7.9,9.3,16.9,11.5,26.6c2.2,9.8,2.6,19.5,1.1,29c-1.5,9.5-4.6,18.3-9.3,26.3c-4.7,8.1-11,15.1-18.7,20.9
	c-7.8,5.8-16.8,9.9-26.8,12.2c-5.5,1.2-11.1,1.9-16.6,1.9h0c-1.8,0-3.6-0.1-5.4-0.2c-6.1-0.5-12-1.6-17.7-3.3
	c-2.7,7.3-8.4,12.4-16,14.1C66.9,230.8,65.4,231,63.8,231 M107.2,114.2c-2.1,0-4.2,0.3-6.5,0.8c-4,0.9-7.6,2.6-11,5.1
	c-3.6,2.7-6.6,5.7-8.9,9.4c-2.3,3.6-3.9,7.4-4.9,11.8c-0.9,4-0.8,7.8,0,11.6c0.9,4.1,2.6,7.7,5,10.9c2.7,3.5,5.7,6.3,9.3,8.5
	c3.5,2.2,7.3,3.6,11.7,4.3c1.8,0.3,3.7,0.5,5.5,0.5c2.4,0,4.8-0.3,7.2-0.8c4.1-0.9,7.4-2.4,10.3-4.6c3-2.3,5.2-4.9,7-8
	c1.8-3.3,2.9-6.8,3.4-10.9c0.5-4.2,0.3-8.7-0.8-13.2c-1-4.6-2.7-8.6-5-12.2c-2.2-3.5-4.8-6.2-7.8-8.4c-2.9-2.1-6.1-3.4-9.7-4.2
	C110.5,114.4,108.8,114.2,107.2,114.2"/>
</svg>
