<?xml version="1.0" encoding="utf-8"?>
<!-- Generator: Adobe Illustrator 22.0.1, SVG Export Plug-In . SVG Version: 6.00 Build 0)  -->
<svg version="1.1" id="Layer_1" xmlns="http://www.w3.org/2000/svg" xmlns:xlink="http://www.w3.org/1999/xlink" x="0px" y="0px"
	 viewBox="0 0 337 152" style="enable-background:new 0 0 337 152;" xml:space="preserve">
<style type="text/css">
	.st0{fill-rule:evenodd;clip-rule:evenodd;fill:#FFFFFF;stroke:#FFFFFF;stroke-miterlimit:10;}
	.st1{fill:#FFFFFF;stroke:#FFFFFF;stroke-miterlimit:10;}
</style>
<g>
	<g id="XMLID_143_">
		<path id="XMLID_169_" class="st0" d="M101.5,106.4c0-2,0.3-4.3,1.2-6.6c3.2-8,10.4-18.7,16.6-26c5.5-6.6,13.2-15.1,13.2-20.6
			c0-3-2.3-4.3-5-4.3c-13.7,0-41.2,24.6-50.9,34.7c-0.2,0.2-0.2,0.1-0.2,0.1S90,66.2,92.1,63.2c2-2.9,5.8-7.4,5.8-12.2
			c0-3.5-1.8-4.7-4.2-4.7c-6.5,0-17.1,6.4-29.4,17.6c-10.7,9.8-16.9,16.8-17.7,17.2c0-1.2,17.4-22.5,17.4-34.5
			c0-20.7-54.4-15.1-54.4-29.8c0-1.1,0.4-2.6,1.7-4.1c0.2-0.2,0.3-0.4,0.3-0.5c0-0.3-0.3-0.5-0.6-0.5c-0.2,0-0.4,0.1-0.7,0.3
			c0,0-2.6,1.8-2.6,5.6c0,21.1,53.7,12,53.7,32c0,5.8-5.2,13.7-11,22.4C44.1,81.2,36.4,91.7,33.2,95c-0.4,0.4-0.8,0.9-0.8,1.3
			c0,0.5,0.6,1.1,1.2,1.1c0.4,0,1-0.4,1.6-1.1c1-1.1,19-21.6,26.3-28.2C69.5,60.8,83.6,49,90.6,49c2.4,0,3.5,1.5,3.5,3.6
			c0,2-1,4.6-2.5,7c-3,4.8-20.6,29.1-26.7,35c-0.6,0.6-1.1,1.2-1.1,1.7c0,0.4,0.5,1.1,1.1,1.1c0.8,0,1.2-0.9,1.9-1.6
			c1-1.2,15.1-16.2,17.2-18.1c10.6-9.3,30.8-26.4,40.1-26.4c1.9,0,4.5,1,4.5,3.3c0,4-5.7,11.1-6.4,12.1
			c-24.5,29.5-24.9,36.2-24.9,41.7c0,4.8,2.3,8.9,4.9,8.9c0.8,0,1.5-0.3,1.5-1.1c0-0.3,0-0.5-0.2-0.9
			C102.8,113.7,101.5,110.4,101.5,106.4z"/>
		<path id="XMLID_165_" class="st0" d="M291.3,93.7c-1.1,0-2.1-0.5-2.9-1.1c-0.1,0-0.1-0.1-0.2-0.1c-0.3-0.2-0.6-0.5-0.9-0.7
			c-1.8-1.6,1.1-1.4,2.9-0.2c1,0.6,2,1.2,3,1.7C292.6,93.6,292,93.7,291.3,93.7z M271.2,86.5c0-2.1,1-4.2,2.3-4.2
			c1.2,0,1.6,0.4,1.6,1.2c0,1.3-1.4,3.5-3.5,5.5C271.3,88.2,271.2,87.3,271.2,86.5z M319.8,93.7c-4.4,7.8-17,3.1-24.5-0.5
			c4.1-2.7,6.9-7,6.9-9.8c0-1.5-0.9-2.6-2.8-2.6c-1.9,0-3.7,1-4.5,1.4c-1.2,0.6-8.4,5.6-12,7.1c-0.4,0.1-0.8,0.3-1.2,0.5
			c-1.8,0.6-4.4,1.4-6.7,1.4c-1.2,0-2.2-0.4-2.8-1.2c2.7-2.9,4.4-6,4.4-7.9c0-1-0.5-1.6-1.7-1.6c-3.4,0-5.5,3.6-5.5,7
			c0,1.1,0.2,2.1,0.6,2.9c-2.4,2.1-5.2,3.8-7.3,3.8c-1.2,0-2-0.6-2-1.9c0-3.5,8.3-11.9,11.2-11.9c0.4,0,0.8-0.1,0.8-0.3
			c0-0.4-0.7-0.9-1.2-0.9c-4.2,0-14.3,10.3-14.3,15.1c0,1.9,1.1,2.6,2.7,2.6c3.7,0,7.8-2.5,10.9-5.5c0.8,0.9,2,1.4,3.5,1.4
			c1.6,0,3.2-0.3,4.8-0.8c0.5-0.1,1-0.3,1.4-0.5c1-0.4,2.1-0.7,3-1.2c1.1-0.6,2.1-1.1,3.2-1.7c1-0.6,1.9-1.2,2.9-1.8
			c1.8-1.1,3.5-2.3,5.4-3.2c0.7-0.3,1.4-0.7,2.2-0.7c1.5,0,2.2,0.9,2.2,2.1c0,2.3-2.2,5.9-5.1,7.6c-1.5-0.7-2.7-1.4-3.5-1.9
			c-0.8-0.5-1.8-0.8-2.7-0.9c-1-0.1-2-0.1-3,0.1c-0.7,0.1-1.5,0.3-1.8,1.1c-0.3,1,0.3,2.2,1,2.8c1.1,1.1,2.8,1.3,4.3,1.4
			c1.5,0.1,3.1-0.4,4.5-1c0.2-0.1,0.4-0.2,0.6-0.3c0.1,0,0.5-0.3,0.6-0.3c2.7,1.2,5.5,2.2,8.3,3.1c6.2,2.1,16.2,4.8,20.2-2.4
			C323,94.4,320.2,93.2,319.8,93.7z"/>
		<path id="XMLID_159_" class="st0" d="M199.4,82.8c4.1-2.2,4.6-0.4,1.5,2.6c-1.2,1.1-3.9,2.5-6.9,3.8
			C194.3,86.9,196,84.6,199.4,82.8z M131,86.5c0-2.1,1-4.2,2.3-4.2c1.1,0,1.6,0.4,1.6,1.2c0,1.3-1.4,3.5-3.5,5.5
			C131.1,88.2,131,87.3,131,86.5z M255.4,81.6c0.8-2.3,5.5-10.3,10.2-18.1c1.2-0.1,2.4-0.1,3.8-0.2c-4.4,7.2-9.3,13.7-12.2,17.1
			C256,81.8,254.9,83,255.4,81.6z M276.4,46.8c0.4-0.5,1,0,0.4,1.9c-1.4,4.1-3.7,8.5-6.1,12.7c-1.3,0-2.5,0-3.7,0
			C271.3,54.3,275.4,47.9,276.4,46.8z M258.2,116.9c-10.2-5.9-11.6-15.5-3.7-30.6c4.5-3.5,9.3-9.8,13.7-15.9
			c1.6-2.2,3.1-4.5,4.6-7.1c2.9-0.1,6.3-0.2,10.4-0.3c22.5-0.4,27.6,0.3,27.6,0.3c0.9,0,1.6-0.3,1.6-1.2c0-0.9-0.7-1.1-1.6-1.1
			c0,0-7.8-0.1-34.2,0.5c-1,0-1.9,0-2.8,0c2.1-3.9,4.1-8,5.7-12.3c0.8-2.1,0.9-4.8-1.2-5.8c-0.5-0.2-2.2,0.1-4.7,3.9
			c-3.3,4.9-6.4,9.7-9.1,14.3c-6.8-0.1-12.4-0.4-17.6-0.8c-0.9,0-1.5,0.1-1.6,1.1c-0.1,0.9,0.6,1.2,1.6,1.4
			c7.2,0.7,11.1,0.7,16.3,0.6c-5.5,9.2-9.7,17.2-11.6,22.4c-2.6,1.9-5.5,3.4-8.8,4.8l0,0c-0.2,0.1-0.4,0.2-0.5,0.2
			c-0.9,0.4-1.7,0.7-2.7,1.1c-1.8,0.6-3.4,0.9-4.5,0.8c-1.3-0.1-1.9-0.6-1.9-1.6c0-2.3,2.9-6.4,3.6-7.3c0.3-0.4,0.5-1,0.5-1.4
			c0-0.3,0-0.8-0.6-0.8c-1.2,0-3.5,1.7-3.9,2c-3.5,1.9-11.9,8.1-13.2,8.1c-0.5,0-0.7-0.4-0.7-0.7c0-1.5,5.2-5.7,5.2-7.6
			c0-0.6-0.2-1-0.7-1c-0.4,0-1,0.3-1.2,0.4c0,0-0.5,0.4-1.4,0.9c-0.1,0.1-0.3,0.1-0.4,0.2c-0.2,0.1-0.4,0.3-0.7,0.4
			c-1.8,1.1-4.4,2.7-7.3,4.1c-1.4,0.6-2.8,1.2-4.1,1.7c-4,1.5-13.4,3.7-14.2,1c-0.1-0.2-0.1-0.5-0.1-0.8c4.1-1.7,8.3-3.8,10.2-6.4
			c1.5-2.2,2.6-5.3-2.4-3.9c-4.8,1.3-9.9,4.9-11.1,10.2c-1.3,0.5-2.6,0.9-3.7,1.3c-1.9,0.7-5.5,1.6-7.6,1.6c-1.3,0-1.8-1-1.8-2
			c0-2.3,2.9-6.4,3.6-7.3c0.3-0.4,0.5-1,0.5-1.4c0-0.3,0-0.8-0.6-0.8c-3.5,0-11.5,10.3-15.8,10.3c-0.8,0-1.1-0.4-1.1-0.8
			c0-1.5,4.9-6.2,4.9-8.1c0-0.5-0.3-1.1-0.9-1.1c-1.2,0-3.1,1.4-3.5,1.8c-3.5,1.9-11.9,8.1-13.2,8.1c-0.5,0-0.7-0.4-0.7-0.7
			c0-1.5,5.2-5.7,5.2-7.6c0-0.6-0.2-1-0.7-1c-0.4,0-1,0.3-1.2,0.4c0,0-5.4,3.7-11.3,6.4c-0.5,0.3-1.2,0.5-1.8,0.7
			c-1.7,0.6-4,1.1-6.1,1.1c-1.2,0-2.2-0.4-2.8-1.2c2.7-2.9,4.4-6,4.4-7.9c0-1-0.5-1.6-1.7-1.6c-3.4,0-5.5,3.6-5.5,7
			c0,1.1,0.2,2.1,0.6,2.9c-2.4,2.1-5.2,3.8-7.4,3.8c-1.2,0-2-0.6-2-1.9c0-3.5,8.3-11.9,11.3-11.9c0.4,0,0.8-0.1,0.8-0.3
			c0-0.4-0.7-0.9-1.2-0.9c-4.2,0-14.3,10.3-14.3,15.1c0,1.9,1.1,2.6,2.7,2.6c3.7,0,7.8-2.5,10.9-5.5c0.8,0.9,1.9,1.4,3.5,1.4
			c2.5,0,5.7-0.9,9.2-2.5c0,0,0.1,0,0.1-0.1c2.3-1,6.8-3.5,7.1-3.5c0.3,0,0.4,0.1,0.4,0.3c0,0.1,0,0.2-0.1,0.3c-1.2,1.4-5,5-5,6.7
			c0,0.7,0.6,1.2,1.3,1.2c2.5,0,14.9-9.4,16.5-9.4c0.1,0,0.2,0,0.2,0.1c0,0.7-3.9,5.9-3.9,7.8c0,0.7,1.1,1.2,1.7,1.2
			c3.7,0,9.1-4.2,14.2-8.1c0.4-0.3,0.7-0.4,0.9-0.4c0.2,0,0.3,0.1,0.3,0.4c-1.1,2-2.3,4.7-2.3,6.5c0,1.2,0.5,1.9,2,1.9
			c4.2,0.1,8.6-1.5,10.3-2.1c1-0.3,2.2-0.7,3.5-1.2c0.1,4,6.5,4.2,17.8-0.4c0.1,0,0.8-0.3,1-0.4c3.8-1.4,7.4-3,9.7-4.4
			c0,0,0,0.1,0,0.2c0,0.1,0,0.2-0.1,0.3c-1.2,1.4-5,5-5,6.7c0,0.7,0.6,1.2,1.3,1.2c2.5,0,14.9-9.4,16.5-9.4c0.1,0,0.2,0,0.2,0.1
			c0,0.6-2.6,4.4-2.6,7c0,1.3,0.7,2.3,2.9,2.3c2,0,4.9-0.9,7.3-1.8c0,0,0,0,0,0c0.2-0.1,0.4-0.2,0.6-0.2c0.3-0.1,0.6-0.2,0.9-0.3
			c0.4-0.1,0.8-0.3,1.2-0.4c0.1,0,0.2-0.1,0.3-0.1l0,0c2.5-1,5.4-2.3,8.4-4.6c-1,2.7-1.8,5.5-2.4,8.3c-1.9,8.3,0.5,16.6,9,22.9
			C258.6,119.6,261,118.5,258.2,116.9z"/>
		<g id="XMLID_144_">
			<path id="XMLID_158_" class="st1" d="M101.5,106.4c0-2,0.3-4.3,1.2-6.6c3.2-8,10.4-18.7,16.6-26c5.5-6.6,13.2-15.1,13.2-20.6
				c0-3-2.3-4.3-5-4.3c-13.7,0-41.2,24.6-50.9,34.7c-0.2,0.2-0.2,0.1-0.2,0.1S90,66.2,92.1,63.2c2-2.9,5.8-7.4,5.8-12.2
				c0-3.5-1.8-4.7-4.2-4.7c-6.5,0-17.1,6.4-29.4,17.6c-10.7,9.8-16.9,16.8-17.7,17.2c0-1.2,17.4-22.5,17.4-34.5
				c0-20.7-54.4-15.1-54.4-29.8c0-1.1,0.4-2.6,1.7-4.1c0.2-0.2,0.3-0.4,0.3-0.5c0-0.3-0.3-0.5-0.6-0.5c-0.2,0-0.4,0.1-0.7,0.3
				c0,0-2.6,1.8-2.6,5.6c0,21.1,53.7,12,53.7,32c0,5.8-5.2,13.7-11,22.4C44.1,81.2,36.4,91.7,33.2,95c-0.4,0.4-0.8,0.9-0.8,1.3
				c0,0.5,0.6,1.1,1.2,1.1c0.4,0,1-0.4,1.6-1.1c1-1.1,19-21.6,26.3-28.2C69.5,60.8,83.6,49,90.6,49c2.4,0,3.5,1.5,3.5,3.6
				c0,2-1,4.6-2.5,7c-3,4.8-20.6,29.1-26.7,35c-0.6,0.6-1.1,1.2-1.1,1.7c0,0.4,0.5,1.1,1.1,1.1c0.8,0,1.2-0.9,1.9-1.6
				c1-1.2,15.1-16.2,17.2-18.1c10.6-9.3,30.8-26.4,40.1-26.4c1.9,0,4.5,1,4.5,3.3c0,4-5.7,11.1-6.4,12.1
				c-24.5,29.5-24.9,36.2-24.9,41.7c0,4.8,2.3,8.9,4.9,8.9c0.8,0,1.5-0.3,1.5-1.1c0-0.3,0-0.5-0.2-0.9
				C102.8,113.7,101.5,110.4,101.5,106.4z"/>
			<path id="XMLID_154_" class="st1" d="M291.3,93.7c-1.1,0-2.1-0.5-2.9-1.1c-0.1,0-0.1-0.1-0.2-0.1c-0.3-0.2-0.6-0.5-0.9-0.7
				c-1.8-1.6,1.1-1.4,2.9-0.2c1,0.6,2,1.2,3,1.7C292.6,93.6,292,93.7,291.3,93.7z M271.2,86.5c0-2.1,1-4.2,2.3-4.2
				c1.2,0,1.6,0.4,1.6,1.2c0,1.3-1.4,3.5-3.5,5.5C271.3,88.2,271.2,87.3,271.2,86.5z M319.8,93.7c-4.4,7.8-17,3.1-24.5-0.5
				c4.1-2.7,6.9-7,6.9-9.8c0-1.5-0.9-2.6-2.8-2.6c-1.9,0-3.7,1-4.5,1.4c-1.2,0.6-8.4,5.6-12,7.1c-0.4,0.1-0.8,0.3-1.2,0.5
				c-1.8,0.6-4.4,1.4-6.7,1.4c-1.2,0-2.2-0.4-2.8-1.2c2.7-2.9,4.4-6,4.4-7.9c0-1-0.5-1.6-1.7-1.6c-3.4,0-5.5,3.6-5.5,7
				c0,1.1,0.2,2.1,0.6,2.9c-2.4,2.1-5.2,3.8-7.3,3.8c-1.2,0-2-0.6-2-1.9c0-3.5,8.3-11.9,11.2-11.9c0.4,0,0.8-0.1,0.8-0.3
				c0-0.4-0.7-0.9-1.2-0.9c-4.2,0-14.3,10.3-14.3,15.1c0,1.9,1.1,2.6,2.7,2.6c3.7,0,7.8-2.5,10.9-5.5c0.8,0.9,2,1.4,3.5,1.4
				c1.6,0,3.2-0.3,4.8-0.8c0.5-0.1,1-0.3,1.4-0.5c1-0.4,2.1-0.7,3-1.2c1.1-0.6,2.1-1.1,3.2-1.7c1-0.6,1.9-1.2,2.9-1.8
				c1.8-1.1,3.5-2.3,5.4-3.2c0.7-0.3,1.4-0.7,2.2-0.7c1.5,0,2.2,0.9,2.2,2.1c0,2.3-2.2,5.9-5.1,7.6c-1.5-0.7-2.7-1.4-3.5-1.9
				c-0.8-0.5-1.8-0.8-2.7-0.9c-1-0.1-2-0.1-3,0.1c-0.7,0.1-1.5,0.3-1.8,1.1c-0.3,1,0.3,2.2,1,2.8c1.1,1.1,2.8,1.3,4.3,1.4
				c1.5,0.1,3.1-0.4,4.5-1c0.2-0.1,0.4-0.2,0.6-0.3c0.1,0,0.5-0.3,0.6-0.3c2.7,1.2,5.5,2.2,8.3,3.1c6.2,2.1,16.2,4.8,20.2-2.4
				C323,94.4,320.2,93.2,319.8,93.7z"/>
			<path id="XMLID_148_" class="st1" d="M199.4,82.7c4.1-2.1,4.6-0.4,1.5,2.6c-1.2,1.1-4,2.5-6.9,3.7
				C194.3,86.8,196,84.5,199.4,82.7z M131,86c0-2.1,1-4.2,2.3-4.1c1.1,0,1.6,0.5,1.6,1.3c0,1.3-1.4,3.4-3.5,5.5
				C131.1,87.7,131,86.9,131,86z M255.4,81.9c0.8-2.3,5.5-10.2,10.3-18c1.2,0,2.4-0.1,3.8-0.1c-4.4,7.2-9.4,13.6-12.3,17
				C256,82.1,254.9,83.2,255.4,81.9z M276.6,47.1c0.4-0.5,1,0,0.4,1.9c-1.5,4.1-3.7,8.5-6.2,12.7c-1.3,0-2.5,0-3.7,0
				C271.4,54.7,275.6,48.2,276.6,47.1z M258,117.1c-10.2-6-11.5-15.5-3.5-30.7c4.5-3.5,9.4-9.8,13.8-15.8c1.6-2.1,3.1-4.5,4.7-7.1
				c2.9-0.1,6.3-0.2,10.4-0.2c22.5-0.3,27.6,0.4,27.6,0.4c0.9,0,1.6-0.3,1.6-1.2c0-0.9-0.7-1.1-1.6-1.1c0,0-7.8-0.1-34.2,0.3
				c-1,0-1.9,0-2.8,0c2.2-3.9,4.2-8,5.8-12.3c0.8-2.1,1-4.8-1.2-5.8c-0.5-0.3-2.2,0.1-4.7,3.8c-3.3,4.9-6.4,9.7-9.2,14.2
				c-6.8-0.1-12.4-0.4-17.6-0.9c-0.9,0-1.5,0.1-1.6,1.1c-0.1,0.9,0.6,1.2,1.6,1.4c7.2,0.8,11.1,0.8,16.3,0.7
				c-5.6,9.2-9.8,17.2-11.8,22.4c-2.6,1.9-5.5,3.4-8.8,4.7l0,0c-0.2,0.1-0.4,0.2-0.5,0.2c-0.9,0.3-1.7,0.7-2.7,1
				c-1.8,0.6-3.4,0.9-4.5,0.8c-1.3-0.1-1.9-0.6-1.9-1.6c0-2.3,3-6.4,3.7-7.3c0.3-0.4,0.5-1,0.5-1.4c0-0.3,0-0.8-0.6-0.8
				c-1.2,0-3.5,1.7-3.9,2c-3.6,1.8-11.9,8-13.2,8c-0.5,0-0.7-0.4-0.7-0.7c0-1.5,5.3-5.6,5.3-7.6c0-0.6-0.2-1-0.7-1
				c-0.4,0-1,0.3-1.2,0.3c0,0-0.5,0.4-1.4,0.9c-0.1,0-0.3,0.1-0.4,0.2c-0.2,0.1-0.4,0.3-0.7,0.4c-1.8,1.1-4.5,2.6-7.3,4
				c-1.4,0.6-2.8,1.2-4.1,1.6c-4,1.5-13.5,3.6-14.2,1c-0.1-0.2-0.1-0.5-0.1-0.8c4.1-1.6,8.3-3.8,10.2-6.4c1.6-2.2,2.6-5.3-2.4-4
				c-4.8,1.2-9.9,4.8-11.2,10.1c-1.3,0.5-2.6,0.9-3.7,1.3c-1.9,0.7-5.5,1.6-7.6,1.5c-1.3,0-1.8-1-1.8-2c0-2.3,3-6.4,3.7-7.3
				c0.3-0.4,0.5-1,0.5-1.4c0-0.3,0-0.8-0.6-0.8c-3.5,0-11.6,10.2-15.8,10.2c-0.8,0-1.1-0.4-1.1-0.8c0-1.5,4.9-6.2,4.9-8.1
				c0-0.5-0.3-1.1-0.9-1.1c-1.2,0-3.1,1.4-3.6,1.7c-3.6,1.8-11.9,8-13.2,8c-0.5,0-0.7-0.4-0.7-0.7c0-1.5,5.3-5.6,5.3-7.6
				c0-0.6-0.2-1-0.7-1c-0.4,0-1,0.3-1.2,0.3c0,0-5.4,3.7-11.4,6.3c-0.5,0.3-1.2,0.5-1.8,0.7c-1.7,0.6-4,1.1-6.1,1.1
				c-1.2,0-2.2-0.5-2.8-1.3c2.7-2.9,4.5-6,4.5-7.9c0-1-0.5-1.6-1.7-1.6c-3.4,0-5.5,3.6-5.5,7c0,1.1,0.2,2.1,0.6,2.9
				c-2.4,2.1-5.2,3.8-7.4,3.8c-1.2,0-2-0.6-1.9-2c0-3.5,8.4-11.8,11.3-11.8c0.4,0,0.8-0.1,0.8-0.3c0-0.4-0.7-0.9-1.2-0.9
				c-4.2,0-14.4,10.2-14.4,15c0,1.9,1.1,2.6,2.6,2.6c3.7,0,7.8-2.4,10.9-5.4c0.8,0.9,1.9,1.4,3.5,1.4c2.5,0,5.7-0.9,9.2-2.4
				c0,0,0.1,0,0.1-0.1c2.3-0.9,6.8-3.5,7.1-3.5c0.3,0,0.4,0.1,0.4,0.3c0,0.1,0,0.2-0.1,0.3c-1.2,1.4-5,4.9-5,6.7
				c0,0.7,0.6,1.2,1.3,1.2c2.5,0,14.9-9.3,16.5-9.3c0.1,0,0.2,0,0.2,0.1c0,0.7-3.9,5.9-3.9,7.8c0,0.7,1.1,1.2,1.7,1.2
				c3.7,0,9.1-4.1,14.2-8c0.4-0.3,0.7-0.3,0.9-0.3c0.2,0,0.3,0.1,0.3,0.4c-1.1,2-2.3,4.7-2.3,6.5c0,1.2,0.5,1.9,2,2
				c4.2,0.1,8.6-1.4,10.3-2.1c1-0.3,2.2-0.7,3.5-1.2c0.1,4,6.5,4.3,17.8-0.3c0.1,0,0.8-0.3,1-0.3c3.8-1.3,7.4-2.9,9.7-4.3
				c0,0,0,0.1,0,0.2c0,0.1,0,0.2-0.1,0.3c-1.2,1.4-5,4.9-5,6.7c0,0.7,0.6,1.2,1.3,1.2c2.5,0,14.9-9.3,16.5-9.3c0.1,0,0.2,0,0.2,0.1
				c0,0.6-2.6,4.4-2.6,7c0,1.3,0.7,2.3,2.9,2.3c2,0,4.9-0.8,7.3-1.7c0,0,0,0,0,0c0.2-0.1,0.4-0.2,0.6-0.2c0.3-0.1,0.6-0.2,0.9-0.3
				c0.4-0.1,0.8-0.3,1.2-0.4c0.1,0,0.2-0.1,0.3-0.1l0,0c2.5-1,5.4-2.3,8.4-4.5c-1,2.7-1.8,5.5-2.4,8.3c-1.9,8.3,0.4,16.6,8.9,22.9
				C258.3,119.9,260.8,118.8,258,117.1z"/>
		</g>
	</g>
	<g id="XMLID_136_">
		<path id="XMLID_142_" class="st0" d="M223.9,112.3c-1,0-1.8,0.3-2.5,0.7c-0.6-0.5-1.4-0.7-2.4-0.7c-0.3,0-0.5,0-0.8,0.1
			c-0.3,0-0.5,0.1-0.8,0.3c-0.2-0.2-0.5-0.3-0.9-0.3c-0.4,0-0.7,0.1-1,0.4c-0.3,0.2-0.4,0.7-0.4,1.2v5.6c0,0.6,0.1,1,0.4,1.3
			c0.3,0.2,0.6,0.4,1,0.4c0.3,0,0.7-0.1,1-0.4c0.3-0.3,0.4-0.7,0.4-1.2v-3.4c0-0.3,0.1-0.5,0.3-0.7c0.2-0.2,0.4-0.3,0.7-0.3
			c0.3,0,0.6,0.1,0.8,0.3c0.2,0.2,0.3,0.5,0.3,0.8v3.3c0,0.6,0.1,1,0.4,1.2c0.3,0.3,0.6,0.4,1,0.4c0.4,0,0.7-0.1,1-0.4
			c0.3-0.3,0.4-0.7,0.4-1.2v-3.4c0-0.3,0.1-0.5,0.3-0.7c0.2-0.2,0.5-0.3,0.7-0.3c0.3,0,0.6,0.1,0.8,0.3c0.2,0.2,0.3,0.5,0.3,0.8v3.3
			c0,0.6,0.1,1,0.4,1.2c0.3,0.3,0.6,0.4,1,0.4c0.4,0,0.7-0.1,1-0.4c0.3-0.3,0.4-0.7,0.4-1.2v-3.3c0-1.2-0.4-2.2-1-2.8
			C226.1,112.6,225.2,112.3,223.9,112.3"/>
		<path id="XMLID_141_" class="st0" d="M231.2,109.7c-0.1-0.1-0.3-0.2-0.5-0.3c-0.2-0.1-0.3-0.1-0.5-0.1c-0.4,0-0.7,0.1-1,0.4
			c-0.3,0.3-0.4,0.6-0.4,1c0,0.4,0.1,0.7,0.4,1c0.3,0.3,0.6,0.4,1,0.4c0.4,0,0.7-0.1,1-0.4c0.3-0.3,0.4-0.6,0.4-1
			c0-0.2-0.1-0.4-0.1-0.5C231.5,110,231.4,109.8,231.2,109.7"/>
		<path id="XMLID_140_" class="st0" d="M230.3,112.4c-0.4,0-0.7,0.1-1,0.4c-0.3,0.3-0.4,0.7-0.4,1.3v5.4c0,0.6,0.1,1,0.4,1.2
			c0.3,0.3,0.6,0.4,1,0.4c0.4,0,0.7-0.1,1-0.4c0.3-0.3,0.4-0.7,0.4-1.2v-5.4c0-0.6-0.1-1-0.4-1.3C231,112.6,230.6,112.4,230.3,112.4
			"/>
		<path id="XMLID_139_" class="st0" d="M236.6,112.3c-0.3,0-0.6,0-0.8,0.1c-0.3,0-0.5,0.1-0.8,0.3c-0.2-0.2-0.5-0.3-0.9-0.3
			c-0.4,0-0.7,0.1-1,0.4c-0.3,0.2-0.4,0.7-0.4,1.2v5.6c0,0.6,0.2,1,0.4,1.3c0.3,0.2,0.6,0.4,1,0.4c0.4,0,0.7-0.1,0.9-0.4
			c0.3-0.3,0.4-0.7,0.4-1.2v-3.4c0-0.3,0.1-0.5,0.4-0.7c0.2-0.2,0.4-0.3,0.7-0.3c0.3,0,0.5,0.1,0.7,0.3c0.2,0.2,0.3,0.5,0.3,0.8v3.3
			c0,0.6,0.1,1,0.4,1.2c0.3,0.3,0.6,0.4,1,0.4c0.4,0,0.7-0.1,1-0.4c0.3-0.3,0.4-0.7,0.4-1.2v-3.3c0-1.2-0.3-2.2-1-2.8
			C238.7,112.6,237.8,112.3,236.6,112.3"/>
		<path id="XMLID_138_" class="st0" d="M242.9,112.4c-0.4,0-0.7,0.1-1,0.4c-0.3,0.3-0.4,0.7-0.4,1.3v5.4c0,0.6,0.1,1,0.4,1.2
			c0.3,0.3,0.6,0.4,1,0.4c0.4,0,0.7-0.1,1-0.4c0.3-0.3,0.4-0.7,0.4-1.2v-5.4c0-0.6-0.1-1-0.4-1.3
			C243.6,112.6,243.2,112.4,242.9,112.4"/>
		<path id="XMLID_137_" class="st0" d="M242.9,112.1c0.4,0,0.7-0.1,1-0.4c0.3-0.3,0.4-0.6,0.4-1c0-0.2-0.1-0.4-0.1-0.5
			c-0.1-0.2-0.2-0.3-0.3-0.5c-0.1-0.1-0.3-0.2-0.5-0.3c-0.2-0.1-0.4-0.1-0.5-0.1c-0.4,0-0.7,0.1-1,0.4c-0.3,0.3-0.4,0.6-0.4,1
			c0,0.4,0.1,0.7,0.4,1C242.1,112,242.4,112.1,242.9,112.1"/>
	</g>
	<g id="XMLID_76_">
		<path id="XMLID_133_" class="st0" d="M253.2,131.5c-0.4,0.4-0.8,0.6-1.4,0.6c-0.6,0-1-0.2-1.4-0.6c-0.4-0.4-0.6-0.9-0.6-1.5
			c0-0.6,0.2-1.1,0.6-1.5c0.4-0.4,0.8-0.6,1.4-0.6c0.6,0,1,0.2,1.4,0.6c0.4,0.4,0.6,0.9,0.6,1.5
			C253.7,130.6,253.6,131.1,253.2,131.5 M255.5,126.1c-0.5-0.5-1.1-0.9-1.7-1.2c-0.7-0.3-1.3-0.4-2.1-0.4c-0.4,0-0.7,0-1,0.1
			c-0.3,0.1-0.7,0.2-1,0.3v-2.6c0-0.7-0.2-1.2-0.5-1.6c-0.3-0.3-0.7-0.5-1.2-0.5c-0.6,0-1.1,0.2-1.3,0.6c-0.3,0.4-0.4,0.9-0.4,1.5
			v11.2c0,0.6,0.2,1.1,0.5,1.5c0.3,0.4,0.7,0.6,1.2,0.6c0.5,0,0.9-0.2,1.2-0.5c0.3,0.2,0.7,0.3,1.2,0.4c0.4,0.1,0.9,0.2,1.3,0.2
			c0.7,0,1.4-0.1,2.1-0.4c0.6-0.3,1.2-0.7,1.7-1.2c0.5-0.5,0.9-1.1,1.2-1.8c0.3-0.7,0.4-1.4,0.4-2.2c0-0.8-0.1-1.5-0.4-2.2
			C256.4,127.2,256,126.6,255.5,126.1z"/>
		<path id="XMLID_132_" class="st0" d="M265.6,124.5c-0.4,0-0.8,0.2-1.1,0.5c-0.3,0.3-0.5,0.9-0.5,1.6v4.3c0,0.4-0.2,0.6-0.4,0.9
			c-0.2,0.2-0.5,0.4-0.9,0.4c-0.3,0-0.6-0.1-0.9-0.4c-0.2-0.3-0.4-0.6-0.4-1v-4.1c0-0.7-0.2-1.3-0.5-1.6c-0.3-0.3-0.7-0.5-1.2-0.5
			c-0.5,0-0.9,0.2-1.2,0.5c-0.3,0.3-0.5,0.8-0.5,1.6v4.2c0,1.5,0.4,2.7,1.2,3.6c0.8,0.8,2,1.2,3.4,1.2c0.3,0,0.6,0,0.9-0.1
			c0.3-0.1,0.6-0.2,0.9-0.3c0.2,0.2,0.3,0.3,0.5,0.3c0.2,0.1,0.4,0.1,0.6,0.1c0.5,0,0.9-0.2,1.2-0.4c0.3-0.3,0.5-0.8,0.5-1.5v-7
			c0-0.8-0.2-1.3-0.5-1.6C266.5,124.7,266.1,124.5,265.6,124.5"/>
		<path id="XMLID_131_" class="st0" d="M274.9,124.9c-0.2-0.2-0.4-0.3-0.5-0.4c-0.2-0.1-0.4-0.1-0.7-0.1c-0.3,0-0.6,0-0.9,0.1
			c-0.3,0.1-0.6,0.2-0.9,0.3c-0.3-0.3-0.6-0.4-1.1-0.4c-0.5,0-0.9,0.2-1.2,0.5c-0.3,0.3-0.5,0.8-0.5,1.5v7c0,0.8,0.2,1.3,0.5,1.6
			c0.3,0.3,0.7,0.5,1.3,0.5c0.4,0,0.8-0.2,1.1-0.5c0.3-0.3,0.5-0.9,0.5-1.6v-4.2c0-0.3,0.2-0.6,0.4-0.8c0.3-0.2,0.5-0.4,0.9-0.4
			c0.4,0,0.8-0.2,1.2-0.5c0.3-0.3,0.5-0.7,0.5-1.2c0-0.2,0-0.5-0.1-0.7C275.1,125.3,275,125.1,274.9,124.9"/>
		<path id="XMLID_128_" class="st0" d="M283.1,131.5c-0.4,0.4-0.8,0.6-1.4,0.6c-0.6,0-1.1-0.2-1.4-0.6c-0.4-0.4-0.6-0.9-0.6-1.5
			c0-0.6,0.2-1.1,0.6-1.5c0.4-0.4,0.8-0.6,1.4-0.6c0.5,0,1,0.2,1.4,0.6c0.4,0.4,0.6,0.9,0.6,1.5
			C283.7,130.6,283.5,131.1,283.1,131.5 M285.5,126.1c-0.5-0.5-1.1-0.9-1.7-1.2c-0.6-0.3-1.3-0.4-2-0.4c-0.4,0-0.7,0-1.1,0.1
			c-0.3,0.1-0.6,0.2-1,0.3v-2.6c0-0.7-0.2-1.2-0.5-1.6c-0.3-0.3-0.7-0.5-1.1-0.5c-0.6,0-1.1,0.2-1.3,0.6c-0.3,0.4-0.4,0.9-0.4,1.5
			v11.2c0,0.6,0.1,1.1,0.4,1.5c0.3,0.4,0.7,0.6,1.2,0.6c0.4,0,0.9-0.2,1.2-0.5c0.4,0.2,0.8,0.3,1.2,0.4c0.4,0.1,0.9,0.2,1.3,0.2
			c0.7,0,1.4-0.1,2-0.4c0.7-0.3,1.2-0.7,1.7-1.2c0.5-0.5,0.9-1.1,1.1-1.8c0.3-0.7,0.4-1.4,0.4-2.2c0-0.8-0.1-1.5-0.4-2.2
			C286.3,127.2,285.9,126.6,285.5,126.1z"/>
		<path id="XMLID_127_" class="st0" d="M295.5,124.5c-0.4,0-0.8,0.2-1.2,0.5c-0.3,0.3-0.5,0.9-0.5,1.6v4.3c0,0.4-0.2,0.6-0.4,0.9
			c-0.3,0.2-0.6,0.4-0.9,0.4c-0.4,0-0.7-0.1-0.9-0.4c-0.2-0.3-0.4-0.6-0.4-1v-4.1c0-0.7-0.2-1.3-0.5-1.6c-0.3-0.3-0.7-0.5-1.2-0.5
			c-0.5,0-0.9,0.2-1.2,0.5c-0.3,0.3-0.5,0.8-0.5,1.6v4.2c0,1.5,0.4,2.7,1.2,3.6c0.8,0.8,2,1.2,3.5,1.2c0.3,0,0.6,0,0.9-0.1
			c0.3-0.1,0.6-0.2,0.9-0.3c0.1,0.2,0.3,0.3,0.5,0.3c0.2,0.1,0.4,0.1,0.6,0.1c0.5,0,0.9-0.2,1.2-0.4c0.3-0.3,0.5-0.8,0.5-1.5v-7
			c0-0.8-0.2-1.3-0.5-1.6C296.5,124.7,296.1,124.5,295.5,124.5"/>
		<path id="XMLID_126_" class="st0" d="M300.9,124.2c0.5,0,0.8-0.2,1.2-0.5c0.3-0.3,0.5-0.8,0.5-1.3c0-0.2-0.1-0.4-0.1-0.7
			c-0.1-0.2-0.2-0.4-0.4-0.6c-0.1-0.2-0.3-0.3-0.6-0.4c-0.2-0.1-0.4-0.1-0.6-0.1c-0.5,0-0.9,0.2-1.2,0.5c-0.3,0.3-0.5,0.8-0.5,1.2
			c0,0.5,0.2,0.9,0.5,1.3C300,124,300.4,124.2,300.9,124.2"/>
		<path id="XMLID_125_" class="st0" d="M300.9,124.6c-0.5,0-0.9,0.2-1.1,0.5c-0.3,0.4-0.5,0.9-0.5,1.6v9.3c0,0.1,0,0.3-0.1,0.4
			c-0.1,0.1-0.2,0.2-0.4,0.3c-0.3,0.2-0.6,0.4-0.8,0.7c-0.2,0.3-0.3,0.7-0.3,1.1c0,0.5,0.2,0.9,0.5,1.2c0.3,0.4,0.8,0.5,1.3,0.5h0.1
			c0.3,0,0.6-0.1,1-0.2c0.3-0.1,0.7-0.3,1-0.5c0.3-0.2,0.6-0.6,0.8-1c0.2-0.4,0.3-0.9,0.3-1.6v-10.3c0-0.7-0.2-1.3-0.5-1.6
			C301.9,124.8,301.4,124.6,300.9,124.6"/>
		<path id="XMLID_93_" class="st0" d="M311,131.5c-0.4,0.4-0.8,0.6-1.4,0.6c-0.6,0-1-0.2-1.4-0.6c-0.4-0.4-0.6-0.9-0.6-1.5
			c0-0.6,0.2-1.1,0.6-1.5c0.4-0.4,0.8-0.6,1.4-0.6c0.6,0,1.1,0.2,1.4,0.6c0.4,0.4,0.6,0.9,0.6,1.5
			C311.5,130.6,311.3,131.1,311,131.5 M313.4,124.5h-0.2c-0.5,0-0.9,0.2-1.2,0.5c-0.8-0.4-1.6-0.6-2.5-0.6c-0.7,0-1.4,0.1-2.1,0.4
			c-0.6,0.3-1.2,0.7-1.7,1.2c-0.5,0.5-0.9,1.1-1.2,1.8c-0.3,0.7-0.4,1.4-0.4,2.2c0,0.8,0.1,1.5,0.4,2.2c0.3,0.7,0.7,1.3,1.2,1.8
			c0.5,0.5,1.1,0.9,1.7,1.2c0.6,0.3,1.3,0.4,2.1,0.4c0.4,0,0.9,0,1.3-0.1c0.4-0.1,0.8-0.2,1.2-0.4c0.3,0.4,0.7,0.5,1.2,0.5h0.1
			c0.3,0,0.5-0.1,0.7-0.2c0.2-0.1,0.4-0.3,0.5-0.5c0.1-0.2,0.2-0.4,0.3-0.7c0.1-0.2,0.1-0.5,0.1-0.7v-6.9c0-0.5-0.1-0.9-0.3-1.4
			C314.4,124.8,314,124.5,313.4,124.5z"/>
		<path id="XMLID_77_" class="st0" d="M322.1,129.9c-0.2-0.3-0.5-0.5-0.7-0.7c-0.3-0.2-0.5-0.4-0.8-0.5l-0.1,0
			c-0.1,0-0.1-0.1-0.2-0.1c-0.1-0.1-0.2-0.1-0.3-0.2c-0.1-0.1-0.2-0.1-0.3-0.2c-0.1-0.1-0.1-0.1-0.1-0.2c0-0.1,0-0.2,0-0.3
			c0-0.1,0.1-0.1,0.3-0.1c0.1,0,0.2,0,0.3,0.1c0.1,0.1,0.1,0.2,0.2,0.2c0.2,0.2,0.4,0.4,0.5,0.5c0.2,0.1,0.4,0.2,0.7,0.2
			c0.5,0,0.8-0.2,1-0.5c0.2-0.3,0.3-0.7,0.3-1.2c0-0.3-0.1-0.6-0.3-0.9c-0.2-0.3-0.4-0.6-0.7-0.8c-0.3-0.2-0.7-0.4-1-0.6
			c-0.4-0.1-0.8-0.2-1.1-0.2c-1,0-1.8,0.3-2.4,0.9c-0.6,0.6-0.9,1.4-0.9,2.5c0,0.5,0.1,1,0.2,1.4c0.2,0.4,0.4,0.7,0.6,1
			c0.2,0.3,0.5,0.5,0.8,0.6c0.2,0.2,0.5,0.3,0.7,0.4l0.1,0.1c0.1,0,0.2,0.1,0.3,0.1c0.1,0,0.2,0.1,0.4,0.1c0.1,0.1,0.2,0.1,0.3,0.2
			c0.1,0.1,0.1,0.2,0.1,0.4c0,0.2-0.1,0.3-0.4,0.3c-0.2,0-0.3,0-0.4-0.2c-0.1-0.1-0.3-0.2-0.4-0.3c-0.1-0.1-0.3-0.2-0.4-0.3
			c-0.2-0.1-0.3-0.2-0.5-0.2c-0.5,0-0.8,0.2-1.1,0.4c-0.2,0.3-0.3,0.7-0.3,1.2c0,0.5,0.1,0.8,0.3,1.2c0.2,0.3,0.4,0.6,0.7,0.8
			c0.3,0.2,0.7,0.3,1.1,0.4c0.4,0.1,0.8,0.2,1.2,0.2c0.4,0,0.8-0.1,1.2-0.3c0.4-0.2,0.7-0.4,1-0.7c0.3-0.3,0.5-0.7,0.7-1.1
			c0.2-0.4,0.2-0.8,0.2-1.3c0-0.5-0.1-1-0.2-1.3C322.5,130.5,322.3,130.2,322.1,129.9"/>
	</g>
</g>
</svg>
