<?xml version="1.0" encoding="utf-8"?>
<!-- Generator: Adobe Illustrator 22.0.1, SVG Export Plug-In . SVG Version: 6.00 Build 0)  -->
<svg version="1.1" id="Layer_1" xmlns="http://www.w3.org/2000/svg" xmlns:xlink="http://www.w3.org/1999/xlink" x="0px" y="0px"
	 viewBox="0 0 206.1 160" style="enable-background:new 0 0 206.1 160;" xml:space="preserve">
<style type="text/css">
	.st0{fill:#FFFFFF;}
</style>
<path class="st0" d="M176,73.6c-0.9,0-1.7,0.3-2.3,1c-0.6,0.7-1,1.5-1,2.5c0,1,0.3,1.8,1,2.5c0.6,0.7,1.4,1,2.3,1c1,0,1.8-0.3,2.4-1
	c0.6-0.7,0.9-1.5,0.9-2.5c0-1-0.3-1.8-0.9-2.5C177.8,73.9,177,73.6,176,73.6z"/>
<path class="st0" d="M79.3,73.7c-1,0-1.8,0.3-2.4,1c-0.6,0.7-0.9,1.5-0.9,2.5c0,1,0.3,1.9,0.9,2.5c0.6,0.7,1.4,1,2.4,1
	c0.9,0,1.7-0.3,2.3-1c0.6-0.7,1-1.5,1-2.5c0-1-0.3-1.9-1-2.5C81.1,74,80.3,73.7,79.3,73.7z"/>
<path class="st0" d="M129.4,73.7c-1,0-1.8,0.3-2.4,1c-0.6,0.7-0.9,1.5-0.9,2.5c0,1,0.3,1.9,0.9,2.5c0.6,0.7,1.4,1,2.4,1
	c0.9,0,1.7-0.3,2.3-1c0.6-0.7,1-1.5,1-2.5c0-1-0.3-1.9-1-2.5C131.1,74,130.3,73.7,129.4,73.7z"/>
<g>
	<path class="st0" d="M62.5,77.5c0-15.8,5.2-30.4,14-42.2c-6.3-12.8-19.4-21.6-34.6-21.6c-21.3,0-38.6,17.3-38.6,38.6
		s17.3,38.6,38.6,38.6c7.7,0,14.9-2.3,21-6.2C62.6,82.3,62.5,80,62.5,77.5z M33.8,59.5c0,1-0.2,1.7-0.7,2.1c-0.5,0.4-1,0.6-1.7,0.6
		c-0.7,0-1.2-0.2-1.7-0.6c-0.5-0.4-0.7-1.1-0.7-2.1V54c0-0.5-0.2-0.9-0.5-1.3c-0.3-0.3-0.8-0.5-1.3-0.5c-0.5,0-0.9,0.2-1.2,0.5
		c-0.3,0.3-0.5,0.7-0.6,1.2v5.6c0,1-0.2,1.7-0.7,2.1c-0.5,0.4-1,0.6-1.7,0.6c-0.7,0-1.2-0.2-1.7-0.6c-0.4-0.4-0.7-1.1-0.7-2.1V54
		c0-0.5-0.2-0.9-0.5-1.3c-0.3-0.3-0.8-0.5-1.3-0.5c-0.5,0-0.9,0.2-1.2,0.5c-0.3,0.3-0.5,0.7-0.6,1.2v5.6c0,0.9-0.2,1.6-0.7,2.1
		c-0.5,0.5-1,0.7-1.6,0.7c-0.7,0-1.3-0.2-1.7-0.6c-0.4-0.4-0.7-1.1-0.7-2.1v-9.4c0-0.9,0.2-1.6,0.7-2c0.5-0.4,1-0.6,1.7-0.6
		c0.6,0,1.1,0.2,1.5,0.6c0.4-0.2,0.8-0.4,1.3-0.4c0.4-0.1,0.9-0.1,1.3-0.1c1.7,0,3,0.4,4.1,1.2c1.1-0.8,2.5-1.2,4.1-1.2
		c2,0,3.6,0.6,4.8,1.7c1.1,1.1,1.7,2.7,1.7,4.7V59.5z M40.2,59.5c0,1-0.2,1.7-0.7,2.1c-0.5,0.4-1,0.6-1.7,0.6
		c-0.7,0-1.2-0.2-1.7-0.6c-0.5-0.4-0.7-1.1-0.7-2.1v-9c0-1,0.2-1.7,0.7-2.1c0.5-0.4,1-0.7,1.7-0.7c0.7,0,1.2,0.2,1.7,0.7
		c0.4,0.4,0.7,1.1,0.7,2.1V59.5z M39.5,46.5c-0.5,0.5-1,0.7-1.7,0.7c-0.7,0-1.2-0.2-1.7-0.7c-0.5-0.5-0.7-1-0.7-1.7
		c0-0.6,0.2-1.2,0.7-1.7c0.5-0.5,1-0.7,1.7-0.7c0.3,0,0.6,0.1,0.9,0.2c0.3,0.1,0.5,0.3,0.8,0.5c0.2,0.2,0.4,0.5,0.5,0.8
		c0.1,0.3,0.2,0.6,0.2,0.9C40.2,45.5,40,46,39.5,46.5z M54.9,59.5c0,1-0.2,1.7-0.7,2.1c-0.5,0.4-1,0.6-1.6,0.6
		c-0.7,0-1.2-0.2-1.7-0.6c-0.5-0.4-0.7-1.1-0.7-2.1V54c0-0.5-0.2-0.9-0.5-1.3c-0.3-0.3-0.8-0.5-1.3-0.5c-0.5,0-0.9,0.2-1.2,0.5
		c-0.3,0.3-0.5,0.7-0.6,1.2v5.6c0,0.9-0.2,1.6-0.7,2.1c-0.5,0.5-1,0.7-1.6,0.7c-0.7,0-1.2-0.2-1.7-0.6c-0.4-0.4-0.7-1.1-0.7-2.1
		v-9.4c0-0.9,0.2-1.6,0.7-2c0.5-0.4,1-0.6,1.7-0.6c0.6,0,1.1,0.2,1.5,0.6c0.4-0.2,0.8-0.4,1.3-0.4c0.4-0.1,0.9-0.1,1.3-0.1
		c2,0,3.6,0.6,4.8,1.7c1.1,1.1,1.7,2.7,1.7,4.7V59.5z M61.3,59.5c0,1-0.2,1.7-0.7,2.1c-0.5,0.4-1,0.6-1.7,0.6
		c-0.7,0-1.2-0.2-1.7-0.6c-0.5-0.4-0.7-1.1-0.7-2.1v-9c0-1,0.2-1.7,0.7-2.1c0.5-0.4,1-0.7,1.7-0.7c0.7,0,1.2,0.2,1.7,0.7
		c0.4,0.4,0.7,1.1,0.7,2.1V59.5z M60.6,46.5c-0.5,0.5-1,0.7-1.7,0.7c-0.7,0-1.2-0.2-1.7-0.7c-0.5-0.5-0.7-1-0.7-1.7
		c0-0.6,0.2-1.2,0.7-1.7c0.5-0.5,1-0.7,1.7-0.7c0.3,0,0.6,0.1,0.9,0.2c0.3,0.1,0.5,0.3,0.8,0.5c0.2,0.2,0.4,0.5,0.5,0.8
		c0.1,0.3,0.2,0.6,0.2,0.9C61.3,45.5,61.1,46,60.6,46.5z"/>
</g>
<path class="st0" d="M118.7,152.2c-12.9,0-23.4-10.5-23.4-23.4c0-12.9,10.5-23.4,23.4-23.4c12.9,0,23.4,10.5,23.4,23.4
	C142.1,141.6,131.6,152.2,118.7,152.2"/>
<path class="st0" d="M132.9,9.5c-37.6,0-68.1,30.5-68.1,68c0,22.7,11.1,42.7,28.1,55.1c-0.2-1.3-0.3-2.6-0.3-3.9
	c0-14.3,11.6-26,26-26c14.3,0,26,11.7,26,26c0,6.3-2.3,12.1-6,16.6c34.9-2.9,62.4-32.1,62.4-67.8C201,40,170.5,9.5,132.9,9.5z
	 M159.4,62.4c0.6-0.6,1.2-0.9,2-0.9c0.4,0,0.7,0.1,1.1,0.2c0.4,0.2,0.7,0.4,0.9,0.7c0.3,0.3,0.5,0.6,0.6,1c0.1,0.4,0.2,0.7,0.2,1.1
	c0,0.8-0.3,1.5-0.9,2.1c-0.6,0.6-1.2,0.9-2,0.9c-0.8,0-1.5-0.3-2-0.9c-0.6-0.6-0.8-1.3-0.8-2.1C158.6,63.6,158.9,63,159.4,62.4z
	 M87.6,80.8c-0.5,1.1-1.1,2.1-1.9,3c-0.8,0.8-1.8,1.5-2.8,2c-1.1,0.5-2.2,0.7-3.4,0.7c-0.8,0-1.5-0.1-2.2-0.3
	c-0.7-0.2-1.3-0.4-1.9-0.7c-0.6,0.6-1.2,0.9-2,0.9c-0.9,0-1.5-0.3-2.1-1c-0.5-0.6-0.8-1.4-0.8-2.5V64.2c0-1.1,0.2-1.9,0.7-2.5
	c0.5-0.6,1.2-0.9,2.2-0.9c0.8,0,1.4,0.3,2,0.8c0.5,0.6,0.8,1.4,0.8,2.6v4.3c0.5-0.2,1.1-0.4,1.6-0.5c0.5-0.1,1.1-0.1,1.7-0.1
	c1.2,0,2.4,0.2,3.4,0.7c1.1,0.5,2,1.2,2.8,2c0.8,0.8,1.5,1.8,1.9,3c0.5,1.1,0.7,2.3,0.7,3.6C88.3,78.4,88,79.6,87.6,80.8z
	 M105.4,83.2c0,1.2-0.3,2-0.8,2.5c-0.6,0.5-1.2,0.8-2,0.8c-0.4,0-0.7-0.1-1-0.1c-0.3-0.1-0.6-0.3-0.8-0.5c-0.5,0.3-1,0.4-1.5,0.5
	c-0.5,0.1-1.1,0.1-1.6,0.1c-2.5,0-4.4-0.7-5.8-2.1c-1.4-1.4-2-3.4-2-6v-7c0-1.2,0.3-2.1,0.8-2.6c0.5-0.5,1.2-0.8,2-0.8
	c0.8,0,1.5,0.3,2,0.8c0.5,0.5,0.8,1.4,0.8,2.6v6.9c0,0.6,0.2,1.2,0.6,1.6c0.4,0.4,0.9,0.7,1.5,0.7c0.6,0,1-0.2,1.5-0.6
	c0.4-0.4,0.6-0.9,0.7-1.4v-7.1c0-1.2,0.3-2,0.8-2.6c0.6-0.6,1.2-0.9,1.9-0.9c0.8,0,1.5,0.3,2,0.8c0.5,0.5,0.8,1.4,0.8,2.7V83.2z
	 M117.9,72.8c-0.6,0.5-1.2,0.8-1.9,0.9c-0.6,0.1-1.1,0.3-1.5,0.6c-0.4,0.4-0.7,0.8-0.7,1.4v7.1c0,1.2-0.3,2-0.8,2.6
	c-0.5,0.6-1.2,0.9-1.9,0.9c-0.9,0-1.5-0.3-2.1-0.8c-0.5-0.5-0.8-1.4-0.9-2.7V71.1c0-1.2,0.3-2,0.8-2.5c0.6-0.5,1.2-0.8,2.1-0.8
	c0.7,0,1.3,0.2,1.8,0.7c0.5-0.3,1-0.5,1.5-0.6c0.5-0.1,1.1-0.2,1.6-0.2c0.4,0,0.7,0.1,1.1,0.2c0.3,0.2,0.7,0.4,0.9,0.7
	c0.3,0.3,0.5,0.6,0.6,0.9c0.2,0.3,0.2,0.7,0.2,1.1C118.8,71.5,118.5,72.2,117.9,72.8z M137.6,80.8c-0.5,1.1-1.1,2.1-1.9,3
	c-0.8,0.8-1.7,1.5-2.8,2c-1.1,0.5-2.2,0.7-3.4,0.7c-0.8,0-1.5-0.1-2.2-0.3c-0.7-0.2-1.4-0.4-1.9-0.7c-0.6,0.6-1.2,0.9-2,0.9
	c-0.9,0-1.5-0.3-2.1-1c-0.5-0.6-0.8-1.4-0.8-2.5V64.2c0-1.1,0.2-1.9,0.7-2.5c0.5-0.6,1.2-0.9,2.2-0.9c0.8,0,1.4,0.3,2,0.8
	c0.5,0.6,0.8,1.4,0.8,2.6v4.3c0.5-0.2,1.1-0.4,1.6-0.5c0.5-0.1,1.1-0.1,1.8-0.1c1.2,0,2.4,0.2,3.4,0.7c1.1,0.5,2,1.2,2.8,2
	c0.8,0.8,1.5,1.8,1.9,3c0.5,1.1,0.7,2.3,0.7,3.6C138.3,78.4,138.1,79.6,137.6,80.8z M155.4,83.2c0,1.2-0.3,2-0.8,2.5
	c-0.6,0.5-1.2,0.8-2,0.8c-0.4,0-0.7-0.1-1-0.1c-0.3-0.1-0.6-0.3-0.8-0.5c-0.5,0.3-1,0.4-1.5,0.5c-0.5,0.1-1.1,0.1-1.6,0.1
	c-2.5,0-4.4-0.7-5.8-2.1c-1.4-1.4-2-3.4-2-6v-7c0-1.2,0.3-2.1,0.8-2.6c0.5-0.5,1.2-0.8,2-0.8c0.8,0,1.5,0.3,2,0.8
	c0.5,0.5,0.8,1.4,0.8,2.6v6.9c0,0.6,0.2,1.2,0.6,1.6c0.4,0.4,0.9,0.7,1.5,0.7c0.6,0,1-0.2,1.5-0.6c0.4-0.4,0.6-0.9,0.7-1.4v-7.1
	c0-1.2,0.3-2,0.8-2.6c0.6-0.6,1.2-0.9,1.9-0.9c0.8,0,1.5,0.3,2,0.8c0.5,0.5,0.8,1.4,0.9,2.7V83.2z M164.5,88.9
	c0,1.1-0.2,1.9-0.5,2.6c-0.3,0.7-0.8,1.2-1.3,1.6c-0.5,0.4-1.1,0.7-1.7,0.8c-0.6,0.2-1.2,0.3-1.7,0.3h-0.2c-0.9,0-1.6-0.3-2.2-0.9
	c-0.6-0.6-0.9-1.3-0.9-2c0-0.8,0.2-1.4,0.6-1.9c0.4-0.5,0.9-0.9,1.4-1.2c0.3-0.1,0.5-0.3,0.7-0.5c0.1-0.2,0.2-0.4,0.2-0.6V71.7
	c0-1.3,0.3-2.2,0.7-2.8c0.5-0.6,1.2-0.9,2-0.9c0.8,0,1.6,0.3,2.1,0.9c0.6,0.6,0.8,1.5,0.8,2.8V88.9z M185,82.9c0,0.4,0,0.9-0.2,1.3
	c-0.1,0.4-0.3,0.8-0.5,1.1c-0.2,0.3-0.5,0.6-0.8,0.8c-0.3,0.2-0.7,0.3-1.2,0.3h-0.2c-0.9,0-1.5-0.3-2-0.9c-0.6,0.3-1.2,0.6-2,0.7
	c-0.7,0.2-1.4,0.2-2.2,0.2c-1.2,0-2.4-0.2-3.5-0.7c-1.1-0.5-2-1.2-2.8-2c-0.8-0.8-1.5-1.8-1.9-3c-0.5-1.1-0.7-2.3-0.7-3.6
	c0-1.3,0.2-2.5,0.7-3.6c0.5-1.1,1.1-2.1,1.9-3c0.8-0.8,1.7-1.5,2.8-2c1.1-0.5,2.2-0.7,3.5-0.7c1.5,0,2.8,0.3,4.1,1
	c0.5-0.6,1.2-0.9,2-0.9h0.3c0.9,0.1,1.6,0.5,2,1.2c0.4,0.7,0.5,1.5,0.5,2.3V82.9z M197.8,83c-0.3,0.7-0.7,1.3-1.1,1.8
	c-0.5,0.5-1,0.9-1.7,1.2c-0.6,0.3-1.3,0.4-2,0.4c-0.7,0-1.4-0.1-2.1-0.3c-0.7-0.2-1.3-0.4-1.8-0.8c-0.5-0.3-0.9-0.8-1.2-1.3
	c-0.3-0.5-0.5-1.2-0.5-1.9c0-0.8,0.2-1.4,0.6-1.9c0.4-0.5,1-0.7,1.8-0.7c0.4,0,0.7,0.1,0.9,0.3c0.3,0.2,0.5,0.4,0.7,0.6
	c0.2,0.2,0.5,0.4,0.7,0.6c0.2,0.2,0.5,0.3,0.7,0.3c0.4,0,0.6-0.2,0.6-0.5c0-0.3-0.1-0.5-0.2-0.6c-0.1-0.2-0.3-0.3-0.5-0.4
	c-0.2-0.1-0.4-0.2-0.6-0.3c-0.2-0.1-0.4-0.1-0.5-0.2l-0.2-0.1c-0.3-0.2-0.7-0.4-1.2-0.7c-0.4-0.3-0.8-0.6-1.2-1.1
	c-0.4-0.4-0.7-1-1-1.6c-0.3-0.6-0.4-1.4-0.4-2.3c0-1.7,0.5-3.1,1.5-4.2c1-1,2.3-1.6,4-1.6c0.6,0,1.3,0.1,1.9,0.3
	c0.6,0.2,1.2,0.5,1.7,0.9c0.5,0.4,0.9,0.8,1.2,1.3c0.3,0.5,0.4,1,0.4,1.6c0,0.8-0.2,1.5-0.5,2c-0.3,0.5-0.9,0.8-1.7,0.8
	c-0.5,0-0.9-0.1-1.2-0.3c-0.3-0.2-0.6-0.5-0.9-0.9c0-0.1-0.1-0.2-0.3-0.4c-0.1-0.2-0.3-0.2-0.5-0.2c-0.3,0-0.5,0.1-0.6,0.2
	c-0.1,0.1-0.1,0.3-0.1,0.5c0,0.1,0.1,0.2,0.2,0.3c0.2,0.1,0.3,0.3,0.5,0.4c0.2,0.1,0.4,0.2,0.6,0.3c0.2,0.1,0.3,0.2,0.4,0.2l0.1,0.1
	c0.4,0.2,0.8,0.5,1.3,0.8c0.5,0.3,0.9,0.7,1.2,1.2c0.4,0.5,0.7,1,0.9,1.6c0.2,0.6,0.4,1.4,0.4,2.2C198.2,81.6,198.1,82.3,197.8,83z"
	/>
<path class="st0" d="M84.4,16.9c0,4.4-3.5,7.9-7.9,7.9c-4.4,0-7.9-3.5-7.9-7.9c0-4.4,3.5-7.9,7.9-7.9C80.9,9,84.4,12.6,84.4,16.9"/>
</svg>
