<svg id="Layer_1" data-name="Layer 1" xmlns="http://www.w3.org/2000/svg" xmlns:xlink="http://www.w3.org/1999/xlink" viewBox="0 0 376.14 210.09"><defs><style>.cls-1{fill:url(#linear-gradient);}.cls-2{fill:#61bac6;}.cls-3{fill:#fff;}</style><linearGradient id="linear-gradient" x1="56.41" y1="214.54" x2="56.41" y2="4.45" gradientUnits="userSpaceOnUse"><stop offset="0.01" stop-color="#e7a253"/><stop offset="1" stop-color="#f2db97"/></linearGradient></defs><title>logo_pasos</title><path class="cls-1" d="M56.14,213.09C55,203.33,57.32,108,57.92,61c0,0-37.29,19.54-41.14,18.94C14.41,79.62,4.35,42.33,5.24,41.15c5.32-5.92,66.88-34.63,73.69-36.7,5.33.59,25.45,4.14,28.71,7.69,0,0,0,188.82-1.48,200.66C104.08,213.69,57.92,216.05,56.14,213.09Z" transform="translate(-5.18 -4.45)"/><path class="cls-2" d="M373.85,114.48c.43-.84.78-1.67,1.11-2.43a65.39,65.39,0,0,0,2.37-6.57c.69-2.36,2.31-7.89-1.91-11.82-4-3.72-15.38-6.44-25.38-6.08-11.83.43-20.63,5.46-24.87,13.56a32.37,32.37,0,0,0-18.39-10.49,25.61,25.61,0,0,0,3.5-14.06c-.29-8-3.4-13.18-7.45-16.53.43-.84.78-1.67,1.1-2.43a62.88,62.88,0,0,0,2.37-6.56c.7-2.37,2.32-7.9-1.9-11.83-4-3.72-15.38-6.45-25.38-6.08-11.83.43-20.63,5.45-24.87,13.56-6.43-7.44-16.11-11.66-27.56-11.25a34.15,34.15,0,0,0-20.7,7.59,9.1,9.1,0,0,0-4.34-5,8.25,8.25,0,0,0-2.91-.88,36.5,36.5,0,0,0-5.29-.21,27.66,27.66,0,0,0-9.38,1.9c-2.56-1.56-5.63-1.61-9-1.49-15.67.57-17.63,4.39-18.81,6.67a8.46,8.46,0,0,0-.81,2.41l0,.2a30.5,30.5,0,0,0-22.12-7.92A31.92,31.92,0,0,0,108.64,50.9a37.37,37.37,0,0,0-7.45,24.39c.31,8.7,3.3,16.56,8.4,22.3a8.07,8.07,0,0,0-3.24,4.16c-.67,1.84-1.06,3.66-.19,40.62.88,37.66,1,37.93,2,40a8.43,8.43,0,0,0,3.86,3.79h0c1.86.89,4.1,1.36,10.08,1.15,12.13-.45,14.47-2,15.79-3.06,3.77-2.92,3.67-6.8,3.43-15.85,0-1.42-.08-2.93-.14-4.43a30.41,30.41,0,0,0,4.86.21,32,32,0,0,0,22.28-10c.52-.57,1-1.17,1.47-1.77,4.23,6.79,11.83,10.6,21.57,10.25a26.8,26.8,0,0,0,10.39-2.47,8.2,8.2,0,0,0,3.31.72c.24,0,6,.07,10.13-.08,3.22-.12,7.48-.28,10-3.75a53.5,53.5,0,0,0,23.29,4.54c12.77-.46,20.84-6,24.91-13.28,6.47,7.15,15.93,11.28,26.9,10.88h.15a35.61,35.61,0,0,0,23.86-10.38,8.94,8.94,0,0,0,.83,1.17c.14.16.29.31.44.46,3.82,3.81,16.09,7.77,27.59,7.35,20.05-.73,28.56-14,28.09-26.78C381,123,377.9,117.84,373.85,114.48Z" transform="translate(-5.18 -4.45)"/><path class="cls-3" d="M142.56,83.69a21.08,21.08,0,0,0,11.55-3.46c1,1,5,9.18,5.13,10.66-2.66,2.47-9.47,5.63-17.47,5.63-17.86,0-25.07-11.94-25.07-24.58,0-13.32,8.29-25.76,23.79-25.76,13.13,0,21.12,9.87,21.12,20.93a27.3,27.3,0,0,1-.89,7.6c-4.93.69-22.8.69-28.72.49C132,80.43,135.75,83.69,142.56,83.69Zm4.84-17.87c.2-4.83-2.27-8.58-7-8.58-5.13,0-8.49,3.85-8.49,8.88Z" transform="translate(-5.18 -4.45)"/><path class="cls-3" d="M199.8,63.36a28.75,28.75,0,0,0-6.91-1c-4.54.1-6.91,3.26-7.5,7.6-.19,2.17.59,25.17.2,25.46-.2.4-16.18.6-16.48,0-.3-.39-.3-45.59.1-47.47.89-1.58,14.51-2.07,15.39-1.18.1,2.07,0,6.21,0,6.81,3.66-6.42,10.66-7.7,17.28-6.72C203.45,47.76,201.48,61.38,199.8,63.36Z" transform="translate(-5.18 -4.45)"/><path class="cls-3" d="M255,72c0,12.73-9.18,24.18-25,24.48-14,0-25.07-9.67-25.07-25.76A24.36,24.36,0,0,1,229.8,46.28C243.82,46.28,255,55.76,255,72ZM230.59,61.28c-7-.19-10.46,4.25-10.46,10.66,0,6.91,4.44,10.66,9.08,10.76,6.91.2,10.56-4,10.56-10.86C239.77,64,235.23,61.48,230.59,61.28Z" transform="translate(-5.18 -4.45)"/><path class="cls-3" d="M260.3,91.58c-.79-1,3.75-11.74,4.54-11.35,1.58.79,7.7,5.23,14,5.23,3.95,0,5.92-1.38,5.92-3.55s-1.57-3.35-8-4.54c-11-1.87-16.19-6.51-16.19-14.8,0-10.56,7.21-16.68,19.35-16.68,9.08,0,17.07,3.06,18.35,4.34.89.89-3.65,11.25-4.34,11.35-.49,0-6.81-3.85-12.53-3.85-3.85,0-5.53,1.88-5.53,3.85,0,2.17,1.68,3.16,7.4,4,11.75,1.68,17,5.72,17,14.9,0,8.69-5.92,16.58-19.74,16.58C270.66,97,261.68,93.06,260.3,91.58Z" transform="translate(-5.18 -4.45)"/><path class="cls-3" d="M171.28,125.67c0,15.8-10.66,24.58-22.8,24.68-6.51,0-11.94-3.06-12.73-4.34,0,3.25.4,24.18-.49,24.77s-14.41,1.28-16.29.29c-.29-.09.3-68.59,1.19-70.76.1-.3,14.8.49,14.8.49,0,.6-.1,4.74-.1,5.33.69-1.18,5.93-5.52,14.81-5.52C161.31,100.61,171.28,109.29,171.28,125.67Zm-26.05-10.06c-6.71,0-9.87,4.24-9.87,10.16,0,6.52,4.54,10.46,9.47,10.46,6.22,0,9.77-4.24,9.77-10.36C154.6,119.16,150.56,115.61,145.23,115.61Z" transform="translate(-5.18 -4.45)"/><path class="cls-3" d="M197.14,100.11c12.24,0,21.71,7.21,21.71,21.62,0,10.56-.49,26.94-.79,27.53s-12.73,0-12.73,0l-.89-4.24a17,17,0,0,1-12.63,5.43c-10.76,0-15.3-6.32-15.3-14.91,0-8.88,7.8-14.5,17.67-14.5,4.54,0,7.3,1.28,9.17,2.66.1-4.24.3-10.07-8.58-10.07-6.12,0-9,4.35-9.87,4.44s-7.7-5.92-7.6-7C177.4,109.39,183.91,100.11,197.14,100.11Zm-1,40.66c4.34,0,6.51-2.56,6.51-5.52,0-3.46-2.86-5.63-6.51-5.63-3.85,0-6.42,2.47-6.42,5.63S192.5,140.77,196.15,140.77Z" transform="translate(-5.18 -4.45)"/><path class="cls-3" d="M226.15,146c-.79-1,3.75-11.75,4.54-11.35,1.58.78,7.7,5.23,14,5.23,3.94,0,5.92-1.39,5.92-3.56s-1.58-3.35-8-4.54c-11-1.87-16.18-6.51-16.18-14.8,0-10.56,7.2-16.68,19.34-16.68,9.08,0,17.08,3.06,18.36,4.34.89.89-3.65,11.25-4.34,11.35-.5,0-6.81-3.85-12.54-3.85-3.85,0-5.52,1.88-5.52,3.85,0,2.17,1.67,3.16,7.4,4,11.74,1.68,17,5.72,17,14.9,0,8.69-5.92,16.58-19.74,16.58C236.51,151.43,227.53,147.49,226.15,146Z" transform="translate(-5.18 -4.45)"/><path class="cls-3" d="M320.9,126.46c0,12.74-9.18,24.18-25,24.48-14,0-25.06-9.67-25.06-25.76a24.35,24.35,0,0,1,24.87-24.48C309.74,100.7,320.9,110.18,320.9,126.46Zm-24.38-10.75c-7-.2-10.46,4.24-10.46,10.65,0,6.91,4.44,10.66,9.08,10.76,6.91.2,10.56-4,10.56-10.85C305.7,118.37,301.16,115.9,296.52,115.71Z" transform="translate(-5.18 -4.45)"/><path class="cls-3" d="M326.22,146c-.79-1,3.75-11.75,4.54-11.35,1.58.78,7.7,5.23,14,5.23,3.94,0,5.92-1.39,5.92-3.56s-1.58-3.35-8-4.54c-11.05-1.87-16.18-6.51-16.18-14.8,0-10.56,7.2-16.68,19.34-16.68,9.08,0,17.08,3.06,18.36,4.34.89.89-3.65,11.25-4.34,11.35-.5,0-6.81-3.85-12.54-3.85-3.85,0-5.52,1.88-5.52,3.85,0,2.17,1.67,3.16,7.4,4,11.74,1.68,17,5.72,17,14.9,0,8.69-5.92,16.58-19.74,16.58C336.58,151.43,327.6,147.49,326.22,146Z" transform="translate(-5.18 -4.45)"/></svg>