<?xml version="1.0" encoding="utf-8"?>
<!-- Generator: Adobe Illustrator 22.0.1, SVG Export Plug-In . SVG Version: 6.00 Build 0)  -->
<svg version="1.1" id="Layer_1" xmlns="http://www.w3.org/2000/svg" xmlns:xlink="http://www.w3.org/1999/xlink" x="0px" y="0px"
	 viewBox="0 0 456.5 98.5" style="enable-background:new 0 0 456.5 98.5;" xml:space="preserve">
<style type="text/css">
	.st0{fill:#FFFFFF;}
</style>
<g>
	<g>
		<path class="st0" d="M13.6,66.8c2.9,2,6.5,4.6,12,4.6c5,0,9.7-2.8,9.7-11.9c0-16.4-0.9-41.8-0.9-54.2c4.3-1.1,21-1.8,21.8-1.1
			c0.9,4.4,1.1,37,1.1,57c0,20.2-10.6,30.4-27.9,30.4c-12,0-19.7-3.7-23.5-7.5C5.6,82.8,11.5,68.6,13.6,66.8z"/>
		<path class="st0" d="M94.8,5.5c0.6,2.2-1.1,34.7-1.1,47.2c0,13.3,4.6,18.3,14.1,18.3c10.9,0,14.2-7.8,14.2-17.8
			c0-15.5-0.9-42.7-0.9-48.7c1.6-1.1,22.7-2,23-0.7c0.5,2.2,1,35.9,1,50.7c0,20.1-7.5,38-36.9,38c-23,0-36.8-10.9-36.8-37.3
			c0-11.9,0.7-42.8,1.8-49.4C73.5,3.8,94.4,4.7,94.8,5.5z"/>
		<path class="st0" d="M213,91c-2.3-2.9-19.9-31.7-31.8-50c0,17.6,0.7,39.6,0.4,48.8c-4.2,1.1-21.1,1.2-21.3,0c-0.6-7-1-75.8,0-84.1
			c0.5-2.2,19.6-2.2,20.2-1.3c1.3,2.1,22.1,34,32.4,52.8c0.2-19.7-0.5-44.9,0-51.2c4.2-1.1,20.4-0.9,21.2-0.1
			c0.7,0.7,0.4,75.3-0.9,83.6C232.6,91.6,214.4,92,213,91z"/>
		<path class="st0" d="M272.6,5.2c0.9,5.1,0.7,77.3-0.1,85.1c-0.7,2.2-21.6,1.3-21.8,0.5c-0.5-8.7-0.9-73.6,0.1-85.3
			C254.8,4,271.9,4.4,272.6,5.2z"/>
		<path class="st0" d="M369.2,48.8c0,21.6-12.8,43.8-42.1,43.8c-26,0-42.3-18.5-42.3-45.7c0-22.1,13.9-43.8,41.9-43.8
			C352.4,3.1,369.2,20.3,369.2,48.8z M327.1,23c-12.6,0-19.7,9.9-19.7,25.1c0,13.7,7.5,24.4,19.2,24.4c13.1,0,19.2-10,19.2-25.3
			C345.8,30.8,338,23,327.1,23z"/>
		<path class="st0" d="M381.2,90.6c-0.6-5.7-0.1-76.5,1-85c6.2-0.7,19.4-1.3,29-1.3c23.5,0,36.9,9.3,36.9,29.7
			c0,12.7-6,20.2-15.5,24.1c9.3,11.2,18.8,26.2,18.5,26.7c-1.3,1.8-15.4,7.7-19.1,7.6c-0.4,0-11-17.2-21.2-30.6
			c-0.5,0.1-1.1,0.1-1.6,0.1c-2.1,0-5-0.1-6.5-0.2c-0.1,8.4-0.1,25.1-0.6,28.6C400.8,90.8,381.3,91.4,381.2,90.6z M412.7,45
			c8,0,13.4-3.2,13.4-10.5c0-6.8-3.5-11.2-14.2-11.2c-2.3,0-5.6,0.1-8.1,0.4c0.1,3.3,0,16.7,0,21C406.2,44.9,409.9,45,412.7,45z"/>
	</g>
</g>
</svg>
