<?xml version="1.0" encoding="utf-8"?>
<!-- Generator: Adobe Illustrator 22.0.1, SVG Export Plug-In . SVG Version: 6.00 Build 0)  -->
<svg version="1.1" id="Layer_1" xmlns="http://www.w3.org/2000/svg" xmlns:xlink="http://www.w3.org/1999/xlink" x="0px" y="0px"
	 viewBox="0 0 521.7 256.6" style="enable-background:new 0 0 521.7 256.6;" xml:space="preserve">
<style type="text/css">
	.st0{fill:#FFFFFF;}
	.st1{fill:#EBCD73;}
</style>
<title>logo_junior</title>
<g>
	<g>
		<path class="st0" d="M12.7,154.6c3.4,2.3,7.5,5.4,13.8,5.4c5.8,0,11.2-3.2,11.2-13.7c0-18.9-1-48.3-1-62.5
			c4.9-1.3,24.3-2.1,25.1-1.3c1,5.1,1.3,42.8,1.3,65.8c0,23.3-12.3,35.2-32.2,35.2c-13.8,0-22.7-4.2-27.1-8.6
			C3.5,173.1,10.3,156.7,12.7,154.6z"/>
		<path class="st0" d="M106.4,83.8c0.7,2.5-1.3,40.1-1.3,54.5c0,15.4,5.4,21.2,16.2,21.2c12.6,0,16.4-9,16.4-20.6
			c0-17.9-1-49.3-1-56.2c1.8-1.3,26.3-2.3,26.5-0.8c0.6,2.5,1.1,41.5,1.1,58.6c0,23.2-8.6,43.9-42.6,43.9
			c-26.5,0-42.5-12.6-42.5-43.1c0-13.7,0.8-49.4,2.1-57C81.9,81.8,106,82.8,106.4,83.8z"/>
		<path class="st0" d="M243,182.5c-2.7-3.4-23-36.6-36.7-57.7c0,20.3,0.8,45.7,0.4,56.3c-4.8,1.3-24.4,1.4-24.6,0
			c-0.7-8-1.1-87.5,0-97.1c0.6-2.5,22.6-2.5,23.3-1.6c1.6,2.4,25.6,39.3,37.4,61c0.3-22.7-0.6-51.8,0-59.2c4.8-1.3,23.6-1,24.4-0.1
			c0.8,0.8,0.4,87-1,96.6C265.7,183.2,244.7,183.6,243,182.5z"/>
		<path class="st0" d="M311.9,83.4c1,5.9,0.8,89.2-0.1,98.3c-0.8,2.5-25,1.6-25.1,0.6c-0.6-10-1-85,0.1-98.6
			C291.3,82,311,82.5,311.9,83.4z"/>
		<path class="st0" d="M423.4,133.8c0,25-14.8,50.5-48.6,50.5c-30.1,0-48.9-21.3-48.9-52.8C326,106,342.1,81,374.4,81
			C404.1,81,423.4,100.9,423.4,133.8z M374.8,104c-14.5,0-22.7,11.4-22.7,28.9c0,15.8,8.6,28.2,22.2,28.2
			c15.1,0,22.2-11.6,22.2-29.2C396.4,113,387.4,104,374.8,104z"/>
		<path class="st0" d="M437.3,182.1c-0.7-6.6-0.1-88.4,1.1-98.1c7.2-0.8,22.5-1.6,33.5-1.6c27.1,0,42.6,10.7,42.6,34.3
			c0,14.7-6.9,23.3-17.9,27.8c10.7,13,21.7,30.2,21.3,30.8c-1.6,2.1-17.8,8.9-22,8.8c-0.4,0-12.7-19.9-24.4-35.3
			c-0.6,0.1-1.3,0.1-1.8,0.1c-2.4,0-5.8-0.1-7.5-0.3c-0.1,9.7-0.1,28.9-0.7,33C460,182.2,437.4,182.9,437.3,182.1z M473.7,129.4
			c9.2,0,15.5-3.7,15.5-12.1c0-7.9-4.1-13-16.4-13c-2.7,0-6.5,0.1-9.3,0.4c0.1,3.8,0,19.3,0,24.3
			C466.2,129.3,470.4,129.4,473.7,129.4z"/>
	</g>
</g>
<path class="st1" d="M353.3,256.7c-12.1,0-22-9.5-22.7-21.4c0-0.2,0-0.4,0-0.6c0-7.6-6.2-13.7-13.7-13.7c-7.6,0-13.7,6.2-13.7,13.7
	c0,0.2,0,0.4,0,0.6c-0.7,11.9-10.6,21.4-22.7,21.4s-22-9.5-22.7-21.4c0-0.2,0-0.4,0-0.6c0-7.6-6.2-13.7-13.7-13.7
	s-13.7,6.2-13.7,13.7c0,0.2,0,0.4,0,0.6c-0.7,11.9-10.6,21.4-22.7,21.4c-12.1,0-22-9.5-22.7-21.4c0-0.2,0-0.4,0-0.6
	c0-7.6-6.2-13.7-13.7-13.7s-13.7,6.2-13.7,13.7c0,2.5-2,4.5-4.5,4.5c-2.5,0-4.5-2-4.5-4.5c0-12.6,10.2-22.8,22.8-22.8
	c12.1,0,22,9.5,22.7,21.4c0,0.2,0,0.4,0,0.6c0,7.6,6.2,13.7,13.7,13.7s13.7-6.2,13.7-13.7c0-0.2,0-0.4,0-0.6
	c0.7-11.9,10.6-21.4,22.7-21.4s22,9.5,22.7,21.4c0,0.2,0,0.4,0,0.6c0,7.6,6.2,13.7,13.7,13.7c7.6,0,13.7-6.2,13.7-13.7
	c0-0.2,0-0.4,0-0.6c0.7-11.9,10.6-21.4,22.7-21.4c12.1,0,22,9.5,22.7,21.4c0,0.2,0,0.4,0,0.6c0,7.6,6.2,13.7,13.7,13.7
	c7.6,0,13.7-6.2,13.7-13.7c0-2.5,2-4.5,4.5-4.5s4.5,2,4.5,4.5C376,246.5,365.8,256.7,353.3,256.7z"/>
<path class="st1" d="M353.3,56.9c-12.1,0-22-9.5-22.7-21.4c0-0.2,0-0.4,0-0.6c0-7.6-6.2-13.7-13.7-13.7c-7.6,0-13.7,6.2-13.7,13.7
	c0,0.2,0,0.4,0,0.6c-0.7,11.9-10.6,21.4-22.7,21.4s-22-9.5-22.7-21.4c0-0.2,0-0.4,0-0.6c0-7.6-6.2-13.7-13.7-13.7
	s-13.7,6.2-13.7,13.7c0,0.2,0,0.4,0,0.6c-0.7,11.9-10.6,21.4-22.7,21.4c-12.1,0-22-9.5-22.7-21.4c0-0.2,0-0.4,0-0.6
	c0-7.6-6.2-13.7-13.7-13.7s-13.7,6.2-13.7,13.7c0,2.5-2,4.5-4.5,4.5c-2.5,0-4.5-2-4.5-4.5c0-12.6,10.2-22.8,22.8-22.8
	c12.1,0,22,9.5,22.7,21.4c0,0.2,0,0.4,0,0.6c0,7.6,6.2,13.7,13.7,13.7s13.7-6.2,13.7-13.7c0-0.2,0-0.4,0-0.6
	c0.7-11.9,10.6-21.4,22.7-21.4s22,9.5,22.7,21.4c0,0.2,0,0.4,0,0.6c0,7.6,6.2,13.7,13.7,13.7c7.6,0,13.7-6.2,13.7-13.7
	c0-0.2,0-0.4,0-0.6c0.7-11.9,10.6-21.4,22.7-21.4c12.1,0,22,9.5,22.7,21.4c0,0.2,0,0.4,0,0.6c0,7.6,6.2,13.7,13.7,13.7
	c7.6,0,13.7-6.2,13.7-13.7c0-2.5,2-4.5,4.5-4.5s4.5,2,4.5,4.5C376,46.7,365.8,56.9,353.3,56.9z"/>
</svg>
