<?xml version="1.0" encoding="utf-8"?>
<!-- Generator: Adobe Illustrator 22.0.1, SVG Export Plug-In . SVG Version: 6.00 Build 0)  -->
<svg version="1.1" id="Layer_1" xmlns="http://www.w3.org/2000/svg" xmlns:xlink="http://www.w3.org/1999/xlink" x="0px" y="0px"
	 viewBox="0 0 295.4 142.5" style="enable-background:new 0 0 295.4 142.5;" xml:space="preserve">
<style type="text/css">
	.st0{fill:#FFFFFF;}
</style>
<g>
	<path class="st0" d="M114.7,61.8c4.3,0,7.2-1.5,9.3-2.8c0.8,0.8,4.1,7.4,4.1,8.6c-2.1,2-7.6,4.5-14.1,4.5
		c-14.4,0-20.2-9.6-20.2-19.8c0-10.7,6.7-20.8,19.2-20.8c10.6,0,17,8,17,16.9c0,2.5-0.2,4.5-0.7,6.1c-4,0.6-18.4,0.6-23.2,0.4
		C106.1,59.2,109.2,61.8,114.7,61.8z M118.6,47.4c0.2-3.9-1.8-6.9-5.7-6.9c-4.1,0-6.8,3.1-6.8,7.2L118.6,47.4z"/>
	<path class="st0" d="M160.8,45.5c-1.3-0.3-3.9-0.9-5.6-0.8c-3.7,0.1-5.6,2.6-6,6.1c-0.2,1.8,0.5,20.3,0.2,20.5
		c-0.2,0.3-13.1,0.5-13.3,0c-0.2-0.3-0.2-36.8,0.1-38.3c0.7-1.3,11.7-1.7,12.4-1c0.1,1.7,0,5,0,5.5c2.9-5.2,8.6-6.2,13.9-5.4
		C163.8,32.9,162.2,43.9,160.8,45.5z"/>
	<path class="st0" d="M205.4,52.5c0,10.3-7.4,19.5-20.1,19.7c-11.3,0-20.2-7.8-20.2-20.8c0-9.9,7.6-19.7,20.1-19.7
		C196.4,31.7,205.4,39.3,205.4,52.5z M185.7,43.8c-5.7-0.2-8.4,3.4-8.4,8.6c0,5.6,3.6,8.6,7.3,8.7c5.6,0.2,8.5-3.2,8.5-8.8
		C193.1,45.9,189.5,43.9,185.7,43.8z"/>
	<path class="st0" d="M209.7,68.2c-0.6-0.8,3-9.5,3.7-9.2c1.3,0.6,6.2,4.2,11.3,4.2c3.2,0,4.8-1.1,4.8-2.9s-1.3-2.7-6.4-3.7
		c-8.9-1.5-13.1-5.3-13.1-11.9c0-8.5,5.8-13.5,15.6-13.5c7.3,0,13.8,2.5,14.8,3.5c0.7,0.7-2.9,9.1-3.5,9.2c-0.4,0-5.5-3.1-10.1-3.1
		c-3.1,0-4.5,1.5-4.5,3.1c0,1.8,1.4,2.5,6,3.2c9.5,1.4,13.7,4.6,13.7,12c0,7-4.8,13.4-15.9,13.4C218,72.6,210.8,69.4,209.7,68.2z"/>
</g>
<g>
	<path class="st0" d="M136.8,96.7c0,12.7-8.6,19.8-18.4,19.9c-5.3,0-9.6-2.5-10.3-3.5c0,2.6,0.3,19.5-0.4,20
		c-0.7,0.6-11.6,1-13.1,0.2c-0.2-0.1,0.2-55.3,1-57.1c0.1-0.2,11.9,0.4,11.9,0.4c0,0.5-0.1,3.8-0.1,4.3c0.6-1,4.8-4.5,11.9-4.5
		C128.7,76.5,136.8,83.5,136.8,96.7z M115.8,88.6c-5.4,0-8,3.4-8,8.2c0,5.3,3.7,8.4,7.6,8.4c5,0,7.9-3.4,7.9-8.4
		C123.3,91.5,120.1,88.6,115.8,88.6z"/>
	<path class="st0" d="M157.6,76.1c9.9,0,17.5,5.8,17.5,17.4c0,8.5-0.4,21.7-0.6,22.2s-10.3,0-10.3,0l-0.7-3.4
		c-0.6,0.6-3.9,4.4-10.2,4.4c-8.7,0-12.3-5.1-12.3-12c0-7.2,6.3-11.7,14.2-11.7c3.7,0,5.9,1,7.4,2.1c0.1-3.4,0.2-8.1-6.9-8.1
		c-4.9,0-7.2,3.5-8,3.6c-0.7,0-6.2-4.8-6.1-5.7C141.7,83.6,147,76.1,157.6,76.1z M156.8,108.9c3.5,0,5.3-2.1,5.3-4.5
		c0-2.8-2.3-4.5-5.3-4.5c-3.1,0-5.2,2-5.2,4.5C151.7,107.1,153.9,108.9,156.8,108.9z"/>
	<path class="st0" d="M181,113.1c-0.6-0.8,3-9.5,3.7-9.2c1.3,0.6,6.2,4.2,11.3,4.2c3.2,0,4.8-1.1,4.8-2.9c0-1.8-1.3-2.7-6.4-3.7
		c-8.9-1.5-13.1-5.3-13.1-11.9c0-8.5,5.8-13.5,15.6-13.5c7.3,0,13.8,2.5,14.8,3.5c0.7,0.7-2.9,9.1-3.5,9.2c-0.4,0-5.5-3.1-10.1-3.1
		c-3.1,0-4.5,1.5-4.5,3.1c0,1.8,1.4,2.5,6,3.2c9.5,1.4,13.7,4.6,13.7,12c0,7-4.8,13.4-15.9,13.4C189.4,117.5,182.1,114.3,181,113.1z
		"/>
	<path class="st0" d="M257.4,97.3c0,10.3-7.4,19.5-20.1,19.7c-11.3,0-20.2-7.8-20.2-20.8c0-9.9,7.6-19.7,20.1-19.7
		C248.4,76.6,257.4,84.2,257.4,97.3z M237.8,88.7c-5.7-0.2-8.4,3.4-8.4,8.6c0,5.6,3.6,8.6,7.3,8.7c5.6,0.2,8.5-3.2,8.5-8.8
		C245.2,90.8,241.5,88.8,237.8,88.7z"/>
	<path class="st0" d="M261.7,113.1c-0.6-0.8,3-9.5,3.7-9.2c1.3,0.6,6.2,4.2,11.3,4.2c3.2,0,4.8-1.1,4.8-2.9c0-1.8-1.3-2.7-6.4-3.7
		c-8.9-1.5-13.1-5.3-13.1-11.9c0-8.5,5.8-13.5,15.6-13.5c7.3,0,13.8,2.5,14.8,3.5c0.7,0.7-2.9,9.1-3.5,9.2c-0.4,0-5.5-3.1-10.1-3.1
		c-3.1,0-4.5,1.5-4.5,3.1c0,1.8,1.4,2.5,6,3.2c9.5,1.4,13.7,4.6,13.7,12c0,7-4.8,13.4-15.9,13.4
		C270.1,117.5,262.8,114.3,261.7,113.1z"/>
</g>
<path class="st0" d="M37.7,136.3c-0.7-6.1,0.7-65.5,1.1-94.9c0,0-23.3,12.2-25.7,11.8C11.7,53,5.4,29.8,6,29
	C9.3,25.3,47.7,7.4,52,6.1c3.3,0.4,31.9,2.6,33.9,4.8c0,0,0,117.7-0.9,125.1C83.6,136.6,38.8,138.1,37.7,136.3"/>
</svg>
