<?xml version="1.0" encoding="utf-8"?>
<!-- Generator: Adobe Illustrator 22.0.1, SVG Export Plug-In . SVG Version: 6.00 Build 0)  -->
<svg version="1.1" id="Layer_1" xmlns="http://www.w3.org/2000/svg" xmlns:xlink="http://www.w3.org/1999/xlink" x="0px" y="0px"
	 viewBox="0 0 410.2 202.2" style="enable-background:new 0 0 410.2 202.2;" xml:space="preserve">
<style type="text/css">
	.st0{fill:#324F5B;}
	.st1{fill:none;stroke:#EBCD73;stroke-width:7.1375;stroke-linecap:round;stroke-linejoin:round;stroke-miterlimit:10;}
</style>
<g>
	<g>
		<g>
			<path class="st0" d="M9.7,119.2c2.4,1.6,5.3,3.8,9.8,3.8c4.1,0,7.9-2.3,7.9-9.7c0-13.4-0.7-34.2-0.7-44.3
				c3.5-0.9,17.2-1.5,17.8-0.9c0.7,3.6,0.9,30.3,0.9,46.6c0,16.5-8.7,24.9-22.8,24.9c-9.8,0-16.1-3-19.2-6.1
				C3.2,132.3,8,120.7,9.7,119.2z"/>
			<path class="st0" d="M76.1,69.1c0.5,1.8-0.9,28.4-0.9,38.6c0,10.9,3.8,15,11.5,15c8.9,0,11.6-6.4,11.6-14.6
				c0-12.7-0.7-34.9-0.7-39.8c1.3-0.9,18.6-1.6,18.8-0.6c0.4,1.8,0.8,29.4,0.8,41.5c0,16.4-6.1,31.1-30.2,31.1
				c-18.8,0-30.1-8.9-30.1-30.5c0-9.7,0.6-35,1.5-40.4C58.7,67.7,75.8,68.4,76.1,69.1z"/>
			<path class="st0" d="M156.3,117.2c1.7-8.1,10.9-41.8,13.3-49.3c0.5-0.4,18.1,0.2,18.5,1.7c-1.8,8.4-20.1,68.2-21,68.8
				c-1,0.6-18.5,1.2-21.1,0.7c-0.3-0.1-19.9-58.4-21.9-69.6c0.7-1.7,17.9-2.5,18.4-1.8c0.8,1.7,11.7,41.4,13.2,49.6
				C155.9,117.3,156.1,117.2,156.3,117.2z"/>
			<path class="st0" d="M243,138.7c0.8,0.5-39,0.7-47-0.1c-0.5-7.9,0-56.5,0.6-70c9.3-0.6,46.4-0.8,47.5-0.3
				c0.7,1.8,0.7,11.9,0.2,15.2c-2.8,0.3-22.8,0.4-31,0.1l0.2,12.2c8.8-0.1,22.7,0.1,23.3,0.6c1.1,0.9,0.3,14,0.3,14.4
				c0,0.5-14.1,0.5-23.6,0.2c0,4.5,0,9.3-0.1,12.8c9-0.2,26.7-0.3,29.5-0.1C243.7,127,243.5,137,243,138.7z"/>
			<path class="st0" d="M297.6,139c-1.9-2.4-16.3-25.9-26-40.9c0,14.4,0.6,32.4,0.3,39.9c-3.4,0.9-17.3,1-17.4,0
				c-0.5-5.7-0.8-62,0-68.8c0.4-1.8,16-1.8,16.5-1.1c1.1,1.7,18.1,27.8,26.5,43.2c0.2-16.1-0.4-36.7,0-41.9
				c3.4-0.9,16.7-0.7,17.3-0.1c0.6,0.6,0.3,61.6-0.7,68.4C313.7,139.5,298.8,139.8,297.6,139z"/>
			<path class="st0" d="M346.4,68.8c0.7,4.2,0.6,63.2-0.1,69.6c-0.6,1.8-17.7,1.1-17.8,0.4c-0.4-7.1-0.7-60.2,0.1-69.8
				C331.8,67.8,345.8,68.2,346.4,68.8z"/>
			<path class="st0" d="M405.5,138.4c-0.1,0.5-42.1,0.5-45.5-0.1c-0.5-7.7-0.3-66.1,0.4-69.7c0.5-0.6,17.3-1.1,17.5-0.5
				c0.2,3.3-0.1,48.4-0.4,54.8c8.7-0.3,24.6-0.5,27.6-0.1C405.9,126.1,406,136.6,405.5,138.4z"/>
		</g>
	</g>
	<path class="st1" d="M290.5,174.3c0,8-6.5,14.4-14.4,14.4c-8,0-14.4-6.5-14.4-14.4v0.6c0-8-6.5-14.4-14.4-14.4
		c-8,0-14.4,6.5-14.4,14.4v-0.6c0,8-6.5,14.4-14.4,14.4c-8,0-14.4-6.5-14.4-14.4v0.6c0-8-6.5-14.4-14.4-14.4
		c-8,0-14.4,6.5-14.4,14.4v-0.6c0,8-6.5,14.4-14.4,14.4c-8,0-14.4-6.5-14.4-14.4v0.6c0-8-6.5-14.4-14.4-14.4
		c-8,0-14.4,6.5-14.4,14.4"/>
	<path class="st1" d="M290.5,26.8c0,8-6.5,14.4-14.4,14.4c-8,0-14.4-6.5-14.4-14.4v0.6c0-8-6.5-14.4-14.4-14.4
		c-8,0-14.4,6.5-14.4,14.4v-0.6c0,8-6.5,14.4-14.4,14.4c-8,0-14.4-6.5-14.4-14.4v0.6c0-8-6.5-14.4-14.4-14.4
		c-8,0-14.4,6.5-14.4,14.4v-0.6c0,8-6.5,14.4-14.4,14.4c-8,0-14.4-6.5-14.4-14.4v0.6c0-8-6.5-14.4-14.4-14.4
		c-8,0-14.4,6.5-14.4,14.4"/>
</g>
</svg>
