<svg id="Layer_1" data-name="Layer 1" xmlns="http://www.w3.org/2000/svg" viewBox="0 0 520.8 237.62"><defs><style>.cls-1{fill:#6cd8ac;}.cls-2{fill:#fff;}.cls-3{fill:#005f93;}</style></defs><title>logo_baby</title><path class="cls-1" d="M522.63,73.65a31.31,31.31,0,0,0-20.26-14.39c-.94-.22-1.89-.39-2.82-.52a31.92,31.92,0,0,0-4.57-.32c-14.8,0-27,10-30.37,24.82l-9.92,43.81a11.62,11.62,0,0,1-2.12,4.63,16,16,0,0,1-4.52,4.11,16.44,16.44,0,0,1-5.93,2.17,16.06,16.06,0,0,1-2.64.23,15.3,15.3,0,0,1-3.45-.4,10,10,0,0,1-4.11-1.75,9.42,9.42,0,0,1-2.65-3,13.18,13.18,0,0,1-1.5-4.9,20.33,20.33,0,0,1,.43-7.09l9.92-43.79a31.88,31.88,0,0,0-3.48-23.53,31.29,31.29,0,0,0-20.26-14.4c-.93-.21-1.89-.39-2.83-.52a33.55,33.55,0,0,0-4.57-.32h0A30.42,30.42,0,0,0,380.62,53.3a76.07,76.07,0,0,0-8.42-5.49,73,73,0,0,0-29.37-8.72c-2.14-.18-4.29-.27-6.4-.27a74.23,74.23,0,0,0-9.71.64l.13-1.58A31.44,31.44,0,0,0,298.23,4c-.84-.07-1.77-.12-2.69-.12h0a30.79,30.79,0,0,0-20.12,7.46,31.1,31.1,0,0,0-11,21.26l-.4,4.79A30.15,30.15,0,0,0,248.19,33c-.7,0-1.43,0-2.2.08A32.17,32.17,0,0,0,226.8,41c-2-.71-4-1.37-6-2a73.93,73.93,0,0,0-20.69-2.9c-1.8,0-3.64.06-5.47.19a75.93,75.93,0,0,0-54,27.66c-1,1.2-1.85,2.47-2.76,3.72a73.75,73.75,0,0,0-23.58-9.06,71.16,71.16,0,0,0-13.85-1.36,76.38,76.38,0,0,0-16.78,1.91,74.81,74.81,0,0,0-15.26,5.22l-.36-1.57A31.44,31.44,0,0,0,37.44,38.48a30.65,30.65,0,0,0-6.89.78A31.43,31.43,0,0,0,7,76.76L34.33,197.19a29.2,29.2,0,0,0,28.51,23,30.7,30.7,0,0,0,6.77-.77,31.39,31.39,0,0,0,16.88-10.06,84.45,84.45,0,0,0,8.45,1.08c1.86.14,3.76.21,5.64.21a76.86,76.86,0,0,0,17.07-1.94A73,73,0,0,0,145.52,196a74.49,74.49,0,0,0,13.21-12.85,76.85,76.85,0,0,0,15.21,7.58,74.8,74.8,0,0,0,25.93,4.55c1.82,0,3.69-.06,5.55-.19a77.78,77.78,0,0,0,23.45-5.27c2.75-1.09,5.42-2.3,8-3.62a32.23,32.23,0,0,0,17.65,5.27c.75,0,1.51,0,2.27-.08a30.46,30.46,0,0,0,15.89-5.71,30.3,30.3,0,0,0,8.4,1.93c.91.08,1.83.12,2.74.12a31.14,31.14,0,0,0,16.39-4.61,84.48,84.48,0,0,0,7.71,3.57,76.24,76.24,0,0,0,22.18,5.21c2.2.19,4.39.28,6.53.28a72,72,0,0,0,23.89-4,73.68,73.68,0,0,0,22.88-12.94,73.51,73.51,0,0,0,5.35,5.54c-.71.72-1.39,1.48-2,2.27A31.48,31.48,0,0,0,380,207.42a32.08,32.08,0,0,0,15.88,23.09l.11.06.1.06.41.23.11.06.11.06a86.77,86.77,0,0,0,11.55,5.24,92.45,92.45,0,0,0,11.18,3.3c2.28.52,4.56.94,6.8,1.25a77,77,0,0,0,10.78.76,73.71,73.71,0,0,0,10.95-.81,70.22,70.22,0,0,0,26.12-9.33A67.8,67.8,0,0,0,494.58,212a75.31,75.31,0,0,0,11.56-26.66l20-88.2A31.84,31.84,0,0,0,522.63,73.65Z" transform="translate(-6.18 -3.91)"/><path class="cls-2" d="M437,228.39a64.58,64.58,0,0,1-9-.64c-1.88-.26-3.81-.61-5.72-1.05a77.75,77.75,0,0,1-9.57-2.82,75.46,75.46,0,0,1-9.83-4.46l-.42-.24A18.77,18.77,0,0,1,393,205.59a18.43,18.43,0,0,1,3.86-14.27,18.21,18.21,0,0,1,12.76-6.77c.46,0,.92-.05,1.39-.05a18.61,18.61,0,0,1,10.38,3.2,37.57,37.57,0,0,0,9.19,3.57,29.12,29.12,0,0,0,6.4.74,26.51,26.51,0,0,0,3.22-.2,20.87,20.87,0,0,0,7.88-2.58,17.07,17.07,0,0,0,4.17-3.37,69,69,0,0,1-8,1.09c-1.54.12-3.11.18-4.67.18a64.08,64.08,0,0,1-14.14-1.6,60,60,0,0,1-38.88-28.24,63.36,63.36,0,0,1-8-22.47,65.65,65.65,0,0,1,.94-24.81l9.92-43.8c2-8.86,8.9-14.58,17.55-14.58a19.62,19.62,0,0,1,2.74.19c.58.08,1.17.19,1.76.32a18.26,18.26,0,0,1,11.87,8.32,18.45,18.45,0,0,1,1.95,13.88l-9.92,43.8a33.49,33.49,0,0,0-.66,11.61,26.17,26.17,0,0,0,3,9.64,22.46,22.46,0,0,0,6.17,7.09,23.2,23.2,0,0,0,9.19,4.13,28.4,28.4,0,0,0,11.22.3A29.7,29.7,0,0,0,454.87,147a29.14,29.14,0,0,0,8.18-7.42,24.71,24.71,0,0,0,4.46-9.66l9.92-43.8c2-8.86,8.9-14.59,17.55-14.59a21,21,0,0,1,2.74.19c.58.09,1.16.19,1.75.32A17.9,17.9,0,0,1,513.3,94.28l-20,88.19a62.18,62.18,0,0,1-9.51,22,54.72,54.72,0,0,1-16.52,15.64A57,57,0,0,1,446,227.72,60.89,60.89,0,0,1,437,228.39Z" transform="translate(-6.18 -3.91)"/><path class="cls-3" d="M407,52.36a18.44,18.44,0,0,1,2.64.19c.55.08,1.11.18,1.7.31a17.57,17.57,0,0,1,11.4,8,17.76,17.76,0,0,1,1.86,13.34L414.66,118a34.17,34.17,0,0,0-.67,11.86,26.77,26.77,0,0,0,3.13,9.9,23.14,23.14,0,0,0,6.37,7.33,23.9,23.9,0,0,0,9.47,4.26,29.57,29.57,0,0,0,6.52.74,29.08,29.08,0,0,0,5-.43,30.45,30.45,0,0,0,10.78-4,29.46,29.46,0,0,0,8.39-7.61,25.51,25.51,0,0,0,4.59-9.94l9.92-43.8c1.94-8.55,8.67-14,16.83-14a18.23,18.23,0,0,1,2.64.19q.83.11,1.68.3a17.15,17.15,0,0,1,13.28,21.33l-20,88.19a61.43,61.43,0,0,1-9.4,21.78,53.88,53.88,0,0,1-16.3,15.43,56.28,56.28,0,0,1-21,7.47,59.41,59.41,0,0,1-8.88.66,63.24,63.24,0,0,1-8.85-.63c-1.86-.26-3.77-.61-5.65-1a78.18,78.18,0,0,1-9.49-2.79,75.21,75.21,0,0,1-9.72-4.42l-.42-.23a18.08,18.08,0,0,1-9.16-13,17.68,17.68,0,0,1,3.71-13.71,17.39,17.39,0,0,1,12.24-6.49c.44,0,.88,0,1.33,0a18,18,0,0,1,10,3.07,38.44,38.44,0,0,0,9.44,3.68,29.84,29.84,0,0,0,6.56.76,26.15,26.15,0,0,0,3.31-.21,21.57,21.57,0,0,0,8.16-2.67,18.72,18.72,0,0,0,5.72-5.17,67.22,67.22,0,0,1-10,1.51c-1.54.12-3.08.18-4.63.18a63.25,63.25,0,0,1-14-1.58,59.32,59.32,0,0,1-38.42-27.89,62.79,62.79,0,0,1-7.86-22.22,64.8,64.8,0,0,1,.93-24.53l9.92-43.79c1.94-8.55,8.67-14,16.83-14m0-1.47c-8.87,0-16.21,6.09-18.27,15.16l-9.92,43.8a66.25,66.25,0,0,0-1,25.08,64.28,64.28,0,0,0,8.05,22.74,60.78,60.78,0,0,0,39.36,28.58,64.91,64.91,0,0,0,14.29,1.62c1.58,0,3.18-.06,4.74-.18,1.92-.15,3.83-.38,5.72-.67a16.69,16.69,0,0,1-2.27,1.57,20.15,20.15,0,0,1-7.61,2.49,26.8,26.8,0,0,1-3.12.19,28.12,28.12,0,0,1-6.23-.72,36.93,36.93,0,0,1-9-3.51A19.39,19.39,0,0,0,411,183.76c-.49,0-1,0-1.45.06a18.92,18.92,0,0,0-13.27,7,19.18,19.18,0,0,0-4,14.84,19.49,19.49,0,0,0,9.88,14.12l.43.24a75.09,75.09,0,0,0,9.94,4.52,79.38,79.38,0,0,0,9.67,2.85c1.93.44,3.87.8,5.78,1.07a66,66,0,0,0,9.05.64,60.93,60.93,0,0,0,9.1-.68,57.78,57.78,0,0,0,21.53-7.66,55.5,55.5,0,0,0,16.74-15.86A62.88,62.88,0,0,0,494,182.64l20-88.2a18.64,18.64,0,0,0-14.39-23.09c-.6-.13-1.21-.24-1.8-.33a21.12,21.12,0,0,0-2.85-.2c-8.87,0-16.22,6.1-18.27,15.17l-9.92,43.8a24,24,0,0,1-4.33,9.37,28.13,28.13,0,0,1-8,7.24,28.94,28.94,0,0,1-10.27,3.78,27.18,27.18,0,0,1-4.74.41,27.85,27.85,0,0,1-6.19-.7,22.63,22.63,0,0,1-8.9-4,21.78,21.78,0,0,1-6-6.87,25.37,25.37,0,0,1-3-9.38,32.49,32.49,0,0,1,.64-11.35L426,74.51a19.22,19.22,0,0,0-2-14.43,19,19,0,0,0-12.35-8.66c-.6-.13-1.21-.25-1.82-.33a19.47,19.47,0,0,0-2.84-.2Z" transform="translate(-6.18 -3.91)"/><path class="cls-2" d="M336.62,179c-1.77,0-3.6-.07-5.43-.22a63.27,63.27,0,0,1-18.37-4.32,67.72,67.72,0,0,1-14.05-7.65,18.23,18.23,0,0,1-15,7.74c-.54,0-1.1,0-1.65-.07a16,16,0,0,1-14.92-17.65L277.5,33.74a18.1,18.1,0,0,1,6.41-12.34,17.82,17.82,0,0,1,11.63-4.34c.53,0,1.08,0,1.62.07a18.29,18.29,0,0,1,16.59,19.66l-1.69,20.28a76.62,76.62,0,0,1,9-3.08,58.29,58.29,0,0,1,15.38-2c1.74,0,3.53.07,5.31.22a60.11,60.11,0,0,1,42.44,22.54,63.73,63.73,0,0,1,11,21.16,67.41,67.41,0,0,1-4.05,48.63,63.62,63.62,0,0,1-14.35,19,60.5,60.5,0,0,1-20.62,12.16A58.84,58.84,0,0,1,336.62,179Zm-.07-91.25a25.85,25.85,0,0,0-8.43,1.41,31.46,31.46,0,0,0-10,5.48,30.23,30.23,0,0,0-7.24,8.61,23.28,23.28,0,0,0-3.08,9.85,24.63,24.63,0,0,0,1.33,10.55,29.81,29.81,0,0,0,5.55,9.62,29.17,29.17,0,0,0,19.47,9.87c.82.06,1.63.1,2.41.1a21.85,21.85,0,0,0,7.58-1.27,22.54,22.54,0,0,0,8-4.89,26.06,26.06,0,0,0,5.81-8.3A34.92,34.92,0,0,0,359.89,106a26.11,26.11,0,0,0-4.37-9.16,22.4,22.4,0,0,0-7.1-6.16,23.11,23.11,0,0,0-9.65-2.8C338,87.77,337.28,87.74,336.55,87.74Z" transform="translate(-6.18 -3.91)"/><path class="cls-3" d="M295.54,17.8c.51,0,1,0,1.55.07A17.53,17.53,0,0,1,313,36.73l-1.79,21.5a74.44,74.44,0,0,1,10-3.52,56.92,56.92,0,0,1,15.19-2c1.73,0,3.48.07,5.25.22a59.18,59.18,0,0,1,23.83,7A60,60,0,0,1,383.6,75.19a63.06,63.06,0,0,1,10.88,20.92,66.63,66.63,0,0,1-4,48.08A63,63,0,0,1,376.28,163a59.85,59.85,0,0,1-20.36,12,58.21,58.21,0,0,1-19.3,3.22c-1.76,0-3.57-.07-5.37-.22a62.47,62.47,0,0,1-18.15-4.26,67.39,67.39,0,0,1-14.49-8,17.71,17.71,0,0,1-14.8,8q-.78,0-1.59-.06A15.26,15.26,0,0,1,268,156.88L278.24,33.81A17.3,17.3,0,0,1,284.38,22a17.07,17.07,0,0,1,11.16-4.17m41,126.17a22.82,22.82,0,0,0,7.83-1.31,23.41,23.41,0,0,0,8.29-5.06,26.91,26.91,0,0,0,6-8.52,35.72,35.72,0,0,0,2-23.32,26.79,26.79,0,0,0-4.49-9.42A23.05,23.05,0,0,0,348.79,90a24.11,24.11,0,0,0-10-2.9c-.76-.06-1.53-.09-2.28-.09a26.52,26.52,0,0,0-8.67,1.45,32.21,32.21,0,0,0-10.23,5.61,31.1,31.1,0,0,0-7.41,8.82A23.9,23.9,0,0,0,307.06,113a25.3,25.3,0,0,0,1.38,10.86,30.38,30.38,0,0,0,5.68,9.85,29.93,29.93,0,0,0,20,10.12c.84.07,1.67.11,2.47.11m-41-127.65h0a18.54,18.54,0,0,0-12.11,4.52,18.77,18.77,0,0,0-6.66,12.84L266.5,156.76a16.72,16.72,0,0,0,15.6,18.45c.57,0,1.15.07,1.71.07a18.9,18.9,0,0,0,15.12-7.46,68.87,68.87,0,0,0,13.61,7.32,64.2,64.2,0,0,0,18.58,4.36c1.85.15,3.7.23,5.5.23a59.57,59.57,0,0,0,19.79-3.31,61.34,61.34,0,0,0,20.86-12.31,64.51,64.51,0,0,0,14.52-19.26,68.11,68.11,0,0,0,4.1-49.17,64.43,64.43,0,0,0-11.13-21.4,60.79,60.79,0,0,0-43-22.83c-1.8-.15-3.6-.22-5.37-.22a59,59,0,0,0-15.58,2.05,77.16,77.16,0,0,0-8,2.65l1.59-19.08A19,19,0,0,0,297.22,16.4c-.56,0-1.12-.08-1.68-.08Zm41,126.17c-.76,0-1.55,0-2.34-.1a28.46,28.46,0,0,1-19-9.61,29.14,29.14,0,0,1-5.41-9.39,24,24,0,0,1-1.3-10.24,22.58,22.58,0,0,1,3-9.54,29.54,29.54,0,0,1,7.07-8.4,30.79,30.79,0,0,1,9.76-5.36,25,25,0,0,1,8.2-1.38c.71,0,1.43,0,2.16.1a22.37,22.37,0,0,1,9.35,2.71,21.74,21.74,0,0,1,6.87,6,25.56,25.56,0,0,1,4.25,8.91,34.32,34.32,0,0,1-1.87,22.33,25.56,25.56,0,0,1-5.65,8.06,21.72,21.72,0,0,1-7.77,4.74,21.36,21.36,0,0,1-7.33,1.22Z" transform="translate(-6.18 -3.91)"/><path class="cls-2" d="M199.87,182.1a61.7,61.7,0,0,1-21.4-3.75,63.29,63.29,0,0,1-21.34-13,66.4,66.4,0,0,1-14.71-20.14A70.5,70.5,0,0,1,139,94.27a66.56,66.56,0,0,1,11.85-21.94,63.26,63.26,0,0,1,19.38-15.8,62.59,62.59,0,0,1,25.35-7.08c1.53-.1,3.06-.15,4.57-.15a60.73,60.73,0,0,1,17,2.37,76.27,76.27,0,0,1,13.64,5.39,19.15,19.15,0,0,1,16.12-10.88c.46,0,.88,0,1.3,0a16.64,16.64,0,0,1,16.9,15.92l6.65,98a16.7,16.7,0,0,1-15.88,18.18c-.45,0-.9,0-1.35,0h0a19.6,19.6,0,0,1-15.95-8.44A72,72,0,0,1,224,177.56a64.75,64.75,0,0,1-19.5,4.38C203,182,201.4,182.1,199.87,182.1ZM200,86.64c-.63,0-1.27,0-1.9.07a24.25,24.25,0,0,0-10.15,2.77,23.42,23.42,0,0,0-7.55,6.34,27.37,27.37,0,0,0-4.72,9.51,36.67,36.67,0,0,0,1.62,23.92,27.24,27.24,0,0,0,6,8.79,23.46,23.46,0,0,0,8.33,5.26,23.18,23.18,0,0,0,8.37,1.45c.68,0,1.37,0,2.06-.07a29.32,29.32,0,0,0,11.36-3.06,29.85,29.85,0,0,0,9.2-6.94,31.34,31.34,0,0,0,6-10,25.74,25.74,0,0,0,1.57-11A24.47,24.47,0,0,0,227,103.3a31.92,31.92,0,0,0-7.45-9.14,33.17,33.17,0,0,0-10.37-5.9A27.08,27.08,0,0,0,200,86.64Z" transform="translate(-6.18 -3.91)"/><path class="cls-3" d="M248.19,46.88a15.91,15.91,0,0,1,16.16,15.23l6.65,98a16,16,0,0,1-15.19,17.39c-.43,0-.87.05-1.3.05a18.8,18.8,0,0,1-15.76-8.74,70.69,70.69,0,0,1-15,8.06,64,64,0,0,1-19.28,4.33c-1.55.11-3.09.16-4.61.16a61.1,61.1,0,0,1-21.14-3.7,62.25,62.25,0,0,1-21.1-12.9,65.71,65.71,0,0,1-14.54-19.9,69.82,69.82,0,0,1-3.42-50.36,65.68,65.68,0,0,1,11.72-21.7,62.63,62.63,0,0,1,19.16-15.62,61.79,61.79,0,0,1,25-7c1.52-.1,3-.16,4.52-.16a60.23,60.23,0,0,1,16.8,2.34,75.23,75.23,0,0,1,14.19,5.7,18.49,18.49,0,0,1,15.83-11.15c.44,0,.85,0,1.25,0m-48.25,98.61h0c.7,0,1.4,0,2.11-.07a30.14,30.14,0,0,0,11.64-3.14,30.57,30.57,0,0,0,9.42-7.11,31.84,31.84,0,0,0,6.1-10.23,26.54,26.54,0,0,0,1.62-11.33,25.22,25.22,0,0,0-3.16-10.67,32.42,32.42,0,0,0-7.62-9.34,33.57,33.57,0,0,0-10.59-6A27.82,27.82,0,0,0,200,85.9c-.65,0-1.3,0-1.95.07a25.09,25.09,0,0,0-10.46,2.86,24.12,24.12,0,0,0-7.77,6.54,28,28,0,0,0-4.85,9.76,37.3,37.3,0,0,0,1.66,24.42,28.22,28.22,0,0,0,6.11,9,24.25,24.25,0,0,0,17.22,6.92M248.19,45.4c-.45,0-.89,0-1.35.05a19.75,19.75,0,0,0-16.38,10.62A78.24,78.24,0,0,0,217.34,51a61.49,61.49,0,0,0-17.22-2.4c-1.52,0-3.08,0-4.62.16a63.41,63.41,0,0,0-25.65,7.15,64.08,64.08,0,0,0-19.6,16,67.07,67.07,0,0,0-12,22.18,71.12,71.12,0,0,0,3.49,51.44,67.09,67.09,0,0,0,14.87,20.36,64,64,0,0,0,21.59,13.2,62.57,62.57,0,0,0,21.65,3.78c1.55,0,3.13-.05,4.71-.16a65.52,65.52,0,0,0,19.72-4.42,73,73,0,0,0,14.09-7.39A20.28,20.28,0,0,0,254.51,179c.47,0,.94,0,1.4,0a17.42,17.42,0,0,0,16.56-19l-6.64-98A17.37,17.37,0,0,0,248.19,45.4ZM199.94,144a22.86,22.86,0,0,1-16.18-6.51A26.58,26.58,0,0,1,178,129a36,36,0,0,1-1.59-23.42A26.67,26.67,0,0,1,181,96.27a22.81,22.81,0,0,1,7.32-6.14,23.66,23.66,0,0,1,9.85-2.69c.63,0,1.25-.06,1.85-.06A26.39,26.39,0,0,1,209,89a32.13,32.13,0,0,1,10.14,5.77,31.19,31.19,0,0,1,7.28,8.92,23.74,23.74,0,0,1,3,10.06,25.24,25.24,0,0,1-1.53,10.71,30.56,30.56,0,0,1-5.82,9.77,29.13,29.13,0,0,1-9,6.77A28.77,28.77,0,0,1,202,144c-.67,0-1.35.07-2,.07Z" transform="translate(-6.18 -3.91)"/><path class="cls-2" d="M62.84,207a15.93,15.93,0,0,1-15.69-12.75L19.78,73.84A18.13,18.13,0,0,1,37.44,51.63a18.33,18.33,0,0,1,9.71,2.8,18.09,18.09,0,0,1,8.09,11.34l4.52,19.87A74.86,74.86,0,0,1,67.41,80a59.57,59.57,0,0,1,19.18-8,62.79,62.79,0,0,1,13.87-1.58,58.06,58.06,0,0,1,11.28,1.1,60.74,60.74,0,0,1,22.11,9.16,63.91,63.91,0,0,1,16.88,16.84,67.54,67.54,0,0,1,10.82,47.59,63.89,63.89,0,0,1-7.94,22.49,60,60,0,0,1-38.88,28.26,64.3,64.3,0,0,1-14.15,1.6h0c-1.55,0-3.11-.05-4.65-.17a67.82,67.82,0,0,1-15.69-3,18.3,18.3,0,0,1-13.52,12.32A17.9,17.9,0,0,1,62.84,207Zm37.42-100.8a26.64,26.64,0,0,0-15.51,5.15,31.55,31.55,0,0,0-7.87,8.24,30.49,30.49,0,0,0-4.3,10.4,23.29,23.29,0,0,0,0,10.31A24.8,24.8,0,0,0,77.07,150a29.9,29.9,0,0,0,8.2,7.5,29.54,29.54,0,0,0,15.15,4.25,28.54,28.54,0,0,0,6.39-.73,23.19,23.19,0,0,0,9.16-4.12,22.38,22.38,0,0,0,6.18-7.1,26.21,26.21,0,0,0,3-9.66,33.88,33.88,0,0,0-.67-11.59,33.26,33.26,0,0,0-4.42-10.75,26.2,26.2,0,0,0-6.92-7.41,22.5,22.5,0,0,0-8.63-3.72A21.12,21.12,0,0,0,100.26,106.23Z" transform="translate(-6.18 -3.91)"/><path class="cls-3" d="M37.44,52.36a17.55,17.55,0,0,1,9.32,2.7,17.29,17.29,0,0,1,7.76,10.88L59.31,87a75.14,75.14,0,0,1,8.5-6.39,58.72,58.72,0,0,1,18.94-7.86,62.08,62.08,0,0,1,13.71-1.56,57.37,57.37,0,0,1,11.13,1.08,59.86,59.86,0,0,1,21.85,9.06A62.85,62.85,0,0,1,150.12,98,66.64,66.64,0,0,1,160.82,145,62.9,62.9,0,0,1,153,167.26a59.94,59.94,0,0,1-15.79,17.6,59.16,59.16,0,0,1-22.61,10.31,63.53,63.53,0,0,1-14,1.59q-2.31,0-4.59-.18a66.48,66.48,0,0,1-16.23-3.24,17.64,17.64,0,0,1-13.2,12.53,17.14,17.14,0,0,1-3.72.43,15.21,15.21,0,0,1-15-12.19L20.5,73.67A17.55,17.55,0,0,1,33.65,52.79a16.63,16.63,0,0,1,3.79-.43m63,110.12a29.26,29.26,0,0,0,6.55-.75,23.81,23.81,0,0,0,9.45-4.25,23.23,23.23,0,0,0,6.38-7.33,27,27,0,0,0,3.13-9.93,35.91,35.91,0,0,0-5.19-22.83,27,27,0,0,0-7.12-7.61,23.2,23.2,0,0,0-8.91-3.84,21.81,21.81,0,0,0-4.45-.45,26.29,26.29,0,0,0-5.91.7,26.57,26.57,0,0,0-10,4.59,32.35,32.35,0,0,0-8,8.44,30.93,30.93,0,0,0-4.42,10.64,24,24,0,0,0,0,10.64,25.39,25.39,0,0,0,4.6,9.94,30.42,30.42,0,0,0,8.39,7.68,30.29,30.29,0,0,0,15.54,4.36m-63-111.59v0a18.32,18.32,0,0,0-4.12.46A19,19,0,0,0,19.06,74L46.43,194.44a16.66,16.66,0,0,0,16.41,13.33,18.08,18.08,0,0,0,4-.46,19,19,0,0,0,13.81-12.12,68.12,68.12,0,0,0,15.19,2.86c1.55.12,3.13.18,4.7.18a64.55,64.55,0,0,0,14.31-1.62A60.72,60.72,0,0,0,154.24,168a64.44,64.44,0,0,0,8-22.75,68.1,68.1,0,0,0-10.94-48.11,64.37,64.37,0,0,0-17.08-17,61.2,61.2,0,0,0-22.38-9.27,58.65,58.65,0,0,0-11.42-1.12,63.64,63.64,0,0,0-14,1.6A60.2,60.2,0,0,0,67,79.37a74.74,74.74,0,0,0-6.79,4.94L56,65.61a18.83,18.83,0,0,0-8.41-11.8,19,19,0,0,0-10.11-2.92Zm63,110.11a26.87,26.87,0,0,1-4.72-.41,27.78,27.78,0,0,1-10-3.72,29.22,29.22,0,0,1-8-7.33,23.9,23.9,0,0,1-4.33-9.37,22.5,22.5,0,0,1,0-10A29.55,29.55,0,0,1,77.5,120,30.79,30.79,0,0,1,85.19,112a25.88,25.88,0,0,1,15.07-5,21.09,21.09,0,0,1,4.15.41,21.89,21.89,0,0,1,8.35,3.6,25.34,25.34,0,0,1,6.73,7.21,34.3,34.3,0,0,1,5,21.85,25.66,25.66,0,0,1-2.95,9.4,21.91,21.91,0,0,1-6,6.87,22.35,22.35,0,0,1-8.87,4,28.29,28.29,0,0,1-6.23.71Z" transform="translate(-6.18 -3.91)"/></svg>