<?xml version="1.0" encoding="utf-8"?>
<!-- Generator: Adobe Illustrator 22.0.1, SVG Export Plug-In . SVG Version: 6.00 Build 0)  -->
<svg version="1.1" id="Layer_1" xmlns="http://www.w3.org/2000/svg" xmlns:xlink="http://www.w3.org/1999/xlink" x="0px" y="0px"
	 viewBox="0 0 656 301" style="enable-background:new 0 0 656 301;" xml:space="preserve">
<style type="text/css">
	.st0{fill:#61B5C1;}
	.st1{fill:#FFFFFF;}
	.st2{fill:#F28F1D;}
</style>
<path class="st0" d="M637.1,147.3c0.7-1.5,1.4-2.9,1.9-4.2c1.6-3.8,3.1-8,4.1-11.4c1.2-4.1,4-13.7-3.3-20.6
	c-7-6.5-26.8-11.2-44.2-10.6c-20.6,0.7-35.9,9.5-43.3,23.6c-8.1-9.3-19.1-15.7-32-18.3c4.4-7.4,6.4-16,6.1-24.5
	c-0.5-13.9-5.9-22.9-13-28.8c0.7-1.5,1.4-2.9,1.9-4.2c1.6-3.8,3.1-8,4.1-11.4c1.2-4.1,4-13.7-3.3-20.6c-7-6.5-26.8-11.2-44.2-10.6
	c-20.6,0.7-35.9,9.5-43.3,23.6c-11.2-13-28-20.3-48-19.6c-14.6,0.5-26.7,5.6-36,13.2c-1.8-4.8-5-7.4-7.6-8.7
	c-1.6-0.8-3.3-1.3-5.1-1.5c-3.1-0.4-6.2-0.5-9.2-0.4c-5.9,0.2-11.4,1.3-16.3,3.3c-4.4-2.7-9.8-2.8-15.7-2.6
	c-27.3,1-30.7,7.6-32.7,11.6c-0.7,1.3-1.2,2.7-1.4,4.2c0,0.1,0,0.2-0.1,0.4c-9.8-9.1-23.3-14.3-38.5-13.8
	c-17.4,0.6-32.6,8.1-42.7,21.1c-8.9,11.5-13.5,26.5-13,42.5c0.6,15.1,5.8,28.8,14.6,38.8c-3.2,2.1-4.9,5-5.6,7.2
	c-1.2,3.2-1.8,6.4-0.3,70.7c1.5,65.6,1.8,66,3.6,69.6c1.5,2.9,3.8,5.2,6.7,6.6c3.2,1.6,7.1,2.4,17.5,2c21.1-0.8,25.2-3.4,27.5-5.3
	c6.6-5.1,6.4-11.8,6-27.6c-0.1-2.5-0.2-5.1-0.2-7.7c2.8,0.3,5.6,0.5,8.5,0.4c15.2-0.7,28.9-6.9,38.8-17.4c0.9-1,1.7-2,2.6-3.1
	c7.4,11.8,20.6,18.5,37.5,17.8c5.1-0.2,11.5-1.2,18.1-4.3c1.8,0.8,3.7,1.2,5.8,1.3c0.4,0,10.5,0.1,17.6-0.1c5.6-0.2,13-0.5,17.4-6.5
	c9.8,4.7,25.5,8.5,40.6,7.9c22.2-0.8,36.3-10.5,43.4-23.1c11.3,12.5,27.7,19.6,46.8,19c0.1,0,0.2,0,0.3,0
	c16.9-0.9,31.3-7.6,41.5-18.1c0.4,0.7,0.9,1.4,1.5,2c0.2,0.3,0.5,0.5,0.8,0.8c6.7,6.6,28,13.5,48,12.8c34.9-1.3,49.7-24.3,48.9-46.6
	C649.6,162.2,644.1,153.2,637.1,147.3"/>
<g>
	<path class="st1" d="M234.6,87.8c9.3,0,15.6-3.3,20.1-6c1.7,1.7,8.8,16,8.9,18.6c-4.6,4.3-16.5,9.8-30.4,9.8
		c-31.1,0-43.6-20.8-43.6-42.8c0-23.2,14.4-44.8,41.4-44.8c22.9,0,36.8,17.2,36.8,36.4c0,5.3-0.5,9.8-1.5,13.2
		c-8.6,1.2-39.7,1.2-50,0.9C216.2,82.1,222.8,87.8,234.6,87.8z M243,56.7c0.3-8.4-4-14.9-12.2-14.9c-8.9,0-14.8,6.7-14.8,15.5
		L243,56.7z"/>
	<path class="st1" d="M334.3,52.4c-2.7-0.7-8.4-1.9-12-1.7c-7.9,0.2-12,5.7-13.1,13.2c-0.3,3.8,1,43.8,0.3,44.3
		c-0.3,0.7-28.2,1-28.7,0c-0.5-0.7-0.5-79.4,0.2-82.6c1.5-2.7,25.3-3.6,26.8-2.1c0.2,3.6,0,10.8,0,11.9
		c6.4-11.2,18.6-13.4,30.1-11.7C340.6,25.2,337.2,48.9,334.3,52.4z"/>
	<path class="st1" d="M430.5,67.5c0,22.2-16,42.1-43.5,42.6c-24.4,0-43.6-16.8-43.6-44.8c0-21.5,16.5-42.6,43.3-42.6
		C411.1,22.6,430.5,39.1,430.5,67.5z M388,48.8c-12.2-0.3-18.2,7.4-18.2,18.6c0,12,7.7,18.6,15.8,18.7c12,0.3,18.4-6.9,18.4-18.9
		C404,53.4,396.1,49.1,388,48.8z"/>
	<path class="st1" d="M439.8,101.5c-1.4-1.7,6.5-20.4,7.9-19.8c2.7,1.4,13.4,9.1,24.4,9.1c6.9,0,10.3-2.4,10.3-6.2
		s-2.7-5.8-13.9-7.9c-19.2-3.3-28.2-11.3-28.2-25.8c0-18.4,12.5-29,33.7-29c15.8,0,29.7,5.3,32,7.6c1.5,1.5-6.4,19.6-7.6,19.8
		c-0.9,0-11.9-6.7-21.8-6.7c-6.7,0-9.6,3.3-9.6,6.7c0,3.8,2.9,5.5,12.9,6.9c20.4,2.9,29.6,10,29.6,25.9c0,15.1-10.3,28.9-34.4,28.9
		C457.8,111,442.2,104.1,439.8,101.5z"/>
</g>
<g>
	<path class="st1" d="M284.4,156c0,27.5-18.6,42.8-39.7,43c-11.3,0-20.8-5.3-22.2-7.6c0,5.7,0.7,42.1-0.9,43.1
		c-1.5,1.2-25.1,2.2-28.3,0.5c-0.5-0.2,0.5-119.4,2.1-123.2c0.2-0.5,25.8,0.9,25.8,0.9c0,1-0.2,8.2-0.2,9.3
		c1.2-2.1,10.3-9.6,25.8-9.6C267,112.4,284.4,127.5,284.4,156z M239,138.5c-11.7,0-17.2,7.4-17.2,17.7c0,11.3,7.9,18.2,16.5,18.2
		c10.8,0,17-7.4,17-18C255.3,144.7,248.3,138.5,239,138.5z"/>
	<path class="st1" d="M329.4,111.5c21.3,0,37.8,12.5,37.8,37.6c0,18.4-0.9,46.9-1.4,47.9c-0.5,1-22.2,0-22.2,0l-1.5-7.4
		c-1.2,1.2-8.4,9.4-22,9.4c-18.7,0-26.6-11-26.6-25.9c0-15.5,13.6-25.3,30.8-25.3c7.9,0,12.7,2.2,16,4.6c0.2-7.4,0.5-17.5-14.9-17.5
		c-10.7,0-15.6,7.6-17.2,7.7c-1.5,0-13.4-10.3-13.2-12.2C295,127.7,306.4,111.5,329.4,111.5z M327.7,182.3c7.6,0,11.3-4.5,11.3-9.6
		c0-6-5-9.8-11.3-9.8c-6.7,0-11.2,4.3-11.2,9.8C316.5,178.4,321.3,182.3,327.7,182.3z"/>
	<path class="st1" d="M379.9,191.4c-1.4-1.7,6.5-20.4,7.9-19.8c2.7,1.4,13.4,9.1,24.4,9.1c6.9,0,10.3-2.4,10.3-6.2
		s-2.7-5.8-13.9-7.9c-19.2-3.3-28.2-11.3-28.2-25.8c0-18.4,12.5-29,33.7-29c15.8,0,29.7,5.3,32,7.6c1.5,1.5-6.4,19.6-7.6,19.8
		c-0.9,0-11.9-6.7-21.8-6.7c-6.7,0-9.6,3.3-9.6,6.7c0,3.8,2.9,5.5,12.9,6.9c20.4,2.9,29.6,10,29.6,25.9c0,15.1-10.3,28.9-34.4,28.9
		C397.9,200.9,382.3,194,379.9,191.4z"/>
	<path class="st1" d="M544.8,157.4c0,22.2-16,42.1-43.5,42.6c-24.4,0-43.6-16.8-43.6-44.8c0-21.5,16.5-42.6,43.3-42.6
		C525.4,112.5,544.8,129,544.8,157.4z M502.4,138.7c-12.2-0.3-18.2,7.4-18.2,18.6c0,12,7.7,18.6,15.8,18.7
		c12,0.3,18.4-6.9,18.4-18.9C518.4,143.3,510.5,139,502.4,138.7z"/>
	<path class="st1" d="M554.1,191.4c-1.4-1.7,6.5-20.4,7.9-19.8c2.7,1.4,13.4,9.1,24.4,9.1c6.9,0,10.3-2.4,10.3-6.2
		s-2.7-5.8-13.9-7.9c-19.2-3.3-28.2-11.3-28.2-25.8c0-18.4,12.5-29,33.7-29c15.8,0,29.7,5.3,32,7.6c1.5,1.5-6.4,19.6-7.6,19.8
		c-0.9,0-11.9-6.7-21.8-6.7c-6.7,0-9.6,3.3-9.6,6.7c0,3.8,2.9,5.5,12.9,6.9c20.4,2.9,29.6,10,29.6,25.9c0,15.1-10.3,28.9-34.4,28.9
		C572.2,200.9,556.5,194,554.1,191.4z"/>
</g>
<path class="st2" d="M74.9,293.2c-1.6-13.1,1.6-141.4,2.4-204.8c0,0-50.2,26.3-55.4,25.5c-3.2-0.4-16.7-50.6-15.5-52.2
	c7.2-8,90-46.6,99.2-49.4c7.2,0.8,68.8,5.6,73.2,10.4c0,0,0,254.2-2,270.1C174,294,77.3,297.2,74.9,293.2"/>
</svg>
