<?xml version="1.0" encoding="utf-8"?>
<!-- Generator: Adobe Illustrator 22.0.1, SVG Export Plug-In . SVG Version: 6.00 Build 0)  -->
<svg version="1.1" id="Layer_1" xmlns="http://www.w3.org/2000/svg" xmlns:xlink="http://www.w3.org/1999/xlink" x="0px" y="0px"
	 viewBox="0 0 266 182" style="enable-background:new 0 0 266 182;" xml:space="preserve">
<style type="text/css">
	.st0{fill-rule:evenodd;clip-rule:evenodd;fill:#FFFFFF;}
	.st1{fill:#FFFFFF;}
</style>
<g>
	<g>
		<path class="st0" d="M149.8,133.5c-5.6-14.3-2.8-30-0.3-37c2.1-5.9,6.7-14.2,11.4-22.2c-0.1-0.1-0.1-0.3-0.2-0.4
			c-3-5.5-8.4-11.6-21.5-17.2c-5.6-2.2-14.9-3.5-21.6-3.1c-9.5,0.6-22.3,3-27.9,11.8c-6.8-9.2-25-11.8-35.6-11.6
			c-7.7,0.1-14.1,0.8-20.1,3.8C24.8,62.1,19,67.6,15.8,78.9c-1,3.5-2.6,9.9-2.6,17.9l0,64.6l42.5,0l-0.5-53
			c0.1-10,1.6-14.2,7.5-14.1c3.3,0,5.1,1.4,5.3,4.7c0.2,2.5,0.1,7.5,0.1,10.7l-0.1,51.1l43.5,0l0-52.3c0-6-0.5-10.8,1.2-12.6
			c1.2-1.3,1.7-1.7,5-1.7c3-0.1,4.5,0.5,6,2.6c1.9,2.7,1.1,10.5,1.1,13.4l0,50.5l42,0c-0.1-1.1-0.1-2.2-0.2-3.3
			C159.2,151.3,153.6,143.2,149.8,133.5z"/>
	</g>
	<path class="st0" d="M169.2,67.7c-5.6,9.5-13.3,22.4-16.1,30.1c-3,8.4-4.3,22.7,0.3,34.2c7.6,19.6,23.3,32,43.1,34.2
		c9.4,1,19-0.5,27.7-4.3c9-4,16.6-10.4,21.9-18.4c7.7-11.6,10-23.2,7.6-38.7c-1.2-9.6-6.8-20.1-14.9-28.1
		c-4.7-4.6-11.2-7.5-16.5-9.8c-2.3-1-4.2-1.8-5.8-2.7c-1.1-0.6-2.3-1.8-1.8-3.9l0.1-0.4l18.4-30.6l-31.9-18.6l-30.5,54.4L169.2,67.7
		z M201.6,99.1l0.1,0c4.5-0.2,8.9,1.4,12.1,4.6c3.1,3.1,4.8,7.5,4.6,12c-0.4,8.4-6.6,14.8-14.9,15.6c-0.4,0-0.8,0.1-1.1,0.1
		c-3.7,0-7.5-1.5-10.5-4.2c-3.4-3.1-5.4-7.3-5.4-11.8C186.4,106.4,192.2,100.2,201.6,99.1z"/>
	<g>
		<polygon class="st1" points="31.9,25 24.9,39.3 17.7,25 16.8,25 14.2,43.7 16.7,43.7 18.3,31.5 24.4,43.7 25.3,43.7 31.3,31.6 
			33,43.7 35.4,43.7 32.7,25 		"/>
		<path class="st1" d="M38.8,24.2c-0.5,0-0.9,0.2-1.2,0.5c-0.3,0.3-0.5,0.8-0.5,1.3c0,0.5,0.2,0.9,0.5,1.2c0.3,0.3,0.8,0.5,1.2,0.5
			c0.5,0,0.9-0.2,1.2-0.5c0.3-0.3,0.5-0.8,0.5-1.2c0-0.5-0.2-0.9-0.5-1.2C39.7,24.4,39.3,24.2,38.8,24.2z"/>
		<rect x="37.6" y="29.7" class="st1" width="2.4" height="14"/>
		<path class="st1" d="M52.8,30.2c-0.8-0.5-1.8-0.8-2.9-0.8c-1,0-2,0.2-2.9,0.7c-0.6,0.3-1.2,0.8-1.8,1.4v-1.8h-2.4v14h2.4v-5.2
			c0-1.7,0.1-2.9,0.2-3.5c0.2-0.9,0.7-1.7,1.5-2.4c0.8-0.6,1.6-0.9,2.6-0.9c0.8,0,1.5,0.2,2,0.6c0.5,0.4,0.8,1,1,1.8
			c0.1,0.3,0.2,1.1,0.2,3v6.7h2.4v-7.2c0-1.9-0.2-3.2-0.6-4.1C54.3,31.5,53.7,30.7,52.8,30.2z"/>
		<path class="st1" d="M59.2,24.2c-0.5,0-0.9,0.2-1.2,0.5c-0.3,0.3-0.5,0.8-0.5,1.3c0,0.5,0.2,0.9,0.5,1.2c0.3,0.3,0.8,0.5,1.2,0.5
			c0.5,0,0.9-0.2,1.2-0.5c0.3-0.3,0.5-0.8,0.5-1.2c0-0.5-0.2-0.9-0.5-1.2C60.1,24.4,59.7,24.2,59.2,24.2z"/>
		<rect x="58" y="29.7" class="st1" width="2.4" height="14"/>
		<path class="st1" d="M80.3,34.4c-0.4-0.4-0.9-0.7-1.6-0.9c0.5-0.4,0.9-0.8,1.2-1.3c0.4-0.7,0.6-1.5,0.6-2.4c0-0.9-0.2-1.8-0.7-2.5
			c-0.5-0.8-1.1-1.3-2-1.7c-0.8-0.4-1.9-0.5-3.4-0.5h-3.9v18.7h5.3c1.9,0,3.4-0.5,4.5-1.6c1.1-1.1,1.7-2.4,1.7-3.9
			c0-0.8-0.2-1.5-0.5-2.1C81.3,35.4,80.9,34.8,80.3,34.4z M73,35h0.7c1.5,0,2.5,0.1,3.1,0.2c0.8,0.2,1.5,0.6,2,1.1
			c0.5,0.5,0.7,1.2,0.7,1.9c0,0.6-0.2,1.1-0.5,1.6c-0.3,0.5-0.8,0.9-1.3,1.1c-0.6,0.2-1.5,0.4-2.8,0.4H73V35z M77.6,31.2
			c-0.3,0.4-0.7,0.8-1.2,1c-0.6,0.2-1.4,0.3-2.6,0.3H73v-5.1h1.7c1.2,0,2,0.2,2.5,0.6c0.5,0.4,0.7,1,0.7,1.7
			C78,30.3,77.9,30.8,77.6,31.2z"/>
		<path class="st1" d="M94.3,36.3c0,2-0.1,2.8-0.2,3.2c-0.2,0.7-0.6,1.2-1.2,1.6c-0.6,0.4-1.4,0.6-2.2,0.6c-0.9,0-1.7-0.2-2.3-0.7
			c-0.6-0.4-1.1-1-1.3-1.7c-0.2-0.5-0.2-1.6-0.2-3v-6.6h-2.4v6.8c0,2,0.2,3.4,0.7,4.4c0.5,1,1.2,1.8,2.1,2.4
			c0.9,0.6,2.1,0.8,3.4,0.8c1.4,0,2.5-0.3,3.4-0.8c0.9-0.6,1.6-1.3,2.1-2.3c0.5-1,0.7-2.4,0.7-4.3v-6.9h-2.5V36.3z"/>
		<path class="st1" d="M102.8,30c-0.4,0.3-0.8,0.6-1.1,1v-1.3h-2.5v14h2.5v-4.9c0-2.3,0.1-3.8,0.3-4.5c0.3-0.9,0.6-1.6,1.1-2
			c0.5-0.4,0.9-0.6,1.4-0.6c0.2,0,0.5,0.1,0.8,0.2l0.3,0.1l1.2-2l-0.3-0.2C105.2,29.1,104,29.3,102.8,30z"/>
		<path class="st1" d="M115,29.4c-1.1,0-2.2,0.2-3.1,0.7c-0.7,0.3-1.3,0.8-1.9,1.4v-6.9h-2.4v19.2h2.4v-1.8c0.6,0.6,1.2,1.1,1.8,1.4
			c0.9,0.5,2,0.7,3.1,0.7c2,0,3.7-0.7,5.1-2.1c1.4-1.4,2.1-3.2,2.1-5.2c0-2-0.7-3.8-2.1-5.2C118.7,30.1,117,29.4,115,29.4z
			 M119.7,36.7c0,0.9-0.2,1.7-0.7,2.5c-0.4,0.8-1,1.4-1.8,1.8c-0.7,0.4-1.6,0.7-2.5,0.7c-1.4,0-2.5-0.5-3.5-1.4
			c-1-1-1.4-2.1-1.4-3.6c0-0.9,0.2-1.8,0.6-2.5c0.4-0.7,1-1.3,1.8-1.8c0.8-0.4,1.6-0.7,2.5-0.7c0.9,0,1.7,0.2,2.4,0.7
			c0.8,0.4,1.4,1.1,1.8,1.9C119.5,35,119.7,35.8,119.7,36.7z"/>
		<path class="st1" d="M134.3,36.3c0,2-0.1,2.8-0.2,3.2c-0.2,0.7-0.6,1.2-1.2,1.6c-0.6,0.4-1.4,0.6-2.2,0.6c-0.9,0-1.7-0.2-2.3-0.7
			c-0.6-0.4-1.1-1-1.3-1.7c-0.2-0.5-0.2-1.6-0.2-3v-6.6h-2.4v6.8c0,2,0.2,3.4,0.7,4.4c0.5,1,1.2,1.8,2.1,2.4
			c0.9,0.6,2.1,0.8,3.4,0.8c1.4,0,2.5-0.3,3.4-0.8c0.9-0.6,1.6-1.3,2.1-2.3c0.5-1,0.7-2.4,0.7-4.3v-6.9h-2.5V36.3z"/>
		<path class="st1" d="M139.7,44.9c0,1-0.1,1.3-0.2,1.4c-0.3,0.5-1,0.5-1.8,0.1l-0.5-0.3v2.3l0.2,0.1c0.8,0.3,1.5,0.4,2.1,0.4
			c0.8,0,1.5-0.3,1.9-0.9c0.5-0.6,0.7-1.4,0.7-2.7V29.7h-2.4V44.9z"/>
		<path class="st1" d="M140.9,24.2c-0.5,0-0.9,0.2-1.2,0.5c-0.3,0.3-0.5,0.8-0.5,1.2c0,0.5,0.2,0.9,0.5,1.2c0.3,0.3,0.8,0.5,1.2,0.5
			c0.5,0,0.9-0.2,1.2-0.5c0.3-0.3,0.5-0.8,0.5-1.2c0-0.5-0.2-0.9-0.5-1.2C141.8,24.4,141.3,24.2,140.9,24.2z"/>
		<path class="st1" d="M156.6,31.5c-0.5-0.6-1.2-1.1-1.8-1.4c-0.9-0.5-2-0.7-3.1-0.7c-2,0-3.7,0.7-5.1,2.1c-1.4,1.4-2.1,3.2-2.1,5.2
			c0,2,0.7,3.8,2.1,5.2c1.4,1.4,3.1,2.2,5.1,2.2c1.1,0,2.1-0.2,3.1-0.7c0.7-0.3,1.3-0.8,1.9-1.4v1.7h2.4v-14h-2.4V31.5z M155.2,33.2
			c1,1,1.4,2.2,1.4,3.6c0,0.9-0.2,1.8-0.6,2.6c-0.4,0.8-1,1.3-1.8,1.8c-1.5,0.9-3.4,0.9-4.9,0c-0.8-0.4-1.4-1.1-1.8-1.9
			c-0.4-0.8-0.7-1.6-0.7-2.5c0-0.9,0.2-1.7,0.7-2.5c0.4-0.8,1-1.4,1.8-1.8c0.7-0.4,1.6-0.7,2.5-0.7
			C153.1,31.7,154.3,32.2,155.2,33.2z"/>
		<path class="st1" d="M166.1,35.5c-1-0.5-1.7-1-2-1.3c-0.3-0.3-0.4-0.7-0.4-1c0-0.4,0.2-0.7,0.5-1c0.3-0.3,0.7-0.5,1.2-0.5
			c0.8,0,1.6,0.4,2.4,1.2l0.3,0.2l1.6-1.6l-0.3-0.2c-1.3-1.2-2.6-1.9-4-1.9c-1.1,0-2.1,0.4-2.9,1.1c-0.8,0.7-1.1,1.7-1.1,2.8
			c0,0.8,0.2,1.6,0.7,2.3c0.5,0.7,1.3,1.3,2.6,1.9c1.3,0.7,1.9,1.1,2.1,1.3c0.3,0.3,0.4,0.7,0.4,1.1c0,0.5-0.2,0.9-0.6,1.3
			c-0.4,0.4-0.9,0.6-1.5,0.6c-0.9,0-1.7-0.5-2.5-1.4l-0.3-0.3l-1.5,1.7L161,42c0.5,0.6,1.1,1.1,1.9,1.5c0.7,0.4,1.5,0.5,2.4,0.5
			c1.2,0,2.3-0.4,3.1-1.2c0.8-0.8,1.3-1.8,1.3-3c0-0.8-0.2-1.6-0.7-2.3C168.3,36.8,167.4,36.1,166.1,35.5z"/>
	</g>
	<g>
		<path class="st1" d="M248,160.9c-2.3,0-4.3-1.9-4.3-4.3s1.9-4.3,4.3-4.3s4.3,1.9,4.3,4.3S250.4,160.9,248,160.9z M248,153.2
			c-1.9,0-3.4,1.5-3.4,3.4s1.5,3.4,3.4,3.4s3.4-1.5,3.4-3.4S249.9,153.2,248,153.2z"/>
		<path class="st0" d="M246.2,159.1v-4.8h2.1c0.4,0,0.8,0,1,0.1c0.2,0.1,0.4,0.2,0.5,0.5c0.1,0.2,0.2,0.5,0.2,0.7
			c0,0.3-0.1,0.6-0.3,0.9c-0.2,0.2-0.6,0.4-1,0.4c0.2,0.1,0.3,0.2,0.4,0.2c0.2,0.2,0.4,0.4,0.5,0.6l0.8,1.3h-0.8l-0.6-1
			c-0.2-0.3-0.3-0.5-0.5-0.7c-0.1-0.2-0.2-0.3-0.3-0.3c-0.1-0.1-0.2-0.1-0.3-0.1c-0.1,0-0.2,0-0.4,0h-0.7v2.1H246.2L246.2,159.1z
			 M246.8,156.4h1.4c0.3,0,0.5,0,0.7-0.1c0.2-0.1,0.3-0.2,0.4-0.3c0.1-0.1,0.1-0.3,0.1-0.4c0-0.2-0.1-0.4-0.2-0.6
			c-0.2-0.1-0.4-0.2-0.8-0.2h-1.5V156.4z"/>
	</g>
</g>
</svg>
