<?xml version="1.0" encoding="utf-8"?>
<!-- Generator: Adobe Illustrator 22.0.1, SVG Export Plug-In . SVG Version: 6.00 Build 0)  -->
<svg version="1.1" id="Layer_1" xmlns="http://www.w3.org/2000/svg" xmlns:xlink="http://www.w3.org/1999/xlink" x="0px" y="0px"
	 viewBox="0 0 474.6 238.9" style="enable-background:new 0 0 474.6 238.9;" xml:space="preserve">
<style type="text/css">
	.st0{fill:#FFFFFF;}
</style>
<g>
	<g>
		<path class="st0" d="M352.7,197.9c-2.3-2.7,12.9-40.9,15.4-40.3c3.7,0.8,18.7,11.5,33.1,10.4c3.4-0.3,5.1-2.2,4.9-4.6
			c-0.2-2.6-1.5-5.4-11.9-7.8c-21.1-4.5-32-16.8-33.3-34c-2.6-34,17.6-52.6,55.7-55.4c21.7-1.6,45.9,5.7,47.6,8
			c2.3,2.7-15,41.6-17.2,40.2c-3.6-2.1-17.9-7.8-27.3-7.1c-3.9,0.3-5.3,2.8-5.1,5.1c0.1,1.8,2.2,4.6,8.3,5.9
			c25.1,5.7,36.6,14.8,38,33.9c2.1,27.7-13.7,51.7-57.3,55C379,209.1,354.4,200.4,352.7,197.9z"/>
	</g>
	<g>
		<path class="st0" d="M82.5,42.8c1.6,0.7-8,64.7-8,64.7s37.6-68.8,40.5-69c2.6-0.2,52.8,13.9,53.1,17.8
			c0.2,3.1-40.9,70.6-40.9,70.6c8.9,17.2,30.8,80.7,28.8,82.2c-1.2,1.9-45.7,20.5-56.8,19.8c-0.7,0.8-16.9-53.4-17.9-59.9
			C78.8,172,68,187.8,68,187.8l-3.5,40.7c-5.9,1.8-58.3,6.8-60.5,5.3C2,232.5,15.5,52.8,19.9,48.5C24.3,44.2,80.9,42.1,82.5,42.8z"
			/>
	</g>
	<g>
		<path class="st0" d="M222.9,83.2c0.9,1-15.8,131.5-17,133.4c-1.2,1.9-51.4,4.9-51.7,4.2c-0.3-0.8,11.2-130.4,13.1-133.4
			C169.4,84,222.1,82.2,222.9,83.2z M201.5,15.1c14.4-1.1,25.3,7.6,26.4,22.7c1.4,18.3-11,32.1-29.3,33.5
			c-14.1,1.1-24.9-5.7-26.1-22.2C171.4,34,179.6,16.8,201.5,15.1z"/>
	</g>
	<g>
		<path class="st0" d="M269.2,212.9c-29.3,2.2-48-20-50.4-51.6c-4.1-54.6,29.5-79.7,52.5-81.5c14.1-1.1,22.1,3.6,26.1,7.5
			c0.5-7.9,6.7-71.4,7.3-73.6c1-3.8,51.6-8.9,58.1-6c0.5,0.2-10.3,107.4-14.1,144.8c-0.5,4.2,1.4,5.1,4.1,5c1-0.1,3.4-0.8,4.9-1.2
			c1.1,1-1,42.6-5.4,46.6c-5.5,4.4-15,6.1-22.9,6.7c-15.2,1.1-23.2-4-28.1-14.4C297.3,201.8,286.7,211.6,269.2,212.9z M284.1,162.4
			c7.8-0.6,13.5-12.1,12.6-24.1c-0.4-5.5-3.5-11.3-10-10.8c-11.8,0.9-13.4,17-12.9,24.4C274.4,159.1,278.1,162.8,284.1,162.4z"/>
	</g>
</g>
</svg>
