<?xml version="1.0" encoding="utf-8"?>
<!-- Generator: Adobe Illustrator 22.0.1, SVG Export Plug-In . SVG Version: 6.00 Build 0)  -->
<svg version="1.1" id="Layer_1" xmlns="http://www.w3.org/2000/svg" xmlns:xlink="http://www.w3.org/1999/xlink" x="0px" y="0px"
	 viewBox="0 0 384.6 207.8" style="enable-background:new 0 0 384.6 207.8;" xml:space="preserve">
<style type="text/css">
	.st0{fill:#EC008C;}
	.st1{fill:#FFFFFF;}
</style>
<title>logo_kids</title>
<g>
	<path class="st0" d="M375.6,75c1.9-5.4,4.3-12.1-0.1-17.6c-1.3-1.7-3.7-4.4-16.4-7.4c-4.5-1.1-13.5-2.8-23.4-2.8
		c-2,0-3.9,0.1-5.7,0.2c-13.8,1-25.2,4.6-33.7,10.5c0.1-0.9,0.2-1.8,0.3-2.7c1.2-12.4,2.2-22.1,2.8-28.8c0.3-3.8,0.6-6.8,0.8-8.9
		c0.1-1.1,0.2-2,0.2-2.6c0.4-7.3-4-10.2-6.3-11.2l0,0c-2.6-1.1-5.7-1.6-11.1-1.6c-6.5,0-16.2,0.7-24.7,1.8
		c-13,1.7-21.1,3.3-23.2,11.2l0,0c-0.8,3.3-3.1,27-4.6,43.2c-2.3-0.4-4.8-0.6-7.6-0.6c-1.3,0-2.5,0-3.8,0.1
		c-8.3,0.6-17.5,4.2-25.8,10.6c-0.3-1.6-1-3-2.3-4.5c-0.8-0.9-1.7-1.6-2.6-2.2c6.3-6.7,9.8-16,9-26.2c-1.2-16.1-13.1-27.3-29-27.3
		l0,0c-0.9,0-1.7,0-2.6,0.1c-18.2,1.4-28.6,13.5-31.3,27.1c-2.8-1-6-2-9.7-3.1c-4.7-1.4-20.2-6.2-24.2-6.2c-0.3,0-0.6,0-0.8,0
		c-6,0.5-8.8,4.7-13.5,12.5c-0.7-4.1-2.8-7-6.5-8.5c-2-0.8-3.7-0.9-6.1-0.9c-5.1,0-16.1,0.4-25.9,1.2c-21,1.6-24.4,3.5-27.2,6.3
		c-3.5,3.4-5.1,5-10.8,74.8c-2.1,25.2-5.2,67.8-4.7,74.6c0.3,4.5,2.6,7.1,4.4,8.4c0.2,0.1,0.4,0.3,0.6,0.4c2.7,1.7,5.4,1.9,7.9,1.9
		c8.2,0,41.3-3,47.1-4.7c4.2-1.2,7.2-4.9,7.6-9.3l1-11.7c0.9,2.9,1.7,5.6,2.4,7.8c0.7,2.1,1.3,3.8,1.7,5c2.1,5.8,5.7,8.8,10.7,8.8
		c0.2,0,0.4,0,0.6,0c2,0,8.1,0,28.4-7.7c1.9-0.7,3.6-1.4,5.2-2c1.8,2,4.6,3.7,9.3,3.7c3.8,0,13.4-0.5,22.2-1.2
		c16.2-1.2,21.7-1.7,25.1-7.2c0.9-1.4,1.3-2.2,2.9-13.1c8.2,9.8,19.8,15.5,33.3,15.5c1.3,0,2.5,0,3.8-0.1c9.5-0.7,17.2-4,23-8.2
		c5.1,3.9,11.5,5.9,19.2,5.9c1.2,0,2.5-0.1,3.8-0.1c9.1-0.7,16.3-2.7,21.4-6.1c1.2,0.4,2.4,0.7,3.8,1.1c5.8,1.5,14.9,3.4,25.3,3.4
		c2.1,0,4.1-0.1,6.1-0.2c18.5-1.4,32.6-7.2,42-17.4c8.7-9.4,12.7-21.8,11.6-36c-0.8-10.8-5-18.3-10.9-23.6c2-2.9,3.7-6.6,5.6-10.6
		C372.1,84,374.2,79,375.6,75z"/>
	<g>
		
			<image style="overflow:visible;opacity:0.4;" width="386" height="208" xlink:href="A63601C5.png"  transform="matrix(1 0 0 1 11.6254 9.0154)">
		</image>
		<g>
			<g>
				<g>
					<path class="st1" d="M282,158.6c-1.8-2.1,9.9-31.3,11.7-30.8c2.9,0.6,14.3,8.8,25.3,7.9c2.6-0.2,3.9-1.7,3.8-3.5
						c-0.2-2-1.1-4.1-9.1-5.9c-16.1-3.4-24.4-12.8-25.4-26c-2-25.9,13.4-40.2,42.6-42.3c16.6-1.2,35.1,4.4,36.4,6.1
						c1.8,2.1-11.5,31.8-13.1,30.7c-2.7-1.6-13.7-6-20.9-5.5c-3,0.2-4.1,2.1-3.9,3.9c0.1,1.4,1.7,3.5,6.4,4.5
						c19.2,4.4,28,11.3,29.1,25.9c1.6,21.2-10.5,39.5-43.8,42C302.1,167.1,283.3,160.5,282,158.6z"/>
				</g>
				<g>
					<path class="st1" d="M75.6,40.1c1.2,0.5-6.1,49.4-6.1,49.4s28.8-52.5,31-52.7c2-0.1,40.3,10.6,40.6,13.6
						c0.2,2.4-31.3,53.9-31.3,53.9c6.8,13.1,23.5,61.7,22,62.8c-0.9,1.5-35,15.7-43.4,15.1c-0.6,0.6-12.9-40.8-13.7-45.7
						c-1.8,2.3-10.2,14.4-10.2,14.4L61.8,182c-4.5,1.3-44.6,5.2-46.3,4.1C14,185,24.3,47.7,27.7,44.5C31.1,41.2,74.3,39.6,75.6,40.1
						z"/>
				</g>
				<g>
					<path class="st1" d="M182.8,70.9c0.7,0.8-12.1,100.5-13,101.9c-0.9,1.5-39.3,3.8-39.5,3.2c-0.2-0.6,8.6-99.6,10-101.9
						C141.9,71.6,182.2,70.2,182.8,70.9z M166.5,19c11-0.8,19.3,5.8,20.2,17.4c1.1,14-8.4,24.5-22.4,25.6c-10.8,0.8-19-4.4-19.9-17
						C143.5,33.3,149.7,20.2,166.5,19z"/>
				</g>
				<g>
					<path class="st1" d="M218.2,170c-22.4,1.7-36.7-15.3-38.5-39.5c-3.1-41.7,22.5-60.9,40.1-62.2c10.8-0.8,16.9,2.7,19.9,5.7
						c0.3-6,5.1-54.6,5.6-56.2c0.8-2.9,39.4-6.8,44.4-4.5c0.4,0.2-7.9,82.1-10.7,110.6c-0.4,3.2,1.1,3.9,3.1,3.8
						c0.8-0.1,2.6-0.6,3.7-0.9c0.9,0.7-0.8,32.6-4.1,35.6c-4.2,3.3-11.5,4.7-17.5,5.1c-11.6,0.9-17.7-3.1-21.5-11
						C239.6,161.6,231.6,169,218.2,170z M229.6,131.4c6-0.5,10.3-9.2,9.7-18.4c-0.3-4.2-2.7-8.6-7.6-8.3c-9,0.7-10.3,13-9.8,18.6
						C222.1,129,225,131.8,229.6,131.4z"/>
				</g>
			</g>
		</g>
	</g>
</g>
</svg>
