<?xml version="1.0" encoding="utf-8"?>
<!-- Generator: Adobe Illustrator 22.0.1, SVG Export Plug-In . SVG Version: 6.00 Build 0)  -->
<svg version="1.1" id="Layer_1" xmlns="http://www.w3.org/2000/svg" xmlns:xlink="http://www.w3.org/1999/xlink" x="0px" y="0px"
	 viewBox="0 0 241.4 144.5" style="enable-background:new 0 0 241.4 144.5;" xml:space="preserve">
<style type="text/css">
	.st0{fill:#CDFFF9;}
	.st1{fill-rule:evenodd;clip-rule:evenodd;fill:#CDFFF9;}
	.st2{fill-rule:evenodd;clip-rule:evenodd;fill:#9DFFF9;}
	.st3{fill-rule:evenodd;clip-rule:evenodd;fill:#2DF9F9;}
	.st4{fill:#005F8B;}
	.st5{font-family:'Margot-Bold';}
	.st6{font-size:9px;}
	.st7{fill:none;stroke:#70E2F9;stroke-linecap:round;stroke-miterlimit:10;}
	.st8{fill:#70E2F9;}
</style>
<circle class="st0" cx="82.7" cy="81.4" r="50.4"/>
<path class="st1" d="M201.3,52.5c0.1-1,0.1-2,0.1-3c0-24.1-24.3-43.7-54.2-43.7c-23.3,0-43.1,11.8-50.8,28.4
	c-14.3,2.3-26.5,9.2-34.3,18.7c-5.3-3.6-11.6-5.6-18.4-5.6c-19.1,0-34.6,16.5-34.6,36.7s15.5,36.7,34.6,36.7
	c10.3,0,19.5-4.8,25.9-12.3c7.2,5.6,16.3,9.7,26.5,11.4c9.9,10.4,25.5,17.1,43,17.1c7.5,0,14.7-1.2,21.2-3.5
	c6.5,2.2,13.7,3.5,21.2,3.5c29.9,0,54.2-19.6,54.2-43.7C235.6,74.6,221.4,58.8,201.3,52.5z"/>
<path class="st2" d="M178,57.1c0.1-0.8,0.1-1.6,0.1-2.3c0-18.7-18.8-33.8-41.9-33.8c-18,0-33.4,9.1-39.3,22
	C85.9,44.7,76.4,50,70.4,57.3c-4.1-2.8-9-4.4-14.2-4.4c-14.8,0-26.8,12.7-26.8,28.4s12,28.4,26.8,28.4c8,0,15.1-3.7,20-9.5
	c5.6,4.4,12.6,7.5,20.5,8.8c7.7,8,19.7,13.2,33.3,13.2c5.8,0,11.4-1,16.4-2.7c5,1.7,10.6,2.7,16.4,2.7c23.2,0,41.9-15.1,41.9-33.8
	C204.6,74.2,193.6,62,178,57.1z"/>
<path class="st3" d="M170.2,48.7c0-0.6,0.1-1.2,0.1-1.8c0-14.4-12.7-26.1-28.4-26.1c-12.2,0-22.6,7-26.6,16.9
	c-7.5,1.4-13.9,5.5-18,11.1c-2.8-2.1-6.1-3.4-9.6-3.4c-10,0-18.1,9.8-18.1,21.9s8.1,21.9,18.1,21.9c5.4,0,10.2-2.8,13.5-7.3
	c3.8,3.4,8.5,5.8,13.9,6.8c5.2,6.2,13.3,10.2,22.5,10.2c3.9,0,7.7-0.7,11.1-2.1c3.4,1.3,7.2,2.1,11.1,2.1
	c15.7,0,28.4-11.7,28.4-26.1C188.2,62,180.8,52.6,170.2,48.7z"/>
<g>
	<g>
		<text transform="matrix(1 0 0 1 103.6439 113.3681)" class="st4 st5 st6">360</text>
	</g>
	<path class="st7" d="M119.9,109.8c0,0,13.3,5.1-7.2,8.2"/>
	<g>
		<g>
			<path class="st7" d="M102.7,109.8c0,0-12.8,5.5,7,8.2"/>
			<g>
				<polygon class="st8" points="107.4,120.1 107,119.6 109.5,118 107.6,115.6 108.1,115.3 110.3,118.1 				"/>
			</g>
		</g>
	</g>
</g>
</svg>
