<?xml version="1.0" encoding="utf-8"?>
<!-- Generator: Adobe Illustrator 22.0.1, SVG Export Plug-In . SVG Version: 6.00 Build 0)  -->
<svg version="1.1" id="Layer_1" xmlns="http://www.w3.org/2000/svg" xmlns:xlink="http://www.w3.org/1999/xlink" x="0px" y="0px"
	 viewBox="0 0 1116.1 430.4" style="enable-background:new 0 0 1116.1 430.4;" xml:space="preserve">
<style type="text/css">
	.st0{fill:#33B9AF;}
	.st1{fill:#FFFFFF;}
</style>
<path class="st0" d="M1087.5,79.4c0.9-6,0.9-39.4-0.4-42.7c-1.7-0.8-51.4-0.6-76.6,0.1c-0.2-0.5-0.3-0.8-0.5-0.9
	c-7.7-1.1-76.6,0.3-93.6,1.6c-10.7-0.1-24,0.1-27.6,1.1c-0.7,9.5,0.4,2.3,0.1,31.9c-15.4-28.3-19.4-30.6-21.4-33.7
	c-0.7-0.9-29.9-1.7-40.4-0.5c-18.8-0.3-65.4,0.1-79.1,0.9c0,0.1,0,0.2,0,0.3c-7-0.6-41.9-0.2-43.6,1.4c-3.2,2.9-13.1,31.9-13.1,31.9
	c-5.7-25.8-8.5-27.5-11.7-32.5c-3.9-0.9-38.6-2.4-39.7,0.6c-1.1,3.5-5.8,20.1-10.5,47c-10.8-30.2-21.9-50.2-22.2-50.3
	c-4.6-0.9-45.4,0.2-47.1,1.3c-0.8,0.5-8.6,18.6-17.6,45.6c-4.1-26.8-8.6-44.6-9.2-44.9c-3.6-0.9-40.5,0.1-42.3,1.9
	c-3.2,2.9-12.1,43.3-12.1,43.3c-5.7-25.8-9.5-39.5-12.7-44.6c-3.9-0.9-41.1-2.4-42.2,0.6c-0.5,1.7-2,8.9-3.9,19
	c-0.2-11-0.4-18.9-0.8-20.8c-1.2-1-26.8-1.7-36.5-0.1c-9.4-2.5-27.6-4.8-28.8-4.7c-1.3,0.2-4.7,11.8-12.9,27.1H340
	c-9-21-6.7-20.5-13.5-27.1c-2.1-0.7-34.9,6.1-40,9.1c-3.3-1.8-6.8-3.3-10.5-4.6c8.6-2.7,15.3-4.8,15.5-4.9
	c0.6-0.2-16.2-31-18.3-31.2c-1-0.4-46.8,26.7-46.8,26.7s1.9,4.5,4.3,9.3c-8,2.7-14.9,6.7-20.6,11.9c-9.7-12.8-27.9-18.9-50.4-18.9
	c-13.7,0-35.1,0.9-44.1,1.9c-0.2,1.3-0.3,3.8-0.5,7.3c-8.7-5.4-20.1-8.3-34.1-8.3c-14.3,0-42.7,1-52.1,2.2
	c-1.7,13.7-1.3,129-0.4,138.4c0.2,1.2,45.8,0.8,46.5-0.6c1.1-3.6,0.7-21.5,0.9-35.3c2.2,0,1.8,0.2,5,0.2c13.3,0,21.8-2.1,30.4-6.7
	c-0.1,24.4,0,39.9,0.3,43.1c0.2,1.1,43.1,0.7,44.9,0c0.7-5.1,0.1-27.5,0.8-27.7c14.6,19.1,21.6,27.2,22.1,27.2
	c4.3,0.1,31-7.1,38.9-11.2c9.7,6,21.5,9.2,35,9.2c12.4,0,22.8-2.6,31.4-7.1c7,2.6,37.5,7.6,42.9,6.6c1,0,4.1-10.3,11.9-26h1.1
	c8,15.7,11.4,26,12.5,26.4c2.9,0.4,18.8-1.3,27.1-3.4c2.8,1.2,37.2,2.3,38.5-0.9c0-0.4,0.1-0.8,0.1-1.4c10.2,1.3,22,2.3,25,2
	c2.5-10.4,7.6-40,7.6-40c4.3,18.4,6.3,32.9,8.4,37.8c1.1,1.4,30,4.3,32.9,3.2c4.3-12.4,4.7-19.9,9.9-40.6c0,0,4.6,34.7,5.5,39.2
	c0.3,1,20.8,0.1,33.5-1.7c9.7,1.8,26.4,3.3,26.8,2.9c1.1-1.7,6.4-14.4,8.6-21.5c6.6,0,8.1,0.2,12.6,0c2.2,6.8,8.3,18.6,9.8,21.9
	c0.3,0.2,18.2-1.7,30.2-3.8c11,1.6,26.3,2.9,29.9,2.6c2.5-10.4,7.6-40,7.6-40c4.3,18.4,6.3,32.9,8.4,37.8c1.1,1.4,30,4.3,32.9,3.2
	c4.3-12.4,4.7-19.9,9.9-40.6c0,0,4.6,34.7,5.5,39.2c0.2,0.7,11.3,0.5,22.2-0.4c0,0.1,0,0.3,0,0.5c14.3,1.4,83.6,1.1,86,0.3
	c11.7,0.3,30.2-0.2,34.1-1.2c0.5-13.8-0.5-1.4-0.5-27.8c17.8,27.5,19,25.2,22.5,29.6c2.2,1.5,42.6,0.9,43.3-2.4
	c1.1-7.4,1.7-45.3,1.8-78.8c2.8,0,3.2-0.1,6.3-0.1c-0.4,33.2-0.2,70.5,0.6,80.6c0.2,1.7,41.1,0.6,42.2-0.7c0.7-7.4,0.4-44,0.2-79.6
	c6.4-0.2,6.2-0.4,10.3-0.6c-0.5,34.4-0.7,71.3-0.1,80.8c14.7,1.5,92.9,1.1,91.4,0.2c0.9-3.1,1.3-36.9-0.2-43
	c-5.1-0.4-25-0.2-41.4,0.2c0-0.3,0-0.7,0-1.2c17.4,0.6,30.8,0.6,30.8-0.4c0-0.7,1.5-38.4-0.5-40.1c-1.1-0.9-14.1-1.3-30.2-1.1
	l-0.4-0.6C1058.2,80.1,1082.3,79.9,1087.5,79.4z M377.8,107.2c-0.8-1.4-2.3-6.2-2.9-7.6c0.6-1.4,2.5-5.9,2.9-7.4
	C377.8,95.2,377.8,103.8,377.8,107.2z M819.7,79.9c0,0.3,0,0.6,0,0.9c-4.4-0.6-15.3-0.8-28.2-0.6l-0.4-0.6
	C799.4,79.9,810.5,80,819.7,79.9z M791.2,122.9c0.1-3.2,0.1-1.5,0.2,0C791.3,122.9,791.2,122.9,791.2,122.9z M791.4,122.9
	c0-0.3,0-0.7,0-1.2c13,0.4,23.7,0.5,28.4,0.2c0,0.2,0,0.5,0,0.7C811.5,122.5,800.9,122.7,791.4,122.9z M1043.4,122.9
	c-0.1,0-0.1,0-0.2,0C1043.4,119.7,1043.4,121.4,1043.4,122.9z"/>
<g>
	<g>
		<g>
			<path class="st1" d="M35.5,153.5c-0.7-7-1-93,0.3-103.2c7.6-0.9,24.5-1.6,36.1-1.6c28.5,0,44,13.5,44,36.8
				c0,26.7-15.7,37.7-44,37.7c-2.5,0-6.2-0.1-8-0.1c-0.1,10.2,0.1,27.3-0.7,30C62.5,154.1,35.6,154.4,35.5,153.5z M73.5,100.2
				c9.4,0,16.5-3.9,16.5-13.1C90,75.7,81.1,73,70.7,73c-2.1,0-5.3,0.1-7.6,0.4c0.1,4.3,0,20.9,0,26.4
				C65.8,100,70.2,100.2,73.5,100.2z"/>
			<path class="st1" d="M117.3,153.5c-0.7-7-0.1-93,1.2-103.2c7.6-0.9,23.6-1.6,35.2-1.6c28.5,0,44.9,11.3,44.9,36.1
				c0,15.4-7.3,24.5-18.9,29.3c11.3,13.7,22.9,31.8,22.4,32.4c-1.6,2.2-18.7,9.4-23.2,9.2c-0.4,0-13.4-20.9-25.7-37.1
				c-0.6,0.1-1.3,0.1-1.9,0.1c-2.5,0-6.1-0.1-7.9-0.3c-0.1,10.2-0.1,30.4-0.7,34.8C141.2,153.6,117.5,154.4,117.3,153.5z
				 M155.6,98.1c9.7,0,16.3-3.9,16.3-12.8c0-8.3-4.3-13.7-17.2-13.7c-2.8,0-6.8,0.1-9.8,0.4c0.1,4,0,20.3,0,25.5
				C147.8,97.9,152.2,98.1,155.6,98.1z"/>
			<path class="st1" d="M300.4,102.7c0,26.3-15.6,53.2-51.1,53.2c-31.6,0-51.4-22.4-51.4-55.5c0-26.9,16.9-53.2,50.9-53.2
				C280.1,47.2,300.4,68.1,300.4,102.7z M249.4,71.4c-15.3,0-23.9,12-23.9,30.4c0,16.6,9.1,29.7,23.3,29.7
				c15.9,0,23.3-12.2,23.3-30.7C272.1,80.9,262.6,71.4,249.4,71.4z M239.9,42.6c-2.5-0.9-6.7-11.3-6.7-11.3s32.5-17.5,33.3-17.2
				c1.5,0.1,8.2,13.2,7.7,13.4S240.4,42.7,239.9,42.6z"/>
			<path class="st1" d="M335.9,119.5c-6.1,12.2-18.1,34.5-18.9,34.5c-5,0.9-25.2-4.9-25.5-6.1c-0.3-1,19.9-38,26-48
				c-0.9-1.3-23.8-42.5-23.6-44.4c0-1.8,22.3-8.3,24.1-7.7c0.7,0.4,12.9,22.3,18.1,34.5h0.9c6.4-11.9,18.6-34.3,19.6-34.5
				c1.6-0.1,23.6,5.8,23.8,7.6c0.1,1.9-23.2,43.1-24.2,44.6c5.6,9.4,26.3,45.9,26.1,46.9c-0.4,1.2-21.2,8.2-26.1,7.4
				c-0.9-0.3-13.1-22.6-19.3-34.8L335.9,119.5L335.9,119.5z"/>
			<path class="st1" d="M409,49.7c1,6.2,0.9,93.9-0.1,103.4c-0.9,2.7-26.3,1.6-26.4,0.6c-0.6-10.5-1-89.4,0.1-103.7
				C387.3,48.2,408.1,48.8,409,49.7z"/>
			<path class="st1" d="M474.1,117.9c5.6-23.8,17.2-66.1,19.9-68.5c1.5-1.5,22.6-1.6,25.5-0.9c1,0.6,15.6,97,15.6,102.5
				c-1.8,2.8-24.7,4.8-24.9,3.6c-0.7-3.7-5.8-45.6-7.9-64.8h-0.6c-4.3,17.2-14.1,53.3-17.7,63.6c-2.4,0.9-20.5,0.9-21.4-0.3
				c-1.8-4-13.1-48.3-16.6-63.6h-0.6c-2.4,16.8-7.1,55.8-9.2,64.5c-4.8,0.4-24.7-1.8-24.8-3.4c0.6-7.7,15.6-94.9,17.5-101
				c0.9-2.5,21.4-2.1,24.7-1.3c2.7,4.2,15,48.3,19.8,69.7L474.1,117.9L474.1,117.9z"/>
			<path class="st1" d="M595.9,132.1c-3.6,0.1-26.3,0-31.6,0c-1.8,5.8-6.1,20.6-7,22c-0.7,0.6-25.8-1.2-27.6-2.5
				c2.8-10.7,31.6-101.3,33-102.2c1.3-0.9,30.3-1.8,34-1c0.4,0.1,31.5,86.6,34.6,103.4c-3.1,1.9-27,3-27.5,2.7
				C602.5,151.7,597.6,137.6,595.9,132.1z M580.1,72.7c-2.1,7.4-8.5,29.4-11.9,39.1c5-0.1,18.6-0.3,24.7-0.3
				c-3.7-10.2-10-31.8-11.9-38.9C580.7,72.6,580.4,72.7,580.1,72.7z"/>
			<path class="st1" d="M687.8,117.9c5.6-23.8,17.2-66.1,19.9-68.5c1.5-1.5,22.6-1.6,25.5-0.9c1,0.6,15.6,97,15.6,102.5
				c-1.8,2.8-24.7,4.8-24.9,3.6c-0.7-3.7-5.8-45.6-7.9-64.8h-0.6c-4.3,17.2-14.1,53.3-17.7,63.6c-2.4,0.9-20.5,0.9-21.4-0.3
				c-1.8-4-13.1-48.3-16.6-63.6h-0.6c-2.4,16.8-7.1,55.8-9.2,64.5c-4.8,0.4-24.7-1.8-24.8-3.4c0.6-7.7,15.6-94.9,17.5-101
				c0.9-2.5,21.4-2.1,24.7-1.3c2.7,4.2,15,48.3,19.8,69.7L687.8,117.9L687.8,117.9z"/>
			<path class="st1" d="M820.7,153.5c1.2,0.7-57.9,1-69.8-0.1c-0.7-11.7,0-83.9,0.9-104c13.8-0.9,68.9-1.2,70.5-0.4
				c1,2.7,1,17.7,0.3,22.6c-4.2,0.4-33.9,0.6-46,0.1l0.3,18.1c13.1-0.1,33.7,0.1,34.6,0.9c1.6,1.3,0.4,20.8,0.4,21.4
				c0,0.7-20.9,0.7-35,0.3c0,6.7,0,13.8-0.1,19c13.4-0.3,39.7-0.4,43.8-0.1C821.8,136.1,821.5,151,820.7,153.5z"/>
			<path class="st1" d="M890.7,153.9c-2.8-3.6-24.2-38.5-38.6-60.7c0,21.4,0.9,48.1,0.4,59.3c-5,1.3-25.7,1.5-25.8,0
				c-0.7-8.5-1.2-92.1,0-102.2c0.6-2.7,23.8-2.7,24.5-1.6c1.6,2.5,26.9,41.3,39.4,64.2c0.3-23.9-0.6-54.5,0-62.2
				c5-1.3,24.8-1,25.7-0.1s0.4,91.5-1,101.6C914.6,154.7,892.4,155.1,890.7,153.9z"/>
			<path class="st1" d="M917.8,50.3c1.9-1,71.4-2.7,78.4-1.6c2.1,0.6,1.9,22.6,0.9,22.7c-3.1,0.4-13.8,0.7-26.3,1.2
				c0.1,28.7,0.4,74-0.1,79.9c-0.9,1-25.8,1.9-26,0.6c-0.6-8.2-0.7-54.1-0.4-80.8c-9.7,0.1-22,0.3-25.8-0.1
				C917.1,67.7,917.1,51.2,917.8,50.3z"/>
			<path class="st1" d="M1068.1,153.5c1.2,0.7-57.9,1-69.8-0.1c-0.7-11.7,0-83.9,0.9-104c13.8-0.9,68.9-1.2,70.5-0.4
				c1,2.7,1,17.7,0.3,22.6c-4.2,0.4-33.9,0.6-46,0.1l0.3,18.1c13.1-0.1,33.7,0.1,34.6,0.9c1.6,1.3,0.4,20.8,0.4,21.4
				c0,0.7-20.9,0.7-35,0.3c0,6.7,0,13.8-0.1,19c13.4-0.3,39.7-0.4,43.8-0.1C1069.2,136.1,1068.9,151,1068.1,153.5z"/>
		</g>
	</g>
</g>
</svg>
