<?xml version="1.0" encoding="utf-8"?>
<!-- Generator: Adobe Illustrator 22.0.1, SVG Export Plug-In . SVG Version: 6.00 Build 0)  -->
<svg version="1.1" id="Layer_1" xmlns="http://www.w3.org/2000/svg" xmlns:xlink="http://www.w3.org/1999/xlink" x="0px" y="0px"
	 viewBox="0 0 1116.1 430.4" style="enable-background:new 0 0 1116.1 430.4;" xml:space="preserve">
<style type="text/css">
	.st0{fill:#33B9AF;}
	.st1{fill:#FFFFFF;}
	.st2{fill:#1C75BC;}
	.st3{fill:#93D3EF;}
</style>
<path class="st0" d="M1092.3,79.4c0.9-6,0.9-39.4-0.4-42.7c-1.7-0.8-51.4-0.6-76.6,0.1c-0.2-0.5-0.3-0.8-0.5-0.9
	c-7.7-1.1-76.6,0.3-93.6,1.6c-10.7-0.1-24,0.1-27.6,1.1c-0.7,9.5,0.4,2.3,0.1,31.9c-15.4-28.3-19.4-30.6-21.4-33.7
	c-0.7-0.9-29.9-1.7-40.4-0.5c-18.8-0.3-65.4,0.1-79.1,0.9c0,0.1,0,0.2,0,0.3c-7-0.6-41.9-0.2-43.6,1.4c-3.2,2.9-13.1,31.9-13.1,31.9
	c-5.7-25.8-8.5-27.5-11.7-32.5c-3.9-0.9-38.6-2.4-39.7,0.6c-1.1,3.5-5.8,20.1-10.5,47c-10.8-30.2-21.9-50.2-22.2-50.3
	c-4.6-0.9-45.4,0.2-47.1,1.3c-0.8,0.5-8.6,18.6-17.6,45.6c-4.1-26.8-8.6-44.6-9.2-44.9c-3.6-0.9-40.5,0.1-42.3,1.9
	c-3.2,2.9-12.1,43.3-12.1,43.3c-5.7-25.8-9.5-39.5-12.7-44.6c-3.9-0.9-41.1-2.4-42.2,0.6c-0.5,1.7-2,8.9-3.9,19
	c-0.2-11-0.4-18.9-0.8-20.8c-1.2-1-26.8-1.7-36.5-0.1c-9.4-2.5-27.6-4.8-28.8-4.7c-1.3,0.2-4.7,11.8-12.9,27.1h-1.1
	c-9-21-6.7-20.5-13.5-27.1c-2.1-0.7-34.9,6.1-40,9.1c-3.3-1.8-6.8-3.3-10.5-4.6c8.6-2.7,15.3-4.8,15.5-4.9
	c0.6-0.2-16.2-31-18.3-31.2c-1-0.4-46.8,26.7-46.8,26.7s1.9,4.5,4.3,9.3c-8,2.7-14.9,6.7-20.6,11.9c-9.7-12.8-27.9-18.9-50.4-18.9
	c-13.7,0-35.1,0.9-44.1,1.9c-0.2,1.3-0.3,3.8-0.5,7.3c-8.7-5.4-20.1-8.3-34.1-8.3c-14.3,0-42.7,1-52.1,2.2
	c-1.7,13.7-1.3,129-0.4,138.4c0.2,1.2,45.8,0.8,46.5-0.6c1.1-3.6,0.7-21.5,0.9-35.3c2.2,0,1.8,0.2,5,0.2c13.3,0,21.8-2.1,30.4-6.7
	c-0.1,24.4,0,39.9,0.3,43.1c0.2,1.1,43.1,0.7,44.9,0c0.7-5.1,0.1-27.5,0.8-27.7c14.6,19.1,21.6,27.2,22.1,27.2
	c4.3,0.1,31-7.1,38.9-11.2c9.7,6,21.5,9.2,35,9.2c12.4,0,22.8-2.6,31.4-7.1c7,2.6,37.5,7.6,42.9,6.6c1,0,4.1-10.3,11.9-26h1.1
	c8,15.7,11.4,26,12.5,26.4c2.9,0.4,18.8-1.3,27.1-3.4c2.8,1.2,37.2,2.3,38.5-0.9c0-0.4,0.1-0.8,0.1-1.4c10.2,1.3,22,2.3,25,2
	c2.5-10.4,7.6-40,7.6-40c4.3,18.4,6.3,32.9,8.4,37.8c1.1,1.4,30,4.3,32.9,3.2c4.3-12.4,4.7-19.9,9.9-40.6c0,0,4.6,34.7,5.5,39.2
	c0.3,1,20.8,0.1,33.5-1.7c9.7,1.8,26.4,3.3,26.8,2.9c1.1-1.7,6.4-14.4,8.6-21.5c6.6,0,8.1,0.2,12.6,0c2.2,6.8,8.3,18.6,9.8,21.9
	c0.3,0.2,18.2-1.7,30.2-3.8c11,1.6,26.3,2.9,29.9,2.6c2.5-10.4,7.6-40,7.6-40c4.3,18.4,6.3,32.9,8.4,37.8c1.1,1.4,30,4.3,32.9,3.2
	c4.3-12.4,4.7-19.9,9.9-40.6c0,0,4.6,34.7,5.5,39.2c0.2,0.7,11.3,0.5,22.2-0.4c0,0.1,0,0.3,0,0.5c14.3,1.4,83.6,1.1,86,0.3
	c11.7,0.3,30.2-0.2,34.1-1.2c0.5-13.8-0.5-1.4-0.5-27.8c17.8,27.5,19,25.2,22.5,29.6c2.2,1.5,42.6,0.9,43.3-2.4
	c1.1-7.4,1.7-45.3,1.8-78.8c2.8,0,3.2-0.1,6.3-0.1c-0.4,33.2-0.2,70.5,0.6,80.6c0.2,1.7,41.1,0.6,42.2-0.7c0.7-7.4,0.4-44,0.2-79.6
	c6.4-0.2,6.2-0.4,10.3-0.6c-0.5,34.4-0.7,71.3-0.1,80.8c14.7,1.5,92.9,1.1,91.4,0.2c0.9-3.1,1.3-36.9-0.2-43
	c-5.1-0.4-25-0.2-41.4,0.2c0-0.3,0-0.7,0-1.2c17.4,0.6,30.8,0.6,30.8-0.4c0-0.7,1.5-38.4-0.5-40.1c-1.1-0.9-14.1-1.3-30.2-1.1
	l-0.4-0.6C1063,80.1,1087.1,79.9,1092.3,79.4z M382.6,107.2c-0.8-1.4-2.3-6.2-2.9-7.6c0.6-1.4,2.5-5.9,2.9-7.4
	C382.6,95.2,382.6,103.8,382.6,107.2z M824.5,79.9c0,0.3,0,0.6,0,0.9c-4.4-0.6-15.3-0.8-28.2-0.6l-0.4-0.6
	C804.2,79.9,815.3,80,824.5,79.9z M796,122.9c0.1-3.2,0.1-1.5,0.2,0C796.1,122.9,796,122.9,796,122.9z M796.2,122.9
	c0-0.3,0-0.7,0-1.2c13,0.4,23.7,0.5,28.4,0.2c0,0.2,0,0.5,0,0.7C816.3,122.5,805.7,122.7,796.2,122.9z M1048.2,122.9
	c-0.1,0-0.1,0-0.2,0C1048.2,119.7,1048.2,121.4,1048.2,122.9z"/>
<g>
	
		<image style="overflow:visible;opacity:0.44;" width="1054" height="161" xlink:href="12EC8CD5.png"  transform="matrix(1 0 0 1 40.0339 8.3872)">
	</image>
	<g>
		<g>
			<path class="st1" d="M44.7,153.5c-0.7-7-1-93,0.3-103.2c7.6-0.9,24.5-1.6,36.1-1.6c28.5,0,44,13.5,44,36.8
				c0,26.7-15.7,37.7-44,37.7c-2.5,0-6.2-0.1-8-0.1c-0.1,10.2,0.1,27.3-0.7,30C71.7,154.1,44.8,154.4,44.7,153.5z M82.7,100.2
				c9.4,0,16.5-3.9,16.5-13.1c0-11.4-8.9-14.1-19.3-14.1c-2.1,0-5.3,0.1-7.6,0.4c0.1,4.3,0,20.9,0,26.4
				C75,100,79.4,100.2,82.7,100.2z"/>
			<path class="st1" d="M126.5,153.5c-0.7-7-0.1-93,1.2-103.2c7.6-0.9,23.6-1.6,35.2-1.6c28.5,0,44.9,11.3,44.9,36.1
				c0,15.4-7.3,24.5-18.9,29.3c11.3,13.7,22.9,31.8,22.4,32.4c-1.6,2.2-18.7,9.4-23.2,9.2c-0.4,0-13.4-20.9-25.7-37.1
				c-0.6,0.1-1.3,0.1-1.9,0.1c-2.5,0-6.1-0.1-7.9-0.3c-0.1,10.2-0.1,30.4-0.7,34.8C150.4,153.6,126.7,154.4,126.5,153.5z
				 M164.8,98.1c9.7,0,16.3-3.9,16.3-12.8c0-8.3-4.3-13.7-17.2-13.7c-2.8,0-6.8,0.1-9.8,0.4c0.1,4,0,20.3,0,25.5
				C157,97.9,161.4,98.1,164.8,98.1z"/>
			<path class="st1" d="M309.6,102.7c0,26.3-15.6,53.2-51.1,53.2c-31.6,0-51.4-22.4-51.4-55.5c0-26.9,16.9-53.2,50.9-53.2
				C289.3,47.2,309.6,68.1,309.6,102.7z M258.6,71.4c-15.3,0-23.9,12-23.9,30.4c0,16.6,9.1,29.7,23.3,29.7
				c15.9,0,23.3-12.2,23.3-30.7C281.3,80.9,271.8,71.4,258.6,71.4z M249.1,42.6c-2.5-0.9-6.7-11.3-6.7-11.3s32.5-17.5,33.3-17.2
				c1.5,0.1,8.2,13.2,7.7,13.4S249.6,42.7,249.1,42.6z"/>
			<path class="st1" d="M345.1,119.5c-6.1,12.2-18.1,34.5-18.9,34.5c-5,0.9-25.2-4.9-25.5-6.1c-0.3-1,19.9-38,26-48
				c-0.9-1.3-23.8-42.5-23.6-44.4c0-1.8,22.3-8.3,24.1-7.7c0.7,0.4,12.9,22.3,18.1,34.5h0.9c6.4-11.9,18.6-34.3,19.6-34.5
				c1.6-0.1,23.6,5.8,23.8,7.6c0.1,1.9-23.2,43.1-24.2,44.6c5.6,9.4,26.3,45.9,26.1,46.9c-0.4,1.2-21.2,8.2-26.1,7.4
				c-0.9-0.3-13.1-22.6-19.3-34.8H345.1z"/>
			<path class="st1" d="M418.2,49.7c1,6.2,0.9,93.9-0.1,103.4c-0.9,2.7-26.3,1.6-26.4,0.6c-0.6-10.5-1-89.4,0.1-103.7
				C396.5,48.2,417.3,48.8,418.2,49.7z"/>
			<path class="st1" d="M483.3,117.9c5.6-23.8,17.2-66.1,19.9-68.5c1.5-1.5,22.6-1.6,25.5-0.9c1,0.6,15.6,97,15.6,102.5
				c-1.8,2.8-24.7,4.8-24.9,3.6c-0.7-3.7-5.8-45.6-7.9-64.8h-0.6c-4.3,17.2-14.1,53.3-17.7,63.6c-2.4,0.9-20.5,0.9-21.4-0.3
				c-1.8-4-13.1-48.3-16.6-63.6h-0.6c-2.4,16.8-7.1,55.8-9.2,64.5c-4.8,0.4-24.7-1.8-24.8-3.4c0.6-7.7,15.6-94.9,17.5-101
				c0.9-2.5,21.4-2.1,24.7-1.3c2.7,4.2,15,48.3,19.8,69.7H483.3z"/>
			<path class="st1" d="M605.1,132.1c-3.6,0.1-26.3,0-31.6,0c-1.8,5.8-6.1,20.6-7,22c-0.7,0.6-25.8-1.2-27.6-2.5
				c2.8-10.7,31.6-101.3,33-102.2c1.3-0.9,30.3-1.8,34-1c0.4,0.1,31.5,86.6,34.6,103.4c-3.1,1.9-27,3-27.5,2.7
				C611.7,151.7,606.8,137.6,605.1,132.1z M589.3,72.7c-2.1,7.4-8.5,29.4-11.9,39.1c5-0.1,18.6-0.3,24.7-0.3
				c-3.7-10.2-10-31.8-11.9-38.9C589.9,72.6,589.6,72.7,589.3,72.7z"/>
			<path class="st1" d="M697,117.9c5.6-23.8,17.2-66.1,19.9-68.5c1.5-1.5,22.6-1.6,25.5-0.9c1,0.6,15.6,97,15.6,102.5
				c-1.8,2.8-24.7,4.8-24.9,3.6c-0.7-3.7-5.8-45.6-7.9-64.8h-0.6c-4.3,17.2-14.1,53.3-17.7,63.6c-2.4,0.9-20.5,0.9-21.4-0.3
				c-1.8-4-13.1-48.3-16.6-63.6h-0.6c-2.4,16.8-7.1,55.8-9.2,64.5c-4.8,0.4-24.7-1.8-24.8-3.4c0.6-7.7,15.6-94.9,17.5-101
				c0.9-2.5,21.4-2.1,24.7-1.3c2.7,4.2,15,48.3,19.8,69.7H697z"/>
			<path class="st1" d="M829.9,153.5c1.2,0.7-57.9,1-69.8-0.1c-0.7-11.7,0-83.9,0.9-104c13.8-0.9,68.9-1.2,70.5-0.4
				c1,2.7,1,17.7,0.3,22.6c-4.2,0.4-33.9,0.6-46,0.1l0.3,18.1c13.1-0.1,33.7,0.1,34.6,0.9c1.6,1.3,0.4,20.8,0.4,21.4
				c0,0.7-20.9,0.7-35,0.3c0,6.7,0,13.8-0.1,19c13.4-0.3,39.7-0.4,43.8-0.1C831,136.1,830.7,151,829.9,153.5z"/>
			<path class="st1" d="M899.9,153.9c-2.8-3.6-24.2-38.5-38.6-60.7c0,21.4,0.9,48.1,0.4,59.3c-5,1.3-25.7,1.5-25.8,0
				c-0.7-8.5-1.2-92.1,0-102.2c0.6-2.7,23.8-2.7,24.5-1.6c1.6,2.5,26.9,41.3,39.4,64.2c0.3-23.9-0.6-54.5,0-62.2
				c5-1.3,24.8-1,25.7-0.1c0.9,0.9,0.4,91.5-1,101.6C923.8,154.7,901.6,155.1,899.9,153.9z"/>
			<path class="st1" d="M927,50.3c1.9-1,71.4-2.7,78.4-1.6c2.1,0.6,1.9,22.6,0.9,22.7c-3.1,0.4-13.8,0.7-26.3,1.2
				c0.1,28.7,0.4,74-0.1,79.9c-0.9,1-25.8,1.9-26,0.6c-0.6-8.2-0.7-54.1-0.4-80.8c-9.7,0.1-22,0.3-25.8-0.1
				C926.3,67.7,926.3,51.2,927,50.3z"/>
			<path class="st1" d="M1077.3,153.5c1.2,0.7-57.9,1-69.8-0.1c-0.7-11.7,0-83.9,0.9-104c13.8-0.9,68.9-1.2,70.5-0.4
				c1,2.7,1,17.7,0.3,22.6c-4.2,0.4-33.9,0.6-46,0.1l0.3,18.1c13.1-0.1,33.7,0.1,34.6,0.9c1.6,1.3,0.4,20.8,0.4,21.4
				c0,0.7-20.9,0.7-35,0.3c0,6.7,0,13.8-0.1,19c13.4-0.3,39.7-0.4,43.8-0.1C1078.4,136.1,1078.1,151,1077.3,153.5z"/>
		</g>
	</g>
</g>
<g>
	<path class="st2" d="M201.7,193.9c1.2-0.6,42.9-1.6,47-1c1.2,0.4,1.2,13.5,0.5,13.6c-1.9,0.3-8.3,0.4-15.8,0.7
		c0.1,17.2,0.3,44.4-0.1,47.9c-0.5,0.6-15.5,1.2-15.6,0.4c-0.4-4.9-0.4-32.4-0.3-48.5c-5.8,0.1-13.2,0.2-15.5-0.1
		C201.2,204.4,201.2,194.5,201.7,193.9z"/>
	<path class="st2" d="M273,193.6c0.6,3.7,0.5,56.3-0.1,62c-0.5,1.6-15.8,1-15.9,0.4c-0.4-6.3-0.6-53.6,0.1-62.2
		C260,192.7,272.4,193.1,273,193.6z"/>
	<path class="st2" d="M326.8,255.9c0.7,0.4-34.8,0.6-41.9-0.1c-0.4-7,0-50.3,0.5-62.4c8.3-0.5,41.3-0.7,42.3-0.3
		c0.6,1.6,0.6,10.6,0.2,13.5c-2.5,0.3-20.3,0.4-27.6,0.1l0.2,10.9c7.8-0.1,20.2,0.1,20.8,0.5c1,0.8,0.3,12.5,0.3,12.8
		c0,0.4-12.6,0.4-21,0.2c0,4,0,8.3-0.1,11.4c8-0.2,23.8-0.3,26.3-0.1C327.4,245.4,327.2,254.4,326.8,255.9z"/>
	<path class="st2" d="M375.5,256.1c-1.7-2.1-14.5-23.1-23.2-36.4c0,12.8,0.5,28.9,0.3,35.6c-3,0.8-15.4,0.9-15.5,0
		c-0.4-5.1-0.7-55.2,0-61.3c0.4-1.6,14.3-1.6,14.7-1c1,1.5,16.1,24.8,23.6,38.5c0.2-14.3-0.4-32.7,0-37.3c3-0.8,14.9-0.6,15.4-0.1
		c0.5,0.5,0.3,54.9-0.6,60.9C389.8,256.6,376.5,256.9,375.5,256.1z"/>
	<path class="st2" d="M403.3,193.6c2-0.5,12.5-0.7,19.5-0.7c20.8,0,33.6,13.5,33.6,31.6c0,18.6-10,32.1-34.4,32.1
		c-7.6,0-17.4-0.6-19.3-1.2C402.3,250,402.6,200.2,403.3,193.6z M423,207.7c-2,0-3.6,0.1-4.7,0.2c0.1,10.2-0.2,23.6-0.4,33.9
		c1.6,0.3,3.5,0.4,5.7,0.4c6.9,0,16.3-2.2,16.3-16.8C440,214.7,432.8,207.7,423,207.7z"/>
	<path class="st2" d="M498.2,243c-2.1,0.1-15.8,0-19,0c-1.1,3.5-3.7,12.4-4.2,13.2c-0.4,0.4-15.5-0.7-16.6-1.5
		c1.7-6.4,19-60.8,19.8-61.3c0.8-0.5,18.2-1.1,20.4-0.6c0.3,0.1,18.9,51.9,20.8,62c-1.9,1.2-16.2,1.8-16.5,1.6
		C502.3,254.8,499.3,246.3,498.2,243z M488.8,207.4c-1.2,4.5-5.1,17.6-7.1,23.4c3-0.1,11.1-0.2,14.8-0.2c-2.2-6.1-6-19.1-7.1-23.3
		C489.2,207.3,489,207.4,488.8,207.4z"/>
	<path class="st2" d="M583.5,255.9c0.7,0.4-34.7,0.6-41.9-0.1c-0.4-7,0-50.3,0.5-62.4c8.3-0.5,41.3-0.7,42.3-0.3
		c0.6,1.6,0.6,10.6,0.2,13.5c-2.5,0.3-20.3,0.4-27.6,0.1l0.2,10.9c7.8-0.1,20.2,0.1,20.8,0.5c1,0.8,0.3,12.5,0.3,12.8
		c0,0.4-12.6,0.4-21,0.2c0,4,0,8.3-0.1,11.4c8-0.2,23.8-0.3,26.3-0.1C584.1,245.4,584,254.4,583.5,255.9z"/>
	<path class="st2" d="M632.2,256.1c-1.7-2.1-14.5-23.1-23.2-36.4c0,12.8,0.5,28.9,0.3,35.6c-3,0.8-15.4,0.9-15.5,0
		c-0.4-5.1-0.7-55.2,0-61.3c0.4-1.6,14.3-1.6,14.7-1c1,1.5,16.1,24.8,23.6,38.5c0.2-14.3-0.4-32.7,0-37.3c3-0.8,14.9-0.6,15.4-0.1
		c0.5,0.5,0.3,54.9-0.6,60.9C646.5,256.6,633.2,256.9,632.2,256.1z"/>
	<path class="st2" d="M717.5,255.6c-0.1,0.4-37.5,0.4-40.5-0.1c-0.4-6.9-0.3-58.9,0.4-62.1c0.4-0.5,15.4-1,15.6-0.4
		c0.2,2.9-0.1,43.1-0.4,48.8c7.8-0.3,21.9-0.4,24.6-0.1C717.8,244.6,717.9,254,717.5,255.6z"/>
	<path class="st2" d="M724.7,189.3c-1.5-0.5-4-6.8-4-6.8s19.5-10.5,20-10.3c0.9,0.1,4.9,7.9,4.6,8C745,180.3,725,189.4,724.7,189.3z
		 M741,193.6c0.6,3.7,0.5,56.3-0.1,62c-0.5,1.6-15.8,1-15.9,0.4c-0.4-6.3-0.6-53.6,0.1-62.2C728,192.7,740.4,193.1,741,193.6z"/>
	<path class="st2" d="M791.7,256.1c-1.7-2.1-14.5-23.1-23.2-36.4c0,12.8,0.5,28.9,0.3,35.6c-3,0.8-15.4,0.9-15.5,0
		c-0.4-5.1-0.7-55.2,0-61.3c0.4-1.6,14.3-1.6,14.7-1c1,1.5,16.1,24.8,23.6,38.5c0.2-14.3-0.4-32.7,0-37.3c3-0.8,14.9-0.6,15.4-0.1
		c0.5,0.5,0.3,54.9-0.6,60.9C806,256.6,792.8,256.9,791.7,256.1z"/>
	<path class="st2" d="M860.7,255.9c0.7,0.4-34.7,0.6-41.9-0.1c-0.4-7,0-50.3,0.5-62.4c8.3-0.5,41.3-0.7,42.3-0.3
		c0.6,1.6,0.6,10.6,0.2,13.5c-2.5,0.3-20.3,0.4-27.6,0.1l0.2,10.9c7.8-0.1,20.2,0.1,20.8,0.5c1,0.8,0.3,12.5,0.3,12.8
		c0,0.4-12.6,0.4-21,0.2c0,4,0,8.3-0.1,11.4c8-0.2,23.8-0.3,26.3-0.1C861.4,245.4,861.2,254.4,860.7,255.9z"/>
	<path class="st2" d="M905.9,243c-2.1,0.1-15.8,0-19,0c-1.1,3.5-3.7,12.4-4.2,13.2c-0.4,0.4-15.5-0.7-16.6-1.5
		c1.7-6.4,19-60.8,19.8-61.3c0.8-0.5,18.2-1.1,20.4-0.6c0.3,0.1,18.9,51.9,20.8,62c-1.9,1.2-16.2,1.8-16.5,1.6
		C909.9,254.8,907,246.3,905.9,243z M896.5,207.4c-1.2,4.5-5.1,17.6-7.1,23.4c3-0.1,11.1-0.2,14.8-0.2c-2.2-6.1-6-19.1-7.1-23.3
		C896.8,207.3,896.7,207.4,896.5,207.4z"/>
</g>
<circle class="st3" cx="540.2" cy="330.4" r="79.5"/>
<g>
	
		<image style="overflow:visible;opacity:0.44;" width="119" height="108" xlink:href="12EC8CDC.png"  transform="matrix(1 0 0 1 478.0339 285.3872)">
	</image>
	<g>
		<path class="st1" d="M573.2,345.7c0.8-0.6,1.3-1.4,1.5-2.4l8.2-36.3c0.4-1.3,0.1-2.4-0.7-3.5c-0.8-1-1.9-1.6-3.3-1.6h-68.6
			l-1.6-7.9c-0.2-0.9-0.7-1.7-1.5-2.4c-0.8-0.6-1.6-1-2.5-1h-18c-1.2,0-2.2,0.4-3,1.2s-1.2,1.8-1.2,3v2.8c0,1.2,0.4,2.2,1.2,3
			s1.8,1.2,3,1.2h12.2l12.2,59.9c-1.5,0.9-2.7,2.2-3.6,3.7c-0.9,1.5-1.3,3.1-1.3,4.9c0,2.7,1,5,2.9,6.9c1.9,1.9,4.2,2.9,6.9,2.9
			c2.7,0,5-1,6.9-2.9c1.9-1.9,2.9-4.2,2.9-7c0-2.7-1-5-3-6.9h36.7c-2,1.9-3,4.2-3,6.9c0,2.7,1,5.1,2.9,7c1.9,1.9,4.2,2.9,6.9,2.9
			c2.7,0,5-1,6.9-2.9s2.9-4.2,2.9-6.9c0-1.9-0.5-3.6-1.5-5.1c-1-1.6-2.4-2.8-4.1-3.6l1-4.4c0.2-1.3-0.1-2.4-0.9-3.5
			c-0.8-1-1.9-1.6-3.1-1.6h-47l-1-5.6h51.2C571.6,346.5,572.4,346.2,573.2,345.7z M560.9,336.8h-43.1l-5.4-24.5c0,0,53.3,0.1,56,0.1
			c2.7,0,2.3,3.1,2.3,3.1s-3.7,14.9-5,18.6C565,336.2,560.9,336.8,560.9,336.8z"/>
	</g>
</g>
</svg>
