<?xml version="1.0" encoding="utf-8"?>
<!-- Generator: Adobe Illustrator 22.0.1, SVG Export Plug-In . SVG Version: 6.00 Build 0)  -->
<svg version="1.1" id="Layer_1" xmlns="http://www.w3.org/2000/svg" xmlns:xlink="http://www.w3.org/1999/xlink" x="0px" y="0px"
	 viewBox="0 0 420.3 88.8" style="enable-background:new 0 0 420.3 88.8;" xml:space="preserve">
<style type="text/css">
	.st0{fill:#2580E7;}
	.st1{fill:#FFFFFF;}
</style>
<g>
	<path class="st0" d="M409,62.1c-1-1.4-2.5-3.6-4.3-6.1c5-4.9,7.6-11.6,7.6-19.6c0-19.1-12.9-30.1-35.4-30.1c-7.3,0-17.3,0.5-22.2,1
		c-3.8,0.4-6.8,3.4-7.3,7.2c-0.4,3.1-0.7,16.1-0.9,29.6c-0.6-1.6-1.1-3.3-1.7-5c-2.2-6.4-4.7-13.3-6.8-19.1
		c-0.9-2.6-1.7-4.7-2.2-6.1c-1.2-3.2-2.2-6-6.1-7.3c-0.3-0.1-0.7-0.2-1-0.3c-0.7-0.1-2.6-0.5-12.7-0.2c-11,0.3-12.1,0.8-14.1,2.1
		c-3,2-3,2-12.9,33c-1.5,4.6-3,9.5-4.5,14.2c-2.7-0.3-10.5-0.3-17.1-0.2c0.2-13.9,0.3-38.4,0.2-41c0-0.7-0.2-1.4-0.4-2.1
		c-1-2.9-3.5-5.1-6.6-5.7c-0.6-0.1-2.4-0.5-10.1-0.2c-7.2,0.2-10.5,0.4-13.2,3.6c-0.9,1.1-1.5,2.4-1.8,3.7c-0.2,0.9-0.3,3.6-0.4,7.3
		c-6.9-9.7-18-15.4-31.7-15.4c-11.2,0-20,3.9-26.4,9.9c-0.3-0.5-0.7-1-1.2-1.4c-5.2-5-15.5-8.3-26.3-8.3c-13.2,0-24.4,5.1-31.8,13.7
		c-0.1-2.4-0.9-4.7-3.3-6.6c-5.5-4.4-15.5-7.1-26.1-7.1c-7.9,0-15.9,2.4-21.9,7c-0.1-0.3-0.2-0.6-0.3-0.8c-0.8-2-2.3-3.7-4.3-4.6
		c-1.9-0.9-2.4-1.1-22-1c-8.3,0-19.8,0.2-24.5,0.5c-4.2,0.3-7.6,3.7-7.8,7.9C7,27,6.5,71,7,78.3c0.3,4.1,3.4,7.4,7.5,7.8
		c4.7,0.5,17.6,0.5,23.7,0.5c0.3,0,0.5,0,0.7,0c4.9,0,9.5,0,13-0.1c6.5-0.1,10.9-0.2,13-4.9c5.6,2.7,13.4,4.8,21.5,4.8
		c14.8,0,24.4-6,29.3-13.8c6.8,9.7,17.7,15.2,31.5,15.2c11.2,0,22.6-4.3,28.8-10.9c6.8,6.8,16.3,10.7,27.6,10.7
		c14.6,0,24.9-6.2,31.2-14.9c0,2.7,0.1,4.6,0.1,5.3c0.2,3.8,3.1,7,6.9,7.7c0.7,0.1,2.9,0.5,22.9,0.5c0.5,0,0.9,0,1.4,0
		c4.6,0,8.8,0,12-0.1c3.4-0.1,6.4-0.1,8.8-0.9c1.8,0.3,4.2,0.6,7.8,0.9c8.5,0.7,11.1,0.8,14-1.5c0.7-0.5,1.3-1.2,1.7-1.9
		c0.8-1.2,1.3-2.3,3.5-9.5c2.5,0,4.9,0,6.9,0c1.2,3.4,2.5,7.1,3.1,8.4c0.6,1.4,1.7,2.7,3,3.5c1.5,1,2.7,1.4,5.7,1.4
		c1.7,0,4-0.1,7.2-0.4c5.8-0.4,8.8-0.9,10.7-1.6c0.2,0.1,0.4,0.2,0.5,0.3c4.2,2.4,20.6,0.9,22.5,0.2c2.8-1.1,4.8-3.6,5.2-6.6
		c0.1-1,0.2-2.4,0.3-4.5c1.4,2.1,2.7,4.1,3.8,5.7c3.3,5,5,7.5,9.5,7.5v0c4.4-0.1,17.5-4.7,20.6-8.9C416.6,73.5,413.7,69.2,409,62.1z
		 M60.7,56.8c-0.3-0.2-0.7-0.3-1.1-0.4c0.5-1,0.8-2.1,0.8-3.3l0-0.4c0.1-1.5,0.1-2.9,0.2-4.2c0.9,1.4,2,2.7,3.3,3.9
		C62.8,53.3,61.7,54.9,60.7,56.8z M158,52.3l-0.3,0.2c-1.7,1.2-4.7,3.5-8.9,3.5c-4.7,0-7.1-3.3-7.1-9.6c0-5.4,3.3-9.2,8-9.2
		c4.4,0,8.8,2.4,10.1,3.2c1.5,0.9,3.1,1.2,4.8,1.1c-0.1,1.4-0.2,2.9-0.2,4.3c0,1.7,0.1,3.4,0.2,5.1C162.3,50.5,159.9,50.9,158,52.3z
		 M203.3,56.3c-3.9,0-5.7-5-5.7-9.6c0-6.6,2-10,6.1-10c1.5,0,5.4,0,5.4,9.4C209,56.3,205.1,56.3,203.3,56.3z"/>
	<g>
		<path class="st1" d="M57.4,77.9c0.7,0.4-34.9,0.6-42.1-0.1c-0.4-7.1,0-50.6,0.5-62.7c8.3-0.5,41.5-0.7,42.5-0.3
			c0.6,1.6,0.6,10.7,0.2,13.6c-2.5,0.3-20.4,0.4-27.7,0.1L31,39.5c7.9-0.1,20.3,0.1,20.9,0.5c1,0.8,0.3,12.5,0.3,12.9
			c0,0.4-12.6,0.4-21.1,0.2c0,4,0,8.3-0.1,11.5c8.1-0.2,23.9-0.3,26.4-0.1C58,67.4,57.8,76.4,57.4,77.9z"/>
		<path class="st1" d="M64.4,71.7c-0.4-1.8,4-13.2,5-12.8c2.1,1.3,8.8,6.1,16.4,6.1c5.3,0,8.7-1.6,8.7-5.5c0-2.9-2.1-5-11.4-6.9
			C71.3,50.2,64.8,44.8,64.8,33c0-10.2,8.3-19.1,23.5-19.1c9.5,0,17.5,2.5,20.9,5.3c1.2,0.9-4.2,12.5-5.1,12.4
			c-1.3-0.6-7.9-3.9-15.5-3.9c-5.4,0-7.9,2.1-7.9,5.1c0,2.8,1.5,4.2,10.2,6.2c11.5,2.7,20.5,7.3,20.5,19.6c0,9.5-7.6,19.4-25.1,19.4
			C76.4,78.1,67.6,74.1,64.4,71.7z"/>
		<path class="st1" d="M148.8,64.4c7.3,0,12.2-3.8,14.1-5.3c2.1,1.4,6,8.7,7.4,11.7c-3.8,4.4-12.9,8.7-23.2,8.7
			c-20.9,0-30.7-14.9-30.7-33.7c0-18,12.7-31.9,33-31.9c10.3,0,17.7,3.2,20.5,5.9c0,1.8-3.8,11.5-6,13.3c-3.2-1.9-8.7-4.3-14.3-4.3
			c-9.2,0-16.4,7.3-16.4,17.5C133.3,59.3,141.2,64.4,148.8,64.4z"/>
		<path class="st1" d="M234.4,47.3c0,15.8-9.4,32-30.8,32c-19.1,0-31-13.5-31-33.5c0-16.2,10.2-32,30.7-32
			C222.2,13.8,234.4,26.4,234.4,47.3z M203.7,28.4c-9.2,0-14.4,7.3-14.4,18.3c0,10,5.5,17.9,14.1,17.9c9.6,0,14.1-7.3,14.1-18.5
			C217.3,34.1,211.6,28.4,203.7,28.4z"/>
		<path class="st1" d="M284,77.6c-0.1,0.4-37.7,0.4-40.7-0.1c-0.4-6.9-0.3-59.2,0.4-62.4c0.4-0.5,15.5-1,15.7-0.4
			c0.2,3-0.1,43.3-0.4,49.1c7.8-0.3,22-0.4,24.7-0.1C284.4,66.6,284.5,76,284,77.6z"/>
		<path class="st1" d="M326.7,65c-2.1,0.1-15.8,0-19.1,0c-1.1,3.5-3.7,12.4-4.2,13.2c-0.4,0.4-15.6-0.7-16.6-1.5
			c1.7-6.4,19.1-61,19.9-61.6c0.8-0.5,18.3-1.1,20.5-0.6c0.3,0.1,19,52.2,20.9,62.3c-1.9,1.2-16.3,1.8-16.6,1.6
			C330.8,76.8,327.8,68.3,326.7,65z M317.3,29.2c-1.3,4.5-5.1,17.7-7.2,23.5c3-0.1,11.2-0.2,14.9-0.2c-2.2-6.2-6-19.2-7.2-23.5
			C317.6,29.1,317.4,29.2,317.3,29.2z"/>
		<path class="st1" d="M355,77.9c-0.4-4.2-0.1-56,0.7-62.2c4.6-0.5,14.2-1,21.2-1c17.2,0,27,6.8,27,21.8c0,9.3-4.4,14.8-11.4,17.6
			c6.8,8.2,13.8,19.2,13.5,19.5c-1,1.3-11.3,5.6-14,5.5c-0.3,0-8.1-12.6-15.5-22.4c-0.4,0.1-0.8,0.1-1.2,0.1c-1.5,0-3.7-0.1-4.7-0.2
			c-0.1,6.2-0.1,18.3-0.4,20.9C369.4,78,355.1,78.4,355,77.9z M378.1,44.5c5.8,0,9.8-2.3,9.8-7.7c0-5-2.6-8.2-10.4-8.2
			c-1.7,0-4.1,0.1-5.9,0.3c0.1,2.4,0,12.3,0,15.4C373.4,44.4,376.1,44.5,378.1,44.5z"/>
	</g>
</g>
</svg>
