<?xml version="1.0" encoding="utf-8"?>
<!-- Generator: Adobe Illustrator 22.0.1, SVG Export Plug-In . SVG Version: 6.00 Build 0)  -->
<svg version="1.1" id="Layer_1" xmlns="http://www.w3.org/2000/svg" xmlns:xlink="http://www.w3.org/1999/xlink" x="0px" y="0px"
	 viewBox="0 0 189.2 504.5" style="enable-background:new 0 0 189.2 504.5;" xml:space="preserve">
<style type="text/css">
	.st0{clip-path:url(#SVGID_2_);fill:url(#SVGID_3_);}
	.st1{clip-path:url(#SVGID_5_);fill:#603913;}
	.st2{clip-path:url(#SVGID_5_);fill:url(#SVGID_6_);}
	.st3{fill:#754C29;}
	.st4{fill:#BF956C;}
	.st5{fill:none;stroke:#826059;stroke-width:1.7585;stroke-miterlimit:10;}
</style>
<g>
	<g>
		<defs>
			<path id="SVGID_1_" d="M14.6,477.8c0,6.7,36,12.1,80.3,12.1c44.4,0,80.3-5.4,80.3-12.1c0-6.7-36-12.1-80.3-12.1
				C50.5,465.7,14.6,471.1,14.6,477.8"/>
		</defs>
		<clipPath id="SVGID_2_">
			<use xlink:href="#SVGID_1_"  style="overflow:visible;"/>
		</clipPath>
		
			<linearGradient id="SVGID_3_" gradientUnits="userSpaceOnUse" x1="-83.7237" y1="1888.7054" x2="-81.9653" y2="1888.7054" gradientTransform="matrix(91.3861 0 0 -91.3861 7665.7607 173079.2188)">
			<stop  offset="0" style="stop-color:#E29D53"/>
			<stop  offset="1.153710e-02" style="stop-color:#E29D53"/>
			<stop  offset="1" style="stop-color:#EDD692"/>
		</linearGradient>
		<rect x="14.6" y="465.7" class="st0" width="160.7" height="24.3"/>
	</g>
	<g>
		<defs>
			<rect id="SVGID_4_" x="29.7" y="467.2" width="130.5" height="21.2"/>
		</defs>
		<clipPath id="SVGID_5_">
			<use xlink:href="#SVGID_4_"  style="overflow:visible;"/>
		</clipPath>
		<path class="st1" d="M159.3,477.8c0,5.4-28.8,9.7-64.4,9.7c-35.6,0-64.4-4.4-64.4-9.7c0-5.4,28.8-9.7,64.4-9.7
			C130.5,468.1,159.3,472.4,159.3,477.8"/>
		
			<linearGradient id="SVGID_6_" gradientUnits="userSpaceOnUse" x1="-83.4788" y1="1885.146" x2="-81.7208" y2="1885.146" gradientTransform="matrix(74.2185 0 0 -74.2185 6225.2656 140390.5)">
			<stop  offset="0" style="stop-color:#E29D53"/>
			<stop  offset="1.153710e-02" style="stop-color:#E29D53"/>
			<stop  offset="1" style="stop-color:#EDD692"/>
		</linearGradient>
		<path class="st2" d="M159.3,477.8L159.3,477.8c0,5.4-28.8,9.7-64.4,9.7c-35.6,0-64.4-4.4-64.4-9.7c0-5.4,28.8-9.7,64.4-9.7
			C130.5,468.1,159.3,472.4,159.3,477.8L159.3,477.8L159.3,477.8c0-5.4-28.8-9.7-64.4-9.7c-35.6,0-64.4,4.4-64.4,9.7
			c0,5.4,28.8,9.7,64.4,9.7C130.5,487.5,159.3,483.2,159.3,477.8L159.3,477.8z"/>
	</g>
	<path class="st3" d="M140.3,207c0-2.4-0.9-4.7-2.4-6.4v-34c1.5-1.7,2.4-3.9,2.4-6.4c0-2.4-0.9-4.7-2.4-6.4v-31.2
		c0-5.4-4.4-9.8-9.8-9.8c-5.4,0-9.8,4.4-9.8,9.8v27.8H68.6v-27.8c0-5.4-4.4-9.8-9.8-9.8c-5.4,0-9.8,4.4-9.8,9.8v31.2
		c-1.5,1.7-2.4,3.9-2.4,6.4c0,2.4,0.9,4.7,2.4,6.4v34c-1.5,1.7-2.4,3.9-2.4,6.4c0,2.4,0.9,4.7,2.4,6.4v34c-1.5,1.7-2.4,3.9-2.4,6.4
		c0,2.4,0.9,4.7,2.4,6.4v34c-1.5,1.7-2.4,3.9-2.4,6.4c0,2.4,0.9,4.7,2.4,6.4v34c-1.5,1.7-2.4,3.9-2.4,6.4c0,2.4,0.9,4.7,2.4,6.4v34
		c-1.5,1.7-2.4,3.9-2.4,6.4c0,2.4,0.9,4.7,2.4,6.4v34c-1.5,1.7-2.4,3.9-2.4,6.4c0,2.4,0.9,4.7,2.4,6.4v36.6
		c6.2,1.3,14.1,2.1,19.6,1.6v-34.8h49.8v35c7.8,0.2,13.1-0.8,19.6-1.8v-36.6c1.5-1.7,2.4-3.9,2.4-6.4c0-2.4-0.9-4.7-2.4-6.4v-34
		c1.5-1.7,2.4-3.9,2.4-6.4c0-2.4-0.9-4.7-2.4-6.4v-34c1.5-1.7,2.4-3.9,2.4-6.4c0-2.4-0.9-4.7-2.4-6.4v-34c1.5-1.7,2.4-3.9,2.4-6.4
		c0-2.4-0.9-4.7-2.4-6.4v-34c1.5-1.7,2.4-3.9,2.4-6.4c0-2.4-0.9-4.7-2.4-6.4v-34C139.4,211.7,140.3,209.4,140.3,207 M68.6,357.1
		h49.8v27.2H68.6V357.1z M68.6,310.3h49.8v27.2H68.6V310.3z M68.6,263.6h49.8v27.2H68.6V263.6z M68.6,216.8h49.8V244H68.6V216.8z
		 M118.3,197.2H68.6V170h49.8V197.2z M68.6,403.9h49.8v27.2H68.6V403.9z"/>
	<path class="st4" d="M119,157.4L119,157.4c0,0.9-0.8,1.7-1.7,1.7H69.6c-0.9,0-1.7-0.8-1.7-1.7c0-0.9,0.8-1.7,1.7-1.7h47.6
		C118.2,155.7,119,156.5,119,157.4"/>
	<path class="st5" d="M119,157.4L119,157.4c0,0.9-0.8,1.7-1.7,1.7H69.6c-0.9,0-1.7-0.8-1.7-1.7c0-0.9,0.8-1.7,1.7-1.7h47.6
		C118.2,155.7,119,156.5,119,157.4z"/>
	<path class="st4" d="M119,203.9L119,203.9c0,0.9-0.8,1.7-1.7,1.7H69.6c-0.9,0-1.7-0.8-1.7-1.7c0-0.9,0.8-1.7,1.7-1.7h47.6
		C118.2,202.2,119,202.9,119,203.9"/>
	<path class="st5" d="M119,203.9L119,203.9c0,0.9-0.8,1.7-1.7,1.7H69.6c-0.9,0-1.7-0.8-1.7-1.7c0-0.9,0.8-1.7,1.7-1.7h47.6
		C118.2,202.2,119,202.9,119,203.9z"/>
	<path class="st4" d="M119,250.3L119,250.3c0,0.9-0.8,1.7-1.7,1.7H69.6c-0.9,0-1.7-0.8-1.7-1.7c0-0.9,0.8-1.7,1.7-1.7h47.6
		C118.2,248.6,119,249.3,119,250.3"/>
	<path class="st5" d="M119,250.3L119,250.3c0,0.9-0.8,1.7-1.7,1.7H69.6c-0.9,0-1.7-0.8-1.7-1.7c0-0.9,0.8-1.7,1.7-1.7h47.6
		C118.2,248.6,119,249.3,119,250.3z"/>
	<path class="st4" d="M119,296.7L119,296.7c0,0.9-0.8,1.7-1.7,1.7H69.6c-0.9,0-1.7-0.8-1.7-1.7c0-0.9,0.8-1.7,1.7-1.7h47.6
		C118.2,295,119,295.8,119,296.7"/>
	<path class="st5" d="M119,296.7L119,296.7c0,0.9-0.8,1.7-1.7,1.7H69.6c-0.9,0-1.7-0.8-1.7-1.7c0-0.9,0.8-1.7,1.7-1.7h47.6
		C118.2,295,119,295.8,119,296.7z"/>
	<path class="st4" d="M119,343.1L119,343.1c0,0.9-0.8,1.7-1.7,1.7H69.6c-0.9,0-1.7-0.8-1.7-1.7c0-0.9,0.8-1.7,1.7-1.7h47.6
		C118.2,341.4,119,342.2,119,343.1"/>
	<path class="st5" d="M119,343.1L119,343.1c0,0.9-0.8,1.7-1.7,1.7H69.6c-0.9,0-1.7-0.8-1.7-1.7c0-0.9,0.8-1.7,1.7-1.7h47.6
		C118.2,341.4,119,342.2,119,343.1z"/>
	<path class="st4" d="M119,389.5L119,389.5c0,0.9-0.8,1.7-1.7,1.7H69.6c-0.9,0-1.7-0.8-1.7-1.7c0-0.9,0.8-1.7,1.7-1.7h47.6
		C118.2,387.8,119,388.6,119,389.5"/>
	<path class="st5" d="M119,389.5L119,389.5c0,0.9-0.8,1.7-1.7,1.7H69.6c-0.9,0-1.7-0.8-1.7-1.7c0-0.9,0.8-1.7,1.7-1.7h47.6
		C118.2,387.8,119,388.6,119,389.5z"/>
	<path class="st4" d="M119,436L119,436c0,0.9-0.8,1.7-1.7,1.7H69.6c-0.9,0-1.7-0.8-1.7-1.7c0-0.9,0.8-1.7,1.7-1.7h47.6
		C118.2,434.3,119,435,119,436"/>
	<path class="st5" d="M119,436L119,436c0,0.9-0.8,1.7-1.7,1.7H69.6c-0.9,0-1.7-0.8-1.7-1.7c0-0.9,0.8-1.7,1.7-1.7h47.6
		C118.2,434.3,119,435,119,436z"/>
	<path class="st3" d="M140.3,114.6c0-2.4-0.9-4.7-2.4-6.4v-34c1.5-1.7,2.4-3.9,2.4-6.4c0-2.4-0.9-4.7-2.4-6.4V30.3
		c0-5.4-4.4-9.8-9.8-9.8c-5.4,0-9.8,4.4-9.8,9.8v27.8H68.6V30.3c0-5.4-4.4-9.8-9.8-9.8c-5.4,0-9.8,4.4-9.8,9.8v31.2
		c-1.5,1.7-2.4,3.9-2.4,6.4c0,2.4,0.9,4.7,2.4,6.4v34c-1.5,1.7-2.4,3.9-2.4,6.4c0,2.4,0.9,4.7,2.4,6.4v34c-1.5,1.7-2.4,3.9-2.4,6.4
		c0,2.4,0.9,4.7,2.4,6.4v34c-1.5,1.7-2.4,3.9-2.4,6.4c0,2.4,0.9,4.7,2.4,6.4v34c-1.5,1.7-2.4,3.9-2.4,6.4c0,2.4,0.9,4.7,2.4,6.4v34
		c-1.5,1.7-2.4,3.9-2.4,6.4c0,2.4,0.9,4.7,2.4,6.4v34c-1.5,1.7-2.4,3.9-2.4,6.4c0,2.4,0.9,4.7,2.4,6.4v36.6
		c6.2,1.3,14.1,2.1,19.6,1.6v-34.8h49.8v35c7.8,0.2,13.1-0.8,19.6-1.8v-36.6c1.5-1.7,2.4-3.9,2.4-6.4c0-2.4-0.9-4.7-2.4-6.4v-34
		c1.5-1.7,2.4-3.9,2.4-6.4c0-2.4-0.9-4.7-2.4-6.4v-34c1.5-1.7,2.4-3.9,2.4-6.4c0-2.4-0.9-4.7-2.4-6.4v-34c1.5-1.7,2.4-3.9,2.4-6.4
		c0-2.4-0.9-4.7-2.4-6.4v-34c1.5-1.7,2.4-3.9,2.4-6.4c0-2.4-0.9-4.7-2.4-6.4v-34C139.4,119.3,140.3,117.1,140.3,114.6 M68.6,264.7
		h49.8v27.2H68.6V264.7z M68.6,217.9h49.8v27.2H68.6V217.9z M68.6,171.2h49.8v27.2H68.6V171.2z M68.6,124.4h49.8v27.2H68.6V124.4z
		 M118.3,104.8H68.6V77.6h49.8V104.8z M68.6,311.5h49.8v27.2H68.6V311.5z"/>
	<path class="st4" d="M119,65L119,65c0,0.9-0.8,1.7-1.7,1.7H69.6c-0.9,0-1.7-0.8-1.7-1.7c0-0.9,0.8-1.7,1.7-1.7h47.6
		C118.2,63.3,119,64.1,119,65"/>
	<path class="st5" d="M119,65L119,65c0,0.9-0.8,1.7-1.7,1.7H69.6c-0.9,0-1.7-0.8-1.7-1.7c0-0.9,0.8-1.7,1.7-1.7h47.6
		C118.2,63.3,119,64.1,119,65z"/>
	<path class="st4" d="M119,111.5L119,111.5c0,0.9-0.8,1.7-1.7,1.7H69.6c-0.9,0-1.7-0.8-1.7-1.7c0-0.9,0.8-1.7,1.7-1.7h47.6
		C118.2,109.8,119,110.5,119,111.5"/>
	<path class="st5" d="M119,111.5L119,111.5c0,0.9-0.8,1.7-1.7,1.7H69.6c-0.9,0-1.7-0.8-1.7-1.7c0-0.9,0.8-1.7,1.7-1.7h47.6
		C118.2,109.8,119,110.5,119,111.5z"/>
	<path class="st4" d="M119,157.9L119,157.9c0,0.9-0.8,1.7-1.7,1.7H69.6c-0.9,0-1.7-0.8-1.7-1.7c0-0.9,0.8-1.7,1.7-1.7h47.6
		C118.2,156.2,119,156.9,119,157.9"/>
	<path class="st5" d="M119,157.9L119,157.9c0,0.9-0.8,1.7-1.7,1.7H69.6c-0.9,0-1.7-0.8-1.7-1.7c0-0.9,0.8-1.7,1.7-1.7h47.6
		C118.2,156.2,119,156.9,119,157.9z"/>
	<path class="st4" d="M119,204.3L119,204.3c0,0.9-0.8,1.7-1.7,1.7H69.6c-0.9,0-1.7-0.8-1.7-1.7c0-0.9,0.8-1.7,1.7-1.7h47.6
		C118.2,202.6,119,203.4,119,204.3"/>
	<path class="st5" d="M119,204.3L119,204.3c0,0.9-0.8,1.7-1.7,1.7H69.6c-0.9,0-1.7-0.8-1.7-1.7c0-0.9,0.8-1.7,1.7-1.7h47.6
		C118.2,202.6,119,203.4,119,204.3z"/>
	<path class="st4" d="M119,250.7L119,250.7c0,0.9-0.8,1.7-1.7,1.7H69.6c-0.9,0-1.7-0.8-1.7-1.7c0-0.9,0.8-1.7,1.7-1.7h47.6
		C118.2,249,119,249.8,119,250.7"/>
	<path class="st5" d="M119,250.7L119,250.7c0,0.9-0.8,1.7-1.7,1.7H69.6c-0.9,0-1.7-0.8-1.7-1.7c0-0.9,0.8-1.7,1.7-1.7h47.6
		C118.2,249,119,249.8,119,250.7z"/>
	<path class="st4" d="M119,297.1L119,297.1c0,0.9-0.8,1.7-1.7,1.7H69.6c-0.9,0-1.7-0.8-1.7-1.7c0-0.9,0.8-1.7,1.7-1.7h47.6
		C118.2,295.4,119,296.2,119,297.1"/>
	<path class="st5" d="M119,297.1L119,297.1c0,0.9-0.8,1.7-1.7,1.7H69.6c-0.9,0-1.7-0.8-1.7-1.7c0-0.9,0.8-1.7,1.7-1.7h47.6
		C118.2,295.4,119,296.2,119,297.1z"/>
	<path class="st4" d="M119,343.6L119,343.6c0,0.9-0.8,1.7-1.7,1.7H69.6c-0.9,0-1.7-0.8-1.7-1.7c0-0.9,0.8-1.7,1.7-1.7h47.6
		C118.2,341.9,119,342.6,119,343.6"/>
	<path class="st5" d="M119,343.6L119,343.6c0,0.9-0.8,1.7-1.7,1.7H69.6c-0.9,0-1.7-0.8-1.7-1.7c0-0.9,0.8-1.7,1.7-1.7h47.6
		C118.2,341.9,119,342.6,119,343.6z"/>
</g>
</svg>
