<?xml version="1.0" encoding="utf-8"?>
<!-- Generator: Adobe Illustrator 22.0.1, SVG Export Plug-In . SVG Version: 6.00 Build 0)  -->
<svg version="1.1" id="Layer_1" xmlns="http://www.w3.org/2000/svg" xmlns:xlink="http://www.w3.org/1999/xlink" x="0px" y="0px"
	 viewBox="0 0 820 921" style="enable-background:new 0 0 820 921;" xml:space="preserve">
<style type="text/css">
	.st0{opacity:0;}
	.st1{clip-path:url(#SVGID_2_);}
	.st2{clip-path:url(#SVGID_4_);fill:url(#SVGID_5_);}
	.st3{clip-path:url(#SVGID_2_);fill:none;stroke:#FFFFFF;stroke-width:3.8235;stroke-miterlimit:10;}
	.st4{opacity:0.1667;}
	.st5{clip-path:url(#SVGID_7_);}
	.st6{clip-path:url(#SVGID_9_);fill:url(#SVGID_10_);}
	.st7{clip-path:url(#SVGID_7_);fill:none;stroke:#FFFFFF;stroke-width:3.4178;stroke-miterlimit:10;}
	.st8{opacity:0.3333;}
	.st9{clip-path:url(#SVGID_12_);}
	.st10{clip-path:url(#SVGID_14_);fill:url(#SVGID_15_);}
	.st11{clip-path:url(#SVGID_12_);fill:none;stroke:#FFFFFF;stroke-width:3.0138;stroke-miterlimit:10;}
	.st12{opacity:0.5;}
	.st13{clip-path:url(#SVGID_17_);}
	.st14{clip-path:url(#SVGID_19_);fill:url(#SVGID_20_);}
	.st15{clip-path:url(#SVGID_17_);fill:none;stroke:#FFFFFF;stroke-width:2.6082;stroke-miterlimit:10;}
	.st16{opacity:0.6667;}
	.st17{clip-path:url(#SVGID_22_);}
	.st18{clip-path:url(#SVGID_24_);fill:url(#SVGID_25_);}
	.st19{clip-path:url(#SVGID_22_);fill:none;stroke:#FFFFFF;stroke-width:2.2042;stroke-miterlimit:10;}
	.st20{opacity:0.8333;}
	.st21{clip-path:url(#SVGID_27_);}
	.st22{clip-path:url(#SVGID_29_);fill:url(#SVGID_30_);}
	.st23{clip-path:url(#SVGID_27_);fill:none;stroke:#FFFFFF;stroke-width:1.8003;stroke-miterlimit:10;}
	.st24{clip-path:url(#SVGID_32_);fill:#6CD3A7;}
	.st25{clip-path:url(#SVGID_32_);fill:none;stroke:#FFFFFF;stroke-width:1.3946;stroke-miterlimit:10;}
</style>
<g>
	<g>
		<g class="st0">
			<g>
				<defs>
					<rect id="SVGID_1_" x="-64.4" y="95.6" width="830.2" height="830.2"/>
				</defs>
				<clipPath id="SVGID_2_">
					<use xlink:href="#SVGID_1_"  style="overflow:visible;"/>
				</clipPath>
				<g class="st1">
					<defs>
						<path id="SVGID_3_" d="M763.9,510.7c0,228.2-185,413.2-413.2,413.2c-228.2,0-413.2-185-413.2-413.2
							c0-228.2,185-413.2,413.2-413.2C578.9,97.5,763.9,282.5,763.9,510.7"/>
					</defs>
					<clipPath id="SVGID_4_">
						<use xlink:href="#SVGID_3_"  style="overflow:visible;"/>
					</clipPath>
					
						<linearGradient id="SVGID_5_" gradientUnits="userSpaceOnUse" x1="192.5632" y1="2116.3499" x2="194.2394" y2="2116.3499" gradientTransform="matrix(492.9811 0 0 -492.9811 -94992.4844 1043831.1875)">
						<stop  offset="0" style="stop-color:#61E3E6"/>
						<stop  offset="2.434590e-03" style="stop-color:#61E3E6"/>
						<stop  offset="1" style="stop-color:#AEFFFF"/>
					</linearGradient>
					<rect x="-62.5" y="97.5" class="st2" width="826.3" height="826.3"/>
				</g>
				
					<ellipse transform="matrix(0.7071 -0.7071 0.7071 0.7071 -258.4078 397.568)" class="st3" cx="350.7" cy="510.7" rx="413.2" ry="413.2"/>
			</g>
		</g>
		<g class="st4">
			<g>
				<defs>
					<rect id="SVGID_6_" x="26.3" y="173" width="742.3" height="742.3"/>
				</defs>
				<clipPath id="SVGID_7_">
					<use xlink:href="#SVGID_6_"  style="overflow:visible;"/>
				</clipPath>
				<g class="st5">
					<defs>
						<path id="SVGID_8_" d="M766.9,544.2c0,204-165.4,369.4-369.4,369.4S28.1,748.2,28.1,544.2c0-204,165.4-369.4,369.4-369.4
							S766.9,340.1,766.9,544.2"/>
					</defs>
					<clipPath id="SVGID_9_">
						<use xlink:href="#SVGID_8_"  style="overflow:visible;"/>
					</clipPath>
					
						<linearGradient id="SVGID_10_" gradientUnits="userSpaceOnUse" x1="192.5942" y1="2116.0061" x2="194.2704" y2="2116.0061" gradientTransform="matrix(440.8081 0 0 -440.8081 -84869 933296.75)">
						<stop  offset="0" style="stop-color:#63E0DB"/>
						<stop  offset="2.434590e-03" style="stop-color:#63E0DB"/>
						<stop  offset="1" style="stop-color:#A3F8F0"/>
					</linearGradient>
					<rect x="28.1" y="174.7" class="st6" width="738.9" height="738.9"/>
				</g>
				
					<ellipse transform="matrix(0.7071 -0.7071 0.7071 0.7071 -268.3661 440.4635)" class="st7" cx="397.5" cy="544.2" rx="369.4" ry="369.4"/>
			</g>
		</g>
		<g class="st8">
			<g>
				<defs>
					<rect id="SVGID_11_" x="153.7" y="124.7" width="654.5" height="654.4"/>
				</defs>
				<clipPath id="SVGID_12_">
					<use xlink:href="#SVGID_11_"  style="overflow:visible;"/>
				</clipPath>
				<g class="st9">
					<defs>
						<path id="SVGID_13_" d="M806.6,451.9c0,179.9-145.8,325.7-325.7,325.7S155.2,631.8,155.2,451.9
							c0-179.9,145.8-325.7,325.7-325.7S806.6,272,806.6,451.9"/>
					</defs>
					<clipPath id="SVGID_14_">
						<use xlink:href="#SVGID_13_"  style="overflow:visible;"/>
					</clipPath>
					
						<linearGradient id="SVGID_15_" gradientUnits="userSpaceOnUse" x1="192.672" y1="2115.6995" x2="194.3482" y2="2115.6995" gradientTransform="matrix(388.6351 0 0 -388.6351 -74723.9219 822687)">
						<stop  offset="0" style="stop-color:#65DED1"/>
						<stop  offset="2.434590e-03" style="stop-color:#65DED1"/>
						<stop  offset="1" style="stop-color:#98F0E2"/>
					</linearGradient>
					<rect x="155.2" y="126.2" class="st10" width="651.4" height="651.4"/>
				</g>
				<circle class="st11" cx="480.9" cy="451.9" r="325.7"/>
			</g>
		</g>
		<g class="st12">
			<g>
				<defs>
					<rect id="SVGID_16_" x="180.9" y="33.2" width="566.6" height="566.6"/>
				</defs>
				<clipPath id="SVGID_17_">
					<use xlink:href="#SVGID_16_"  style="overflow:visible;"/>
				</clipPath>
				<g class="st13">
					<defs>
						<path id="SVGID_18_" d="M746.2,316.5c0,155.7-126.3,282-282,282c-155.7,0-282-126.3-282-282c0-155.7,126.3-282,282-282
							C619.9,34.5,746.2,160.7,746.2,316.5"/>
					</defs>
					<clipPath id="SVGID_19_">
						<use xlink:href="#SVGID_18_"  style="overflow:visible;"/>
					</clipPath>
					
						<linearGradient id="SVGID_20_" gradientUnits="userSpaceOnUse" x1="192.653" y1="2115.3496" x2="194.3292" y2="2115.3496" gradientTransform="matrix(336.4621 0 0 -336.4621 -64638.2383 712051.4375)">
						<stop  offset="0" style="stop-color:#67DBC7"/>
						<stop  offset="2.434590e-03" style="stop-color:#67DBC7"/>
						<stop  offset="1" style="stop-color:#8DE9D3"/>
					</linearGradient>
					<rect x="182.2" y="34.5" class="st14" width="564" height="564"/>
				</g>
				<circle class="st15" cx="464.2" cy="316.5" r="282"/>
			</g>
		</g>
		<g class="st16">
			<g>
				<defs>
					<rect id="SVGID_21_" x="111.4" y="13.7" width="478.7" height="478.7"/>
				</defs>
				<clipPath id="SVGID_22_">
					<use xlink:href="#SVGID_21_"  style="overflow:visible;"/>
				</clipPath>
				<g class="st17">
					<defs>
						<path id="SVGID_23_" d="M589,253.1c0,131.6-106.7,238.3-238.3,238.3S112.5,384.7,112.5,253.1S219.1,14.8,350.7,14.8
							S589,121.5,589,253.1"/>
					</defs>
					<clipPath id="SVGID_24_">
						<use xlink:href="#SVGID_23_"  style="overflow:visible;"/>
					</clipPath>
					
						<linearGradient id="SVGID_25_" gradientUnits="userSpaceOnUse" x1="192.4914" y1="2114.7715" x2="194.1676" y2="2114.7715" gradientTransform="matrix(284.2891 0 0 -284.2891 -54610.7422 601459.5625)">
						<stop  offset="0" style="stop-color:#68D8BC"/>
						<stop  offset="2.434590e-03" style="stop-color:#68D8BC"/>
						<stop  offset="1" style="stop-color:#82E2C4"/>
					</linearGradient>
					<rect x="112.5" y="14.8" class="st18" width="476.5" height="476.5"/>
				</g>
				
					<ellipse transform="matrix(0.7071 -0.7071 0.7071 0.7071 -76.2211 322.1145)" class="st19" cx="350.7" cy="253.1" rx="238.3" ry="238.3"/>
			</g>
		</g>
		<g class="st20">
			<g>
				<defs>
					<rect id="SVGID_26_" x="28.7" y="31.3" width="390.9" height="390.9"/>
				</defs>
				<clipPath id="SVGID_27_">
					<use xlink:href="#SVGID_26_"  style="overflow:visible;"/>
				</clipPath>
				<g class="st21">
					<defs>
						<path id="SVGID_28_" d="M418.7,226.7c0,107.4-87.1,194.5-194.5,194.5c-107.4,0-194.5-87.1-194.5-194.5
							c0-107.4,87.1-194.5,194.5-194.5C331.6,32.2,418.7,119.3,418.7,226.7"/>
					</defs>
					<clipPath id="SVGID_29_">
						<use xlink:href="#SVGID_28_"  style="overflow:visible;"/>
					</clipPath>
					
						<linearGradient id="SVGID_30_" gradientUnits="userSpaceOnUse" x1="192.2322" y1="2113.8655" x2="193.9084" y2="2113.8655" gradientTransform="matrix(232.1161 0 0 -232.1161 -44590.5664 490888.9063)">
						<stop  offset="0" style="stop-color:#6AD6B2"/>
						<stop  offset="2.434590e-03" style="stop-color:#6AD6B2"/>
						<stop  offset="1" style="stop-color:#77DAB6"/>
					</linearGradient>
					<rect x="29.6" y="32.2" class="st22" width="389.1" height="389.1"/>
				</g>
				<path class="st23" d="M418.7,226.7c0,107.4-87.1,194.5-194.5,194.5c-107.4,0-194.5-87.1-194.5-194.5
					c0-107.4,87.1-194.5,194.5-194.5C331.6,32.2,418.7,119.3,418.7,226.7z"/>
			</g>
		</g>
		<g>
			<g>
				<defs>
					<rect id="SVGID_31_" x="12.8" y="70" width="303" height="303"/>
				</defs>
				<clipPath id="SVGID_32_">
					<use xlink:href="#SVGID_31_"  style="overflow:visible;"/>
				</clipPath>
				<path class="st24" d="M315.1,221.5c0,83.3-67.5,150.8-150.8,150.8c-83.3,0-150.8-67.5-150.8-150.8
					c0-83.3,67.5-150.8,150.8-150.8C247.6,70.7,315.1,138.2,315.1,221.5"/>
				<path class="st25" d="M315.1,221.5c0,83.3-67.5,150.8-150.8,150.8c-83.3,0-150.8-67.5-150.8-150.8
					c0-83.3,67.5-150.8,150.8-150.8C247.6,70.7,315.1,138.2,315.1,221.5z"/>
			</g>
		</g>
	</g>
</g>
</svg>
