<?xml version="1.0" encoding="utf-8"?>
<!-- Generator: Adobe Illustrator 22.0.1, SVG Export Plug-In . SVG Version: 6.00 Build 0)  -->
<svg version="1.1" id="Layer_1" xmlns="http://www.w3.org/2000/svg" xmlns:xlink="http://www.w3.org/1999/xlink" x="0px" y="0px"
	 viewBox="0 0 84.5 86.8" style="enable-background:new 0 0 84.5 86.8;" xml:space="preserve">
<style type="text/css">
	.st0{fill:#F28F1E;}
	.st1{fill:#FFFFFF;}
	.st2{fill:#EC5A29;}
</style>
<path class="st0" d="M39.4,13.6c0.6-0.2,1.1-0.5,1.6-0.8c0.3-0.2,0.6,0,0.8,0.2c0.2,0.3,0,0.6-0.2,0.8c-0.6,0.3-1.2,0.6-1.8,0.8
	c-0.1,0-0.1,0-0.2,0c-0.2,0-0.4-0.1-0.5-0.4C38.9,14.1,39.1,13.7,39.4,13.6 M42.5,11.9c0.5-0.3,1-0.7,1.5-1.1
	c0.2-0.2,0.6-0.2,0.8,0.1c0.2,0.2,0.2,0.6-0.1,0.8c-0.5,0.4-1.1,0.8-1.5,1.1c-0.1,0.1-0.2,0.1-0.3,0.1c-0.2,0-0.4-0.1-0.5-0.2
	C42.2,12.4,42.3,12.1,42.5,11.9 M50.8,44c0.1-0.6,0.1-1.2,0.2-1.9c0-0.3,0.3-0.5,0.6-0.5c0.3,0,0.5,0.3,0.5,0.6
	C52,43,52,43.6,51.9,44.2c0,0.3-0.3,0.5-0.6,0.5c0,0,0,0-0.1,0C51,44.6,50.7,44.4,50.8,44 M51.3,40.3c0.1-0.6,0.2-1.2,0.3-1.9
	c0.1-0.3,0.3-0.5,0.6-0.5c0.3,0,0.5,0.3,0.5,0.6c-0.1,0.6-0.2,1.3-0.3,1.9c0,0.3-0.3,0.5-0.6,0.5c0,0-0.1,0-0.1,0
	C51.4,40.9,51.2,40.6,51.3,40.3 M51.9,36.5c0.1-0.6,0.2-1.2,0.4-1.9c0.1-0.3,0.4-0.5,0.7-0.4c0.3,0.1,0.5,0.4,0.4,0.7
	c-0.1,0.6-0.2,1.2-0.4,1.8c0,0.3-0.3,0.5-0.6,0.5c0,0-0.1,0-0.1,0C52,37.1,51.8,36.9,51.9,36.5 M52.6,32.8c0.1-0.6,0.3-1.2,0.4-1.8
	c0.1-0.3,0.4-0.5,0.7-0.4c0.3,0.1,0.5,0.4,0.4,0.7c-0.1,0.6-0.3,1.2-0.4,1.8c-0.1,0.3-0.3,0.4-0.5,0.4c0,0-0.1,0-0.1,0
	C52.7,33.4,52.6,33.1,52.6,32.8 M53.5,29.1c0.2-0.6,0.3-1.2,0.5-1.8c0.1-0.3,0.4-0.5,0.7-0.4c0.3,0.1,0.5,0.4,0.4,0.7
	c-0.2,0.6-0.3,1.2-0.5,1.8c-0.1,0.3-0.3,0.4-0.5,0.4c0,0-0.1,0-0.1,0C53.6,29.8,53.4,29.4,53.5,29.1 M54.5,25.5
	c0.2-0.6,0.4-1.2,0.6-1.8c0.1-0.3,0.4-0.5,0.7-0.3c0.3,0.1,0.5,0.4,0.3,0.7c-0.2,0.6-0.4,1.2-0.6,1.8c-0.1,0.2-0.3,0.4-0.5,0.4
	c-0.1,0-0.1,0-0.2,0C54.6,26.1,54.5,25.8,54.5,25.5 M55.8,21.9c0.2-0.6,0.5-1.2,0.7-1.8c0.1-0.3,0.5-0.4,0.7-0.3
	c0.3,0.1,0.4,0.5,0.3,0.7c-0.2,0.6-0.5,1.1-0.7,1.7c-0.1,0.2-0.3,0.4-0.5,0.4c-0.1,0-0.1,0-0.2,0C55.8,22.5,55.7,22.2,55.8,21.9
	 M33.4,23.3c0,0.1,0,0.1,0,0.2c0,0.1,0,0.1,0,0.1c0,0.1,0,0.2,0,0.3c0,0.1,0,0.1,0,0.1c0,0.1,0,0.3,0,0.4c0,0,0,0.1,0,0.1
	c0,0.2,0,0.3-0.1,0.5c0,0,0,0.1,0,0.1c0,0.2,0,0.4-0.1,0.5c0,0,0,0.1,0,0.1c0,0.2,0,0.4-0.1,0.5c0,0.1,0,0.1,0,0.2
	c0,0.2-0.1,0.4-0.1,0.6c0,0.1,0,0.1,0,0.2c0,0.3-0.1,0.5-0.1,0.8c-0.1,0.4-0.1,0.8-0.2,1.2c0,0.4-0.1,0.7-0.1,1.1
	c-0.3,2.6-0.7,5.4-0.7,7.5c0,4.6,0.2,9.2,3,9.5c0.7,0.1,1.6,0.1,2.6,0.1c1,0,2.2-0.1,3.5-0.1c2.6-0.1,5.8-0.2,9.4-0.1
	c0-0.3,0.1-0.8,0.1-1.5c0-0.3,0.3-0.5,0.6-0.5c0.3,0,0.5,0.3,0.5,0.6c-0.1,0.7-0.1,1.1-0.1,1.5c0.2,0,0.4,0,0.6,0
	c0.5,0,0.9,0.1,1.4,0.1c-0.1-0.8-0.2-1.8-0.2-2.7c0-8.4,4.2-20.8,6.4-26.5c-0.3-0.2-0.5-0.5-0.8-0.7c-0.2,0.4-0.4,0.8-0.6,1.3
	c-0.1,0.2-0.3,0.3-0.5,0.3c-0.1,0-0.2,0-0.2-0.1c-0.3-0.1-0.4-0.5-0.3-0.8c0.3-0.5,0.5-1,0.8-1.5c-3.5-2.9-7.6-5.1-12-6.3
	c-0.1,0-0.2,0.1-0.3,0.1c-0.2,0-0.3-0.1-0.4-0.2c0,0,0-0.1-0.1-0.1c-0.6-0.2-1.2-0.3-1.8-0.4c-0.9,0.7-1.6,1.2-2.1,1.6
	c-0.9,0.6-2.5,1.2-3.7,1.6c-0.7,0.2-1.2,0.4-1.6,0.5c0.2,0.3,0.3,0.6,0.3,0.9c0.3,0,0.7-0.1,1.2-0.2c0.3-0.1,0.6,0.1,0.7,0.4
	c0.1,0.3-0.1,0.6-0.4,0.7c-0.6,0.2-1.1,0.2-1.5,0.3c0,0.2-0.1,0.4-0.2,0.6c-0.2,0.6-0.6,1.3-1,2.1C34.6,19.8,33.6,21.7,33.4,23.3
	C33.4,23.2,33.4,23.2,33.4,23.3"/>
<path class="st0" d="M54.7,47.7c0.1,0,0.1,0,0.2,0c0.2,0,0.4,0,0.5,0.1c0.3,0,0.5,0.1,0.8,0.1c0.2,0,0.4,0,0.5,0.1
	c0.2,0,0.5,0.1,0.7,0.1c0.2,0,0.3,0.1,0.5,0.1c0.2,0,0.5,0.1,0.7,0.1c0.2,0,0.3,0.1,0.5,0.1c0.3,0,0.5,0.1,0.8,0.1
	c0.1,0,0.3,0.1,0.4,0.1c0.3,0.1,0.6,0.1,1,0.2c0,0,0.1,0,0.1,0c0.4,0.1,0.7,0.2,1.1,0.3c0.1,0,0.2,0.1,0.3,0.1
	c0.2,0.1,0.5,0.1,0.7,0.2c0.1,0,0.3,0.1,0.4,0.1c0.2,0.1,0.4,0.1,0.6,0.2c0.1,0,0.3,0.1,0.4,0.1c0.2,0.1,0.4,0.1,0.5,0.2
	c0.1,0,0.3,0.1,0.4,0.1c0.2,0.1,0.4,0.1,0.5,0.2c0.1,0,0.2,0.1,0.3,0.1c0.2,0.1,0.3,0.1,0.5,0.2c0.1,0,0.2,0.1,0.3,0.1
	c0.2,0.1,0.4,0.1,0.6,0.2c0.1,0,0.1,0,0.2,0.1c0.2,0.1,0.5,0.2,0.7,0.2c0.2,0.1,0.3,0.1,0.4,0.2c0.1,0,0.1,0,0.2,0.1
	c0.6-2.6,1-5.3,1-8c0-9.1-3.5-17.6-9.9-24c-5.1,13.6-6.1,21.5-6.1,25.7C54.5,46.2,54.6,47.1,54.7,47.7"/>
<path class="st0" d="M68.6,52.1c-0.1,0-0.2,0-0.2-0.1c-0.2-0.1-0.3-0.1-0.5-0.2c-0.1,0-0.2-0.1-0.3-0.1c-0.2-0.1-0.3-0.1-0.5-0.2
	c-0.1,0-0.2-0.1-0.3-0.1c-0.2,0-0.3-0.1-0.5-0.2c-0.1,0-0.2-0.1-0.4-0.1c-0.2-0.1-0.3-0.1-0.5-0.2c-0.1,0-0.3-0.1-0.4-0.1
	c-0.2-0.1-0.3-0.1-0.5-0.2c-0.1,0-0.3-0.1-0.4-0.1c-0.2-0.1-0.4-0.1-0.6-0.2c-0.1,0-0.3-0.1-0.4-0.1c-0.2-0.1-0.4-0.1-0.6-0.2
	c-0.1,0-0.3-0.1-0.4-0.1c-0.3-0.1-0.5-0.1-0.8-0.2c-0.1,0-0.2,0-0.3-0.1c-0.4-0.1-0.7-0.2-1.1-0.2c-0.1,0-0.2,0-0.3,0
	c-0.3-0.1-0.6-0.1-0.9-0.2c-0.1,0-0.3,0-0.4-0.1c-0.3,0-0.5-0.1-0.8-0.1c-0.2,0-0.3,0-0.5-0.1c-0.3,0-0.5-0.1-0.8-0.1
	c-0.2,0-0.3,0-0.5-0.1c-0.3,0-0.5-0.1-0.8-0.1c-0.2,0-0.4,0-0.5-0.1c-0.3,0-0.6-0.1-0.9-0.1c-0.1,0-0.2,0-0.3,0
	c-0.4,0-0.8-0.1-1.3-0.1c-3.7-0.2-7-0.1-9.7,0c-0.4,0-0.9,0-1.3,0c-2.6,0.1-4.7,0.2-6.3,0c-4-0.5-4-6.6-4-10.7c0-2.9,0.5-6.8,1-10
	c0.1-0.7,0.2-1.5,0.3-2.1c0,0,0,0,0,0c0-0.2,0.1-0.4,0.1-0.6l0,0c0-0.2,0-0.4,0.1-0.5c0,0,0,0,0,0c0-0.2,0-0.3,0-0.5l0,0
	c0-0.1,0-0.3,0-0.4c0,0,0,0,0,0c0-0.1,0-0.2,0-0.4v0c-0.1-0.1-0.2-0.2-0.2-0.3c0,0.1-0.1,0.2-0.2,0.4c-0.7,1.8-2.3,9.6-2.4,16.7
	c-0.1,5.9,0,11.1,0,13.4c0,0.5,0,0.9,0,1.1c0,0.5,2.3,4.4,10.5,4.4c3.8,0,6.4-0.7,9-1.5c3.2-0.9,6.4-1.9,12.2-1.9
	c2.4,0,4.5,0.3,6.6,0.9c0.6-1.3,1.1-2.7,1.5-4.1C69,52.2,68.8,52.2,68.6,52.1"/>
<path class="st1" d="M67.8,56.4c-2.1-0.6-4.2-0.9-6.6-0.9c-5.7,0-9,1-12.2,1.9c-2.7,0.8-5.2,1.5-9,1.5c-8.2,0-10.5-3.9-10.5-4.4
	c0-0.2,0-0.6,0-1.1c0-2.3-0.1-7.5,0-13.4c0.1-7.1,1.7-15,2.4-16.7c0.1-0.2,0.1-0.3,0.2-0.4c0.1,0.1,0.2,0.2,0.2,0.3v0
	c0,0.1,0,0.2,0,0.4c0,0,0,0,0,0c0,0.1,0,0.3,0,0.4l0,0c0,0.2,0,0.3,0,0.5c0,0,0,0,0,0c0,0.2,0,0.3-0.1,0.5l0,0c0,0.2,0,0.4-0.1,0.6
	c0,0,0,0,0,0c-0.1,0.6-0.2,1.4-0.3,2.1c-0.4,3.2-1,7.2-1,10c0,4,0,10.1,4,10.7c1.6,0.2,3.7,0.1,6.3,0c0.4,0,0.8,0,1.3,0
	c2.7-0.1,6-0.2,9.7,0c0.4,0,0.9,0.1,1.3,0.1c0.1,0,0.2,0,0.3,0c0.3,0,0.6,0.1,0.9,0.1c0.2,0,0.4,0,0.5,0.1c0.3,0,0.5,0.1,0.8,0.1
	c0.2,0,0.3,0,0.5,0.1c0.3,0,0.5,0.1,0.8,0.1c0.2,0,0.3,0,0.5,0.1c0.3,0,0.5,0.1,0.8,0.1c0.1,0,0.3,0,0.4,0.1
	c0.3,0.1,0.6,0.1,0.9,0.2c0.1,0,0.2,0,0.3,0c0.4,0.1,0.7,0.2,1.1,0.2c0.1,0,0.2,0,0.3,0.1c0.3,0.1,0.5,0.1,0.8,0.2
	c0.1,0,0.3,0.1,0.4,0.1c0.2,0.1,0.4,0.1,0.6,0.2c0.1,0,0.3,0.1,0.4,0.1c0.2,0.1,0.4,0.1,0.6,0.2c0.1,0,0.3,0.1,0.4,0.1
	c0.2,0.1,0.4,0.1,0.5,0.2c0.1,0,0.3,0.1,0.4,0.1c0.2,0.1,0.3,0.1,0.5,0.2c0.1,0,0.2,0.1,0.4,0.1c0.2,0,0.3,0.1,0.5,0.2
	c0.1,0,0.2,0.1,0.3,0.1c0.2,0.1,0.3,0.1,0.5,0.2c0.1,0,0.2,0.1,0.3,0.1c0.2,0.1,0.3,0.1,0.5,0.2c0.1,0,0.2,0.1,0.2,0.1
	c0.2,0.1,0.4,0.1,0.6,0.2C68.9,53.7,68.4,55.1,67.8,56.4 M35.3,18.2c0.4-0.8,0.7-1.5,1-2.1c0.1-0.2,0.1-0.4,0.2-0.6
	c0.3-0.1,0.8-0.1,1.5-0.3c0.3-0.1,0.5-0.4,0.4-0.7c-0.1-0.3-0.4-0.5-0.7-0.4c-0.5,0.1-0.9,0.2-1.2,0.2c-0.1-0.3-0.2-0.6-0.3-0.9
	c0.4-0.1,0.9-0.3,1.6-0.5c1.2-0.4,2.8-1,3.7-1.6c0.5-0.4,1.3-0.9,2.1-1.6c0.6,0.1,1.2,0.3,1.8,0.4c0,0,0,0.1,0.1,0.1
	c0.1,0.1,0.3,0.2,0.4,0.2c0.1,0,0.2,0,0.3-0.1c4.4,1.3,8.4,3.4,12,6.4c-0.3,0.5-0.5,1-0.8,1.5c-0.1,0.3,0,0.6,0.3,0.8
	c0.1,0,0.2,0.1,0.2,0.1c0.2,0,0.4-0.1,0.5-0.3c0.2-0.4,0.4-0.9,0.6-1.3c0.3,0.2,0.5,0.5,0.8,0.7c-2.2,5.8-6.4,18.2-6.4,26.5
	c0,1,0.1,1.9,0.2,2.7c-0.4,0-0.9-0.1-1.4-0.1c-0.2,0-0.4,0-0.6,0c0-0.3,0.1-0.8,0.1-1.5c0-0.3-0.2-0.6-0.5-0.6
	c-0.3,0-0.6,0.2-0.6,0.5c-0.1,0.7-0.1,1.2-0.1,1.5c-3.7-0.1-6.8,0-9.4,0.1c-1.3,0.1-2.4,0.1-3.5,0.1c-1,0-1.9,0-2.6-0.1
	c-2.8-0.4-3-4.9-3-9.5c0-2.1,0.3-4.9,0.7-7.5c0-0.4,0.1-0.7,0.1-1.1c0.1-0.4,0.1-0.8,0.2-1.2c0-0.3,0.1-0.5,0.1-0.8
	c0-0.1,0-0.1,0-0.2c0-0.2,0-0.4,0.1-0.6c0-0.1,0-0.1,0-0.2c0-0.2,0-0.4,0.1-0.5c0,0,0-0.1,0-0.1c0-0.2,0-0.4,0.1-0.5
	c0,0,0-0.1,0-0.1c0-0.2,0-0.4,0.1-0.5c0,0,0-0.1,0-0.1c0-0.2,0-0.3,0-0.4c0,0,0-0.1,0-0.1c0-0.1,0-0.2,0-0.3c0-0.1,0-0.1,0-0.1
	c0-0.1,0-0.1,0-0.2c0,0,0,0,0-0.1C33.6,21.7,34.6,19.8,35.3,18.2 M34,11.1L34,11.1c-0.5-0.4-0.6-1-0.5-1.9c2.9-0.3,5.8-0.1,8.6,0.3
	c-0.5,0.4-0.9,0.7-1.3,0.9c-1.3,0.9-4.5,1.8-5.4,2C34.9,12.1,34.5,11.6,34,11.1 M70.5,43.2c0,2.7-0.3,5.4-1,8c-0.1,0-0.1,0-0.2-0.1
	c-0.1,0-0.3-0.1-0.4-0.2c-0.2-0.1-0.5-0.2-0.7-0.2c-0.1,0-0.1,0-0.2-0.1c-0.2-0.1-0.4-0.1-0.6-0.2c-0.1,0-0.2-0.1-0.3-0.1
	c-0.2-0.1-0.3-0.1-0.5-0.2c-0.1,0-0.2-0.1-0.3-0.1c-0.2-0.1-0.3-0.1-0.5-0.2c-0.1,0-0.2-0.1-0.4-0.1c-0.2-0.1-0.4-0.1-0.5-0.2
	c-0.1,0-0.3-0.1-0.4-0.1c-0.2-0.1-0.4-0.1-0.6-0.2c-0.1,0-0.2-0.1-0.4-0.1c-0.2-0.1-0.5-0.1-0.7-0.2c-0.1,0-0.2-0.1-0.3-0.1
	c-0.3-0.1-0.7-0.2-1.1-0.3c0,0-0.1,0-0.1,0c-0.3-0.1-0.6-0.1-1-0.2c-0.1,0-0.3-0.1-0.4-0.1c-0.3,0-0.5-0.1-0.8-0.1
	c-0.2,0-0.3-0.1-0.5-0.1c-0.2,0-0.5-0.1-0.7-0.1c-0.2,0-0.3-0.1-0.5-0.1c-0.2,0-0.5-0.1-0.7-0.1c-0.2,0-0.4,0-0.5-0.1
	c-0.3,0-0.5-0.1-0.8-0.1c-0.2,0-0.4,0-0.5-0.1c-0.1,0-0.1,0-0.2,0c-0.1-0.7-0.2-1.6-0.2-2.8c0-4.2,1.1-12.1,6.1-25.7
	C67,25.6,70.5,34.1,70.5,43.2 M60.8,17.8L60.8,17.8c-3.9-3.7-8.6-6.5-13.7-8.1c-0.4-0.1-0.8-0.3-1.3-0.4c-0.8-0.2-1.5-0.4-2.3-0.6h0
	C40.1,8,36.5,7.8,32.9,8.2c-0.2,0-0.4,0.2-0.5,0.4c-0.3,1.4-0.1,2.6,0.7,3.3l0,0c0.6,0.6,1.1,1.1,1.5,1.5v0c0,0,0,0,0,0.1
	c0.6,0.7,0.8,1.4,0.5,2.2c-0.2,0.5-0.6,1.3-0.9,2c-0.7,1.3-1.4,2.8-1.7,4.2c-0.2-0.1-0.3-0.1-0.5-0.1c0,0,0,0,0,0
	c-0.5,0-0.9,0.4-1.2,1.1c-0.7,1.8-2.3,9.8-2.5,17.1c-0.1,5.9,0,11.1,0,13.4c0,0.5,0,0.9,0,1.1c0,1.2,2.8,5.5,11.7,5.5
	c4,0,6.6-0.8,9.4-1.6c3.1-0.9,6.3-1.8,11.8-1.8c2.5,0,4.6,0.3,6.7,1c0.3,0.1,0.6,0,0.7-0.3c0.8-1.7,1.4-3.5,1.8-5.3
	c0.8-2.9,1.1-5.9,1.1-8.9C71.6,33.5,67.8,24.5,60.8,17.8"/>
<path class="st1" d="M51.3,44.7C51.3,44.7,51.3,44.7,51.3,44.7c0.3,0,0.6-0.2,0.6-0.5c0.1-0.6,0.1-1.2,0.2-1.9
	c0-0.3-0.2-0.6-0.5-0.6c-0.3,0-0.6,0.2-0.6,0.5c-0.1,0.7-0.2,1.3-0.2,1.9C50.7,44.4,51,44.6,51.3,44.7"/>
<path class="st1" d="M53.1,33.5c0,0,0.1,0,0.1,0c0.3,0,0.5-0.2,0.5-0.4c0.1-0.6,0.3-1.2,0.4-1.8c0.1-0.3-0.1-0.6-0.4-0.7
	c-0.3-0.1-0.6,0.1-0.7,0.4c-0.2,0.6-0.3,1.2-0.4,1.8C52.6,33.1,52.8,33.4,53.1,33.5"/>
<path class="st1" d="M52.3,37.2C52.4,37.2,52.4,37.2,52.3,37.2c0.4,0,0.6-0.2,0.7-0.5c0.1-0.6,0.2-1.2,0.4-1.8
	c0.1-0.3-0.1-0.6-0.4-0.7c-0.3-0.1-0.6,0.1-0.7,0.4c-0.1,0.6-0.2,1.3-0.4,1.9C51.8,36.9,52,37.1,52.3,37.2"/>
<path class="st1" d="M54.9,26.2c0.1,0,0.1,0,0.2,0c0.2,0,0.5-0.2,0.5-0.4c0.2-0.6,0.4-1.2,0.6-1.8c0.1-0.3-0.1-0.6-0.3-0.7
	c-0.3-0.1-0.6,0.1-0.7,0.3c-0.2,0.6-0.4,1.2-0.6,1.8C54.5,25.8,54.6,26.1,54.9,26.2"/>
<path class="st1" d="M53.9,29.8c0,0,0.1,0,0.1,0c0.3,0,0.5-0.2,0.5-0.4c0.2-0.6,0.3-1.2,0.5-1.8c0.1-0.3-0.1-0.6-0.4-0.7
	c-0.3-0.1-0.6,0.1-0.7,0.4c-0.2,0.6-0.3,1.2-0.5,1.8C53.4,29.4,53.6,29.8,53.9,29.8"/>
<path class="st1" d="M56.1,22.6c0.1,0,0.1,0,0.2,0c0.2,0,0.4-0.1,0.5-0.4c0.2-0.6,0.5-1.2,0.7-1.7c0.1-0.3,0-0.6-0.3-0.7
	c-0.3-0.1-0.6,0-0.7,0.3c-0.2,0.6-0.5,1.2-0.7,1.8C55.7,22.2,55.8,22.5,56.1,22.6"/>
<path class="st1" d="M51.8,40.9C51.8,40.9,51.8,40.9,51.8,40.9c0.4,0,0.6-0.2,0.6-0.5c0.1-0.6,0.2-1.2,0.3-1.9
	c0.1-0.3-0.2-0.6-0.5-0.6c-0.3,0-0.6,0.2-0.6,0.5c-0.1,0.6-0.2,1.3-0.3,1.9C51.2,40.6,51.4,40.9,51.8,40.9"/>
<path class="st2" d="M41.9,80.7c-21.8,0-39.6-17.8-39.6-39.6c0-21.8,17.8-39.6,39.6-39.6s39.6,17.8,39.6,39.6
	C81.5,62.9,63.7,80.7,41.9,80.7z M41.9,6.3C22.7,6.3,7.2,21.9,7.2,41.1c0,19.2,15.6,34.8,34.8,34.8s34.8-15.6,34.8-34.8
	C76.7,21.9,61.1,6.3,41.9,6.3z"/>
</svg>
