<?xml version="1.0" encoding="utf-8"?>
<!-- Generator: Adobe Illustrator 22.0.1, SVG Export Plug-In . SVG Version: 6.00 Build 0)  -->
<svg version="1.1" id="Layer_1" xmlns="http://www.w3.org/2000/svg" xmlns:xlink="http://www.w3.org/1999/xlink" x="0px" y="0px"
	 viewBox="0 0 84.5 86.8" style="enable-background:new 0 0 84.5 86.8;" xml:space="preserve">
<style type="text/css">
	.st0{fill:#F28F1E;}
	.st1{fill:#FFFFFF;}
	.st2{fill:#EC5A29;}
</style>
<path class="st0" d="M65.7,31.8c-1.4-1-3.2-2.2-5-3.3c-0.8,0.1-1.6,0.1-2.2,0.1c-3.9,0-5.5-1.2-6.2-1.9c-1.5,0.4-2.6,1-2.6,1
	c0,0,0,0,0,0l0,0c0,0-0.3,0.1-0.7,0.3c0,0.1,0,0.2,0,0.4c-0.1,0.3-0.4,0.5-0.7,0.5c-0.1,0-0.1,0-0.2,0c-0.2-0.1-0.5-0.1-0.7-0.2
	c-0.6,0.2-1.2,0.5-1.9,0.7c0.1,0.2,0.1,0.4,0,0.5c-0.1,0.3-0.4,0.5-0.6,0.5c-0.1,0-0.1,0-0.2,0c-0.7-0.2-1.1-0.4-1.3-0.4
	c-0.2,0-0.4,0-0.5,0.1c1.3,0.2,3,0.8,5.4,2c3.3,1.7,6.8,3.5,10.1,4.7c-0.2-0.2-0.2-0.5-0.1-0.8c0.2-0.3,0.6-0.4,0.9-0.3
	c0.4,0.2,0.8,0.4,1.2,0.7c0.3-0.1,0.5,0.1,0.7,0.3c0.3,0.5,0.6,0.9,0.7,1.1c0.7,0.2,1.3,0.3,1.9,0.3c2,0.2,4.5,0,6.5-0.4
	c-0.1-1.3-0.3-2.5-0.6-3.8c-0.7-0.2-1.4-0.5-2.3-1.1C66.9,32.6,66.3,32.2,65.7,31.8 M50.6,29c0.2-0.3,0.5-0.5,0.9-0.3
	c1,0.4,1.9,0.9,2.8,1.5c0.3,0.2,0.4,0.6,0.2,0.9c-0.1,0.2-0.3,0.3-0.6,0.3c-0.1,0-0.2,0-0.4-0.1c-0.8-0.5-1.7-1-2.6-1.4
	C50.6,29.8,50.5,29.4,50.6,29 M51.3,32.4c-0.1,0.2-0.4,0.4-0.6,0.4c-0.1,0-0.2,0-0.3-0.1c-1-0.4-1.9-0.9-2.8-1.2
	c-0.3-0.1-0.5-0.5-0.4-0.9c0.1-0.3,0.5-0.5,0.9-0.4C49,30.6,50,31,51,31.5C51.3,31.6,51.5,32,51.3,32.4 M56.8,35.1
	c-0.1,0.2-0.4,0.4-0.6,0.4c-0.1,0-0.2,0-0.3-0.1c-0.9-0.5-1.8-1-2.7-1.4c-0.3-0.2-0.5-0.6-0.3-0.9c0.2-0.3,0.6-0.5,0.9-0.3
	c0.9,0.5,1.8,0.9,2.8,1.4C56.8,34.4,57,34.8,56.8,35.1 M59.1,35.1c-0.1,0.1-0.3,0.2-0.5,0.2c-0.2,0-0.4-0.1-0.5-0.2
	c-0.7-0.7-1.4-1.4-2.1-2.1c-0.3-0.2-0.3-0.7-0.1-0.9c0.2-0.3,0.7-0.3,0.9-0.1c0.8,0.7,1.6,1.4,2.3,2.2
	C59.4,34.5,59.4,34.9,59.1,35.1"/>
<path class="st0" d="M25.4,33.8c-1.1,0.5-7.9,4-8.7,11.8c-1,9.7,8.6,17.6,27,22.4c0.4,0.1,0.9,0.2,1.3,0.3c0.1,0,0.2,0,0.3,0.1
	c0.4,0.1,0.7,0.2,1.1,0.3c0.1,0,0.3,0.1,0.4,0.1c0.3,0.1,0.7,0.2,1.1,0.2c0.2,0,0.3,0.1,0.5,0.1c0.3,0.1,0.7,0.1,1,0.2
	c0.2,0,0.4,0.1,0.6,0.1c0.3,0.1,0.6,0.1,1,0.2c0.2,0,0.4,0.1,0.6,0.1c0.3,0,0.6,0.1,0.9,0.1c0.2,0,0.5,0.1,0.7,0.1
	c0.3,0,0.6,0.1,0.9,0.1c0.3,0,0.5,0.1,0.8,0.1c0.3,0,0.5,0.1,0.8,0.1c4.3-3,7.9-7,10.4-11.5c-5.8-1.9-14.5-6.5-26.1-17.3
	C33.4,35.3,26.6,33.9,25.4,33.8"/>
<path class="st0" d="M64.1,21.5c-0.3-0.4-0.5-0.7-0.8-1.1c-0.4,0.3-0.8,0.6-1.2,0.9l0,0c-0.1,0.1-0.2,0.1-0.3,0.2c0,0,0,0,0,0
	C62.6,21.4,63.3,21.4,64.1,21.5"/>
<path class="st0" d="M52.5,25.3C52.5,25.3,52.5,25.3,52.5,25.3c1.1-0.3,2.3-0.4,3.5-0.3c2.7,0.3,7.2,3.4,10.5,5.7
	c0.6,0.4,1.2,0.8,1.7,1.1c0.4,0.3,0.8,0.5,1.1,0.6c-0.8-2.9-1.9-5.6-3.4-8.2c-3.2-0.8-6.2-0.8-6.8-0.8c-0.5,0.2-1.3,0.3-2.2,0.4
	c-1.7,0.2-3.6,0.7-5,1.5C52.1,25.4,52.3,25.3,52.5,25.3"/>
<path class="st0" d="M55.8,26.3c-0.6-0.1-1.2,0-1.8,0c0.7,0.4,2.1,0.9,4.5,0.9C57.5,26.7,56.5,26.4,55.8,26.3"/>
<path class="st0" d="M70.4,39.1c-2.1,0.3-4.6,0.6-6.8,0.3c-0.8-0.1-1.5-0.2-2.4-0.4c0,0,0,0,0,0c-1.2-0.3-2.4-0.7-3.7-1.2
	c0.3,0.2,0.6,0.3,0.9,0.5c4.5,2.5,8.7,3.7,12.1,4.2c0-0.3,0-0.6,0-0.9C70.5,40.8,70.4,40,70.4,39.1"/>
<path class="st0" d="M67.4,43.4c0.4,0.1,0.6,0.5,0.5,0.8c-0.1,0.3-0.4,0.5-0.6,0.5c-0.1,0-0.1,0-0.2,0c-1-0.3-1.9-0.6-2.9-1
	c-0.3-0.1-0.5-0.5-0.4-0.9c0.1-0.3,0.4-0.5,0.7-0.4c-0.7-0.2-1.5-0.5-2.3-0.8c0.1,0.2,0.1,0.4,0,0.6c-0.1,0.2-0.4,0.4-0.6,0.4
	c-0.1,0-0.2,0-0.3-0.1c-0.9-0.4-1.8-0.9-2.7-1.3c-0.3-0.2-0.5-0.6-0.3-0.9c0.1-0.2,0.2-0.3,0.4-0.3c-0.3-0.2-0.7-0.3-1-0.5
	c-0.3-0.1-0.5-0.3-0.8-0.4c0,0.2,0,0.3-0.1,0.5c-0.1,0.2-0.4,0.3-0.6,0.3c-0.1,0-0.2,0-0.3-0.1l-0.4-0.2c-0.7-0.4-1.4-0.8-2.2-1.3
	c-0.3-0.2-0.4-0.6-0.3-0.9c0.1-0.1,0.1-0.2,0.2-0.2c-0.6-0.3-1.1-0.6-1.6-0.8c0,0.1,0,0.2-0.1,0.3C51.5,36.8,51.3,37,51,37
	c-0.1,0-0.2,0-0.3-0.1C49.9,36.4,49,36,48,35.6c-0.3-0.2-0.5-0.6-0.3-0.9c0-0.1,0.1-0.2,0.2-0.2c-0.6-0.3-1.1-0.5-1.6-0.7
	c0,0.1,0,0.2-0.1,0.2c-0.1,0.3-0.4,0.4-0.6,0.4c-0.1,0-0.2,0-0.3-0.1c-0.9-0.4-1.8-0.8-2.7-1.2c-0.3-0.1-0.5-0.5-0.4-0.9
	c0,0,0-0.1,0.1-0.1c-0.7-0.2-1.2-0.4-1.6-0.5c-0.1,0.3-0.4,0.4-0.6,0.4c-0.1,0-0.2,0-0.2,0c-0.9-0.3-1.4-0.5-1.5-0.5c0,0,0,0-0.1,0
	c0,0,0,0-0.1,0c0,0,0,0-0.1,0c-0.3,0-0.7,0-1.1,0c0,0-0.1,0-0.1,0c-0.1,0-0.2,0-0.3,0c-0.1,0-0.1,0-0.2,0c-0.1,0-0.2,0-0.3,0
	c-0.1,0-0.1,0-0.2,0c-0.2,0-0.4,0-0.6,0c-0.1,0-0.2,0-0.2,0c-0.1,0-0.2,0-0.3,0c-0.1,0-0.2,0-0.3,0c-0.1,0-0.2,0-0.3,0
	c-0.1,0-0.2,0-0.4,0c-0.1,0-0.3,0-0.4,0c-0.1,0-0.2,0-0.3,0h-0.3c-0.1,0-0.2,0-0.3,0h-0.3c-0.1,0-0.3,0-0.4,0c-0.1,0-0.2,0-0.2,0
	c-0.1,0-0.2,0-0.4,0c-0.1,0-0.1,0-0.2,0c0,0-0.1,0-0.1,0c0,0.1,0,0.2,0,0.2c-0.1,0.3-0.4,0.4-0.6,0.4c-0.1,0-0.2,0-0.3-0.1
	c-0.6-0.3-1.1-0.4-1.3-0.5c-0.1,0-0.2,0-0.3,0c-0.1,0-0.2,0-0.3,0.1c0,0,0,0-0.1,0c-0.8,0.2-1.3,0.6-1.7,0.9
	c2.4,0.5,8.5,2.3,14.4,7.8c5.5,5.2,15.9,14,25.8,17.1c0.3-0.6,0.6-1.3,0.9-1.9c-0.1,0.1-0.2,0.1-0.3,0.1c-0.1,0-0.2,0-0.2,0
	c-1-0.4-2-0.8-2.9-1.2c-0.3-0.2-0.5-0.6-0.3-0.9c0.2-0.3,0.6-0.5,0.9-0.3c0.9,0.4,1.9,0.8,2.9,1.2c0.2,0.1,0.4,0.3,0.4,0.5
	c1.2-3,2-6.2,2.4-9.4c-0.1,0-0.2,0-0.3-0.1c-0.4-0.1-0.6-0.4-0.5-0.8c0.1-0.4,0.4-0.6,0.8-0.5c0,0,0.1,0,0.1,0c0-0.1,0-0.2,0-0.3
	c-1.6-0.2-3.3-0.6-5.2-1.2C65.9,43,66.7,43.2,67.4,43.4 M36.5,34.7c-0.1,0.2-0.3,0.3-0.6,0.3c-0.1,0-0.2,0-0.4-0.1
	c-0.9-0.6-1.8-1.1-2.7-1.5c-0.3-0.2-0.5-0.6-0.3-0.9c0.2-0.3,0.6-0.5,0.9-0.3c0.9,0.5,1.8,1,2.8,1.6C36.6,33.9,36.7,34.3,36.5,34.7
	 M41.6,38.3c-0.1,0.2-0.3,0.3-0.5,0.3c-0.1,0-0.3,0-0.4-0.1c-0.8-0.6-1.7-1.2-2.5-1.8c-0.3-0.2-0.4-0.6-0.2-0.9
	c0.2-0.3,0.6-0.4,0.9-0.2c0.8,0.6,1.7,1.2,2.6,1.9C41.8,37.5,41.9,38,41.6,38.3 M46.5,42.2c-0.1,0.2-0.3,0.2-0.5,0.2
	c-0.2,0-0.3,0-0.4-0.1c-0.8-0.7-1.6-1.3-2.4-2c-0.3-0.2-0.3-0.7-0.1-0.9c0.2-0.3,0.7-0.3,0.9-0.1c0.8,0.7,1.6,1.3,2.4,2
	C46.7,41.5,46.7,41.9,46.5,42.2 M51.5,46.1c-0.1,0.2-0.3,0.3-0.5,0.3c-0.1,0-0.3,0-0.4-0.1c-0.8-0.6-1.6-1.2-2.5-1.9
	c-0.3-0.2-0.3-0.7-0.1-0.9c0.2-0.3,0.7-0.3,0.9-0.1c0.9,0.7,1.7,1.3,2.5,1.9C51.6,45.4,51.7,45.8,51.5,46.1 M56.6,49.7
	C56.5,49.9,56.3,50,56,50c-0.1,0-0.3,0-0.4-0.1c-0.9-0.6-1.7-1.1-2.6-1.8c-0.3-0.2-0.4-0.6-0.2-0.9c0.2-0.3,0.6-0.4,0.9-0.2
	c0.9,0.6,1.7,1.2,2.6,1.7C56.7,48.9,56.8,49.4,56.6,49.7 M62.1,52.8c-0.1,0.2-0.4,0.4-0.6,0.4c-0.1,0-0.2,0-0.3-0.1
	c-0.9-0.5-1.9-1-2.8-1.5c-0.3-0.2-0.4-0.6-0.2-0.9c0.2-0.3,0.6-0.4,0.9-0.2c0.9,0.5,1.8,1,2.7,1.5C62.1,52,62.2,52.4,62.1,52.8"/>
<path class="st1" d="M71.7,38.9c0-0.5-0.1-0.9-0.1-1.3c-0.1-1.1-0.3-2.2-0.5-3.3c-0.1-0.5-0.2-0.9-0.3-1.4c-0.7-2.8-1.7-5.5-3.1-8.1
	c-0.6-1.1-1.2-2.1-1.8-3.1c-0.6-0.9-1.2-1.8-1.9-2.6c-0.2-0.3-0.7-0.3-0.9-0.1c-0.2,0.1-0.4,0.3-0.5,0.4c0,0-0.1,0-0.1,0.1
	c-0.1,0.1-0.2,0.2-0.3,0.3c-0.1,0-0.1,0.1-0.2,0.1c-0.1,0.1-0.2,0.2-0.3,0.2c0,0-0.1,0-0.1,0.1c-0.1,0.1-0.2,0.2-0.3,0.2
	c0,0,0,0,0,0c-0.1,0.1-0.2,0.1-0.3,0.2c0,0,0,0,0,0c-0.1,0.1-0.2,0.1-0.2,0.2c0,0,0,0,0,0c-0.1,0-0.1,0.1-0.2,0.1c0,0,0,0,0,0
	c0,0-0.1,0.1-0.1,0.1c0,0,0,0,0,0c0,0-0.1,0-0.1,0.1l-0.9,0.6c-0.2,0.1-0.3,0.3-0.3,0.4c-0.1,0.1-0.6,0.4-2.2,0.5
	c-0.2,0-0.4,0-0.6,0.1c-0.4,0.1-0.8,0.1-1.2,0.2c-0.2,0-0.4,0.1-0.6,0.1c-0.3,0.1-0.6,0.2-0.9,0.3c-2,0.7-3.9,1.7-4.7,3.4
	c-0.3,0.1-0.8,0.4-1.5,0.7c-0.1,0-0.3-0.1-0.4-0.1c-0.4-0.1-0.7,0.2-0.8,0.5c0,0,0,0,0,0c-1.1,0.4-2.4,0.8-3.3,0.8
	c-2.2,0.1-2.9,0.4-3.1,1.5c-2.1-0.1-8.6-0.2-10.9,0c-2.5,0.3-3.6,1.7-4,2.3c-1.4,0.6-8.6,4.3-9.5,12.9c-0.5,5,1.4,9.5,5.8,13.5
	c4.7,4.3,12.2,7.8,22.2,10.4c0.4,0.1,0.9,0.2,1.3,0.3c0.1,0,0.3,0.1,0.4,0.1c0.3,0.1,0.6,0.1,0.9,0.2c0.2,0,0.3,0.1,0.5,0.1
	c0.3,0.1,0.6,0.1,0.9,0.2c0.2,0,0.4,0.1,0.6,0.1c0.3,0.1,0.6,0.1,0.9,0.2c0.2,0,0.4,0.1,0.5,0.1c0.3,0.1,0.7,0.1,1,0.2
	c0.2,0,0.3,0.1,0.5,0.1c0.4,0.1,0.8,0.1,1.2,0.2c0.1,0,0.2,0,0.3,0c1.1,0.2,2.2,0.3,3.3,0.5c0,0,0.1,0,0.1,0c0.1,0,0.3,0,0.4-0.1
	c4.7-3.2,8.5-7.5,11.2-12.3c0.2-0.4,0.4-0.8,0.6-1.2c1.9-3.8,3.1-7.9,3.6-12.1c0-0.4,0.1-0.9,0.1-1.3c0-0.1,0-0.2,0-0.3
	c0-0.5,0.1-0.9,0.1-1.4c0-0.4,0-0.7,0-1.1C71.8,40.7,71.8,39.8,71.7,38.9 M70.3,37.8c-2,0.3-4.5,0.6-6.5,0.4
	c-0.6-0.1-1.3-0.2-1.9-0.3c-0.1-0.2-0.4-0.6-0.7-1.1c-0.2-0.2-0.4-0.3-0.7-0.3c-0.4-0.2-0.8-0.5-1.2-0.7c-0.3-0.2-0.7-0.1-0.9,0.3
	c-0.1,0.3-0.1,0.6,0.1,0.8c-3.3-1.2-6.8-3-10.1-4.7c-2.4-1.2-4.1-1.8-5.4-2c0.2,0,0.3,0,0.5-0.1c0.2,0.1,0.6,0.2,1.3,0.4
	c0.1,0,0.1,0,0.2,0c0.3,0,0.5-0.2,0.6-0.5c0.1-0.2,0-0.4,0-0.5c0.7-0.2,1.3-0.4,1.9-0.7c0.2,0.1,0.5,0.1,0.7,0.2c0.1,0,0.1,0,0.2,0
	c0.3,0,0.6-0.2,0.7-0.5c0-0.1,0-0.3,0-0.4c0.4-0.2,0.7-0.3,0.7-0.3l0,0c0,0,0,0,0,0c0,0,1.1-0.6,2.6-1c0.6,0.7,2.2,1.9,6.2,1.9
	c0.7,0,1.4,0,2.2-0.1c1.8,1.1,3.6,2.3,5,3.3c0.6,0.4,1.2,0.8,1.7,1.2c0.8,0.5,1.6,0.9,2.3,1.1C69.9,35.2,70.1,36.5,70.3,37.8
	 M54,26.4c0.6-0.1,1.2-0.1,1.8,0c0.7,0.1,1.7,0.4,2.7,0.9C56.1,27.2,54.8,26.8,54,26.4 M62.1,21.3L62.1,21.3
	c0.4-0.3,0.7-0.6,1.2-0.9c0.3,0.4,0.5,0.7,0.8,1.1c-0.7,0-1.5,0-2.3,0c0,0,0,0,0,0C61.9,21.4,62,21.4,62.1,21.3 M56.9,23.9
	c0.9-0.1,1.6-0.2,2.2-0.4c0.6,0,3.5,0,6.8,0.8c1.5,2.6,2.6,5.3,3.4,8.2c-0.4-0.2-0.7-0.4-1.1-0.6c-0.5-0.3-1-0.7-1.7-1.1
	c-3.3-2.3-7.8-5.4-10.5-5.7c-1.2-0.1-2.4,0.1-3.5,0.3c0,0,0,0,0,0c-0.2,0-0.4,0.1-0.6,0.1C53.3,24.6,55.2,24.1,56.9,23.9 M55.6,70.2
	c-0.3,0-0.5-0.1-0.8-0.1c-0.3,0-0.5-0.1-0.8-0.1c-0.3,0-0.6-0.1-0.9-0.1c-0.2,0-0.5-0.1-0.7-0.1c-0.3,0-0.6-0.1-0.9-0.2
	c-0.2,0-0.4-0.1-0.6-0.1c-0.3-0.1-0.6-0.1-1-0.2c-0.2,0-0.4-0.1-0.6-0.1c-0.3-0.1-0.7-0.1-1-0.2C48.1,69,48,69,47.8,69
	c-0.4-0.1-0.7-0.1-1-0.2c-0.1,0-0.3-0.1-0.4-0.1c-0.4-0.1-0.8-0.2-1.1-0.3c-0.1,0-0.2,0-0.3-0.1c-0.5-0.1-0.9-0.2-1.3-0.3
	c-18.4-4.8-28-12.8-27-22.4c0.8-7.8,7.6-11.3,8.8-11.8c1.2,0.2,8,1.5,14.5,7.6C51.5,52.3,60.2,56.8,66,58.7
	C63.4,63.2,59.9,67.2,55.6,70.2 M70.4,44.1c0,0-0.1,0-0.1,0c-0.4-0.1-0.7,0.2-0.8,0.5c-0.1,0.4,0.2,0.7,0.5,0.8c0.1,0,0.2,0,0.3,0.1
	c-0.4,3.3-1.2,6.4-2.4,9.4c0-0.2-0.2-0.4-0.4-0.5c-1-0.4-1.9-0.8-2.9-1.2c-0.3-0.2-0.7,0-0.9,0.3c-0.2,0.3,0,0.7,0.3,0.9
	c1,0.4,1.9,0.8,2.9,1.2c0.1,0,0.2,0,0.2,0c0.1,0,0.2,0,0.3-0.1c-0.3,0.6-0.6,1.3-0.9,1.9c-9.9-3.1-20.3-11.9-25.8-17.1
	c-5.9-5.5-11.9-7.3-14.3-7.8c0.3-0.3,0.9-0.7,1.7-0.9c0,0,0,0,0.1,0c0.1,0,0.2-0.1,0.3-0.1c0.1,0,0.2,0,0.3,0
	c0.2,0.1,0.6,0.2,1.3,0.5c0.1,0,0.2,0.1,0.3,0.1c0.3,0,0.5-0.2,0.6-0.4c0-0.1,0-0.2,0-0.2c0,0,0.1,0,0.1,0c0.1,0,0.1,0,0.2,0
	c0.1,0,0.2,0,0.4,0c0.1,0,0.2,0,0.3,0c0.1,0,0.3,0,0.4,0h0.3c0.1,0,0.2,0,0.3,0h0.3c0.1,0,0.2,0,0.3,0c0.1,0,0.2,0,0.4,0
	c0.1,0,0.2,0,0.4,0c0.1,0,0.2,0,0.3,0c0.1,0,0.2,0,0.3,0c0.1,0,0.2,0,0.3,0c0.1,0,0.2,0,0.2,0c0.2,0,0.4,0,0.6,0c0.1,0,0.1,0,0.2,0
	c0.1,0,0.2,0,0.3,0c0.1,0,0.1,0,0.2,0c0.1,0,0.2,0,0.3,0c0,0,0.1,0,0.1,0c0.4,0,0.7,0,1.1,0c0,0,0,0,0.1,0c0,0,0,0,0.1,0
	c0,0,0,0,0.1,0c0,0,0.5,0.2,1.5,0.5c0.1,0,0.2,0,0.2,0c0.3,0,0.5-0.2,0.6-0.4c0.3,0.1,0.9,0.3,1.6,0.5c0,0,0,0.1-0.1,0.1
	c-0.1,0.3,0,0.7,0.4,0.9c0.9,0.4,1.8,0.8,2.7,1.2c0.1,0,0.2,0.1,0.3,0.1c0.3,0,0.5-0.1,0.6-0.4c0-0.1,0.1-0.1,0.1-0.2
	c0.5,0.2,1,0.5,1.6,0.7c-0.1,0.1-0.1,0.1-0.2,0.2c-0.2,0.3,0,0.7,0.3,0.9c0.9,0.4,1.8,0.9,2.7,1.3c0.1,0,0.2,0.1,0.3,0.1
	c0.2,0,0.5-0.1,0.6-0.4c0.1-0.1,0.1-0.2,0.1-0.3c0.5,0.3,1.1,0.5,1.6,0.8c-0.1,0.1-0.2,0.1-0.2,0.2c-0.2,0.3-0.1,0.7,0.3,0.9
	c0.7,0.4,1.5,0.8,2.2,1.3l0.4,0.2c0.1,0.1,0.2,0.1,0.3,0.1c0.2,0,0.5-0.1,0.6-0.3c0.1-0.2,0.1-0.3,0.1-0.5c0.3,0.1,0.5,0.3,0.8,0.4
	c0.3,0.2,0.7,0.4,1,0.5c-0.2,0.1-0.3,0.2-0.4,0.3c-0.2,0.3,0,0.7,0.3,0.9c0.9,0.5,1.8,0.9,2.7,1.3c0.1,0,0.2,0.1,0.3,0.1
	c0.3,0,0.5-0.1,0.6-0.4c0.1-0.2,0.1-0.5,0-0.6c0.8,0.3,1.5,0.6,2.3,0.8c-0.3,0-0.6,0.1-0.7,0.4c-0.1,0.3,0,0.7,0.4,0.9
	c1,0.4,1.9,0.7,2.9,1c0.1,0,0.1,0,0.2,0c0.3,0,0.6-0.2,0.6-0.5c0.1-0.4-0.1-0.7-0.5-0.8c-0.7-0.2-1.5-0.5-2.2-0.7
	c1.8,0.6,3.6,0.9,5.2,1.2C70.4,44,70.4,44.1,70.4,44.1 M58.4,38.3c-0.3-0.2-0.6-0.3-0.8-0.5c1.3,0.5,2.5,0.9,3.7,1.2c0,0,0,0,0,0
	c0.8,0.2,1.6,0.4,2.4,0.4c2.1,0.2,4.7,0,6.8-0.3c0.1,0.8,0.1,1.6,0.1,2.5c0,0.3,0,0.6,0,0.9C67.1,42,62.8,40.8,58.4,38.3"/>
<path class="st1" d="M51.3,45.1c-0.8-0.6-1.6-1.2-2.5-1.9c-0.3-0.2-0.7-0.2-0.9,0.1c-0.2,0.3-0.2,0.7,0.1,0.9
	c0.9,0.7,1.7,1.3,2.5,1.9c0.1,0.1,0.3,0.1,0.4,0.1c0.2,0,0.4-0.1,0.5-0.3C51.7,45.8,51.6,45.4,51.3,45.1"/>
<path class="st1" d="M61.8,51.9c-0.9-0.5-1.8-1-2.7-1.5c-0.3-0.2-0.7-0.1-0.9,0.2c-0.2,0.3-0.1,0.7,0.2,0.9c0.9,0.5,1.8,1,2.8,1.5
	c0.1,0.1,0.2,0.1,0.3,0.1c0.2,0,0.5-0.1,0.6-0.4C62.2,52.4,62.1,52,61.8,51.9"/>
<path class="st1" d="M46.4,41.3c-0.8-0.6-1.6-1.3-2.4-2c-0.3-0.2-0.7-0.2-0.9,0.1c-0.2,0.3-0.2,0.7,0.1,0.9c0.8,0.7,1.6,1.3,2.4,2
	c0.1,0.1,0.3,0.1,0.4,0.1c0.2,0,0.4-0.1,0.5-0.2C46.7,41.9,46.7,41.5,46.4,41.3"/>
<path class="st1" d="M56.4,48.7c-0.8-0.5-1.7-1.1-2.6-1.7c-0.3-0.2-0.7-0.1-0.9,0.2c-0.2,0.3-0.1,0.7,0.2,0.9
	c0.9,0.6,1.8,1.2,2.6,1.8c0.1,0.1,0.2,0.1,0.4,0.1c0.2,0,0.4-0.1,0.6-0.3C56.8,49.4,56.7,48.9,56.4,48.7"/>
<path class="st1" d="M41.5,37.3c-0.9-0.6-1.7-1.3-2.6-1.9c-0.3-0.2-0.7-0.1-0.9,0.2c-0.2,0.3-0.1,0.7,0.2,0.9
	c0.8,0.6,1.7,1.2,2.5,1.8c0.1,0.1,0.3,0.1,0.4,0.1c0.2,0,0.4-0.1,0.5-0.3C41.9,38,41.8,37.5,41.5,37.3"/>
<path class="st1" d="M36.3,33.7c-0.9-0.6-1.9-1.1-2.8-1.6c-0.3-0.2-0.7,0-0.9,0.3c-0.2,0.3,0,0.7,0.3,0.9c0.9,0.5,1.8,1,2.7,1.5
	c0.1,0.1,0.2,0.1,0.4,0.1c0.2,0,0.4-0.1,0.6-0.3C36.7,34.3,36.6,33.9,36.3,33.7"/>
<path class="st1" d="M51,29.9c0.9,0.4,1.8,0.9,2.6,1.4c0.1,0.1,0.2,0.1,0.4,0.1c0.2,0,0.4-0.1,0.6-0.3c0.2-0.3,0.1-0.7-0.2-0.9
	c-0.9-0.6-1.8-1.1-2.8-1.5c-0.3-0.1-0.7,0-0.9,0.3C50.5,29.4,50.6,29.8,51,29.9"/>
<path class="st1" d="M56.9,32c-0.3-0.2-0.7-0.2-0.9,0.1c-0.2,0.3-0.2,0.7,0.1,0.9c0.8,0.6,1.5,1.3,2.1,2.1c0.1,0.2,0.3,0.2,0.5,0.2
	c0.2,0,0.3-0.1,0.5-0.2c0.3-0.2,0.3-0.7,0-0.9C58.4,33.4,57.7,32.7,56.9,32"/>
<path class="st1" d="M51,31.5c-1-0.4-1.9-0.9-2.8-1.2c-0.3-0.1-0.7,0-0.9,0.4c-0.1,0.3,0,0.7,0.4,0.9c0.9,0.4,1.8,0.8,2.8,1.2
	c0.1,0,0.2,0.1,0.3,0.1c0.3,0,0.5-0.1,0.6-0.4C51.4,32,51.3,31.6,51,31.5"/>
<path class="st1" d="M56.5,34.2c-0.9-0.5-1.8-1-2.8-1.4c-0.3-0.2-0.7,0-0.9,0.3c-0.2,0.3,0,0.7,0.3,0.9c0.9,0.4,1.8,0.9,2.7,1.4
	c0.1,0.1,0.2,0.1,0.3,0.1c0.2,0,0.5-0.1,0.6-0.4C57,34.8,56.8,34.4,56.5,34.2"/>
<path class="st2" d="M41.9,82.6c-21.8,0-39.6-17.8-39.6-39.6c0-21.8,17.8-39.6,39.6-39.6s39.6,17.8,39.6,39.6
	C81.5,64.9,63.7,82.6,41.9,82.6z M41.9,8.3C22.7,8.3,7.2,23.9,7.2,43.1c0,19.2,15.6,34.8,34.8,34.8s34.8-15.6,34.8-34.8
	C76.7,23.9,61.1,8.3,41.9,8.3z"/>
</svg>
