<?xml version="1.0" encoding="utf-8"?>
<!-- Generator: Adobe Illustrator 22.0.1, SVG Export Plug-In . SVG Version: 6.00 Build 0)  -->
<svg version="1.1" id="Layer_1" xmlns="http://www.w3.org/2000/svg" xmlns:xlink="http://www.w3.org/1999/xlink" x="0px" y="0px"
	 viewBox="0 0 766 527" style="enable-background:new 0 0 766 527;" xml:space="preserve">
<style type="text/css">
	.st0{opacity:3.999300e-02;clip-path:url(#SVGID_2_);}
	.st1{clip-path:url(#SVGID_4_);fill:#EF95BC;}
	.st2{opacity:0.2;clip-path:url(#SVGID_2_);}
	.st3{clip-path:url(#SVGID_6_);fill:#C698C1;}
	.st4{opacity:0.36;clip-path:url(#SVGID_2_);}
	.st5{clip-path:url(#SVGID_8_);fill:#9E9BC5;}
	.st6{opacity:0.52;clip-path:url(#SVGID_2_);}
	.st7{clip-path:url(#SVGID_10_);fill:#7A9ECA;}
	.st8{opacity:0.68;clip-path:url(#SVGID_2_);}
	.st9{clip-path:url(#SVGID_12_);fill:#51A2CE;}
	.st10{opacity:0.84;clip-path:url(#SVGID_2_);}
	.st11{clip-path:url(#SVGID_14_);fill:#29A5D2;}
	.st12{clip-path:url(#SVGID_2_);fill:#00A8D7;}
</style>
<g>
	<g>
		<g>
			<defs>
				<rect id="SVGID_1_" x="-12.7" y="-7.6" width="801.3" height="526.9"/>
			</defs>
			<clipPath id="SVGID_2_">
				<use xlink:href="#SVGID_1_"  style="overflow:visible;"/>
			</clipPath>
			<g class="st0">
				<g>
					<defs>
						<rect id="SVGID_3_" x="-12.7" y="-7.6" width="801.3" height="526.9"/>
					</defs>
					<clipPath id="SVGID_4_">
						<use xlink:href="#SVGID_3_"  style="overflow:visible;"/>
					</clipPath>
					<path class="st1" d="M568.7,84C529,29.2,456-7.6,372.5-7.6c-96.2,0-178.5,48.8-212,117.9c-97.9,13-173.2,90.8-173.2,184.9
						c0,103.2,90.6,186.8,202.3,186.8c22.7,0,44.4-3.5,64.7-9.8c56.1,29.6,126.6,47.2,203.2,47.2c182.9,0,331.1-100.4,331.1-224.2
						C788.7,197.8,696.9,114.9,568.7,84"/>
				</g>
			</g>
			<g class="st2">
				<g>
					<defs>
						<rect id="SVGID_5_" x="16.1" y="24" width="737.5" height="484.9"/>
					</defs>
					<clipPath id="SVGID_6_">
						<use xlink:href="#SVGID_5_"  style="overflow:visible;"/>
					</clipPath>
					<path class="st3" d="M551.2,108.2c-36.6-50.4-103.7-84.3-180.6-84.3c-88.6,0-164.3,44.9-195.1,108.5
						C85.4,144.4,16.1,216,16.1,302.6c0,95,83.3,171.9,186.2,171.9c20.8,0,40.9-3.2,59.6-9.1c51.6,27.2,116.5,43.4,187,43.4
						c168.3,0,304.7-92.4,304.7-206.3C753.7,212.9,669.2,136.7,551.2,108.2"/>
				</g>
			</g>
			<g class="st4">
				<g>
					<defs>
						<rect id="SVGID_7_" x="44.9" y="55.5" width="673.7" height="443"/>
					</defs>
					<clipPath id="SVGID_8_">
						<use xlink:href="#SVGID_7_"  style="overflow:visible;"/>
					</clipPath>
					<path class="st5" d="M533.7,132.4c-33.4-46.1-94.8-77-164.9-77c-80.9,0-150.1,41.1-178.2,99.1C108.2,165.5,44.9,230.9,44.9,310
						c0,86.7,76.1,157.1,170.1,157.1c19,0,37.3-2.9,54.4-8.3c47.2,24.9,106.5,39.7,170.9,39.7c153.7,0,278.4-84.4,278.4-188.5
						C718.7,228.1,641.5,158.4,533.7,132.4"/>
				</g>
			</g>
			<g class="st6">
				<g>
					<defs>
						<rect id="SVGID_9_" x="73.8" y="87" width="609.9" height="401"/>
					</defs>
					<clipPath id="SVGID_10_">
						<use xlink:href="#SVGID_9_"  style="overflow:visible;"/>
					</clipPath>
					<path class="st7" d="M516.3,156.6C486,114.9,430.5,87,366.9,87c-73.2,0-135.9,37.2-161.4,89.7C131,186.6,73.8,245.8,73.8,317.4
						c0,78.5,68.9,142.2,153.9,142.2c17.2,0,33.8-2.7,49.3-7.5c42.7,22.5,96.4,35.9,154.7,35.9c139.2,0,252-76.4,252-170.6
						C683.7,243.3,613.8,180.2,516.3,156.6"/>
				</g>
			</g>
			<g class="st8">
				<g>
					<defs>
						<rect id="SVGID_11_" x="102.6" y="118.5" width="546.1" height="359.1"/>
					</defs>
					<clipPath id="SVGID_12_">
						<use xlink:href="#SVGID_11_"  style="overflow:visible;"/>
					</clipPath>
					<path class="st9" d="M498.8,180.9c-27.1-37.4-76.8-62.4-133.7-62.4c-65.6,0-121.7,33.3-144.5,80.4c-66.7,8.9-118,61.9-118,126
						c0,70.3,61.7,127.3,137.8,127.3c15.4,0,30.3-2.4,44.1-6.7c38.2,20.2,86.3,32.2,138.5,32.2c124.6,0,225.6-68.4,225.6-152.8
						C648.7,258.4,586.1,202,498.8,180.9"/>
				</g>
			</g>
			<g class="st10">
				<g>
					<defs>
						<rect id="SVGID_13_" x="131.4" y="150" width="482.3" height="317.2"/>
					</defs>
					<clipPath id="SVGID_14_">
						<use xlink:href="#SVGID_13_"  style="overflow:visible;"/>
					</clipPath>
					<path class="st11" d="M481.3,205.1c-23.9-33-67.8-55.1-118.1-55.1c-57.9,0-107.5,29.4-127.6,71
						c-58.9,7.8-104.2,54.7-104.2,111.3c0,62.1,54.5,112.4,121.7,112.4c13.6,0,26.7-2.1,39-5.9c33.8,17.8,76.2,28.4,122.3,28.4
						c110.1,0,199.3-60.4,199.3-134.9C613.7,273.6,558.5,223.7,481.3,205.1"/>
				</g>
			</g>
			<path class="st12" d="M463.8,229.3c-20.8-28.6-58.9-47.8-102.5-47.8c-50.3,0-93.2,25.5-110.7,61.6c-51.1,6.8-90.5,47.4-90.5,96.5
				c0,53.9,47.3,97.6,105.6,97.6c11.8,0,23.2-1.8,33.8-5.1c29.3,15.4,66.1,24.6,106.1,24.6c95.5,0,172.9-52.4,172.9-117.1
				C578.7,288.8,530.8,245.5,463.8,229.3"/>
		</g>
	</g>
</g>
</svg>
