<?xml version="1.0" encoding="utf-8"?>
<!-- Generator: Adobe Illustrator 22.0.1, SVG Export Plug-In . SVG Version: 6.00 Build 0)  -->
<svg version="1.1" id="Layer_1" xmlns="http://www.w3.org/2000/svg" xmlns:xlink="http://www.w3.org/1999/xlink" x="0px" y="0px"
	 viewBox="0 0 622 527" style="enable-background:new 0 0 622 527;" xml:space="preserve">
<style type="text/css">
	.st0{clip-path:url(#SVGID_2_);fill:url(#SVGID_3_);}
	.st1{clip-path:url(#SVGID_5_);fill:#603913;}
	.st2{clip-path:url(#SVGID_5_);fill:url(#SVGID_6_);}
	.st3{fill:#754C29;}
	.st4{fill:#BF956C;}
	.st5{fill:none;stroke:#826059;stroke-width:1.7264;stroke-miterlimit:10;}
	.st6{fill:none;stroke:#826059;stroke-width:2.2154;stroke-miterlimit:10;}
	.st7{fill:#2F8087;}
	.st8{fill:#EC5A29;}
	.st9{fill:#FFFFFF;}
	.st10{fill:none;stroke:#2F8087;stroke-width:1.1077;stroke-miterlimit:10;}
</style>
<g>
	<g>
		<defs>
			<path id="SVGID_1_" d="M447,23.2c0,6.6,35.3,11.9,78.9,11.9c43.6,0,78.9-5.3,78.9-11.9c0-6.6-35.3-11.9-78.9-11.9
				C482.4,11.3,447,16.6,447,23.2"/>
		</defs>
		<clipPath id="SVGID_2_">
			<use xlink:href="#SVGID_1_"  style="overflow:visible;"/>
		</clipPath>
		
			<linearGradient id="SVGID_3_" gradientUnits="userSpaceOnUse" x1="131.3049" y1="2120.0149" x2="133.0313" y2="2120.0149" gradientTransform="matrix(-91.3861 0 0 91.3861 12604.251 -193716.6875)">
			<stop  offset="0" style="stop-color:#E29D53"/>
			<stop  offset="1.153710e-02" style="stop-color:#E29D53"/>
			<stop  offset="1" style="stop-color:#EDD692"/>
		</linearGradient>
		<rect x="447" y="11.3" class="st0" width="157.8" height="23.8"/>
	</g>
	<g>
		<defs>
			<rect id="SVGID_4_" x="461.9" y="12.8" width="128.1" height="20.8"/>
		</defs>
		<clipPath id="SVGID_5_">
			<use xlink:href="#SVGID_4_"  style="overflow:visible;"/>
		</clipPath>
		<path class="st1" d="M462.7,23.2c0-5.3,28.3-9.5,63.2-9.5c34.9,0,63.2,4.3,63.2,9.5c0,5.3-28.3,9.5-63.2,9.5
			C491,32.8,462.7,28.5,462.7,23.2"/>
		
			<linearGradient id="SVGID_6_" gradientUnits="userSpaceOnUse" x1="130.9978" y1="2120.2515" x2="132.7245" y2="2120.2515" gradientTransform="matrix(-74.2185 0 0 74.2185 10312.5195 -157338.6719)">
			<stop  offset="0" style="stop-color:#E29D53"/>
			<stop  offset="1.153710e-02" style="stop-color:#E29D53"/>
			<stop  offset="1" style="stop-color:#EDD692"/>
		</linearGradient>
		<path class="st2" d="M462.7,23.2L462.7,23.2c0-5.3,28.3-9.5,63.2-9.5c34.9,0,63.2,4.3,63.2,9.5c0,5.3-28.3,9.5-63.2,9.5
			C491,32.8,462.7,28.5,462.7,23.2L462.7,23.2L462.7,23.2c0,5.3,28.3,9.5,63.2,9.5c34.9,0,63.2-4.3,63.2-9.5
			c0-5.3-28.3-9.5-63.2-9.5C491,13.7,462.7,17.9,462.7,23.2L462.7,23.2z"/>
	</g>
	<path class="st3" d="M481.4,289c0,2.4,0.9,4.6,2.3,6.3v33.4c-1.5,1.7-2.3,3.9-2.3,6.3c0,2.4,0.9,4.6,2.3,6.3v30.6
		c0,5.3,4.3,9.6,9.6,9.6c5.3,0,9.6-4.3,9.6-9.6v-27.3h48.8v27.3c0,5.3,4.3,9.6,9.6,9.6c5.3,0,9.6-4.3,9.6-9.6v-30.6
		c1.5-1.7,2.3-3.9,2.3-6.3c0-2.4-0.9-4.6-2.3-6.3v-33.4c1.5-1.7,2.3-3.9,2.3-6.3c0-2.4-0.9-4.6-2.3-6.3v-33.4
		c1.5-1.7,2.3-3.9,2.3-6.3c0-2.4-0.9-4.6-2.3-6.3v-33.4c1.5-1.7,2.3-3.9,2.3-6.3c0-2.4-0.9-4.6-2.3-6.3v-33.4
		c1.5-1.7,2.3-3.9,2.3-6.3c0-2.4-0.9-4.6-2.3-6.3v-33.4c1.5-1.7,2.3-3.9,2.3-6.3c0-2.4-0.9-4.6-2.3-6.3V65.7
		c1.5-1.7,2.3-3.9,2.3-6.3c0-2.4-0.9-4.6-2.3-6.3V17.3c-6.1-1.3-13.9-2.1-19.2-1.6v34.2h-48.8V15.5c-7.7-0.2-12.9,0.8-19.2,1.7v35.9
		c-1.5,1.7-2.3,3.9-2.3,6.3c0,2.4,0.9,4.6,2.3,6.3v33.4c-1.5,1.7-2.3,3.9-2.3,6.3c0,2.4,0.9,4.6,2.3,6.3V145
		c-1.5,1.7-2.3,3.9-2.3,6.3c0,2.4,0.9,4.6,2.3,6.3V191c-1.5,1.7-2.3,3.9-2.3,6.3c0,2.4,0.9,4.6,2.3,6.3v33.4
		c-1.5,1.7-2.3,3.9-2.3,6.3c0,2.4,0.9,4.6,2.3,6.3v33.4C482.3,284.5,481.4,286.7,481.4,289 M551.8,141.7h-48.8V115h48.8V141.7z
		 M551.8,187.6h-48.8v-26.7h48.8V187.6z M551.8,233.5h-48.8v-26.7h48.8V233.5z M551.8,279.4h-48.8v-26.7h48.8V279.4z M502.9,298.7
		h48.8v26.7h-48.8V298.7z M551.8,95.8h-48.8V69.1h48.8V95.8z"/>
	<path class="st4" d="M502.3,337.7L502.3,337.7c0-0.9,0.7-1.7,1.7-1.7h46.7c0.9,0,1.7,0.7,1.7,1.7c0,0.9-0.7,1.7-1.7,1.7H504
		C503.1,339.4,502.3,338.6,502.3,337.7"/>
	<path class="st5" d="M502.3,337.7L502.3,337.7c0-0.9,0.7-1.7,1.7-1.7h46.7c0.9,0,1.7,0.7,1.7,1.7c0,0.9-0.7,1.7-1.7,1.7H504
		C503.1,339.4,502.3,338.6,502.3,337.7z"/>
	<path class="st4" d="M502.3,292.2L502.3,292.2c0-0.9,0.7-1.7,1.7-1.7h46.7c0.9,0,1.7,0.7,1.7,1.7c0,0.9-0.7,1.7-1.7,1.7H504
		C503.1,293.8,502.3,293.1,502.3,292.2"/>
	<path class="st5" d="M502.3,292.2L502.3,292.2c0-0.9,0.7-1.7,1.7-1.7h46.7c0.9,0,1.7,0.7,1.7,1.7c0,0.9-0.7,1.7-1.7,1.7H504
		C503.1,293.8,502.3,293.1,502.3,292.2z"/>
	<path class="st4" d="M502.3,246.6L502.3,246.6c0-0.9,0.7-1.7,1.7-1.7h46.7c0.9,0,1.7,0.7,1.7,1.7c0,0.9-0.7,1.7-1.7,1.7H504
		C503.1,248.2,502.3,247.5,502.3,246.6"/>
	<path class="st5" d="M502.3,246.6L502.3,246.6c0-0.9,0.7-1.7,1.7-1.7h46.7c0.9,0,1.7,0.7,1.7,1.7c0,0.9-0.7,1.7-1.7,1.7H504
		C503.1,248.2,502.3,247.5,502.3,246.6z"/>
	<path class="st4" d="M502.3,201L502.3,201c0-0.9,0.7-1.7,1.7-1.7h46.7c0.9,0,1.7,0.7,1.7,1.7c0,0.9-0.7,1.7-1.7,1.7H504
		C503.1,202.7,502.3,201.9,502.3,201"/>
	<path class="st5" d="M502.3,201L502.3,201c0-0.9,0.7-1.7,1.7-1.7h46.7c0.9,0,1.7,0.7,1.7,1.7c0,0.9-0.7,1.7-1.7,1.7H504
		C503.1,202.7,502.3,201.9,502.3,201z"/>
	<path class="st4" d="M502.3,155.4L502.3,155.4c0-0.9,0.7-1.7,1.7-1.7h46.7c0.9,0,1.7,0.7,1.7,1.7c0,0.9-0.7,1.7-1.7,1.7H504
		C503.1,157.1,502.3,156.4,502.3,155.4"/>
	<path class="st5" d="M502.3,155.4L502.3,155.4c0-0.9,0.7-1.7,1.7-1.7h46.7c0.9,0,1.7,0.7,1.7,1.7c0,0.9-0.7,1.7-1.7,1.7H504
		C503.1,157.1,502.3,156.4,502.3,155.4z"/>
	<path class="st4" d="M502.3,109.9L502.3,109.9c0-0.9,0.7-1.7,1.7-1.7h46.7c0.9,0,1.7,0.7,1.7,1.7c0,0.9-0.7,1.7-1.7,1.7H504
		C503.1,111.5,502.3,110.8,502.3,109.9"/>
	<path class="st5" d="M502.3,109.9L502.3,109.9c0-0.9,0.7-1.7,1.7-1.7h46.7c0.9,0,1.7,0.7,1.7,1.7c0,0.9-0.7,1.7-1.7,1.7H504
		C503.1,111.5,502.3,110.8,502.3,109.9z"/>
	<path class="st4" d="M502.3,64.3L502.3,64.3c0-0.9,0.7-1.7,1.7-1.7h46.7c0.9,0,1.7,0.7,1.7,1.7c0,0.9-0.7,1.7-1.7,1.7H504
		C503.1,65.9,502.3,65.2,502.3,64.3"/>
	<path class="st5" d="M502.3,64.3L502.3,64.3c0-0.9,0.7-1.7,1.7-1.7h46.7c0.9,0,1.7,0.7,1.7,1.7c0,0.9-0.7,1.7-1.7,1.7H504
		C503.1,65.9,502.3,65.2,502.3,64.3z"/>
	<path class="st3" d="M481.4,379.8c0,2.4,0.9,4.6,2.3,6.3v33.4c-1.5,1.7-2.3,3.9-2.3,6.3c0,2.4,0.9,4.6,2.3,6.3v30.6
		c0,5.3,4.3,9.6,9.6,9.6c5.3,0,9.6-4.3,9.6-9.6v-27.3h48.8v27.3c0,5.3,4.3,9.6,9.6,9.6c5.3,0,9.6-4.3,9.6-9.6v-30.6
		c1.5-1.7,2.3-3.9,2.3-6.3c0-2.4-0.9-4.6-2.3-6.3V386c1.5-1.7,2.3-3.9,2.3-6.3c0-2.4-0.9-4.6-2.3-6.3v-33.4c1.5-1.7,2.3-3.9,2.3-6.3
		c0-2.4-0.9-4.6-2.3-6.3v-33.4c1.5-1.7,2.3-3.9,2.3-6.3c0-2.4-0.9-4.6-2.3-6.3v-33.4c1.5-1.7,2.3-3.9,2.3-6.3c0-2.4-0.9-4.6-2.3-6.3
		v-33.4c1.5-1.7,2.3-3.9,2.3-6.3c0-2.4-0.9-4.6-2.3-6.3v-33.4c1.5-1.7,2.3-3.9,2.3-6.3c0-2.4-0.9-4.6-2.3-6.3V108
		c-6.1-1.3-13.9-2.1-19.2-1.6v34.2h-48.8v-34.3c-7.7-0.2-12.9,0.8-19.2,1.7v35.9c-1.5,1.7-2.3,3.9-2.3,6.3c0,2.4,0.9,4.6,2.3,6.3
		v33.4c-1.5,1.7-2.3,3.9-2.3,6.3c0,2.4,0.9,4.6,2.3,6.3v33.4c-1.5,1.7-2.3,3.9-2.3,6.3c0,2.4,0.9,4.6,2.3,6.3v33.4
		c-1.5,1.7-2.3,3.9-2.3,6.3c0,2.4,0.9,4.6,2.3,6.3v33.4c-1.5,1.7-2.3,3.9-2.3,6.3c0,2.4,0.9,4.6,2.3,6.3v33.4
		C482.3,375.2,481.4,377.4,481.4,379.8 M551.8,232.4h-48.8v-26.7h48.8V232.4z M551.8,278.3h-48.8v-26.7h48.8V278.3z M551.8,324.2
		h-48.8v-26.7h48.8V324.2z M551.8,370.1h-48.8v-26.7h48.8V370.1z M502.9,389.4h48.8v26.7h-48.8V389.4z M551.8,186.5h-48.8v-26.7
		h48.8V186.5z"/>
	<path class="st4" d="M497.9,425.5L497.9,425.5c0-1.2,1-2.1,2.1-2.1h60c1.2,0,2.1,1,2.1,2.1c0,1.2-1,2.1-2.1,2.1h-60
		C498.9,427.7,497.9,426.7,497.9,425.5"/>
	<path class="st6" d="M497.9,427.7L497.9,427.7c0-1.2,1-2.1,2.1-2.1h60c1.2,0,2.1,1,2.1,2.1c0,1.2-1,2.1-2.1,2.1h-60
		C498.9,429.8,497.9,428.9,497.9,427.7z"/>
	<path class="st4" d="M502.3,382.9L502.3,382.9c0-0.9,0.7-1.7,1.7-1.7h46.7c0.9,0,1.7,0.7,1.7,1.7c0,0.9-0.7,1.7-1.7,1.7H504
		C503.1,384.5,502.3,383.8,502.3,382.9"/>
	<path class="st5" d="M502.3,382.9L502.3,382.9c0-0.9,0.7-1.7,1.7-1.7h46.7c0.9,0,1.7,0.7,1.7,1.7c0,0.9-0.7,1.7-1.7,1.7H504
		C503.1,384.5,502.3,383.8,502.3,382.9z"/>
	<path class="st4" d="M502.3,337.3L502.3,337.3c0-0.9,0.7-1.7,1.7-1.7h46.7c0.9,0,1.7,0.7,1.7,1.7c0,0.9-0.7,1.7-1.7,1.7H504
		C503.1,339,502.3,338.2,502.3,337.3"/>
	<path class="st5" d="M502.3,337.3L502.3,337.3c0-0.9,0.7-1.7,1.7-1.7h46.7c0.9,0,1.7,0.7,1.7,1.7c0,0.9-0.7,1.7-1.7,1.7H504
		C503.1,339,502.3,338.2,502.3,337.3z"/>
	<path class="st4" d="M502.3,291.7L502.3,291.7c0-0.9,0.7-1.7,1.7-1.7h46.7c0.9,0,1.7,0.7,1.7,1.7c0,0.9-0.7,1.7-1.7,1.7H504
		C503.1,293.4,502.3,292.6,502.3,291.7"/>
	<path class="st5" d="M502.3,291.7L502.3,291.7c0-0.9,0.7-1.7,1.7-1.7h46.7c0.9,0,1.7,0.7,1.7,1.7c0,0.9-0.7,1.7-1.7,1.7H504
		C503.1,293.4,502.3,292.6,502.3,291.7z"/>
	<path class="st4" d="M502.3,246.1L502.3,246.1c0-0.9,0.7-1.7,1.7-1.7h46.7c0.9,0,1.7,0.7,1.7,1.7c0,0.9-0.7,1.7-1.7,1.7H504
		C503.1,247.8,502.3,247.1,502.3,246.1"/>
	<path class="st5" d="M502.3,246.1L502.3,246.1c0-0.9,0.7-1.7,1.7-1.7h46.7c0.9,0,1.7,0.7,1.7,1.7c0,0.9-0.7,1.7-1.7,1.7H504
		C503.1,247.8,502.3,247.1,502.3,246.1z"/>
	<path class="st4" d="M502.3,200.6L502.3,200.6c0-0.9,0.7-1.7,1.7-1.7h46.7c0.9,0,1.7,0.7,1.7,1.7c0,0.9-0.7,1.7-1.7,1.7H504
		C503.1,202.2,502.3,201.5,502.3,200.6"/>
	<path class="st5" d="M502.3,200.6L502.3,200.6c0-0.9,0.7-1.7,1.7-1.7h46.7c0.9,0,1.7,0.7,1.7,1.7c0,0.9-0.7,1.7-1.7,1.7H504
		C503.1,202.2,502.3,201.5,502.3,200.6z"/>
	<path class="st4" d="M502.3,155L502.3,155c0-0.9,0.7-1.7,1.7-1.7h46.7c0.9,0,1.7,0.7,1.7,1.7c0,0.9-0.7,1.7-1.7,1.7H504
		C503.1,156.7,502.3,155.9,502.3,155"/>
	<path class="st5" d="M502.3,155L502.3,155c0-0.9,0.7-1.7,1.7-1.7h46.7c0.9,0,1.7,0.7,1.7,1.7c0,0.9-0.7,1.7-1.7,1.7H504
		C503.1,156.7,502.3,155.9,502.3,155z"/>
</g>
<g>
	<path class="st4" d="M458.2,373.5L458.2,373.5c0-1.2,1-2.1,2.1-2.1h60c1.2,0,2.1,1,2.1,2.1c0,1.2-1,2.1-2.1,2.1h-60
		C459.1,375.6,458.2,374.6,458.2,373.5"/>
	<path class="st6" d="M458.2,373.5L458.2,373.5c0-1.2,1-2.1,2.1-2.1h60c1.2,0,2.1,1,2.1,2.1c0,1.2-1,2.1-2.1,2.1h-60
		C459.1,375.6,458.2,374.6,458.2,373.5z"/>
	<path class="st4" d="M494.7,348.5L494.7,348.5c0-0.9,0.7-1.7,1.7-1.7h46.7c0.9,0,1.7,0.7,1.7,1.7c0,0.9-0.7,1.7-1.7,1.7h-46.7
		C495.5,350.2,494.7,349.4,494.7,348.5"/>
	<path class="st5" d="M494.7,348.5L494.7,348.5c0-0.9,0.7-1.7,1.7-1.7h46.7c0.9,0,1.7,0.7,1.7,1.7c0,0.9-0.7,1.7-1.7,1.7h-46.7
		C495.5,350.2,494.7,349.4,494.7,348.5z"/>
	<polygon class="st7" points="108.8,335.8 126.8,353.8 284.1,353.8 237.2,294.1 217,291.5 193.8,303.6 179.4,291.5 165.4,291.5 
		159.7,302.8 142.9,293.4 122,295.7 104.6,295.7 97.2,300.3 	"/>
	<path class="st8" d="M569.2,394.1l7.4-0.8l1.1-7.3c0.8-5.5,1.6-28.4-0.9-35.1l-1.4-3.6l-3.6-1.6c-2.2-1-3.1-1.4-31.6-1.4
		c-13.3,0-28.9,0.1-42.2,0.4c-1.1-1-2.3-1.8-4-2.3l-0.6-0.2l-0.6-0.1c-1.8-0.3-5.6-0.6-19.5-0.6h0c-14.8,0-37.4,0.4-57.6,1
		c-13.2,0.4-21.8,0.7-27.4,1c-6.1-0.9-12.5-1.4-18.9-1.4c-11.4,0-21.1,1.9-29.3,5.2c0.3-21.2,0-45.3-1.5-49.7l-1.3-3.8l-3.6-1.7
		c-1.8-0.8-3.3-1.6-24.2-1.6c-8,0-18.5,0.2-23.2,1l-6.6,1.2l-1.2,6.6c-1.2,6.7-1.4,27.9-1.3,46.9c-8.8-2-18.6-3.2-28.6-3.2
		c-13.5,0-24.8,2.7-33.9,7.1c-3.1-0.4-9.9-0.6-28.7-0.6c-24.2,0-56.2,0.4-67.7,1.2l-8.6,0.6l-0.1,2.1c-10.8-3.6-22.3-4.6-31.5-4.6
		c-15.5,0-36.4,1-46.6,2.2l-7.4,0.9l-1,7.4c-1.8,13.9-2.6,125.5-1.6,135.5l0,0.3l0,0.3c1.4,8.6,9.7,8.6,17.6,8.6
		c2.4,0,23.8-0.1,28.2-1.8l5.2-2.1l0.8-5.5c0.6-4.4,0.8-17,0.9-34.2c8.8,12,17.4,25,22.8,33.3c5.8,8.9,7.7,11.6,11.3,12.3l0.2,2.9
		l8.1,0.8c10.4,1,42.4,1.1,51.9,1.1c11,0,21.8-0.1,29.9-0.2c4.2-0.1,7.5-0.2,9.8-0.3c3-0.1,6.9-0.4,9.7-2.9c8,2,16.9,3.4,26.2,3.4
		c12.9,0,24.5-2.2,34.3-6.5c2,6.8,8.6,7.2,15.7,7.6c4.6,0.2,10.2,0.4,15.6,0.4c18.6,0,24.9-1,28-7l0.7-1.3l0.1-0.6
		c8,2.1,17.1,3.5,26.5,3.5c17.3,0,32.2-4.1,43.6-11.8c0.1,2,0.2,3.7,0.2,4.8l0,0.2l0,0.2c1.1,9.5,10.8,9.5,20.2,9.5
		c28.9,0,31.2-2.6,33.4-5.1l1.5-1.8l7.3,0.7c10.3,1,42.1,1.1,51.6,1.1c10.9,0,21.7-0.1,29.7-0.2c4.1-0.1,7.4-0.2,9.7-0.3
		c4.2-0.2,10.5-0.5,12.4-7.3l2-6.9l-1-0.7c0.5-8.7,0.3-21.5-1.1-27.1l-1.7-6.8l-7-0.5c-2.2-0.2-8.1-0.2-17.4-0.2
		c-9.9,0-22,0.1-32.1,0.2c0-1.9,0-3.8,0-5.8c5.7,0.1,11.7,0.2,17.3,0.2c5.9,0,10.9-0.1,14.5-0.2c2.1-0.1,3.7-0.2,4.9-0.3
		c9.2-0.9,10.1-7.7,10.2-9.7l0-1c1.4-28.1,0-31.8-4.2-35.3c-2.8-2.3-4.1-3.4-42.9-3.4l-0.1-4.7c5.4,0.1,11.8,0.1,18.8,0.1
		C545.7,394.7,564.7,394.6,569.2,394.1"/>
	<path class="st7" d="M568.8,356.2l-0.2-0.4l-0.4-0.2c-0.4-0.2-1.5-0.7-28.1-0.7c-14.9,0-32.8,0.2-46.9,0.5c-0.5-1.5-1-2.5-1.8-2.7
		c-2.2-0.3-8.3-0.5-18.2-0.5c-21.5,0-66.7,1-85.2,2.1c-5.7-0.9-12-1.5-18.7-1.5c-13.5,0-27.5,3.7-38,11.5c0.6-22,0.4-58.1-0.8-61.7
		l-0.2-0.4L330,302c-1.6-0.7-20.3-0.7-20.5-0.7c-5,0-17.3,0.1-21.7,0.9l-0.8,0.1l-0.1,0.8c-1.3,7.2-1.4,36.1-1,56.9
		c-9.4-3.5-22.3-6.2-37.2-6.2c-11.7,0-23.8,2.7-33.7,8.4c-0.1-0.2-0.1-0.5-0.2-0.6l-0.2-0.4l-0.4-0.2c-0.4-0.2-1.5-0.7-28.2-0.7
		c-24.1,0-55.8,0.4-67.1,1.2l-1,0.1l0,1c-0.1,1.7-0.1,3.6-0.2,5.7c-9.6-5.8-22.8-8.7-39.4-8.7c-15,0-35.8,1-45.6,2.1l-0.9,0.1
		l-0.1,0.9c-1.7,13-2.5,124.2-1.5,133.6c0.2,1,0.2,1.5,9.3,1.5c7.6,0,23.3-0.5,25-1.2l0.6-0.2l0.1-0.6c0.6-4.3,0.7-19.8,0.9-33.5
		c0-3.8,0.1-7.3,0.1-10.3c2.4,0.2,6.2,0.3,9.1,0.3c0.6,0,1.3,0,2-0.1c10.3,13.6,20.9,29.6,27.2,39.2c5.7,8.6,5.6,8.7,6.4,8.6l0.2,0
		c1.2,0,3.2-0.4,5.5-1.1c0,1.5,0.1,2.7,0.2,3.6l0.1,0.9l0.9,0.1c10,1,41.6,1.1,51,1.1c43.5,0,43.7-0.7,44-1.6l0.2-0.8l0,0
		c0.1-0.7,0.2-1.5,0.3-2.6c8.9,2.9,19.7,5.1,31.2,5.1c18.4,0,32.3-4.7,41.9-12c0.1,5.4,0.3,9.5,0.5,11.5c0.1,0.7,0.4,2,23.2,2
		c19.2,0,20-1.6,20.4-2.4l0.1-0.3c0.2-1.5,0.5-4.7,0.6-9c9.4,3.5,21.3,6.2,34.1,6.2c26.5,0,43.4-10,51.7-23.2
		c0.1,11.7,0.3,20.6,0.6,24.2c0.1,1,0.2,1.9,11.8,1.9c0.3,0,25.2-0.2,26.9-2.2l0.2-0.3l0-0.3c0.8-7.8,0.5-62.6,0.3-102.7l0-9.3
		l8.1-0.3c2.4-0.1,4.7-0.2,6.9-0.2c-0.7,39.2-1.1,96.2-0.4,108.1l0.1,0.9l0.9,0.1c10,1,41.4,1.1,50.8,1.1c43.2,0,43.4-0.7,43.7-1.6
		l0.2-0.8l0,0c1-5.3,1.1-23.3-0.4-29.5l-0.2-0.8l-0.8-0.1c-2.5-0.2-10.5-0.2-16.8-0.2c-12.9,0-29.8,0.2-40.7,0.4
		c0.2-6.5,0.2-14.9,0.2-23.1c7.9,0.2,17.4,0.4,25.7,0.4c21.1,0,21.1-0.6,21.1-1.9c0-0.1,0-0.5,0.1-1.2c1.3-26.3-0.2-27.6-1-28.3
		c-1.6-1.4-26.9-1.5-37.7-1.5c-2.9,0-5.6,0-8.2,0l-0.4-21.9c6.3,0.2,16.2,0.3,27.4,0.3c13.8,0,29.7-0.2,33.1-0.6l0.8-0.1l0.1-0.8
		C570.2,380.4,570.3,360.2,568.8,356.2 M116.2,449c-1-1.3-2-2.5-2.8-3.6c1-0.4,1.9-0.9,2.8-1.4C116.3,445.7,116.3,447.3,116.2,449
		 M380.3,387.2l0.2,0.7l0.7,0.1c1.1,0.1,2.8,0.2,5,0.3c5.8,1.4,11.8,3.6,18,6.5l0.6,0.3l0.5,0.1c1.3,0,3.2-3,5.2-6.9
		c2.1,0,4.2-0.1,6.2-0.1c-0.1,12.9-0.2,28.4-0.2,43.7c-8.7-12.9-24.9-18.5-40.8-22.2c-19.2-4.4-22.3-7.4-22.3-12.9
		c0-6.7,6.1-10.5,16.8-10.5c3.3,0,6.7,0.3,10.1,0.9C380.3,387.2,380.3,387.2,380.3,387.2 M331.7,432.8c6.5,4.5,15,7.8,25.6,10
		c20.7,4.2,24.9,8.9,24.9,14.6c0,7.5-6.3,11.3-18.6,11.3c-13.1,0-25.1-6.5-32-10.7C331.7,449.5,331.7,440.9,331.7,432.8
		 M285.7,423.8c-8.8-6-19.8-9.4-30.7-11.9c-19.6-4.5-22.8-7.5-22.8-13.2c0-6.8,6.2-10.7,17.1-10.7c10.9,0,22.6,2.9,34.8,8.7l0.6,0.3
		l0.5,0.1c0.4,0,1-0.4,1.5-1l0,0.1C286.2,400.5,285.9,411,285.7,423.8 M287.6,395.2l-0.1,0c2.1-2.8,4.6-8.1,6.6-12.7
		c3.4,0.1,8.4,0.2,15.7,0.2c3,0,5.5,0,7.7-0.1c-1.3,3.5-2.1,7.2-2.3,11.3c-3,0-5.4,0-5.7,0C304.4,393.9,292.1,394,287.6,395.2
		 M202.9,458.9c-1.5,1.8-3.8,6.8-5.9,12.3c-0.8,0-1.7,0-2.4,0c-13,0-30,0.2-41,0.4c0.2-6.6,0.2-15,0.2-23.3
		c7.9,0.2,17.5,0.4,25.9,0.4c21.2,0,21.2-0.6,21.2-1.9c0-0.1,0-0.5,0.1-1.2c0.4-8.5,0.5-14.4,0.5-18.5c6.9,9,18.4,15,35,18.4
		c21.1,4.3,25.4,9.1,25.4,14.9c0,7.7-6.4,11.5-19,11.5c-15.5,0-29.6-9-35.6-12.8c-0.7-0.4-1.3-0.8-1.9-1.2l-0.4-0.1h-0.2
		C203.9,457.8,203.3,458.5,202.9,458.9 M195.7,416.4c-8-0.7-25.2-0.8-33.6-0.8c-2.9,0-5.7,0-8.4,0l-0.4-22.1
		c6.4,0.2,16.3,0.3,27.6,0.3c4.1,0,8.4,0,12.5-0.1c-0.2,1.7-0.3,3.4-0.3,5.1C193.1,405.6,194,411.3,195.7,416.4 M80.6,423.3
		c-3.8,0-9-0.1-12.7-0.5c0-1.9,0-4.5,0-7.4c0-8.1,0.1-18.9,0-23.5c3.8-0.3,8.4-0.5,11.5-0.5c14.6,0,21.1,5.1,21.1,16.5
		C100.6,420.7,89.7,423.3,80.6,423.3"/>
	<path class="st9" d="M523,492.8c-9.4,0-40.9-0.1-50.9-1.1l-1.9-0.2l-0.1-1.9c-1-15.9,0-112.2,1.2-139.2l0.1-2l2-0.1
		c11.3-0.7,42.8-1.2,66.8-1.2c26.8,0,27.9,0.5,28.5,0.8l0.8,0.4l0.3,0.8c1.7,4.3,1.4,25.4,0.5,31.3l-0.3,1.7l-1.7,0.2
		c-3.7,0.4-19.8,0.6-33.2,0.6c-10.5,0-19.9-0.1-26.3-0.3l0.3,19.7c2.3,0,4.7,0,7.2,0c36.2,0,37.7,1.2,38.3,1.8
		c1.2,1,2.8,2.3,1.4,29.2c0,0.6-0.1,1-0.1,1.1c0,2.5,0,3-22.2,3c-8,0-17-0.1-24.6-0.3c0,7.4,0,14.8-0.1,20.9
		c10.9-0.2,27.1-0.4,39.6-0.4c6.3,0,14.3,0,16.9,0.2l1.6,0.1l0.4,1.6c1.5,6,1.3,23,0.5,29.2l0.1,0.1l-0.4,1.6
		C567.2,492.3,567,492.8,523,492.8"/>
	<path class="st7" d="M540.1,349.4c15.1,0,26.8,0.2,27.6,0.6c1.4,3.6,1.4,23.6,0.4,30.2c-3.2,0.3-18,0.6-33,0.6
		c-10.8,0-21.7-0.1-28.5-0.4l0.4,24.2c2.9,0,6.1-0.1,9.4-0.1c16.5,0,35.9,0.4,36.9,1.2c2.2,1.8,0.6,27.8,0.6,28.6
		c0,0.6-8.9,0.8-20,0.8c-8.6,0-18.6-0.1-26.8-0.4c0,8.9,0,18.5-0.2,25.4c11-0.2,28.7-0.4,41.8-0.4c8.2,0,14.6,0.1,16.7,0.2
		c1.6,6.6,1.2,26.4,0.2,29.8c0.8,0.5-20.1,0.9-42.6,0.9c-20.8,0-43.1-0.3-50.7-1.1c-1-15.7,0-112.2,1.2-139
		C484.7,349.8,516.6,349.4,540.1,349.4 M540.1,344.9c-24,0-55.6,0.4-67,1.2l-4,0.3l-0.2,4c-1.2,27-2.2,123.5-1.2,139.4l0.2,3.8
		l3.7,0.4c10.1,1,41.7,1.1,51.1,1.1c10.9,0,21.7-0.1,29.6-0.2c4.1-0.1,7.3-0.2,9.6-0.3c3.9-0.2,6.8-0.3,7.7-3.5l0.9-3.2l-0.4-0.2
		c0.8-7.4,0.8-22.6-0.7-28.6l-0.8-3.1l-3.2-0.2c-2.6-0.2-10.7-0.2-17.1-0.2c-11.7,0-26.5,0.1-37.3,0.3c0.1-4.9,0.1-10.6,0.1-16.3
		c7.1,0.2,15.2,0.3,22.4,0.3c5.9,0,10.8-0.1,14.3-0.2c5.6-0.2,10.1-0.4,10.1-5c0-0.1,0-0.4,0-1c1.4-28-0.3-29.4-2.3-31
		c-1.3-1.1-2.7-2.2-39.7-2.2c-1.7,0-3.4,0-5,0l-0.2-15.2c6.2,0.1,14.7,0.2,24,0.2c13.5,0,29.7-0.2,33.5-0.6l3.4-0.4l0.5-3.4
		c1-6.4,1.2-27.6-0.6-32.4l-0.7-1.7l-1.6-0.7C568.5,345.4,567.5,344.9,540.1,344.9"/>
	<path class="st9" d="M429.1,497.8c-10.9,0-12.6-0.7-12.9-2.9c-0.8-11.3-1.1-72.8-0.7-112.2c-6.2,0.1-13,0.2-19.1,0.2
		c-7.9,0-12.9-0.1-15.5-0.4l-1.4-0.2l-0.4-1.4c-2.3-7.6-1.9-31.2-0.4-32.9l0.3-0.3l0.4-0.2c3.2-1.8,73.2-3,93.8-3
		c10,0,16.2,0.2,18.4,0.5l0.1,0l0.1,0c5.4,1.6,3.7,29.7,3.7,29.9c-0.3,3.8-0.5,6.2-2.7,6.5c-3.7,0.5-14.5,0.9-28.2,1.4l-7,0.2l0,8.2
		c0.2,40.1,0.5,94.9-0.3,102.8l-0.1,0.7l-0.5,0.5C454.8,497.8,431.8,497.8,429.1,497.8"/>
	<path class="st7" d="M473.3,346.6c9.1,0,15.8,0.1,18,0.5c2.9,0.8,2.7,31.9,1.3,32.1c-4.4,0.6-19.5,1-37.1,1.7
		c0.2,40.5,0.6,104.5-0.2,112.9c-0.8,0.9-15.5,1.8-26.1,1.8c-6,0-10.6-0.3-10.7-1c-0.8-11.5-1-76.4-0.6-114.2
		c-6.8,0.1-14.6,0.2-21.3,0.2c-6.7,0-12.5-0.1-15.2-0.4c-1.9-6.3-1.9-29.6-0.8-30.9C382.6,348.3,442,346.6,473.3,346.6 M473.3,342.2
		L473.3,342.2c-14.7,0-37.3,0.4-57.5,1c-35,1-36.3,1.7-37.4,2.3l-0.8,0.4l-0.5,0.7c-0.9,1.1-1.9,2.3-1.7,16.4
		c0.1,4.1,0.4,14,1.7,18.5l0.8,2.8l2.9,0.3c2.6,0.3,7.8,0.4,15.7,0.4c5.3,0,11.3-0.1,16.9-0.1c-0.4,39.4-0.1,98.9,0.7,110l0,0.1
		l0,0.1c0.5,4.9,6,4.9,15.1,4.9c5.3,0,11.6-0.2,17-0.6c9.7-0.6,11.2-1.3,12.5-2.8l0.9-1.1l0.1-1.4c0.8-8,0.5-60.8,0.3-103.2l0-5.9
		c1.7-0.1,3.3-0.1,4.9-0.2c14.3-0.5,24.6-0.8,28.5-1.4c4.1-0.6,4.3-4.8,4.6-8.6c0.3-4.8,0.3-11.7,0-17.4
		c-0.6-10.4-1.8-13.8-5.3-14.8l-0.3-0.1l-0.3,0C491.1,342.6,488.5,342.2,473.3,342.2"/>
	<path class="st9" d="M365.1,494.9c-23.1,0-43.3-8.9-51.3-14.9l-0.7-0.5l-0.2-0.8c-1-4.8,7.5-26.2,10.8-30.2
		c0.3-0.4,1.2-1.5,2.6-1.5h0.5l0.7,0.3l0.1,0.1c0.5,0.3,1.1,0.7,1.8,1.1c5.8,3.7,19.4,12.4,34.2,12.4c11.6,0,17.5-3.4,17.5-10.2
		c0-4.2-1.9-9-24-13.5c-29.9-6.2-43.2-20.6-43.2-46.7c0-31.3,28.7-45.5,55.4-45.5c23,0,41.1,6.3,48.9,12.5c1.7,1.3,1.6,4-0.4,9.9
		c-0.1,0.2-8,22.3-12.6,22.3l-0.6-0.1l-0.9-0.4c-11.8-5.6-23.1-8.4-33.6-8.4c-10,0-15.7,3.4-15.7,9.4c0,4.4,1.4,7.3,21.4,11.9
		c23.9,5.5,48.2,15.4,48.2,46.6C424.2,471.6,405.9,494.9,365.1,494.9"/>
	<path class="st7" d="M369.3,347.3c21.5,0,39.6,5.7,47.5,12c2.6,2-9.5,28.2-11.6,28.2c0,0,0,0,0,0c-3-1.4-17.9-8.9-35.1-8.9
		c-12.2,0-17.9,4.9-17.9,11.6c0,6.3,3.4,9.5,23.2,14c26.2,6.1,46.5,16.7,46.5,44.5c0,21.5-17.3,44.1-56.9,44.1
		c-22.8,0-42.7-8.9-50-14.4c-0.8-4,8.8-29.1,11.2-29.1c0,0,0.1,0,0.1,0c4.7,2.8,19.9,13.8,37.2,13.8c12,0,19.7-3.7,19.7-12.4
		c0-6.5-4.9-11.4-25.8-15.6c-26.6-5.5-41.4-17.9-41.4-44.5C316.1,367.4,335,347.3,369.3,347.3 M369.3,342.8
		c-39.6,0-57.6,24.7-57.6,47.7c0,27,14.3,42.5,45,48.8c22.3,4.5,22.3,9.1,22.3,11.3c0,2,0,8-15.3,8c-14.2,0-27.4-8.4-33.1-12
		c-0.7-0.5-1.3-0.8-1.8-1.1l-0.2-0.1l-0.2-0.1c-0.6-0.3-1.3-0.4-2-0.4c-1.6,0-3.1,0.8-4.4,2.3c-2.8,3.4-6.4,12.8-7.4,15.7
		c-4.6,12.5-4,15.4-3.8,16.4l0.3,1.7l1.4,1c8.2,6.2,29,15.3,52.6,15.3c19.3,0,35.3-5.2,46.2-15.1c9.7-8.7,15.1-20.6,15.1-33.4
		c0-33-26.7-43.4-49.9-48.8c-19.7-4.5-19.7-7.1-19.7-9.7c0-6.5,9.4-7.1,13.4-7.1c10.2,0,21.2,2.8,32.6,8.2l0.6,0.3l0.7,0.3l0.7,0.1
		l0.2,0l0.2,0c3,0,4.9-2.1,8.7-9.7c2.3-4.6,4.6-10,6-14.1c1.6-4.8,3-9.8-0.4-12.4C409.9,348,389.7,342.8,369.3,342.8"/>
	<path class="st9" d="M309.8,500.4c-23.7,0-23.9-1.2-24.3-2.9l0-0.1l0-0.1c-1-11.5-1.6-93.1,0.2-107.9l0.2-1.5l1.5-0.4
		c4.4-1.1,15.7-1.3,22.1-1.3c7.2,0,19.6,0.2,21.3,1.3l0.7,0.5l0.2,0.8c1.7,6.7,1.5,97.6-0.2,108l-0.1,0.3l-0.2,0.3
		C330.6,498.7,329.7,500.4,309.8,500.4"/>
	<path class="st7" d="M309.4,388.4c9.9,0,19.3,0.4,20,0.9c1.6,6.5,1.4,97.3-0.2,107.1c-0.7,1.3-9.9,1.8-19.4,1.8
		c-10.8,0-22-0.6-22.1-1.1c-0.9-10.9-1.6-92.7,0.2-107.4C291.4,388.7,300.6,388.4,309.4,388.4 M309.4,384c-6.4,0-17.9,0.2-22.6,1.3
		l-2.9,0.7l-0.4,3c-1.9,14.9-1.2,96.8-0.3,108.4l0,0.3l0.1,0.3c0.8,3.7,3.8,3.9,11.2,4.3c4.5,0.2,10.1,0.4,15.3,0.4
		c20.2,0,22.1-1.6,23.4-4.2l0.3-0.6l0.1-0.7c1.4-8.7,2.2-101.1,0.2-109l-0.4-1.7l-1.4-0.9C331,385,329.5,384,309.4,384"/>
	<path class="st9" d="M309.8,377.2c-23.5,0-23.8-0.8-24.3-2.4l-0.1-0.2l0-0.2c-1-8.3-1.6-67.5,0.3-78.2l0.3-1.5l1.5-0.3
		c4.5-0.8,16.8-0.9,21.9-0.9c4.5,0,19.3,0.1,21,0.9l0.8,0.4l0.3,0.9c2,5.7,1.3,72.3-0.2,78.6l-0.1,0.4l-0.2,0.4
		C330.3,376.1,329.5,377.2,309.8,377.2"/>
	<path class="st7" d="M309.4,295.7c9.9,0,19.3,0.3,20,0.6c1.6,4.7,1.4,70.2-0.2,77.4c-0.7,0.9-9.9,1.3-19.4,1.3
		c-10.8,0-22-0.4-22.1-0.8c-0.9-7.9-1.6-66.9,0.2-77.6C291.4,295.9,300.6,295.7,309.4,295.7 M309.4,291.3L309.4,291.3
		c-6.4,0-17.8,0.1-22.3,0.9l-3.1,0.5l-0.5,3.1c-2,11.3-1.3,70.2-0.3,78.9l0,0.4l0.1,0.4c1,3.3,3.4,3.4,11.2,3.7
		c4.5,0.2,10,0.3,15.2,0.3c20.9,0,21.7-1.2,23.1-3.2l0.5-0.7l0.2-0.8c1.5-6.7,2.3-73.7,0.1-79.8l-0.6-1.7l-1.7-0.8
		C330.6,292,329.1,291.3,309.4,291.3"/>
	<path class="st9" d="M244.2,498.9c-23.6,0-44.2-9.1-52.3-15.2l-0.7-0.5l-0.2-0.8c-1-4.9,7.6-26.7,11-30.8c0.3-0.4,1.2-1.5,2.7-1.5
		h0.5l0.7,0.3l0.1,0.1c0.5,0.3,1.1,0.7,1.8,1.1c5.9,3.8,19.8,12.6,35,12.6c11.9,0,17.9-3.5,17.9-10.4c0-4.3-1.9-9.2-24.6-13.8
		c-30.5-6.3-44.1-21-44.1-47.6c0-31.9,29.3-46.4,56.5-46.4c23.4,0,41.9,6.4,49.9,12.7c1.7,1.3,1.6,4.1-0.4,10
		c-0.1,0.2-8.2,22.7-12.8,22.7l-0.6,0l-1-0.5c-12-5.7-23.6-8.6-34.3-8.6c-10.2,0-16,3.5-16,9.6c0,4.5,1.5,7.5,21.9,12.1
		c24.3,5.7,49.2,15.7,49.2,47.6C304.5,475.2,285.8,498.9,244.2,498.9"/>
	<path class="st7" d="M248.6,348.2c22,0,40.4,5.8,48.5,12.2c2.7,2.1-9.6,28.8-11.8,28.8h0c-3.1-1.5-18.2-9.1-35.9-9.1
		c-12.4,0-18.2,5-18.2,11.8c0,6.4,3.5,9.7,23.6,14.3c26.7,6.2,47.5,17,47.5,45.4c0,22-17.6,45-58,45c-23.2,0-43.5-9.1-51-14.7
		c-0.8-4.1,8.9-29.7,11.5-29.7c0,0,0.1,0,0.1,0c4.8,2.9,20.3,14.1,37.9,14.1c12.2,0,20.1-3.7,20.1-12.6c0-6.6-5-11.6-26.3-16
		c-27.2-5.6-42.3-18.2-42.3-45.4C194.3,368.8,213.5,348.2,248.6,348.2 M248.6,343.8c-40.4,0-58.7,25.2-58.7,48.6
		c0,27.5,14.6,43.3,45.8,49.7c22.8,4.6,22.8,9.4,22.8,11.6c0,2,0,8.2-15.7,8.2c-14.5,0-28-8.6-33.8-12.3c-0.7-0.5-1.3-0.9-1.8-1.2
		l-0.2-0.1l-0.2-0.1c-0.6-0.3-1.3-0.4-2-0.4c-1.6,0-3.1,0.8-4.4,2.3c-3.4,4.1-12.6,26.7-11.4,32.6l0.3,1.7l1.4,1
		c8.4,6.3,29.6,15.6,53.7,15.6c19.6,0,35.9-5.3,47.1-15.4c9.9-8.9,15.3-21,15.3-34c0-33.6-27.2-44.2-50.9-49.7
		c-20.2-4.6-20.2-7.3-20.2-10c0-6.4,8.7-7.4,13.8-7.4c10.4,0,21.6,2.8,33.4,8.4l0.6,0.3l0.7,0.3l0.8,0.1l0.2,0l0.2,0
		c3,0,4.9-2.1,8.8-9.8c2.3-4.7,4.7-10.2,6.1-14.4c1.7-4.9,3-9.9-0.4-12.5C289.9,349.1,269.3,343.8,248.6,343.8"/>
	<path class="st9" d="M168.6,498.9c-9.5,0-41.1-0.1-51.2-1.1l-1.9-0.2l-0.1-1.9c-1-16,0-112.8,1.2-139.9l0.1-2l2-0.1
		c11.3-0.7,43.1-1.2,67.2-1.2c27,0,28.1,0.5,28.7,0.8l0.8,0.4l0.3,0.8c1.6,4.1,1.5,24.8,0.5,31.5l-0.3,1.7l-1.7,0.2
		c-3.7,0.4-19.9,0.6-33.4,0.6c-10.6,0-20-0.1-26.4-0.3l0.3,19.8c2.3,0,4.7,0,7.2,0c36.4,0,37.9,1.2,38.5,1.8c1.2,1,2.8,2.3,1.5,29.3
		c0,0.6-0.1,1-0.1,1.1c0,2.5,0,3-22.3,3c-8,0-17.1-0.1-24.8-0.3c0,7.4,0,14.9-0.1,21c11-0.2,27.2-0.4,39.8-0.4
		c6.3,0,14.4,0,16.9,0.2l1.6,0.1l0.4,1.6c1.5,6,1.4,23.1,0.5,29.4l0.1,0.1l-0.4,1.6C213.1,498.4,212.9,498.9,168.6,498.9"/>
	<path class="st7" d="M185.9,354.7c15.1,0,26.9,0.2,27.7,0.6c1.4,3.6,1.4,23.8,0.4,30.3c-3.2,0.3-18.1,0.6-33.2,0.6
		c-10.9,0-21.8-0.1-28.7-0.4l0.4,24.3c2.9,0,6.1,0,9.4,0c16.6,0,36.1,0.4,37.1,1.2c2.2,1.8,0.6,27.9,0.6,28.7
		c0,0.6-8.9,0.8-20.1,0.8c-8.7,0-18.7-0.1-27-0.4c0,9,0,18.6-0.2,25.5c11.1-0.2,28.8-0.4,42-0.4c8.2,0,14.7,0.1,16.8,0.2
		c1.6,6.6,1.2,26.5,0.2,29.9c0.8,0.5-20.2,0.9-42.8,0.9c-21,0-43.3-0.3-51-1.1c-1-15.8,0-112.8,1.2-139.7
		C130.2,355.2,162.2,354.7,185.9,354.7 M185.9,350.3c-24.1,0-55.9,0.4-67.3,1.2l-4,0.3l-0.2,4c-1.2,27.2-2.2,124.1-1.2,140.2
		l0.2,3.8l3.7,0.4c10.2,1,41.9,1.1,51.4,1.1c10.9,0,21.8-0.1,29.8-0.2c4.1-0.1,7.4-0.2,9.7-0.3c3.9-0.2,6.8-0.3,7.7-3.5l0.9-3.2
		l-0.4-0.2c0.8-7.5,0.8-22.7-0.7-28.8l-0.8-3.1l-3.2-0.2c-2.7-0.2-10.8-0.2-17.1-0.2c-11.7,0-26.7,0.1-37.5,0.3
		c0.1-5,0.1-10.7,0.1-16.5c7.2,0.2,15.3,0.3,22.6,0.3c5.9,0,10.9-0.1,14.4-0.2c5.7-0.2,10.1-0.4,10.1-5c0-0.1,0-0.4,0.1-1
		c1.4-28.2-0.3-29.5-2.3-31.2c-1.3-1.1-2.7-2.3-39.9-2.3c-1.7,0-3.4,0-5.1,0l-0.3-15.3c6.3,0.1,14.8,0.2,24.2,0.2
		c13.6,0,29.9-0.2,33.7-0.6l3.4-0.4l0.5-3.4c1-6.5,1.2-27.8-0.6-32.6l-0.7-1.7l-1.6-0.7C214.4,350.8,213.4,350.3,185.9,350.3"/>
	<path class="st9" d="M110.6,494.2c-1.3,0-1.3-0.1-7.3-9.1c-6.2-9.5-16.6-25.2-26.8-38.7c-0.5,0-1.1,0-1.5,0c-2.4,0-5.6-0.1-8-0.2
		c0,2.7-0.1,5.9-0.1,9.2c-0.1,13.7-0.3,29.3-0.9,33.6l-0.2,1.3l-1.2,0.5c-2.1,0.8-19,1.3-25.4,1.3c-8.3,0-10-0.2-10.3-2.4
		c-1-9.5-0.2-120.9,1.5-133.9l0.2-1.7l1.7-0.2c9.8-1.2,30.7-2.1,45.7-2.1c39.3,0,60.1,16.9,60.1,48.8c0,18.4-7.7,31.3-23,38.6
		c7.9,9.8,14.8,19.8,18.4,25.1c10.2,15.2,9.7,15.8,8.7,17.1c-2.7,3.7-25.1,12.8-31.5,12.8h0C110.8,494.2,110.6,494.2,110.6,494.2
		 M69,415.2c3.6,0.3,8.2,0.4,11.6,0.4c8.6,0,18.9-2.5,18.9-14.3c0-7.2-2.3-15.4-20-15.4c-2.8,0-6.9,0.1-10.4,0.4
		c0.1,5.1,0,15,0,22.5C69,411.2,69,413.4,69,415.2"/>
	<path class="st7" d="M78.1,354c36.8,0,57.9,14.6,57.9,46.6c0,19.9-9.4,31.6-24.3,37.8c14.6,17.6,29.5,41,29,41.8
		c-2.1,2.8-23.7,11.9-29.7,11.9c-0.1,0-0.1,0-0.2,0c-0.6,0-17.3-27-33.2-47.9c-0.8,0.2-1.7,0.2-2.5,0.2c-3.3,0-7.9-0.2-10.2-0.4
		c-0.2,13.2-0.2,39.3-1,44.9c-1.3,0.5-15.3,1.1-24.6,1.1c-4.6,0-8.1-0.1-8.2-0.5c-1-9-0.2-120,1.5-133.2
		C42.5,354.9,63.2,354,78.1,354 M80.6,417.8c12.5,0,21.1-5,21.1-16.5c0-10.7-5.6-17.6-22.2-17.6c-3.6,0-8.8,0.2-12.7,0.6
		c0.2,5.2,0,26.3,0,33C70.4,417.6,76.2,417.8,80.6,417.8 M78.1,349.5c-15.1,0-36.1,1-46,2.1l-3.4,0.4l-0.4,3.4
		c-1.7,13.1-2.5,124.9-1.5,134.3l0,0.1l0,0.1c0.7,4.2,4.4,4.2,12.5,4.2c0.2,0,23.1-0.2,26.3-1.4l2.4-1l0.4-2.6
		c0.6-4.2,0.7-17.2,0.9-33.9c0-2.4,0-4.7,0.1-6.8c1.9,0.1,4,0.1,5.8,0.1c0.1,0,0.3,0,0.4,0c9.9,13.2,19.9,28.4,26,37.6
		c1.6,2.5,3,4.5,4,6c1.7,2.6,2.8,4.1,5.3,4.1l0.2,0c6.6,0,30-9.1,33.3-13.7c2.4-3.2,0-6.7-8.7-19.7c-3.4-5-9.6-14-16.8-23.2
		c14.5-7.9,21.8-21.1,21.8-39.4C140.4,377.3,129.6,349.5,78.1,349.5 M71.3,388.4c2.9-0.2,5.9-0.2,8.2-0.2c15.7,0,17.8,6.3,17.8,13.2
		c0,12.1-12.5,12.1-16.7,12.1c-2.8,0-6.3-0.1-9.4-0.2c0-1.3,0-2.8,0-4.3C71.3,401.9,71.3,393.7,71.3,388.4"/>
	<path class="st9" d="M241.8,310c0,11.5-6.8,23.3-22.4,23.3c-13.9,0-22.5-9.8-22.5-24.4c0-11.8,7.4-23.3,22.3-23.3
		C232.8,285.7,241.8,294.9,241.8,310 M219.4,296.3c-6.7,0-10.5,5.3-10.5,13.4c0,7.3,4,13,10.2,13c7,0,10.2-5.3,10.2-13.5
		C229.3,300.5,225.2,296.3,219.4,296.3"/>
	<path class="st10" d="M241.8,310c0,11.5-6.8,23.3-22.4,23.3c-13.9,0-22.5-9.8-22.5-24.4c0-11.8,7.4-23.3,22.3-23.3
		C232.8,285.7,241.8,294.9,241.8,310z M219.4,296.3c-6.7,0-10.5,5.3-10.5,13.4c0,7.3,4,13,10.2,13c7,0,10.2-5.3,10.2-13.5
		C229.3,300.5,225.2,296.3,219.4,296.3z"/>
	<path class="st9" d="M160.3,286.7c1.5-0.4,9.1-0.5,14.3-0.5c15.2,0,24.6,9.9,24.6,23.1c0,13.6-7.3,23.4-25.1,23.4
		c-5.5,0-12.7-0.5-14.1-0.9C159.5,328,159.7,291.6,160.3,286.7 M174.7,297c-1.5,0-2.6,0.1-3.5,0.1c0.1,7.5-0.1,17.3-0.3,24.8
		c1.2,0.2,2.5,0.3,4.2,0.3c5.1,0,11.9-1.6,11.9-12.2C187,302.2,181.8,297,174.7,297"/>
	<path class="st10" d="M160.3,286.7c1.5-0.4,9.1-0.5,14.3-0.5c15.2,0,24.6,9.9,24.6,23.1c0,13.6-7.3,23.4-25.1,23.4
		c-5.5,0-12.7-0.5-14.1-0.9C159.5,328,159.7,291.6,160.3,286.7z M174.7,297c-1.5,0-2.6,0.1-3.5,0.1c0.1,7.5-0.1,17.3-0.3,24.8
		c1.2,0.2,2.5,0.3,4.2,0.3c5.1,0,11.9-1.6,11.9-12.2C187,302.2,181.8,297,174.7,297z"/>
	<path class="st9" d="M165.4,312.8c0,11.5-6.8,23.3-22.4,23.3c-13.9,0-22.5-9.8-22.5-24.4c0-11.8,7.4-23.3,22.3-23.3
		C156.4,288.4,165.4,297.6,165.4,312.8 M142.9,299c-6.7,0-10.5,5.3-10.5,13.4c0,7.3,4,13,10.2,13c7,0,10.2-5.3,10.2-13.5
		C152.9,303.2,148.7,299,142.9,299"/>
	<path class="st10" d="M165.4,312.8c0,11.5-6.8,23.3-22.4,23.3c-13.9,0-22.5-9.8-22.5-24.4c0-11.8,7.4-23.3,22.3-23.3
		C156.4,288.4,165.4,297.6,165.4,312.8z M142.9,299c-6.7,0-10.5,5.3-10.5,13.4c0,7.3,4,13,10.2,13c7,0,10.2-5.3,10.2-13.5
		C152.9,303.2,148.7,299,142.9,299z"/>
	<path class="st9" d="M97,290.7c0.8-0.5,31.3-1.2,34.4-0.7c0.9,0.3,0.8,9.9,0.4,10c-1.4,0.2-6.1,0.3-11.5,0.5
		c0.1,12.6,0.2,32.4-0.1,35c-0.4,0.5-11.3,0.8-11.4,0.3c-0.3-3.6-0.3-23.7-0.2-35.4c-4.2,0.1-9.6,0.1-11.3-0.1
		C96.6,298.3,96.6,291.1,97,290.7"/>
	<path class="st10" d="M97,290.7c0.8-0.5,31.3-1.2,34.4-0.7c0.9,0.3,0.8,9.9,0.4,10c-1.4,0.2-6.1,0.3-11.5,0.5
		c0.1,12.6,0.2,32.4-0.1,35c-0.4,0.5-11.3,0.8-11.4,0.3c-0.3-3.6-0.3-23.7-0.2-35.4c-4.2,0.1-9.6,0.1-11.3-0.1
		C96.6,298.3,96.6,291.1,97,290.7z"/>
</g>
</svg>
