<?xml version="1.0" encoding="utf-8"?>
<!-- Generator: Adobe Illustrator 22.0.1, SVG Export Plug-In . SVG Version: 6.00 Build 0)  -->
<svg version="1.1" id="Layer_1" xmlns="http://www.w3.org/2000/svg" xmlns:xlink="http://www.w3.org/1999/xlink" x="0px" y="0px"
	 viewBox="0 0 290 325" style="enable-background:new 0 0 290 325;" xml:space="preserve">
<style type="text/css">
	.st0{clip-path:url(#SVGID_2_);fill:url(#SVGID_3_);}
	.st1{clip-path:url(#SVGID_5_);fill:#603913;}
	.st2{clip-path:url(#SVGID_5_);fill:url(#SVGID_6_);}
	.st3{fill:#754C29;}
	.st4{fill:#BF956C;}
	.st5{fill:none;stroke:#826059;stroke-miterlimit:10;}
	.st6{fill:#2F8087;}
	.st7{fill:#EC5A29;}
	.st8{fill:#FFFFFF;}
	.st9{fill:none;stroke:#2F8087;stroke-width:0.5;stroke-miterlimit:10;}
</style>
<g>
	<defs>
		<path id="SVGID_1_" d="M190.6,14.4c0,3.8,20.5,6.9,45.7,6.9c25.2,0,45.7-3.1,45.7-6.9s-20.5-6.9-45.7-6.9
			C211.1,7.5,190.6,10.6,190.6,14.4"/>
	</defs>
	<clipPath id="SVGID_2_">
		<use xlink:href="#SVGID_1_"  style="overflow:visible;"/>
	</clipPath>
	
		<linearGradient id="SVGID_3_" gradientUnits="userSpaceOnUse" x1="134.8369" y1="2119.9189" x2="135.8369" y2="2119.9189" gradientTransform="matrix(-91.3861 0 0 91.3861 12604.251 -193716.6875)">
		<stop  offset="0" style="stop-color:#E29D53"/>
		<stop  offset="1.153710e-02" style="stop-color:#E29D53"/>
		<stop  offset="1" style="stop-color:#EDD692"/>
	</linearGradient>
	<rect x="190.6" y="7.5" class="st0" width="91.4" height="13.8"/>
</g>
<g>
	<g>
		<defs>
			<rect id="SVGID_4_" x="199.2" y="8.4" width="74.2" height="12.1"/>
		</defs>
		<clipPath id="SVGID_5_">
			<use xlink:href="#SVGID_4_"  style="overflow:visible;"/>
		</clipPath>
		<path class="st1" d="M199.7,14.4c0-3.1,16.4-5.5,36.6-5.5c20.2,0,36.6,2.5,36.6,5.5c0,3.1-16.4,5.5-36.6,5.5
			C216.1,20,199.7,17.5,199.7,14.4"/>
		
			<linearGradient id="SVGID_6_" gradientUnits="userSpaceOnUse" x1="135.2632" y1="2120.1331" x2="136.2634" y2="2120.1331" gradientTransform="matrix(-74.2185 0 0 74.2185 10312.5195 -157338.6719)">
			<stop  offset="0" style="stop-color:#E29D53"/>
			<stop  offset="1.153710e-02" style="stop-color:#E29D53"/>
			<stop  offset="1" style="stop-color:#EDD692"/>
		</linearGradient>
		<path class="st2" d="M199.7,14.4L199.7,14.4c0-3.1,16.4-5.5,36.6-5.5c20.2,0,36.6,2.5,36.6,5.5c0,3.1-16.4,5.5-36.6,5.5
			C216.1,20,199.7,17.5,199.7,14.4L199.7,14.4L199.7,14.4c0,3.1,16.4,5.5,36.6,5.5c20.2,0,36.6-2.5,36.6-5.5
			c0-3.1-16.4-5.5-36.6-5.5C216.1,8.9,199.7,11.4,199.7,14.4L199.7,14.4z"/>
	</g>
</g>
<path class="st3" d="M210.5,168.4c0,1.4,0.5,2.7,1.4,3.6v19.3c-0.8,1-1.4,2.2-1.4,3.6c0,1.4,0.5,2.7,1.4,3.6v17.7
	c0,3.1,2.5,5.6,5.6,5.6c3.1,0,5.6-2.5,5.6-5.6v-15.8h28.3v15.8c0,3.1,2.5,5.6,5.6,5.6c3.1,0,5.6-2.5,5.6-5.6v-17.7
	c0.8-1,1.4-2.2,1.4-3.6c0-1.4-0.5-2.7-1.4-3.6V172c0.8-1,1.4-2.2,1.4-3.6c0-1.4-0.5-2.7-1.4-3.6v-19.3c0.8-1,1.4-2.2,1.4-3.6
	c0-1.4-0.5-2.7-1.4-3.6v-19.3c0.8-1,1.4-2.2,1.4-3.6c0-1.4-0.5-2.7-1.4-3.6V92.3c0.8-1,1.4-2.2,1.4-3.6c0-1.4-0.5-2.7-1.4-3.6V65.7
	c0.8-1,1.4-2.2,1.4-3.6c0-1.4-0.5-2.7-1.4-3.6V39.1c0.8-1,1.4-2.2,1.4-3.6c0-1.4-0.5-2.7-1.4-3.6V11c-3.5-0.7-8-1.2-11.1-0.9v19.8
	H223V10c-4.5-0.1-7.5,0.5-11.1,1v20.8c-0.8,1-1.4,2.2-1.4,3.6c0,1.4,0.5,2.7,1.4,3.6v19.3c-0.8,1-1.4,2.2-1.4,3.6
	c0,1.4,0.5,2.7,1.4,3.6V85c-0.8,1-1.4,2.2-1.4,3.6c0,1.4,0.5,2.7,1.4,3.6v19.3c-0.8,1-1.4,2.2-1.4,3.6c0,1.4,0.5,2.7,1.4,3.6v19.3
	c-0.8,1-1.4,2.2-1.4,3.6c0,1.4,0.5,2.7,1.4,3.6v19.3C211.1,165.8,210.5,167,210.5,168.4 M251.3,83.1H223V67.6h28.3V83.1z
	 M251.3,109.7H223V94.2h28.3V109.7z M251.3,136.3H223v-15.5h28.3V136.3z M251.3,162.9H223v-15.5h28.3V162.9z M223,174h28.3v15.5H223
	V174z M251.3,56.5H223V41h28.3V56.5z"/>
<path class="st4" d="M222.7,196.6L222.7,196.6c0-0.5,0.4-1,1-1h27.1c0.5,0,1,0.4,1,1c0,0.5-0.4,1-1,1h-27.1
	C223.1,197.6,222.7,197.1,222.7,196.6"/>
<path class="st5" d="M222.7,196.6L222.7,196.6c0-0.5,0.4-1,1-1h27.1c0.5,0,1,0.4,1,1c0,0.5-0.4,1-1,1h-27.1
	C223.1,197.6,222.7,197.1,222.7,196.6z"/>
<path class="st4" d="M222.7,170.2L222.7,170.2c0-0.5,0.4-1,1-1h27.1c0.5,0,1,0.4,1,1c0,0.5-0.4,1-1,1h-27.1
	C223.1,171.2,222.7,170.7,222.7,170.2"/>
<path class="st5" d="M222.7,170.2L222.7,170.2c0-0.5,0.4-1,1-1h27.1c0.5,0,1,0.4,1,1c0,0.5-0.4,1-1,1h-27.1
	C223.1,171.2,222.7,170.7,222.7,170.2z"/>
<path class="st4" d="M222.7,143.8L222.7,143.8c0-0.5,0.4-1,1-1h27.1c0.5,0,1,0.4,1,1c0,0.5-0.4,1-1,1h-27.1
	C223.1,144.8,222.7,144.3,222.7,143.8"/>
<path class="st5" d="M222.7,143.8L222.7,143.8c0-0.5,0.4-1,1-1h27.1c0.5,0,1,0.4,1,1c0,0.5-0.4,1-1,1h-27.1
	C223.1,144.8,222.7,144.3,222.7,143.8z"/>
<path class="st4" d="M222.7,117.4L222.7,117.4c0-0.5,0.4-1,1-1h27.1c0.5,0,1,0.4,1,1c0,0.5-0.4,1-1,1h-27.1
	C223.1,118.4,222.7,118,222.7,117.4"/>
<path class="st5" d="M222.7,117.4L222.7,117.4c0-0.5,0.4-1,1-1h27.1c0.5,0,1,0.4,1,1c0,0.5-0.4,1-1,1h-27.1
	C223.1,118.4,222.7,118,222.7,117.4z"/>
<path class="st4" d="M222.7,91L222.7,91c0-0.5,0.4-1,1-1h27.1c0.5,0,1,0.4,1,1c0,0.5-0.4,1-1,1h-27.1C223.1,92,222.7,91.6,222.7,91"
	/>
<path class="st5" d="M222.7,91L222.7,91c0-0.5,0.4-1,1-1h27.1c0.5,0,1,0.4,1,1c0,0.5-0.4,1-1,1h-27.1C223.1,92,222.7,91.6,222.7,91z
	"/>
<path class="st4" d="M222.7,64.6L222.7,64.6c0-0.5,0.4-1,1-1h27.1c0.5,0,1,0.4,1,1c0,0.5-0.4,1-1,1h-27.1
	C223.1,65.6,222.7,65.2,222.7,64.6"/>
<path class="st5" d="M222.7,64.6L222.7,64.6c0-0.5,0.4-1,1-1h27.1c0.5,0,1,0.4,1,1c0,0.5-0.4,1-1,1h-27.1
	C223.1,65.6,222.7,65.2,222.7,64.6z"/>
<path class="st4" d="M222.7,38.2L222.7,38.2c0-0.5,0.4-1,1-1h27.1c0.5,0,1,0.4,1,1c0,0.5-0.4,1-1,1h-27.1
	C223.1,39.2,222.7,38.8,222.7,38.2"/>
<path class="st5" d="M222.7,38.2L222.7,38.2c0-0.5,0.4-1,1-1h27.1c0.5,0,1,0.4,1,1c0,0.5-0.4,1-1,1h-27.1
	C223.1,39.2,222.7,38.8,222.7,38.2z"/>
<path class="st3" d="M210.5,221c0,1.4,0.5,2.7,1.4,3.6v19.3c-0.8,1-1.4,2.2-1.4,3.6c0,1.4,0.5,2.7,1.4,3.6v17.7
	c0,3.1,2.5,5.6,5.6,5.6c3.1,0,5.6-2.5,5.6-5.6v-15.8h28.3v15.8c0,3.1,2.5,5.6,5.6,5.6c3.1,0,5.6-2.5,5.6-5.6v-17.7
	c0.8-1,1.4-2.2,1.4-3.6c0-1.4-0.5-2.7-1.4-3.6v-19.3c0.8-1,1.4-2.2,1.4-3.6c0-1.4-0.5-2.7-1.4-3.6V198c0.8-1,1.4-2.2,1.4-3.6
	c0-1.4-0.5-2.7-1.4-3.6v-19.3c0.8-1,1.4-2.2,1.4-3.6c0-1.4-0.5-2.7-1.4-3.6v-19.3c0.8-1,1.4-2.2,1.4-3.6c0-1.4-0.5-2.7-1.4-3.6
	v-19.3c0.8-1,1.4-2.2,1.4-3.6c0-1.4-0.5-2.7-1.4-3.6V91.6c0.8-1,1.4-2.2,1.4-3.6c0-1.4-0.5-2.7-1.4-3.6V63.5
	c-3.5-0.7-8-1.2-11.1-0.9v19.8H223V62.5c-4.5-0.1-7.5,0.5-11.1,1v20.8c-0.8,1-1.4,2.2-1.4,3.6c0,1.4,0.5,2.7,1.4,3.6v19.3
	c-0.8,1-1.4,2.2-1.4,3.6c0,1.4,0.5,2.7,1.4,3.6v19.3c-0.8,1-1.4,2.2-1.4,3.6c0,1.4,0.5,2.7,1.4,3.6v19.3c-0.8,1-1.4,2.2-1.4,3.6
	c0,1.4,0.5,2.7,1.4,3.6v19.3c-0.8,1-1.4,2.2-1.4,3.6c0,1.4,0.5,2.7,1.4,3.6v19.3C211.1,218.3,210.5,219.6,210.5,221 M251.3,135.6
	H223v-15.5h28.3V135.6z M251.3,162.2H223v-15.5h28.3V162.2z M251.3,188.8H223v-15.5h28.3V188.8z M251.3,215.4H223v-15.5h28.3V215.4z
	 M223,226.5h28.3V242H223V226.5z M251.3,109H223V93.5h28.3V109z"/>
<path class="st4" d="M222.7,249.2L222.7,249.2c0-0.5,0.4-1,1-1h27.1c0.5,0,1,0.4,1,1c0,0.5-0.4,1-1,1h-27.1
	C223.1,250.1,222.7,249.7,222.7,249.2"/>
<path class="st5" d="M222.7,249.2L222.7,249.2c0-0.5,0.4-1,1-1h27.1c0.5,0,1,0.4,1,1c0,0.5-0.4,1-1,1h-27.1
	C223.1,250.1,222.7,249.7,222.7,249.2z"/>
<path class="st4" d="M222.7,222.8L222.7,222.8c0-0.5,0.4-1,1-1h27.1c0.5,0,1,0.4,1,1c0,0.5-0.4,1-1,1h-27.1
	C223.1,223.7,222.7,223.3,222.7,222.8"/>
<path class="st5" d="M222.7,222.8L222.7,222.8c0-0.5,0.4-1,1-1h27.1c0.5,0,1,0.4,1,1c0,0.5-0.4,1-1,1h-27.1
	C223.1,223.7,222.7,223.3,222.7,222.8z"/>
<path class="st4" d="M222.7,196.4L222.7,196.4c0-0.5,0.4-1,1-1h27.1c0.5,0,1,0.4,1,1c0,0.5-0.4,1-1,1h-27.1
	C223.1,197.3,222.7,196.9,222.7,196.4"/>
<path class="st5" d="M222.7,196.4L222.7,196.4c0-0.5,0.4-1,1-1h27.1c0.5,0,1,0.4,1,1c0,0.5-0.4,1-1,1h-27.1
	C223.1,197.3,222.7,196.9,222.7,196.4z"/>
<path class="st4" d="M222.7,170L222.7,170c0-0.5,0.4-1,1-1h27.1c0.5,0,1,0.4,1,1c0,0.5-0.4,1-1,1h-27.1
	C223.1,170.9,222.7,170.5,222.7,170"/>
<path class="st5" d="M222.7,170L222.7,170c0-0.5,0.4-1,1-1h27.1c0.5,0,1,0.4,1,1c0,0.5-0.4,1-1,1h-27.1
	C223.1,170.9,222.7,170.5,222.7,170z"/>
<path class="st4" d="M222.7,143.6L222.7,143.6c0-0.5,0.4-1,1-1h27.1c0.5,0,1,0.4,1,1c0,0.5-0.4,1-1,1h-27.1
	C223.1,144.5,222.7,144.1,222.7,143.6"/>
<path class="st5" d="M222.7,143.6L222.7,143.6c0-0.5,0.4-1,1-1h27.1c0.5,0,1,0.4,1,1c0,0.5-0.4,1-1,1h-27.1
	C223.1,144.5,222.7,144.1,222.7,143.6z"/>
<path class="st4" d="M222.7,117.2L222.7,117.2c0-0.5,0.4-1,1-1h27.1c0.5,0,1,0.4,1,1c0,0.5-0.4,1-1,1h-27.1
	C223.1,118.1,222.7,117.7,222.7,117.2"/>
<path class="st5" d="M222.7,117.2L222.7,117.2c0-0.5,0.4-1,1-1h27.1c0.5,0,1,0.4,1,1c0,0.5-0.4,1-1,1h-27.1
	C223.1,118.1,222.7,117.7,222.7,117.2z"/>
<path class="st4" d="M222.7,90.8L222.7,90.8c0-0.5,0.4-1,1-1h27.1c0.5,0,1,0.4,1,1c0,0.5-0.4,1-1,1h-27.1
	C223.1,91.7,222.7,91.3,222.7,90.8"/>
<path class="st5" d="M222.7,90.8L222.7,90.8c0-0.5,0.4-1,1-1h27.1c0.5,0,1,0.4,1,1c0,0.5-0.4,1-1,1h-27.1
	C223.1,91.7,222.7,91.3,222.7,90.8z"/>
<polygon class="st6" points="64.9,232.2 73.1,240.3 144.1,240.3 122.9,213.3 113.8,212.1 103.3,217.6 96.8,212.1 90.5,212.1 
	87.9,217.3 80.3,213 70.9,214.1 63,214.1 59.7,216.1 "/>
<path class="st7" d="M272.8,258.5l3.3-0.4l0.5-3.3c0.4-2.5,0.7-12.8-0.4-15.8l-0.6-1.6l-1.6-0.7c-1-0.5-1.4-0.6-14.3-0.6
	c-6,0-13.1,0.1-19.1,0.2c-0.5-0.4-1.1-0.8-1.8-1l-0.3-0.1l-0.3,0c-0.8-0.1-2.5-0.3-8.8-0.3h0c-6.7,0-16.9,0.2-26,0.4
	c-6,0.2-9.8,0.3-12.4,0.5c-2.7-0.4-5.6-0.6-8.5-0.6c-5.1,0-9.5,0.9-13.2,2.4c0.1-9.5,0-20.4-0.7-22.4l-0.6-1.7l-1.6-0.8
	c-0.8-0.4-1.5-0.7-10.9-0.7c-3.6,0-8.4,0.1-10.5,0.5l-3,0.5l-0.5,3c-0.5,3-0.6,12.6-0.6,21.2c-4-0.9-8.4-1.4-12.9-1.4
	c-6.1,0-11.2,1.2-15.3,3.2c-1.4-0.2-4.5-0.3-13-0.3c-10.9,0-25.4,0.2-30.5,0.5l-3.9,0.2l0,0.9c-4.9-1.6-10.1-2.1-14.2-2.1
	c-7,0-16.4,0.4-21,1l-3.4,0.4l-0.4,3.3c-0.8,6.3-1.2,56.7-0.7,61.2l0,0.1l0,0.1c0.6,3.9,4.4,3.9,8,3.9c1.1,0,10.8,0,12.7-0.8
	l2.3-0.9l0.3-2.5c0.3-2,0.3-7.7,0.4-15.4c4,5.4,7.8,11.3,10.3,15c2.6,4,3.5,5.2,5.1,5.5l0.1,1.3l3.7,0.4c4.7,0.5,19.1,0.5,23.4,0.5
	c4.9,0,9.9,0,13.5-0.1c1.9,0,3.4-0.1,4.4-0.1c1.3-0.1,3.1-0.2,4.4-1.3c3.6,0.9,7.6,1.5,11.8,1.5c5.8,0,11.1-1,15.5-2.9
	c0.9,3.1,3.9,3.3,7.1,3.4c2.1,0.1,4.6,0.2,7,0.2c8.4,0,11.3-0.4,12.6-3.2l0.3-0.6l0-0.3c3.6,0.9,7.7,1.6,12,1.6
	c7.8,0,14.5-1.8,19.7-5.3c0,0.9,0.1,1.7,0.1,2.2l0,0.1l0,0.1c0.5,4.3,4.9,4.3,9.1,4.3c13.1,0,14.1-1.2,15.1-2.3l0.7-0.8l3.3,0.3
	c4.7,0.5,19,0.5,23.3,0.5c4.9,0,9.8,0,13.4-0.1c1.9,0,3.3-0.1,4.4-0.1c1.9-0.1,4.7-0.2,5.6-3.3l0.9-3.1l-0.5-0.3
	c0.2-3.9,0.1-9.7-0.5-12.2l-0.7-3.1l-3.2-0.2c-1-0.1-3.7-0.1-7.9-0.1c-4.5,0-9.9,0-14.5,0.1c0-0.9,0-1.7,0-2.6
	c2.6,0,5.3,0.1,7.8,0.1c2.7,0,4.9,0,6.6-0.1c0.9,0,1.7-0.1,2.2-0.1c4.2-0.4,4.6-3.5,4.6-4.4l0-0.5c0.6-12.7,0-14.4-1.9-15.9
	c-1.3-1-1.8-1.5-19.4-1.5l0-2.1c2.4,0,5.3,0.1,8.5,0.1C262.2,258.7,270.7,258.7,272.8,258.5"/>
<path class="st6" d="M272.6,241.4l-0.1-0.2l-0.2-0.1c-0.2-0.1-0.7-0.3-12.7-0.3c-6.7,0-14.8,0.1-21.2,0.2c-0.2-0.7-0.5-1.1-0.8-1.2
	c-1-0.1-3.7-0.2-8.2-0.2c-9.7,0-30.1,0.4-38.5,0.9c-2.6-0.4-5.4-0.7-8.5-0.7c-6.1,0-12.4,1.7-17.1,5.2c0.3-10,0.2-26.2-0.4-27.8
	L165,217l-0.2-0.1c-0.7-0.3-9.2-0.3-9.3-0.3c-2.3,0-7.8,0-9.8,0.4l-0.3,0.1l-0.1,0.3c-0.6,3.2-0.6,16.3-0.5,25.7
	c-4.2-1.6-10-2.8-16.8-2.8c-5.3,0-10.7,1.2-15.2,3.8c0-0.1-0.1-0.2-0.1-0.3l-0.1-0.2l-0.2-0.1c-0.2-0.1-0.7-0.3-12.7-0.3
	c-10.9,0-25.2,0.2-30.3,0.5l-0.4,0l0,0.4c0,0.7-0.1,1.6-0.1,2.6c-4.3-2.6-10.3-3.9-17.8-3.9c-6.8,0-16.2,0.4-20.6,1l-0.4,0l0,0.4
	c-0.8,5.9-1.1,56.1-0.7,60.3c0.1,0.5,0.1,0.7,4.2,0.7c3.4,0,10.5-0.2,11.3-0.5l0.3-0.1l0-0.3c0.3-1.9,0.3-8.9,0.4-15.1
	c0-1.7,0-3.3,0-4.7c1.1,0.1,2.8,0.1,4.1,0.1c0.3,0,0.6,0,0.9,0c4.7,6.2,9.4,13.4,12.3,17.7c2.6,3.9,2.5,3.9,2.9,3.9l0.1,0
	c0.6,0,1.4-0.2,2.5-0.5c0,0.7,0,1.2,0.1,1.6l0,0.4l0.4,0c4.5,0.5,18.8,0.5,23,0.5c19.6,0,19.7-0.3,19.8-0.7l0.1-0.4l0,0
	c0.1-0.3,0.1-0.7,0.1-1.2c4,1.3,8.9,2.3,14.1,2.3c8.3,0,14.6-2.1,18.9-5.4c0.1,2.4,0.1,4.3,0.2,5.2c0.1,0.3,0.2,0.9,10.5,0.9
	c8.7,0,9-0.7,9.2-1.1l0-0.1c0.1-0.7,0.2-2.1,0.3-4.1c4.2,1.6,9.6,2.8,15.4,2.8c12,0,19.6-4.5,23.3-10.5c0.1,5.3,0.2,9.3,0.3,10.9
	c0.1,0.5,0.1,0.9,5.3,0.9c0.1,0,11.4-0.1,12.1-1l0.1-0.1l0-0.2c0.4-3.5,0.2-28.3,0.1-46.3l0-4.2l3.7-0.1c1.1,0,2.1-0.1,3.1-0.1
	c-0.3,17.7-0.5,43.4-0.2,48.8l0,0.4l0.4,0c4.5,0.5,18.7,0.5,22.9,0.5c19.5,0,19.6-0.3,19.7-0.7l0.1-0.4l0,0
	c0.4-2.4,0.5-10.5-0.2-13.3l-0.1-0.4l-0.4,0c-1.1-0.1-4.8-0.1-7.6-0.1c-5.8,0-13.4,0.1-18.4,0.2c0.1-2.9,0.1-6.7,0.1-10.4
	c3.6,0.1,7.8,0.2,11.6,0.2c9.5,0,9.5-0.3,9.5-0.9c0,0,0-0.2,0-0.5c0.6-11.9-0.1-12.5-0.5-12.8c-0.7-0.6-12.1-0.7-17-0.7
	c-1.3,0-2.5,0-3.7,0l-0.2-9.9c2.9,0.1,7.3,0.1,12.4,0.1c6.2,0,13.4-0.1,15-0.3l0.4,0l0.1-0.4C273.2,252.3,273.3,243.1,272.6,241.4
	 M68.3,283.2c-0.5-0.6-0.9-1.1-1.3-1.6c0.4-0.2,0.9-0.4,1.3-0.6C68.3,281.8,68.3,282.5,68.3,283.2 M187.5,255.4l0.1,0.3l0.3,0
	c0.5,0.1,1.3,0.1,2.3,0.1c2.6,0.6,5.3,1.6,8.1,2.9l0.3,0.1l0.2,0c0.6,0,1.5-1.4,2.3-3.1c1,0,1.9,0,2.8,0c-0.1,5.8-0.1,12.8-0.1,19.7
	c-3.9-5.8-11.2-8.4-18.4-10c-8.7-2-10.1-3.3-10.1-5.8c0-3,2.8-4.7,7.6-4.7C184.4,254.9,185.9,255.1,187.5,255.4
	C187.5,255.3,187.5,255.4,187.5,255.4 M165.6,275.9c2.9,2,6.8,3.5,11.6,4.5c9.3,1.9,11.2,4,11.2,6.6c0,3.4-2.8,5.1-8.4,5.1
	c-5.9,0-11.3-2.9-14.4-4.8C165.6,283.5,165.6,279.6,165.6,275.9 M144.8,271.9c-4-2.7-8.9-4.2-13.9-5.4c-8.9-2-10.3-3.4-10.3-6
	c0-3.1,2.8-4.8,7.7-4.8c4.9,0,10.2,1.3,15.7,3.9l0.3,0.1l0.2,0c0.2,0,0.4-0.2,0.7-0.5l0,0C145.1,261.4,144.9,266.1,144.8,271.9
	 M145.7,258.9L145.7,258.9c0.9-1.2,2-3.6,2.9-5.7c1.5,0.1,3.8,0.1,7.1,0.1c1.4,0,2.5,0,3.5,0c-0.6,1.6-0.9,3.3-1.1,5.1
	c-1.4,0-2.4,0-2.6,0C153.2,258.4,147.7,258.4,145.7,258.9 M107.4,287.7c-0.7,0.8-1.7,3.1-2.7,5.5c-0.4,0-0.7,0-1.1,0
	c-5.9,0-13.5,0.1-18.5,0.2c0.1-3,0.1-6.8,0.1-10.5c3.6,0.1,7.9,0.2,11.7,0.2c9.6,0,9.6-0.3,9.6-0.9c0,0,0-0.2,0-0.5
	c0.2-3.8,0.2-6.5,0.2-8.3c3.1,4.1,8.3,6.8,15.8,8.3c9.5,1.9,11.5,4.1,11.5,6.7c0,3.5-2.9,5.2-8.6,5.2c-7,0-13.3-4.1-16.1-5.8
	c-0.3-0.2-0.6-0.4-0.9-0.5l-0.2-0.1h-0.1C107.9,287.2,107.6,287.5,107.4,287.7 M104.2,268.6c-3.6-0.3-11.4-0.4-15.2-0.4
	c-1.3,0-2.6,0-3.8,0l-0.2-10c2.9,0.1,7.4,0.1,12.4,0.1c1.9,0,3.8,0,5.7,0c-0.1,0.8-0.1,1.5-0.1,2.3
	C103,263.6,103.4,266.3,104.2,268.6 M52.2,271.7c-1.7,0-4.1-0.1-5.7-0.2c0-0.8,0-2,0-3.4c0-3.7,0-8.5,0-10.6
	c1.7-0.1,3.8-0.2,5.2-0.2c6.6,0,9.5,2.3,9.5,7.5C61.2,270.5,56.3,271.7,52.2,271.7"/>
<path class="st8" d="M251.9,303c-4.2,0-18.5,0-23-0.5l-0.8-0.1l-0.1-0.8c-0.5-7.2,0-50.7,0.5-62.8l0-0.9l0.9-0.1
	c5.1-0.3,19.3-0.5,30.2-0.5c12.1,0,12.6,0.2,12.9,0.3l0.4,0.2l0.1,0.4c0.8,2,0.6,11.5,0.2,14.1l-0.1,0.8l-0.8,0.1
	c-1.7,0.2-8.9,0.3-15,0.3c-4.8,0-9,0-11.9-0.1l0.1,8.9c1,0,2.1,0,3.2,0c16.3,0,17,0.6,17.3,0.8c0.5,0.4,1.3,1,0.7,13.2
	c0,0.3,0,0.5,0,0.5c0,1.1,0,1.4-10,1.4c-3.6,0-7.7-0.1-11.1-0.2c0,3.3,0,6.7-0.1,9.4c4.9-0.1,12.2-0.2,17.9-0.2c2.8,0,6.5,0,7.6,0.1
	l0.7,0.1l0.2,0.7c0.7,2.7,0.6,10.4,0.2,13.2l0.1,0l-0.2,0.7C271.9,302.8,271.8,303,251.9,303"/>
<path class="st6" d="M259.7,238.3c6.8,0,12.1,0.1,12.5,0.3c0.6,1.6,0.6,10.7,0.2,13.6c-1.5,0.2-8.1,0.3-14.9,0.3
	c-4.9,0-9.8,0-12.9-0.2l0.2,10.9c1.3,0,2.7,0,4.2,0c7.5,0,16.2,0.2,16.7,0.6c1,0.8,0.3,12.5,0.3,12.9c0,0.3-4,0.4-9,0.4
	c-3.9,0-8.4-0.1-12.1-0.2c0,4,0,8.3-0.1,11.5c5-0.1,12.9-0.2,18.9-0.2c3.7,0,6.6,0,7.6,0.1c0.7,3,0.5,11.9,0.1,13.4
	c0.4,0.2-9.1,0.4-19.2,0.4c-9.4,0-19.4-0.1-22.9-0.5c-0.4-7.1,0-50.6,0.5-62.7C234.6,238.5,249,238.3,259.7,238.3 M259.7,236.3
	c-10.8,0-25.1,0.2-30.2,0.5l-1.8,0.1l-0.1,1.8c-0.5,12.2-1,55.7-0.5,62.9l0.1,1.7l1.7,0.2c4.6,0.5,18.8,0.5,23.1,0.5
	c4.9,0,9.8,0,13.4-0.1c1.8,0,3.3-0.1,4.3-0.1c1.8-0.1,3-0.1,3.5-1.6l0.4-1.4l-0.2-0.1c0.3-3.3,0.3-10.2-0.3-12.9l-0.3-1.4l-1.5-0.1
	c-1.2-0.1-4.8-0.1-7.7-0.1c-5.3,0-12,0.1-16.8,0.1c0-2.2,0-4.8,0-7.4c3.2,0.1,6.9,0.1,10.1,0.1c2.6,0,4.9,0,6.5-0.1
	c2.5-0.1,4.6-0.2,4.6-2.3c0,0,0-0.2,0-0.5c0.6-12.6-0.1-13.3-1-14c-0.6-0.5-1.2-1-17.9-1c-0.8,0-1.5,0-2.3,0l-0.1-6.9
	c2.8,0.1,6.6,0.1,10.8,0.1c6.1,0,13.4-0.1,15.1-0.3l1.5-0.2l0.2-1.5c0.4-2.9,0.6-12.5-0.3-14.6l-0.3-0.8l-0.7-0.3
	C272.5,236.5,272,236.3,259.7,236.3"/>
<path class="st8" d="M209.6,305.3c-4.9,0-5.7-0.3-5.8-1.3c-0.4-5.1-0.5-32.9-0.3-50.6c-2.8,0-5.9,0.1-8.6,0.1c-3.6,0-5.8-0.1-7-0.2
	l-0.7-0.1l-0.2-0.6c-1-3.4-0.8-14.1-0.2-14.9l0.1-0.1l0.2-0.1c1.5-0.8,33-1.4,42.4-1.4c4.5,0,7.3,0.1,8.3,0.2l0.1,0l0.1,0
	c2.5,0.7,1.7,13.4,1.7,13.5c-0.1,1.7-0.2,2.8-1.2,2.9c-1.7,0.2-6.6,0.4-12.7,0.6l-3.2,0.1l0,3.7c0.1,18.1,0.2,42.9-0.1,46.4l0,0.3
	l-0.2,0.2C221.1,305.3,210.7,305.3,209.6,305.3"/>
<path class="st6" d="M229.5,237.1c4.1,0,7.1,0.1,8.1,0.2c1.3,0.4,1.2,14.4,0.6,14.5c-2,0.3-8.8,0.5-16.8,0.8
	c0.1,18.3,0.3,47.2-0.1,51c-0.4,0.4-7,0.8-11.8,0.8c-2.7,0-4.8-0.1-4.8-0.4c-0.4-5.2-0.5-34.5-0.3-51.5c-3.1,0-6.6,0.1-9.6,0.1
	c-3,0-5.6,0-6.9-0.2c-0.9-2.8-0.9-13.4-0.4-13.9C188.6,237.8,215.4,237.1,229.5,237.1 M229.5,235.1L229.5,235.1
	c-6.6,0-16.8,0.2-25.9,0.4c-15.8,0.5-16.4,0.8-16.9,1.1l-0.3,0.2l-0.2,0.3c-0.4,0.5-0.9,1-0.8,7.4c0,1.8,0.2,6.3,0.8,8.4l0.4,1.3
	l1.3,0.2c1.2,0.1,3.5,0.2,7.1,0.2c2.4,0,5.1,0,7.6-0.1c-0.2,17.8-0.1,44.7,0.3,49.7l0,0l0,0c0.2,2.2,2.7,2.2,6.8,2.2
	c2.4,0,5.3-0.1,7.7-0.3c4.4-0.3,5-0.6,5.6-1.3l0.4-0.5l0.1-0.6c0.4-3.6,0.2-27.4,0.1-46.6l0-2.7c0.7,0,1.5-0.1,2.2-0.1
	c6.4-0.2,11.1-0.4,12.8-0.6c1.8-0.3,2-2.2,2.1-3.9c0.1-2.1,0.2-5.3,0-7.8c-0.3-4.7-0.8-6.2-2.4-6.7l-0.1,0l-0.1,0
	C237.5,235.2,236.3,235.1,229.5,235.1"/>
<path class="st8" d="M180.6,304c-10.4,0-19.6-4-23.2-6.7l-0.3-0.2l-0.1-0.4c-0.4-2.2,3.4-11.8,4.9-13.6c0.1-0.2,0.6-0.7,1.2-0.7h0.2
	l0.3,0.1l0.1,0c0.2,0.1,0.5,0.3,0.8,0.5c2.6,1.7,8.7,5.6,15.5,5.6c5.2,0,7.9-1.5,7.9-4.6c0-1.9-0.8-4-10.8-6.1
	c-13.5-2.8-19.5-9.3-19.5-21.1c0-14.1,13-20.5,25-20.5c10.4,0,18.6,2.8,22.1,5.6c0.8,0.6,0.7,1.8-0.2,4.5c0,0.1-3.6,10.1-5.7,10.1
	l-0.3,0l-0.4-0.2c-5.3-2.5-10.4-3.8-15.2-3.8c-4.5,0-7.1,1.5-7.1,4.2c0,2,0.7,3.3,9.7,5.4c10.8,2.5,21.8,7,21.8,21.1
	C207.3,293.5,199.1,304,180.6,304"/>
<path class="st6" d="M182.6,237.3c9.7,0,17.9,2.6,21.5,5.4c1.2,0.9-4.3,12.7-5.2,12.7c0,0,0,0,0,0c-1.4-0.6-8.1-4-15.9-4
	c-5.5,0-8.1,2.2-8.1,5.2c0,2.8,1.6,4.3,10.5,6.3c11.8,2.8,21,7.5,21,20.1c0,9.7-7.8,19.9-25.7,19.9c-10.3,0-19.3-4-22.6-6.5
	c-0.4-1.8,4-13.1,5.1-13.1c0,0,0,0,0.1,0c2.1,1.3,9,6.2,16.8,6.2c5.4,0,8.9-1.6,8.9-5.6c0-2.9-2.2-5.1-11.6-7.1
	c-12-2.5-18.7-8.1-18.7-20.1C158.5,246.4,167.1,237.3,182.6,237.3 M182.6,235.3c-17.9,0-26,11.2-26,21.5c0,12.2,6.5,19.2,20.3,22
	c10,2,10,4.1,10,5.1c0,0.9,0,3.6-6.9,3.6c-6.4,0-12.4-3.8-14.9-5.4c-0.3-0.2-0.6-0.4-0.8-0.5l-0.1-0.1l-0.1,0
	c-0.3-0.1-0.6-0.2-0.9-0.2c-0.7,0-1.4,0.4-2,1c-1.3,1.5-2.9,5.8-3.3,7.1c-2.1,5.7-1.8,7-1.7,7.4l0.2,0.7l0.6,0.5
	c3.7,2.8,13.1,6.9,23.8,6.9c8.7,0,15.9-2.4,20.9-6.8c4.4-3.9,6.8-9.3,6.8-15.1c0-14.9-12-19.6-22.5-22c-8.9-2-8.9-3.2-8.9-4.4
	c0-2.9,4.2-3.2,6.1-3.2c4.6,0,9.6,1.2,14.7,3.7l0.3,0.1l0.3,0.1l0.3,0l0.1,0l0.1,0c1.3,0,2.2-0.9,3.9-4.4c1-2.1,2.1-4.5,2.7-6.4
	c0.7-2.2,1.3-4.4-0.2-5.6C200.9,237.7,191.7,235.3,182.6,235.3"/>
<path class="st8" d="M155.7,306.4c-10.7,0-10.8-0.5-11-1.3l0-0.1l0-0.1c-0.4-5.2-0.7-42,0.1-48.7l0.1-0.7l0.7-0.2
	c2-0.5,7.1-0.6,10-0.6c3.3,0,8.8,0.1,9.6,0.6l0.3,0.2l0.1,0.4c0.8,3,0.7,44.1-0.1,48.8l0,0.2l-0.1,0.1
	C165.1,305.7,164.7,306.4,155.7,306.4"/>
<path class="st6" d="M155.5,255.9c4.4,0,8.7,0.2,9,0.4c0.7,2.9,0.6,43.9-0.1,48.4c-0.3,0.6-4.5,0.8-8.8,0.8c-4.9,0-9.9-0.3-10-0.5
	c-0.4-4.9-0.7-41.8,0.1-48.5C147.4,256,151.5,255.9,155.5,255.9 M155.5,253.9c-2.9,0-8.1,0.1-10.2,0.6l-1.3,0.3l-0.2,1.4
	c-0.8,6.7-0.6,43.7-0.1,48.9l0,0.1l0,0.1c0.4,1.7,1.7,1.8,5,1.9c2,0.1,4.5,0.2,6.9,0.2c9.1,0,10-0.7,10.6-1.9l0.1-0.3l0-0.3
	c0.7-3.9,1-45.6,0.1-49.2l-0.2-0.8l-0.6-0.4C165.3,254.3,164.6,253.9,155.5,253.9"/>
<path class="st8" d="M155.7,250.8c-10.6,0-10.7-0.3-11-1.1l0-0.1l0-0.1c-0.4-3.8-0.7-30.5,0.1-35.3l0.1-0.7l0.7-0.1
	c2-0.4,7.6-0.4,9.9-0.4c2,0,8.7,0,9.5,0.4l0.4,0.2l0.1,0.4c0.9,2.6,0.6,32.6-0.1,35.5l0,0.2l-0.1,0.2
	C164.9,250.3,164.6,250.8,155.7,250.8"/>
<path class="st6" d="M155.5,214.1c4.4,0,8.7,0.1,9,0.3c0.7,2.1,0.6,31.7-0.1,34.9c-0.3,0.4-4.5,0.6-8.8,0.6c-4.9,0-9.9-0.2-10-0.4
	c-0.4-3.6-0.7-30.2,0.1-35C147.4,214.2,151.5,214.1,155.5,214.1 M155.5,212.1L155.5,212.1c-2.9,0-8,0.1-10.1,0.4l-1.4,0.2l-0.2,1.4
	c-0.9,5.1-0.6,31.7-0.1,35.6l0,0.2l0,0.2c0.5,1.5,1.5,1.5,5,1.7c2,0.1,4.5,0.1,6.9,0.1c9.4,0,9.8-0.5,10.4-1.4l0.2-0.3l0.1-0.4
	c0.7-3,1-33.3,0-36l-0.3-0.8l-0.8-0.4C165.1,212.4,164.4,212.1,155.5,212.1"/>
<path class="st8" d="M126.1,305.8c-10.6,0-20-4.1-23.6-6.8l-0.3-0.2l-0.1-0.4c-0.4-2.2,3.4-12.1,5-13.9c0.1-0.2,0.6-0.7,1.2-0.7h0.2
	l0.3,0.1l0.1,0c0.2,0.1,0.5,0.3,0.8,0.5c2.7,1.7,8.9,5.7,15.8,5.7c5.4,0,8.1-1.6,8.1-4.7c0-1.9-0.9-4.1-11.1-6.2
	c-13.8-2.8-19.9-9.5-19.9-21.5c0-14.4,13.2-20.9,25.5-20.9c10.6,0,18.9,2.9,22.5,5.7c0.8,0.6,0.7,1.8-0.2,4.5
	c0,0.1-3.7,10.3-5.8,10.3l-0.3,0l-0.4-0.2c-5.4-2.6-10.6-3.9-15.5-3.9c-4.6,0-7.2,1.6-7.2,4.3c0,2,0.7,3.4,9.9,5.5
	c11,2.6,22.2,7.1,22.2,21.5C153.3,295.1,144.9,305.8,126.1,305.8"/>
<path class="st6" d="M128,237.8c9.9,0,18.2,2.6,21.9,5.5c1.2,0.9-4.4,13-5.3,13h0c-1.4-0.7-8.2-4.1-16.2-4.1c-5.6,0-8.2,2.2-8.2,5.3
	c0,2.9,1.6,4.4,10.7,6.5c12.1,2.8,21.4,7.7,21.4,20.5c0,9.9-8,20.3-26.2,20.3c-10.5,0-19.7-4.1-23-6.6c-0.4-1.8,4-13.4,5.2-13.4
	c0,0,0,0,0.1,0c2.2,1.3,9.2,6.4,17.1,6.4c5.5,0,9.1-1.7,9.1-5.7c0-3-2.2-5.2-11.9-7.2c-12.3-2.5-19.1-8.2-19.1-20.5
	C103.5,247,112.2,237.8,128,237.8 M128,235.8c-18.2,0-26.5,11.4-26.5,21.9c0,12.4,6.6,19.5,20.7,22.5c10.3,2.1,10.3,4.2,10.3,5.2
	c0,0.9,0,3.7-7.1,3.7c-6.6,0-12.7-3.9-15.3-5.5c-0.3-0.2-0.6-0.4-0.8-0.5l-0.1-0.1l-0.1,0c-0.3-0.1-0.6-0.2-0.9-0.2
	c-0.7,0-1.4,0.4-2,1.1c-1.5,1.9-5.7,12.1-5.2,14.7l0.1,0.7l0.6,0.5c3.8,2.8,13.3,7,24.2,7c8.9,0,16.2-2.4,21.3-6.9
	c4.5-4,6.9-9.5,6.9-15.4c0-15.2-12.3-20-23-22.4c-9.1-2.1-9.1-3.3-9.1-4.5c0-2.9,3.9-3.3,6.2-3.3c4.7,0,9.8,1.3,15.1,3.8l0.3,0.1
	l0.3,0.1l0.3,0l0.1,0l0.1,0c1.4,0,2.2-1,4-4.4c1.1-2.1,2.1-4.6,2.8-6.5c0.8-2.2,1.4-4.5-0.2-5.7C146.7,238.2,137.4,235.8,128,235.8"
	/>
<path class="st8" d="M92,305.8c-4.3,0-18.6,0-23.1-0.5l-0.8-0.1l-0.1-0.8c-0.5-7.2,0-50.9,0.5-63.2l0-0.9l0.9-0.1
	c5.1-0.3,19.4-0.5,30.3-0.5c12.2,0,12.7,0.2,13,0.3l0.4,0.2l0.1,0.4c0.7,1.9,0.7,11.2,0.2,14.2l-0.1,0.8l-0.8,0.1
	c-1.7,0.2-9,0.3-15.1,0.3c-4.8,0-9,0-11.9-0.1l0.1,8.9c1,0,2.1,0,3.3,0c16.4,0,17.1,0.6,17.4,0.8c0.5,0.4,1.3,1,0.7,13.2
	c0,0.3,0,0.5,0,0.5c0,1.1,0,1.4-10.1,1.4c-3.6,0-7.7-0.1-11.2-0.2c0,3.4,0,6.7-0.1,9.5c5-0.1,12.3-0.2,18-0.2c2.8,0,6.5,0,7.6,0.1
	l0.7,0.1l0.2,0.7c0.7,2.7,0.6,10.4,0.2,13.3l0.1,0l-0.2,0.7C112,305.6,112,305.8,92,305.8"/>
<path class="st6" d="M99.8,240.7c6.8,0,12.1,0.1,12.5,0.3c0.6,1.6,0.6,10.7,0.2,13.7c-1.5,0.2-8.2,0.3-15,0.3c-4.9,0-9.9,0-12.9-0.2
	l0.2,11c1.3,0,2.8,0,4.2,0c7.5,0,16.3,0.2,16.7,0.6c1,0.8,0.3,12.6,0.3,13c0,0.3-4,0.4-9.1,0.4c-3.9,0-8.4-0.1-12.2-0.2
	c0,4.1,0,8.4-0.1,11.5c5-0.1,13-0.2,19-0.2c3.7,0,6.6,0,7.6,0.1c0.7,3,0.5,12,0.1,13.5c0.4,0.2-9.1,0.4-19.3,0.4
	c-9.5,0-19.5-0.1-23-0.5c-0.4-7.1,0-50.9,0.5-63.1C74.6,240.9,89.1,240.7,99.8,240.7 M99.8,238.7c-10.9,0-25.2,0.2-30.4,0.5
	l-1.8,0.1l-0.1,1.8c-0.5,12.3-1,56-0.5,63.3l0.1,1.7l1.7,0.2c4.6,0.5,18.9,0.5,23.2,0.5c4.9,0,9.8,0,13.4-0.1c1.9,0,3.3-0.1,4.4-0.1
	c1.8-0.1,3.1-0.1,3.5-1.6l0.4-1.4l-0.2-0.1c0.3-3.4,0.3-10.2-0.3-13l-0.3-1.4l-1.5-0.1c-1.2-0.1-4.9-0.1-7.7-0.1
	c-5.3,0-12,0.1-16.9,0.1c0-2.2,0-4.8,0-7.4c3.2,0.1,6.9,0.1,10.2,0.1c2.7,0,4.9,0,6.5-0.1c2.6-0.1,4.6-0.2,4.6-2.3c0,0,0-0.2,0-0.5
	c0.6-12.7-0.1-13.3-1-14.1c-0.6-0.5-1.2-1-18-1c-0.8,0-1.5,0-2.3,0l-0.1-6.9c2.8,0.1,6.7,0.1,10.9,0.1c6.1,0,13.5-0.1,15.2-0.3
	l1.5-0.2l0.2-1.5c0.4-2.9,0.6-12.5-0.3-14.7l-0.3-0.8l-0.7-0.3C112.6,238.9,112.2,238.7,99.8,238.7"/>
<path class="st8" d="M65.8,303.7c-0.6,0-0.6,0-3.3-4.1c-2.8-4.3-7.5-11.4-12.1-17.5c-0.2,0-0.5,0-0.7,0c-1.1,0-2.5,0-3.6-0.1
	c0,1.2,0,2.6,0,4.1c-0.1,6.2-0.1,13.2-0.4,15.2l-0.1,0.6l-0.5,0.2c-0.9,0.4-8.6,0.6-11.5,0.6c-3.8,0-4.5-0.1-4.7-1.1
	c-0.5-4.3-0.1-54.6,0.7-60.4l0.1-0.8l0.8-0.1c4.4-0.5,13.9-1,20.6-1c17.8,0,27.1,7.6,27.1,22c0,8.3-3.5,14.1-10.4,17.4
	c3.6,4.4,6.7,8.9,8.3,11.3c4.6,6.8,4.4,7.1,3.9,7.7c-1.2,1.7-11.3,5.8-14.2,5.8h0C65.9,303.7,65.8,303.7,65.8,303.7 M47,268
	c1.6,0.1,3.7,0.2,5.2,0.2c3.9,0,8.5-1.1,8.5-6.4c0-3.2-1-7-9-7c-1.3,0-3.1,0.1-4.7,0.2c0,2.3,0,6.8,0,10.2C47,266.2,47,267.2,47,268
	"/>
<path class="st6" d="M51.1,240.4c16.6,0,26.1,6.6,26.1,21c0,9-4.2,14.3-11,17c6.6,8,13.3,18.5,13.1,18.9c-0.9,1.3-10.7,5.4-13.4,5.4
	c0,0-0.1,0-0.1,0c-0.3,0-7.8-12.2-15-21.6c-0.3,0.1-0.8,0.1-1.1,0.1c-1.5,0-3.5-0.1-4.6-0.2c-0.1,6-0.1,17.7-0.4,20.3
	c-0.6,0.2-6.9,0.5-11.1,0.5c-2.1,0-3.7-0.1-3.7-0.2c-0.4-4.1-0.1-54.2,0.7-60.1C35,240.8,44.4,240.4,51.1,240.4 M52.2,269.2
	c5.6,0,9.5-2.2,9.5-7.4c0-4.8-2.5-8-10-8c-1.6,0-4,0.1-5.7,0.3c0.1,2.3,0,11.9,0,14.9C47.6,269.1,50.2,269.2,52.2,269.2 M51.1,238.4
	c-6.8,0-16.3,0.4-20.7,1l-1.5,0.2l-0.2,1.5c-0.8,5.9-1.1,56.4-0.7,60.6l0,0.1l0,0.1c0.3,1.9,2,1.9,5.7,1.9c0.1,0,10.4-0.1,11.9-0.6
	l1.1-0.4l0.2-1.2c0.3-1.9,0.3-7.8,0.4-15.3c0-1.1,0-2.1,0-3.1c0.9,0,1.8,0.1,2.6,0.1c0.1,0,0.1,0,0.2,0c4.5,6,9,12.8,11.7,17
	c0.7,1.1,1.4,2.1,1.8,2.7c0.8,1.2,1.3,1.9,2.4,1.9l0.1,0c3,0,13.5-4.1,15-6.2c1.1-1.4,0-3-3.9-8.9c-1.5-2.2-4.3-6.3-7.6-10.5
	c6.5-3.5,9.8-9.5,9.8-17.8C79.2,250.9,74.4,238.4,51.1,238.4 M48,255.9c1.3-0.1,2.7-0.1,3.7-0.1c7.1,0,8,2.9,8,6
	c0,5.4-5.7,5.4-7.5,5.4c-1.2,0-2.8,0-4.2-0.1c0-0.6,0-1.2,0-1.9C48,262,48,258.3,48,255.9"/>
<path class="st8" d="M125,220.5c0,5.2-3.1,10.5-10.1,10.5c-6.3,0-10.2-4.4-10.2-11c0-5.3,3.4-10.5,10.1-10.5
	C120.9,209.5,125,213.7,125,220.5 M114.9,214.3c-3,0-4.7,2.4-4.7,6c0,3.3,1.8,5.9,4.6,5.9c3.1,0,4.6-2.4,4.6-6.1
	C119.4,216.2,117.5,214.3,114.9,214.3"/>
<path class="st9" d="M125,220.5c0,5.2-3.1,10.5-10.1,10.5c-6.3,0-10.2-4.4-10.2-11c0-5.3,3.4-10.5,10.1-10.5
	C120.9,209.5,125,213.7,125,220.5z M114.9,214.3c-3,0-4.7,2.4-4.7,6c0,3.3,1.8,5.9,4.6,5.9c3.1,0,4.6-2.4,4.6-6.1
	C119.4,216.2,117.5,214.3,114.9,214.3z"/>
<path class="st8" d="M88.2,210c0.7-0.2,4.1-0.2,6.4-0.2c6.9,0,11.1,4.5,11.1,10.4c0,6.1-3.3,10.6-11.3,10.6c-2.5,0-5.7-0.2-6.4-0.4
	C87.8,228.6,87.9,212.2,88.2,210 M94.7,214.7c-0.7,0-1.2,0-1.6,0.1c0,3.4-0.1,7.8-0.1,11.2c0.5,0.1,1.1,0.1,1.9,0.1
	c2.3,0,5.4-0.7,5.4-5.5C100.3,217,97.9,214.7,94.7,214.7"/>
<path class="st9" d="M88.2,210c0.7-0.2,4.1-0.2,6.4-0.2c6.9,0,11.1,4.5,11.1,10.4c0,6.1-3.3,10.6-11.3,10.6c-2.5,0-5.7-0.2-6.4-0.4
	C87.8,228.6,87.9,212.2,88.2,210z M94.7,214.7c-0.7,0-1.2,0-1.6,0.1c0,3.4-0.1,7.8-0.1,11.2c0.5,0.1,1.1,0.1,1.9,0.1
	c2.3,0,5.4-0.7,5.4-5.5C100.3,217,97.9,214.7,94.7,214.7z"/>
<path class="st8" d="M90.5,221.8c0,5.2-3.1,10.5-10.1,10.5c-6.3,0-10.2-4.4-10.2-11c0-5.3,3.4-10.5,10.1-10.5
	C86.5,210.8,90.5,214.9,90.5,221.8 M80.4,215.6c-3,0-4.7,2.4-4.7,6c0,3.3,1.8,5.9,4.6,5.9c3.1,0,4.6-2.4,4.6-6.1
	C84.9,217.4,83,215.6,80.4,215.6"/>
<path class="st9" d="M90.5,221.8c0,5.2-3.1,10.5-10.1,10.5c-6.3,0-10.2-4.4-10.2-11c0-5.3,3.4-10.5,10.1-10.5
	C86.5,210.8,90.5,214.9,90.5,221.8z M80.4,215.6c-3,0-4.7,2.4-4.7,6c0,3.3,1.8,5.9,4.6,5.9c3.1,0,4.6-2.4,4.6-6.1
	C84.9,217.4,83,215.6,80.4,215.6z"/>
<path class="st8" d="M59.6,211.8c0.4-0.2,14.1-0.5,15.5-0.3c0.4,0.1,0.4,4.5,0.2,4.5c-0.6,0.1-2.7,0.1-5.2,0.2
	c0,5.7,0.1,14.6,0,15.8c-0.2,0.2-5.1,0.4-5.1,0.1c-0.1-1.6-0.1-10.7-0.1-16c-1.9,0-4.4,0.1-5.1,0C59.5,215.2,59.5,212,59.6,211.8"/>
<path class="st9" d="M59.6,211.8c0.4-0.2,14.1-0.5,15.5-0.3c0.4,0.1,0.4,4.5,0.2,4.5c-0.6,0.1-2.7,0.1-5.2,0.2
	c0,5.7,0.1,14.6,0,15.8c-0.2,0.2-5.1,0.4-5.1,0.1c-0.1-1.6-0.1-10.7-0.1-16c-1.9,0-4.4,0.1-5.1,0C59.5,215.2,59.5,212,59.6,211.8z"
	/>
</svg>
