<?xml version="1.0" encoding="utf-8"?>
<!-- Generator: Adobe Illustrator 22.0.1, SVG Export Plug-In . SVG Version: 6.00 Build 0)  -->
<svg version="1.1" id="Layer_1" xmlns="http://www.w3.org/2000/svg" xmlns:xlink="http://www.w3.org/1999/xlink" x="0px" y="0px"
	 viewBox="0 0 410.2 166.5" style="enable-background:new 0 0 410.2 166.5;" xml:space="preserve">
<style type="text/css">
	.st0{opacity:0;fill:#E6E7E8;stroke:#6CD8AC;stroke-width:1.3324;stroke-miterlimit:10;}
	.st1{opacity:0.25;fill:#ECEDEE;}
	.st2{opacity:0.5;fill:#F3F3F3;}
	.st3{opacity:0.75;fill:#F9F9F9;}
	.st4{fill:#FFFFFF;}
</style>
<g>
	<g>
		<g>
			<path class="st0" d="M136.6,152V0.9H0v153.6c0,6.6,5.3,11.9,11.9,11.9c5.3,0,9.8-3.5,11.3-8.2c1.5,4.8,6,8.2,11.3,8.2
				c5.3,0,9.8-3.5,11.3-8.2c1.5,4.8,6,8.2,11.3,8.2c5.3,0,9.8-3.5,11.3-8.2c1.5,4.8,6,8.2,11.3,8.2c5.3,0,9.8-3.5,11.3-8.2
				c1.5,4.8,6,8.2,11.3,8.2s9.8-3.5,11.3-8.2c1.5,4.8,6,8.2,11.3,8.2c6.6,0,11.9-5.3,11.9-11.9C136.9,153.6,136.8,152.8,136.6,152z"
				/>
			<path class="st1" d="M79.8,131.8c5.3,0,9.8-3.5,11.3-8.2c1.5,4.8,6,8.2,11.3,8.2c5.3,0,9.8-3.5,11.3-8.2c1.5,4.8,6,8.2,11.3,8.2
				c6.6,0,11.9-5.3,11.9-11.9c0-0.9-0.1-1.7-0.3-2.5V0.6H0v119.3c0,6.6,5.3,11.9,11.9,11.9c5.3,0,9.8-3.5,11.3-8.2
				c1.5,4.8,6,8.2,11.3,8.2c5.3,0,9.8-3.5,11.3-8.2c1.5,4.8,6,8.2,11.3,8.2c5.3,0,9.8-3.5,11.3-8.2C70,128.3,74.5,131.8,79.8,131.8z
				"/>
			<path class="st2" d="M79.8,97.2c5.3,0,9.8-3.5,11.3-8.2c1.5,4.8,6,8.2,11.3,8.2c5.3,0,9.8-3.5,11.3-8.2c1.5,4.8,6,8.2,11.3,8.2
				c6.6,0,11.9-5.3,11.9-11.9c0-0.9-0.1-1.7-0.3-2.5V0.3H0v85c0,6.6,5.3,11.9,11.9,11.9c5.3,0,9.8-3.5,11.3-8.2
				c1.5,4.8,6,8.2,11.3,8.2c5.3,0,9.8-3.5,11.3-8.2c1.5,4.8,6,8.2,11.3,8.2c5.3,0,9.8-3.5,11.3-8.2C70,93.7,74.5,97.2,79.8,97.2z"/>
			<path class="st3" d="M79.8,62.6c5.3,0,9.8-3.5,11.3-8.2c1.5,4.8,6,8.2,11.3,8.2c5.3,0,9.8-3.5,11.3-8.2c1.5,4.8,6,8.2,11.3,8.2
				c6.6,0,11.9-5.3,11.9-11.9c0-0.9-0.1-1.7-0.3-2.5V0H0v50.7c0,6.6,5.3,11.9,11.9,11.9c5.3,0,9.8-3.5,11.3-8.2
				c1.5,4.8,6,8.2,11.3,8.2c5.3,0,9.8-3.5,11.3-8.2c1.5,4.8,6,8.2,11.3,8.2c5.3,0,9.8-3.5,11.3-8.2C70,59.2,74.5,62.6,79.8,62.6z"/>
			<path class="st4" d="M136.6,13.6V-0.3H0v16.4C0,22.7,5.3,28,11.9,28c5.3,0,9.8-3.5,11.3-8.2c1.5,4.8,6,8.2,11.3,8.2
				c5.3,0,9.8-3.5,11.3-8.2c1.5,4.8,6,8.2,11.3,8.2c5.3,0,9.8-3.5,11.3-8.2c1.5,4.8,6,8.2,11.3,8.2c5.3,0,9.8-3.5,11.3-8.2
				c1.5,4.8,6,8.2,11.3,8.2c5.3,0,9.8-3.5,11.3-8.2c1.5,4.8,6,8.2,11.3,8.2c6.6,0,11.9-5.3,11.9-11.9
				C136.9,15.3,136.8,14.4,136.6,13.6z"/>
		</g>
	</g>
	<g>
		<g>
			<path class="st0" d="M273.2,152V0.9H136.6v153.6c0,6.6,5.3,11.9,11.9,11.9c5.3,0,9.8-3.5,11.3-8.2c1.5,4.8,6,8.2,11.3,8.2
				c5.3,0,9.8-3.5,11.3-8.2c1.5,4.8,6,8.2,11.3,8.2c5.3,0,9.8-3.5,11.3-8.2c1.5,4.8,6,8.2,11.3,8.2c5.3,0,9.8-3.5,11.3-8.2
				c1.5,4.8,6,8.2,11.3,8.2c5.3,0,9.8-3.5,11.3-8.2c1.5,4.8,6,8.2,11.3,8.2c6.6,0,11.9-5.3,11.9-11.9
				C273.4,153.6,273.3,152.8,273.2,152z"/>
			<path class="st1" d="M216.3,131.8c5.3,0,9.8-3.5,11.3-8.2c1.5,4.8,6,8.2,11.3,8.2c5.3,0,9.8-3.5,11.3-8.2c1.5,4.8,6,8.2,11.3,8.2
				c6.6,0,11.9-5.3,11.9-11.9c0-0.9-0.1-1.7-0.3-2.5V0.6H136.6v119.3c0,6.6,5.3,11.9,11.9,11.9c5.3,0,9.8-3.5,11.3-8.2
				c1.5,4.8,6,8.2,11.3,8.2c5.3,0,9.8-3.5,11.3-8.2c1.5,4.8,6,8.2,11.3,8.2c5.3,0,9.8-3.5,11.3-8.2
				C206.5,128.3,211,131.8,216.3,131.8z"/>
			<path class="st2" d="M216.3,97.2c5.3,0,9.8-3.5,11.3-8.2c1.5,4.8,6,8.2,11.3,8.2c5.3,0,9.8-3.5,11.3-8.2c1.5,4.8,6,8.2,11.3,8.2
				c6.6,0,11.9-5.3,11.9-11.9c0-0.9-0.1-1.7-0.3-2.5V0.3H136.6v85c0,6.6,5.3,11.9,11.9,11.9c5.3,0,9.8-3.5,11.3-8.2
				c1.5,4.8,6,8.2,11.3,8.2c5.3,0,9.8-3.5,11.3-8.2c1.5,4.8,6,8.2,11.3,8.2c5.3,0,9.8-3.5,11.3-8.2C206.5,93.7,211,97.2,216.3,97.2z
				"/>
			<path class="st3" d="M216.3,62.6c5.3,0,9.8-3.5,11.3-8.2c1.5,4.8,6,8.2,11.3,8.2c5.3,0,9.8-3.5,11.3-8.2c1.5,4.8,6,8.2,11.3,8.2
				c6.6,0,11.9-5.3,11.9-11.9c0-0.9-0.1-1.7-0.3-2.5V0H136.6v50.7c0,6.6,5.3,11.9,11.9,11.9c5.3,0,9.8-3.5,11.3-8.2
				c1.5,4.8,6,8.2,11.3,8.2c5.3,0,9.8-3.5,11.3-8.2c1.5,4.8,6,8.2,11.3,8.2c5.3,0,9.8-3.5,11.3-8.2C206.5,59.2,211,62.6,216.3,62.6z
				"/>
			<path class="st4" d="M273.2,13.6V-0.3H136.6v16.4c0,6.6,5.3,11.9,11.9,11.9c5.3,0,9.8-3.5,11.3-8.2c1.5,4.8,6,8.2,11.3,8.2
				c5.3,0,9.8-3.5,11.3-8.2c1.5,4.8,6,8.2,11.3,8.2c5.3,0,9.8-3.5,11.3-8.2c1.5,4.8,6,8.2,11.3,8.2c5.3,0,9.8-3.5,11.3-8.2
				c1.5,4.8,6,8.2,11.3,8.2c5.3,0,9.8-3.5,11.3-8.2c1.5,4.8,6,8.2,11.3,8.2c6.6,0,11.9-5.3,11.9-11.9
				C273.4,15.3,273.3,14.4,273.2,13.6z"/>
		</g>
	</g>
	<g>
		<g>
			<path class="st0" d="M409.7,152V0.9H273.1v153.6c0,6.6,5.3,11.9,11.9,11.9c5.3,0,9.8-3.5,11.3-8.2c1.5,4.8,6,8.2,11.3,8.2
				c5.3,0,9.8-3.5,11.3-8.2c1.5,4.8,6,8.2,11.3,8.2c5.3,0,9.8-3.5,11.3-8.2c1.5,4.8,6,8.2,11.3,8.2c5.3,0,9.8-3.5,11.3-8.2
				c1.5,4.8,6,8.2,11.3,8.2c5.3,0,9.8-3.5,11.3-8.2c1.5,4.8,6,8.2,11.3,8.2c6.6,0,11.9-5.3,11.9-11.9
				C410,153.6,409.9,152.8,409.7,152z"/>
			<path class="st1" d="M352.9,131.8c5.3,0,9.8-3.5,11.3-8.2c1.5,4.8,6,8.2,11.3,8.2c5.3,0,9.8-3.5,11.3-8.2c1.5,4.8,6,8.2,11.3,8.2
				c6.6,0,11.9-5.3,11.9-11.9c0-0.9-0.1-1.7-0.3-2.5V0.6H273.1v119.3c0,6.6,5.3,11.9,11.9,11.9c5.3,0,9.8-3.5,11.3-8.2
				c1.5,4.8,6,8.2,11.3,8.2c5.3,0,9.8-3.5,11.3-8.2c1.5,4.8,6,8.2,11.3,8.2c5.3,0,9.8-3.5,11.3-8.2
				C343.1,128.3,347.6,131.8,352.9,131.8z"/>
			<path class="st2" d="M352.9,97.2c5.3,0,9.8-3.5,11.3-8.2c1.5,4.8,6,8.2,11.3,8.2c5.3,0,9.8-3.5,11.3-8.2c1.5,4.8,6,8.2,11.3,8.2
				c6.6,0,11.9-5.3,11.9-11.9c0-0.9-0.1-1.7-0.3-2.5V0.3H273.1v85c0,6.6,5.3,11.9,11.9,11.9c5.3,0,9.8-3.5,11.3-8.2
				c1.5,4.8,6,8.2,11.3,8.2c5.3,0,9.8-3.5,11.3-8.2c1.5,4.8,6,8.2,11.3,8.2c5.3,0,9.8-3.5,11.3-8.2
				C343.1,93.7,347.6,97.2,352.9,97.2z"/>
			<path class="st3" d="M352.9,62.6c5.3,0,9.8-3.5,11.3-8.2c1.5,4.8,6,8.2,11.3,8.2c5.3,0,9.8-3.5,11.3-8.2c1.5,4.8,6,8.2,11.3,8.2
				c6.6,0,11.9-5.3,11.9-11.9c0-0.9-0.1-1.7-0.3-2.5V0H273.1v50.7c0,6.6,5.3,11.9,11.9,11.9c5.3,0,9.8-3.5,11.3-8.2
				c1.5,4.8,6,8.2,11.3,8.2c5.3,0,9.8-3.5,11.3-8.2c1.5,4.8,6,8.2,11.3,8.2c5.3,0,9.8-3.5,11.3-8.2
				C343.1,59.2,347.6,62.6,352.9,62.6z"/>
			<path class="st4" d="M409.7,13.6V-0.3H273.1v16.4c0,6.6,5.3,11.9,11.9,11.9c5.3,0,9.8-3.5,11.3-8.2c1.5,4.8,6,8.2,11.3,8.2
				c5.3,0,9.8-3.5,11.3-8.2c1.5,4.8,6,8.2,11.3,8.2c5.3,0,9.8-3.5,11.3-8.2c1.5,4.8,6,8.2,11.3,8.2c5.3,0,9.8-3.5,11.3-8.2
				c1.5,4.8,6,8.2,11.3,8.2c5.3,0,9.8-3.5,11.3-8.2c1.5,4.8,6,8.2,11.3,8.2c6.6,0,11.9-5.3,11.9-11.9
				C410,15.3,409.9,14.4,409.7,13.6z"/>
		</g>
	</g>
</g>
</svg>
