<?xml version="1.0" encoding="utf-8"?>
<!-- Generator: Adobe Illustrator 22.0.1, SVG Export Plug-In . SVG Version: 6.00 Build 0)  -->
<svg version="1.1" id="Layer_1" xmlns="http://www.w3.org/2000/svg" xmlns:xlink="http://www.w3.org/1999/xlink" x="0px" y="0px"
	 viewBox="0 0 749.9 519" style="enable-background:new 0 0 749.9 519;" xml:space="preserve">
<style type="text/css">
	.st0{fill:#92D3E9;}
	.st1{fill:#A4DAED;}
	.st2{fill:#B6E2F0;}
	.st3{fill:#C9E9F4;}
	.st4{fill:#DBF0F8;}
	.st5{fill:#EDF8FB;}
	.st6{fill:#FFFFFF;}
</style>
<g>
	<path class="st0" d="M431.2,48.9C311.9-23.6,221.5,32.6,124.8,22.8l-10,16.5l235.4,143l244.6,148.5l7.6-12.5
		C541.4,236,555.3,124.2,431.2,48.9z"/>
	<path class="st1" d="M369.1,70.1C249.9,8.4,166.9,68.2,73.5,65l-8.6,16.5l235,121.9l244.2,126.5l6.5-12.5
		C486.9,242.4,492.9,134.3,369.1,70.1z"/>
	<path class="st2" d="M308.2,157.7c-118.9-51-194.7,12.4-284.7,15.9L16.4,190l234.7,100.7L495,395.4l5.3-12.4
		C433.7,315.2,431.9,210.8,308.2,157.7z"/>
	<path class="st3" d="M334.6,237.7c-118.8-40.3-187.1,26.6-273.9,36.8L55.1,291l234.4,79.6l243.5,82.6l4.2-12.4
		C467.7,380.4,458.1,279.7,334.6,237.7z"/>
	<path class="st4" d="M404.3,298.9c-118.6-29.6-179.6,40.9-263,57.8l-4.1,16.4l234,58.5l243.1,60.6l3.1-12.4
		C545.1,426.7,527.6,329.6,404.3,298.9z"/>
	<path class="st5" d="M473.7,340.2c-118.4-18.9-172.1,55.2-252.2,78.8l-2.6,16.4l233.7,37.3l242.8,38.7l2-12.4
		C622.1,453.3,596.8,359.9,473.7,340.2z"/>
	<path class="st6" d="M498.9,361.1c-118.2-8.2-164.5,69.5-241.3,99.7l-1.1,16.4l233.3,16.2l242.4,16.7l0.9-12.4
		C655,459.3,621.9,369.6,498.9,361.1z"/>
</g>
</svg>
