<?xml version="1.0" encoding="utf-8"?>
<!-- Generator: Adobe Illustrator 22.0.1, SVG Export Plug-In . SVG Version: 6.00 Build 0)  -->
<svg version="1.1" id="Layer_1" xmlns="http://www.w3.org/2000/svg" xmlns:xlink="http://www.w3.org/1999/xlink" x="0px" y="0px"
	 viewBox="0 0 749.9 402.4" style="enable-background:new 0 0 749.9 402.4;" xml:space="preserve">
<style type="text/css">
	.st0{clip-path:url(#SVGID_2_);}
	.st1{clip-path:url(#SVGID_4_);fill:#92D3E9;}
</style>
<g>
	<g>
		<defs>
			<polygon id="SVGID_1_" points="-0.3,-1 750.7,-1 750.7,562.9 7.5,562.9 			"/>
		</defs>
		<clipPath id="SVGID_2_">
			<use xlink:href="#SVGID_1_"  style="overflow:visible;"/>
		</clipPath>
		<g class="st0">
			<defs>
				<polygon id="SVGID_3_" points="751.6,400.5 8.7,400.5 0.8,-1 751.6,-1 				"/>
			</defs>
			<clipPath id="SVGID_4_">
				<use xlink:href="#SVGID_3_"  style="overflow:visible;"/>
			</clipPath>
			<path class="st1" d="M41.8,6.5C82,21,112.3,65.1,111,106.3c0,0.4,0,0.8,0,1.2c-3,36.3,23.3,76.1,58.9,88.8
				c35.4,12.7,66.8-6.4,69.7-42.7c0-0.4,0.1-0.7,0.2-1.1c5.4-39.8,41.1-60.4,81.3-45.9c40.2,14.4,70.4,58.6,69.2,99.8
				c0,0.4,0,0.8,0,1.2c-3.1,36.3,23.3,76.1,58.8,88.8c35.4,12.7,66.8-6.4,69.7-42.7c0-0.4,0.1-0.7,0.2-1.1
				c5.4-39.8,41.2-60.4,81.3-45.9c40.2,14.4,70.4,58.6,69.2,99.8c0,0.4,0.1,0.8,0,1.2c-3.1,36.3,23.3,76.1,58.9,88.8
				c8,2.9,15.9,4.1,23.3,3.9l4.8-1653.6L11.5-1254L-0.8,2.7C9.8,1,29.5,2.2,41.8,6.5z"/>
		</g>
	</g>
</g>
</svg>
