<?xml version="1.0" encoding="utf-8"?>
<!-- Generator: Adobe Illustrator 22.0.1, SVG Export Plug-In . SVG Version: 6.00 Build 0)  -->
<svg version="1.1" id="Layer_1" xmlns="http://www.w3.org/2000/svg" xmlns:xlink="http://www.w3.org/1999/xlink" x="0px" y="0px"
	 viewBox="0 0 749.9 562.4" style="enable-background:new 0 0 749.9 562.4;" xml:space="preserve">
<style type="text/css">
	.st0{clip-path:url(#SVGID_2_);fill:#92D3E9;}
</style>
<g>
	<defs>
		<rect id="SVGID_1_" x="-1.2" y="0.1" width="751.2" height="570"/>
	</defs>
	<clipPath id="SVGID_2_">
		<use xlink:href="#SVGID_1_"  style="overflow:visible;"/>
	</clipPath>
	<path class="st0" d="M33.5,162.4c40.6,14.6,71.2,59.2,69.9,100.9c0,0.4,0,0.8,0,1.2c-3,36.7,23.6,76.9,59.5,89.8
		c35.8,12.8,67.5-6.5,70.5-43.2c0-0.4,0.1-0.7,0.2-1.1c5.5-40.2,41.5-61,82.2-46.4c40.6,14.6,71.2,59.2,69.9,100.9
		c0,0.4,0,0.8,0,1.2c-3.1,36.7,23.6,76.9,59.4,89.8c35.8,12.8,67.5-6.5,70.5-43.2c0-0.4,0.1-0.7,0.2-1.1c5.5-40.2,41.6-61,82.2-46.4
		c40.6,14.6,71.2,59.2,69.9,100.9c0,0.4,0.1,0.8,0,1.2c-3.1,36.7,23.6,76.9,59.5,89.8c8.1,2.9,16.1,4.1,23.5,3.9l4.9-1671.4
		l-752.9-0.9L-1.7,158.5C9.1,156.8,21.1,158,33.5,162.4z"/>
</g>
</svg>
