<?xml version="1.0" encoding="utf-8"?>
<!-- Generator: Adobe Illustrator 22.0.1, SVG Export Plug-In . SVG Version: 6.00 Build 0)  -->
<svg version="1.1" id="Layer_1" xmlns="http://www.w3.org/2000/svg" xmlns:xlink="http://www.w3.org/1999/xlink" x="0px" y="0px"
	 viewBox="0 0 73 17.5" style="enable-background:new 0 0 73 17.5;" xml:space="preserve">
<style type="text/css">
	.st0{fill:none;stroke:#EBCD73;stroke-width:2.747;stroke-linecap:round;stroke-linejoin:round;stroke-miterlimit:10;}
</style>
<path class="st0" d="M70.1,8.3c0,3.1-2.5,5.5-5.5,5.5c-3.1,0-5.5-2.5-5.5-5.5v0.2C59,5.5,56.5,3,53.4,3c-3.1,0-5.5,2.5-5.5,5.5V8.3
	c0,3.1-2.5,5.5-5.5,5.5c-3.1,0-5.5-2.5-5.5-5.5v0.2c0-3.1-2.5-5.5-5.5-5.5c-3.1,0-5.5,2.5-5.5,5.5V8.3c0,3.1-2.5,5.5-5.5,5.5
	c-3.1,0-5.5-2.5-5.5-5.5v0.2C14.6,5.5,12.1,3,9,3C6,3,3.5,5.5,3.5,8.6"/>
</svg>
